<svg xmlns="http://www.w3.org/2000/svg" width="1228" height="128" viewBox="0 0 1228 128" version="1.1"><path d="M 443.467 17.998 C 441.250 19.096, 438.637 21.345, 437.661 22.997 C 436.685 24.649, 435.228 26, 434.422 26 C 433.616 26, 432.453 27.107, 431.837 28.459 C 430.939 30.428, 431.048 31.424, 432.381 33.459 C 433.297 34.857, 434.674 36, 435.441 36 C 436.209 36, 437.745 37.470, 438.856 39.267 C 439.967 41.064, 442.062 43.649, 443.512 45.011 C 445.797 47.158, 446.105 48.154, 445.824 52.494 L 445.500 57.500 449.897 57.815 L 454.293 58.129 453.725 52.628 C 453.206 47.598, 453.365 46.991, 455.581 45.539 C 456.913 44.666, 459.188 42.162, 460.635 39.976 C 462.082 37.789, 463.869 36, 464.607 36 C 465.345 36, 466.649 34.646, 467.505 32.991 C 469.349 29.425, 468.104 26, 464.965 26 C 463.884 26, 463 25.409, 463 24.687 C 463 22.861, 458.072 18.343, 454.685 17.064 C 450.617 15.526, 448.024 15.742, 443.467 17.998 M 639.392 19.494 C 637.801 20.172, 635.643 21.688, 634.595 22.863 C 633.547 24.039, 631.747 25.018, 630.595 25.039 C 628.958 25.070, 629.193 25.380, 631.671 26.458 C 635.680 28.202, 637 30.675, 637 36.445 C 637 40.195, 638.556 44.129, 645.608 58.216 C 655.515 78.004, 655.451 77.459, 649.634 92.523 L 646.167 101.500 639.583 101.796 C 635.963 101.958, 633 102.521, 633 103.046 C 633 103.615, 640.059 104, 650.500 104 C 660.750 104, 668 103.611, 668 103.060 C 668 102.544, 666.464 101.981, 664.586 101.810 L 661.172 101.500 664.281 94.119 C 667.276 87.008, 667.336 86.586, 665.918 82.619 L 664.446 78.500 672.473 78.357 C 686.577 78.105, 689.353 75.118, 682.164 67.929 C 680.054 65.819, 676.878 61.372, 675.105 58.046 C 672.030 52.277, 668.819 48.307, 659.182 38.360 C 656.450 35.540, 654.346 32.161, 653.455 29.161 C 651.984 24.208, 647.991 19.628, 644.392 18.766 C 643.232 18.489, 640.982 18.816, 639.392 19.494 M 736.327 19.591 C 735.991 20.466, 736.233 30.253, 736.864 41.341 C 738.590 71.633, 738.430 78.569, 735.913 82.641 C 734.765 84.498, 731.891 87.151, 729.527 88.537 C 723.674 91.967, 709.626 97, 705.905 97 C 700.053 97, 697.156 100.225, 700.509 103.008 C 701.723 104.015, 703.931 103.942, 711.803 102.630 C 723.862 100.621, 730.857 100.585, 738 102.494 C 747.929 105.147, 749.620 103.054, 747.896 90.247 C 747.086 84.232, 746.902 71.772, 747.304 50.352 L 747.890 19.205 745.695 18.616 C 741.461 17.480, 736.957 17.949, 736.327 19.591 M 798.933 21.414 C 797.595 23.379, 796.275 24.988, 796 24.990 C 795.725 24.992, 794.600 23.647, 793.500 22 C 790.979 18.225, 789.938 18.241, 787.089 22.094 L 784.802 25.187 781.919 21.844 L 779.036 18.500 776.248 21.806 L 773.459 25.113 771.200 22.056 C 769.957 20.375, 768.546 19, 768.065 19 C 766.958 19, 761.644 27.978, 762.340 28.673 C 762.623 28.957, 764.051 27.296, 765.511 24.982 L 768.167 20.775 771.054 24.138 C 772.877 26.260, 774.229 27.110, 774.721 26.444 C 775.149 25.863, 776.286 24.302, 777.246 22.977 L 778.992 20.566 781.958 24.033 L 784.923 27.500 787.633 24.123 L 790.344 20.746 793.172 24.123 L 796 27.500 798.828 24.123 L 801.656 20.746 804.349 24.123 L 807.041 27.500 809.849 24.123 L 812.656 20.746 815.367 24.123 L 818.077 27.500 820.997 24.088 L 823.917 20.675 825.925 23.088 C 827.030 24.414, 827.948 25.837, 827.967 26.250 C 828.046 28.047, 830.677 26.713, 832.665 23.867 L 834.829 20.769 837.487 24.979 C 838.948 27.294, 840.377 28.957, 840.660 28.673 C 841.341 27.992, 836.054 19, 834.973 19 C 834.513 19, 833.131 20.411, 831.903 22.136 L 829.670 25.272 826.817 21.886 L 823.964 18.500 821.118 21.799 L 818.273 25.098 815.339 21.441 L 812.405 17.784 809.953 21.421 L 807.500 25.058 804.433 21.449 L 801.367 17.841 798.933 21.414 M 440.757 24.212 C 438.117 28.080, 437.135 28.821, 435.271 28.353 C 433.652 27.947, 433 28.222, 433 29.310 C 433 32.143, 434.204 34, 436.040 34 C 437.044 34, 438.131 34.836, 438.455 35.858 C 438.779 36.879, 440.765 39.579, 442.869 41.858 C 447.924 47.333, 451.226 47.431, 456.179 42.250 C 458.150 40.188, 460.283 37.487, 460.917 36.250 C 461.551 35.013, 462.924 34, 463.968 34 C 465.965 34, 467.585 30.756, 466.480 28.968 C 466.124 28.391, 465.033 28.172, 464.056 28.482 C 462.751 28.896, 461.407 27.780, 458.989 24.273 L 455.699 19.500 449.835 19.500 L 443.972 19.500 440.757 24.212 M 637.118 22.760 L 633.812 25.520 635.906 27.415 C 637.527 28.882, 638 30.501, 638 34.585 C 638 39.181, 638.999 41.835, 645.750 55.180 C 652.626 68.773, 654.007 70.838, 658 73.500 C 662.228 76.319, 663.087 76.500, 672.215 76.500 C 679.899 76.500, 682.274 76.156, 683.574 74.855 C 685.100 73.329, 684.987 73.004, 682.009 70.355 C 680.243 68.785, 676.966 64.350, 674.726 60.500 C 672.486 56.650, 669.309 52.054, 667.667 50.288 C 664.705 47.101, 664.658 47.089, 661.782 48.788 C 659.394 50.198, 658.911 51.116, 659.039 54 C 659.307 60.055, 659.058 61, 657.196 61 C 652.433 61, 644.107 46.239, 646.614 42.240 C 647.837 40.287, 652 39.276, 652 40.930 C 652 41.519, 651.100 42, 650 42 C 647.498 42, 647.348 45.171, 649.593 50.628 C 651.392 55, 655.871 60.198, 657.155 59.404 C 657.622 59.115, 657.716 57.078, 657.364 54.877 C 656.780 51.222, 657.009 50.638, 660.012 48.131 C 663.259 45.421, 663.278 45.354, 661.575 42.755 C 660.627 41.308, 658.311 38.949, 656.430 37.514 C 653.835 35.535, 652.848 33.890, 652.342 30.702 C 651.551 25.708, 646.468 20, 642.812 20 C 641.499 20, 638.937 21.242, 637.118 22.760 M 737.419 24.250 C 738.495 32.694, 740.269 71.925, 739.773 76.318 C 738.826 84.725, 733.027 89.940, 718.888 95.100 C 714.663 96.642, 708.910 98.208, 706.103 98.581 C 702.516 99.057, 701 99.706, 701 100.769 C 701 102.396, 703.624 102.277, 718.500 99.976 C 725.570 98.882, 730.502 99.160, 739.342 101.153 C 746.971 102.872, 747.469 101.873, 745.971 87.870 C 745.117 79.887, 744.965 68.084, 745.460 48.250 L 746.165 20 741.521 20 L 736.877 20 737.419 24.250 M 510.743 25.541 C 507.804 30.406, 507.585 31.004, 508.750 30.992 C 509.163 30.988, 510.554 29.139, 511.842 26.884 L 514.185 22.783 516.837 26.511 L 519.490 30.240 522.421 26.619 L 525.352 22.997 528.176 26.249 L 531 29.500 533.824 26.249 L 536.648 22.997 539.597 26.641 L 542.547 30.285 545.023 26.614 L 547.500 22.942 550.569 26.553 L 553.637 30.164 556.398 26.545 L 559.159 22.925 562 26.500 L 564.841 30.075 567.567 26.501 L 570.293 22.927 573.147 26.213 L 576 29.500 578.890 26.169 L 581.781 22.838 584.075 26.919 C 585.336 29.164, 586.778 31, 587.279 31 C 588.018 31, 583.923 22.847, 582.256 21 C 582.008 20.725, 580.499 22.058, 578.902 23.962 L 576 27.424 573.029 23.962 C 571.157 21.781, 569.770 20.891, 569.279 21.556 C 568.851 22.137, 567.693 23.712, 566.706 25.056 L 564.912 27.500 561.977 24 L 559.041 20.500 556.329 23.902 L 553.617 27.304 550.757 23.902 L 547.896 20.500 544.961 24 C 543.130 26.183, 541.738 27.103, 541.263 26.444 C 540.843 25.863, 539.685 24.288, 538.688 22.944 L 536.877 20.500 533.938 23.962 L 531 27.424 528.062 23.962 L 525.123 20.500 523.312 22.944 C 522.315 24.288, 521.157 25.863, 520.737 26.444 C 520.260 27.105, 518.952 26.282, 517.237 24.241 C 515.732 22.449, 514.272 20.986, 513.993 20.991 C 513.714 20.996, 512.251 23.043, 510.743 25.541 M 889.500 22.577 C 882.968 24.006, 870 29.229, 870 30.431 C 870 31.626, 879.967 35.834, 887 37.608 C 893.026 39.128, 898.135 39.498, 913 39.489 C 929.201 39.479, 932.472 39.198, 939.323 37.222 C 946.673 35.103, 955 31.530, 955 30.497 C 955 29.536, 945.157 25.098, 939.446 23.485 C 930.836 21.052, 899.108 20.475, 889.500 22.577 M 985.635 23.073 C 984.186 24.212, 983 25.813, 983 26.629 C 983 27.920, 982.710 27.910, 980.777 26.557 C 976.830 23.792, 976.039 24.504, 976.676 30.250 C 976.996 33.138, 977.537 35.790, 977.879 36.144 C 978.221 36.498, 980.525 37.047, 983 37.364 C 985.475 37.682, 988.516 38.233, 989.757 38.589 C 993.029 39.528, 997.859 37.174, 999.611 33.786 C 1004.006 25.286, 993.277 17.061, 985.635 23.073 M 1166.990 23.250 C 1161.981 26.659, 1159.775 30.287, 1159.224 36.024 L 1158.727 41.196 1156.765 38.098 C 1154.583 34.652, 1152.538 34.234, 1149.223 36.557 C 1147.113 38.034, 1147 38.798, 1147 51.557 L 1147 65 1176.500 65 L 1206 65 1206 52 C 1206 40.333, 1205.795 38.795, 1204 37 C 1200.110 33.110, 1197.136 34.889, 1192.561 43.843 C 1189.679 49.483, 1191.587 48.465, 1194.966 42.559 C 1198.150 36.994, 1200.363 35.763, 1202.800 38.200 C 1203.603 39.003, 1204 43.470, 1204 51.716 L 1204 64.032 1176.250 63.766 L 1148.500 63.500 1148.217 52.246 C 1148.050 45.608, 1148.373 40.172, 1149.002 38.996 C 1150.881 35.486, 1153.612 36.647, 1157.675 42.681 C 1165.478 54.270, 1173.745 57.579, 1182.996 52.815 C 1189.361 49.537, 1192.195 44.318, 1191.727 36.737 C 1191.134 27.150, 1184.793 21, 1175.500 21 C 1171.749 21, 1169.372 21.628, 1166.990 23.250 M 900.500 23.019 C 891.026 23.763, 880.557 26.143, 875.687 28.662 C 872.929 30.088, 872.879 30.227, 874.678 31.487 C 875.718 32.215, 879.928 33.866, 884.034 35.156 C 890.874 37.303, 893.262 37.500, 912.500 37.500 C 931.738 37.500, 934.126 37.303, 940.966 35.156 C 945.072 33.866, 949.282 32.215, 950.322 31.487 C 952.114 30.232, 952.052 30.078, 949.132 28.568 C 940.523 24.116, 918.519 21.606, 900.500 23.019 M 988.315 23.007 C 981.044 25.937, 983.780 37, 991.775 37 C 999.454 37, 1001.782 27.007, 994.928 23.463 C 991.731 21.810, 991.352 21.784, 988.315 23.007 M 1171.170 22.716 C 1167.567 23.403, 1161.374 30.193, 1160.603 34.303 C 1158.683 44.536, 1165.350 52.989, 1175.346 52.996 C 1184.324 53.003, 1190.231 47.047, 1190.231 37.985 C 1190.231 31.487, 1187.593 27.077, 1182.015 24.250 C 1177.684 22.054, 1175.939 21.808, 1171.170 22.716 M 12.395 23.745 C 10.393 25.112, 8.763 32.133, 9.207 37.479 C 9.561 41.746, 10.796 44.611, 15.775 52.714 L 21.908 62.694 22.036 77.597 C 22.128 88.267, 21.758 93.636, 20.734 96.500 L 19.305 100.500 10.526 101.176 C -1.064 102.068, -2.723 103.784, 8.578 103.191 C 13.320 102.942, 21.195 103.311, 26.077 104.011 C 37.628 105.667, 38.273 105.217, 37.825 95.813 C 37.646 92.063, 37.725 89.120, 38 89.274 C 42.413 91.732, 46.094 93.240, 46.556 92.777 C 46.876 92.457, 47.451 90.014, 47.834 87.348 L 48.531 82.500 53.761 91 C 62.113 104.572, 62.339 104.769, 71.500 106.494 C 75.900 107.322, 80.111 108, 80.858 108 C 82.178 108, 82.021 105.825, 80.397 101.593 C 79.994 100.543, 80.334 100, 81.393 100 C 83.966 100, 83.266 98.305, 79.509 95.439 C 77.355 93.796, 74.273 89.470, 71.459 84.138 C 68.951 79.387, 61.685 68.145, 55.312 59.157 C 44.942 44.530, 41.436 40.696, 34.589 36.500 C 33.538 35.856, 32.698 33.365, 32.227 29.500 L 31.496 23.500 22.498 23.245 C 17.549 23.105, 13.003 23.330, 12.395 23.745 M 99.455 25.455 C 97.196 27.713, 97 28.661, 97 37.333 C 97 46.679, 97.023 46.767, 99.750 47.864 C 101.263 48.473, 104.300 48.944, 106.500 48.911 C 108.700 48.878, 126.588 48.639, 146.250 48.378 L 182 47.905 182 35.452 L 182 23 177.076 23 L 172.152 23 170.447 32.750 L 168.741 42.500 149.120 42.500 C 138.329 42.500, 126.350 42.725, 122.500 43 L 115.500 43.500 115.193 37.508 C 114.992 33.585, 114.387 31.237, 113.443 30.708 C 112.649 30.264, 112 29.326, 112 28.625 C 112 26.438, 107.502 23, 104.640 23 C 103.074 23, 100.862 24.047, 99.455 25.455 M 234.430 23.904 C 234.193 24.140, 234 25.383, 234 26.667 C 234 28.866, 233.635 29, 227.655 29 C 222.616 29, 220.944 29.405, 219.530 30.967 C 216.021 34.844, 218.537 42.005, 223.405 41.996 C 225.145 41.993, 224.949 41.657, 222.250 40.011 C 218.806 37.911, 218.171 35.515, 220.291 32.617 C 221.453 31.027, 223.538 30.862, 241.291 30.955 C 254.204 31.023, 261 30.704, 261 30.029 C 261 29.382, 256.624 29, 249.200 29 C 238.001 29, 235 28.324, 235 25.800 C 235 25.360, 241.242 25, 248.871 25 C 261.299 25, 263.822 25.311, 273.121 27.994 C 279.242 29.759, 285.859 30.990, 289.250 30.994 L 295 31 295 35.420 L 295 39.840 287.250 39.747 C 282.578 39.691, 277.343 40.318, 274.068 41.327 C 269.694 42.675, 264.381 43, 246.759 43 C 232.429 43, 225.095 43.345, 225.500 44 C 225.879 44.613, 233.948 45, 246.371 45 C 263.749 45, 267.750 44.702, 274.562 42.902 C 280.803 41.253, 284.050 40.941, 289.750 41.444 L 297 42.083 297 35.542 L 297 29 289.175 29 C 283.353 29, 278.749 28.222, 271.193 25.962 C 261.788 23.148, 260.068 22.943, 247.948 23.199 C 240.749 23.350, 234.666 23.667, 234.430 23.904 M 1053.226 24.228 C 1051.411 26.414, 1049.715 34.854, 1050.329 38.639 C 1050.648 40.608, 1053.630 46.883, 1056.955 52.582 L 1063 62.945 1062.924 78.223 C 1062.876 87.799, 1062.378 94.806, 1061.588 97 L 1060.328 100.500 1052.096 101.118 C 1047.568 101.458, 1043.428 102.172, 1042.895 102.705 C 1042.270 103.330, 1044.833 103.505, 1050.116 103.199 C 1054.621 102.939, 1062.083 103.313, 1066.699 104.031 C 1077.476 105.707, 1078.543 104.932, 1078.409 95.521 L 1078.318 89.123 1082.092 91.295 C 1084.168 92.490, 1086.152 93.181, 1086.502 92.831 C 1086.852 92.482, 1087.447 90.035, 1087.825 87.395 L 1088.511 82.594 1094.154 92.050 C 1097.258 97.251, 1100.719 102.340, 1101.844 103.359 C 1103.580 104.930, 1115.481 107.995, 1119.858 107.999 C 1121.178 108, 1121.021 105.825, 1119.397 101.593 C 1118.994 100.543, 1119.334 100, 1120.393 100 C 1122.885 100, 1122.300 98.281, 1118.970 95.820 C 1117.303 94.588, 1114 89.933, 1111.629 85.476 C 1109.258 81.020, 1105.099 74.027, 1102.387 69.937 C 1085.952 45.153, 1083.673 42.325, 1075.632 36.741 C 1073.500 35.260, 1073.052 34.073, 1072.800 29.241 L 1072.500 23.500 1063.402 23.214 C 1056.869 23.009, 1054 23.295, 1053.226 24.228 M 11.990 27.526 C 11.446 28.958, 11 32.703, 11 35.848 C 11 41.215, 11.467 42.328, 18.629 54.033 C 30.940 74.153, 34.529 80.311, 35.862 83.599 C 36.917 86.202, 43.091 91, 45.386 91 C 45.724 91, 46 88.750, 46 86 C 46 78.085, 48.458 79.243, 55.370 90.416 C 63.318 103.264, 63.553 103.468, 72.020 104.866 C 76.007 105.525, 79.464 105.870, 79.700 105.633 C 80.280 105.054, 74.047 92.789, 72.525 91.512 C 71.861 90.955, 62.365 83.324, 51.423 74.553 C 40.480 65.782, 30.283 57.244, 28.764 55.580 C 24.588 51.009, 25.493 45.904, 30.450 46.068 C 32.436 46.133, 32.432 46.168, 30.308 47.194 C 26.970 48.808, 26.822 50.635, 29.749 54.114 C 32.419 57.286, 72 89.327, 72 88.315 C 72 87.079, 61.596 70.713, 54.318 60.500 C 50.006 54.450, 45.692 48.272, 44.731 46.772 C 43.769 45.271, 40.399 42.337, 37.241 40.251 C 31.595 36.522, 31.492 36.369, 31 30.980 L 30.500 25.500 21.740 25.211 C 13.111 24.926, 12.965 24.961, 11.990 27.526 M 100.200 26.200 C 99.462 26.938, 99 30.552, 99 35.583 C 99 44.779, 99.280 45.085, 107.500 44.866 L 111.500 44.760 107.216 43.731 C 101.678 42.400, 102.364 40.482, 108.349 40.563 L 113 40.626 113 35.813 C 113 33.166, 112.662 30.997, 112.250 30.994 C 111.838 30.990, 110.733 29.640, 109.797 27.994 C 108.437 25.605, 107.417 25, 104.747 25 C 102.906 25, 100.860 25.540, 100.200 26.200 M 173.527 26.250 C 172.236 30.187, 170.243 42.595, 170.819 43.112 C 171.194 43.448, 173.412 44.188, 175.750 44.755 L 180 45.787 180 35.394 L 180 25 176.969 25 C 175.301 25, 173.753 25.563, 173.527 26.250 M 1053.098 28.149 C 1051.364 33.122, 1051.789 39.665, 1054.145 44.290 C 1055.325 46.605, 1060.422 55.475, 1065.473 64 C 1070.523 72.525, 1075.250 80.992, 1075.976 82.815 C 1077.135 85.724, 1083.101 91, 1085.232 91 C 1085.654 91, 1086 88.750, 1086 86 C 1086 77.890, 1088.463 79.245, 1095.719 91.345 C 1099.131 97.035, 1102.502 102.155, 1103.211 102.722 C 1104.606 103.839, 1117.955 106.379, 1118.670 105.664 C 1118.909 105.424, 1117.740 102.364, 1116.070 98.864 C 1112.834 92.077, 1114.010 93.185, 1081.019 65.844 C 1068.284 55.289, 1065.499 51.615, 1067.641 48.197 C 1068.226 47.264, 1069.783 46.392, 1071.102 46.260 L 1073.500 46.020 1071.228 46.986 C 1067.861 48.417, 1067.524 50.584, 1070.154 53.880 C 1072.768 57.154, 1110.009 88.324, 1110.601 87.732 C 1111.219 87.115, 1100.960 70.384, 1091.545 56.654 C 1085.289 47.530, 1081.302 42.777, 1077.785 40.250 C 1072.476 36.436, 1071 33.866, 1071 28.435 L 1071 25 1062.598 25 L 1054.196 25 1053.098 28.149 M 440.530 28.951 C 440.169 29.536, 440.544 30.272, 441.364 30.586 C 443.482 31.399, 447.500 30.688, 447.500 29.500 C 447.500 28.122, 441.343 27.636, 440.530 28.951 M 452.667 28.667 C 451.179 30.155, 452.184 31, 455.441 31 C 457.334 31, 459.131 30.597, 459.435 30.105 C 460.438 28.483, 454.180 27.153, 452.667 28.667 M 978.648 30.184 C 977.775 33.441, 977.854 35, 978.892 35 C 980.197 35, 981.269 29.869, 980.189 28.789 C 979.627 28.227, 979.026 28.771, 978.648 30.184 M 15.499 31.002 C 15.158 31.553, 16.032 32.442, 17.440 32.977 C 19.254 33.667, 20 34.686, 20 36.475 C 20 39.970, 21.699 39.647, 22.500 36 C 22.953 33.937, 23.759 33, 25.079 33 C 26.136 33, 27 32.325, 27 31.500 C 27 29.519, 23.341 29.568, 22.225 31.563 C 21.431 32.981, 21.229 32.981, 20.052 31.563 C 18.577 29.785, 16.415 29.519, 15.499 31.002 M 1056.499 31.002 C 1056.158 31.553, 1057.032 32.442, 1058.440 32.977 C 1060.254 33.667, 1061 34.686, 1061 36.475 C 1061 39.974, 1062.621 39.646, 1063.350 36 C 1063.689 34.304, 1064.587 33, 1065.416 33 C 1067.636 33, 1068.359 31.075, 1066.419 30.330 C 1065.370 29.928, 1064.238 30.321, 1063.487 31.349 C 1062.401 32.834, 1062.122 32.852, 1061.009 31.511 C 1059.572 29.779, 1057.406 29.535, 1056.499 31.002 M 1000.530 35.952 C 1000.206 36.475, 1001.233 38.348, 1002.811 40.115 C 1006.245 43.958, 1007.688 42.660, 1004.963 38.179 C 1002.997 34.946, 1001.589 34.239, 1000.530 35.952 M 446 38.034 C 444.702 38.903, 444.761 39.237, 446.441 40.519 C 448.744 42.276, 450.423 42.379, 453.130 40.930 C 454.726 40.076, 454.890 39.572, 453.942 38.430 C 452.575 36.783, 448.197 36.564, 446 38.034 M 986.205 42.377 C 983.276 47.342, 982.900 49.163, 984.007 53.023 C 984.843 55.934, 984.679 56.941, 983.002 59.210 C 980.781 62.215, 980.557 63, 981.918 63 C 982.424 63, 983.810 61.425, 985 59.500 C 987.085 56.126, 990.209 54.911, 991.486 56.977 C 991.818 57.514, 991.597 59.783, 990.995 62.018 C 990.393 64.254, 989.361 70.108, 988.700 75.028 L 987.500 83.973 983.297 78.540 C 977.772 71.400, 974.682 69.376, 971.173 70.603 C 967.726 71.807, 967.225 75.556, 969.826 80.674 C 970.895 82.778, 972.562 87.333, 973.529 90.796 C 974.972 95.956, 975.083 97.780, 974.145 100.912 C 973.515 103.013, 973 105.017, 973 105.366 C 973 105.715, 981.325 106, 991.500 106 C 1001.675 106, 1010 105.698, 1010 105.329 C 1010 104.960, 1009.229 103.806, 1008.287 102.765 C 1006.791 101.112, 1006.568 98.263, 1006.520 80.186 C 1006.485 67.186, 1005.968 56.990, 1005.129 52.744 C 1003.768 45.864, 1000.704 40.034, 998 39.181 C 996.800 38.802, 996.842 39.094, 998.212 40.640 C 1000.340 43.043, 1002.541 48.349, 1003.400 53.150 L 1004.053 56.801 1000.218 55.827 C 996.445 54.870, 996.384 54.779, 996.442 50.177 L 996.500 45.500 992.278 44.564 C 988.529 43.732, 988.121 43.368, 988.636 41.314 C 989.459 38.037, 988.525 38.445, 986.205 42.377 M 374.781 42.552 C 374.437 42.896, 375.471 45.250, 377.078 47.784 C 379.732 51.970, 380 53.191, 380 61.124 L 380 69.856 374.462 71.928 C 371.417 73.068, 368.267 74, 367.462 74 C 365.341 74, 365.670 70.330, 368 68 C 371.622 64.378, 369.978 57, 365.548 57 C 364.163 57, 362.400 58.046, 361.333 59.501 C 360.325 60.877, 357.093 62.879, 354.151 63.951 C 346.625 66.693, 344.022 68.642, 343.341 72.045 C 343.016 73.670, 342.441 75, 342.063 75 C 340.017 75, 324.554 70.614, 318.640 68.356 C 312.981 66.195, 311.627 65.979, 310.906 67.119 C 309.545 69.267, 309.839 70.719, 311.750 71.287 C 318.875 73.407, 333.994 79.886, 333.102 80.437 C 332.496 80.811, 332 82.891, 332 85.059 L 332 89 358.057 89 L 384.115 89 383.807 84.750 L 383.500 80.500 377.524 80.193 L 371.547 79.887 380.897 75.443 C 386.040 73, 390.566 71, 390.955 71 C 391.898 71, 393.529 74.570, 394.889 79.613 C 396.144 84.266, 400.326 89, 403.182 89 C 404.845 89, 405.001 88.517, 404.394 85.250 C 403.496 80.410, 401.406 77.261, 397.881 75.439 C 395.470 74.192, 393 71.268, 393 69.661 C 393 69.402, 395.029 68.001, 397.510 66.547 C 401.427 64.251, 401.882 63.648, 400.974 61.952 C 399.615 59.412, 398.775 59.486, 393.886 62.572 C 391.645 63.987, 389.676 64.999, 389.511 64.822 C 389.346 64.645, 387.590 61.800, 385.608 58.500 C 382.980 54.123, 382.004 51.350, 382.003 48.250 C 382.001 45.913, 381.550 44, 381 44 C 380.450 44, 379.998 45.237, 379.995 46.750 C 379.990 49.450, 379.948 49.431, 377.698 45.714 C 376.437 43.631, 375.125 42.209, 374.781 42.552 M 127.332 44.340 C 119.540 44.978, 112.828 45.837, 112.416 46.250 C 111.484 47.183, 123.383 47.202, 151.089 46.313 C 164.576 45.879, 171.205 45.350, 169 44.881 C 162.305 43.458, 141.412 43.187, 127.332 44.340 M 985.368 47.214 C 985.084 47.673, 985.146 49.388, 985.506 51.025 C 986.172 54.060, 988.934 55.545, 992.599 54.839 C 994.429 54.486, 996.346 49.456, 995.509 47.203 C 994.974 45.765, 986.258 45.774, 985.368 47.214 M 447.625 51.125 C 446.696 55.771, 446.784 56, 449.500 56 C 451.750 56, 452 55.600, 452 52 C 452 48.756, 451.646 48, 450.125 48 C 448.825 48, 448.058 48.958, 447.625 51.125 M 793.241 53.995 C 780.652 61.670, 785.917 80.983, 800.602 80.996 C 815.403 81.010, 820.166 60.501, 806.929 53.752 C 802.414 51.449, 797.266 51.541, 793.241 53.995 M 791.533 57.533 C 788.335 60.731, 788 61.595, 788 66.633 C 788 71.631, 788.348 72.548, 791.400 75.600 C 794.292 78.492, 795.495 79, 799.450 79 C 807.927 79, 813 74.320, 813 66.500 C 813 58.727, 807.926 54, 799.583 54 C 795.747 54, 794.535 54.532, 791.533 57.533 M 382 62.330 L 382 69.051 385 67.500 C 386.650 66.647, 388 65.751, 388 65.509 C 388 65.267, 386.650 62.941, 385 60.339 L 382 55.608 382 62.330 M 993.130 60.250 C 991.479 65.484, 990.001 74.969, 989.985 80.434 C 989.960 88.759, 988.863 88.964, 983.623 81.620 C 978.395 74.293, 975.664 72, 972.168 72 C 970.032 72, 969.837 72.342, 970.314 75.250 C 970.608 77.037, 972.052 81.864, 973.524 85.977 C 976.208 93.476, 976.776 97.979, 975.533 101.897 C 974.874 103.973, 975.065 104, 990.540 104 C 1005.087 104, 1006.160 103.874, 1005.464 102.250 C 1005.052 101.287, 1004.809 91.725, 1004.924 81 C 1005.151 59.949, 1004.880 58.682, 999.898 57.483 L 997.295 56.857 998.088 61.679 C 999.181 68.323, 999.163 70, 998 70 C 997.450 70, 996.995 68.763, 996.989 67.250 C 996.971 62.843, 995.807 57, 994.947 57 C 994.511 57, 993.694 58.462, 993.130 60.250 M 510.743 62.541 C 507.759 67.481, 507.578 68, 508.843 68 C 509.306 68, 510.533 66.425, 511.570 64.500 C 512.607 62.575, 513.772 61, 514.159 61 C 514.547 61, 515.825 62.350, 517 64 C 518.175 65.650, 519.443 66.997, 519.818 66.993 C 520.193 66.989, 521.570 65.415, 522.877 63.495 L 525.255 60.005 527.877 63.466 C 529.320 65.370, 530.766 66.944, 531.090 66.964 C 531.415 66.984, 532.836 65.377, 534.247 63.392 C 536.603 60.082, 536.903 59.938, 537.890 61.642 C 538.482 62.664, 539.674 64.400, 540.540 65.500 C 542.084 67.463, 542.169 67.435, 545.057 64 L 548 60.500 550.840 63.892 L 553.681 67.285 556.485 63.608 L 559.290 59.931 561.805 63.466 C 563.188 65.410, 564.585 66.997, 564.910 66.993 C 565.234 66.989, 566.588 65.389, 567.918 63.437 L 570.335 59.887 572.632 62.694 C 573.895 64.237, 574.944 65.838, 574.964 66.250 C 575.046 67.953, 576.831 66.788, 579.163 63.512 L 581.645 60.023 583.886 64.012 C 585.119 66.205, 586.565 68, 587.099 68 C 588.178 68, 586.847 65.113, 583.693 60.614 L 581.670 57.728 578.887 61.114 L 576.104 64.500 573.243 61.098 L 570.383 57.696 567.671 61.098 L 564.959 64.500 562.036 61 C 559.168 57.566, 559.084 57.538, 557.540 59.500 C 556.674 60.600, 555.495 62.312, 554.919 63.304 C 553.954 64.967, 553.708 64.889, 551.765 62.304 C 550.606 60.762, 549.282 59.070, 548.823 58.544 C 548.324 57.972, 546.802 58.976, 545.033 61.044 L 542.077 64.500 539.367 61.123 L 536.656 57.746 533.828 61.123 L 531 64.500 528.172 61.123 L 525.344 57.746 522.633 61.123 L 519.923 64.500 517.139 61.250 C 515.607 59.462, 514.159 58, 513.920 58 C 513.681 58, 512.251 60.043, 510.743 62.541 M 361.874 61.255 C 360.967 62.507, 357.349 64.524, 353.692 65.816 C 346.781 68.257, 345.619 69.151, 344.755 72.685 C 344.069 75.495, 345.467 76.003, 353.832 75.986 C 363.611 75.966, 365 75.409, 365 71.506 C 365 69.712, 365.698 67.666, 366.551 66.958 C 367.495 66.174, 367.984 64.463, 367.801 62.585 C 367.423 58.711, 364.234 57.996, 361.874 61.255 M 394.250 64.175 C 391.240 66.036, 389.965 68, 391.768 68 C 392.718 68, 400 63.103, 400 62.464 C 400 61.469, 397.351 62.258, 394.250 64.175 M 448 81.500 C 448 93.833, 448.368 101, 449 101 C 449.632 101, 450 93.833, 450 81.500 C 450 69.167, 449.632 62, 449 62 C 448.368 62, 448 69.167, 448 81.500 M 1064.843 76.753 C 1065.032 82.664, 1065.354 87.672, 1065.560 87.883 C 1065.765 88.094, 1067.575 88.319, 1069.582 88.383 C 1075.620 88.577, 1076.052 86.396, 1071.672 77.816 C 1069.618 73.792, 1067.164 69.489, 1066.219 68.253 C 1064.566 66.092, 1064.513 66.420, 1064.843 76.753 M 24 77.212 L 24 87.824 27.963 88.494 C 32.836 89.317, 34 88.668, 34 85.128 C 34 82.799, 27.663 70.598, 24.870 67.550 C 24.372 67.005, 24 71.130, 24 77.212 M 384.500 69.255 C 376.482 73.382, 364.717 77.049, 357.667 77.618 C 349.347 78.289, 335.294 75.747, 321.259 71.030 C 313.815 68.529, 310.456 67.921, 312.083 69.371 C 313.149 70.321, 331.765 77.225, 336.785 78.532 C 344.605 80.569, 363.484 80.487, 369.715 78.389 C 376.803 76.002, 390 69.842, 390 68.920 C 390 67.183, 388.327 67.285, 384.500 69.255 M 1203.413 87.500 C 1203.414 97.400, 1203.564 101.315, 1203.746 96.199 C 1203.928 91.084, 1203.927 82.984, 1203.744 78.199 C 1203.561 73.415, 1203.412 77.600, 1203.413 87.500 M 655.387 78.354 C 655.325 80.634, 653.638 86.708, 651.637 91.850 C 649.637 96.993, 648 101.381, 648 101.600 C 648 101.820, 650.587 101.999, 653.750 101.997 L 659.500 101.993 662.258 95.247 C 663.774 91.536, 665.012 87.098, 665.008 85.385 C 664.999 81.820, 662.046 77.592, 658.162 75.584 L 655.500 74.208 655.387 78.354 M 217.667 76.667 C 217.300 77.033, 217 84.225, 217 92.648 C 217 110.642, 215.752 109.253, 231.500 108.792 L 241.500 108.500 241.775 92.250 L 242.050 76 230.191 76 C 223.669 76, 218.033 76.300, 217.667 76.667 M 396 78.984 C 396 81.191, 401.472 87.862, 402.466 86.867 C 403.486 85.848, 401.994 81.370, 399.877 79.099 C 397.422 76.463, 396 76.421, 396 78.984 M 219 92.500 L 219 107 230 107 L 241 107 241 92.500 L 241 78 230 78 L 219 78 219 92.500 M 944.558 81.250 C 944.295 82.487, 943.580 86.200, 942.970 89.500 C 941.055 99.869, 942.377 99, 929.552 98.313 C 923.101 97.967, 912.127 98.245, 904.090 98.957 C 891.972 100.031, 889.650 100.003, 887.733 98.762 C 884.342 96.566, 880.188 95.829, 877.951 97.026 C 875.309 98.440, 876.383 100, 880 100 C 881.585 100, 883.202 100.519, 883.594 101.152 C 884.290 102.278, 879.466 101.893, 873.151 100.319 C 871.240 99.843, 870.870 100.085, 871.165 101.617 C 871.655 104.165, 878.444 106.351, 883 105.429 C 884.925 105.039, 901.688 104.546, 920.250 104.334 L 954 103.949 954 91.474 L 954 79 949.519 79 C 945.681 79, 944.969 79.323, 944.558 81.250 M 789.429 90.141 C 785.835 97.297, 785.127 99.465, 786.169 100.126 C 786.901 100.590, 787.762 100.976, 788.081 100.985 C 788.656 101, 796 83.142, 796 81.731 C 796 81.329, 795.555 81, 795.010 81 C 794.466 81, 791.954 85.113, 789.429 90.141 M 807 81.731 C 807 83.142, 814.344 101, 814.919 100.985 C 815.238 100.976, 816.099 100.590, 816.831 100.126 C 817.873 99.465, 817.165 97.297, 813.571 90.141 C 811.046 85.113, 808.534 81, 807.990 81 C 807.445 81, 807 81.329, 807 81.731 M 944.602 89.750 C 943.719 94.563, 942.997 98.816, 942.998 99.203 C 943 99.919, 949.476 101.984, 951.750 101.994 C 952.671 101.999, 953 99.236, 953 91.500 L 953 81 949.604 81 L 946.208 81 944.602 89.750 M 334 85 L 334 88 358 88 L 382 88 382 85 L 382 82 358 82 L 334 82 334 85 M 800 93.573 C 800 103.105, 800.172 104.113, 801.750 103.810 C 802.712 103.624, 803.388 103.141, 803.250 102.736 C 803.112 102.331, 803 97.725, 803 92.500 C 803 84.722, 802.728 83, 801.500 83 C 800.261 83, 800 84.841, 800 93.573 M 97.110 88.250 C 99.601 93.001, 104.204 97.922, 109.085 101.055 C 125.800 111.781, 153.445 109.610, 165.946 96.589 C 169.710 92.669, 171 92.155, 171 94.577 C 171 96.609, 176.374 102, 178.400 102 C 180.672 102, 183.295 97.505, 182.495 94.983 C 182.126 93.820, 180.467 91.323, 178.808 89.434 L 175.793 86 135.861 86 L 95.930 86 97.110 88.250 M 99 88.043 C 99 90.035, 107.979 98.671, 112.726 101.244 C 125.915 108.394, 145.622 107.994, 158.735 100.310 C 162.843 97.902, 171 89.622, 171 87.859 C 171 87.387, 154.800 87, 135 87 C 110.681 87, 99 87.338, 99 88.043 M 270.721 88.460 C 268.093 89.145, 264.771 90.784, 263.339 92.103 C 260.172 95.019, 257.052 101.514, 257.022 105.250 L 257 108 276.394 108 L 295.787 108 294.863 103.750 C 292.327 92.083, 281.974 85.526, 270.721 88.460 M 1155.907 89.325 C 1150.864 91.985, 1147.042 97.757, 1147.016 102.750 L 1147 106 1163.975 106 L 1180.950 106 1180.332 102.750 C 1179.478 98.259, 1177.677 94.972, 1174.339 91.814 C 1168.727 86.504, 1162.778 85.701, 1155.907 89.325 M 172.004 90.750 C 172.010 95.012, 175.597 100.197, 178.276 99.816 C 181.626 99.340, 181.720 95.009, 178.464 91.140 C 175.078 87.116, 171.999 86.930, 172.004 90.750 M 33 90.026 C 32.175 90.573, 29.873 90.762, 27.885 90.446 C 24.283 89.872, 24.266 89.887, 22.943 94.685 C 22.213 97.333, 21.590 99.916, 21.558 100.424 C 21.485 101.586, 31.927 104.068, 34.145 103.416 C 35.961 102.882, 36.849 98.144, 36.190 92.500 C 35.754 88.767, 35.359 88.460, 33 90.026 M 268.401 90.905 C 263.421 93.167, 259.978 97.744, 259.267 103.047 L 258.737 107 275.868 107 L 293 107 293 104.338 C 293 99.829, 288.498 93.419, 283.698 91.096 C 278.382 88.522, 273.775 88.465, 268.401 90.905 M 1073.500 90.064 C 1072.400 90.499, 1070.130 90.630, 1068.456 90.355 C 1065.528 89.874, 1065.346 90.062, 1063.706 95.265 C 1062.767 98.241, 1062 100.913, 1062 101.202 C 1062 101.491, 1063.933 101.993, 1066.295 102.317 C 1068.658 102.641, 1071.300 103.178, 1072.166 103.510 C 1074.857 104.543, 1077.001 101.280, 1076.985 96.179 C 1076.966 90.441, 1076.153 89.015, 1073.500 90.064 M 1157.966 89.820 C 1153.324 91.878, 1149.767 96.218, 1148.600 101.250 L 1147.962 104 1163.376 104 L 1178.789 104 1177.978 100.403 C 1177.079 96.415, 1173.913 92.545, 1169.800 90.405 C 1167.001 88.949, 1160.642 88.635, 1157.966 89.820 M 512.265 97.673 C 509.211 102.030, 507.834 105, 508.866 105 C 509.381 105, 510.790 103.326, 511.997 101.280 L 514.192 97.560 517.084 101.030 C 518.887 103.194, 520.262 104.103, 520.737 103.444 C 521.157 102.863, 522.315 101.288, 523.312 99.944 L 525.123 97.500 528.062 100.962 L 531 104.424 533.938 100.962 L 536.877 97.500 538.688 99.944 C 539.685 101.288, 540.843 102.863, 541.263 103.444 C 541.739 104.103, 543.140 103.185, 544.992 101 L 547.959 97.500 550.671 100.902 L 553.383 104.304 556.243 100.902 L 559.104 97.500 561.944 100.955 L 564.784 104.411 567.596 101.068 L 570.408 97.726 573.204 101.075 L 576 104.424 578.818 101.049 L 581.635 97.674 583.899 101.337 C 585.144 103.352, 586.603 105, 587.141 105 C 588.167 105, 588.084 104.819, 584.237 98.638 L 581.833 94.775 578.935 98.138 L 576.036 101.500 573.213 98.151 L 570.389 94.801 567.582 98.481 L 564.776 102.161 562.151 98.472 L 559.526 94.783 556.462 98.328 L 553.398 101.872 550.623 98.394 L 547.848 94.916 545.038 98.452 L 542.228 101.988 539.455 98.352 L 536.681 94.715 533.840 98.108 L 531 101.500 528.160 98.108 L 525.319 94.715 522.547 98.349 L 519.775 101.984 517.716 99.242 C 516.584 97.734, 515.340 96.128, 514.952 95.673 C 514.564 95.218, 513.354 96.118, 512.265 97.673 M 898.500 101.071 C 894.100 101.573, 889.938 101.776, 889.250 101.523 C 888.563 101.270, 888 101.499, 888 102.031 C 888 102.634, 898.850 102.989, 916.750 102.970 C 939.434 102.946, 945.078 102.688, 943.500 101.750 C 940.985 100.254, 909.792 99.784, 898.500 101.071" stroke="none" fill="#2a2a2a" fill-rule="evenodd"/><path d="M 0 51.559 C 0 87.140, 0.324 102.918, 1.044 102.473 C 1.619 102.118, 5.962 101.528, 10.697 101.164 L 19.305 100.500 20.734 96.500 C 21.758 93.636, 22.128 88.267, 22.036 77.597 L 21.908 62.694 15.798 52.751 C 8.998 41.686, 7.761 36.498, 10.006 28.478 C 11.504 23.127, 12.365 22.790, 23.502 23.203 L 31.497 23.500 32.228 29.500 C 32.698 33.366, 33.538 35.856, 34.589 36.500 C 41.436 40.696, 44.942 44.530, 55.312 59.157 C 61.685 68.145, 68.951 79.387, 71.459 84.138 C 74.273 89.470, 77.355 93.796, 79.509 95.439 C 83.266 98.305, 83.966 100, 81.393 100 C 80.334 100, 79.994 100.543, 80.397 101.593 C 82.021 105.825, 82.178 108, 80.858 108 C 80.111 108, 75.900 107.322, 71.500 106.494 C 62.339 104.769, 62.113 104.572, 53.761 91 L 48.531 82.500 47.834 87.348 C 47.451 90.014, 46.876 92.457, 46.556 92.777 C 46.094 93.240, 42.413 91.732, 38 89.274 C 37.725 89.120, 37.646 92.063, 37.825 95.813 C 38.266 105.077, 37.449 105.719, 27.199 104.159 C 18.994 102.910, 5.968 102.634, 2.250 103.630 C 0.077 104.213, -0 104.638, -0 116.117 L -0 128.002 614.250 127.751 L 1228.500 127.500 1228.763 63.750 L 1229.026 0 614.513 0 L 0 0 0 51.559 M 0.465 52 C 0.465 80.325, 0.593 91.913, 0.749 77.750 C 0.906 63.588, 0.906 40.413, 0.749 26.250 C 0.593 12.088, 0.465 23.675, 0.465 52 M 443.467 17.998 C 441.250 19.096, 438.637 21.345, 437.661 22.997 C 436.685 24.649, 435.228 26, 434.422 26 C 433.616 26, 432.453 27.107, 431.837 28.459 C 430.939 30.428, 431.048 31.424, 432.381 33.459 C 433.297 34.857, 434.674 36, 435.441 36 C 436.209 36, 437.745 37.470, 438.856 39.267 C 439.967 41.064, 442.062 43.649, 443.512 45.011 C 445.797 47.158, 446.105 48.154, 445.824 52.494 L 445.500 57.500 449.897 57.815 L 454.293 58.129 453.725 52.628 C 453.206 47.598, 453.365 46.991, 455.581 45.539 C 456.913 44.666, 459.188 42.162, 460.635 39.976 C 462.082 37.789, 463.869 36, 464.607 36 C 465.345 36, 466.649 34.646, 467.505 32.991 C 469.349 29.425, 468.104 26, 464.965 26 C 463.884 26, 463 25.409, 463 24.687 C 463 22.861, 458.072 18.343, 454.685 17.064 C 450.617 15.526, 448.024 15.742, 443.467 17.998 M 639.392 19.494 C 637.801 20.172, 635.643 21.688, 634.595 22.863 C 633.547 24.039, 631.747 25.018, 630.595 25.039 C 628.958 25.070, 629.193 25.380, 631.671 26.458 C 635.680 28.202, 637 30.675, 637 36.445 C 637 40.195, 638.556 44.129, 645.608 58.216 C 655.515 78.004, 655.451 77.459, 649.634 92.523 L 646.167 101.500 639.583 101.796 C 635.963 101.958, 633 102.521, 633 103.046 C 633 103.615, 640.059 104, 650.500 104 C 660.750 104, 668 103.611, 668 103.060 C 668 102.544, 666.464 101.981, 664.586 101.810 L 661.172 101.500 664.281 94.119 C 667.276 87.008, 667.336 86.586, 665.918 82.619 L 664.446 78.500 672.473 78.357 C 686.577 78.105, 689.353 75.118, 682.164 67.929 C 680.054 65.819, 676.878 61.372, 675.105 58.046 C 672.030 52.277, 668.819 48.307, 659.182 38.360 C 656.450 35.540, 654.346 32.161, 653.455 29.161 C 651.984 24.208, 647.991 19.628, 644.392 18.766 C 643.232 18.489, 640.982 18.816, 639.392 19.494 M 736.327 19.591 C 735.991 20.466, 736.233 30.253, 736.864 41.341 C 738.590 71.633, 738.430 78.569, 735.913 82.641 C 734.765 84.498, 731.891 87.151, 729.527 88.537 C 723.674 91.967, 709.626 97, 705.905 97 C 700.053 97, 697.156 100.225, 700.509 103.008 C 701.723 104.015, 703.931 103.942, 711.803 102.630 C 723.862 100.621, 730.857 100.585, 738 102.494 C 747.929 105.147, 749.620 103.054, 747.896 90.247 C 747.086 84.232, 746.902 71.772, 747.304 50.352 L 747.890 19.205 745.695 18.616 C 741.461 17.480, 736.957 17.949, 736.327 19.591 M 798.933 21.414 C 797.595 23.379, 796.275 24.988, 796 24.990 C 795.725 24.992, 794.600 23.647, 793.500 22 C 790.979 18.225, 789.938 18.241, 787.089 22.094 L 784.802 25.187 781.919 21.844 L 779.036 18.500 776.248 21.806 L 773.459 25.113 771.200 22.056 C 769.957 20.375, 768.546 19, 768.065 19 C 766.958 19, 761.644 27.978, 762.340 28.673 C 762.623 28.957, 764.051 27.296, 765.511 24.982 L 768.167 20.775 771.054 24.138 C 772.877 26.260, 774.229 27.110, 774.721 26.444 C 775.149 25.863, 776.286 24.302, 777.246 22.977 L 778.992 20.566 781.958 24.033 L 784.923 27.500 787.633 24.123 L 790.344 20.746 793.172 24.123 L 796 27.500 798.828 24.123 L 801.656 20.746 804.349 24.123 L 807.041 27.500 809.849 24.123 L 812.656 20.746 815.367 24.123 L 818.077 27.500 820.997 24.088 L 823.917 20.675 825.925 23.088 C 827.030 24.414, 827.948 25.837, 827.967 26.250 C 828.046 28.047, 830.677 26.713, 832.665 23.867 L 834.829 20.769 837.487 24.979 C 838.948 27.294, 840.377 28.957, 840.660 28.673 C 841.341 27.992, 836.054 19, 834.973 19 C 834.513 19, 833.131 20.411, 831.903 22.136 L 829.670 25.272 826.817 21.886 L 823.964 18.500 821.118 21.799 L 818.273 25.098 815.339 21.441 L 812.405 17.784 809.953 21.421 L 807.500 25.058 804.433 21.449 L 801.367 17.841 798.933 21.414 M 440.757 24.212 C 438.117 28.080, 437.135 28.821, 435.271 28.353 C 433.652 27.947, 433 28.222, 433 29.310 C 433 32.143, 434.204 34, 436.040 34 C 437.044 34, 438.131 34.836, 438.455 35.858 C 438.779 36.879, 440.765 39.579, 442.869 41.858 C 447.924 47.333, 451.226 47.431, 456.179 42.250 C 458.150 40.188, 460.283 37.487, 460.917 36.250 C 461.551 35.013, 462.924 34, 463.968 34 C 465.965 34, 467.585 30.756, 466.480 28.968 C 466.124 28.391, 465.033 28.172, 464.056 28.482 C 462.751 28.896, 461.407 27.780, 458.989 24.273 L 455.699 19.500 449.835 19.500 L 443.972 19.500 440.757 24.212 M 637.118 22.760 L 633.812 25.520 635.906 27.415 C 637.527 28.882, 638 30.501, 638 34.585 C 638 39.181, 638.999 41.835, 645.750 55.180 C 652.626 68.773, 654.007 70.838, 658 73.500 C 662.228 76.319, 663.087 76.500, 672.215 76.500 C 679.899 76.500, 682.274 76.156, 683.574 74.855 C 685.100 73.329, 684.987 73.004, 682.009 70.355 C 680.243 68.785, 676.966 64.350, 674.726 60.500 C 672.486 56.650, 669.309 52.054, 667.667 50.288 C 664.705 47.101, 664.658 47.089, 661.782 48.788 C 659.394 50.198, 658.911 51.116, 659.039 54 C 659.307 60.055, 659.058 61, 657.196 61 C 652.433 61, 644.107 46.239, 646.614 42.240 C 647.837 40.287, 652 39.276, 652 40.930 C 652 41.519, 651.100 42, 650 42 C 647.498 42, 647.348 45.171, 649.593 50.628 C 651.392 55, 655.871 60.198, 657.155 59.404 C 657.622 59.115, 657.716 57.078, 657.364 54.877 C 656.780 51.222, 657.009 50.638, 660.012 48.131 C 663.259 45.421, 663.278 45.354, 661.575 42.755 C 660.627 41.308, 658.311 38.949, 656.430 37.514 C 653.835 35.535, 652.848 33.890, 652.342 30.702 C 651.551 25.708, 646.468 20, 642.812 20 C 641.499 20, 638.937 21.242, 637.118 22.760 M 737.419 24.250 C 738.495 32.694, 740.269 71.925, 739.773 76.318 C 738.826 84.725, 733.027 89.940, 718.888 95.100 C 714.663 96.642, 708.910 98.208, 706.103 98.581 C 702.516 99.057, 701 99.706, 701 100.769 C 701 102.396, 703.624 102.277, 718.500 99.976 C 725.570 98.882, 730.502 99.160, 739.342 101.153 C 746.971 102.872, 747.469 101.873, 745.971 87.870 C 745.117 79.887, 744.965 68.084, 745.460 48.250 L 746.165 20 741.521 20 L 736.877 20 737.419 24.250 M 510.743 25.541 C 507.804 30.406, 507.585 31.004, 508.750 30.992 C 509.163 30.988, 510.554 29.139, 511.842 26.884 L 514.185 22.783 516.837 26.511 L 519.490 30.240 522.421 26.619 L 525.352 22.997 528.176 26.249 L 531 29.500 533.824 26.249 L 536.648 22.997 539.597 26.641 L 542.547 30.285 545.023 26.614 L 547.500 22.942 550.569 26.553 L 553.637 30.164 556.398 26.545 L 559.159 22.925 562 26.500 L 564.841 30.075 567.567 26.501 L 570.293 22.927 573.147 26.213 L 576 29.500 578.890 26.169 L 581.781 22.838 584.075 26.919 C 585.336 29.164, 586.778 31, 587.279 31 C 588.018 31, 583.923 22.847, 582.256 21 C 582.008 20.725, 580.499 22.058, 578.902 23.962 L 576 27.424 573.029 23.962 C 571.157 21.781, 569.770 20.891, 569.279 21.556 C 568.851 22.137, 567.693 23.712, 566.706 25.056 L 564.912 27.500 561.977 24 L 559.041 20.500 556.329 23.902 L 553.617 27.304 550.757 23.902 L 547.896 20.500 544.961 24 C 543.130 26.183, 541.738 27.103, 541.263 26.444 C 540.843 25.863, 539.685 24.288, 538.688 22.944 L 536.877 20.500 533.938 23.962 L 531 27.424 528.062 23.962 L 525.123 20.500 523.312 22.944 C 522.315 24.288, 521.157 25.863, 520.737 26.444 C 520.260 27.105, 518.952 26.282, 517.237 24.241 C 515.732 22.449, 514.272 20.986, 513.993 20.991 C 513.714 20.996, 512.251 23.043, 510.743 25.541 M 889.500 22.577 C 882.968 24.006, 870 29.229, 870 30.431 C 870 31.626, 879.967 35.834, 887 37.608 C 893.026 39.128, 898.135 39.498, 913 39.489 C 929.201 39.479, 932.472 39.198, 939.323 37.222 C 946.673 35.103, 955 31.530, 955 30.497 C 955 29.536, 945.157 25.098, 939.446 23.485 C 930.836 21.052, 899.108 20.475, 889.500 22.577 M 985.635 23.073 C 984.186 24.212, 983 25.813, 983 26.629 C 983 27.920, 982.710 27.910, 980.777 26.557 C 976.830 23.792, 976.039 24.504, 976.676 30.250 C 976.996 33.138, 977.537 35.790, 977.879 36.144 C 978.221 36.498, 980.525 37.047, 983 37.364 C 985.475 37.682, 988.516 38.233, 989.757 38.589 C 993.029 39.528, 997.859 37.174, 999.611 33.786 C 1004.006 25.286, 993.277 17.061, 985.635 23.073 M 1166.990 23.250 C 1161.981 26.659, 1159.775 30.287, 1159.224 36.024 L 1158.727 41.196 1156.765 38.098 C 1154.583 34.652, 1152.538 34.234, 1149.223 36.557 C 1147.113 38.034, 1147 38.798, 1147 51.557 L 1147 65 1176.500 65 L 1206 65 1206 52 C 1206 40.333, 1205.795 38.795, 1204 37 C 1200.110 33.110, 1197.136 34.889, 1192.561 43.843 C 1189.679 49.483, 1191.587 48.465, 1194.966 42.559 C 1198.150 36.994, 1200.363 35.763, 1202.800 38.200 C 1203.603 39.003, 1204 43.470, 1204 51.716 L 1204 64.032 1176.250 63.766 L 1148.500 63.500 1148.217 52.246 C 1148.050 45.608, 1148.373 40.172, 1149.002 38.996 C 1150.881 35.486, 1153.612 36.647, 1157.675 42.681 C 1165.478 54.270, 1173.745 57.579, 1182.996 52.815 C 1189.361 49.537, 1192.195 44.318, 1191.727 36.737 C 1191.134 27.150, 1184.793 21, 1175.500 21 C 1171.749 21, 1169.372 21.628, 1166.990 23.250 M 900.500 23.019 C 891.026 23.763, 880.557 26.143, 875.687 28.662 C 872.929 30.088, 872.879 30.227, 874.678 31.487 C 875.718 32.215, 879.928 33.866, 884.034 35.156 C 890.874 37.303, 893.262 37.500, 912.500 37.500 C 931.738 37.500, 934.126 37.303, 940.966 35.156 C 945.072 33.866, 949.282 32.215, 950.322 31.487 C 952.114 30.232, 952.052 30.078, 949.132 28.568 C 940.523 24.116, 918.519 21.606, 900.500 23.019 M 988.315 23.007 C 981.044 25.937, 983.780 37, 991.775 37 C 999.454 37, 1001.782 27.007, 994.928 23.463 C 991.731 21.810, 991.352 21.784, 988.315 23.007 M 1171.170 22.716 C 1167.567 23.403, 1161.374 30.193, 1160.603 34.303 C 1158.683 44.536, 1165.350 52.989, 1175.346 52.996 C 1184.324 53.003, 1190.231 47.047, 1190.231 37.985 C 1190.231 31.487, 1187.593 27.077, 1182.015 24.250 C 1177.684 22.054, 1175.939 21.808, 1171.170 22.716 M 99.455 25.455 C 97.196 27.713, 97 28.661, 97 37.333 C 97 46.679, 97.023 46.767, 99.750 47.864 C 101.263 48.473, 104.300 48.944, 106.500 48.911 C 108.700 48.878, 126.588 48.639, 146.250 48.378 L 182 47.905 182 35.452 L 182 23 177.076 23 L 172.152 23 170.447 32.750 L 168.741 42.500 149.120 42.500 C 138.329 42.500, 126.350 42.725, 122.500 43 L 115.500 43.500 115.193 37.508 C 114.992 33.585, 114.387 31.237, 113.443 30.708 C 112.649 30.264, 112 29.326, 112 28.625 C 112 26.438, 107.502 23, 104.640 23 C 103.074 23, 100.862 24.047, 99.455 25.455 M 234.430 23.904 C 234.193 24.140, 234 25.383, 234 26.667 C 234 28.866, 233.635 29, 227.655 29 C 222.616 29, 220.944 29.405, 219.530 30.967 C 216.021 34.844, 218.537 42.005, 223.405 41.996 C 225.145 41.993, 224.949 41.657, 222.250 40.011 C 218.806 37.911, 218.171 35.515, 220.291 32.617 C 221.453 31.027, 223.538 30.862, 241.291 30.955 C 254.204 31.023, 261 30.704, 261 30.029 C 261 29.382, 256.624 29, 249.200 29 C 238.001 29, 235 28.324, 235 25.800 C 235 25.360, 241.242 25, 248.871 25 C 261.299 25, 263.822 25.311, 273.121 27.994 C 279.242 29.759, 285.859 30.990, 289.250 30.994 L 295 31 295 35.420 L 295 39.840 287.250 39.747 C 282.578 39.691, 277.343 40.318, 274.068 41.327 C 269.694 42.675, 264.381 43, 246.759 43 C 232.429 43, 225.095 43.345, 225.500 44 C 225.879 44.613, 233.948 45, 246.371 45 C 263.749 45, 267.750 44.702, 274.562 42.902 C 280.803 41.253, 284.050 40.941, 289.750 41.444 L 297 42.083 297 35.542 L 297 29 289.175 29 C 283.353 29, 278.749 28.222, 271.193 25.962 C 261.788 23.148, 260.068 22.943, 247.948 23.199 C 240.749 23.350, 234.666 23.667, 234.430 23.904 M 1053.226 24.228 C 1051.411 26.414, 1049.715 34.854, 1050.329 38.639 C 1050.648 40.608, 1053.630 46.883, 1056.955 52.582 L 1063 62.945 1062.924 78.223 C 1062.876 87.799, 1062.378 94.806, 1061.588 97 L 1060.328 100.500 1052.096 101.118 C 1047.568 101.458, 1043.428 102.172, 1042.895 102.705 C 1042.270 103.330, 1044.833 103.505, 1050.116 103.199 C 1054.621 102.939, 1062.083 103.313, 1066.699 104.031 C 1077.476 105.707, 1078.543 104.932, 1078.409 95.521 L 1078.318 89.123 1082.092 91.295 C 1084.168 92.490, 1086.152 93.181, 1086.502 92.831 C 1086.852 92.482, 1087.447 90.035, 1087.825 87.395 L 1088.511 82.594 1094.154 92.050 C 1097.258 97.251, 1100.719 102.340, 1101.844 103.359 C 1103.580 104.930, 1115.481 107.995, 1119.858 107.999 C 1121.178 108, 1121.021 105.825, 1119.397 101.593 C 1118.994 100.543, 1119.334 100, 1120.393 100 C 1122.885 100, 1122.300 98.281, 1118.970 95.820 C 1117.303 94.588, 1114 89.933, 1111.629 85.476 C 1109.258 81.020, 1105.099 74.027, 1102.387 69.937 C 1085.952 45.153, 1083.673 42.325, 1075.632 36.741 C 1073.500 35.260, 1073.052 34.073, 1072.800 29.241 L 1072.500 23.500 1063.402 23.214 C 1056.869 23.009, 1054 23.295, 1053.226 24.228 M 11.990 27.526 C 11.446 28.958, 11 32.703, 11 35.848 C 11 41.215, 11.467 42.328, 18.629 54.033 C 30.940 74.153, 34.529 80.311, 35.862 83.599 C 36.917 86.202, 43.091 91, 45.386 91 C 45.724 91, 46 88.750, 46 86 C 46 78.085, 48.458 79.243, 55.370 90.416 C 63.318 103.264, 63.553 103.468, 72.020 104.866 C 76.007 105.525, 79.464 105.870, 79.700 105.633 C 80.280 105.054, 74.047 92.789, 72.525 91.512 C 71.861 90.955, 62.365 83.324, 51.423 74.553 C 40.480 65.782, 30.283 57.244, 28.764 55.580 C 24.588 51.009, 25.493 45.904, 30.450 46.068 C 32.436 46.133, 32.432 46.168, 30.308 47.194 C 26.970 48.808, 26.822 50.635, 29.749 54.114 C 32.419 57.286, 72 89.327, 72 88.315 C 72 87.079, 61.596 70.713, 54.318 60.500 C 50.006 54.450, 45.692 48.272, 44.731 46.772 C 43.769 45.271, 40.399 42.337, 37.241 40.251 C 31.595 36.522, 31.492 36.369, 31 30.980 L 30.500 25.500 21.740 25.211 C 13.111 24.926, 12.965 24.961, 11.990 27.526 M 100.200 26.200 C 99.462 26.938, 99 30.552, 99 35.583 C 99 44.779, 99.280 45.085, 107.500 44.866 L 111.500 44.760 107.216 43.731 C 101.678 42.400, 102.364 40.482, 108.349 40.563 L 113 40.626 113 35.813 C 113 33.166, 112.662 30.997, 112.250 30.994 C 111.838 30.990, 110.733 29.640, 109.797 27.994 C 108.437 25.605, 107.417 25, 104.747 25 C 102.906 25, 100.860 25.540, 100.200 26.200 M 173.527 26.250 C 172.236 30.187, 170.243 42.595, 170.819 43.112 C 171.194 43.448, 173.412 44.188, 175.750 44.755 L 180 45.787 180 35.394 L 180 25 176.969 25 C 175.301 25, 173.753 25.563, 173.527 26.250 M 1053.098 28.149 C 1051.364 33.122, 1051.789 39.665, 1054.145 44.290 C 1055.325 46.605, 1060.422 55.475, 1065.473 64 C 1070.523 72.525, 1075.250 80.992, 1075.976 82.815 C 1077.135 85.724, 1083.101 91, 1085.232 91 C 1085.654 91, 1086 88.750, 1086 86 C 1086 77.890, 1088.463 79.245, 1095.719 91.345 C 1099.131 97.035, 1102.502 102.155, 1103.211 102.722 C 1104.606 103.839, 1117.955 106.379, 1118.670 105.664 C 1118.909 105.424, 1117.740 102.364, 1116.070 98.864 C 1112.834 92.077, 1114.010 93.185, 1081.019 65.844 C 1068.284 55.289, 1065.499 51.615, 1067.641 48.197 C 1068.226 47.264, 1069.783 46.392, 1071.102 46.260 L 1073.500 46.020 1071.228 46.986 C 1067.861 48.417, 1067.524 50.584, 1070.154 53.880 C 1072.768 57.154, 1110.009 88.324, 1110.601 87.732 C 1111.219 87.115, 1100.960 70.384, 1091.545 56.654 C 1085.289 47.530, 1081.302 42.777, 1077.785 40.250 C 1072.476 36.436, 1071 33.866, 1071 28.435 L 1071 25 1062.598 25 L 1054.196 25 1053.098 28.149 M 440.530 28.951 C 440.169 29.536, 440.544 30.272, 441.364 30.586 C 443.482 31.399, 447.500 30.688, 447.500 29.500 C 447.500 28.122, 441.343 27.636, 440.530 28.951 M 452.667 28.667 C 451.179 30.155, 452.184 31, 455.441 31 C 457.334 31, 459.131 30.597, 459.435 30.105 C 460.438 28.483, 454.180 27.153, 452.667 28.667 M 978.648 30.184 C 977.775 33.441, 977.854 35, 978.892 35 C 980.197 35, 981.269 29.869, 980.189 28.789 C 979.627 28.227, 979.026 28.771, 978.648 30.184 M 15.499 31.002 C 15.158 31.553, 16.032 32.442, 17.440 32.977 C 19.254 33.667, 20 34.686, 20 36.475 C 20 39.970, 21.699 39.647, 22.500 36 C 22.953 33.937, 23.759 33, 25.079 33 C 26.136 33, 27 32.325, 27 31.500 C 27 29.519, 23.341 29.568, 22.225 31.563 C 21.431 32.981, 21.229 32.981, 20.052 31.563 C 18.577 29.785, 16.415 29.519, 15.499 31.002 M 1056.499 31.002 C 1056.158 31.553, 1057.032 32.442, 1058.440 32.977 C 1060.254 33.667, 1061 34.686, 1061 36.475 C 1061 39.974, 1062.621 39.646, 1063.350 36 C 1063.689 34.304, 1064.587 33, 1065.416 33 C 1067.636 33, 1068.359 31.075, 1066.419 30.330 C 1065.370 29.928, 1064.238 30.321, 1063.487 31.349 C 1062.401 32.834, 1062.122 32.852, 1061.009 31.511 C 1059.572 29.779, 1057.406 29.535, 1056.499 31.002 M 1000.530 35.952 C 1000.206 36.475, 1001.233 38.348, 1002.811 40.115 C 1006.245 43.958, 1007.688 42.660, 1004.963 38.179 C 1002.997 34.946, 1001.589 34.239, 1000.530 35.952 M 446 38.034 C 444.702 38.903, 444.761 39.237, 446.441 40.519 C 448.744 42.276, 450.423 42.379, 453.130 40.930 C 454.726 40.076, 454.890 39.572, 453.942 38.430 C 452.575 36.783, 448.197 36.564, 446 38.034 M 986.205 42.377 C 983.276 47.342, 982.900 49.163, 984.007 53.023 C 984.843 55.934, 984.679 56.941, 983.002 59.210 C 980.781 62.215, 980.557 63, 981.918 63 C 982.424 63, 983.810 61.425, 985 59.500 C 987.085 56.126, 990.209 54.911, 991.486 56.977 C 991.818 57.514, 991.597 59.783, 990.995 62.018 C 990.393 64.254, 989.361 70.108, 988.700 75.028 L 987.500 83.973 983.297 78.540 C 977.772 71.400, 974.682 69.376, 971.173 70.603 C 967.726 71.807, 967.225 75.556, 969.826 80.674 C 970.895 82.778, 972.562 87.333, 973.529 90.796 C 974.972 95.956, 975.083 97.780, 974.145 100.912 C 973.515 103.013, 973 105.017, 973 105.366 C 973 105.715, 981.325 106, 991.500 106 C 1001.675 106, 1010 105.698, 1010 105.329 C 1010 104.960, 1009.229 103.806, 1008.287 102.765 C 1006.791 101.112, 1006.568 98.263, 1006.520 80.186 C 1006.485 67.186, 1005.968 56.990, 1005.129 52.744 C 1003.768 45.864, 1000.704 40.034, 998 39.181 C 996.800 38.802, 996.842 39.094, 998.212 40.640 C 1000.340 43.043, 1002.541 48.349, 1003.400 53.150 L 1004.053 56.801 1000.218 55.827 C 996.445 54.870, 996.384 54.779, 996.442 50.177 L 996.500 45.500 992.278 44.564 C 988.529 43.732, 988.121 43.368, 988.636 41.314 C 989.459 38.037, 988.525 38.445, 986.205 42.377 M 374.781 42.552 C 374.437 42.896, 375.471 45.250, 377.078 47.784 C 379.732 51.970, 380 53.191, 380 61.124 L 380 69.856 374.462 71.928 C 371.417 73.068, 368.267 74, 367.462 74 C 365.341 74, 365.670 70.330, 368 68 C 371.622 64.378, 369.978 57, 365.548 57 C 364.163 57, 362.400 58.046, 361.333 59.501 C 360.325 60.877, 357.093 62.879, 354.151 63.951 C 346.625 66.693, 344.022 68.642, 343.341 72.045 C 343.016 73.670, 342.441 75, 342.063 75 C 340.017 75, 324.554 70.614, 318.640 68.356 C 312.981 66.195, 311.627 65.979, 310.906 67.119 C 309.545 69.267, 309.839 70.719, 311.750 71.287 C 318.875 73.407, 333.994 79.886, 333.102 80.437 C 332.496 80.811, 332 82.891, 332 85.059 L 332 89 358.057 89 L 384.115 89 383.807 84.750 L 383.500 80.500 377.524 80.193 L 371.547 79.887 380.897 75.443 C 386.040 73, 390.566 71, 390.955 71 C 391.898 71, 393.529 74.570, 394.889 79.613 C 396.144 84.266, 400.326 89, 403.182 89 C 404.845 89, 405.001 88.517, 404.394 85.250 C 403.496 80.410, 401.406 77.261, 397.881 75.439 C 395.470 74.192, 393 71.268, 393 69.661 C 393 69.402, 395.029 68.001, 397.510 66.547 C 401.427 64.251, 401.882 63.648, 400.974 61.952 C 399.615 59.412, 398.775 59.486, 393.886 62.572 C 391.645 63.987, 389.676 64.999, 389.511 64.822 C 389.346 64.645, 387.590 61.800, 385.608 58.500 C 382.980 54.123, 382.004 51.350, 382.003 48.250 C 382.001 45.913, 381.550 44, 381 44 C 380.450 44, 379.998 45.237, 379.995 46.750 C 379.990 49.450, 379.948 49.431, 377.698 45.714 C 376.437 43.631, 375.125 42.209, 374.781 42.552 M 127.332 44.340 C 119.540 44.978, 112.828 45.837, 112.416 46.250 C 111.484 47.183, 123.383 47.202, 151.089 46.313 C 164.576 45.879, 171.205 45.350, 169 44.881 C 162.305 43.458, 141.412 43.187, 127.332 44.340 M 985.368 47.214 C 985.084 47.673, 985.146 49.388, 985.506 51.025 C 986.172 54.060, 988.934 55.545, 992.599 54.839 C 994.429 54.486, 996.346 49.456, 995.509 47.203 C 994.974 45.765, 986.258 45.774, 985.368 47.214 M 447.625 51.125 C 446.696 55.771, 446.784 56, 449.500 56 C 451.750 56, 452 55.600, 452 52 C 452 48.756, 451.646 48, 450.125 48 C 448.825 48, 448.058 48.958, 447.625 51.125 M 793.241 53.995 C 780.652 61.670, 785.917 80.983, 800.602 80.996 C 815.403 81.010, 820.166 60.501, 806.929 53.752 C 802.414 51.449, 797.266 51.541, 793.241 53.995 M 791.533 57.533 C 788.335 60.731, 788 61.595, 788 66.633 C 788 71.631, 788.348 72.548, 791.400 75.600 C 794.292 78.492, 795.495 79, 799.450 79 C 807.927 79, 813 74.320, 813 66.500 C 813 58.727, 807.926 54, 799.583 54 C 795.747 54, 794.535 54.532, 791.533 57.533 M 382 62.330 L 382 69.051 385 67.500 C 386.650 66.647, 388 65.751, 388 65.509 C 388 65.267, 386.650 62.941, 385 60.339 L 382 55.608 382 62.330 M 993.130 60.250 C 991.479 65.484, 990.001 74.969, 989.985 80.434 C 989.960 88.759, 988.863 88.964, 983.623 81.620 C 978.395 74.293, 975.664 72, 972.168 72 C 970.032 72, 969.837 72.342, 970.314 75.250 C 970.608 77.037, 972.052 81.864, 973.524 85.977 C 976.208 93.476, 976.776 97.979, 975.533 101.897 C 974.874 103.973, 975.065 104, 990.540 104 C 1005.087 104, 1006.160 103.874, 1005.464 102.250 C 1005.052 101.287, 1004.809 91.725, 1004.924 81 C 1005.151 59.949, 1004.880 58.682, 999.898 57.483 L 997.295 56.857 998.088 61.679 C 999.181 68.323, 999.163 70, 998 70 C 997.450 70, 996.995 68.763, 996.989 67.250 C 996.971 62.843, 995.807 57, 994.947 57 C 994.511 57, 993.694 58.462, 993.130 60.250 M 510.743 62.541 C 507.759 67.481, 507.578 68, 508.843 68 C 509.306 68, 510.533 66.425, 511.570 64.500 C 512.607 62.575, 513.772 61, 514.159 61 C 514.547 61, 515.825 62.350, 517 64 C 518.175 65.650, 519.443 66.997, 519.818 66.993 C 520.193 66.989, 521.570 65.415, 522.877 63.495 L 525.255 60.005 527.877 63.466 C 529.320 65.370, 530.766 66.944, 531.090 66.964 C 531.415 66.984, 532.836 65.377, 534.247 63.392 C 536.603 60.082, 536.903 59.938, 537.890 61.642 C 538.482 62.664, 539.674 64.400, 540.540 65.500 C 542.084 67.463, 542.169 67.435, 545.057 64 L 548 60.500 550.840 63.892 L 553.681 67.285 556.485 63.608 L 559.290 59.931 561.805 63.466 C 563.188 65.410, 564.585 66.997, 564.910 66.993 C 565.234 66.989, 566.588 65.389, 567.918 63.437 L 570.335 59.887 572.632 62.694 C 573.895 64.237, 574.944 65.838, 574.964 66.250 C 575.046 67.953, 576.831 66.788, 579.163 63.512 L 581.645 60.023 583.886 64.012 C 585.119 66.205, 586.565 68, 587.099 68 C 588.178 68, 586.847 65.113, 583.693 60.614 L 581.670 57.728 578.887 61.114 L 576.104 64.500 573.243 61.098 L 570.383 57.696 567.671 61.098 L 564.959 64.500 562.036 61 C 559.168 57.566, 559.084 57.538, 557.540 59.500 C 556.674 60.600, 555.495 62.312, 554.919 63.304 C 553.954 64.967, 553.708 64.889, 551.765 62.304 C 550.606 60.762, 549.282 59.070, 548.823 58.544 C 548.324 57.972, 546.802 58.976, 545.033 61.044 L 542.077 64.500 539.367 61.123 L 536.656 57.746 533.828 61.123 L 531 64.500 528.172 61.123 L 525.344 57.746 522.633 61.123 L 519.923 64.500 517.139 61.250 C 515.607 59.462, 514.159 58, 513.920 58 C 513.681 58, 512.251 60.043, 510.743 62.541 M 361.874 61.255 C 360.967 62.507, 357.349 64.524, 353.692 65.816 C 346.781 68.257, 345.619 69.151, 344.755 72.685 C 344.069 75.495, 345.467 76.003, 353.832 75.986 C 363.611 75.966, 365 75.409, 365 71.506 C 365 69.712, 365.698 67.666, 366.551 66.958 C 367.495 66.174, 367.984 64.463, 367.801 62.585 C 367.423 58.711, 364.234 57.996, 361.874 61.255 M 394.250 64.175 C 391.240 66.036, 389.965 68, 391.768 68 C 392.718 68, 400 63.103, 400 62.464 C 400 61.469, 397.351 62.258, 394.250 64.175 M 448 81.500 C 448 93.833, 448.368 101, 449 101 C 449.632 101, 450 93.833, 450 81.500 C 450 69.167, 449.632 62, 449 62 C 448.368 62, 448 69.167, 448 81.500 M 1064.843 76.753 C 1065.032 82.664, 1065.354 87.672, 1065.560 87.883 C 1065.765 88.094, 1067.575 88.319, 1069.582 88.383 C 1075.620 88.577, 1076.052 86.396, 1071.672 77.816 C 1069.618 73.792, 1067.164 69.489, 1066.219 68.253 C 1064.566 66.092, 1064.513 66.420, 1064.843 76.753 M 24 77.212 L 24 87.824 27.963 88.494 C 32.836 89.317, 34 88.668, 34 85.128 C 34 82.799, 27.663 70.598, 24.870 67.550 C 24.372 67.005, 24 71.130, 24 77.212 M 384.500 69.255 C 376.482 73.382, 364.717 77.049, 357.667 77.618 C 349.347 78.289, 335.294 75.747, 321.259 71.030 C 313.815 68.529, 310.456 67.921, 312.083 69.371 C 313.149 70.321, 331.765 77.225, 336.785 78.532 C 344.605 80.569, 363.484 80.487, 369.715 78.389 C 376.803 76.002, 390 69.842, 390 68.920 C 390 67.183, 388.327 67.285, 384.500 69.255 M 1203.413 87.500 C 1203.414 97.400, 1203.564 101.315, 1203.746 96.199 C 1203.928 91.084, 1203.927 82.984, 1203.744 78.199 C 1203.561 73.415, 1203.412 77.600, 1203.413 87.500 M 655.387 78.354 C 655.325 80.634, 653.638 86.708, 651.637 91.850 C 649.637 96.993, 648 101.381, 648 101.600 C 648 101.820, 650.587 101.999, 653.750 101.997 L 659.500 101.993 662.258 95.247 C 663.774 91.536, 665.012 87.098, 665.008 85.385 C 664.999 81.820, 662.046 77.592, 658.162 75.584 L 655.500 74.208 655.387 78.354 M 217.667 76.667 C 217.300 77.033, 217 84.225, 217 92.648 C 217 110.642, 215.752 109.253, 231.500 108.792 L 241.500 108.500 241.775 92.250 L 242.050 76 230.191 76 C 223.669 76, 218.033 76.300, 217.667 76.667 M 396 78.984 C 396 81.191, 401.472 87.862, 402.466 86.867 C 403.486 85.848, 401.994 81.370, 399.877 79.099 C 397.422 76.463, 396 76.421, 396 78.984 M 219 92.500 L 219 107 230 107 L 241 107 241 92.500 L 241 78 230 78 L 219 78 219 92.500 M 944.558 81.250 C 944.295 82.487, 943.580 86.200, 942.970 89.500 C 941.055 99.869, 942.377 99, 929.552 98.313 C 923.101 97.967, 912.127 98.245, 904.090 98.957 C 891.972 100.031, 889.650 100.003, 887.733 98.762 C 884.342 96.566, 880.188 95.829, 877.951 97.026 C 875.309 98.440, 876.383 100, 880 100 C 881.585 100, 883.202 100.519, 883.594 101.152 C 884.290 102.278, 879.466 101.893, 873.151 100.319 C 871.240 99.843, 870.870 100.085, 871.165 101.617 C 871.655 104.165, 878.444 106.351, 883 105.429 C 884.925 105.039, 901.688 104.546, 920.250 104.334 L 954 103.949 954 91.474 L 954 79 949.519 79 C 945.681 79, 944.969 79.323, 944.558 81.250 M 789.429 90.141 C 785.835 97.297, 785.127 99.465, 786.169 100.126 C 786.901 100.590, 787.762 100.976, 788.081 100.985 C 788.656 101, 796 83.142, 796 81.731 C 796 81.329, 795.555 81, 795.010 81 C 794.466 81, 791.954 85.113, 789.429 90.141 M 807 81.731 C 807 83.142, 814.344 101, 814.919 100.985 C 815.238 100.976, 816.099 100.590, 816.831 100.126 C 817.873 99.465, 817.165 97.297, 813.571 90.141 C 811.046 85.113, 808.534 81, 807.990 81 C 807.445 81, 807 81.329, 807 81.731 M 944.602 89.750 C 943.719 94.563, 942.997 98.816, 942.998 99.203 C 943 99.919, 949.476 101.984, 951.750 101.994 C 952.671 101.999, 953 99.236, 953 91.500 L 953 81 949.604 81 L 946.208 81 944.602 89.750 M 334 85 L 334 88 358 88 L 382 88 382 85 L 382 82 358 82 L 334 82 334 85 M 800 93.573 C 800 103.105, 800.172 104.113, 801.750 103.810 C 802.712 103.624, 803.388 103.141, 803.250 102.736 C 803.112 102.331, 803 97.725, 803 92.500 C 803 84.722, 802.728 83, 801.500 83 C 800.261 83, 800 84.841, 800 93.573 M 97.110 88.250 C 99.601 93.001, 104.204 97.922, 109.085 101.055 C 125.800 111.781, 153.445 109.610, 165.946 96.589 C 169.710 92.669, 171 92.155, 171 94.577 C 171 96.609, 176.374 102, 178.400 102 C 180.672 102, 183.295 97.505, 182.495 94.983 C 182.126 93.820, 180.467 91.323, 178.808 89.434 L 175.793 86 135.861 86 L 95.930 86 97.110 88.250 M 99 88.043 C 99 90.035, 107.979 98.671, 112.726 101.244 C 125.915 108.394, 145.622 107.994, 158.735 100.310 C 162.843 97.902, 171 89.622, 171 87.859 C 171 87.387, 154.800 87, 135 87 C 110.681 87, 99 87.338, 99 88.043 M 270.721 88.460 C 268.093 89.145, 264.771 90.784, 263.339 92.103 C 260.172 95.019, 257.052 101.514, 257.022 105.250 L 257 108 276.394 108 L 295.787 108 294.863 103.750 C 292.327 92.083, 281.974 85.526, 270.721 88.460 M 1155.907 89.325 C 1150.864 91.985, 1147.042 97.757, 1147.016 102.750 L 1147 106 1163.975 106 L 1180.950 106 1180.332 102.750 C 1179.478 98.259, 1177.677 94.972, 1174.339 91.814 C 1168.727 86.504, 1162.778 85.701, 1155.907 89.325 M 172.004 90.750 C 172.010 95.012, 175.597 100.197, 178.276 99.816 C 181.626 99.340, 181.720 95.009, 178.464 91.140 C 175.078 87.116, 171.999 86.930, 172.004 90.750 M 33 90.026 C 32.175 90.573, 29.873 90.762, 27.885 90.446 C 24.283 89.872, 24.266 89.887, 22.943 94.685 C 22.213 97.333, 21.590 99.916, 21.558 100.424 C 21.485 101.586, 31.927 104.068, 34.145 103.416 C 35.961 102.882, 36.849 98.144, 36.190 92.500 C 35.754 88.767, 35.359 88.460, 33 90.026 M 268.401 90.905 C 263.421 93.167, 259.978 97.744, 259.267 103.047 L 258.737 107 275.868 107 L 293 107 293 104.338 C 293 99.829, 288.498 93.419, 283.698 91.096 C 278.382 88.522, 273.775 88.465, 268.401 90.905 M 1073.500 90.064 C 1072.400 90.499, 1070.130 90.630, 1068.456 90.355 C 1065.528 89.874, 1065.346 90.062, 1063.706 95.265 C 1062.767 98.241, 1062 100.913, 1062 101.202 C 1062 101.491, 1063.933 101.993, 1066.295 102.317 C 1068.658 102.641, 1071.300 103.178, 1072.166 103.510 C 1074.857 104.543, 1077.001 101.280, 1076.985 96.179 C 1076.966 90.441, 1076.153 89.015, 1073.500 90.064 M 1157.966 89.820 C 1153.324 91.878, 1149.767 96.218, 1148.600 101.250 L 1147.962 104 1163.376 104 L 1178.789 104 1177.978 100.403 C 1177.079 96.415, 1173.913 92.545, 1169.800 90.405 C 1167.001 88.949, 1160.642 88.635, 1157.966 89.820 M 512.265 97.673 C 509.211 102.030, 507.834 105, 508.866 105 C 509.381 105, 510.790 103.326, 511.997 101.280 L 514.192 97.560 517.084 101.030 C 518.887 103.194, 520.262 104.103, 520.737 103.444 C 521.157 102.863, 522.315 101.288, 523.312 99.944 L 525.123 97.500 528.062 100.962 L 531 104.424 533.938 100.962 L 536.877 97.500 538.688 99.944 C 539.685 101.288, 540.843 102.863, 541.263 103.444 C 541.739 104.103, 543.140 103.185, 544.992 101 L 547.959 97.500 550.671 100.902 L 553.383 104.304 556.243 100.902 L 559.104 97.500 561.944 100.955 L 564.784 104.411 567.596 101.068 L 570.408 97.726 573.204 101.075 L 576 104.424 578.818 101.049 L 581.635 97.674 583.899 101.337 C 585.144 103.352, 586.603 105, 587.141 105 C 588.167 105, 588.084 104.819, 584.237 98.638 L 581.833 94.775 578.935 98.138 L 576.036 101.500 573.213 98.151 L 570.389 94.801 567.582 98.481 L 564.776 102.161 562.151 98.472 L 559.526 94.783 556.462 98.328 L 553.398 101.872 550.623 98.394 L 547.848 94.916 545.038 98.452 L 542.228 101.988 539.455 98.352 L 536.681 94.715 533.840 98.108 L 531 101.500 528.160 98.108 L 525.319 94.715 522.547 98.349 L 519.775 101.984 517.716 99.242 C 516.584 97.734, 515.340 96.128, 514.952 95.673 C 514.564 95.218, 513.354 96.118, 512.265 97.673 M 898.500 101.071 C 894.100 101.573, 889.938 101.776, 889.250 101.523 C 888.563 101.270, 888 101.499, 888 102.031 C 888 102.634, 898.850 102.989, 916.750 102.970 C 939.434 102.946, 945.078 102.688, 943.500 101.750 C 940.985 100.254, 909.792 99.784, 898.500 101.071 M 0.385 116 C 0.385 122.875, 0.545 125.688, 0.740 122.250 C 0.936 118.813, 0.936 113.188, 0.740 109.750 C 0.545 106.313, 0.385 109.125, 0.385 116" stroke="none" fill="#f9f9f9" fill-rule="evenodd"/></svg>