<svg xmlns="http://www.w3.org/2000/svg" width="560" height="97" viewBox="0 0 560 97" version="1.1"><path d="M 376.243 15.157 C 374.659 16.741, 374.422 73, 376 73 C 376.643 73, 377 62.869, 377 44.607 C 377 18.749, 377.153 16.155, 378.709 15.558 C 379.841 15.124, 381.015 15.678, 382.187 17.201 C 383.719 19.193, 383.959 21.806, 383.978 36.750 C 383.992 47.569, 384.373 54, 385 54 C 385.629 54, 386 47.500, 386 36.500 C 386 26.875, 385.657 19, 385.237 19 C 384.818 19, 384.030 17.988, 383.487 16.750 C 382.363 14.188, 378.141 13.259, 376.243 15.157 M 417.500 14.954 C 410.759 17.742, 407.836 28.230, 411.966 34.810 C 414.174 38.328, 419.200 41, 423.608 41 C 428.223 41, 434.536 37.171, 435.833 33.585 C 437.344 29.407, 437.297 24.145, 435.721 21.030 C 432.859 15.374, 423.794 12.351, 417.500 14.954 M 469.782 25.593 L 469.500 37.297 466.250 34.560 C 462.316 31.246, 461.958 32.303, 465.693 36.202 C 467.780 38.380, 468.118 39.282, 467.193 40.207 C 465.529 41.871, 465.703 44.949, 467.500 45.638 C 469.775 46.512, 469.314 48.325, 466.010 51.490 C 464.366 53.065, 463.246 54.579, 463.521 54.854 C 463.796 55.129, 465.366 54.065, 467.010 52.490 L 470 49.626 470 61.870 L 470 74.115 474.250 73.807 L 478.500 73.500 478.500 44 L 478.500 14.500 474.282 14.194 L 470.064 13.888 469.782 25.593 M 418.250 16.443 C 416.462 17.246, 415 18.150, 415 18.452 C 415 18.753, 418.925 19, 423.723 19 C 431.921 19, 432.311 18.906, 430.211 17.435 C 426.985 15.176, 421.993 14.762, 418.250 16.443 M 472 43.500 L 472 72 474.500 72 L 477 72 477 43.500 L 477 15 474.500 15 L 472 15 472 43.500 M 5.975 19.565 C 3.858 25.134, 4.801 29.984, 9.586 38.147 L 14.173 45.971 13.836 57.568 C 13.447 71.007, 12.825 72, 4.809 72 C 2.164 72, -0 72.454, -0 73.009 C -0 73.638, 1.990 73.784, 5.295 73.395 C 8.213 73.052, 13.172 73.309, 16.344 73.968 C 23.548 75.463, 25 74.526, 25 68.378 C 25 63.928, 25.698 63.098, 27.733 65.133 C 29.493 66.893, 31.822 65.413, 32.178 62.309 C 32.479 59.680, 32.764 59.918, 36.620 66.020 C 38.886 69.606, 41.361 73.040, 42.120 73.653 C 43.732 74.954, 53.815 77.233, 54.924 76.547 C 56.677 75.464, 55.362 68.985, 52.840 66.283 C 51.412 64.752, 49.436 61.757, 48.449 59.626 C 47.462 57.496, 43.303 50.971, 39.207 45.126 C 35.110 39.282, 31.541 33.942, 31.276 33.259 C 31.010 32.577, 28.590 30.401, 25.897 28.424 C 21.480 25.182, 21 24.446, 21 20.915 L 21 17 13.975 17 C 7.355 17, 6.894 17.148, 5.975 19.565 M 67.571 18.571 C 66.444 19.699, 66 22.108, 66 27.096 C 66 33.412, 66.206 34.120, 68.250 34.819 C 69.487 35.242, 82.762 35.413, 97.750 35.199 L 125 34.808 125 25.904 L 125 17 121.571 17 C 118.195 17, 118.124 17.088, 117.008 22.750 C 116.384 25.913, 115.789 28.830, 115.687 29.234 C 115.584 29.637, 107.116 30.162, 96.869 30.399 L 78.238 30.832 77.765 25.906 C 77.026 18.212, 71.736 14.406, 67.571 18.571 M 197.515 17.976 C 197.183 18.513, 196.646 21.192, 196.322 23.928 C 195.779 28.517, 196.094 29.542, 200.366 37.083 L 205 45.262 205 56.631 C 205 70.400, 204.069 72, 196.059 72 C 193.341 72, 190.823 72.477, 190.463 73.061 C 190.012 73.790, 191.655 73.912, 195.722 73.452 C 199.119 73.068, 203.982 73.270, 207.145 73.926 C 214.838 75.523, 216 74.863, 216 68.893 C 216 63.958, 216.656 63.056, 218.733 65.133 C 220.478 66.878, 222.820 65.423, 223.178 62.371 C 223.469 59.888, 223.933 60.337, 228.011 67.057 C 232.318 74.154, 232.748 74.543, 237.511 75.649 C 245.725 77.557, 246.338 77.439, 245.664 74.070 C 245.294 72.221, 245.525 70.965, 246.289 70.664 C 247.059 70.362, 246.510 69.333, 244.784 67.844 C 243.290 66.555, 240.706 62.874, 239.043 59.665 C 234.018 49.973, 219.451 29.639, 216.164 27.728 C 213.726 26.310, 212.981 25.059, 212.444 21.478 L 211.773 17 204.945 17 C 201.190 17, 197.847 17.439, 197.515 17.976 M 276.913 18.282 C 273.746 20.714, 273 23.886, 273 34.934 L 273 46 269 46 L 265 46 265 61.500 L 265 77 274 77 L 283 77 283 61.500 L 283 46 279 46 L 275 46 275 34.155 C 275 23.950, 275.253 22.081, 276.829 20.655 C 278.706 18.956, 283.633 18.457, 285.610 19.765 C 288.915 21.952, 290 26.941, 290 39.950 C 290 51.975, 289.855 53, 288.152 53 C 286.757 53, 286.282 53.788, 286.213 56.221 C 286.102 60.114, 287.490 62, 290.467 62 C 294.478 62, 298.840 54.255, 295.865 52.417 C 294.594 51.631, 297.595 48.261, 301.248 46.372 L 304 44.949 304 61.058 C 304 73.502, 304.284 77.071, 305.250 76.747 C 306.173 76.436, 306.524 72.244, 306.592 60.706 C 306.655 49.861, 307.063 44.629, 307.924 43.591 C 309.233 42.014, 308.521 38, 306.933 38 C 304.928 38, 306.151 31.876, 309 27.655 C 310.650 25.210, 312 22.743, 312 22.173 C 312 21.603, 310.633 20.163, 308.961 18.972 C 306.049 16.899, 305.778 16.877, 302.461 18.451 C 298.251 20.449, 297.985 22.980, 301.500 27.589 C 304.890 32.033, 304.955 37.543, 301.628 38.378 C 300.324 38.706, 297.624 40.781, 295.628 42.990 L 292 47.006 292 37.191 C 292 23.065, 288.758 16.948, 281.316 17.032 C 279.767 17.049, 277.786 17.612, 276.913 18.282 M 343.797 18.750 C 341.141 21.821, 339.903 26.873, 341.271 29.062 C 341.937 30.128, 342.935 31.002, 343.491 31.004 C 344.046 31.006, 343.100 31.861, 341.389 32.905 C 339.677 33.948, 337.284 36.197, 336.070 37.901 C 334.857 39.605, 333.304 41, 332.619 41 C 331.207 41, 327.199 36.847, 324.659 32.750 C 323.721 31.238, 322.321 30, 321.547 30 C 319.582 30, 321.142 35.178, 324.018 38.202 C 325.220 39.466, 327.336 41.962, 328.721 43.750 C 331.957 47.929, 334.152 47.853, 337.795 43.433 C 341.288 39.195, 341.682 39.731, 342.637 50.007 C 343.567 60.007, 342.996 60.612, 337.553 55.397 C 332.800 50.842, 328.468 49.616, 327.357 52.511 C 327.039 53.342, 327.321 56.902, 327.985 60.421 C 329.137 66.527, 329.085 66.967, 326.846 70.020 C 325.556 71.779, 323.488 73.608, 322.250 74.085 C 317.978 75.729, 319.720 77.174, 325.250 76.574 C 333.894 75.635, 350.142 75.571, 355.750 76.453 C 361.984 77.433, 362.949 75.841, 357.500 73.564 L 354 72.102 354 61.110 C 354 55.064, 354.430 49.852, 354.956 49.527 C 355.482 49.202, 357.562 49.626, 359.578 50.468 C 361.594 51.311, 363.591 52, 364.015 52 C 366.178 52, 365.644 48.099, 362.570 41.446 C 359.814 35.480, 358.467 33.714, 355.651 32.371 C 352.627 30.928, 352.346 30.511, 353.577 29.280 C 355.640 27.217, 355.390 20.663, 353.171 18.655 C 350.777 16.488, 345.709 16.539, 343.797 18.750 M 204.519 18.814 C 198.851 19.172, 198.037 19.984, 198.015 25.300 C 197.998 29.651, 198.859 31.519, 207.622 46.144 C 211.130 51.998, 214 57.307, 214 57.942 C 214 59.206, 218.814 64, 220.083 64 C 220.518 64, 221.014 62.572, 221.187 60.827 C 221.359 59.082, 222.001 57.490, 222.613 57.289 C 223.225 57.089, 225.662 60.131, 228.029 64.049 C 232.782 71.915, 234.663 73.486, 240.338 74.331 C 243.672 74.828, 244.086 74.679, 243.486 73.201 C 243.106 72.266, 242.380 70.375, 241.872 69 C 241.364 67.625, 238.148 64.156, 234.724 61.291 C 231.301 58.426, 224 52.343, 218.500 47.773 C 209.945 40.665, 208.500 39.035, 208.500 36.496 C 208.500 34.321, 209.035 33.426, 210.500 33.147 C 212.435 32.780, 212.442 32.832, 210.699 34.769 C 208.957 36.704, 208.974 36.852, 211.199 39.274 C 214.678 43.059, 237.063 61.270, 237.590 60.743 C 238.622 59.712, 219.615 32.818, 215.431 29.390 C 211.808 26.421, 211 25.153, 211 22.439 C 211 18.479, 210.879 18.411, 204.519 18.814 M 345.963 19.218 C 343.567 20.113, 343.553 20.177, 345.441 21.569 C 346.509 22.356, 348.213 23, 349.229 23 C 350.563 23, 350.996 23.625, 350.788 25.250 C 350.381 28.429, 352.217 29.019, 353.032 25.972 C 354.468 20.603, 351.035 17.324, 345.963 19.218 M 509.445 19.282 C 509.158 20.030, 509.053 25.110, 509.212 30.571 L 509.500 40.500 518.783 40.788 L 528.066 41.076 527.783 29.788 L 527.500 18.500 518.734 18.211 C 512.059 17.991, 509.843 18.246, 509.445 19.282 M 6.975 21.565 C 4.930 26.945, 5.724 29.028, 16.393 46.290 C 19.867 51.909, 23.034 57.530, 23.430 58.780 C 24.272 61.432, 28.440 64.464, 29.956 63.527 C 30.530 63.172, 31 61.559, 31 59.941 C 31 58.323, 31.418 57, 31.929 57 C 32.440 57, 34.970 60.389, 37.551 64.530 C 40.133 68.672, 42.977 72.435, 43.872 72.893 C 45.938 73.950, 54 75.207, 54 74.472 C 54 74.169, 53.093 72.143, 51.985 69.970 C 50.610 67.275, 45.923 62.763, 37.235 55.768 C 30.231 50.130, 22.557 43.629, 20.181 41.321 C 16.437 37.684, 16.009 36.851, 16.966 35.063 C 17.574 33.928, 18.842 33.014, 19.785 33.032 C 21.333 33.061, 21.317 33.202, 19.625 34.484 C 18.593 35.265, 18 36.558, 18.307 37.358 C 18.614 38.157, 24.633 43.426, 31.682 49.066 C 38.732 54.706, 45.353 60.036, 46.396 60.910 C 48.210 62.432, 48.236 62.393, 47.003 60 C 43.284 52.782, 28.909 33.199, 24.765 29.705 C 20.830 26.386, 20 25.105, 20 22.343 L 20 19 13.975 19 C 8.428 19, 7.873 19.203, 6.975 21.565 M 67.980 21.038 C 66.286 24.202, 67.134 31.413, 69.246 31.814 C 70.534 32.058, 70.821 31.698, 70.341 30.445 C 69.784 28.995, 70.225 28.807, 73.344 29.172 C 76.792 29.574, 77 29.438, 77 26.764 C 77 20.399, 70.522 16.287, 67.980 21.038 M 118.199 24.750 C 117.650 27.913, 117.319 30.626, 117.464 30.781 C 117.610 30.935, 119.139 31.466, 120.864 31.961 L 124 32.860 124 25.930 C 124 19.281, 123.903 19, 121.599 19 C 119.459 19, 119.090 19.624, 118.199 24.750 M 511.214 29.750 L 511.500 39.500 518.500 39.500 L 525.500 39.500 525.786 29.750 L 526.072 20 518.500 20 L 510.928 20 511.214 29.750 M 301 22.500 C 301 23.325, 301.450 24, 302 24 C 302.550 24, 303 23.325, 303 22.500 C 303 21.675, 302.550 21, 302 21 C 301.450 21, 301 21.675, 301 22.500 M 307.694 21.639 C 306.895 22.438, 307.798 24, 309.059 24 C 309.577 24, 310 23.325, 310 22.500 C 310 20.954, 308.820 20.513, 307.694 21.639 M 412.667 21.667 C 412.300 22.033, 412 22.933, 412 23.667 C 412 24.701, 414.601 25, 423.607 25 C 433.780 25, 435.139 24.805, 434.607 23.418 C 434.273 22.548, 434 21.648, 434 21.418 C 434 20.714, 413.379 20.954, 412.667 21.667 M 9.337 23.386 C 9.564 23.999, 10.256 24.387, 10.875 24.250 C 11.494 24.113, 12 24.873, 12 25.941 C 12 27.009, 12.450 28.160, 13 28.500 C 13.550 28.840, 14 28.432, 14 27.594 C 14 26.756, 14.913 25.582, 16.028 24.985 C 17.143 24.388, 17.830 23.534, 17.553 23.086 C 16.760 21.802, 8.857 22.091, 9.337 23.386 M 201 23.118 C 201 23.603, 201.363 24, 201.807 24 C 202.251 24, 203.084 25.238, 203.658 26.750 L 204.702 29.500 205.826 26.750 C 206.445 25.238, 207.412 24, 207.975 24 C 208.539 24, 209 23.578, 209 23.063 C 209 22.547, 207.200 22.150, 205 22.181 C 202.800 22.211, 201 22.633, 201 23.118 M 304.250 24.718 C 302.553 25.327, 302.667 27.658, 304.427 28.334 C 306.465 29.116, 308.406 26.567, 306.762 25.267 C 306.068 24.718, 304.938 24.471, 304.250 24.718 M 344.419 25.362 C 342.170 26.609, 342.278 29, 344.583 29 C 347.052 29, 346.121 32.624, 343.325 33.898 C 341.853 34.568, 338.873 37.135, 336.701 39.602 C 332.826 44.005, 332.715 44.054, 330.627 42.293 L 328.500 40.500 330.405 42.750 C 332.997 45.811, 333.773 45.626, 337.738 40.993 C 339.625 38.789, 341.514 37.200, 341.937 37.461 C 343.296 38.301, 345.291 52.781, 344.623 56.959 C 343.922 61.338, 344.185 61.529, 348.729 59.945 C 351.459 58.993, 351.809 58.379, 352.292 53.695 C 352.717 49.577, 352.483 48.248, 351.164 47.284 C 347.829 44.847, 345 41.524, 345 40.042 C 345 38.216, 347.304 38.917, 350.096 41.592 L 352.802 44.185 354.151 41.416 C 356.166 37.281, 357.359 37.500, 359.762 42.446 C 361.986 47.024, 361.596 48.405, 358.340 47.489 C 357.328 47.204, 358.015 47.675, 359.866 48.536 C 361.718 49.396, 363.446 49.887, 363.707 49.626 C 363.968 49.366, 362.678 46.080, 360.841 42.326 C 358.309 37.152, 356.667 35.084, 354.058 33.782 C 350.415 31.964, 348.723 29.771, 348.486 26.565 C 348.311 24.184, 347.158 23.843, 344.419 25.362 M 411.736 26.598 C 411.407 26.927, 411.380 27.827, 411.676 28.598 C 412.094 29.687, 414.755 30, 423.607 30 C 434.333 30, 435 29.883, 435 28 C 435 26.118, 434.333 26, 423.667 26 C 417.433 26, 412.064 26.269, 411.736 26.598 M 94.206 32.741 C 97.895 32.932, 104.195 32.934, 108.206 32.743 C 112.218 32.553, 109.200 32.396, 101.500 32.395 C 93.800 32.393, 90.518 32.549, 94.206 32.741 M 173.994 32.934 C 168.680 34.551, 164.435 37.469, 156.432 45.007 C 151.869 49.305, 147.204 53.118, 146.067 53.479 C 143.368 54.335, 143.459 55.177, 146.637 58.799 L 149.274 61.804 152.387 59.906 C 154.407 58.674, 157.360 58.006, 160.800 58.004 C 167.061 57.999, 170.579 56.382, 174.809 51.565 C 177.999 47.932, 181 39.814, 181 34.818 C 181 31.788, 179.282 31.326, 173.994 32.934 M 413.250 33.250 C 413.546 34.137, 416.522 34.500, 423.500 34.500 C 430.478 34.500, 433.454 34.137, 433.750 33.250 C 434.066 32.302, 431.589 32, 423.500 32 C 415.411 32, 412.934 32.302, 413.250 33.250 M 174.658 36.494 C 170.554 38.635, 165.983 42.602, 162.197 47.310 L 158.893 51.416 161.197 52.407 C 163.382 53.347, 163.329 53.416, 160.154 53.769 C 158.313 53.974, 156.562 53.896, 156.263 53.596 C 155.482 52.815, 163.581 42.564, 167.873 38.902 L 171.500 35.806 167.357 38.153 C 165.078 39.444, 159.497 44.016, 154.956 48.314 C 147.708 55.173, 146.878 56.306, 148.162 57.591 C 149.447 58.875, 150.072 58.868, 153.281 57.527 C 155.291 56.687, 159.134 56, 161.820 56 C 168.394 56, 172.731 53.015, 176.250 46.070 C 178.837 40.963, 179.916 34.992, 178.250 35.006 C 177.838 35.010, 176.221 35.679, 174.658 36.494 M 418 38 C 418.825 38.533, 421.300 38.969, 423.500 38.969 C 425.700 38.969, 428.175 38.533, 429 38 C 430.047 37.324, 428.384 37.031, 423.500 37.031 C 418.616 37.031, 416.953 37.324, 418 38 M 299.305 41.499 C 296.765 43.278, 292.518 49.851, 293.362 50.696 C 293.687 51.021, 294.241 50.535, 294.594 49.617 C 294.946 48.698, 297.207 46.791, 299.617 45.378 C 302.028 43.966, 304 42.178, 304 41.405 C 304 39.576, 301.992 39.617, 299.305 41.499 M 355.601 41.597 C 355.132 42.820, 355.478 43.876, 356.623 44.713 C 359.020 46.466, 359.414 45.668, 357.734 42.462 C 356.460 40.031, 356.237 39.940, 355.601 41.597 M 468 43 C 468 44.100, 468.450 45, 469 45 C 469.550 45, 470 44.100, 470 43 C 470 41.900, 469.550 41, 469 41 C 468.450 41, 468 41.900, 468 43 M 15.487 54.750 C 16.213 61.542, 17.030 62.957, 20.250 62.985 C 22.905 63.008, 22.418 59.475, 18.927 53.372 C 17.236 50.417, 15.609 48, 15.310 48 C 15.011 48, 15.091 51.038, 15.487 54.750 M 266.706 48.627 C 266.318 49.015, 266 55.108, 266 62.167 L 266 75 274.029 75 L 282.058 75 281.779 61.750 L 281.500 48.500 274.456 48.210 C 270.582 48.051, 267.095 48.239, 266.706 48.627 M 207.015 55.143 C 207.003 60.288, 207.357 61.923, 208.582 62.393 C 213.377 64.233, 214.332 61.440, 211.039 55.210 C 207.262 48.066, 207.032 48.063, 207.015 55.143 M 272.071 50.956 C 270.652 51.833, 271.259 55, 272.846 55 C 273.346 55, 274.266 54.385, 274.890 53.633 C 276.357 51.865, 274.087 49.710, 272.071 50.956 M 329.544 57.947 C 329.862 60.943, 330.530 64.093, 331.030 64.947 C 332.557 67.556, 332.172 62.108, 330.469 57 L 328.968 52.500 329.544 57.947 M 288.667 54.667 C 287.357 55.977, 288.030 59.798, 289.683 60.432 C 291.920 61.290, 295.290 57.920, 294.432 55.683 C 293.798 54.030, 289.977 53.357, 288.667 54.667 M 332 55.057 C 332 55.639, 332.510 58.139, 333.133 60.613 C 334.025 64.155, 334.610 64.970, 335.883 64.443 C 336.772 64.074, 338.288 63.547, 339.250 63.270 C 341.676 62.572, 341.485 61.920, 337.615 57.695 C 334.282 54.056, 332 52.984, 332 55.057 M 406.741 61.562 C 400.429 63.092, 395 65.565, 395 66.912 C 395 67.385, 396.587 68.525, 398.526 69.445 C 412.029 75.853, 443.582 75.043, 452.151 68.069 L 454.500 66.157 449.971 64.209 C 447.480 63.137, 443.070 61.752, 440.172 61.130 C 433.033 59.599, 413.817 59.848, 406.741 61.562 M 66 62.465 C 66 65.124, 72.043 70.874, 77.818 73.710 C 82.762 76.138, 84.669 76.499, 92.500 76.495 C 102.596 76.489, 108.012 74.648, 113.722 69.279 C 116.681 66.497, 116.994 66.405, 117.548 68.151 C 117.880 69.197, 119.297 70.804, 120.697 71.721 C 123.102 73.297, 123.319 73.284, 124.626 71.497 C 126.251 69.274, 125.581 66.386, 122.711 63.250 C 120.671 61.022, 120.387 61, 93.326 61 C 69.991 61, 66 61.214, 66 62.465 M 271.336 62.567 C 270.502 64.739, 272.618 66.782, 274.133 65.267 C 275.413 63.987, 274.620 61, 273 61 C 272.415 61, 271.667 61.705, 271.336 62.567 M 345 62.886 C 337.256 65.389, 330.790 68.893, 331.310 70.304 C 331.552 70.962, 332.369 71.334, 333.125 71.131 C 337.060 70.076, 342.965 69.895, 346.036 70.736 C 347.941 71.257, 350.063 71.493, 350.750 71.259 C 352.094 70.801, 352.576 60.959, 351.250 61.054 C 350.837 61.083, 348.025 61.908, 345 62.886 M 416 62.047 C 408.291 62.692, 401.643 64.237, 399 66 C 397.667 66.889, 397.667 67.108, 399 67.971 C 402.173 70.025, 414.313 72, 423.764 72 C 434.778 72, 443.936 70.607, 448.480 68.241 L 451.500 66.668 448.500 65.390 C 441.436 62.381, 428.242 61.024, 416 62.047 M 68.470 63.048 C 67.392 64.792, 74.625 70.716, 80.529 72.925 C 87.746 75.625, 97.224 75.667, 104.168 73.028 C 109.387 71.045, 117.364 64.399, 116.400 62.837 C 115.618 61.573, 69.256 61.776, 68.470 63.048 M 118.552 63.916 C 117.685 65.318, 119.645 69.650, 121.461 70.347 C 123.836 71.258, 124.497 68.407, 122.587 65.492 C 120.884 62.893, 119.515 62.358, 118.552 63.916 M 15.583 64.902 C 15.392 65.231, 14.931 66.919, 14.560 68.652 C 13.902 71.720, 13.996 71.824, 18.038 72.506 C 23.013 73.347, 24.257 72.378, 23.823 68.003 C 23.526 65.011, 23.198 64.734, 19.715 64.528 C 17.633 64.405, 15.774 64.573, 15.583 64.902 M 206.026 67.805 C 205.361 69.645, 205.030 71.363, 205.291 71.624 C 205.551 71.885, 207.730 72.188, 210.132 72.299 L 214.500 72.500 214.801 68.377 L 215.103 64.254 211.169 64.357 C 207.653 64.449, 207.107 64.815, 206.026 67.805 M 492.526 72.950 C 490.430 77.003, 490.668 77.978, 493.054 75.114 C 494.974 72.808, 495.108 72.788, 497.021 74.519 C 498.925 76.242, 499.079 76.238, 501.090 74.418 C 503.065 72.631, 503.251 72.622, 504.451 74.263 C 506.042 76.439, 506.856 76.440, 509.253 74.271 C 511.064 72.632, 511.214 72.632, 512.132 74.271 C 512.664 75.222, 513.604 76, 514.221 76 C 514.838 76, 516.202 75.222, 517.253 74.271 C 519.064 72.632, 519.214 72.632, 520.132 74.271 C 520.664 75.222, 521.730 76, 522.500 76 C 523.270 76, 524.336 75.222, 524.868 74.271 C 525.786 72.632, 525.936 72.632, 527.747 74.271 C 530.167 76.461, 531.643 76.461, 532.868 74.271 C 533.786 72.632, 533.936 72.632, 535.747 74.271 C 538.143 76.439, 538.958 76.439, 540.544 74.271 C 541.717 72.667, 541.957 72.721, 543.871 75.021 C 546.324 77.969, 546.593 77.047, 544.474 72.950 C 542.644 69.411, 542.337 69.362, 540.011 72.235 L 538.201 74.470 536.327 72.156 L 534.453 69.842 532.558 71.936 L 530.662 74.031 528.500 72 L 526.338 69.969 524.500 72 L 522.662 74.031 520.500 72 L 518.338 69.969 516.500 72 L 514.662 74.031 512.439 71.943 L 510.216 69.854 508.628 72.120 L 507.041 74.387 504.628 72.120 L 502.216 69.854 500.533 72.177 L 498.851 74.500 497.303 72.250 C 495.260 69.278, 494.356 69.411, 492.526 72.950 M 328 72.393 C 328 73.159, 328.563 73.984, 329.250 74.225 C 331.583 75.045, 345 73.783, 345 72.744 C 345 72.073, 342.575 71.938, 338.060 72.358 C 333.790 72.755, 330.882 72.618, 330.501 72.001 C 329.593 70.532, 328 70.781, 328 72.393" stroke="none" fill="#6e6e6e" fill-rule="evenodd"/><path d="M 0 36 L 0 72 4.809 72 C 12.825 72, 13.447 71.007, 13.836 57.568 L 14.173 45.971 9.586 38.147 C 4.801 29.984, 3.858 25.134, 5.975 19.565 C 6.894 17.148, 7.355 17, 13.975 17 L 21 17 21 20.915 C 21 24.446, 21.480 25.182, 25.897 28.424 C 28.590 30.401, 31.010 32.577, 31.276 33.259 C 31.541 33.942, 35.110 39.282, 39.207 45.126 C 43.303 50.971, 47.462 57.496, 48.449 59.626 C 49.436 61.757, 51.412 64.752, 52.840 66.283 C 55.362 68.985, 56.677 75.464, 54.924 76.547 C 53.815 77.233, 43.732 74.954, 42.120 73.653 C 41.361 73.040, 38.886 69.606, 36.620 66.020 C 32.764 59.918, 32.479 59.680, 32.178 62.309 C 31.822 65.413, 29.493 66.893, 27.733 65.133 C 25.698 63.098, 25 63.928, 25 68.378 C 25 74.559, 23.667 75.357, 15.774 73.902 C 12.153 73.235, 7.316 73.025, 4.677 73.421 L -0 74.123 -0 85.563 L -0 97.004 280.250 96.752 L 560.500 96.500 560.766 48.250 L 561.032 -0 280.516 -0 L 0 0 0 36 M 0.451 36.500 C 0.451 56.300, 0.585 64.542, 0.748 54.815 C 0.912 45.088, 0.912 28.888, 0.749 18.815 C 0.586 8.742, 0.452 16.700, 0.451 36.500 M 376.243 15.157 C 374.659 16.741, 374.422 73, 376 73 C 376.643 73, 377 62.869, 377 44.607 C 377 18.749, 377.153 16.155, 378.709 15.558 C 379.841 15.124, 381.015 15.678, 382.187 17.201 C 383.719 19.193, 383.959 21.806, 383.978 36.750 C 383.992 47.569, 384.373 54, 385 54 C 385.629 54, 386 47.500, 386 36.500 C 386 26.875, 385.657 19, 385.237 19 C 384.818 19, 384.030 17.988, 383.487 16.750 C 382.363 14.188, 378.141 13.259, 376.243 15.157 M 417.500 14.954 C 410.759 17.742, 407.836 28.230, 411.966 34.810 C 414.174 38.328, 419.200 41, 423.608 41 C 428.223 41, 434.536 37.171, 435.833 33.585 C 437.344 29.407, 437.297 24.145, 435.721 21.030 C 432.859 15.374, 423.794 12.351, 417.500 14.954 M 469.782 25.593 L 469.500 37.297 466.250 34.560 C 462.316 31.246, 461.958 32.303, 465.693 36.202 C 467.780 38.380, 468.118 39.282, 467.193 40.207 C 465.529 41.871, 465.703 44.949, 467.500 45.638 C 469.775 46.512, 469.314 48.325, 466.010 51.490 C 464.366 53.065, 463.246 54.579, 463.521 54.854 C 463.796 55.129, 465.366 54.065, 467.010 52.490 L 470 49.626 470 61.870 L 470 74.115 474.250 73.807 L 478.500 73.500 478.500 44 L 478.500 14.500 474.282 14.194 L 470.064 13.888 469.782 25.593 M 418.250 16.443 C 416.462 17.246, 415 18.150, 415 18.452 C 415 18.753, 418.925 19, 423.723 19 C 431.921 19, 432.311 18.906, 430.211 17.435 C 426.985 15.176, 421.993 14.762, 418.250 16.443 M 472 43.500 L 472 72 474.500 72 L 477 72 477 43.500 L 477 15 474.500 15 L 472 15 472 43.500 M 67.571 18.571 C 66.444 19.699, 66 22.108, 66 27.096 C 66 33.412, 66.206 34.120, 68.250 34.819 C 69.487 35.242, 82.762 35.413, 97.750 35.199 L 125 34.808 125 25.904 L 125 17 121.571 17 C 118.195 17, 118.124 17.088, 117.008 22.750 C 116.384 25.913, 115.789 28.830, 115.687 29.234 C 115.584 29.637, 107.116 30.162, 96.869 30.399 L 78.238 30.832 77.765 25.906 C 77.026 18.212, 71.736 14.406, 67.571 18.571 M 197.515 17.976 C 197.183 18.513, 196.646 21.192, 196.322 23.928 C 195.779 28.517, 196.094 29.542, 200.366 37.083 L 205 45.262 205 56.631 C 205 70.400, 204.069 72, 196.059 72 C 193.341 72, 190.823 72.477, 190.463 73.061 C 190.012 73.790, 191.655 73.912, 195.722 73.452 C 199.119 73.068, 203.982 73.270, 207.145 73.926 C 214.838 75.523, 216 74.863, 216 68.893 C 216 63.958, 216.656 63.056, 218.733 65.133 C 220.478 66.878, 222.820 65.423, 223.178 62.371 C 223.469 59.888, 223.933 60.337, 228.011 67.057 C 232.318 74.154, 232.748 74.543, 237.511 75.649 C 245.725 77.557, 246.338 77.439, 245.664 74.070 C 245.294 72.221, 245.525 70.965, 246.289 70.664 C 247.059 70.362, 246.510 69.333, 244.784 67.844 C 243.290 66.555, 240.706 62.874, 239.043 59.665 C 234.018 49.973, 219.451 29.639, 216.164 27.728 C 213.726 26.310, 212.981 25.059, 212.444 21.478 L 211.773 17 204.945 17 C 201.190 17, 197.847 17.439, 197.515 17.976 M 276.913 18.282 C 273.746 20.714, 273 23.886, 273 34.934 L 273 46 269 46 L 265 46 265 61.500 L 265 77 274 77 L 283 77 283 61.500 L 283 46 279 46 L 275 46 275 34.155 C 275 23.950, 275.253 22.081, 276.829 20.655 C 278.706 18.956, 283.633 18.457, 285.610 19.765 C 288.915 21.952, 290 26.941, 290 39.950 C 290 51.975, 289.855 53, 288.152 53 C 286.757 53, 286.282 53.788, 286.213 56.221 C 286.102 60.114, 287.490 62, 290.467 62 C 294.478 62, 298.840 54.255, 295.865 52.417 C 294.594 51.631, 297.595 48.261, 301.248 46.372 L 304 44.949 304 61.058 C 304 73.502, 304.284 77.071, 305.250 76.747 C 306.173 76.436, 306.524 72.244, 306.592 60.706 C 306.655 49.861, 307.063 44.629, 307.924 43.591 C 309.233 42.014, 308.521 38, 306.933 38 C 304.928 38, 306.151 31.876, 309 27.655 C 310.650 25.210, 312 22.743, 312 22.173 C 312 21.603, 310.633 20.163, 308.961 18.972 C 306.049 16.899, 305.778 16.877, 302.461 18.451 C 298.251 20.449, 297.985 22.980, 301.500 27.589 C 304.890 32.033, 304.955 37.543, 301.628 38.378 C 300.324 38.706, 297.624 40.781, 295.628 42.990 L 292 47.006 292 37.191 C 292 23.065, 288.758 16.948, 281.316 17.032 C 279.767 17.049, 277.786 17.612, 276.913 18.282 M 343.797 18.750 C 341.141 21.821, 339.903 26.873, 341.271 29.062 C 341.937 30.128, 342.935 31.002, 343.491 31.004 C 344.046 31.006, 343.100 31.861, 341.389 32.905 C 339.677 33.948, 337.284 36.197, 336.070 37.901 C 334.857 39.605, 333.304 41, 332.619 41 C 331.207 41, 327.199 36.847, 324.659 32.750 C 323.721 31.238, 322.321 30, 321.547 30 C 319.582 30, 321.142 35.178, 324.018 38.202 C 325.220 39.466, 327.336 41.962, 328.721 43.750 C 331.957 47.929, 334.152 47.853, 337.795 43.433 C 341.288 39.195, 341.682 39.731, 342.637 50.007 C 343.567 60.007, 342.996 60.612, 337.553 55.397 C 332.800 50.842, 328.468 49.616, 327.357 52.511 C 327.039 53.342, 327.321 56.902, 327.985 60.421 C 329.137 66.527, 329.085 66.967, 326.846 70.020 C 325.556 71.779, 323.488 73.608, 322.250 74.085 C 317.978 75.729, 319.720 77.174, 325.250 76.574 C 333.894 75.635, 350.142 75.571, 355.750 76.453 C 361.984 77.433, 362.949 75.841, 357.500 73.564 L 354 72.102 354 61.110 C 354 55.064, 354.430 49.852, 354.956 49.527 C 355.482 49.202, 357.562 49.626, 359.578 50.468 C 361.594 51.311, 363.591 52, 364.015 52 C 366.178 52, 365.644 48.099, 362.570 41.446 C 359.814 35.480, 358.467 33.714, 355.651 32.371 C 352.627 30.928, 352.346 30.511, 353.577 29.280 C 355.640 27.217, 355.390 20.663, 353.171 18.655 C 350.777 16.488, 345.709 16.539, 343.797 18.750 M 204.519 18.814 C 198.851 19.172, 198.037 19.984, 198.015 25.300 C 197.998 29.651, 198.859 31.519, 207.622 46.144 C 211.130 51.998, 214 57.307, 214 57.942 C 214 59.206, 218.814 64, 220.083 64 C 220.518 64, 221.014 62.572, 221.187 60.827 C 221.359 59.082, 222.001 57.490, 222.613 57.289 C 223.225 57.089, 225.662 60.131, 228.029 64.049 C 232.782 71.915, 234.663 73.486, 240.338 74.331 C 243.672 74.828, 244.086 74.679, 243.486 73.201 C 243.106 72.266, 242.380 70.375, 241.872 69 C 241.364 67.625, 238.148 64.156, 234.724 61.291 C 231.301 58.426, 224 52.343, 218.500 47.773 C 209.945 40.665, 208.500 39.035, 208.500 36.496 C 208.500 34.321, 209.035 33.426, 210.500 33.147 C 212.435 32.780, 212.442 32.832, 210.699 34.769 C 208.957 36.704, 208.974 36.852, 211.199 39.274 C 214.678 43.059, 237.063 61.270, 237.590 60.743 C 238.622 59.712, 219.615 32.818, 215.431 29.390 C 211.808 26.421, 211 25.153, 211 22.439 C 211 18.479, 210.879 18.411, 204.519 18.814 M 345.963 19.218 C 343.567 20.113, 343.553 20.177, 345.441 21.569 C 346.509 22.356, 348.213 23, 349.229 23 C 350.563 23, 350.996 23.625, 350.788 25.250 C 350.381 28.429, 352.217 29.019, 353.032 25.972 C 354.468 20.603, 351.035 17.324, 345.963 19.218 M 509.445 19.282 C 509.158 20.030, 509.053 25.110, 509.212 30.571 L 509.500 40.500 518.783 40.788 L 528.066 41.076 527.783 29.788 L 527.500 18.500 518.734 18.211 C 512.059 17.991, 509.843 18.246, 509.445 19.282 M 6.975 21.565 C 4.930 26.945, 5.724 29.028, 16.393 46.290 C 19.867 51.909, 23.034 57.530, 23.430 58.780 C 24.272 61.432, 28.440 64.464, 29.956 63.527 C 30.530 63.172, 31 61.559, 31 59.941 C 31 58.323, 31.418 57, 31.929 57 C 32.440 57, 34.970 60.389, 37.551 64.530 C 40.133 68.672, 42.977 72.435, 43.872 72.893 C 45.938 73.950, 54 75.207, 54 74.472 C 54 74.169, 53.093 72.143, 51.985 69.970 C 50.610 67.275, 45.923 62.763, 37.235 55.768 C 30.231 50.130, 22.557 43.629, 20.181 41.321 C 16.437 37.684, 16.009 36.851, 16.966 35.063 C 17.574 33.928, 18.842 33.014, 19.785 33.032 C 21.333 33.061, 21.317 33.202, 19.625 34.484 C 18.593 35.265, 18 36.558, 18.307 37.358 C 18.614 38.157, 24.633 43.426, 31.682 49.066 C 38.732 54.706, 45.353 60.036, 46.396 60.910 C 48.210 62.432, 48.236 62.393, 47.003 60 C 43.284 52.782, 28.909 33.199, 24.765 29.705 C 20.830 26.386, 20 25.105, 20 22.343 L 20 19 13.975 19 C 8.428 19, 7.873 19.203, 6.975 21.565 M 67.980 21.038 C 66.286 24.202, 67.134 31.413, 69.246 31.814 C 70.534 32.058, 70.821 31.698, 70.341 30.445 C 69.784 28.995, 70.225 28.807, 73.344 29.172 C 76.792 29.574, 77 29.438, 77 26.764 C 77 20.399, 70.522 16.287, 67.980 21.038 M 118.199 24.750 C 117.650 27.913, 117.319 30.626, 117.464 30.781 C 117.610 30.935, 119.139 31.466, 120.864 31.961 L 124 32.860 124 25.930 C 124 19.281, 123.903 19, 121.599 19 C 119.459 19, 119.090 19.624, 118.199 24.750 M 511.214 29.750 L 511.500 39.500 518.500 39.500 L 525.500 39.500 525.786 29.750 L 526.072 20 518.500 20 L 510.928 20 511.214 29.750 M 301 22.500 C 301 23.325, 301.450 24, 302 24 C 302.550 24, 303 23.325, 303 22.500 C 303 21.675, 302.550 21, 302 21 C 301.450 21, 301 21.675, 301 22.500 M 307.694 21.639 C 306.895 22.438, 307.798 24, 309.059 24 C 309.577 24, 310 23.325, 310 22.500 C 310 20.954, 308.820 20.513, 307.694 21.639 M 412.667 21.667 C 412.300 22.033, 412 22.933, 412 23.667 C 412 24.701, 414.601 25, 423.607 25 C 433.780 25, 435.139 24.805, 434.607 23.418 C 434.273 22.548, 434 21.648, 434 21.418 C 434 20.714, 413.379 20.954, 412.667 21.667 M 9.337 23.386 C 9.564 23.999, 10.256 24.387, 10.875 24.250 C 11.494 24.113, 12 24.873, 12 25.941 C 12 27.009, 12.450 28.160, 13 28.500 C 13.550 28.840, 14 28.432, 14 27.594 C 14 26.756, 14.913 25.582, 16.028 24.985 C 17.143 24.388, 17.830 23.534, 17.553 23.086 C 16.760 21.802, 8.857 22.091, 9.337 23.386 M 201 23.118 C 201 23.603, 201.363 24, 201.807 24 C 202.251 24, 203.084 25.238, 203.658 26.750 L 204.702 29.500 205.826 26.750 C 206.445 25.238, 207.412 24, 207.975 24 C 208.539 24, 209 23.578, 209 23.063 C 209 22.547, 207.200 22.150, 205 22.181 C 202.800 22.211, 201 22.633, 201 23.118 M 304.250 24.718 C 302.553 25.327, 302.667 27.658, 304.427 28.334 C 306.465 29.116, 308.406 26.567, 306.762 25.267 C 306.068 24.718, 304.938 24.471, 304.250 24.718 M 344.419 25.362 C 342.170 26.609, 342.278 29, 344.583 29 C 347.052 29, 346.121 32.624, 343.325 33.898 C 341.853 34.568, 338.873 37.135, 336.701 39.602 C 332.826 44.005, 332.715 44.054, 330.627 42.293 L 328.500 40.500 330.405 42.750 C 332.997 45.811, 333.773 45.626, 337.738 40.993 C 339.625 38.789, 341.514 37.200, 341.937 37.461 C 343.296 38.301, 345.291 52.781, 344.623 56.959 C 343.922 61.338, 344.185 61.529, 348.729 59.945 C 351.459 58.993, 351.809 58.379, 352.292 53.695 C 352.717 49.577, 352.483 48.248, 351.164 47.284 C 347.829 44.847, 345 41.524, 345 40.042 C 345 38.216, 347.304 38.917, 350.096 41.592 L 352.802 44.185 354.151 41.416 C 356.166 37.281, 357.359 37.500, 359.762 42.446 C 361.986 47.024, 361.596 48.405, 358.340 47.489 C 357.328 47.204, 358.015 47.675, 359.866 48.536 C 361.718 49.396, 363.446 49.887, 363.707 49.626 C 363.968 49.366, 362.678 46.080, 360.841 42.326 C 358.309 37.152, 356.667 35.084, 354.058 33.782 C 350.415 31.964, 348.723 29.771, 348.486 26.565 C 348.311 24.184, 347.158 23.843, 344.419 25.362 M 411.736 26.598 C 411.407 26.927, 411.380 27.827, 411.676 28.598 C 412.094 29.687, 414.755 30, 423.607 30 C 434.333 30, 435 29.883, 435 28 C 435 26.118, 434.333 26, 423.667 26 C 417.433 26, 412.064 26.269, 411.736 26.598 M 94.206 32.741 C 97.895 32.932, 104.195 32.934, 108.206 32.743 C 112.218 32.553, 109.200 32.396, 101.500 32.395 C 93.800 32.393, 90.518 32.549, 94.206 32.741 M 173.994 32.934 C 168.680 34.551, 164.435 37.469, 156.432 45.007 C 151.869 49.305, 147.204 53.118, 146.067 53.479 C 143.368 54.335, 143.459 55.177, 146.637 58.799 L 149.274 61.804 152.387 59.906 C 154.407 58.674, 157.360 58.006, 160.800 58.004 C 167.061 57.999, 170.579 56.382, 174.809 51.565 C 177.999 47.932, 181 39.814, 181 34.818 C 181 31.788, 179.282 31.326, 173.994 32.934 M 413.250 33.250 C 413.546 34.137, 416.522 34.500, 423.500 34.500 C 430.478 34.500, 433.454 34.137, 433.750 33.250 C 434.066 32.302, 431.589 32, 423.500 32 C 415.411 32, 412.934 32.302, 413.250 33.250 M 174.658 36.494 C 170.554 38.635, 165.983 42.602, 162.197 47.310 L 158.893 51.416 161.197 52.407 C 163.382 53.347, 163.329 53.416, 160.154 53.769 C 158.313 53.974, 156.562 53.896, 156.263 53.596 C 155.482 52.815, 163.581 42.564, 167.873 38.902 L 171.500 35.806 167.357 38.153 C 165.078 39.444, 159.497 44.016, 154.956 48.314 C 147.708 55.173, 146.878 56.306, 148.162 57.591 C 149.447 58.875, 150.072 58.868, 153.281 57.527 C 155.291 56.687, 159.134 56, 161.820 56 C 168.394 56, 172.731 53.015, 176.250 46.070 C 178.837 40.963, 179.916 34.992, 178.250 35.006 C 177.838 35.010, 176.221 35.679, 174.658 36.494 M 418 38 C 418.825 38.533, 421.300 38.969, 423.500 38.969 C 425.700 38.969, 428.175 38.533, 429 38 C 430.047 37.324, 428.384 37.031, 423.500 37.031 C 418.616 37.031, 416.953 37.324, 418 38 M 299.305 41.499 C 296.765 43.278, 292.518 49.851, 293.362 50.696 C 293.687 51.021, 294.241 50.535, 294.594 49.617 C 294.946 48.698, 297.207 46.791, 299.617 45.378 C 302.028 43.966, 304 42.178, 304 41.405 C 304 39.576, 301.992 39.617, 299.305 41.499 M 355.601 41.597 C 355.132 42.820, 355.478 43.876, 356.623 44.713 C 359.020 46.466, 359.414 45.668, 357.734 42.462 C 356.460 40.031, 356.237 39.940, 355.601 41.597 M 468 43 C 468 44.100, 468.450 45, 469 45 C 469.550 45, 470 44.100, 470 43 C 470 41.900, 469.550 41, 469 41 C 468.450 41, 468 41.900, 468 43 M 15.487 54.750 C 16.213 61.542, 17.030 62.957, 20.250 62.985 C 22.905 63.008, 22.418 59.475, 18.927 53.372 C 17.236 50.417, 15.609 48, 15.310 48 C 15.011 48, 15.091 51.038, 15.487 54.750 M 266.706 48.627 C 266.318 49.015, 266 55.108, 266 62.167 L 266 75 274.029 75 L 282.058 75 281.779 61.750 L 281.500 48.500 274.456 48.210 C 270.582 48.051, 267.095 48.239, 266.706 48.627 M 207.015 55.143 C 207.003 60.288, 207.357 61.923, 208.582 62.393 C 213.377 64.233, 214.332 61.440, 211.039 55.210 C 207.262 48.066, 207.032 48.063, 207.015 55.143 M 272.071 50.956 C 270.652 51.833, 271.259 55, 272.846 55 C 273.346 55, 274.266 54.385, 274.890 53.633 C 276.357 51.865, 274.087 49.710, 272.071 50.956 M 329.544 57.947 C 329.862 60.943, 330.530 64.093, 331.030 64.947 C 332.557 67.556, 332.172 62.108, 330.469 57 L 328.968 52.500 329.544 57.947 M 288.667 54.667 C 287.357 55.977, 288.030 59.798, 289.683 60.432 C 291.920 61.290, 295.290 57.920, 294.432 55.683 C 293.798 54.030, 289.977 53.357, 288.667 54.667 M 332 55.057 C 332 55.639, 332.510 58.139, 333.133 60.613 C 334.025 64.155, 334.610 64.970, 335.883 64.443 C 336.772 64.074, 338.288 63.547, 339.250 63.270 C 341.676 62.572, 341.485 61.920, 337.615 57.695 C 334.282 54.056, 332 52.984, 332 55.057 M 406.741 61.562 C 400.429 63.092, 395 65.565, 395 66.912 C 395 67.385, 396.587 68.525, 398.526 69.445 C 412.029 75.853, 443.582 75.043, 452.151 68.069 L 454.500 66.157 449.971 64.209 C 447.480 63.137, 443.070 61.752, 440.172 61.130 C 433.033 59.599, 413.817 59.848, 406.741 61.562 M 66 62.465 C 66 65.124, 72.043 70.874, 77.818 73.710 C 82.762 76.138, 84.669 76.499, 92.500 76.495 C 102.596 76.489, 108.012 74.648, 113.722 69.279 C 116.681 66.497, 116.994 66.405, 117.548 68.151 C 117.880 69.197, 119.297 70.804, 120.697 71.721 C 123.102 73.297, 123.319 73.284, 124.626 71.497 C 126.251 69.274, 125.581 66.386, 122.711 63.250 C 120.671 61.022, 120.387 61, 93.326 61 C 69.991 61, 66 61.214, 66 62.465 M 271.336 62.567 C 270.502 64.739, 272.618 66.782, 274.133 65.267 C 275.413 63.987, 274.620 61, 273 61 C 272.415 61, 271.667 61.705, 271.336 62.567 M 345 62.886 C 337.256 65.389, 330.790 68.893, 331.310 70.304 C 331.552 70.962, 332.369 71.334, 333.125 71.131 C 337.060 70.076, 342.965 69.895, 346.036 70.736 C 347.941 71.257, 350.063 71.493, 350.750 71.259 C 352.094 70.801, 352.576 60.959, 351.250 61.054 C 350.837 61.083, 348.025 61.908, 345 62.886 M 416 62.047 C 408.291 62.692, 401.643 64.237, 399 66 C 397.667 66.889, 397.667 67.108, 399 67.971 C 402.173 70.025, 414.313 72, 423.764 72 C 434.778 72, 443.936 70.607, 448.480 68.241 L 451.500 66.668 448.500 65.390 C 441.436 62.381, 428.242 61.024, 416 62.047 M 68.470 63.048 C 67.392 64.792, 74.625 70.716, 80.529 72.925 C 87.746 75.625, 97.224 75.667, 104.168 73.028 C 109.387 71.045, 117.364 64.399, 116.400 62.837 C 115.618 61.573, 69.256 61.776, 68.470 63.048 M 118.552 63.916 C 117.685 65.318, 119.645 69.650, 121.461 70.347 C 123.836 71.258, 124.497 68.407, 122.587 65.492 C 120.884 62.893, 119.515 62.358, 118.552 63.916 M 15.583 64.902 C 15.392 65.231, 14.931 66.919, 14.560 68.652 C 13.902 71.720, 13.996 71.824, 18.038 72.506 C 23.013 73.347, 24.257 72.378, 23.823 68.003 C 23.526 65.011, 23.198 64.734, 19.715 64.528 C 17.633 64.405, 15.774 64.573, 15.583 64.902 M 206.026 67.805 C 205.361 69.645, 205.030 71.363, 205.291 71.624 C 205.551 71.885, 207.730 72.188, 210.132 72.299 L 214.500 72.500 214.801 68.377 L 215.103 64.254 211.169 64.357 C 207.653 64.449, 207.107 64.815, 206.026 67.805 M 492.526 72.950 C 490.430 77.003, 490.668 77.978, 493.054 75.114 C 494.974 72.808, 495.108 72.788, 497.021 74.519 C 498.925 76.242, 499.079 76.238, 501.090 74.418 C 503.065 72.631, 503.251 72.622, 504.451 74.263 C 506.042 76.439, 506.856 76.440, 509.253 74.271 C 511.064 72.632, 511.214 72.632, 512.132 74.271 C 512.664 75.222, 513.604 76, 514.221 76 C 514.838 76, 516.202 75.222, 517.253 74.271 C 519.064 72.632, 519.214 72.632, 520.132 74.271 C 520.664 75.222, 521.730 76, 522.500 76 C 523.270 76, 524.336 75.222, 524.868 74.271 C 525.786 72.632, 525.936 72.632, 527.747 74.271 C 530.167 76.461, 531.643 76.461, 532.868 74.271 C 533.786 72.632, 533.936 72.632, 535.747 74.271 C 538.143 76.439, 538.958 76.439, 540.544 74.271 C 541.717 72.667, 541.957 72.721, 543.871 75.021 C 546.324 77.969, 546.593 77.047, 544.474 72.950 C 542.644 69.411, 542.337 69.362, 540.011 72.235 L 538.201 74.470 536.327 72.156 L 534.453 69.842 532.558 71.936 L 530.662 74.031 528.500 72 L 526.338 69.969 524.500 72 L 522.662 74.031 520.500 72 L 518.338 69.969 516.500 72 L 514.662 74.031 512.439 71.943 L 510.216 69.854 508.628 72.120 L 507.041 74.387 504.628 72.120 L 502.216 69.854 500.533 72.177 L 498.851 74.500 497.303 72.250 C 495.260 69.278, 494.356 69.411, 492.526 72.950 M 328 72.393 C 328 73.159, 328.563 73.984, 329.250 74.225 C 331.583 75.045, 345 73.783, 345 72.744 C 345 72.073, 342.575 71.938, 338.060 72.358 C 333.790 72.755, 330.882 72.618, 330.501 72.001 C 329.593 70.532, 328 70.781, 328 72.393 M 0.382 85.500 C 0.384 92.100, 0.546 94.670, 0.741 91.211 C 0.937 87.752, 0.936 82.352, 0.738 79.211 C 0.540 76.070, 0.380 78.900, 0.382 85.500" stroke="none" fill="#f8f8f8" fill-rule="evenodd"/></svg>