<svg xmlns="http://www.w3.org/2000/svg" width="910" height="128" viewBox="0 0 910 128" version="1.1"><path d="M 857 16.121 C 850.445 18.727, 845.714 26.006, 845.714 33.486 C 845.714 44.185, 853.387 52.387, 863.309 52.295 C 871.121 52.223, 876.530 51.299, 876.250 50.085 C 875.980 48.915, 879.484 45, 880.800 45 C 881.240 45, 882.152 42.324, 882.828 39.054 C 884.545 30.741, 883.051 25.182, 877.832 20.467 C 875.667 18.511, 872.765 16.481, 871.383 15.955 C 868.181 14.738, 860.248 14.829, 857 16.121 M 860.074 16.834 C 856.378 17.933, 856.595 19.186, 861.279 23.783 L 865.580 28.004 869.904 23.598 C 873.985 19.439, 874.116 19.133, 872.239 18.128 C 869.491 16.657, 862.994 15.966, 860.074 16.834 M 13.993 17.250 C 13.989 17.387, 12.669 29.363, 11.060 43.862 L 8.135 70.224 16.159 78.035 L 24.183 85.846 23.853 93.673 C 23.538 101.132, 23.628 101.515, 25.761 101.820 C 27.924 102.128, 28 101.859, 28 93.925 C 28 77.064, 25.824 31.358, 24.841 27.560 C 23.743 23.320, 18.212 17, 15.600 17 C 14.720 17, 13.997 17.113, 13.993 17.250 M 47.246 19.922 C 45.487 21.529, 43.249 23.035, 42.274 23.267 C 40.665 23.651, 40.686 23.766, 42.500 24.497 C 46.864 26.258, 48 28.141, 48 33.614 C 48 38.266, 49.056 41.045, 56.590 56.209 C 66.474 76.106, 66.431 75.741, 60.669 90.719 L 57.291 99.500 50.645 99.796 C 46.990 99.958, 44 100.521, 44 101.046 C 44 101.615, 51.059 102, 61.500 102 C 71.750 102, 79 101.611, 79 101.060 C 79 100.544, 77.481 99.981, 75.625 99.810 L 72.251 99.500 75.108 92.500 C 77.920 85.612, 78.156 81.227, 75.867 78.376 C 75.218 77.568, 77.327 77.129, 83.376 76.811 C 91.524 76.384, 97 74.441, 97 71.979 C 97 71.443, 95.398 69.316, 93.439 67.252 C 91.480 65.189, 87.854 60.177, 85.379 56.116 C 80.469 48.057, 74.530 40.560, 68.869 35.275 C 66.286 32.864, 65.049 30.708, 64.586 27.809 C 64.149 25.077, 62.824 22.624, 60.567 20.367 C 56.146 15.946, 51.760 15.799, 47.246 19.922 M 312.941 18.571 C 312.021 19.679, 308.751 20, 298.378 20 C 290.126 20, 285 20.383, 285 21 C 285 21.617, 290.167 22, 298.500 22 C 305.925 22, 312 22.378, 312 22.839 C 312 25.794, 324.474 26.440, 326.555 23.594 C 327.519 22.275, 329.990 22, 340.860 22 C 348.953 22, 354 21.616, 354 21 C 354 20.383, 348.874 20, 340.622 20 C 330.249 20, 326.979 19.679, 326.059 18.571 C 325.301 17.658, 322.937 17.143, 319.500 17.143 C 316.063 17.143, 313.699 17.658, 312.941 18.571 M 569.571 18.571 C 568.187 19.956, 568.027 24.975, 568.228 60.821 L 568.455 101.500 569.006 61 C 569.309 38.725, 569.657 20.403, 569.778 20.285 C 569.900 20.167, 570.867 19.606, 571.928 19.039 C 574.531 17.646, 576.928 18.728, 578.234 21.886 C 579.140 24.077, 579.384 24.205, 579.745 22.676 C 580.796 18.219, 573.049 15.094, 569.571 18.571 M 628.500 18.400 C 621.671 21.410, 617 28.621, 617 36.152 C 617 50.321, 632.802 59.586, 645 52.569 C 647.475 51.146, 650.295 49.706, 651.266 49.370 C 652.237 49.033, 652.937 48.250, 652.820 47.629 C 652.520 46.031, 653.990 42, 654.873 42 C 656.103 42, 655.195 31.709, 653.635 27.987 C 649.900 19.070, 637.613 14.384, 628.500 18.400 M 703 34 C 703 43.350, 702.680 51, 702.288 51 C 701.896 51, 699.646 49.106, 697.288 46.792 C 694.930 44.477, 693 43.036, 693 43.589 C 693 44.142, 694.794 46.345, 696.986 48.486 L 700.971 52.378 698.928 54.282 C 696.264 56.764, 696.703 61.150, 699.750 62.487 C 702.933 63.884, 702.600 64.994, 697.500 70 C 695.025 72.429, 693 74.868, 693 75.421 C 693 75.973, 695.250 74.209, 698 71.500 L 703 66.575 703 84.288 L 703 102 708.500 102 L 714 102 714 59.500 L 714 17 708.500 17 L 703 17 703 34 M 51.500 18.955 C 50.400 19.400, 48.663 20.695, 47.639 21.833 C 45.821 23.855, 45.827 23.964, 47.889 26.586 C 49.373 28.473, 50 30.700, 50 34.086 C 50 38.076, 51.326 41.586, 57.732 54.552 C 65.301 69.871, 65.570 70.257, 70.482 72.814 C 74.639 74.978, 76.707 75.399, 82.534 75.270 C 89.873 75.108, 95 73.774, 95 72.026 C 95 71.463, 93.306 69.257, 91.235 67.123 C 89.165 64.990, 85.715 60.041, 83.570 56.127 C 81.424 52.212, 78.820 48.242, 77.784 47.304 C 76.007 45.697, 75.712 45.701, 72.604 47.374 C 69.453 49.071, 69.328 49.359, 69.769 53.945 C 70.392 60.429, 68.791 61.179, 64.102 56.599 C 60.611 53.190, 56.984 45.630, 56.995 41.785 C 57 40.122, 59.769 38, 61.934 38 C 63.794 38, 63.082 39.745, 61 40.290 C 58.573 40.924, 58.451 43.422, 60.593 48.628 C 62.330 52.849, 66.856 58.207, 68.058 57.464 C 68.471 57.209, 68.565 55.172, 68.265 52.939 C 67.772 49.262, 68.033 48.618, 71.030 46.116 L 74.340 43.353 68.670 37.185 C 64.413 32.555, 63 30.271, 63 28.024 C 63 26.138, 61.983 23.945, 60.250 22.094 C 57.126 18.757, 54.403 17.780, 51.500 18.955 M 314.347 19.508 C 312.620 20.789, 312.609 20.988, 314.172 22.576 C 316.195 24.629, 319 23.794, 319 21.138 C 319 18.608, 316.663 17.789, 314.347 19.508 M 321.250 18.718 C 319.496 19.347, 319.688 22.943, 321.513 23.643 C 323.053 24.234, 326 22.441, 326 20.913 C 326 19.703, 322.725 18.190, 321.250 18.718 M 630.591 19.481 C 628.441 20.247, 625.753 21.802, 624.619 22.937 L 622.556 25 635.778 25 C 643.050 25, 648.986 24.663, 648.969 24.250 C 648.912 22.903, 644.476 20.226, 640.446 19.107 C 635.586 17.757, 635.409 17.764, 630.591 19.481 M 704.714 18.619 C 704.321 19.012, 704 37.483, 704 59.667 L 704 100 708.511 100 L 713.022 100 712.761 59.250 L 712.500 18.500 708.964 18.202 C 707.020 18.039, 705.107 18.226, 704.714 18.619 M 12.655 44.421 L 9.875 69.842 17.688 77.349 C 24.198 83.604, 25.555 84.521, 25.830 82.846 C 26.462 79.002, 24.039 30.479, 23.047 27.090 C 21.987 23.471, 18.392 19, 16.543 19 C 15.833 19, 14.434 28.151, 12.655 44.421 M 482.612 22.750 C 482.302 24.813, 480.887 36.749, 479.468 49.276 L 476.889 72.051 484.944 79.630 L 493 87.208 493 95.604 C 493 103.893, 493.032 104, 495.500 104 C 497.729 104, 497.996 103.594, 497.960 100.250 C 497.841 89.206, 494.941 31.086, 494.389 28.684 C 493.548 25.027, 487.842 19, 485.220 19 C 483.625 19, 483.052 19.824, 482.612 22.750 M 516.612 22.750 C 516.302 24.813, 514.887 36.749, 513.468 49.276 L 510.889 72.051 518.944 79.630 L 527 87.208 527 95.604 C 527 103.893, 527.032 104, 529.500 104 C 531.729 104, 531.996 103.594, 531.960 100.250 C 531.841 89.206, 528.941 31.086, 528.389 28.684 C 527.548 25.027, 521.842 19, 519.220 19 C 517.625 19, 517.052 19.824, 516.612 22.750 M 852.028 21.470 L 849.663 23.988 855.502 29.294 L 861.341 34.601 856.124 39.481 L 850.907 44.361 853.523 46.931 L 856.139 49.500 860.482 44.750 C 862.870 42.138, 865.223 40, 865.709 40 C 866.196 40, 868.348 41.796, 870.492 43.991 L 874.389 47.983 876.714 45.799 L 879.039 43.615 874.809 39.305 L 870.579 34.996 875.287 30.216 C 879.781 25.654, 879.924 25.336, 878.440 23.218 C 876.182 19.995, 874.662 20.441, 870.048 25.682 L 865.927 30.365 860.160 24.658 L 854.394 18.952 852.028 21.470 M 186.824 23.714 C 186.189 25.246, 185.631 29.446, 185.585 33.047 C 185.504 39.316, 185.765 40.055, 191.750 50.463 L 198 61.332 198 75.488 C 198 85.689, 197.564 90.923, 196.440 94.222 L 194.880 98.800 186.490 99.150 C 181.875 99.342, 177.629 99.971, 177.053 100.546 C 176.326 101.274, 178.951 101.463, 185.688 101.169 C 191.012 100.936, 198.400 101.287, 202.106 101.950 C 211.911 103.702, 213 102.894, 213 93.866 L 213 86.802 216.557 88.901 C 218.514 90.056, 220.475 91, 220.917 91 C 221.358 91, 222.120 88.649, 222.609 85.775 L 223.500 80.550 229.149 90.028 C 232.256 95.242, 235.681 100.306, 236.761 101.283 C 237.840 102.260, 241.148 103.457, 244.112 103.942 C 247.075 104.428, 250.688 105.126, 252.141 105.493 C 255.428 106.326, 256.383 104.935, 254.845 101.558 C 253.850 99.376, 253.937 98.766, 255.393 97.702 C 256.969 96.549, 256.766 96.118, 253.099 92.826 C 250.886 90.839, 247.834 86.578, 246.316 83.357 C 243.473 77.323, 222.522 45.336, 218.667 41.144 C 217.475 39.848, 214.610 37.479, 212.299 35.880 C 208.284 33.100, 208.086 32.720, 207.799 27.236 L 207.500 21.500 197.739 21.214 L 187.978 20.927 186.824 23.714 M 481.542 46.563 L 478.736 72.127 481.118 73.763 C 482.428 74.662, 486.365 78.121, 489.867 81.449 L 496.235 87.500 495.648 82.500 C 495.325 79.750, 494.765 67.600, 494.404 55.500 C 494.007 42.245, 493.228 31.773, 492.442 29.155 C 490.950 24.181, 488.444 21, 486.019 21 C 484.573 21, 483.967 24.461, 481.542 46.563 M 515.542 46.563 L 512.736 72.127 515.118 73.763 C 516.428 74.662, 520.365 78.121, 523.867 81.449 L 530.235 87.500 529.648 82.500 C 529.325 79.750, 528.765 67.600, 528.404 55.500 C 528.007 42.245, 527.228 31.773, 526.442 29.155 C 524.950 24.181, 522.444 21, 520.019 21 C 518.573 21, 517.967 24.461, 515.542 46.563 M 196.208 22.743 C 189.345 23.069, 188.855 23.248, 187.872 25.795 C 187.297 27.283, 186.994 31.200, 187.199 34.500 C 187.541 40.036, 188.324 41.754, 197.326 56.718 C 202.691 65.638, 208.231 75.446, 209.636 78.515 C 211.443 82.462, 213.327 84.813, 216.075 86.547 C 218.212 87.896, 220.194 89, 220.480 89 C 220.766 89, 221 86.777, 221 84.059 C 221 75.203, 222.476 76.053, 230.883 89.745 C 234.343 95.379, 237.645 100.280, 238.221 100.636 C 239.596 101.487, 253.252 104.081, 253.747 103.586 C 253.958 103.376, 252.638 100.281, 250.815 96.709 C 247.263 89.752, 245.509 88.085, 217.746 65.290 C 201.168 51.679, 198.255 47.075, 204.203 43.891 C 207.142 42.319, 207.628 43.671, 204.915 45.868 C 202.722 47.643, 202.652 47.982, 203.973 50.449 C 205.140 52.630, 236.640 79.609, 244.313 85 C 247.438 87.196, 242.203 78.190, 228.761 58.247 C 220.201 45.547, 216.571 41.056, 212.153 37.703 C 206.556 33.456, 206.497 33.356, 206.200 27.706 C 206.003 23.957, 205.489 22.068, 204.700 22.199 C 204.040 22.308, 200.219 22.553, 196.208 22.743 M 751.395 23.765 C 749.396 25.094, 747.763 32.129, 748.208 37.493 C 748.557 41.699, 749.877 44.855, 754.748 53.131 L 760.851 63.500 760.965 77.374 C 761.048 87.589, 760.662 92.501, 759.501 95.998 L 757.923 100.747 750.192 101.195 C 745.940 101.441, 741.592 102.129, 740.530 102.723 C 739.083 103.533, 740.803 103.666, 747.392 103.255 C 752.568 102.932, 759.628 103.242, 764.553 104.008 C 775.360 105.689, 776 105.235, 776 95.892 L 776 89.029 779.250 91.011 C 781.038 92.101, 783.020 92.994, 783.656 92.996 C 784.292 92.998, 785.127 90.712, 785.512 87.916 L 786.211 82.833 792.208 92.666 C 795.506 98.075, 798.721 103.039, 799.352 103.698 C 800.757 105.164, 815.678 108.337, 817.636 107.586 C 818.843 107.123, 818.834 106.539, 817.574 103.523 C 816.293 100.457, 816.290 100, 817.551 100 C 819.766 100, 819.299 98.660, 815.971 95.472 C 814.305 93.876, 811.125 89.179, 808.904 85.035 C 806.683 80.891, 799.662 69.708, 793.301 60.184 C 784.231 46.603, 780.600 42.029, 776.471 38.979 C 771.370 35.210, 771.185 34.902, 770.505 29.045 L 769.804 23 761.152 23.015 C 756.393 23.024, 752.003 23.361, 751.395 23.765 M 581.435 49 C 581.435 63.025, 581.575 68.763, 581.747 61.750 C 581.919 54.738, 581.919 43.263, 581.747 36.250 C 581.575 29.238, 581.435 34.975, 581.435 49 M 750.975 27.565 C 749.454 31.566, 749.816 40.739, 751.635 44.300 C 752.534 46.060, 757.302 54.180, 762.230 62.344 C 767.157 70.509, 772.080 79.332, 773.169 81.952 C 774.598 85.392, 776.198 87.305, 778.926 88.839 C 781.004 90.006, 782.996 90.671, 783.352 90.314 C 783.709 89.958, 784 87.684, 784 85.260 C 784 78.520, 786.465 80.026, 792.935 90.721 C 796.002 95.792, 799.307 100.735, 800.278 101.706 C 801.620 103.049, 817 107.428, 817 106.468 C 817 106.363, 815.663 103.327, 814.028 99.722 C 810.750 92.492, 810.360 92.109, 783.559 69.781 C 765.224 54.505, 763.145 52.172, 764.742 48.668 C 765.341 47.353, 766.769 46.032, 767.915 45.732 C 770.605 45.029, 770.555 45.723, 767.750 48.029 C 765.639 49.765, 765.593 50.050, 767.016 52.649 C 767.849 54.172, 777.714 63.044, 788.938 72.363 L 809.344 89.307 805.519 82.404 C 798.933 70.514, 781.779 46.022, 777.548 42.465 C 768.797 35.109, 769 35.404, 769 30.036 L 769 25 760.475 25 C 752.245 25, 751.917 25.089, 750.975 27.565 M 847.996 28.512 C 847.448 29.952, 847 32.384, 847 33.916 C 847 37.139, 848.868 43, 849.895 43 C 850.964 43, 858 35.551, 858 34.420 C 858 33.872, 855.973 31.729, 853.496 29.658 L 848.991 25.893 847.996 28.512 M 620.035 28.934 C 617.934 32.861, 618.481 33, 636 33 C 653.846 33, 654.066 32.941, 652.393 28.582 C 651.876 27.234, 649.510 27, 636.428 27 C 622.268 27, 620.990 27.151, 620.035 28.934 M 876.533 30.966 L 872.610 34.984 875.492 37.992 C 877.077 39.646, 878.913 41, 879.570 41 C 881.709 41, 882.769 32.801, 881.158 28.724 C 880.550 27.188, 879.928 27.489, 876.533 30.966 M 191 29.500 C 191 30.325, 191.864 31, 192.921 31 C 194.241 31, 195.047 31.937, 195.500 34 C 196.301 37.647, 198 37.970, 198 34.475 C 198 32.686, 198.746 31.667, 200.560 30.977 C 201.968 30.442, 202.842 29.553, 202.501 29.002 C 201.585 27.519, 199.423 27.785, 197.948 29.563 C 196.771 30.981, 196.569 30.981, 195.775 29.563 C 194.659 27.568, 191 27.519, 191 29.500 M 312.755 31.750 C 311.899 32.712, 310.473 35.258, 309.585 37.407 C 308.237 40.669, 308.179 41.783, 309.230 44.157 C 309.922 45.721, 311.166 47.020, 311.994 47.044 C 312.822 47.069, 311.925 47.931, 310 48.960 C 308.075 49.989, 304.791 52.893, 302.703 55.412 L 298.906 59.994 294.963 56.345 C 292.794 54.339, 290.228 51.078, 289.260 49.099 C 287.555 45.612, 284.101 43.955, 284.887 47 C 285.100 47.825, 285.351 49.250, 285.445 50.167 C 285.540 51.083, 287.209 53.596, 289.155 55.750 C 291.101 57.904, 293.747 61.092, 295.035 62.833 C 296.323 64.575, 298.153 66, 299.103 66 C 300.053 66, 302.631 63.954, 304.833 61.453 C 309.294 56.385, 309 56.154, 311.016 66.316 C 312.016 71.361, 311.601 82, 310.404 82 C 310.179 82, 308.377 80.210, 306.401 78.022 C 304.424 75.834, 301.236 73.073, 299.316 71.887 L 295.826 69.729 293.821 71.735 C 291.858 73.698, 291.851 73.914, 293.493 81.965 C 295.121 89.946, 295.113 90.254, 293.234 92.345 C 292.169 93.530, 291.036 95.245, 290.717 96.156 C 290.397 97.066, 288.755 98.115, 287.068 98.485 C 285.252 98.884, 284 99.792, 284 100.710 C 284 101.956, 284.738 102.129, 287.750 101.587 C 293.470 100.557, 321.818 100.434, 327.750 101.412 C 331.587 102.045, 333 101.963, 333 101.108 C 333 100.464, 332.212 99.684, 331.250 99.375 C 330.288 99.066, 328.297 98.365, 326.828 97.817 L 324.156 96.822 324.328 82.993 C 324.422 75.388, 324.782 68.884, 325.126 68.540 C 325.471 68.196, 328.128 68.817, 331.032 69.920 C 333.935 71.023, 336.691 71.691, 337.155 71.404 C 338.817 70.377, 337.941 66.668, 334.101 58.476 C 330.218 50.188, 326.978 47, 322.439 47 C 321.136 47, 321.287 46.589, 323.139 45.088 C 326.212 42.600, 326.469 35.281, 323.595 32.105 C 321.181 29.438, 314.990 29.235, 312.755 31.750 M 754 31.500 C 754 32.325, 754.880 33, 755.955 33 C 757.396 33, 758.081 33.917, 758.564 36.491 C 759.288 40.351, 761 40.298, 761 36.416 C 761 34.691, 761.769 33.658, 763.560 32.977 C 764.968 32.442, 765.842 31.553, 765.501 31.002 C 764.585 29.519, 762.423 29.785, 760.948 31.563 C 759.771 32.981, 759.569 32.981, 758.775 31.563 C 757.659 29.568, 754 29.519, 754 31.500 M 313.937 32.861 L 311.500 34.845 314 35.802 C 315.375 36.328, 317.400 36.939, 318.500 37.159 C 320.089 37.477, 320.435 38.221, 320.186 40.780 C 319.962 43.077, 320.290 44, 321.329 44 C 323.046 44, 324 41.897, 324 38.109 C 324 32.337, 318.259 29.342, 313.937 32.861 M 619 37.024 L 619 40.047 636.250 39.774 L 653.500 39.500 653.816 36.750 L 654.133 34 636.566 34 L 619 34 619 37.024 M 312.750 37.717 C 314.775 38.413, 314.180 40, 311.893 40 C 310.383 40, 309.958 40.448, 310.393 41.582 C 310.727 42.452, 311 43.577, 311 44.082 C 311 44.587, 311.900 45, 313 45 C 316.418 45, 315.415 48.448, 311.596 49.829 C 309.723 50.506, 306.911 52.682, 305.346 54.664 C 303.781 56.647, 301.736 59.221, 300.803 60.384 L 299.106 62.500 294.875 58.500 L 290.643 54.500 293.978 58.841 C 295.812 61.229, 297.989 63.442, 298.816 63.760 C 299.799 64.137, 301.971 62.459, 305.086 58.918 C 310.460 52.809, 310.075 52.488, 312.383 65 C 313.566 71.408, 313.703 74.578, 312.941 77.882 C 312.385 80.292, 312.116 82.450, 312.344 82.677 C 312.571 82.904, 314.781 82.580, 317.254 81.958 C 321.612 80.860, 321.772 80.683, 322.376 76.273 C 323.562 67.622, 323.278 66.293, 320 65.150 C 318.350 64.575, 317 63.461, 317 62.674 C 317 61.888, 316.325 60.685, 315.500 60 C 314.675 59.315, 314 58.360, 314 57.878 C 314 56.002, 317.080 57.146, 320.173 60.169 L 323.415 63.338 324.203 60.295 C 324.637 58.621, 325.639 56.715, 326.429 56.059 C 328.063 54.702, 329.719 56.676, 332.462 63.250 C 334.241 67.513, 334.250 67.509, 327.532 65.471 C 324.800 64.643, 323 64.367, 323.532 64.859 C 325.290 66.483, 335.908 69.958, 336.447 69.086 C 337.231 67.818, 330.303 53.360, 327.790 51.019 C 326.598 49.908, 324.594 49, 323.337 49 C 320.583 49, 317.562 43.880, 318.384 40.607 C 318.781 39.026, 318.460 38.396, 317.215 38.311 C 316.272 38.247, 314.600 37.990, 313.500 37.741 C 312.400 37.491, 312.063 37.480, 312.750 37.717 M 620 42.809 C 620 43.254, 620.566 44.392, 621.258 45.339 C 622.362 46.848, 624.219 47.025, 636.388 46.780 C 649.510 46.515, 650.340 46.378, 651.752 44.250 L 653.244 42 636.622 42 C 627.480 42, 620 42.364, 620 42.809 M 861.683 45.813 C 859.635 47.910, 858.268 49.935, 858.646 50.313 C 859.694 51.361, 867.524 51.132, 870.596 49.964 L 873.322 48.927 869.965 45.464 C 868.118 43.559, 866.337 42, 866.007 42 C 865.676 42, 863.730 43.716, 861.683 45.813 M 150.500 44.802 C 143.524 47.226, 136.803 52.116, 128.559 60.766 C 124.677 64.841, 118.906 69.778, 115.735 71.739 L 109.970 75.303 112.497 77.901 C 113.887 79.331, 115.603 81.326, 116.311 82.335 C 117.547 84.099, 117.748 84.081, 121.468 81.887 C 124.426 80.141, 127.516 79.460, 134.578 78.995 C 142.346 78.484, 144.469 77.956, 147.910 75.678 C 155.800 70.457, 161.232 60.388, 162.645 48.362 L 163.275 43 159.388 43.033 C 157.249 43.051, 153.250 43.847, 150.500 44.802 M 155.762 47.270 C 149.765 50.093, 141.858 56.739, 135.750 64.091 C 133.137 67.236, 131 70.020, 131 70.279 C 131 70.538, 132.350 71.020, 134 71.350 C 138.619 72.274, 137.552 73.558, 132.500 73.157 C 130.025 72.960, 128 72.406, 128 71.926 C 128 69.891, 141.074 55.241, 146.842 50.814 C 150.291 48.166, 152.499 46, 151.748 46 C 148.619 46, 137.879 53.746, 129 62.405 C 123.775 67.501, 118.078 72.492, 116.340 73.497 L 113.180 75.325 115.337 78.412 C 116.523 80.111, 117.551 81.631, 117.621 81.791 C 117.691 81.950, 119.395 81.109, 121.408 79.922 C 124.093 78.338, 127.576 77.573, 134.479 77.050 C 145.659 76.205, 149.904 73.963, 154.753 66.345 C 158.206 60.921, 161.300 51.321, 160.818 47.531 L 160.500 45.039 155.762 47.270 M 625 49.474 C 625 50.891, 631.579 53, 636 53 C 640.421 53, 647 50.891, 647 49.474 C 647 49.213, 642.050 49, 636 49 C 629.950 49, 625 49.213, 625 49.474 M 379 51.356 C 379 53.567, 385.445 61.343, 389.749 64.326 C 399.530 71.104, 413.243 73.886, 425.390 71.556 C 435.204 69.674, 441.151 66.852, 447.199 61.207 L 451.898 56.821 453.397 60.408 C 455.134 64.564, 459.238 66.967, 461.828 65.344 C 465.399 63.106, 463.958 55.685, 459.230 51.966 C 456.842 50.088, 454.993 50, 417.865 50 C 385.817 50, 379 50.238, 379 51.356 M 381 52.522 C 381 53.716, 389.763 62.446, 393 64.476 C 405.214 72.137, 424.747 72.761, 438.160 65.918 C 442.467 63.721, 452 54.856, 452 53.048 C 452 52.337, 440.576 52, 416.500 52 C 396.975 52, 381 52.235, 381 52.522 M 454 54.953 C 454 60.284, 458.335 66.147, 461.041 64.475 C 463.515 62.946, 460.777 53.896, 457.455 52.621 C 454.605 51.527, 454 51.936, 454 54.953 M 699.384 56.442 C 698.477 58.805, 699.403 61.454, 701.261 61.812 C 702.651 62.079, 703 61.429, 703 58.573 C 703 56.031, 702.558 55, 701.469 55 C 700.626 55, 699.688 55.649, 699.384 56.442 M 326.657 58.452 C 325.352 61.852, 325.959 63.759, 328.500 64.245 C 331.443 64.807, 331.480 64.558, 329.115 60.120 C 327.648 57.366, 327.192 57.057, 326.657 58.452 M 886 79.500 C 886 91.833, 886.368 99, 887 99 C 887.632 99, 888 91.833, 888 79.500 C 888 67.167, 887.632 60, 887 60 C 886.368 60, 886 67.167, 886 79.500 M 199.522 74.750 C 199.916 80.662, 200.297 85.560, 200.369 85.633 C 200.441 85.706, 201.907 86.067, 203.626 86.435 C 207.515 87.268, 210.395 84.890, 209.430 81.645 C 208.663 79.066, 200.021 64, 199.309 64 C 199.033 64, 199.129 68.838, 199.522 74.750 M 762.556 76.500 C 762.914 82.550, 763.329 87.632, 763.479 87.793 C 763.629 87.954, 765.339 88.343, 767.279 88.658 C 770.175 89.128, 771.007 88.855, 771.928 87.135 C 772.851 85.410, 772.523 84.020, 770.077 79.270 C 768.442 76.096, 765.935 71.700, 764.505 69.500 L 761.905 65.500 762.556 76.500 M 352 84.500 C 352 94.833, 352.374 101, 353 101 C 353.626 101, 354 94.833, 354 84.500 C 354 74.167, 353.626 68, 353 68 C 352.374 68, 352 74.167, 352 84.500 M 294.435 73.104 C 294.060 73.712, 294.325 77.551, 295.023 81.636 C 296.581 90.745, 298.595 92.939, 297.553 84.393 C 297.158 81.152, 296.794 77.037, 296.743 75.250 C 296.649 71.968, 295.690 71.075, 294.435 73.104 M 66.495 75.250 C 66.932 77.093, 62.941 90.281, 59.534 98.250 C 58.872 99.799, 59.437 100, 64.448 100 L 70.110 100 72.528 94.534 C 77.100 84.195, 77 81.154, 71.923 76.077 C 68.217 72.370, 65.723 71.990, 66.495 75.250 M 297.641 74.494 C 297.333 75.295, 297.738 77.523, 298.541 79.443 C 299.343 81.364, 300 84.075, 300 85.468 C 300 86.861, 300.216 88, 300.480 88 C 301.596 88, 309 84.736, 309 84.244 C 309 83.166, 301.814 74.971, 300.032 74.017 C 298.678 73.292, 298.054 73.417, 297.641 74.494 M 854.145 80.070 C 847.074 82.902, 842 89.750, 842 96.460 L 842 100 862 100 C 874.667 100, 882 99.633, 882 99 C 882 98.450, 881.608 98, 881.128 98 C 880.648 98, 879.967 96.194, 879.614 93.988 C 878.857 89.256, 873.149 82.384, 868.282 80.347 C 864.615 78.812, 857.628 78.675, 854.145 80.070 M 851.971 83.093 C 847.830 85.496, 844.481 90.184, 843.645 94.750 L 843.050 98 860.525 98 L 878 98 878 95.148 C 878 91.542, 874.449 86.219, 870.078 83.274 C 865.593 80.251, 857.017 80.166, 851.971 83.093 M 314.413 84.413 C 308.712 86.198, 296 92.144, 296 93.026 C 296 95.152, 298.726 95.785, 303.340 94.729 C 306.906 93.913, 309.602 93.923, 313.623 94.766 C 316.620 95.395, 319.735 95.655, 320.545 95.344 C 322.504 94.593, 323.371 90.793, 322.565 86.493 C 321.833 82.595, 320.945 82.368, 314.413 84.413 M 614.500 84.577 C 607.977 86.004, 595 91.228, 595 92.427 C 595 93.521, 603.115 97.041, 610.677 99.228 C 617.554 101.217, 620.737 101.490, 637 101.481 C 651.859 101.473, 656.878 101.104, 662.500 99.606 C 669.998 97.608, 679 93.517, 679 92.106 C 679 91.097, 671.799 87.913, 664 85.474 C 656.113 83.008, 624.309 82.431, 614.500 84.577 M 623.689 85.021 C 614.531 85.875, 602.865 88.909, 599.629 91.279 C 597.896 92.549, 598.117 92.803, 602.629 94.739 C 611.199 98.413, 621.820 100.001, 637.708 99.983 C 653.466 99.964, 662.607 98.588, 671.877 94.839 L 677.254 92.665 672.825 90.414 C 663.753 85.803, 641.502 83.361, 623.689 85.021 M 208.664 87.498 C 207.557 88.311, 205.519 88.634, 203.531 88.311 C 200.313 87.789, 200.194 87.900, 198.498 93.005 C 196.465 99.127, 196.759 99.504, 204.379 100.552 C 208.527 101.123, 209.574 100.936, 210.677 99.427 C 212.057 97.539, 212.353 90.717, 211.180 87.824 C 210.596 86.385, 210.241 86.339, 208.664 87.498 M 771 89.999 C 770.175 90.531, 768.102 90.711, 766.393 90.399 C 763.403 89.852, 763.224 90.020, 761.643 94.853 C 760.739 97.616, 760 100.278, 760 100.771 C 760 101.807, 770.906 103.973, 772.685 103.291 C 774.396 102.634, 775.279 97.610, 774.496 92.978 C 773.786 88.774, 773.403 88.448, 771 89.999 M 495.320 96 C 495.320 99.575, 495.502 101.037, 495.723 99.250 C 495.945 97.463, 495.945 94.537, 495.723 92.750 C 495.502 90.963, 495.320 92.425, 495.320 96 M 529.320 96 C 529.320 99.575, 529.502 101.037, 529.723 99.250 C 529.945 97.463, 529.945 94.537, 529.723 92.750 C 529.502 90.963, 529.320 92.425, 529.320 96 M 25 95.941 C 25 98.173, 25.450 100, 26 100 C 26.550 100, 27 98.452, 27 96.559 C 27 94.666, 26.550 92.840, 26 92.500 C 25.396 92.127, 25 93.490, 25 95.941 M 292.556 94.910 C 292.247 95.410, 292.277 96.557, 292.622 97.459 C 293.173 98.893, 295.073 99.060, 307.876 98.799 C 315.919 98.634, 323.625 98.854, 325 99.287 L 327.500 100.073 324.901 98.584 C 321.422 96.590, 305.180 95.393, 301.066 96.827 C 298.356 97.772, 297.682 97.651, 296.236 95.963 C 294.389 93.806, 293.411 93.526, 292.556 94.910" stroke="none" fill="#2f2f2f" fill-rule="evenodd"/><path d="M -0 64.001 L -0 128.002 455.250 127.751 L 910.500 127.500 910.757 63.750 L 911.015 0 455.507 0 L 0 0 -0 64.001 M 0.471 64.500 C 0.471 99.700, 0.597 113.955, 0.750 96.178 C 0.903 78.400, 0.903 49.600, 0.749 32.178 C 0.596 14.755, 0.471 29.300, 0.471 64.500 M 857 16.121 C 850.445 18.727, 845.714 26.006, 845.714 33.486 C 845.714 44.185, 853.387 52.387, 863.309 52.295 C 871.121 52.223, 876.530 51.299, 876.250 50.085 C 875.980 48.915, 879.484 45, 880.800 45 C 881.240 45, 882.152 42.324, 882.828 39.054 C 884.545 30.741, 883.051 25.182, 877.832 20.467 C 875.667 18.511, 872.765 16.481, 871.383 15.955 C 868.181 14.738, 860.248 14.829, 857 16.121 M 860.074 16.834 C 856.378 17.933, 856.595 19.186, 861.279 23.783 L 865.580 28.004 869.904 23.598 C 873.985 19.439, 874.116 19.133, 872.239 18.128 C 869.491 16.657, 862.994 15.966, 860.074 16.834 M 13.993 17.250 C 13.989 17.387, 12.669 29.363, 11.060 43.862 L 8.135 70.224 16.159 78.035 L 24.183 85.846 23.853 93.673 C 23.538 101.132, 23.628 101.515, 25.761 101.820 C 27.924 102.128, 28 101.859, 28 93.925 C 28 77.064, 25.824 31.358, 24.841 27.560 C 23.743 23.320, 18.212 17, 15.600 17 C 14.720 17, 13.997 17.113, 13.993 17.250 M 47.246 19.922 C 45.487 21.529, 43.249 23.035, 42.274 23.267 C 40.665 23.651, 40.686 23.766, 42.500 24.497 C 46.864 26.258, 48 28.141, 48 33.614 C 48 38.266, 49.056 41.045, 56.590 56.209 C 66.474 76.106, 66.431 75.741, 60.669 90.719 L 57.291 99.500 50.645 99.796 C 46.990 99.958, 44 100.521, 44 101.046 C 44 101.615, 51.059 102, 61.500 102 C 71.750 102, 79 101.611, 79 101.060 C 79 100.544, 77.481 99.981, 75.625 99.810 L 72.251 99.500 75.108 92.500 C 77.920 85.612, 78.156 81.227, 75.867 78.376 C 75.218 77.568, 77.327 77.129, 83.376 76.811 C 91.524 76.384, 97 74.441, 97 71.979 C 97 71.443, 95.398 69.316, 93.439 67.252 C 91.480 65.189, 87.854 60.177, 85.379 56.116 C 80.469 48.057, 74.530 40.560, 68.869 35.275 C 66.286 32.864, 65.049 30.708, 64.586 27.809 C 64.149 25.077, 62.824 22.624, 60.567 20.367 C 56.146 15.946, 51.760 15.799, 47.246 19.922 M 312.941 18.571 C 312.021 19.679, 308.751 20, 298.378 20 C 290.126 20, 285 20.383, 285 21 C 285 21.617, 290.167 22, 298.500 22 C 305.925 22, 312 22.378, 312 22.839 C 312 25.794, 324.474 26.440, 326.555 23.594 C 327.519 22.275, 329.990 22, 340.860 22 C 348.953 22, 354 21.616, 354 21 C 354 20.383, 348.874 20, 340.622 20 C 330.249 20, 326.979 19.679, 326.059 18.571 C 325.301 17.658, 322.937 17.143, 319.500 17.143 C 316.063 17.143, 313.699 17.658, 312.941 18.571 M 569.571 18.571 C 568.187 19.956, 568.027 24.975, 568.228 60.821 L 568.455 101.500 569.006 61 C 569.309 38.725, 569.657 20.403, 569.778 20.285 C 569.900 20.167, 570.867 19.606, 571.928 19.039 C 574.531 17.646, 576.928 18.728, 578.234 21.886 C 579.140 24.077, 579.384 24.205, 579.745 22.676 C 580.796 18.219, 573.049 15.094, 569.571 18.571 M 628.500 18.400 C 621.671 21.410, 617 28.621, 617 36.152 C 617 50.321, 632.802 59.586, 645 52.569 C 647.475 51.146, 650.295 49.706, 651.266 49.370 C 652.237 49.033, 652.937 48.250, 652.820 47.629 C 652.520 46.031, 653.990 42, 654.873 42 C 656.103 42, 655.195 31.709, 653.635 27.987 C 649.900 19.070, 637.613 14.384, 628.500 18.400 M 703 34 C 703 43.350, 702.680 51, 702.288 51 C 701.896 51, 699.646 49.106, 697.288 46.792 C 694.930 44.477, 693 43.036, 693 43.589 C 693 44.142, 694.794 46.345, 696.986 48.486 L 700.971 52.378 698.928 54.282 C 696.264 56.764, 696.703 61.150, 699.750 62.487 C 702.933 63.884, 702.600 64.994, 697.500 70 C 695.025 72.429, 693 74.868, 693 75.421 C 693 75.973, 695.250 74.209, 698 71.500 L 703 66.575 703 84.288 L 703 102 708.500 102 L 714 102 714 59.500 L 714 17 708.500 17 L 703 17 703 34 M 51.500 18.955 C 50.400 19.400, 48.663 20.695, 47.639 21.833 C 45.821 23.855, 45.827 23.964, 47.889 26.586 C 49.373 28.473, 50 30.700, 50 34.086 C 50 38.076, 51.326 41.586, 57.732 54.552 C 65.301 69.871, 65.570 70.257, 70.482 72.814 C 74.639 74.978, 76.707 75.399, 82.534 75.270 C 89.873 75.108, 95 73.774, 95 72.026 C 95 71.463, 93.306 69.257, 91.235 67.123 C 89.165 64.990, 85.715 60.041, 83.570 56.127 C 81.424 52.212, 78.820 48.242, 77.784 47.304 C 76.007 45.697, 75.712 45.701, 72.604 47.374 C 69.453 49.071, 69.328 49.359, 69.769 53.945 C 70.392 60.429, 68.791 61.179, 64.102 56.599 C 60.611 53.190, 56.984 45.630, 56.995 41.785 C 57 40.122, 59.769 38, 61.934 38 C 63.794 38, 63.082 39.745, 61 40.290 C 58.573 40.924, 58.451 43.422, 60.593 48.628 C 62.330 52.849, 66.856 58.207, 68.058 57.464 C 68.471 57.209, 68.565 55.172, 68.265 52.939 C 67.772 49.262, 68.033 48.618, 71.030 46.116 L 74.340 43.353 68.670 37.185 C 64.413 32.555, 63 30.271, 63 28.024 C 63 26.138, 61.983 23.945, 60.250 22.094 C 57.126 18.757, 54.403 17.780, 51.500 18.955 M 314.347 19.508 C 312.620 20.789, 312.609 20.988, 314.172 22.576 C 316.195 24.629, 319 23.794, 319 21.138 C 319 18.608, 316.663 17.789, 314.347 19.508 M 321.250 18.718 C 319.496 19.347, 319.688 22.943, 321.513 23.643 C 323.053 24.234, 326 22.441, 326 20.913 C 326 19.703, 322.725 18.190, 321.250 18.718 M 630.591 19.481 C 628.441 20.247, 625.753 21.802, 624.619 22.937 L 622.556 25 635.778 25 C 643.050 25, 648.986 24.663, 648.969 24.250 C 648.912 22.903, 644.476 20.226, 640.446 19.107 C 635.586 17.757, 635.409 17.764, 630.591 19.481 M 704.714 18.619 C 704.321 19.012, 704 37.483, 704 59.667 L 704 100 708.511 100 L 713.022 100 712.761 59.250 L 712.500 18.500 708.964 18.202 C 707.020 18.039, 705.107 18.226, 704.714 18.619 M 12.655 44.421 L 9.875 69.842 17.688 77.349 C 24.198 83.604, 25.555 84.521, 25.830 82.846 C 26.462 79.002, 24.039 30.479, 23.047 27.090 C 21.987 23.471, 18.392 19, 16.543 19 C 15.833 19, 14.434 28.151, 12.655 44.421 M 482.612 22.750 C 482.302 24.813, 480.887 36.749, 479.468 49.276 L 476.889 72.051 484.944 79.630 L 493 87.208 493 95.604 C 493 103.893, 493.032 104, 495.500 104 C 497.729 104, 497.996 103.594, 497.960 100.250 C 497.841 89.206, 494.941 31.086, 494.389 28.684 C 493.548 25.027, 487.842 19, 485.220 19 C 483.625 19, 483.052 19.824, 482.612 22.750 M 516.612 22.750 C 516.302 24.813, 514.887 36.749, 513.468 49.276 L 510.889 72.051 518.944 79.630 L 527 87.208 527 95.604 C 527 103.893, 527.032 104, 529.500 104 C 531.729 104, 531.996 103.594, 531.960 100.250 C 531.841 89.206, 528.941 31.086, 528.389 28.684 C 527.548 25.027, 521.842 19, 519.220 19 C 517.625 19, 517.052 19.824, 516.612 22.750 M 852.028 21.470 L 849.663 23.988 855.502 29.294 L 861.341 34.601 856.124 39.481 L 850.907 44.361 853.523 46.931 L 856.139 49.500 860.482 44.750 C 862.870 42.138, 865.223 40, 865.709 40 C 866.196 40, 868.348 41.796, 870.492 43.991 L 874.389 47.983 876.714 45.799 L 879.039 43.615 874.809 39.305 L 870.579 34.996 875.287 30.216 C 879.781 25.654, 879.924 25.336, 878.440 23.218 C 876.182 19.995, 874.662 20.441, 870.048 25.682 L 865.927 30.365 860.160 24.658 L 854.394 18.952 852.028 21.470 M 186.824 23.714 C 186.189 25.246, 185.631 29.446, 185.585 33.047 C 185.504 39.316, 185.765 40.055, 191.750 50.463 L 198 61.332 198 75.488 C 198 85.689, 197.564 90.923, 196.440 94.222 L 194.880 98.800 186.490 99.150 C 181.875 99.342, 177.629 99.971, 177.053 100.546 C 176.326 101.274, 178.951 101.463, 185.688 101.169 C 191.012 100.936, 198.400 101.287, 202.106 101.950 C 211.911 103.702, 213 102.894, 213 93.866 L 213 86.802 216.557 88.901 C 218.514 90.056, 220.475 91, 220.917 91 C 221.358 91, 222.120 88.649, 222.609 85.775 L 223.500 80.550 229.149 90.028 C 232.256 95.242, 235.681 100.306, 236.761 101.283 C 237.840 102.260, 241.148 103.457, 244.112 103.942 C 247.075 104.428, 250.688 105.126, 252.141 105.493 C 255.428 106.326, 256.383 104.935, 254.845 101.558 C 253.850 99.376, 253.937 98.766, 255.393 97.702 C 256.969 96.549, 256.766 96.118, 253.099 92.826 C 250.886 90.839, 247.834 86.578, 246.316 83.357 C 243.473 77.323, 222.522 45.336, 218.667 41.144 C 217.475 39.848, 214.610 37.479, 212.299 35.880 C 208.284 33.100, 208.086 32.720, 207.799 27.236 L 207.500 21.500 197.739 21.214 L 187.978 20.927 186.824 23.714 M 481.542 46.563 L 478.736 72.127 481.118 73.763 C 482.428 74.662, 486.365 78.121, 489.867 81.449 L 496.235 87.500 495.648 82.500 C 495.325 79.750, 494.765 67.600, 494.404 55.500 C 494.007 42.245, 493.228 31.773, 492.442 29.155 C 490.950 24.181, 488.444 21, 486.019 21 C 484.573 21, 483.967 24.461, 481.542 46.563 M 515.542 46.563 L 512.736 72.127 515.118 73.763 C 516.428 74.662, 520.365 78.121, 523.867 81.449 L 530.235 87.500 529.648 82.500 C 529.325 79.750, 528.765 67.600, 528.404 55.500 C 528.007 42.245, 527.228 31.773, 526.442 29.155 C 524.950 24.181, 522.444 21, 520.019 21 C 518.573 21, 517.967 24.461, 515.542 46.563 M 196.208 22.743 C 189.345 23.069, 188.855 23.248, 187.872 25.795 C 187.297 27.283, 186.994 31.200, 187.199 34.500 C 187.541 40.036, 188.324 41.754, 197.326 56.718 C 202.691 65.638, 208.231 75.446, 209.636 78.515 C 211.443 82.462, 213.327 84.813, 216.075 86.547 C 218.212 87.896, 220.194 89, 220.480 89 C 220.766 89, 221 86.777, 221 84.059 C 221 75.203, 222.476 76.053, 230.883 89.745 C 234.343 95.379, 237.645 100.280, 238.221 100.636 C 239.596 101.487, 253.252 104.081, 253.747 103.586 C 253.958 103.376, 252.638 100.281, 250.815 96.709 C 247.263 89.752, 245.509 88.085, 217.746 65.290 C 201.168 51.679, 198.255 47.075, 204.203 43.891 C 207.142 42.319, 207.628 43.671, 204.915 45.868 C 202.722 47.643, 202.652 47.982, 203.973 50.449 C 205.140 52.630, 236.640 79.609, 244.313 85 C 247.438 87.196, 242.203 78.190, 228.761 58.247 C 220.201 45.547, 216.571 41.056, 212.153 37.703 C 206.556 33.456, 206.497 33.356, 206.200 27.706 C 206.003 23.957, 205.489 22.068, 204.700 22.199 C 204.040 22.308, 200.219 22.553, 196.208 22.743 M 751.395 23.765 C 749.396 25.094, 747.763 32.129, 748.208 37.493 C 748.557 41.699, 749.877 44.855, 754.748 53.131 L 760.851 63.500 760.965 77.374 C 761.048 87.589, 760.662 92.501, 759.501 95.998 L 757.923 100.747 750.192 101.195 C 745.940 101.441, 741.592 102.129, 740.530 102.723 C 739.083 103.533, 740.803 103.666, 747.392 103.255 C 752.568 102.932, 759.628 103.242, 764.553 104.008 C 775.360 105.689, 776 105.235, 776 95.892 L 776 89.029 779.250 91.011 C 781.038 92.101, 783.020 92.994, 783.656 92.996 C 784.292 92.998, 785.127 90.712, 785.512 87.916 L 786.211 82.833 792.208 92.666 C 795.506 98.075, 798.721 103.039, 799.352 103.698 C 800.757 105.164, 815.678 108.337, 817.636 107.586 C 818.843 107.123, 818.834 106.539, 817.574 103.523 C 816.293 100.457, 816.290 100, 817.551 100 C 819.766 100, 819.299 98.660, 815.971 95.472 C 814.305 93.876, 811.125 89.179, 808.904 85.035 C 806.683 80.891, 799.662 69.708, 793.301 60.184 C 784.231 46.603, 780.600 42.029, 776.471 38.979 C 771.370 35.210, 771.185 34.902, 770.505 29.045 L 769.804 23 761.152 23.015 C 756.393 23.024, 752.003 23.361, 751.395 23.765 M 581.435 49 C 581.435 63.025, 581.575 68.763, 581.747 61.750 C 581.919 54.738, 581.919 43.263, 581.747 36.250 C 581.575 29.238, 581.435 34.975, 581.435 49 M 750.975 27.565 C 749.454 31.566, 749.816 40.739, 751.635 44.300 C 752.534 46.060, 757.302 54.180, 762.230 62.344 C 767.157 70.509, 772.080 79.332, 773.169 81.952 C 774.598 85.392, 776.198 87.305, 778.926 88.839 C 781.004 90.006, 782.996 90.671, 783.352 90.314 C 783.709 89.958, 784 87.684, 784 85.260 C 784 78.520, 786.465 80.026, 792.935 90.721 C 796.002 95.792, 799.307 100.735, 800.278 101.706 C 801.620 103.049, 817 107.428, 817 106.468 C 817 106.363, 815.663 103.327, 814.028 99.722 C 810.750 92.492, 810.360 92.109, 783.559 69.781 C 765.224 54.505, 763.145 52.172, 764.742 48.668 C 765.341 47.353, 766.769 46.032, 767.915 45.732 C 770.605 45.029, 770.555 45.723, 767.750 48.029 C 765.639 49.765, 765.593 50.050, 767.016 52.649 C 767.849 54.172, 777.714 63.044, 788.938 72.363 L 809.344 89.307 805.519 82.404 C 798.933 70.514, 781.779 46.022, 777.548 42.465 C 768.797 35.109, 769 35.404, 769 30.036 L 769 25 760.475 25 C 752.245 25, 751.917 25.089, 750.975 27.565 M 847.996 28.512 C 847.448 29.952, 847 32.384, 847 33.916 C 847 37.139, 848.868 43, 849.895 43 C 850.964 43, 858 35.551, 858 34.420 C 858 33.872, 855.973 31.729, 853.496 29.658 L 848.991 25.893 847.996 28.512 M 620.035 28.934 C 617.934 32.861, 618.481 33, 636 33 C 653.846 33, 654.066 32.941, 652.393 28.582 C 651.876 27.234, 649.510 27, 636.428 27 C 622.268 27, 620.990 27.151, 620.035 28.934 M 876.533 30.966 L 872.610 34.984 875.492 37.992 C 877.077 39.646, 878.913 41, 879.570 41 C 881.709 41, 882.769 32.801, 881.158 28.724 C 880.550 27.188, 879.928 27.489, 876.533 30.966 M 191 29.500 C 191 30.325, 191.864 31, 192.921 31 C 194.241 31, 195.047 31.937, 195.500 34 C 196.301 37.647, 198 37.970, 198 34.475 C 198 32.686, 198.746 31.667, 200.560 30.977 C 201.968 30.442, 202.842 29.553, 202.501 29.002 C 201.585 27.519, 199.423 27.785, 197.948 29.563 C 196.771 30.981, 196.569 30.981, 195.775 29.563 C 194.659 27.568, 191 27.519, 191 29.500 M 312.755 31.750 C 311.899 32.712, 310.473 35.258, 309.585 37.407 C 308.237 40.669, 308.179 41.783, 309.230 44.157 C 309.922 45.721, 311.166 47.020, 311.994 47.044 C 312.822 47.069, 311.925 47.931, 310 48.960 C 308.075 49.989, 304.791 52.893, 302.703 55.412 L 298.906 59.994 294.963 56.345 C 292.794 54.339, 290.228 51.078, 289.260 49.099 C 287.555 45.612, 284.101 43.955, 284.887 47 C 285.100 47.825, 285.351 49.250, 285.445 50.167 C 285.540 51.083, 287.209 53.596, 289.155 55.750 C 291.101 57.904, 293.747 61.092, 295.035 62.833 C 296.323 64.575, 298.153 66, 299.103 66 C 300.053 66, 302.631 63.954, 304.833 61.453 C 309.294 56.385, 309 56.154, 311.016 66.316 C 312.016 71.361, 311.601 82, 310.404 82 C 310.179 82, 308.377 80.210, 306.401 78.022 C 304.424 75.834, 301.236 73.073, 299.316 71.887 L 295.826 69.729 293.821 71.735 C 291.858 73.698, 291.851 73.914, 293.493 81.965 C 295.121 89.946, 295.113 90.254, 293.234 92.345 C 292.169 93.530, 291.036 95.245, 290.717 96.156 C 290.397 97.066, 288.755 98.115, 287.068 98.485 C 285.252 98.884, 284 99.792, 284 100.710 C 284 101.956, 284.738 102.129, 287.750 101.587 C 293.470 100.557, 321.818 100.434, 327.750 101.412 C 331.587 102.045, 333 101.963, 333 101.108 C 333 100.464, 332.212 99.684, 331.250 99.375 C 330.288 99.066, 328.297 98.365, 326.828 97.817 L 324.156 96.822 324.328 82.993 C 324.422 75.388, 324.782 68.884, 325.126 68.540 C 325.471 68.196, 328.128 68.817, 331.032 69.920 C 333.935 71.023, 336.691 71.691, 337.155 71.404 C 338.817 70.377, 337.941 66.668, 334.101 58.476 C 330.218 50.188, 326.978 47, 322.439 47 C 321.136 47, 321.287 46.589, 323.139 45.088 C 326.212 42.600, 326.469 35.281, 323.595 32.105 C 321.181 29.438, 314.990 29.235, 312.755 31.750 M 754 31.500 C 754 32.325, 754.880 33, 755.955 33 C 757.396 33, 758.081 33.917, 758.564 36.491 C 759.288 40.351, 761 40.298, 761 36.416 C 761 34.691, 761.769 33.658, 763.560 32.977 C 764.968 32.442, 765.842 31.553, 765.501 31.002 C 764.585 29.519, 762.423 29.785, 760.948 31.563 C 759.771 32.981, 759.569 32.981, 758.775 31.563 C 757.659 29.568, 754 29.519, 754 31.500 M 313.937 32.861 L 311.500 34.845 314 35.802 C 315.375 36.328, 317.400 36.939, 318.500 37.159 C 320.089 37.477, 320.435 38.221, 320.186 40.780 C 319.962 43.077, 320.290 44, 321.329 44 C 323.046 44, 324 41.897, 324 38.109 C 324 32.337, 318.259 29.342, 313.937 32.861 M 619 37.024 L 619 40.047 636.250 39.774 L 653.500 39.500 653.816 36.750 L 654.133 34 636.566 34 L 619 34 619 37.024 M 312.750 37.717 C 314.775 38.413, 314.180 40, 311.893 40 C 310.383 40, 309.958 40.448, 310.393 41.582 C 310.727 42.452, 311 43.577, 311 44.082 C 311 44.587, 311.900 45, 313 45 C 316.418 45, 315.415 48.448, 311.596 49.829 C 309.723 50.506, 306.911 52.682, 305.346 54.664 C 303.781 56.647, 301.736 59.221, 300.803 60.384 L 299.106 62.500 294.875 58.500 L 290.643 54.500 293.978 58.841 C 295.812 61.229, 297.989 63.442, 298.816 63.760 C 299.799 64.137, 301.971 62.459, 305.086 58.918 C 310.460 52.809, 310.075 52.488, 312.383 65 C 313.566 71.408, 313.703 74.578, 312.941 77.882 C 312.385 80.292, 312.116 82.450, 312.344 82.677 C 312.571 82.904, 314.781 82.580, 317.254 81.958 C 321.612 80.860, 321.772 80.683, 322.376 76.273 C 323.562 67.622, 323.278 66.293, 320 65.150 C 318.350 64.575, 317 63.461, 317 62.674 C 317 61.888, 316.325 60.685, 315.500 60 C 314.675 59.315, 314 58.360, 314 57.878 C 314 56.002, 317.080 57.146, 320.173 60.169 L 323.415 63.338 324.203 60.295 C 324.637 58.621, 325.639 56.715, 326.429 56.059 C 328.063 54.702, 329.719 56.676, 332.462 63.250 C 334.241 67.513, 334.250 67.509, 327.532 65.471 C 324.800 64.643, 323 64.367, 323.532 64.859 C 325.290 66.483, 335.908 69.958, 336.447 69.086 C 337.231 67.818, 330.303 53.360, 327.790 51.019 C 326.598 49.908, 324.594 49, 323.337 49 C 320.583 49, 317.562 43.880, 318.384 40.607 C 318.781 39.026, 318.460 38.396, 317.215 38.311 C 316.272 38.247, 314.600 37.990, 313.500 37.741 C 312.400 37.491, 312.063 37.480, 312.750 37.717 M 620 42.809 C 620 43.254, 620.566 44.392, 621.258 45.339 C 622.362 46.848, 624.219 47.025, 636.388 46.780 C 649.510 46.515, 650.340 46.378, 651.752 44.250 L 653.244 42 636.622 42 C 627.480 42, 620 42.364, 620 42.809 M 861.683 45.813 C 859.635 47.910, 858.268 49.935, 858.646 50.313 C 859.694 51.361, 867.524 51.132, 870.596 49.964 L 873.322 48.927 869.965 45.464 C 868.118 43.559, 866.337 42, 866.007 42 C 865.676 42, 863.730 43.716, 861.683 45.813 M 150.500 44.802 C 143.524 47.226, 136.803 52.116, 128.559 60.766 C 124.677 64.841, 118.906 69.778, 115.735 71.739 L 109.970 75.303 112.497 77.901 C 113.887 79.331, 115.603 81.326, 116.311 82.335 C 117.547 84.099, 117.748 84.081, 121.468 81.887 C 124.426 80.141, 127.516 79.460, 134.578 78.995 C 142.346 78.484, 144.469 77.956, 147.910 75.678 C 155.800 70.457, 161.232 60.388, 162.645 48.362 L 163.275 43 159.388 43.033 C 157.249 43.051, 153.250 43.847, 150.500 44.802 M 155.762 47.270 C 149.765 50.093, 141.858 56.739, 135.750 64.091 C 133.137 67.236, 131 70.020, 131 70.279 C 131 70.538, 132.350 71.020, 134 71.350 C 138.619 72.274, 137.552 73.558, 132.500 73.157 C 130.025 72.960, 128 72.406, 128 71.926 C 128 69.891, 141.074 55.241, 146.842 50.814 C 150.291 48.166, 152.499 46, 151.748 46 C 148.619 46, 137.879 53.746, 129 62.405 C 123.775 67.501, 118.078 72.492, 116.340 73.497 L 113.180 75.325 115.337 78.412 C 116.523 80.111, 117.551 81.631, 117.621 81.791 C 117.691 81.950, 119.395 81.109, 121.408 79.922 C 124.093 78.338, 127.576 77.573, 134.479 77.050 C 145.659 76.205, 149.904 73.963, 154.753 66.345 C 158.206 60.921, 161.300 51.321, 160.818 47.531 L 160.500 45.039 155.762 47.270 M 625 49.474 C 625 50.891, 631.579 53, 636 53 C 640.421 53, 647 50.891, 647 49.474 C 647 49.213, 642.050 49, 636 49 C 629.950 49, 625 49.213, 625 49.474 M 379 51.356 C 379 53.567, 385.445 61.343, 389.749 64.326 C 399.530 71.104, 413.243 73.886, 425.390 71.556 C 435.204 69.674, 441.151 66.852, 447.199 61.207 L 451.898 56.821 453.397 60.408 C 455.134 64.564, 459.238 66.967, 461.828 65.344 C 465.399 63.106, 463.958 55.685, 459.230 51.966 C 456.842 50.088, 454.993 50, 417.865 50 C 385.817 50, 379 50.238, 379 51.356 M 381 52.522 C 381 53.716, 389.763 62.446, 393 64.476 C 405.214 72.137, 424.747 72.761, 438.160 65.918 C 442.467 63.721, 452 54.856, 452 53.048 C 452 52.337, 440.576 52, 416.500 52 C 396.975 52, 381 52.235, 381 52.522 M 454 54.953 C 454 60.284, 458.335 66.147, 461.041 64.475 C 463.515 62.946, 460.777 53.896, 457.455 52.621 C 454.605 51.527, 454 51.936, 454 54.953 M 699.384 56.442 C 698.477 58.805, 699.403 61.454, 701.261 61.812 C 702.651 62.079, 703 61.429, 703 58.573 C 703 56.031, 702.558 55, 701.469 55 C 700.626 55, 699.688 55.649, 699.384 56.442 M 326.657 58.452 C 325.352 61.852, 325.959 63.759, 328.500 64.245 C 331.443 64.807, 331.480 64.558, 329.115 60.120 C 327.648 57.366, 327.192 57.057, 326.657 58.452 M 886 79.500 C 886 91.833, 886.368 99, 887 99 C 887.632 99, 888 91.833, 888 79.500 C 888 67.167, 887.632 60, 887 60 C 886.368 60, 886 67.167, 886 79.500 M 199.522 74.750 C 199.916 80.662, 200.297 85.560, 200.369 85.633 C 200.441 85.706, 201.907 86.067, 203.626 86.435 C 207.515 87.268, 210.395 84.890, 209.430 81.645 C 208.663 79.066, 200.021 64, 199.309 64 C 199.033 64, 199.129 68.838, 199.522 74.750 M 762.556 76.500 C 762.914 82.550, 763.329 87.632, 763.479 87.793 C 763.629 87.954, 765.339 88.343, 767.279 88.658 C 770.175 89.128, 771.007 88.855, 771.928 87.135 C 772.851 85.410, 772.523 84.020, 770.077 79.270 C 768.442 76.096, 765.935 71.700, 764.505 69.500 L 761.905 65.500 762.556 76.500 M 352 84.500 C 352 94.833, 352.374 101, 353 101 C 353.626 101, 354 94.833, 354 84.500 C 354 74.167, 353.626 68, 353 68 C 352.374 68, 352 74.167, 352 84.500 M 294.435 73.104 C 294.060 73.712, 294.325 77.551, 295.023 81.636 C 296.581 90.745, 298.595 92.939, 297.553 84.393 C 297.158 81.152, 296.794 77.037, 296.743 75.250 C 296.649 71.968, 295.690 71.075, 294.435 73.104 M 66.495 75.250 C 66.932 77.093, 62.941 90.281, 59.534 98.250 C 58.872 99.799, 59.437 100, 64.448 100 L 70.110 100 72.528 94.534 C 77.100 84.195, 77 81.154, 71.923 76.077 C 68.217 72.370, 65.723 71.990, 66.495 75.250 M 297.641 74.494 C 297.333 75.295, 297.738 77.523, 298.541 79.443 C 299.343 81.364, 300 84.075, 300 85.468 C 300 86.861, 300.216 88, 300.480 88 C 301.596 88, 309 84.736, 309 84.244 C 309 83.166, 301.814 74.971, 300.032 74.017 C 298.678 73.292, 298.054 73.417, 297.641 74.494 M 854.145 80.070 C 847.074 82.902, 842 89.750, 842 96.460 L 842 100 862 100 C 874.667 100, 882 99.633, 882 99 C 882 98.450, 881.608 98, 881.128 98 C 880.648 98, 879.967 96.194, 879.614 93.988 C 878.857 89.256, 873.149 82.384, 868.282 80.347 C 864.615 78.812, 857.628 78.675, 854.145 80.070 M 851.971 83.093 C 847.830 85.496, 844.481 90.184, 843.645 94.750 L 843.050 98 860.525 98 L 878 98 878 95.148 C 878 91.542, 874.449 86.219, 870.078 83.274 C 865.593 80.251, 857.017 80.166, 851.971 83.093 M 314.413 84.413 C 308.712 86.198, 296 92.144, 296 93.026 C 296 95.152, 298.726 95.785, 303.340 94.729 C 306.906 93.913, 309.602 93.923, 313.623 94.766 C 316.620 95.395, 319.735 95.655, 320.545 95.344 C 322.504 94.593, 323.371 90.793, 322.565 86.493 C 321.833 82.595, 320.945 82.368, 314.413 84.413 M 614.500 84.577 C 607.977 86.004, 595 91.228, 595 92.427 C 595 93.521, 603.115 97.041, 610.677 99.228 C 617.554 101.217, 620.737 101.490, 637 101.481 C 651.859 101.473, 656.878 101.104, 662.500 99.606 C 669.998 97.608, 679 93.517, 679 92.106 C 679 91.097, 671.799 87.913, 664 85.474 C 656.113 83.008, 624.309 82.431, 614.500 84.577 M 623.689 85.021 C 614.531 85.875, 602.865 88.909, 599.629 91.279 C 597.896 92.549, 598.117 92.803, 602.629 94.739 C 611.199 98.413, 621.820 100.001, 637.708 99.983 C 653.466 99.964, 662.607 98.588, 671.877 94.839 L 677.254 92.665 672.825 90.414 C 663.753 85.803, 641.502 83.361, 623.689 85.021 M 208.664 87.498 C 207.557 88.311, 205.519 88.634, 203.531 88.311 C 200.313 87.789, 200.194 87.900, 198.498 93.005 C 196.465 99.127, 196.759 99.504, 204.379 100.552 C 208.527 101.123, 209.574 100.936, 210.677 99.427 C 212.057 97.539, 212.353 90.717, 211.180 87.824 C 210.596 86.385, 210.241 86.339, 208.664 87.498 M 771 89.999 C 770.175 90.531, 768.102 90.711, 766.393 90.399 C 763.403 89.852, 763.224 90.020, 761.643 94.853 C 760.739 97.616, 760 100.278, 760 100.771 C 760 101.807, 770.906 103.973, 772.685 103.291 C 774.396 102.634, 775.279 97.610, 774.496 92.978 C 773.786 88.774, 773.403 88.448, 771 89.999 M 495.320 96 C 495.320 99.575, 495.502 101.037, 495.723 99.250 C 495.945 97.463, 495.945 94.537, 495.723 92.750 C 495.502 90.963, 495.320 92.425, 495.320 96 M 529.320 96 C 529.320 99.575, 529.502 101.037, 529.723 99.250 C 529.945 97.463, 529.945 94.537, 529.723 92.750 C 529.502 90.963, 529.320 92.425, 529.320 96 M 25 95.941 C 25 98.173, 25.450 100, 26 100 C 26.550 100, 27 98.452, 27 96.559 C 27 94.666, 26.550 92.840, 26 92.500 C 25.396 92.127, 25 93.490, 25 95.941 M 292.556 94.910 C 292.247 95.410, 292.277 96.557, 292.622 97.459 C 293.173 98.893, 295.073 99.060, 307.876 98.799 C 315.919 98.634, 323.625 98.854, 325 99.287 L 327.500 100.073 324.901 98.584 C 321.422 96.590, 305.180 95.393, 301.066 96.827 C 298.356 97.772, 297.682 97.651, 296.236 95.963 C 294.389 93.806, 293.411 93.526, 292.556 94.910" stroke="none" fill="#f9f9f9" fill-rule="evenodd"/></svg>