<svg xmlns="http://www.w3.org/2000/svg" width="622" height="83" viewBox="0 0 622 83" version="1.1"><path d="M 168.951 13.558 C 168.038 14.659, 165.066 15, 156.378 15 C 149.459 15, 145 15.392, 145 16 C 145 16.608, 149.459 17, 156.378 17 C 164.974 17, 168.043 17.346, 168.931 18.417 C 170.482 20.286, 178.518 20.286, 180.069 18.417 C 180.952 17.353, 183.958 17, 192.122 17 C 198.707 17, 203 16.605, 203 16 C 203 15.395, 198.733 15, 192.200 15 C 185.237 15, 180.981 14.581, 180.220 13.820 C 178.426 12.026, 170.379 11.839, 168.951 13.558 M 233.209 13.566 C 230.200 15.674, 226.980 22.206, 227.662 24.817 C 227.966 25.979, 229.791 27.859, 231.718 28.996 C 235.635 31.307, 235.624 30.222, 231.863 44.250 C 230.572 49.063, 229.288 52.986, 229.008 52.969 C 228.729 52.952, 226.945 50.875, 225.045 48.354 C 220.940 42.908, 217.770 41.116, 215.530 42.975 C 213.543 44.624, 213.599 46.126, 215.976 55.068 C 218.479 64.478, 218.488 64.267, 215.428 67.903 C 214.014 69.584, 213.144 71.423, 213.494 71.991 C 213.912 72.667, 219.015 72.818, 228.316 72.428 C 245.445 71.710, 245.450 71.709, 243.933 68.875 C 242.466 66.133, 244.585 48.609, 246.796 45.207 C 248.954 41.886, 247.927 24.884, 245.195 18.708 C 242.316 12.199, 237.879 10.295, 233.209 13.566 M 383.962 13.466 C 383.156 14.273, 380.697 15.830, 378.498 16.926 C 374.959 18.692, 374.787 18.930, 377 19.004 C 380.162 19.111, 388.665 21.332, 389.639 22.306 C 390.044 22.711, 388.557 24.945, 386.335 27.271 C 376.245 37.834, 376.356 39.442, 388 51.500 C 397.545 61.384, 398.271 63.039, 395.284 68.096 C 393.702 70.774, 393.115 71, 387.725 71 C 384.084 71, 382.115 71.377, 382.500 72 C 383.210 73.148, 392.959 73.338, 394.578 72.235 C 395.171 71.831, 396.746 69.156, 398.078 66.291 C 400.230 61.662, 400.848 61.077, 403.628 61.041 C 407.570 60.989, 409.225 62.948, 408.818 67.185 C 408.502 70.479, 408.463 70.502, 402.722 70.801 C 399.401 70.974, 397.194 71.505, 397.531 72.051 C 398.227 73.176, 407.974 73.304, 409.695 72.210 C 410.352 71.792, 411.027 69.324, 411.195 66.726 C 411.419 63.257, 411.912 62.001, 413.050 62.001 C 413.902 62, 415.027 61.618, 415.550 61.152 C 416.072 60.685, 420.100 60.630, 424.500 61.029 C 428.900 61.428, 432.641 61.631, 432.814 61.479 C 432.987 61.328, 431.075 60.179, 428.564 58.925 C 423.472 56.382, 422.745 55, 426.500 55 C 429.988 55, 429.618 53.627, 425.750 52.219 C 423.962 51.568, 420.025 48.974, 417 46.454 C 409.572 40.267, 404.872 37.920, 396.073 36.004 C 386.958 34.019, 385.408 32.276, 389.214 28.286 C 390.677 26.754, 392.372 24.180, 392.982 22.566 C 395.448 16.040, 388.449 8.979, 383.962 13.466 M 462.199 14.029 C 458.933 17.072, 456.757 21.895, 457.433 24.590 C 457.761 25.895, 459.372 27.658, 461.014 28.507 C 464.447 30.283, 464.713 32.175, 462.571 39.568 C 461.785 42.281, 460.631 46.454, 460.008 48.842 L 458.873 53.184 453.523 47.342 C 448.950 42.348, 447.907 41.660, 446.337 42.601 C 443.878 44.074, 443.545 48.730, 445.442 55.115 C 447.536 62.167, 447.405 65.215, 444.871 68.436 C 443.677 69.955, 443.128 71.503, 443.621 71.963 C 444.105 72.415, 451.137 72.545, 459.250 72.254 C 473.774 71.732, 475.772 71.172, 472.997 68.397 C 471.775 67.175, 474.362 47.238, 475.949 45.651 C 477.550 44.050, 477.223 27.114, 475.478 21.236 C 473.024 12.975, 466.899 9.650, 462.199 14.029 M 505.697 13.250 C 504.758 13.947, 503.733 16.566, 503.381 19.169 C 502.808 23.415, 503.170 24.610, 507.375 32.323 L 512 40.808 512 51.339 C 512 65.862, 511.539 66.821, 504.373 67.199 C 501.230 67.364, 498.513 67.950, 498.336 68.500 C 498.134 69.129, 502.508 69.500, 510.140 69.500 C 522.129 69.500, 522.276 69.472, 523.184 67.024 C 523.690 65.661, 523.832 63.467, 523.501 62.147 C 523.024 60.249, 523.223 59.878, 524.449 60.374 C 525.302 60.718, 526.652 61.264, 527.449 61.587 C 528.463 61.999, 529.154 61.185, 529.753 58.873 L 530.608 55.572 533.804 61.036 C 538.640 69.304, 539.549 70.182, 544.202 71.082 C 552.123 72.613, 552.632 72.441, 552.562 68.250 C 552.517 65.534, 551.742 63.754, 549.750 61.795 C 548.237 60.308, 547 58.462, 547 57.694 C 547 55.108, 527.332 26.355, 523.633 23.533 C 521.200 21.678, 520 19.954, 520 18.316 C 520 13.403, 518.369 12, 512.656 12 C 509.755 12, 506.624 12.563, 505.697 13.250 M 563.684 12.649 C 563.308 13.025, 563 18.883, 563 25.667 L 563 38 570.059 38 C 574.510 38, 576.890 37.631, 576.500 37 C 576.160 36.450, 573.434 36, 570.441 36 L 565 36 565 25 L 565 14 587.500 14 L 610 14 610 25 L 610 36 604 36 C 600.492 36, 598 36.434, 598 37.046 C 598 37.699, 600.532 37.980, 604.750 37.796 L 611.500 37.500 611.500 25 L 611.500 12.500 587.934 12.232 C 574.973 12.085, 564.061 12.273, 563.684 12.649 M 4.975 15.565 C 2.742 21.439, 4.565 28.142, 10.942 37.500 C 12.686 40.058, 12.988 42.074, 12.993 51.185 C 13.001 63.683, 12.090 67, 8.650 67 C 5.239 67, 0 68.136, 0 68.875 C 0 69.219, 3.262 69.500, 7.250 69.500 C 11.238 69.500, 16.075 69.830, 18 70.233 C 22.884 71.257, 24.286 70.020, 24.402 64.586 C 24.480 60.902, 24.800 60.104, 26 60.603 C 30.358 62.416, 30.854 62.248, 31.179 58.848 L 31.500 55.500 36.500 62.976 C 41.470 70.407, 41.536 70.460, 47.500 71.683 C 55.566 73.336, 55.328 73.390, 54.664 70.070 C 54.299 68.245, 54.521 66.993, 55.252 66.749 C 55.941 66.520, 55.299 65.377, 53.699 63.986 C 52.199 62.682, 49.354 58.664, 47.377 55.057 C 41.658 44.626, 28.040 26.042, 24.377 23.670 C 22.445 22.420, 21.014 20.653, 20.999 19.500 C 20.921 13.557, 20.224 13, 12.859 13 C 6.363 13, 5.892 13.153, 4.975 15.565 M 66.655 14.829 C 65.468 16.140, 65 18.518, 65 23.231 C 65 29.524, 65.117 29.841, 67.750 30.675 C 69.263 31.153, 82.504 31.384, 97.176 31.187 C 118.044 30.908, 123.961 30.544, 124.356 29.514 C 124.634 28.791, 124.602 24.779, 124.286 20.600 L 123.711 13 120.469 13 C 117.271 13, 117.210 13.089, 116 19.500 L 114.774 26 103.137 26.007 C 96.737 26.011, 88.463 26.301, 84.750 26.652 L 78 27.289 78 24.105 C 78 22.353, 77.091 19.138, 75.980 16.960 C 74.346 13.758, 73.419 13, 71.135 13 C 69.581 13, 67.565 13.823, 66.655 14.829 M 286.655 14.829 C 284.474 17.239, 284.567 19.232, 287.093 24.182 C 288.701 27.334, 288.950 28.773, 288.166 30.392 C 286.319 34.211, 286.260 35.459, 287.751 39.261 C 288.728 41.752, 288.899 43.441, 288.258 44.261 C 286.370 46.675, 286.205 50.066, 287.741 54.869 C 289.292 59.718, 289.287 59.747, 286.152 65.536 C 284.422 68.729, 283.231 71.564, 283.504 71.837 C 284.157 72.490, 284.242 72.376, 287.750 66.170 L 290.762 60.840 293.988 66.480 C 298.226 73.887, 299.210 72.748, 295.152 65.133 C 292.118 59.442, 292.059 59.102, 293.503 55.647 C 295.367 51.186, 295.370 47.073, 293.511 44.617 C 292.276 42.986, 292.280 42.359, 293.543 39.917 C 295.375 36.374, 295.372 34.238, 293.533 30.710 C 292.215 28.184, 292.263 27.617, 294.035 24.710 C 296.237 21.100, 296.607 16.007, 294.800 14.200 C 293.007 12.407, 288.534 12.752, 286.655 14.829 M 310.716 15.904 C 308.408 19.811, 308.599 21.061, 311.054 18.114 C 313.006 15.769, 313.078 15.761, 315.116 17.605 C 317.151 19.447, 317.224 19.441, 318.946 17.315 L 320.702 15.146 322.895 17.323 L 325.088 19.500 326.928 17.078 L 328.768 14.656 330.125 16.828 C 330.871 18.023, 331.940 19, 332.500 19 C 333.060 19, 334.129 18.023, 334.875 16.828 L 336.232 14.656 338.039 17.052 C 339.816 19.408, 339.882 19.416, 341.923 17.569 C 343.956 15.730, 344.045 15.730, 346.095 17.586 C 348.158 19.453, 348.219 19.448, 349.946 17.315 L 351.702 15.146 353.909 17.323 C 356.107 19.492, 356.121 19.492, 357.623 17.500 C 359.117 15.517, 359.146 15.520, 361.090 17.892 C 363.894 21.313, 364.651 19.722, 361.994 15.991 L 359.770 12.868 357.531 14.971 L 355.293 17.074 353.674 14.787 L 352.055 12.500 350.027 14.861 L 348 17.222 345.973 14.861 L 343.945 12.500 342.326 14.787 L 340.707 17.074 338.383 14.890 L 336.058 12.706 334.194 15.008 L 332.331 17.310 330.686 14.962 L 329.041 12.613 326.667 14.843 L 324.293 17.074 322.674 14.787 L 321.055 12.500 318.985 14.913 L 316.916 17.325 315.401 15.163 C 313.415 12.327, 312.768 12.429, 310.716 15.904 M 12.040 14.913 C 6.668 15.490, 6.566 15.561, 5.796 19.296 C 4.810 24.073, 5.831 26.572, 14.278 40.058 C 17.876 45.801, 21.597 52.144, 22.548 54.153 C 23.967 57.149, 27.380 60, 29.547 60 C 29.796 60, 30 58.425, 30 56.500 C 30 54.575, 30.459 53, 31.021 53 C 31.583 53, 34.319 56.586, 37.102 60.970 C 41.612 68.074, 42.561 69.007, 45.831 69.557 C 47.849 69.897, 50.288 70.391, 51.250 70.655 C 53.464 71.262, 53.444 70.902, 50.965 65.739 C 49.393 62.464, 45.303 58.595, 32.977 48.722 C 16.275 35.344, 13.720 32.140, 17.530 29.355 C 18.533 28.621, 19.611 28.278, 19.925 28.592 C 20.240 28.906, 19.645 29.786, 18.604 30.548 C 16.938 31.766, 16.878 32.170, 18.105 33.913 C 19.739 36.233, 45.978 57.356, 46.534 56.799 C 47.469 55.865, 27.737 28.234, 24.322 25.694 C 19.602 22.184, 19.034 21.281, 19.015 17.250 C 19.007 15.462, 18.663 14.073, 18.250 14.163 C 17.837 14.253, 15.043 14.590, 12.040 14.913 M 68.031 15.969 C 66.562 17.438, 66.233 18.789, 66.639 21.696 C 67.364 26.886, 67.770 28, 68.937 28 C 69.487 28, 69.678 27.325, 69.362 26.500 C 68.916 25.338, 69.598 25, 72.393 25 C 75.587 25, 76 24.710, 76 22.465 C 76 19.576, 73.588 15.439, 71.417 14.607 C 70.613 14.298, 69.089 14.911, 68.031 15.969 M 169.500 15 C 168.663 16.354, 169.792 18, 171.559 18 C 172.352 18, 173 17.100, 173 16 C 173 13.930, 170.587 13.240, 169.500 15 M 175 15.927 C 175 17.358, 175.642 18, 177.073 18 C 179.636 18, 179.345 14.690, 176.739 14.188 C 175.539 13.957, 175 14.496, 175 15.927 M 233.695 15.111 C 231.317 16.494, 233.223 19, 236.654 19 C 239.619 19, 240.564 21.158, 239.181 24.768 C 237.738 28.536, 236.600 43, 237.747 43 C 238.252 43, 239.078 40.862, 239.582 38.250 C 240.897 31.446, 243.399 31.742, 243.802 38.750 C 244.277 46.999, 246 44.882, 246 36.049 C 246 18.655, 241.313 10.679, 233.695 15.111 M 288.550 15.340 C 287.105 16.396, 286.859 17.433, 287.385 20.239 C 287.752 22.197, 288.765 24.390, 289.635 25.112 C 290.967 26.217, 291.436 26.124, 292.608 24.521 C 294.552 21.863, 294.428 15.378, 292.418 14.607 C 290.403 13.833, 290.683 13.780, 288.550 15.340 M 385.404 15.611 C 385.843 16.753, 385.592 17.057, 384.543 16.655 C 383.730 16.343, 382.825 16.474, 382.533 16.946 C 381.943 17.901, 387.224 20, 390.217 20 C 391.747 20, 391.993 19.545, 391.433 17.750 C 390.612 15.119, 389.223 14.037, 386.643 14.015 C 385.344 14.005, 384.972 14.484, 385.404 15.611 M 462.979 15.525 C 461.841 16.897, 461.854 17.295, 463.064 18.061 C 463.854 18.561, 465.232 18.976, 466.128 18.985 C 469.231 19.014, 470.281 21.555, 468.563 24.879 C 466.779 28.328, 466.293 43.555, 468 42.500 C 468.550 42.160, 469 40.094, 469 37.910 C 469 35.252, 469.511 33.741, 470.543 33.345 C 472.768 32.491, 473.370 33.486, 474.155 39.311 C 474.623 42.781, 474.776 40.664, 474.619 32.921 C 474.427 23.460, 474.020 20.717, 472.394 17.921 C 470.090 13.963, 465.290 12.741, 462.979 15.525 M 506.035 15.934 C 504.188 19.386, 504.974 24.370, 508.332 30.500 C 517.818 47.815, 522.022 54.786, 524.615 57.500 L 527.481 60.500 527.990 57.079 C 528.271 55.198, 529.027 53.485, 529.671 53.272 C 530.316 53.060, 532.715 56.037, 535.003 59.888 C 540.077 68.430, 540.320 68.637, 546.295 69.527 L 551.091 70.241 548.878 65.686 C 547.198 62.228, 543.400 58.409, 533.095 49.816 C 517.442 36.764, 515 34.357, 515 31.976 C 515 29.950, 517.722 27.388, 518.766 28.433 C 519.160 28.827, 518.697 29.590, 517.735 30.128 C 516.365 30.895, 516.211 31.526, 517.023 33.043 C 518.276 35.385, 543.044 56.289, 543.741 55.593 C 544.011 55.322, 540.045 48.731, 534.929 40.945 C 528.353 30.939, 524.507 26.083, 521.813 24.382 C 518.436 22.250, 518 21.519, 518 17.987 L 518 14 512.535 14 C 508.156 14, 506.865 14.384, 506.035 15.934 M 117.278 20.750 C 116.697 23.913, 116.336 26.626, 116.475 26.781 C 116.614 26.935, 118.139 27.466, 119.864 27.961 L 123 28.860 123 21.930 C 123 15.337, 122.887 15, 120.667 15 C 118.616 15, 118.207 15.695, 117.278 20.750 M 14.138 17.915 C 13.441 18.346, 11.662 18.511, 10.185 18.283 C 7.880 17.927, 7.715 18.055, 9.019 19.184 C 9.855 19.908, 11.041 21.625, 11.656 23 L 12.773 25.500 13.495 22.750 C 13.892 21.238, 14.843 20, 15.608 20 C 17.111 20, 17.503 18.429, 16.202 17.625 C 15.763 17.354, 14.834 17.484, 14.138 17.915 M 508 18.554 C 508 19.232, 508.675 20.045, 509.500 20.362 C 510.325 20.678, 511 21.626, 511 22.469 C 511 23.311, 511.450 24, 512 24 C 512.550 24, 513 23.148, 513 22.107 C 513 21.066, 513.739 19.930, 514.643 19.583 C 517.038 18.664, 515.420 17.580, 511.447 17.442 C 509.318 17.368, 508 17.793, 508 18.554 M 231.435 19.895 C 231.740 20.388, 231.351 21.035, 230.572 21.334 C 228.433 22.155, 229.839 25.865, 232.887 27.441 C 235.440 28.762, 235.570 28.685, 237.185 24.901 L 238.851 21 236.485 21 C 235.183 21, 233.840 20.550, 233.500 20 C 233.160 19.450, 232.432 19, 231.882 19 C 231.332 19, 231.131 19.403, 231.435 19.895 M 460.250 20.541 C 458.167 22.831, 458.848 25.406, 462.011 27.206 L 465.010 28.913 466.505 25.334 C 468.391 20.820, 468.425 21, 465.700 21 C 464.435 21, 462.972 20.588, 462.450 20.084 C 461.870 19.524, 461.013 19.703, 460.250 20.541 M 406.747 23.984 C 403.719 26.366, 402.288 30.933, 404.192 32.140 C 406.013 33.295, 420.750 33.213, 421.473 32.044 C 422.403 30.539, 419.382 24.275, 417.150 23.080 C 414.025 21.408, 409.526 21.799, 406.747 23.984 M 410.259 23.779 C 409.026 23.976, 407.339 25.106, 406.509 26.291 C 403.658 30.361, 404.471 31, 412.500 31 C 416.625 31, 420 30.796, 420 30.547 C 420 30.298, 419.488 28.970, 418.862 27.597 C 417.630 24.893, 413.833 23.207, 410.259 23.779 M 92.250 28.743 C 96.513 28.931, 103.487 28.931, 107.750 28.743 C 112.013 28.556, 108.525 28.402, 100 28.402 C 91.475 28.402, 87.987 28.556, 92.250 28.743 M 288.971 32.575 C 288.195 34.618, 288.237 36.157, 289.128 38.308 C 290.264 41.051, 290.434 41.127, 291.673 39.433 C 293.442 37.014, 293.359 32.543, 291.517 31.014 C 290.284 29.991, 289.854 30.255, 288.971 32.575 M 382.648 34.093 C 379.467 38.633, 380.464 41.568, 387.750 49.117 C 396.010 57.675, 398.604 59.133, 405.296 58.980 C 408.158 58.915, 411.512 59.170, 412.750 59.547 C 414.034 59.939, 415 59.807, 415 59.239 C 415 58.652, 416.940 58.446, 419.750 58.737 C 424.483 59.227, 424.493 59.222, 422.500 57.262 C 421.081 55.866, 417.519 54.823, 410.244 53.673 C 393.996 51.103, 386.499 46.786, 389.635 41.807 C 390.203 40.904, 390.621 41.425, 390.988 43.495 C 391.373 45.672, 392.470 46.948, 395.009 48.170 C 399.171 50.174, 415.506 53.308, 419.318 52.834 C 421.905 52.513, 421.786 52.320, 416.255 47.880 C 408.561 41.703, 403.222 39.133, 394.722 37.513 C 389.606 36.538, 387.166 35.546, 385.963 33.951 L 384.295 31.740 382.648 34.093 M 240.805 39.750 C 240.549 43.732, 240.177 44.500, 238.500 44.500 C 236.981 44.500, 236.373 43.658, 235.973 41 C 235.475 37.691, 235.348 37.882, 233.631 44.500 C 232.632 48.350, 231.367 52.622, 230.819 53.992 L 229.822 56.485 227.161 53.422 C 225.697 51.738, 223.259 48.928, 221.742 47.180 C 216.262 40.861, 214.425 44.386, 217.630 55.068 C 219.656 61.823, 219.613 65.135, 217.454 68.430 L 215.770 71 228.993 71 L 242.217 71 241.617 68.611 C 241.288 67.298, 241.606 61.785, 242.325 56.361 C 243.668 46.234, 243.477 35, 241.962 35 C 241.493 35, 240.972 37.138, 240.805 39.750 M 471.131 37.185 C 470.767 44.624, 466.120 47.877, 464.984 41.488 C 464.546 39.025, 464.097 39.993, 462.427 47 C 461.312 51.675, 459.938 55.500, 459.374 55.500 C 458.809 55.500, 456.330 53.026, 453.865 50.002 C 448.349 43.235, 446 42.419, 446 47.268 C 446 49.146, 446.670 52.891, 447.489 55.591 C 449.376 61.809, 449.387 65.106, 447.532 67.559 C 446.724 68.626, 446.049 69.838, 446.032 70.250 C 445.993 71.154, 470.398 71.269, 471.298 70.369 C 471.645 70.021, 471.553 69.009, 471.093 68.119 C 470.621 67.204, 470.817 62.476, 471.546 57.249 C 472.376 51.288, 472.555 45.598, 472.049 41.249 C 471.616 37.537, 471.204 35.708, 471.131 37.185 M 14.830 50.958 C 15.113 56.915, 15.453 58.009, 17.192 58.561 C 18.378 58.937, 19.795 58.633, 20.599 57.830 C 21.766 56.663, 21.671 55.853, 19.972 52.477 C 18.872 50.290, 17.190 47.487, 16.235 46.249 C 14.546 44.058, 14.509 44.182, 14.830 50.958 M 288.940 46.641 C 288.135 48.745, 288.158 50.547, 289.028 53.467 C 290.135 57.181, 290.299 57.312, 291.605 55.525 C 293.446 53.008, 293.392 46.570, 291.517 45.014 C 290.283 43.990, 289.849 44.264, 288.940 46.641 M 514.012 50.750 L 514 58 517.125 58 C 520.007 58, 520.207 57.785, 519.695 55.225 C 519.390 53.699, 517.989 50.437, 516.582 47.975 L 514.024 43.500 514.012 50.750 M 586.397 58 C 586.397 65.975, 586.553 69.237, 586.743 65.250 C 586.932 61.263, 586.932 54.737, 586.743 50.750 C 586.553 46.763, 586.397 50.025, 586.397 58 M 357.920 56.190 C 357.875 57.460, 357.313 60.412, 356.670 62.750 L 355.500 67 337.500 67.068 C 327.600 67.106, 317.813 66.832, 315.750 66.459 C 312.638 65.897, 312 66.066, 312 67.458 C 312 68.655, 311.452 68.961, 310.084 68.527 C 307.572 67.729, 306.589 69.414, 308.595 71.079 C 310.726 72.847, 364.074 72.462, 365.247 70.670 C 365.668 70.026, 365.898 66.125, 365.756 62 L 365.500 54.500 361.750 54.190 C 358.428 53.915, 357.991 54.143, 357.920 56.190 M 359.368 58.670 C 359 60.138, 358.653 62.950, 358.599 64.920 C 358.511 68.111, 358.799 68.534, 361.250 68.816 L 364 69.133 364 62.566 C 364 56.688, 363.793 56, 362.019 56 C 360.706 56, 359.812 56.901, 359.368 58.670 M 65 57.632 C 65 59.530, 69.507 65.070, 72.854 67.285 C 81.075 72.725, 91.462 74.240, 101.040 71.395 C 106.618 69.739, 114.470 64.983, 115.293 62.762 C 115.563 62.035, 116.216 62.641, 116.833 64.189 C 118.333 67.956, 121.398 69.459, 123.431 67.427 C 125.477 65.381, 125.406 64.179, 123.011 60.250 L 121.029 57 93.015 57 C 77.607 57, 65 57.284, 65 57.632 M 168.020 58.752 C 161.890 61.831, 157.622 70.874, 161.582 72.393 C 162.452 72.727, 168.788 73, 175.661 73 L 188.159 73 187.472 69.750 C 186.328 64.344, 183.256 60.320, 178.961 58.601 C 173.889 56.572, 172.316 56.593, 168.020 58.752 M 67 58.915 C 67 59.418, 69.091 61.670, 71.646 63.920 C 82.433 73.415, 100.567 73.415, 111.354 63.920 C 113.909 61.670, 116 59.418, 116 58.915 C 116 58.387, 105.650 58, 91.500 58 C 77.350 58, 67 58.387, 67 58.915 M 118 61.345 C 118 62.635, 118.891 64.496, 119.979 65.481 C 121.828 67.154, 122.001 67.160, 122.612 65.569 C 123.410 63.490, 121.167 59, 119.331 59 C 118.599 59, 118 60.055, 118 61.345 M 167.314 60.950 C 163.792 63.097, 162 65.790, 162 68.934 C 162 70.902, 162.545 71, 173.441 71 C 179.734 71, 185.093 70.658, 185.352 70.240 C 186.359 68.610, 182.946 62.938, 179.807 61.023 C 175.641 58.483, 171.400 58.459, 167.314 60.950 M 517.328 59.784 C 514.812 60.047, 513.932 60.758, 513.073 63.220 C 511.794 66.890, 511.834 66.948, 516.344 67.965 C 520.603 68.925, 522 67.788, 522 63.359 C 522 59.619, 521.627 59.334, 517.328 59.784 M 13.933 63.703 C 13.310 65.590, 12.977 67.310, 13.192 67.525 C 13.407 67.741, 15.590 68.048, 18.042 68.208 L 22.500 68.500 22.801 64.386 L 23.102 60.273 19.083 60.273 C 15.393 60.273, 14.973 60.553, 13.933 63.703 M 335.250 69.742 C 338.962 69.934, 345.038 69.934, 348.750 69.742 C 352.462 69.549, 349.425 69.392, 342 69.392 C 334.575 69.392, 331.538 69.549, 335.250 69.742" stroke="none" fill="#6a6a6a" fill-rule="evenodd"/><path d="M 0 34.034 L 0 68.069 5.250 67.410 C 8.138 67.048, 10.950 66.336, 11.500 65.829 C 12.050 65.321, 12.651 59.494, 12.835 52.881 C 13.153 41.508, 13.038 40.656, 10.722 37.156 C 4.291 27.438, 2.714 21.513, 4.975 15.565 C 5.892 13.153, 6.363 13, 12.859 13 C 20.224 13, 20.921 13.557, 20.999 19.500 C 21.014 20.653, 22.445 22.420, 24.377 23.670 C 28.040 26.042, 41.658 44.626, 47.377 55.057 C 49.354 58.664, 52.199 62.682, 53.699 63.986 C 55.299 65.377, 55.941 66.520, 55.252 66.749 C 54.521 66.993, 54.299 68.245, 54.664 70.070 C 55.328 73.390, 55.566 73.336, 47.500 71.683 C 41.536 70.460, 41.470 70.407, 36.500 62.976 L 31.500 55.500 31.179 58.848 C 30.854 62.248, 30.358 62.416, 26 60.603 C 24.800 60.104, 24.480 60.902, 24.402 64.586 C 24.286 70.020, 22.884 71.257, 18 70.233 C 16.075 69.830, 11.350 69.500, 7.500 69.500 L 0.500 69.500 0.204 76.252 L -0.091 83.003 311.204 82.752 L 622.500 82.500 622.776 41.250 L 623.051 0 311.526 0 L 0 0 0 34.034 M 0.449 34.500 C 0.449 53.200, 0.584 60.709, 0.749 51.186 C 0.913 41.663, 0.913 26.363, 0.748 17.186 C 0.583 8.009, 0.449 15.800, 0.449 34.500 M 168.951 13.558 C 168.038 14.659, 165.066 15, 156.378 15 C 149.459 15, 145 15.392, 145 16 C 145 16.608, 149.459 17, 156.378 17 C 164.974 17, 168.043 17.346, 168.931 18.417 C 170.482 20.286, 178.518 20.286, 180.069 18.417 C 180.952 17.353, 183.958 17, 192.122 17 C 198.707 17, 203 16.605, 203 16 C 203 15.395, 198.733 15, 192.200 15 C 185.237 15, 180.981 14.581, 180.220 13.820 C 178.426 12.026, 170.379 11.839, 168.951 13.558 M 233.209 13.566 C 230.200 15.674, 226.980 22.206, 227.662 24.817 C 227.966 25.979, 229.791 27.859, 231.718 28.996 C 235.635 31.307, 235.624 30.222, 231.863 44.250 C 230.572 49.063, 229.288 52.986, 229.008 52.969 C 228.729 52.952, 226.945 50.875, 225.045 48.354 C 220.940 42.908, 217.770 41.116, 215.530 42.975 C 213.543 44.624, 213.599 46.126, 215.976 55.068 C 218.479 64.478, 218.488 64.267, 215.428 67.903 C 214.014 69.584, 213.144 71.423, 213.494 71.991 C 213.912 72.667, 219.015 72.818, 228.316 72.428 C 245.445 71.710, 245.450 71.709, 243.933 68.875 C 242.466 66.133, 244.585 48.609, 246.796 45.207 C 248.954 41.886, 247.927 24.884, 245.195 18.708 C 242.316 12.199, 237.879 10.295, 233.209 13.566 M 383.962 13.466 C 383.156 14.273, 380.697 15.830, 378.498 16.926 C 374.959 18.692, 374.787 18.930, 377 19.004 C 380.162 19.111, 388.665 21.332, 389.639 22.306 C 390.044 22.711, 388.557 24.945, 386.335 27.271 C 376.245 37.834, 376.356 39.442, 388 51.500 C 397.545 61.384, 398.271 63.039, 395.284 68.096 C 393.702 70.774, 393.115 71, 387.725 71 C 384.084 71, 382.115 71.377, 382.500 72 C 383.210 73.148, 392.959 73.338, 394.578 72.235 C 395.171 71.831, 396.746 69.156, 398.078 66.291 C 400.230 61.662, 400.848 61.077, 403.628 61.041 C 407.570 60.989, 409.225 62.948, 408.818 67.185 C 408.502 70.479, 408.463 70.502, 402.722 70.801 C 399.401 70.974, 397.194 71.505, 397.531 72.051 C 398.227 73.176, 407.974 73.304, 409.695 72.210 C 410.352 71.792, 411.027 69.324, 411.195 66.726 C 411.419 63.257, 411.912 62.001, 413.050 62.001 C 413.902 62, 415.027 61.618, 415.550 61.152 C 416.072 60.685, 420.100 60.630, 424.500 61.029 C 428.900 61.428, 432.641 61.631, 432.814 61.479 C 432.987 61.328, 431.075 60.179, 428.564 58.925 C 423.472 56.382, 422.745 55, 426.500 55 C 429.988 55, 429.618 53.627, 425.750 52.219 C 423.962 51.568, 420.025 48.974, 417 46.454 C 409.572 40.267, 404.872 37.920, 396.073 36.004 C 386.958 34.019, 385.408 32.276, 389.214 28.286 C 390.677 26.754, 392.372 24.180, 392.982 22.566 C 395.448 16.040, 388.449 8.979, 383.962 13.466 M 462.199 14.029 C 458.933 17.072, 456.757 21.895, 457.433 24.590 C 457.761 25.895, 459.372 27.658, 461.014 28.507 C 464.447 30.283, 464.713 32.175, 462.571 39.568 C 461.785 42.281, 460.631 46.454, 460.008 48.842 L 458.873 53.184 453.523 47.342 C 448.950 42.348, 447.907 41.660, 446.337 42.601 C 443.878 44.074, 443.545 48.730, 445.442 55.115 C 447.536 62.167, 447.405 65.215, 444.871 68.436 C 443.677 69.955, 443.128 71.503, 443.621 71.963 C 444.105 72.415, 451.137 72.545, 459.250 72.254 C 473.774 71.732, 475.772 71.172, 472.997 68.397 C 471.775 67.175, 474.362 47.238, 475.949 45.651 C 477.550 44.050, 477.223 27.114, 475.478 21.236 C 473.024 12.975, 466.899 9.650, 462.199 14.029 M 505.697 13.250 C 504.758 13.947, 503.733 16.566, 503.381 19.169 C 502.808 23.415, 503.170 24.610, 507.375 32.323 L 512 40.808 512 51.339 C 512 65.862, 511.539 66.821, 504.373 67.199 C 501.230 67.364, 498.513 67.950, 498.336 68.500 C 498.134 69.129, 502.508 69.500, 510.140 69.500 C 522.129 69.500, 522.276 69.472, 523.184 67.024 C 523.690 65.661, 523.832 63.467, 523.501 62.147 C 523.024 60.249, 523.223 59.878, 524.449 60.374 C 525.302 60.718, 526.652 61.264, 527.449 61.587 C 528.463 61.999, 529.154 61.185, 529.753 58.873 L 530.608 55.572 533.804 61.036 C 538.640 69.304, 539.549 70.182, 544.202 71.082 C 552.123 72.613, 552.632 72.441, 552.562 68.250 C 552.517 65.534, 551.742 63.754, 549.750 61.795 C 548.237 60.308, 547 58.462, 547 57.694 C 547 55.108, 527.332 26.355, 523.633 23.533 C 521.200 21.678, 520 19.954, 520 18.316 C 520 13.403, 518.369 12, 512.656 12 C 509.755 12, 506.624 12.563, 505.697 13.250 M 563.684 12.649 C 563.308 13.025, 563 18.883, 563 25.667 L 563 38 570.059 38 C 574.510 38, 576.890 37.631, 576.500 37 C 576.160 36.450, 573.434 36, 570.441 36 L 565 36 565 25 L 565 14 587.500 14 L 610 14 610 25 L 610 36 604 36 C 600.492 36, 598 36.434, 598 37.046 C 598 37.699, 600.532 37.980, 604.750 37.796 L 611.500 37.500 611.500 25 L 611.500 12.500 587.934 12.232 C 574.973 12.085, 564.061 12.273, 563.684 12.649 M 66.655 14.829 C 65.468 16.140, 65 18.518, 65 23.231 C 65 29.524, 65.117 29.841, 67.750 30.675 C 69.263 31.153, 82.504 31.384, 97.176 31.187 C 118.044 30.908, 123.961 30.544, 124.356 29.514 C 124.634 28.791, 124.602 24.779, 124.286 20.600 L 123.711 13 120.469 13 C 117.271 13, 117.210 13.089, 116 19.500 L 114.774 26 103.137 26.007 C 96.737 26.011, 88.463 26.301, 84.750 26.652 L 78 27.289 78 24.105 C 78 22.353, 77.091 19.138, 75.980 16.960 C 74.346 13.758, 73.419 13, 71.135 13 C 69.581 13, 67.565 13.823, 66.655 14.829 M 286.655 14.829 C 284.474 17.239, 284.567 19.232, 287.093 24.182 C 288.701 27.334, 288.950 28.773, 288.166 30.392 C 286.319 34.211, 286.260 35.459, 287.751 39.261 C 288.728 41.752, 288.899 43.441, 288.258 44.261 C 286.370 46.675, 286.205 50.066, 287.741 54.869 C 289.292 59.718, 289.287 59.747, 286.152 65.536 C 284.422 68.729, 283.231 71.564, 283.504 71.837 C 284.157 72.490, 284.242 72.376, 287.750 66.170 L 290.762 60.840 293.988 66.480 C 298.226 73.887, 299.210 72.748, 295.152 65.133 C 292.118 59.442, 292.059 59.102, 293.503 55.647 C 295.367 51.186, 295.370 47.073, 293.511 44.617 C 292.276 42.986, 292.280 42.359, 293.543 39.917 C 295.375 36.374, 295.372 34.238, 293.533 30.710 C 292.215 28.184, 292.263 27.617, 294.035 24.710 C 296.237 21.100, 296.607 16.007, 294.800 14.200 C 293.007 12.407, 288.534 12.752, 286.655 14.829 M 310.716 15.904 C 308.408 19.811, 308.599 21.061, 311.054 18.114 C 313.006 15.769, 313.078 15.761, 315.116 17.605 C 317.151 19.447, 317.224 19.441, 318.946 17.315 L 320.702 15.146 322.895 17.323 L 325.088 19.500 326.928 17.078 L 328.768 14.656 330.125 16.828 C 330.871 18.023, 331.940 19, 332.500 19 C 333.060 19, 334.129 18.023, 334.875 16.828 L 336.232 14.656 338.039 17.052 C 339.816 19.408, 339.882 19.416, 341.923 17.569 C 343.956 15.730, 344.045 15.730, 346.095 17.586 C 348.158 19.453, 348.219 19.448, 349.946 17.315 L 351.702 15.146 353.909 17.323 C 356.107 19.492, 356.121 19.492, 357.623 17.500 C 359.117 15.517, 359.146 15.520, 361.090 17.892 C 363.894 21.313, 364.651 19.722, 361.994 15.991 L 359.770 12.868 357.531 14.971 L 355.293 17.074 353.674 14.787 L 352.055 12.500 350.027 14.861 L 348 17.222 345.973 14.861 L 343.945 12.500 342.326 14.787 L 340.707 17.074 338.383 14.890 L 336.058 12.706 334.194 15.008 L 332.331 17.310 330.686 14.962 L 329.041 12.613 326.667 14.843 L 324.293 17.074 322.674 14.787 L 321.055 12.500 318.985 14.913 L 316.916 17.325 315.401 15.163 C 313.415 12.327, 312.768 12.429, 310.716 15.904 M 12.040 14.913 C 6.668 15.490, 6.566 15.561, 5.796 19.296 C 4.810 24.073, 5.831 26.572, 14.278 40.058 C 17.876 45.801, 21.597 52.144, 22.548 54.153 C 23.967 57.149, 27.380 60, 29.547 60 C 29.796 60, 30 58.425, 30 56.500 C 30 54.575, 30.459 53, 31.021 53 C 31.583 53, 34.319 56.586, 37.102 60.970 C 41.612 68.074, 42.561 69.007, 45.831 69.557 C 47.849 69.897, 50.288 70.391, 51.250 70.655 C 53.464 71.262, 53.444 70.902, 50.965 65.739 C 49.393 62.464, 45.303 58.595, 32.977 48.722 C 16.275 35.344, 13.720 32.140, 17.530 29.355 C 18.533 28.621, 19.611 28.278, 19.925 28.592 C 20.240 28.906, 19.645 29.786, 18.604 30.548 C 16.938 31.766, 16.878 32.170, 18.105 33.913 C 19.739 36.233, 45.978 57.356, 46.534 56.799 C 47.469 55.865, 27.737 28.234, 24.322 25.694 C 19.602 22.184, 19.034 21.281, 19.015 17.250 C 19.007 15.462, 18.663 14.073, 18.250 14.163 C 17.837 14.253, 15.043 14.590, 12.040 14.913 M 68.031 15.969 C 66.562 17.438, 66.233 18.789, 66.639 21.696 C 67.364 26.886, 67.770 28, 68.937 28 C 69.487 28, 69.678 27.325, 69.362 26.500 C 68.916 25.338, 69.598 25, 72.393 25 C 75.587 25, 76 24.710, 76 22.465 C 76 19.576, 73.588 15.439, 71.417 14.607 C 70.613 14.298, 69.089 14.911, 68.031 15.969 M 169.500 15 C 168.663 16.354, 169.792 18, 171.559 18 C 172.352 18, 173 17.100, 173 16 C 173 13.930, 170.587 13.240, 169.500 15 M 175 15.927 C 175 17.358, 175.642 18, 177.073 18 C 179.636 18, 179.345 14.690, 176.739 14.188 C 175.539 13.957, 175 14.496, 175 15.927 M 233.695 15.111 C 231.317 16.494, 233.223 19, 236.654 19 C 239.619 19, 240.564 21.158, 239.181 24.768 C 237.738 28.536, 236.600 43, 237.747 43 C 238.252 43, 239.078 40.862, 239.582 38.250 C 240.897 31.446, 243.399 31.742, 243.802 38.750 C 244.277 46.999, 246 44.882, 246 36.049 C 246 18.655, 241.313 10.679, 233.695 15.111 M 288.550 15.340 C 287.105 16.396, 286.859 17.433, 287.385 20.239 C 287.752 22.197, 288.765 24.390, 289.635 25.112 C 290.967 26.217, 291.436 26.124, 292.608 24.521 C 294.552 21.863, 294.428 15.378, 292.418 14.607 C 290.403 13.833, 290.683 13.780, 288.550 15.340 M 385.404 15.611 C 385.843 16.753, 385.592 17.057, 384.543 16.655 C 383.730 16.343, 382.825 16.474, 382.533 16.946 C 381.943 17.901, 387.224 20, 390.217 20 C 391.747 20, 391.993 19.545, 391.433 17.750 C 390.612 15.119, 389.223 14.037, 386.643 14.015 C 385.344 14.005, 384.972 14.484, 385.404 15.611 M 462.979 15.525 C 461.841 16.897, 461.854 17.295, 463.064 18.061 C 463.854 18.561, 465.232 18.976, 466.128 18.985 C 469.231 19.014, 470.281 21.555, 468.563 24.879 C 466.779 28.328, 466.293 43.555, 468 42.500 C 468.550 42.160, 469 40.094, 469 37.910 C 469 35.252, 469.511 33.741, 470.543 33.345 C 472.768 32.491, 473.370 33.486, 474.155 39.311 C 474.623 42.781, 474.776 40.664, 474.619 32.921 C 474.427 23.460, 474.020 20.717, 472.394 17.921 C 470.090 13.963, 465.290 12.741, 462.979 15.525 M 506.035 15.934 C 504.188 19.386, 504.974 24.370, 508.332 30.500 C 517.818 47.815, 522.022 54.786, 524.615 57.500 L 527.481 60.500 527.990 57.079 C 528.271 55.198, 529.027 53.485, 529.671 53.272 C 530.316 53.060, 532.715 56.037, 535.003 59.888 C 540.077 68.430, 540.320 68.637, 546.295 69.527 L 551.091 70.241 548.878 65.686 C 547.198 62.228, 543.400 58.409, 533.095 49.816 C 517.442 36.764, 515 34.357, 515 31.976 C 515 29.950, 517.722 27.388, 518.766 28.433 C 519.160 28.827, 518.697 29.590, 517.735 30.128 C 516.365 30.895, 516.211 31.526, 517.023 33.043 C 518.276 35.385, 543.044 56.289, 543.741 55.593 C 544.011 55.322, 540.045 48.731, 534.929 40.945 C 528.353 30.939, 524.507 26.083, 521.813 24.382 C 518.436 22.250, 518 21.519, 518 17.987 L 518 14 512.535 14 C 508.156 14, 506.865 14.384, 506.035 15.934 M 117.278 20.750 C 116.697 23.913, 116.336 26.626, 116.475 26.781 C 116.614 26.935, 118.139 27.466, 119.864 27.961 L 123 28.860 123 21.930 C 123 15.337, 122.887 15, 120.667 15 C 118.616 15, 118.207 15.695, 117.278 20.750 M 14.138 17.915 C 13.441 18.346, 11.662 18.511, 10.185 18.283 C 7.880 17.927, 7.715 18.055, 9.019 19.184 C 9.855 19.908, 11.041 21.625, 11.656 23 L 12.773 25.500 13.495 22.750 C 13.892 21.238, 14.843 20, 15.608 20 C 17.111 20, 17.503 18.429, 16.202 17.625 C 15.763 17.354, 14.834 17.484, 14.138 17.915 M 508 18.554 C 508 19.232, 508.675 20.045, 509.500 20.362 C 510.325 20.678, 511 21.626, 511 22.469 C 511 23.311, 511.450 24, 512 24 C 512.550 24, 513 23.148, 513 22.107 C 513 21.066, 513.739 19.930, 514.643 19.583 C 517.038 18.664, 515.420 17.580, 511.447 17.442 C 509.318 17.368, 508 17.793, 508 18.554 M 231.435 19.895 C 231.740 20.388, 231.351 21.035, 230.572 21.334 C 228.433 22.155, 229.839 25.865, 232.887 27.441 C 235.440 28.762, 235.570 28.685, 237.185 24.901 L 238.851 21 236.485 21 C 235.183 21, 233.840 20.550, 233.500 20 C 233.160 19.450, 232.432 19, 231.882 19 C 231.332 19, 231.131 19.403, 231.435 19.895 M 460.250 20.541 C 458.167 22.831, 458.848 25.406, 462.011 27.206 L 465.010 28.913 466.505 25.334 C 468.391 20.820, 468.425 21, 465.700 21 C 464.435 21, 462.972 20.588, 462.450 20.084 C 461.870 19.524, 461.013 19.703, 460.250 20.541 M 406.747 23.984 C 403.719 26.366, 402.288 30.933, 404.192 32.140 C 406.013 33.295, 420.750 33.213, 421.473 32.044 C 422.403 30.539, 419.382 24.275, 417.150 23.080 C 414.025 21.408, 409.526 21.799, 406.747 23.984 M 410.259 23.779 C 409.026 23.976, 407.339 25.106, 406.509 26.291 C 403.658 30.361, 404.471 31, 412.500 31 C 416.625 31, 420 30.796, 420 30.547 C 420 30.298, 419.488 28.970, 418.862 27.597 C 417.630 24.893, 413.833 23.207, 410.259 23.779 M 92.250 28.743 C 96.513 28.931, 103.487 28.931, 107.750 28.743 C 112.013 28.556, 108.525 28.402, 100 28.402 C 91.475 28.402, 87.987 28.556, 92.250 28.743 M 288.971 32.575 C 288.195 34.618, 288.237 36.157, 289.128 38.308 C 290.264 41.051, 290.434 41.127, 291.673 39.433 C 293.442 37.014, 293.359 32.543, 291.517 31.014 C 290.284 29.991, 289.854 30.255, 288.971 32.575 M 382.648 34.093 C 379.467 38.633, 380.464 41.568, 387.750 49.117 C 396.010 57.675, 398.604 59.133, 405.296 58.980 C 408.158 58.915, 411.512 59.170, 412.750 59.547 C 414.034 59.939, 415 59.807, 415 59.239 C 415 58.652, 416.940 58.446, 419.750 58.737 C 424.483 59.227, 424.493 59.222, 422.500 57.262 C 421.081 55.866, 417.519 54.823, 410.244 53.673 C 393.996 51.103, 386.499 46.786, 389.635 41.807 C 390.203 40.904, 390.621 41.425, 390.988 43.495 C 391.373 45.672, 392.470 46.948, 395.009 48.170 C 399.171 50.174, 415.506 53.308, 419.318 52.834 C 421.905 52.513, 421.786 52.320, 416.255 47.880 C 408.561 41.703, 403.222 39.133, 394.722 37.513 C 389.606 36.538, 387.166 35.546, 385.963 33.951 L 384.295 31.740 382.648 34.093 M 240.805 39.750 C 240.549 43.732, 240.177 44.500, 238.500 44.500 C 236.981 44.500, 236.373 43.658, 235.973 41 C 235.475 37.691, 235.348 37.882, 233.631 44.500 C 232.632 48.350, 231.367 52.622, 230.819 53.992 L 229.822 56.485 227.161 53.422 C 225.697 51.738, 223.259 48.928, 221.742 47.180 C 216.262 40.861, 214.425 44.386, 217.630 55.068 C 219.656 61.823, 219.613 65.135, 217.454 68.430 L 215.770 71 228.993 71 L 242.217 71 241.617 68.611 C 241.288 67.298, 241.606 61.785, 242.325 56.361 C 243.668 46.234, 243.477 35, 241.962 35 C 241.493 35, 240.972 37.138, 240.805 39.750 M 471.131 37.185 C 470.767 44.624, 466.120 47.877, 464.984 41.488 C 464.546 39.025, 464.097 39.993, 462.427 47 C 461.312 51.675, 459.938 55.500, 459.374 55.500 C 458.809 55.500, 456.330 53.026, 453.865 50.002 C 448.349 43.235, 446 42.419, 446 47.268 C 446 49.146, 446.670 52.891, 447.489 55.591 C 449.376 61.809, 449.387 65.106, 447.532 67.559 C 446.724 68.626, 446.049 69.838, 446.032 70.250 C 445.993 71.154, 470.398 71.269, 471.298 70.369 C 471.645 70.021, 471.553 69.009, 471.093 68.119 C 470.621 67.204, 470.817 62.476, 471.546 57.249 C 472.376 51.288, 472.555 45.598, 472.049 41.249 C 471.616 37.537, 471.204 35.708, 471.131 37.185 M 14.830 50.958 C 15.113 56.915, 15.453 58.009, 17.192 58.561 C 18.378 58.937, 19.795 58.633, 20.599 57.830 C 21.766 56.663, 21.671 55.853, 19.972 52.477 C 18.872 50.290, 17.190 47.487, 16.235 46.249 C 14.546 44.058, 14.509 44.182, 14.830 50.958 M 288.940 46.641 C 288.135 48.745, 288.158 50.547, 289.028 53.467 C 290.135 57.181, 290.299 57.312, 291.605 55.525 C 293.446 53.008, 293.392 46.570, 291.517 45.014 C 290.283 43.990, 289.849 44.264, 288.940 46.641 M 514.012 50.750 L 514 58 517.125 58 C 520.007 58, 520.207 57.785, 519.695 55.225 C 519.390 53.699, 517.989 50.437, 516.582 47.975 L 514.024 43.500 514.012 50.750 M 586.397 58 C 586.397 65.975, 586.553 69.237, 586.743 65.250 C 586.932 61.263, 586.932 54.737, 586.743 50.750 C 586.553 46.763, 586.397 50.025, 586.397 58 M 357.920 56.190 C 357.875 57.460, 357.313 60.412, 356.670 62.750 L 355.500 67 337.500 67.068 C 327.600 67.106, 317.813 66.832, 315.750 66.459 C 312.638 65.897, 312 66.066, 312 67.458 C 312 68.655, 311.452 68.961, 310.084 68.527 C 307.572 67.729, 306.589 69.414, 308.595 71.079 C 310.726 72.847, 364.074 72.462, 365.247 70.670 C 365.668 70.026, 365.898 66.125, 365.756 62 L 365.500 54.500 361.750 54.190 C 358.428 53.915, 357.991 54.143, 357.920 56.190 M 359.368 58.670 C 359 60.138, 358.653 62.950, 358.599 64.920 C 358.511 68.111, 358.799 68.534, 361.250 68.816 L 364 69.133 364 62.566 C 364 56.688, 363.793 56, 362.019 56 C 360.706 56, 359.812 56.901, 359.368 58.670 M 65 57.632 C 65 59.530, 69.507 65.070, 72.854 67.285 C 81.075 72.725, 91.462 74.240, 101.040 71.395 C 106.618 69.739, 114.470 64.983, 115.293 62.762 C 115.563 62.035, 116.216 62.641, 116.833 64.189 C 118.333 67.956, 121.398 69.459, 123.431 67.427 C 125.477 65.381, 125.406 64.179, 123.011 60.250 L 121.029 57 93.015 57 C 77.607 57, 65 57.284, 65 57.632 M 168.020 58.752 C 161.890 61.831, 157.622 70.874, 161.582 72.393 C 162.452 72.727, 168.788 73, 175.661 73 L 188.159 73 187.472 69.750 C 186.328 64.344, 183.256 60.320, 178.961 58.601 C 173.889 56.572, 172.316 56.593, 168.020 58.752 M 67 58.915 C 67 59.418, 69.091 61.670, 71.646 63.920 C 82.433 73.415, 100.567 73.415, 111.354 63.920 C 113.909 61.670, 116 59.418, 116 58.915 C 116 58.387, 105.650 58, 91.500 58 C 77.350 58, 67 58.387, 67 58.915 M 118 61.345 C 118 62.635, 118.891 64.496, 119.979 65.481 C 121.828 67.154, 122.001 67.160, 122.612 65.569 C 123.410 63.490, 121.167 59, 119.331 59 C 118.599 59, 118 60.055, 118 61.345 M 167.314 60.950 C 163.792 63.097, 162 65.790, 162 68.934 C 162 70.902, 162.545 71, 173.441 71 C 179.734 71, 185.093 70.658, 185.352 70.240 C 186.359 68.610, 182.946 62.938, 179.807 61.023 C 175.641 58.483, 171.400 58.459, 167.314 60.950 M 517.328 59.784 C 514.812 60.047, 513.932 60.758, 513.073 63.220 C 511.794 66.890, 511.834 66.948, 516.344 67.965 C 520.603 68.925, 522 67.788, 522 63.359 C 522 59.619, 521.627 59.334, 517.328 59.784 M 13.933 63.703 C 13.310 65.590, 12.977 67.310, 13.192 67.525 C 13.407 67.741, 15.590 68.048, 18.042 68.208 L 22.500 68.500 22.801 64.386 L 23.102 60.273 19.083 60.273 C 15.393 60.273, 14.973 60.553, 13.933 63.703 M 335.250 69.742 C 338.962 69.934, 345.038 69.934, 348.750 69.742 C 352.462 69.549, 349.425 69.392, 342 69.392 C 334.575 69.392, 331.538 69.549, 335.250 69.742 M 0.328 76.500 C 0.333 80.350, 0.513 81.802, 0.730 79.728 C 0.946 77.653, 0.943 74.503, 0.722 72.728 C 0.501 70.952, 0.324 72.650, 0.328 76.500" stroke="none" fill="#f7f7f7" fill-rule="evenodd"/></svg>