<svg xmlns="http://www.w3.org/2000/svg" width="470" height="98" viewBox="0 0 470 98" version="1.1"><path d="M 387.567 20.891 C 387.267 21.377, 386.099 29.871, 384.972 39.766 L 382.924 57.757 388.650 63.260 L 394.376 68.763 394.115 74.381 C 393.879 79.483, 394.046 80, 395.927 80 C 397.764 80, 397.997 79.402, 397.978 74.750 C 397.918 60.545, 395.945 29.117, 394.931 26.220 C 393.781 22.932, 388.616 19.195, 387.567 20.891 M 416.090 20.899 C 415.265 21.435, 414.487 24.144, 414.215 27.425 C 413.780 32.667, 414.052 33.554, 418.375 40.994 L 423 48.954 423 58.828 C 423 64.258, 422.506 70.119, 421.902 71.851 C 420.868 74.819, 420.508 75.004, 415.652 75.070 C 412.818 75.109, 409.600 75.499, 408.500 75.937 C 407.298 76.416, 409.890 76.687, 415 76.617 C 419.675 76.553, 425.300 76.842, 427.500 77.261 C 432.968 78.300, 434.438 77.096, 434.472 71.546 C 434.494 67.889, 434.797 67.108, 436 67.606 C 440.367 69.414, 440.854 69.248, 441.179 65.848 L 441.500 62.500 445.620 69.020 C 450.707 77.070, 451.239 77.501, 457.799 78.883 C 465.179 80.438, 465.251 80.418, 464.500 77 C 464.037 74.890, 464.220 74, 465.117 74 C 465.818 74, 465.027 72.537, 463.358 70.750 C 461.689 68.963, 459.057 65.250, 457.510 62.500 C 451.859 52.458, 439.845 36.023, 435.342 32.174 C 431.796 29.143, 430.577 27.326, 430.098 24.362 L 429.473 20.500 423.487 20.241 C 420.194 20.099, 416.865 20.395, 416.090 20.899 M 2.064 25.707 C 0.409 31.668, 0.712 33.043, 5.548 41.524 C 9.796 48.974, 10.130 50.093, 10.610 58.491 C 10.918 63.869, 10.663 69.132, 9.975 71.590 C 8.901 75.424, 8.514 75.759, 4.162 76.626 C -0.294 77.514, -0.040 77.587, 9.931 78.294 C 21.788 79.135, 22.227 78.915, 21.781 72.353 L 21.500 68.207 24.343 69.677 C 27.699 71.413, 28.249 71.053, 28.392 67.027 C 28.452 65.365, 28.591 64.004, 28.702 64.002 C 28.812 64.001, 30.920 67.118, 33.386 70.930 C 38.484 78.811, 39.446 79.492, 46.887 80.498 L 52.273 81.225 51.638 78.695 C 51.236 77.093, 51.461 75.977, 52.252 75.651 C 53.084 75.308, 52.551 74.268, 50.655 72.534 C 49.090 71.103, 46.390 67.274, 44.655 64.024 C 39.322 54.038, 26.122 36.065, 22.018 33.202 C 18.777 30.941, 18.091 29.846, 17.822 26.500 L 17.500 22.500 10.309 22.207 L 3.118 21.915 2.064 25.707 M 64.031 23.463 C 63.363 24.267, 62.565 27.710, 62.256 31.114 C 61.440 40.111, 61.143 40, 86.040 40 C 97.402 40, 110.141 39.709, 114.349 39.353 L 122 38.707 122 30.353 L 122 22 118.469 22 C 114.615 22, 114.609 22.008, 113.034 30 L 111.950 35.500 93.475 35.642 L 75 35.784 75 31.892 C 75 29.751, 74.550 28, 74 28 C 73.450 28, 73 27.190, 73 26.200 C 73 25.210, 72.460 23.860, 71.800 23.200 C 70.139 21.539, 65.497 21.696, 64.031 23.463 M 148 24.383 C 148 25.943, 147.293 26.952, 145.955 27.302 C 144.093 27.789, 143.936 28.494, 144.205 35.168 L 144.500 42.500 175 42.500 L 205.500 42.500 205.792 34.750 C 206.065 27.518, 205.948 27, 204.042 27 C 202.687 27, 202 26.347, 202 25.059 C 202 23.991, 201.550 22.840, 201 22.500 C 200.430 22.148, 200 23.011, 200 24.504 C 200 26.861, 199.670 27.095, 196.750 26.813 C 194.252 26.573, 193.426 25.976, 193.179 24.235 C 192.794 21.529, 191 22.259, 191 25.122 C 191 26.777, 190.440 27.072, 187.789 26.813 C 185.348 26.575, 184.413 25.901, 183.889 24 L 183.199 21.500 183.100 24.250 C 183.011 26.707, 182.627 27, 179.500 27 C 176.702 27, 176 26.611, 176 25.059 C 176 23.991, 175.550 22.840, 175 22.500 C 174.430 22.148, 174 23.011, 174 24.504 C 174 26.855, 173.667 27.094, 170.789 26.813 C 168.330 26.573, 167.430 25.915, 166.942 24 L 166.305 21.500 165.903 24 C 165.563 26.107, 164.956 26.500, 162.045 26.500 C 159.212 26.500, 158.465 26.050, 157.895 24 L 157.199 21.500 157.100 24.250 C 157.011 26.707, 156.627 27, 153.500 27 C 150.433 27, 150 26.690, 150 24.500 C 150 23.125, 149.550 22, 149 22 C 148.450 22, 148 23.073, 148 24.383 M 285.500 24 C 284.505 25.100, 282.972 26.014, 282.095 26.032 C 280.993 26.054, 281.350 26.698, 283.250 28.115 C 285.354 29.685, 286 31.006, 286 33.739 C 286 36.131, 287.983 41.200, 292 49.080 C 295.300 55.553, 298 62.016, 298 63.444 C 298 64.871, 296.778 69.180, 295.284 73.019 L 292.568 80 288.284 80 C 285.928 80, 284 80.450, 284 81 C 284 81.611, 288.667 82, 296 82 C 303.333 82, 308 81.611, 308 81 C 308 80.450, 307.052 80, 305.893 80 C 304.609 80, 303.980 79.512, 304.283 78.750 C 304.557 78.063, 305.565 75.560, 306.523 73.189 C 307.861 69.880, 308.019 68.338, 307.205 66.551 C 306.163 64.265, 306.258 64.217, 312.585 63.814 C 316.633 63.556, 319.607 62.822, 320.591 61.838 C 322.012 60.417, 321.908 60.005, 319.463 57.386 C 317.982 55.799, 315.192 52.025, 313.264 49 C 309.806 43.575, 306.997 40.213, 301.898 35.393 C 300.467 34.040, 298.767 31.165, 298.119 29.003 C 296.146 22.417, 289.365 19.729, 285.500 24 M 342.515 23.984 C 341.225 25.409, 340.008 25.789, 338.195 25.334 C 336.090 24.806, 335.781 24.988, 336.336 26.432 C 336.701 27.384, 337 29.231, 337 30.536 C 337 32.484, 337.673 33.039, 340.750 33.630 C 342.813 34.026, 345.874 34.318, 347.552 34.280 C 351.074 34.198, 354.336 38.191, 355.376 43.855 C 355.888 46.642, 355.725 47.108, 354.414 46.605 C 353.546 46.272, 352.422 46, 351.914 46 C 351.407 46, 351.107 44.538, 351.246 42.750 C 351.472 39.856, 351.141 39.394, 348.225 38.536 C 346.202 37.941, 345.139 37.081, 345.444 36.286 C 346.369 33.874, 344.436 34.992, 342.753 37.841 C 341.601 39.792, 341.260 41.827, 341.667 44.333 C 342.036 46.608, 341.787 48.551, 341.007 49.492 C 340.189 50.477, 340.132 51, 340.842 51 C 341.440 51, 342.411 50.100, 343 49 C 343.589 47.900, 344.910 47, 345.937 47 C 347.693 47, 347.721 47.277, 346.402 51.659 C 345.631 54.221, 345 58.271, 345 60.659 C 345 63.047, 344.834 65, 344.632 65 C 344.429 65, 342.238 62.975, 339.763 60.500 C 334.848 55.585, 334.260 55.358, 331.557 57.335 C 329.807 58.614, 329.846 58.958, 332.474 65.527 C 334.484 70.551, 335.090 73.508, 334.742 76.593 C 334.290 80.610, 334.405 80.831, 337.259 81.402 C 341.919 82.334, 359.817 82.105, 360.435 81.105 C 360.740 80.612, 360.367 79.971, 359.607 79.680 C 358.527 79.265, 358.133 75.268, 357.798 61.325 C 357.359 43.015, 356.428 38.256, 352.673 35.143 C 351.214 33.933, 351.198 33.556, 352.518 31.670 C 354.540 28.784, 354.378 26.378, 352 24 C 349.441 21.441, 344.823 21.433, 342.515 23.984 M 388.671 22.794 C 388.455 23.182, 387.461 31.155, 386.463 40.511 L 384.648 57.522 390.074 62.711 L 395.500 67.901 395.801 65.120 C 396.501 58.646, 394.230 27.341, 392.906 25.222 C 391.438 22.871, 389.308 21.650, 388.671 22.794 M 415.488 26.250 C 414.686 31.620, 415.520 33.741, 423.364 46.287 C 426.876 51.904, 430.680 58.344, 431.817 60.597 C 433.860 64.646, 438.194 68.473, 439.385 67.281 C 439.723 66.943, 440 65.392, 440 63.833 C 440 59.140, 442.216 60.598, 447.500 68.769 C 452.295 76.183, 452.697 76.536, 457.299 77.367 C 459.939 77.844, 462.350 77.983, 462.657 77.676 C 462.964 77.369, 462.153 75.192, 460.854 72.838 C 459.203 69.846, 453.860 64.790, 443.089 56.029 C 425.730 41.911, 424.074 40.069, 426.527 37.616 C 427.416 36.727, 428.647 36, 429.263 36 C 429.878 36, 429.509 36.649, 428.441 37.441 C 426.903 38.583, 426.724 39.259, 427.579 40.691 C 428.553 42.324, 447.308 58.100, 454.346 63.208 L 457.193 65.273 455.467 61.887 C 451.921 54.927, 437.691 35.881, 433.425 32.385 C 429.780 29.398, 429 28.163, 429 25.380 L 429 22 422.561 22 L 416.123 22 415.488 26.250 M 3.630 25.250 C 1.981 31.406, 2.948 34.650, 9.853 46.118 C 13.622 52.378, 17.666 59.383, 18.840 61.684 C 20.795 65.518, 24.309 69, 26.223 69 C 26.650 69, 27 67.388, 27 65.417 C 27 60.253, 28.685 61.341, 34.500 70.257 C 38.275 76.046, 40.174 78.056, 42.250 78.462 C 43.763 78.758, 46.379 79.267, 48.064 79.594 L 51.129 80.187 48.564 75.127 C 46.473 70.999, 43.283 67.877, 31.250 58.175 C 23.138 51.634, 15.673 45.352, 14.662 44.215 C 12.408 41.680, 12.834 38.645, 15.511 38.172 C 17.495 37.821, 17.495 37.824, 15.513 39.320 C 13.531 40.816, 13.531 40.824, 15.513 43.037 C 17.463 45.213, 41.201 64.770, 43.971 66.482 C 47.912 68.918, 28.975 41.782, 21.836 34.763 C 17.282 30.286, 16 28.364, 16 26.013 C 16 23.004, 15.993 23, 10.117 23 C 4.861 23, 4.169 23.240, 3.630 25.250 M 65.067 24.419 C 64.389 25.236, 64.019 28.098, 64.195 31.169 L 64.500 36.500 68 36.655 C 69.925 36.740, 70.487 36.596, 69.250 36.335 C 65.910 35.631, 66.526 34, 70.132 34 C 73.213 34, 73.255 33.935, 72.722 29.961 C 72.424 27.739, 71.634 25.264, 70.967 24.461 C 69.427 22.604, 66.590 22.584, 65.067 24.419 M 114.716 29.250 C 113.934 32.688, 113.392 35.626, 113.512 35.781 C 113.631 35.935, 115.139 36.466, 116.864 36.961 L 120 37.860 120 30.430 C 120 23.755, 119.804 23, 118.069 23 C 116.519 23, 115.858 24.232, 114.716 29.250 M 286.636 24.849 C 285.121 26.524, 285.105 26.973, 286.475 29.599 C 287.307 31.195, 287.990 33.746, 287.994 35.268 C 287.997 36.791, 290.232 42.485, 292.961 47.922 C 299.264 60.482, 301.792 62.502, 311.204 62.496 C 320.019 62.490, 321.463 61.135, 317.328 56.752 C 315.640 54.963, 312.632 50.913, 310.642 47.750 C 308.653 44.587, 306.682 42.014, 306.262 42.032 C 304.296 42.114, 301.855 45.076, 302.029 47.170 C 302.346 51.007, 302.068 52, 300.674 52 C 297.090 52, 290.946 40.454, 293.285 38.115 C 293.898 37.502, 295.071 37, 295.891 37 C 297.029 37, 296.939 37.324, 295.514 38.366 C 293.829 39.598, 293.778 40.064, 294.988 43.116 C 297.454 49.336, 301.896 52.707, 300.548 47.336 C 300.011 45.195, 300.406 44.251, 302.560 42.534 L 305.240 40.397 301.120 36.492 C 298.580 34.085, 297 31.691, 297 30.248 C 297 27.437, 292.838 23, 290.200 23 C 289.161 23, 287.557 23.832, 286.636 24.849 M 343.473 25.030 C 340.839 27.940, 342.465 32.376, 346.329 32.822 C 349.950 33.240, 352 31.466, 352 27.913 C 352 23.201, 346.738 21.422, 343.473 25.030 M 418.401 26.160 C 418.116 26.622, 418.584 27, 419.441 27 C 420.318 27, 421 27.850, 421 28.941 C 421 31.912, 422.707 32.303, 423.412 29.493 C 423.763 28.098, 424.763 27, 425.686 27 C 426.592 27, 427.010 26.676, 426.614 26.281 C 425.587 25.253, 419.021 25.157, 418.401 26.160 M 6 28.136 C 6 28.611, 6.675 29, 7.500 29 C 8.333 29, 9 29.889, 9 31 C 9 32.100, 9.450 33, 10 33 C 10.550 33, 11 32.100, 11 31 C 11 29.889, 11.667 29, 12.500 29 C 13.325 29, 14 28.611, 14 28.136 C 14 27.661, 12.200 27.273, 10 27.273 C 7.800 27.273, 6 27.661, 6 28.136 M 146 35 L 146 42 175 42 L 204 42 204 35 L 204 28 175 28 L 146 28 146 35 M 353.583 32.866 C 352.947 33.894, 356.752 37.581, 357.587 36.746 C 358.344 35.989, 356.189 32, 355.024 32 C 354.526 32, 353.877 32.390, 353.583 32.866 M 84 37 C 80.578 37.419, 85.300 37.692, 96.500 37.722 C 108.436 37.754, 113.152 37.491, 110.500 36.943 C 105.884 35.988, 92.015 36.018, 84 37 M 343 42.392 C 343 44.120, 343.706 44.960, 345.546 45.422 C 348.832 46.247, 350 45.465, 350 42.441 C 350 40.318, 349.544 40, 346.500 40 C 343.476 40, 343 40.325, 343 42.392 M 214.683 46.384 C 213.252 50.112, 219.747 52.415, 223.559 49.532 C 225.116 48.354, 229.575 48.057, 246.128 48.032 C 268.509 47.997, 270.481 48.441, 267.415 52.818 C 265.932 54.936, 265.304 55, 246.065 55 C 230.457 55, 225.459 54.672, 222.549 53.456 C 218.657 51.830, 215.522 52.198, 214.685 54.379 C 213.839 56.583, 215.646 58.285, 218.644 58.108 C 220.215 58.016, 231.321 57.696, 243.325 57.398 C 263.669 56.893, 265.315 56.713, 267.575 54.748 C 270.244 52.427, 270.697 49.823, 268.717 48.180 C 267.945 47.540, 259.087 46.922, 246.467 46.628 C 234.935 46.360, 223.201 45.845, 220.390 45.483 C 216.272 44.953, 215.165 45.128, 214.683 46.384 M 216 47.393 C 216 49.374, 218.585 50.108, 221.569 48.974 C 224.953 47.687, 223.746 46, 219.441 46 C 217.166 46, 216 46.472, 216 47.393 M 351.885 51.844 L 351.770 56.500 351.041 52.739 C 350.639 50.670, 350.049 48.716, 349.729 48.395 C 348.876 47.542, 347.111 54.558, 346.369 61.750 C 346.014 65.188, 345.448 68, 345.112 68 C 344.775 67.999, 342.563 65.749, 340.195 63 C 337.775 60.190, 335.037 58, 333.945 58 C 331.457 58, 331.486 58.399, 334.588 66.631 C 336.290 71.148, 336.996 74.613, 336.651 76.750 L 336.126 80 346.313 79.997 L 356.500 79.995 356.819 68.819 C 357.238 54.167, 356.439 48.348, 353.919 47.689 C 352.241 47.250, 351.986 47.771, 351.885 51.844 M 424.364 56.640 C 424.714 59.191, 425 62.341, 425 63.640 C 425 65.596, 425.514 66, 428 66 C 430.382 66, 431 65.567, 431 63.897 C 431 61.457, 425.925 52.003, 424.614 52.001 C 424.127 52, 424.014 54.088, 424.364 56.640 M 12.019 59.731 C 12.001 66.572, 12.132 66.995, 14.443 67.575 C 19.918 68.949, 20.107 65.347, 14.986 57.194 L 12.038 52.500 12.019 59.731 M 216 55.440 C 216 56.599, 217.050 57, 220.083 57 C 225.294 57, 224.948 54.635, 219.673 54.190 C 216.879 53.954, 216 54.253, 216 55.440 M 299.507 64.813 C 299.128 66.834, 297.765 71.078, 296.479 74.244 L 294.140 80 298.106 80 C 301.864 80, 302.174 79.760, 304.036 75.417 C 306.408 69.883, 306.490 67.677, 304.440 64.549 C 301.867 60.621, 300.278 60.707, 299.507 64.813 M 62 66.772 C 62 68.762, 68.686 75.314, 72.891 77.445 C 85.284 83.725, 101.351 82.069, 110.361 73.584 C 111.935 72.102, 113.285 71.027, 113.361 71.195 C 115.356 75.586, 117.946 77.618, 120.364 76.691 C 122.629 75.821, 122.411 71.792, 119.927 68.635 L 117.855 66 89.927 66 C 74.567 66, 62 66.347, 62 66.772 M 64.958 68.922 C 66.849 72.456, 73.445 77.053, 78.925 78.656 C 90.410 82.017, 105.553 78.209, 111.451 70.475 L 114.102 67 89.016 67 C 64.581 67, 63.956 67.050, 64.958 68.922 M 115 69.389 C 115 72.430, 118.266 76.572, 119.879 75.575 C 121.290 74.703, 120.466 71.301, 118.227 68.750 C 116.110 66.340, 115 66.559, 115 69.389 M 424.297 68.986 C 424.044 69.819, 423.444 71.490, 422.963 72.700 C 422.170 74.695, 422.481 74.982, 426.294 75.782 C 431.567 76.889, 433 75.868, 433 71.006 C 433 67.262, 432.994 67.257, 428.878 67.364 C 426.136 67.436, 424.602 67.979, 424.297 68.986 M 15.933 68.799 C 12.867 69.057, 12.187 69.594, 11.091 72.624 C 10.390 74.563, 9.970 76.299, 10.158 76.481 C 10.346 76.664, 12.577 77.122, 15.116 77.500 C 19.415 78.140, 19.760 78.026, 20.152 75.843 C 20.384 74.555, 20.332 72.375, 20.037 71 C 19.570 68.824, 19.038 68.539, 15.933 68.799 M 148.618 77.069 C 146.350 80.908, 147.098 82.025, 149.491 78.373 L 151.253 75.684 153.140 78.092 L 155.027 80.500 157.014 78.139 L 159 75.778 161 78.139 L 163 80.500 165 78.139 L 167 75.778 169 78.139 L 171 80.500 173 78.139 L 175 75.778 176.986 78.139 L 178.973 80.500 180.902 78.036 L 182.832 75.571 184.902 78.036 L 186.973 80.500 188.902 78.036 L 190.832 75.571 192.902 78.036 L 194.973 80.500 196.811 78.157 L 198.648 75.815 200.404 78.494 C 202.795 82.143, 203.646 80.902, 201.382 77.069 C 199.217 73.404, 198.608 73.301, 196.519 76.250 L 194.925 78.500 192.949 76 L 190.973 73.500 188.902 75.964 L 186.832 78.429 184.902 75.964 L 182.973 73.500 180.902 75.964 L 178.832 78.429 176.902 75.964 L 174.973 73.500 172.986 75.861 L 171 78.222 169.014 75.861 L 167.027 73.500 165.098 75.964 L 163.168 78.429 161.098 75.964 L 159.027 73.500 157.051 76 L 155.075 78.500 153.481 76.250 C 151.392 73.301, 150.783 73.404, 148.618 77.069" stroke="none" fill="#4c4c4c" fill-rule="evenodd"/><path d="M 0 38.625 L 0 77.250 3.125 76.625 C 4.844 76.281, 6.810 76, 7.495 76 C 9.723 76, 11.153 67.967, 10.610 58.491 C 10.130 50.093, 9.796 48.974, 5.548 41.524 C 0.712 33.043, 0.409 31.668, 2.064 25.707 L 3.118 21.915 10.309 22.207 L 17.500 22.500 17.822 26.500 C 18.091 29.846, 18.777 30.941, 22.018 33.202 C 26.122 36.065, 39.322 54.038, 44.655 64.024 C 46.390 67.274, 49.090 71.103, 50.655 72.534 C 52.551 74.268, 53.084 75.308, 52.252 75.651 C 51.461 75.977, 51.236 77.093, 51.638 78.695 L 52.273 81.225 46.887 80.498 C 39.446 79.492, 38.484 78.811, 33.386 70.930 C 30.920 67.118, 28.812 64.001, 28.702 64.002 C 28.591 64.004, 28.452 65.365, 28.392 67.027 C 28.248 71.066, 27.701 71.414, 24.276 69.643 L 21.367 68.138 21.795 71.056 C 22.031 72.661, 21.936 75.119, 21.585 76.517 L 20.947 79.060 10.473 78.383 L 0 77.705 0 87.855 L 0 98.004 235.250 97.752 L 470.500 97.500 470.766 48.750 L 471.031 0 235.516 0 L 0 0 0 38.625 M 0.454 39 C 0.454 60.175, 0.587 68.838, 0.749 58.250 C 0.911 47.663, 0.911 30.338, 0.749 19.750 C 0.587 9.163, 0.454 17.825, 0.454 39 M 387.567 20.891 C 387.267 21.377, 386.099 29.871, 384.972 39.766 L 382.924 57.757 388.650 63.260 L 394.376 68.763 394.115 74.381 C 393.879 79.483, 394.046 80, 395.927 80 C 397.764 80, 397.997 79.402, 397.978 74.750 C 397.918 60.545, 395.945 29.117, 394.931 26.220 C 393.781 22.932, 388.616 19.195, 387.567 20.891 M 416.090 20.899 C 415.265 21.435, 414.487 24.144, 414.215 27.425 C 413.780 32.667, 414.052 33.554, 418.375 40.994 L 423 48.954 423 58.828 C 423 64.258, 422.506 70.119, 421.902 71.851 C 420.868 74.819, 420.508 75.004, 415.652 75.070 C 412.818 75.109, 409.600 75.499, 408.500 75.937 C 407.298 76.416, 409.890 76.687, 415 76.617 C 419.675 76.553, 425.300 76.842, 427.500 77.261 C 432.968 78.300, 434.438 77.096, 434.472 71.546 C 434.494 67.889, 434.797 67.108, 436 67.606 C 440.367 69.414, 440.854 69.248, 441.179 65.848 L 441.500 62.500 445.620 69.020 C 450.707 77.070, 451.239 77.501, 457.799 78.883 C 465.179 80.438, 465.251 80.418, 464.500 77 C 464.037 74.890, 464.220 74, 465.117 74 C 465.818 74, 465.027 72.537, 463.358 70.750 C 461.689 68.963, 459.057 65.250, 457.510 62.500 C 451.859 52.458, 439.845 36.023, 435.342 32.174 C 431.796 29.143, 430.577 27.326, 430.098 24.362 L 429.473 20.500 423.487 20.241 C 420.194 20.099, 416.865 20.395, 416.090 20.899 M 64.031 23.463 C 63.363 24.267, 62.565 27.710, 62.256 31.114 C 61.440 40.111, 61.143 40, 86.040 40 C 97.402 40, 110.141 39.709, 114.349 39.353 L 122 38.707 122 30.353 L 122 22 118.469 22 C 114.615 22, 114.609 22.008, 113.034 30 L 111.950 35.500 93.475 35.642 L 75 35.784 75 31.892 C 75 29.751, 74.550 28, 74 28 C 73.450 28, 73 27.190, 73 26.200 C 73 25.210, 72.460 23.860, 71.800 23.200 C 70.139 21.539, 65.497 21.696, 64.031 23.463 M 148 24.383 C 148 25.943, 147.293 26.952, 145.955 27.302 C 144.093 27.789, 143.936 28.494, 144.205 35.168 L 144.500 42.500 175 42.500 L 205.500 42.500 205.792 34.750 C 206.065 27.518, 205.948 27, 204.042 27 C 202.687 27, 202 26.347, 202 25.059 C 202 23.991, 201.550 22.840, 201 22.500 C 200.430 22.148, 200 23.011, 200 24.504 C 200 26.861, 199.670 27.095, 196.750 26.813 C 194.252 26.573, 193.426 25.976, 193.179 24.235 C 192.794 21.529, 191 22.259, 191 25.122 C 191 26.777, 190.440 27.072, 187.789 26.813 C 185.348 26.575, 184.413 25.901, 183.889 24 L 183.199 21.500 183.100 24.250 C 183.011 26.707, 182.627 27, 179.500 27 C 176.702 27, 176 26.611, 176 25.059 C 176 23.991, 175.550 22.840, 175 22.500 C 174.430 22.148, 174 23.011, 174 24.504 C 174 26.855, 173.667 27.094, 170.789 26.813 C 168.330 26.573, 167.430 25.915, 166.942 24 L 166.305 21.500 165.903 24 C 165.563 26.107, 164.956 26.500, 162.045 26.500 C 159.212 26.500, 158.465 26.050, 157.895 24 L 157.199 21.500 157.100 24.250 C 157.011 26.707, 156.627 27, 153.500 27 C 150.433 27, 150 26.690, 150 24.500 C 150 23.125, 149.550 22, 149 22 C 148.450 22, 148 23.073, 148 24.383 M 285.500 24 C 284.505 25.100, 282.972 26.014, 282.095 26.032 C 280.993 26.054, 281.350 26.698, 283.250 28.115 C 285.354 29.685, 286 31.006, 286 33.739 C 286 36.131, 287.983 41.200, 292 49.080 C 295.300 55.553, 298 62.016, 298 63.444 C 298 64.871, 296.778 69.180, 295.284 73.019 L 292.568 80 288.284 80 C 285.928 80, 284 80.450, 284 81 C 284 81.611, 288.667 82, 296 82 C 303.333 82, 308 81.611, 308 81 C 308 80.450, 307.052 80, 305.893 80 C 304.609 80, 303.980 79.512, 304.283 78.750 C 304.557 78.063, 305.565 75.560, 306.523 73.189 C 307.861 69.880, 308.019 68.338, 307.205 66.551 C 306.163 64.265, 306.258 64.217, 312.585 63.814 C 316.633 63.556, 319.607 62.822, 320.591 61.838 C 322.012 60.417, 321.908 60.005, 319.463 57.386 C 317.982 55.799, 315.192 52.025, 313.264 49 C 309.806 43.575, 306.997 40.213, 301.898 35.393 C 300.467 34.040, 298.767 31.165, 298.119 29.003 C 296.146 22.417, 289.365 19.729, 285.500 24 M 342.515 23.984 C 341.225 25.409, 340.008 25.789, 338.195 25.334 C 336.090 24.806, 335.781 24.988, 336.336 26.432 C 336.701 27.384, 337 29.231, 337 30.536 C 337 32.484, 337.673 33.039, 340.750 33.630 C 342.813 34.026, 345.874 34.318, 347.552 34.280 C 351.074 34.198, 354.336 38.191, 355.376 43.855 C 355.888 46.642, 355.725 47.108, 354.414 46.605 C 353.546 46.272, 352.422 46, 351.914 46 C 351.407 46, 351.107 44.538, 351.246 42.750 C 351.472 39.856, 351.141 39.394, 348.225 38.536 C 346.202 37.941, 345.139 37.081, 345.444 36.286 C 346.369 33.874, 344.436 34.992, 342.753 37.841 C 341.601 39.792, 341.260 41.827, 341.667 44.333 C 342.036 46.608, 341.787 48.551, 341.007 49.492 C 340.189 50.477, 340.132 51, 340.842 51 C 341.440 51, 342.411 50.100, 343 49 C 343.589 47.900, 344.910 47, 345.937 47 C 347.693 47, 347.721 47.277, 346.402 51.659 C 345.631 54.221, 345 58.271, 345 60.659 C 345 63.047, 344.834 65, 344.632 65 C 344.429 65, 342.238 62.975, 339.763 60.500 C 334.848 55.585, 334.260 55.358, 331.557 57.335 C 329.807 58.614, 329.846 58.958, 332.474 65.527 C 334.484 70.551, 335.090 73.508, 334.742 76.593 C 334.290 80.610, 334.405 80.831, 337.259 81.402 C 341.919 82.334, 359.817 82.105, 360.435 81.105 C 360.740 80.612, 360.367 79.971, 359.607 79.680 C 358.527 79.265, 358.133 75.268, 357.798 61.325 C 357.359 43.015, 356.428 38.256, 352.673 35.143 C 351.214 33.933, 351.198 33.556, 352.518 31.670 C 354.540 28.784, 354.378 26.378, 352 24 C 349.441 21.441, 344.823 21.433, 342.515 23.984 M 388.671 22.794 C 388.455 23.182, 387.461 31.155, 386.463 40.511 L 384.648 57.522 390.074 62.711 L 395.500 67.901 395.801 65.120 C 396.501 58.646, 394.230 27.341, 392.906 25.222 C 391.438 22.871, 389.308 21.650, 388.671 22.794 M 415.488 26.250 C 414.686 31.620, 415.520 33.741, 423.364 46.287 C 426.876 51.904, 430.680 58.344, 431.817 60.597 C 433.860 64.646, 438.194 68.473, 439.385 67.281 C 439.723 66.943, 440 65.392, 440 63.833 C 440 59.140, 442.216 60.598, 447.500 68.769 C 452.295 76.183, 452.697 76.536, 457.299 77.367 C 459.939 77.844, 462.350 77.983, 462.657 77.676 C 462.964 77.369, 462.153 75.192, 460.854 72.838 C 459.203 69.846, 453.860 64.790, 443.089 56.029 C 425.730 41.911, 424.074 40.069, 426.527 37.616 C 427.416 36.727, 428.647 36, 429.263 36 C 429.878 36, 429.509 36.649, 428.441 37.441 C 426.903 38.583, 426.724 39.259, 427.579 40.691 C 428.553 42.324, 447.308 58.100, 454.346 63.208 L 457.193 65.273 455.467 61.887 C 451.921 54.927, 437.691 35.881, 433.425 32.385 C 429.780 29.398, 429 28.163, 429 25.380 L 429 22 422.561 22 L 416.123 22 415.488 26.250 M 3.630 25.250 C 1.981 31.406, 2.948 34.650, 9.853 46.118 C 13.622 52.378, 17.666 59.383, 18.840 61.684 C 20.795 65.518, 24.309 69, 26.223 69 C 26.650 69, 27 67.388, 27 65.417 C 27 60.253, 28.685 61.341, 34.500 70.257 C 38.275 76.046, 40.174 78.056, 42.250 78.462 C 43.763 78.758, 46.379 79.267, 48.064 79.594 L 51.129 80.187 48.564 75.127 C 46.473 70.999, 43.283 67.877, 31.250 58.175 C 23.138 51.634, 15.673 45.352, 14.662 44.215 C 12.408 41.680, 12.834 38.645, 15.511 38.172 C 17.495 37.821, 17.495 37.824, 15.513 39.320 C 13.531 40.816, 13.531 40.824, 15.513 43.037 C 17.463 45.213, 41.201 64.770, 43.971 66.482 C 47.912 68.918, 28.975 41.782, 21.836 34.763 C 17.282 30.286, 16 28.364, 16 26.013 C 16 23.004, 15.993 23, 10.117 23 C 4.861 23, 4.169 23.240, 3.630 25.250 M 65.067 24.419 C 64.389 25.236, 64.019 28.098, 64.195 31.169 L 64.500 36.500 68 36.655 C 69.925 36.740, 70.487 36.596, 69.250 36.335 C 65.910 35.631, 66.526 34, 70.132 34 C 73.213 34, 73.255 33.935, 72.722 29.961 C 72.424 27.739, 71.634 25.264, 70.967 24.461 C 69.427 22.604, 66.590 22.584, 65.067 24.419 M 114.716 29.250 C 113.934 32.688, 113.392 35.626, 113.512 35.781 C 113.631 35.935, 115.139 36.466, 116.864 36.961 L 120 37.860 120 30.430 C 120 23.755, 119.804 23, 118.069 23 C 116.519 23, 115.858 24.232, 114.716 29.250 M 286.636 24.849 C 285.121 26.524, 285.105 26.973, 286.475 29.599 C 287.307 31.195, 287.990 33.746, 287.994 35.268 C 287.997 36.791, 290.232 42.485, 292.961 47.922 C 299.264 60.482, 301.792 62.502, 311.204 62.496 C 320.019 62.490, 321.463 61.135, 317.328 56.752 C 315.640 54.963, 312.632 50.913, 310.642 47.750 C 308.653 44.587, 306.682 42.014, 306.262 42.032 C 304.296 42.114, 301.855 45.076, 302.029 47.170 C 302.346 51.007, 302.068 52, 300.674 52 C 297.090 52, 290.946 40.454, 293.285 38.115 C 293.898 37.502, 295.071 37, 295.891 37 C 297.029 37, 296.939 37.324, 295.514 38.366 C 293.829 39.598, 293.778 40.064, 294.988 43.116 C 297.454 49.336, 301.896 52.707, 300.548 47.336 C 300.011 45.195, 300.406 44.251, 302.560 42.534 L 305.240 40.397 301.120 36.492 C 298.580 34.085, 297 31.691, 297 30.248 C 297 27.437, 292.838 23, 290.200 23 C 289.161 23, 287.557 23.832, 286.636 24.849 M 343.473 25.030 C 340.839 27.940, 342.465 32.376, 346.329 32.822 C 349.950 33.240, 352 31.466, 352 27.913 C 352 23.201, 346.738 21.422, 343.473 25.030 M 418.401 26.160 C 418.116 26.622, 418.584 27, 419.441 27 C 420.318 27, 421 27.850, 421 28.941 C 421 31.912, 422.707 32.303, 423.412 29.493 C 423.763 28.098, 424.763 27, 425.686 27 C 426.592 27, 427.010 26.676, 426.614 26.281 C 425.587 25.253, 419.021 25.157, 418.401 26.160 M 6 28.136 C 6 28.611, 6.675 29, 7.500 29 C 8.333 29, 9 29.889, 9 31 C 9 32.100, 9.450 33, 10 33 C 10.550 33, 11 32.100, 11 31 C 11 29.889, 11.667 29, 12.500 29 C 13.325 29, 14 28.611, 14 28.136 C 14 27.661, 12.200 27.273, 10 27.273 C 7.800 27.273, 6 27.661, 6 28.136 M 146 35 L 146 42 175 42 L 204 42 204 35 L 204 28 175 28 L 146 28 146 35 M 353.583 32.866 C 352.947 33.894, 356.752 37.581, 357.587 36.746 C 358.344 35.989, 356.189 32, 355.024 32 C 354.526 32, 353.877 32.390, 353.583 32.866 M 84 37 C 80.578 37.419, 85.300 37.692, 96.500 37.722 C 108.436 37.754, 113.152 37.491, 110.500 36.943 C 105.884 35.988, 92.015 36.018, 84 37 M 343 42.392 C 343 44.120, 343.706 44.960, 345.546 45.422 C 348.832 46.247, 350 45.465, 350 42.441 C 350 40.318, 349.544 40, 346.500 40 C 343.476 40, 343 40.325, 343 42.392 M 214.683 46.384 C 213.252 50.112, 219.747 52.415, 223.559 49.532 C 225.116 48.354, 229.575 48.057, 246.128 48.032 C 268.509 47.997, 270.481 48.441, 267.415 52.818 C 265.932 54.936, 265.304 55, 246.065 55 C 230.457 55, 225.459 54.672, 222.549 53.456 C 218.657 51.830, 215.522 52.198, 214.685 54.379 C 213.839 56.583, 215.646 58.285, 218.644 58.108 C 220.215 58.016, 231.321 57.696, 243.325 57.398 C 263.669 56.893, 265.315 56.713, 267.575 54.748 C 270.244 52.427, 270.697 49.823, 268.717 48.180 C 267.945 47.540, 259.087 46.922, 246.467 46.628 C 234.935 46.360, 223.201 45.845, 220.390 45.483 C 216.272 44.953, 215.165 45.128, 214.683 46.384 M 216 47.393 C 216 49.374, 218.585 50.108, 221.569 48.974 C 224.953 47.687, 223.746 46, 219.441 46 C 217.166 46, 216 46.472, 216 47.393 M 351.885 51.844 L 351.770 56.500 351.041 52.739 C 350.639 50.670, 350.049 48.716, 349.729 48.395 C 348.876 47.542, 347.111 54.558, 346.369 61.750 C 346.014 65.188, 345.448 68, 345.112 68 C 344.775 67.999, 342.563 65.749, 340.195 63 C 337.775 60.190, 335.037 58, 333.945 58 C 331.457 58, 331.486 58.399, 334.588 66.631 C 336.290 71.148, 336.996 74.613, 336.651 76.750 L 336.126 80 346.313 79.997 L 356.500 79.995 356.819 68.819 C 357.238 54.167, 356.439 48.348, 353.919 47.689 C 352.241 47.250, 351.986 47.771, 351.885 51.844 M 424.364 56.640 C 424.714 59.191, 425 62.341, 425 63.640 C 425 65.596, 425.514 66, 428 66 C 430.382 66, 431 65.567, 431 63.897 C 431 61.457, 425.925 52.003, 424.614 52.001 C 424.127 52, 424.014 54.088, 424.364 56.640 M 12.019 59.731 C 12.001 66.572, 12.132 66.995, 14.443 67.575 C 19.918 68.949, 20.107 65.347, 14.986 57.194 L 12.038 52.500 12.019 59.731 M 216 55.440 C 216 56.599, 217.050 57, 220.083 57 C 225.294 57, 224.948 54.635, 219.673 54.190 C 216.879 53.954, 216 54.253, 216 55.440 M 299.507 64.813 C 299.128 66.834, 297.765 71.078, 296.479 74.244 L 294.140 80 298.106 80 C 301.864 80, 302.174 79.760, 304.036 75.417 C 306.408 69.883, 306.490 67.677, 304.440 64.549 C 301.867 60.621, 300.278 60.707, 299.507 64.813 M 62 66.772 C 62 68.762, 68.686 75.314, 72.891 77.445 C 85.284 83.725, 101.351 82.069, 110.361 73.584 C 111.935 72.102, 113.285 71.027, 113.361 71.195 C 115.356 75.586, 117.946 77.618, 120.364 76.691 C 122.629 75.821, 122.411 71.792, 119.927 68.635 L 117.855 66 89.927 66 C 74.567 66, 62 66.347, 62 66.772 M 64.958 68.922 C 66.849 72.456, 73.445 77.053, 78.925 78.656 C 90.410 82.017, 105.553 78.209, 111.451 70.475 L 114.102 67 89.016 67 C 64.581 67, 63.956 67.050, 64.958 68.922 M 115 69.389 C 115 72.430, 118.266 76.572, 119.879 75.575 C 121.290 74.703, 120.466 71.301, 118.227 68.750 C 116.110 66.340, 115 66.559, 115 69.389 M 424.297 68.986 C 424.044 69.819, 423.444 71.490, 422.963 72.700 C 422.170 74.695, 422.481 74.982, 426.294 75.782 C 431.567 76.889, 433 75.868, 433 71.006 C 433 67.262, 432.994 67.257, 428.878 67.364 C 426.136 67.436, 424.602 67.979, 424.297 68.986 M 15.933 68.799 C 12.867 69.057, 12.187 69.594, 11.091 72.624 C 10.390 74.563, 9.970 76.299, 10.158 76.481 C 10.346 76.664, 12.577 77.122, 15.116 77.500 C 19.415 78.140, 19.760 78.026, 20.152 75.843 C 20.384 74.555, 20.332 72.375, 20.037 71 C 19.570 68.824, 19.038 68.539, 15.933 68.799 M 148.618 77.069 C 146.350 80.908, 147.098 82.025, 149.491 78.373 L 151.253 75.684 153.140 78.092 L 155.027 80.500 157.014 78.139 L 159 75.778 161 78.139 L 163 80.500 165 78.139 L 167 75.778 169 78.139 L 171 80.500 173 78.139 L 175 75.778 176.986 78.139 L 178.973 80.500 180.902 78.036 L 182.832 75.571 184.902 78.036 L 186.973 80.500 188.902 78.036 L 190.832 75.571 192.902 78.036 L 194.973 80.500 196.811 78.157 L 198.648 75.815 200.404 78.494 C 202.795 82.143, 203.646 80.902, 201.382 77.069 C 199.217 73.404, 198.608 73.301, 196.519 76.250 L 194.925 78.500 192.949 76 L 190.973 73.500 188.902 75.964 L 186.832 78.429 184.902 75.964 L 182.973 73.500 180.902 75.964 L 178.832 78.429 176.902 75.964 L 174.973 73.500 172.986 75.861 L 171 78.222 169.014 75.861 L 167.027 73.500 165.098 75.964 L 163.168 78.429 161.098 75.964 L 159.027 73.500 157.051 76 L 155.075 78.500 153.481 76.250 C 151.392 73.301, 150.783 73.404, 148.618 77.069 M 0.370 88 C 0.370 93.775, 0.535 96.138, 0.737 93.250 C 0.939 90.362, 0.939 85.638, 0.737 82.750 C 0.535 79.862, 0.370 82.225, 0.370 88" stroke="none" fill="#f8f8f8" fill-rule="evenodd"/></svg>