<svg xmlns="http://www.w3.org/2000/svg" width="607" height="96" viewBox="0 0 607 96" version="1.1"><path d="M 569.299 14.960 C 560.730 20.184, 561.156 34.064, 570.030 38.785 C 574.034 40.915, 583.295 39.614, 586.428 36.481 C 590.006 32.903, 590.882 24.889, 588.229 20 C 584.694 13.485, 575.662 11.080, 569.299 14.960 M 301.493 15.011 C 301.157 15.555, 299.559 16, 297.941 16 C 296.323 16, 295 16.527, 295 17.171 C 295 17.815, 294.218 19.206, 293.263 20.262 C 291.706 21.982, 291.687 22.301, 293.075 23.340 C 293.927 23.978, 294.937 25.334, 295.320 26.354 C 295.749 27.496, 296.605 27.982, 297.548 27.620 C 298.390 27.297, 299.950 27.576, 301.015 28.241 C 302.531 29.188, 303.215 29.185, 304.175 28.225 C 304.849 27.551, 306.612 27, 308.093 27 C 309.574 27, 311.045 26.325, 311.362 25.500 C 312.115 23.538, 316.725 23.574, 326.614 25.619 C 338.977 28.176, 351.500 26.141, 351.500 21.576 C 351.500 17.307, 337.296 15.703, 324.093 18.480 C 316.466 20.085, 311.460 19.642, 310.555 17.284 C 310.212 16.388, 309.331 16.043, 308.351 16.419 C 307.453 16.763, 305.680 16.365, 304.411 15.534 C 302.986 14.600, 301.871 14.400, 301.493 15.011 M 467.888 16.809 C 465.462 18.977, 464.903 20.118, 465.439 21.809 C 465.822 23.014, 466.779 24, 467.567 24 C 469.951 24, 469.087 25.265, 463.013 30.665 C 457.875 35.233, 456.526 35.914, 451.351 36.549 C 444.310 37.414, 441 38.551, 441 40.105 C 441 40.910, 442.440 41.058, 445.750 40.592 C 448.363 40.224, 452.610 39.661, 455.190 39.340 C 458.305 38.953, 460.630 37.959, 462.114 36.379 C 463.343 35.070, 464.898 34, 465.569 34 C 466.821 34, 468.013 41.361, 467.022 42.965 C 466.725 43.446, 462.661 44.357, 457.991 44.990 C 453.321 45.624, 449.050 46.566, 448.500 47.083 C 447.950 47.601, 445.694 52.856, 443.487 58.762 L 439.475 69.500 435.487 70.346 C 433.294 70.811, 430.488 71.383, 429.250 71.615 C 428.012 71.848, 427 72.480, 427 73.019 C 427 74.149, 438.937 74.338, 440.623 73.235 C 441.240 72.831, 443.463 69.125, 445.563 65 L 449.381 57.500 450.133 61.500 C 451.728 69.988, 451.823 69.815, 444.083 72.562 C 440.999 73.657, 444.760 74.777, 449.812 74.268 L 455.123 73.734 454.812 63.365 L 454.500 52.996 465.095 52.998 C 478.386 53.001, 479.584 52.142, 478.666 43.275 C 478.264 39.397, 478.512 36.514, 479.419 34.500 L 480.770 31.500 482.385 35.218 C 484.399 39.855, 484.445 48.827, 482.468 51.441 C 480.641 53.856, 480.602 55, 482.345 55 C 486.951 55, 489.411 42.763, 486.541 34.122 C 485.017 29.534, 481.913 25.804, 478.738 24.746 C 477.915 24.472, 478.070 23.359, 479.271 20.929 C 480.908 17.614, 480.895 17.442, 478.872 15.750 C 475.766 13.154, 471.521 13.563, 467.888 16.809 M 521.401 15.431 C 520.277 16.219, 518.799 18.729, 518.115 21.010 C 517.056 24.546, 517.106 25.513, 518.459 27.578 C 519.531 29.213, 519.662 30, 518.864 30 C 518.214 30, 515.735 32.120, 513.357 34.711 L 509.031 39.423 505.516 36.015 C 503.582 34.141, 502 32.091, 502 31.459 C 502 30.194, 498.809 27, 497.546 27 C 497.108 27, 497.024 28.372, 497.360 30.050 C 497.971 33.104, 507.575 45, 509.430 45 C 509.972 45, 512.075 43.380, 514.103 41.399 L 517.791 37.798 518.895 42.948 C 520.187 48.968, 520.296 53.986, 519.174 55.752 C 518.595 56.664, 517.580 56.164, 515.439 53.913 C 512.518 50.840, 508.025 48, 506.085 48 C 503.662 48, 503.003 51.869, 504.340 58.244 C 505.661 64.547, 505.646 64.661, 503.089 67.646 C 501.665 69.308, 499.712 70.954, 498.750 71.303 C 497.788 71.652, 497 72.662, 497 73.548 C 497 74.846, 497.630 75.019, 500.250 74.439 C 503.525 73.713, 529.013 73.497, 534.402 74.149 C 538.577 74.654, 538.653 72.638, 534.515 71.141 L 531 69.871 531 58.435 C 531 45.979, 530.826 46.268, 537.166 48.168 C 543.198 49.975, 543.848 48.466, 540.464 40.503 C 537.672 33.934, 533.299 29, 530.268 29 C 528.859 29, 528.867 28.805, 530.345 27.171 C 532.992 24.246, 532.487 18.529, 529.365 16.073 C 526.266 13.635, 524.204 13.469, 521.401 15.431 M 572 15.813 C 572 16.260, 573.267 17.840, 574.816 19.323 L 577.632 22.021 579.921 19.585 C 581.179 18.245, 581.911 16.665, 581.546 16.074 C 580.779 14.833, 572 14.593, 572 15.813 M 474.703 18.469 C 476.819 21.375, 477.569 21.566, 478.396 19.410 C 479.267 17.141, 478.262 16, 475.394 16 C 472.931 16, 472.924 16.024, 474.703 18.469 M 522.041 17.450 C 521.044 18.652, 521.408 19.052, 524.169 19.785 C 527.007 20.539, 527.457 21.064, 527.212 23.335 C 527.012 25.191, 527.391 26, 528.462 26 C 531.012 26, 530.841 19.255, 528.240 17.250 C 526.081 15.586, 523.520 15.669, 522.041 17.450 M 568.250 17.662 C 566.143 18.513, 566.835 20.144, 570.750 23.557 L 574.500 26.825 571.250 30.210 C 569.462 32.072, 568 34.136, 568 34.798 C 568 36.875, 571.551 36.107, 574 33.500 C 576.935 30.376, 577.744 30.380, 581.041 33.539 C 583.398 35.798, 583.833 35.906, 584.982 34.522 C 586.070 33.211, 585.859 32.611, 583.636 30.702 C 580.368 27.893, 580.349 26.960, 583.500 24 C 584.875 22.708, 586 21.081, 586 20.385 C 586 17.627, 583.657 17.939, 580.347 21.138 L 576.866 24.500 573.420 20.750 C 571.524 18.688, 569.867 17.036, 569.737 17.079 C 569.606 17.122, 568.938 17.385, 568.250 17.662 M 297 19.500 C 295.915 20.808, 296.604 21, 302.378 21 C 308.916 21, 311.125 19.803, 306.750 18.630 C 302.759 17.561, 298.278 17.961, 297 19.500 M 331 19.114 C 328.525 19.611, 323.238 20.299, 319.250 20.641 C 315.262 20.983, 312 21.563, 312 21.931 C 312 22.298, 313.462 22.428, 315.250 22.219 C 317.038 22.011, 321.565 22.551, 325.312 23.420 C 333.173 25.243, 340.884 25.438, 346.250 23.947 C 350.858 22.668, 351.016 21.470, 346.750 20.147 C 341.494 18.518, 335.815 18.145, 331 19.114 M 468.792 19.057 C 466.874 20.175, 467.458 23, 469.607 23 C 471.973 23, 471.143 26.614, 468.500 27.818 C 465.631 29.125, 465.499 29.754, 467.532 32.441 C 468.393 33.580, 469 36.569, 469 39.672 C 469 45.623, 469.637 45.197, 458.118 46.957 C 450.702 48.089, 450.089 48.442, 452.912 49.953 C 454.181 50.632, 459.199 50.957, 465.748 50.784 L 476.500 50.500 476.587 44.500 C 476.728 34.715, 476.885 34.024, 479.590 31.319 C 481.615 29.294, 481.888 28.544, 480.840 27.880 C 480.103 27.413, 478.959 27.024, 478.297 27.015 C 477.635 27.007, 476.198 24.975, 475.103 22.500 C 473.083 17.933, 471.862 17.267, 468.792 19.057 M 10.506 20.250 C 10.269 20.938, 9.180 29.531, 8.086 39.348 L 6.097 57.195 11.884 62.553 L 17.672 67.912 17.212 73.456 C 16.787 78.585, 16.911 79, 18.876 79 C 21.405 79, 21.340 80.707, 19.978 50.196 C 18.938 26.912, 18.017 22.150, 14.150 20.080 C 11.565 18.697, 11.033 18.721, 10.506 20.250 M 34.727 21 C 33.329 22.100, 31.693 23, 31.092 23 C 30.492 23, 30 23.450, 30 24 C 30 24.550, 30.418 25, 30.929 25 C 32.948 25, 35 28.320, 35 31.587 C 35 33.799, 37.145 39.310, 41 47 C 44.300 53.583, 46.982 59.989, 46.960 61.235 C 46.939 62.481, 45.692 66.650, 44.190 70.500 L 41.458 77.500 36.479 78.093 L 31.500 78.686 37 78.952 C 46.132 79.393, 56.125 79.208, 56.748 78.586 C 57.070 78.264, 56.358 78, 55.167 78 C 52.578 78, 52.516 77.402, 54.588 72.443 C 55.462 70.352, 56.002 67.147, 55.789 65.320 C 55.404 62.022, 55.429 62, 59.636 62 C 67.930 62, 72.409 58.369, 68.260 55.009 C 67.120 54.086, 64.498 50.669, 62.434 47.415 C 60.371 44.162, 56.054 38.515, 52.841 34.866 C 49.628 31.218, 47 27.540, 47 26.693 C 47 24.144, 42.016 19, 39.546 19 C 38.294 19, 36.126 19.900, 34.727 21 M 151.727 21 C 150.329 22.100, 148.693 23, 148.092 23 C 146.343 23, 146.815 24.067, 149.500 26.179 C 151.302 27.596, 152 29.107, 152 31.588 C 152 33.799, 154.146 39.312, 158 47 C 161.300 53.583, 163.982 59.989, 163.960 61.235 C 163.939 62.481, 162.692 66.650, 161.190 70.500 L 158.458 77.500 153.479 78.093 C 150.376 78.462, 153.399 78.721, 161.500 78.780 C 170.558 78.845, 173.786 78.587, 172.145 77.930 C 170.412 77.236, 169.986 76.527, 170.530 75.244 C 173.383 68.515, 173.969 65.810, 172.976 63.954 C 172.008 62.147, 172.289 61.993, 176.715 61.900 C 186.963 61.687, 189.335 59.088, 184.251 53.644 C 182.636 51.915, 180.264 48.700, 178.980 46.500 C 177.696 44.300, 173.800 39.283, 170.322 35.350 C 166.845 31.418, 164 27.446, 164 26.524 C 164 24.223, 158.594 19, 156.212 19 C 155.144 19, 153.126 19.900, 151.727 21 M 200.479 20.250 C 200.227 20.938, 199.113 29.509, 198.004 39.297 L 195.988 57.095 201.830 62.503 L 207.672 67.912 207.212 73.456 C 206.787 78.585, 206.911 79, 208.876 79 C 211.417 79, 211.450 78.079, 210.010 47.262 C 209.024 26.160, 208.164 22.229, 204.055 20.030 C 201.570 18.699, 201.035 18.732, 200.479 20.250 M 11.601 23.084 C 11.315 24.413, 10.348 32.341, 9.452 40.702 L 7.823 55.905 13.411 61.629 L 19 67.353 18.936 60.927 C 18.901 57.392, 18.528 48.062, 18.107 40.194 C 17.381 26.594, 17.214 25.760, 14.732 23.278 L 12.122 20.667 11.601 23.084 M 35.671 22.450 C 34.209 23.558, 34.058 24.241, 34.921 25.852 C 35.514 26.961, 36 29.256, 36 30.951 C 36 32.691, 38.394 38.807, 41.498 44.995 C 46.283 54.537, 47.508 56.219, 50.958 57.978 C 55.162 60.123, 64.301 60.727, 66.974 59.037 C 68.229 58.244, 68.134 57.764, 66.334 55.803 C 65.172 54.536, 62.642 51.005, 60.712 47.957 C 56.154 40.756, 54.491 39.347, 52.500 41 C 51.675 41.685, 51 43.738, 51 45.563 C 51 47.389, 50.517 49.181, 49.926 49.546 C 46.859 51.441, 39.563 38.436, 42.027 35.467 C 43.412 33.799, 46 33.495, 46 35 C 46 35.550, 45.269 36, 44.375 36 C 42.120 36, 43.291 41.617, 46.190 44.702 C 49.005 47.699, 49.838 47.605, 49.218 44.362 C 48.841 42.387, 49.315 41.270, 51.107 39.915 L 53.500 38.106 49.875 34.303 C 47.882 32.211, 45.934 29.150, 45.547 27.500 C 44.163 21.592, 39.768 19.345, 35.671 22.450 M 152.565 22.329 C 151.080 23.415, 150.953 24.044, 151.873 25.763 C 152.493 26.921, 153 29.256, 153 30.951 C 153 32.691, 155.394 38.807, 158.498 44.995 C 163.283 54.537, 164.508 56.219, 167.958 57.978 C 172.337 60.213, 180.825 60.699, 184.172 58.908 C 186.166 57.841, 186.144 57.742, 183.237 54.658 C 181.599 52.921, 178.632 48.913, 176.642 45.750 C 172.706 39.492, 172.754 39.526, 169.934 41.035 C 168.603 41.748, 168 43.132, 168 45.476 C 168 47.349, 167.603 49.127, 167.118 49.427 C 163.984 51.364, 156.521 38.487, 159.027 35.467 C 159.697 34.660, 160.977 34.014, 161.872 34.032 C 163.266 34.059, 163.231 34.267, 161.629 35.481 C 159.402 37.167, 159.913 40.349, 163.051 44.338 C 165.693 47.697, 166.863 47.732, 166.232 44.435 C 165.879 42.587, 166.337 41.452, 167.871 40.378 C 170.746 38.364, 170.572 37.439, 166.618 33.699 C 164.758 31.940, 162.923 29.150, 162.540 27.500 C 161.178 21.629, 156.698 19.307, 152.565 22.329 M 201.655 22.677 C 201.366 23.680, 200.367 31.577, 199.434 40.228 L 197.738 55.955 203.460 61.678 L 209.183 67.400 208.511 48.950 C 207.803 29.500, 207.094 25.300, 204.053 22.548 C 202.290 20.952, 202.151 20.960, 201.655 22.677 M 522 23.107 C 522 23.716, 521.275 23.936, 520.389 23.596 C 519.209 23.143, 518.941 23.404, 519.389 24.570 C 519.725 25.447, 520 26.352, 520 26.582 C 520 26.812, 520.675 27, 521.500 27 C 524.055 27, 523.152 29.870, 520.100 31.448 C 518.506 32.273, 515.565 34.858, 513.567 37.193 C 510.334 40.970, 509.713 41.302, 507.944 40.197 C 506.106 39.049, 506.051 39.108, 507.218 40.977 C 509.015 43.854, 509.974 43.545, 514.121 38.750 C 516.143 36.413, 518.118 34.812, 518.509 35.194 C 520.044 36.690, 522.074 49.670, 521.471 54.132 L 520.845 58.764 524.838 57.698 C 528.753 56.653, 528.839 56.532, 529.208 51.566 C 529.561 46.815, 529.349 46.267, 525.792 42.751 C 523.706 40.689, 522 38.552, 522 38.001 C 522 36.263, 524.915 36.915, 527.152 39.152 C 529.226 41.226, 529.353 41.237, 530.652 39.461 C 531.393 38.447, 532 37.254, 532 36.809 C 532 36.364, 532.666 36, 533.480 36 C 535.354 36, 539.180 43.366, 538.384 45.442 C 537.995 46.454, 538.349 47, 539.393 47 C 541.519 47, 541.432 46.592, 537.697 39 C 535.069 33.656, 533.899 32.306, 531.119 31.407 C 527.724 30.310, 525.101 27.009, 525.035 23.750 C 524.998 21.879, 522 21.244, 522 23.107 M 565 26.441 C 565 31.881, 566.382 32.930, 569.585 29.921 L 572.021 27.632 569.323 24.816 C 567.840 23.267, 566.260 22, 565.813 22 C 565.366 22, 565 23.998, 565 26.441 M 296.850 24.250 C 297.538 24.938, 300.080 25.500, 302.500 25.500 C 304.920 25.500, 307.463 24.938, 308.150 24.250 C 309.150 23.250, 308.020 23, 302.500 23 C 296.980 23, 295.850 23.250, 296.850 24.250 M 584.500 25 C 582.753 26.930, 582.753 27.070, 584.500 29 C 587.166 31.946, 588 31.469, 588 27 C 588 22.531, 587.166 22.054, 584.500 25 M 574.655 34.829 C 572.219 37.521, 572.573 38, 577 38 C 581.399 38, 581.943 37.163, 579.171 34.655 C 576.884 32.585, 576.679 32.592, 574.655 34.829 M 240.175 36.289 C 239.587 36.997, 237.783 40.525, 236.167 44.128 C 230.926 55.808, 228.684 58.635, 224.076 59.372 C 221.426 59.796, 220 60.544, 220 61.512 C 220 62.643, 221.277 63, 225.325 63 L 230.651 63 235.205 55.750 C 237.710 51.762, 240.517 47.006, 241.442 45.179 C 243.544 41.030, 245.238 42.075, 247.356 48.827 C 250.384 58.477, 250.366 58.848, 246.829 59.764 C 241.326 61.190, 242.181 63, 248.358 63 C 251.396 63, 254.086 62.663, 254.336 62.250 C 255.281 60.688, 252.792 49.287, 250.287 43.704 C 246.877 36.107, 242.805 33.121, 240.175 36.289 M 241.245 38.250 C 240.695 38.938, 238.355 43.325, 236.044 48 C 233.733 52.675, 230.900 57.513, 229.747 58.750 C 228.594 59.987, 228.116 61, 228.684 61 C 229.919 61, 235.757 52.387, 239.413 45.172 C 240.854 42.327, 242.664 40, 243.435 40 C 246.545 40, 251.965 54.200, 250.701 59.034 C 250.379 60.268, 250.687 61, 251.531 61 C 254.324 61, 250.343 44.750, 246.403 40.067 C 243.558 36.685, 242.730 36.394, 241.245 38.250 M 373 38.948 C 373 40.591, 372.183 40.943, 367.769 41.198 C 363.072 41.469, 362.440 41.783, 361.569 44.272 C 360.761 46.580, 360.971 47.416, 362.826 49.272 C 364.977 51.423, 365.680 51.496, 383.277 51.374 C 393.300 51.304, 405.100 50.978, 409.500 50.649 C 413.900 50.319, 417.863 50.038, 418.307 50.025 C 418.752 50.011, 418.977 48.087, 418.807 45.750 L 418.500 41.500 412 40.903 C 408.425 40.575, 403.056 39.562, 400.068 38.653 C 396.451 37.552, 391.023 37, 383.818 37 C 373.763 37, 373 37.137, 373 38.948 M 379 38.913 C 371.321 39.733, 375.014 41, 385.082 41 C 389.992 41, 393 41.403, 393 42.060 C 393 42.765, 388.361 43.052, 379.136 42.917 C 371.511 42.805, 364.761 43.030, 364.136 43.416 C 362.198 44.614, 362.883 47.693, 365.465 49.385 C 368.816 51.581, 393.954 51.660, 402 49.500 C 405.025 48.688, 409.637 48.018, 412.250 48.012 C 416.647 48.001, 417 47.814, 417 45.500 C 417 43.251, 416.599 43, 413.013 43 C 410.819 43, 404.695 41.875, 399.403 40.500 C 389.609 37.955, 388.662 37.882, 379 38.913 M 532.483 39.202 C 531.677 41.280, 532.618 43, 534.559 43 C 536.383 43, 536.387 41.908, 534.571 39.441 C 533.264 37.664, 533.087 37.644, 532.483 39.202 M 91.500 43.408 C 84.243 45.070, 77.837 48.001, 78.306 49.444 C 78.494 50.025, 81.315 51.592, 84.574 52.927 C 95.465 57.386, 123.061 56.953, 133 52.167 C 138.339 49.596, 137.460 47.827, 129.500 45.118 C 120.718 42.129, 100.960 41.240, 91.500 43.408 M 90.711 45.507 C 87.527 46.313, 83.960 47.486, 82.785 48.115 L 80.647 49.259 83.074 50.518 C 92.079 55.187, 119.686 55.492, 131.369 51.050 C 132.816 50.500, 134 49.606, 134 49.063 C 134 45.222, 102.179 42.608, 90.711 45.507 M 591.667 45.667 C 590.563 46.770, 590.883 72, 592 72 C 592.617 72, 593 66.833, 593 58.500 C 593 51.075, 592.850 45, 592.667 45 C 592.483 45, 592.033 45.300, 591.667 45.667 M 446.750 54.785 C 444.457 61.313, 444.545 62.259, 447.059 58.135 C 448.187 56.284, 448.973 53.652, 448.805 52.286 C 448.556 50.259, 448.178 50.719, 446.750 54.785 M 505.510 51.250 C 505.275 51.938, 505.721 55.200, 506.500 58.500 L 507.917 64.500 507.447 59.500 C 507.188 56.750, 506.934 53.487, 506.882 52.250 C 506.779 49.765, 506.169 49.321, 505.510 51.250 M 451.134 54 C 451.190 55.925, 451.580 58.850, 452 60.500 C 452.664 63.111, 452.777 62.851, 452.866 58.500 C 452.923 55.750, 452.533 52.825, 452 52 C 451.280 50.885, 451.057 51.399, 451.134 54 M 508.514 51.977 C 508.181 52.517, 508.378 53.838, 508.954 54.914 C 509.529 55.989, 510 58.248, 510 59.934 C 510 63.514, 509.912 63.486, 514.400 61.346 L 517.867 59.693 515.279 56.299 C 512.265 52.347, 509.412 50.524, 508.514 51.977 M 566.253 60.250 C 562.756 62.694, 559.673 68.059, 560.197 70.790 C 560.484 72.289, 562.233 72.534, 574.348 72.779 L 588.172 73.058 587.488 69.779 C 585.380 59.674, 574.233 54.672, 566.253 60.250 M 48 62.020 C 48 63.681, 46.897 67.753, 45.550 71.070 C 43.581 75.916, 43.370 77.205, 44.477 77.629 C 47.648 78.846, 50.515 77.451, 52.196 73.872 C 55.320 67.222, 55.360 65.581, 52.480 62.158 C 49.153 58.204, 48 58.169, 48 62.020 M 165.918 59.128 C 165.873 59.333, 165.623 60.807, 165.363 62.405 C 165.103 64.003, 163.812 67.963, 162.495 71.206 C 159.917 77.548, 160.311 78.519, 165.177 77.829 C 168.512 77.357, 172.524 68.818, 171.344 64.704 C 170.655 62.302, 166.223 57.748, 165.918 59.128 M 520.500 60.866 C 510.949 64.306, 506.919 66.256, 507.258 67.274 C 507.460 67.879, 511.873 68.325, 518.050 68.365 L 528.500 68.433 528.805 63.717 C 529.161 58.207, 528.507 57.982, 520.500 60.866 M 315 60.659 C 308.017 61.142, 299.879 63.045, 295.676 65.177 C 292.536 66.769, 292.065 67.374, 293.046 68.555 C 296.574 72.806, 317.515 75.799, 332.024 74.125 C 340.635 73.131, 352 69.619, 352 67.951 C 352 63.732, 330.849 59.563, 315 60.659 M 566.051 62.750 C 564.412 64.263, 562.782 66.737, 562.427 68.250 L 561.783 71 573.892 71 C 580.551 71, 586 70.761, 586 70.468 C 586 70.175, 585.360 68.405, 584.579 66.534 C 581.757 59.782, 571.531 57.693, 566.051 62.750 M 310 63.032 C 302.833 63.879, 294.406 66.830, 295.685 68.044 C 297.737 69.993, 308.474 72.166, 318.500 72.661 C 329.493 73.203, 339.196 71.921, 346.500 68.963 L 349.500 67.747 345.500 65.954 C 337.966 62.576, 323.749 61.406, 310 63.032 M 504.188 69.739 C 504.631 72.035, 506.799 72.354, 515.904 71.461 C 521.773 70.885, 522.896 70.546, 520.844 69.969 C 519.383 69.559, 516.044 69.624, 513.424 70.113 C 509.662 70.816, 508.312 70.687, 507.002 69.501 C 504.807 67.516, 503.777 67.603, 504.188 69.739" stroke="none" fill="#6f6f6f" fill-rule="evenodd"/><path d="M 0 48.002 L 0 96.003 303.750 95.752 L 607.500 95.500 607.760 47.750 L 608.019 -0 304.010 -0 L 0 0 0 48.002 M 0.462 48.500 C 0.463 74.900, 0.592 85.556, 0.749 72.181 C 0.907 58.805, 0.907 37.205, 0.749 24.181 C 0.591 11.156, 0.462 22.100, 0.462 48.500 M 569.299 14.960 C 560.730 20.184, 561.156 34.064, 570.030 38.785 C 574.034 40.915, 583.295 39.614, 586.428 36.481 C 590.006 32.903, 590.882 24.889, 588.229 20 C 584.694 13.485, 575.662 11.080, 569.299 14.960 M 301.493 15.011 C 301.157 15.555, 299.559 16, 297.941 16 C 296.323 16, 295 16.527, 295 17.171 C 295 17.815, 294.218 19.206, 293.263 20.262 C 291.706 21.982, 291.687 22.301, 293.075 23.340 C 293.927 23.978, 294.937 25.334, 295.320 26.354 C 295.749 27.496, 296.605 27.982, 297.548 27.620 C 298.390 27.297, 299.950 27.576, 301.015 28.241 C 302.531 29.188, 303.215 29.185, 304.175 28.225 C 304.849 27.551, 306.612 27, 308.093 27 C 309.574 27, 311.045 26.325, 311.362 25.500 C 312.115 23.538, 316.725 23.574, 326.614 25.619 C 338.977 28.176, 351.500 26.141, 351.500 21.576 C 351.500 17.307, 337.296 15.703, 324.093 18.480 C 316.466 20.085, 311.460 19.642, 310.555 17.284 C 310.212 16.388, 309.331 16.043, 308.351 16.419 C 307.453 16.763, 305.680 16.365, 304.411 15.534 C 302.986 14.600, 301.871 14.400, 301.493 15.011 M 467.888 16.809 C 465.462 18.977, 464.903 20.118, 465.439 21.809 C 465.822 23.014, 466.779 24, 467.567 24 C 469.951 24, 469.087 25.265, 463.013 30.665 C 457.875 35.233, 456.526 35.914, 451.351 36.549 C 444.310 37.414, 441 38.551, 441 40.105 C 441 40.910, 442.440 41.058, 445.750 40.592 C 448.363 40.224, 452.610 39.661, 455.190 39.340 C 458.305 38.953, 460.630 37.959, 462.114 36.379 C 463.343 35.070, 464.898 34, 465.569 34 C 466.821 34, 468.013 41.361, 467.022 42.965 C 466.725 43.446, 462.661 44.357, 457.991 44.990 C 453.321 45.624, 449.050 46.566, 448.500 47.083 C 447.950 47.601, 445.694 52.856, 443.487 58.762 L 439.475 69.500 435.487 70.346 C 433.294 70.811, 430.488 71.383, 429.250 71.615 C 428.012 71.848, 427 72.480, 427 73.019 C 427 74.149, 438.937 74.338, 440.623 73.235 C 441.240 72.831, 443.463 69.125, 445.563 65 L 449.381 57.500 450.133 61.500 C 451.728 69.988, 451.823 69.815, 444.083 72.562 C 440.999 73.657, 444.760 74.777, 449.812 74.268 L 455.123 73.734 454.812 63.365 L 454.500 52.996 465.095 52.998 C 478.386 53.001, 479.584 52.142, 478.666 43.275 C 478.264 39.397, 478.512 36.514, 479.419 34.500 L 480.770 31.500 482.385 35.218 C 484.399 39.855, 484.445 48.827, 482.468 51.441 C 480.641 53.856, 480.602 55, 482.345 55 C 486.951 55, 489.411 42.763, 486.541 34.122 C 485.017 29.534, 481.913 25.804, 478.738 24.746 C 477.915 24.472, 478.070 23.359, 479.271 20.929 C 480.908 17.614, 480.895 17.442, 478.872 15.750 C 475.766 13.154, 471.521 13.563, 467.888 16.809 M 521.401 15.431 C 520.277 16.219, 518.799 18.729, 518.115 21.010 C 517.056 24.546, 517.106 25.513, 518.459 27.578 C 519.531 29.213, 519.662 30, 518.864 30 C 518.214 30, 515.735 32.120, 513.357 34.711 L 509.031 39.423 505.516 36.015 C 503.582 34.141, 502 32.091, 502 31.459 C 502 30.194, 498.809 27, 497.546 27 C 497.108 27, 497.024 28.372, 497.360 30.050 C 497.971 33.104, 507.575 45, 509.430 45 C 509.972 45, 512.075 43.380, 514.103 41.399 L 517.791 37.798 518.895 42.948 C 520.187 48.968, 520.296 53.986, 519.174 55.752 C 518.595 56.664, 517.580 56.164, 515.439 53.913 C 512.518 50.840, 508.025 48, 506.085 48 C 503.662 48, 503.003 51.869, 504.340 58.244 C 505.661 64.547, 505.646 64.661, 503.089 67.646 C 501.665 69.308, 499.712 70.954, 498.750 71.303 C 497.788 71.652, 497 72.662, 497 73.548 C 497 74.846, 497.630 75.019, 500.250 74.439 C 503.525 73.713, 529.013 73.497, 534.402 74.149 C 538.577 74.654, 538.653 72.638, 534.515 71.141 L 531 69.871 531 58.435 C 531 45.979, 530.826 46.268, 537.166 48.168 C 543.198 49.975, 543.848 48.466, 540.464 40.503 C 537.672 33.934, 533.299 29, 530.268 29 C 528.859 29, 528.867 28.805, 530.345 27.171 C 532.992 24.246, 532.487 18.529, 529.365 16.073 C 526.266 13.635, 524.204 13.469, 521.401 15.431 M 572 15.813 C 572 16.260, 573.267 17.840, 574.816 19.323 L 577.632 22.021 579.921 19.585 C 581.179 18.245, 581.911 16.665, 581.546 16.074 C 580.779 14.833, 572 14.593, 572 15.813 M 474.703 18.469 C 476.819 21.375, 477.569 21.566, 478.396 19.410 C 479.267 17.141, 478.262 16, 475.394 16 C 472.931 16, 472.924 16.024, 474.703 18.469 M 522.041 17.450 C 521.044 18.652, 521.408 19.052, 524.169 19.785 C 527.007 20.539, 527.457 21.064, 527.212 23.335 C 527.012 25.191, 527.391 26, 528.462 26 C 531.012 26, 530.841 19.255, 528.240 17.250 C 526.081 15.586, 523.520 15.669, 522.041 17.450 M 568.250 17.662 C 566.143 18.513, 566.835 20.144, 570.750 23.557 L 574.500 26.825 571.250 30.210 C 569.462 32.072, 568 34.136, 568 34.798 C 568 36.875, 571.551 36.107, 574 33.500 C 576.935 30.376, 577.744 30.380, 581.041 33.539 C 583.398 35.798, 583.833 35.906, 584.982 34.522 C 586.070 33.211, 585.859 32.611, 583.636 30.702 C 580.368 27.893, 580.349 26.960, 583.500 24 C 584.875 22.708, 586 21.081, 586 20.385 C 586 17.627, 583.657 17.939, 580.347 21.138 L 576.866 24.500 573.420 20.750 C 571.524 18.688, 569.867 17.036, 569.737 17.079 C 569.606 17.122, 568.938 17.385, 568.250 17.662 M 297 19.500 C 295.915 20.808, 296.604 21, 302.378 21 C 308.916 21, 311.125 19.803, 306.750 18.630 C 302.759 17.561, 298.278 17.961, 297 19.500 M 331 19.114 C 328.525 19.611, 323.238 20.299, 319.250 20.641 C 315.262 20.983, 312 21.563, 312 21.931 C 312 22.298, 313.462 22.428, 315.250 22.219 C 317.038 22.011, 321.565 22.551, 325.312 23.420 C 333.173 25.243, 340.884 25.438, 346.250 23.947 C 350.858 22.668, 351.016 21.470, 346.750 20.147 C 341.494 18.518, 335.815 18.145, 331 19.114 M 468.792 19.057 C 466.874 20.175, 467.458 23, 469.607 23 C 471.973 23, 471.143 26.614, 468.500 27.818 C 465.631 29.125, 465.499 29.754, 467.532 32.441 C 468.393 33.580, 469 36.569, 469 39.672 C 469 45.623, 469.637 45.197, 458.118 46.957 C 450.702 48.089, 450.089 48.442, 452.912 49.953 C 454.181 50.632, 459.199 50.957, 465.748 50.784 L 476.500 50.500 476.587 44.500 C 476.728 34.715, 476.885 34.024, 479.590 31.319 C 481.615 29.294, 481.888 28.544, 480.840 27.880 C 480.103 27.413, 478.959 27.024, 478.297 27.015 C 477.635 27.007, 476.198 24.975, 475.103 22.500 C 473.083 17.933, 471.862 17.267, 468.792 19.057 M 10.506 20.250 C 10.269 20.938, 9.180 29.531, 8.086 39.348 L 6.097 57.195 11.884 62.553 L 17.672 67.912 17.212 73.456 C 16.787 78.585, 16.911 79, 18.876 79 C 21.405 79, 21.340 80.707, 19.978 50.196 C 18.938 26.912, 18.017 22.150, 14.150 20.080 C 11.565 18.697, 11.033 18.721, 10.506 20.250 M 34.727 21 C 33.329 22.100, 31.693 23, 31.092 23 C 30.492 23, 30 23.450, 30 24 C 30 24.550, 30.418 25, 30.929 25 C 32.948 25, 35 28.320, 35 31.587 C 35 33.799, 37.145 39.310, 41 47 C 44.300 53.583, 46.982 59.989, 46.960 61.235 C 46.939 62.481, 45.692 66.650, 44.190 70.500 L 41.458 77.500 36.479 78.093 L 31.500 78.686 37 78.952 C 46.132 79.393, 56.125 79.208, 56.748 78.586 C 57.070 78.264, 56.358 78, 55.167 78 C 52.578 78, 52.516 77.402, 54.588 72.443 C 55.462 70.352, 56.002 67.147, 55.789 65.320 C 55.404 62.022, 55.429 62, 59.636 62 C 67.930 62, 72.409 58.369, 68.260 55.009 C 67.120 54.086, 64.498 50.669, 62.434 47.415 C 60.371 44.162, 56.054 38.515, 52.841 34.866 C 49.628 31.218, 47 27.540, 47 26.693 C 47 24.144, 42.016 19, 39.546 19 C 38.294 19, 36.126 19.900, 34.727 21 M 151.727 21 C 150.329 22.100, 148.693 23, 148.092 23 C 146.343 23, 146.815 24.067, 149.500 26.179 C 151.302 27.596, 152 29.107, 152 31.588 C 152 33.799, 154.146 39.312, 158 47 C 161.300 53.583, 163.982 59.989, 163.960 61.235 C 163.939 62.481, 162.692 66.650, 161.190 70.500 L 158.458 77.500 153.479 78.093 C 150.376 78.462, 153.399 78.721, 161.500 78.780 C 170.558 78.845, 173.786 78.587, 172.145 77.930 C 170.412 77.236, 169.986 76.527, 170.530 75.244 C 173.383 68.515, 173.969 65.810, 172.976 63.954 C 172.008 62.147, 172.289 61.993, 176.715 61.900 C 186.963 61.687, 189.335 59.088, 184.251 53.644 C 182.636 51.915, 180.264 48.700, 178.980 46.500 C 177.696 44.300, 173.800 39.283, 170.322 35.350 C 166.845 31.418, 164 27.446, 164 26.524 C 164 24.223, 158.594 19, 156.212 19 C 155.144 19, 153.126 19.900, 151.727 21 M 200.479 20.250 C 200.227 20.938, 199.113 29.509, 198.004 39.297 L 195.988 57.095 201.830 62.503 L 207.672 67.912 207.212 73.456 C 206.787 78.585, 206.911 79, 208.876 79 C 211.417 79, 211.450 78.079, 210.010 47.262 C 209.024 26.160, 208.164 22.229, 204.055 20.030 C 201.570 18.699, 201.035 18.732, 200.479 20.250 M 11.601 23.084 C 11.315 24.413, 10.348 32.341, 9.452 40.702 L 7.823 55.905 13.411 61.629 L 19 67.353 18.936 60.927 C 18.901 57.392, 18.528 48.062, 18.107 40.194 C 17.381 26.594, 17.214 25.760, 14.732 23.278 L 12.122 20.667 11.601 23.084 M 35.671 22.450 C 34.209 23.558, 34.058 24.241, 34.921 25.852 C 35.514 26.961, 36 29.256, 36 30.951 C 36 32.691, 38.394 38.807, 41.498 44.995 C 46.283 54.537, 47.508 56.219, 50.958 57.978 C 55.162 60.123, 64.301 60.727, 66.974 59.037 C 68.229 58.244, 68.134 57.764, 66.334 55.803 C 65.172 54.536, 62.642 51.005, 60.712 47.957 C 56.154 40.756, 54.491 39.347, 52.500 41 C 51.675 41.685, 51 43.738, 51 45.563 C 51 47.389, 50.517 49.181, 49.926 49.546 C 46.859 51.441, 39.563 38.436, 42.027 35.467 C 43.412 33.799, 46 33.495, 46 35 C 46 35.550, 45.269 36, 44.375 36 C 42.120 36, 43.291 41.617, 46.190 44.702 C 49.005 47.699, 49.838 47.605, 49.218 44.362 C 48.841 42.387, 49.315 41.270, 51.107 39.915 L 53.500 38.106 49.875 34.303 C 47.882 32.211, 45.934 29.150, 45.547 27.500 C 44.163 21.592, 39.768 19.345, 35.671 22.450 M 152.565 22.329 C 151.080 23.415, 150.953 24.044, 151.873 25.763 C 152.493 26.921, 153 29.256, 153 30.951 C 153 32.691, 155.394 38.807, 158.498 44.995 C 163.283 54.537, 164.508 56.219, 167.958 57.978 C 172.337 60.213, 180.825 60.699, 184.172 58.908 C 186.166 57.841, 186.144 57.742, 183.237 54.658 C 181.599 52.921, 178.632 48.913, 176.642 45.750 C 172.706 39.492, 172.754 39.526, 169.934 41.035 C 168.603 41.748, 168 43.132, 168 45.476 C 168 47.349, 167.603 49.127, 167.118 49.427 C 163.984 51.364, 156.521 38.487, 159.027 35.467 C 159.697 34.660, 160.977 34.014, 161.872 34.032 C 163.266 34.059, 163.231 34.267, 161.629 35.481 C 159.402 37.167, 159.913 40.349, 163.051 44.338 C 165.693 47.697, 166.863 47.732, 166.232 44.435 C 165.879 42.587, 166.337 41.452, 167.871 40.378 C 170.746 38.364, 170.572 37.439, 166.618 33.699 C 164.758 31.940, 162.923 29.150, 162.540 27.500 C 161.178 21.629, 156.698 19.307, 152.565 22.329 M 201.655 22.677 C 201.366 23.680, 200.367 31.577, 199.434 40.228 L 197.738 55.955 203.460 61.678 L 209.183 67.400 208.511 48.950 C 207.803 29.500, 207.094 25.300, 204.053 22.548 C 202.290 20.952, 202.151 20.960, 201.655 22.677 M 522 23.107 C 522 23.716, 521.275 23.936, 520.389 23.596 C 519.209 23.143, 518.941 23.404, 519.389 24.570 C 519.725 25.447, 520 26.352, 520 26.582 C 520 26.812, 520.675 27, 521.500 27 C 524.055 27, 523.152 29.870, 520.100 31.448 C 518.506 32.273, 515.565 34.858, 513.567 37.193 C 510.334 40.970, 509.713 41.302, 507.944 40.197 C 506.106 39.049, 506.051 39.108, 507.218 40.977 C 509.015 43.854, 509.974 43.545, 514.121 38.750 C 516.143 36.413, 518.118 34.812, 518.509 35.194 C 520.044 36.690, 522.074 49.670, 521.471 54.132 L 520.845 58.764 524.838 57.698 C 528.753 56.653, 528.839 56.532, 529.208 51.566 C 529.561 46.815, 529.349 46.267, 525.792 42.751 C 523.706 40.689, 522 38.552, 522 38.001 C 522 36.263, 524.915 36.915, 527.152 39.152 C 529.226 41.226, 529.353 41.237, 530.652 39.461 C 531.393 38.447, 532 37.254, 532 36.809 C 532 36.364, 532.666 36, 533.480 36 C 535.354 36, 539.180 43.366, 538.384 45.442 C 537.995 46.454, 538.349 47, 539.393 47 C 541.519 47, 541.432 46.592, 537.697 39 C 535.069 33.656, 533.899 32.306, 531.119 31.407 C 527.724 30.310, 525.101 27.009, 525.035 23.750 C 524.998 21.879, 522 21.244, 522 23.107 M 565 26.441 C 565 31.881, 566.382 32.930, 569.585 29.921 L 572.021 27.632 569.323 24.816 C 567.840 23.267, 566.260 22, 565.813 22 C 565.366 22, 565 23.998, 565 26.441 M 296.850 24.250 C 297.538 24.938, 300.080 25.500, 302.500 25.500 C 304.920 25.500, 307.463 24.938, 308.150 24.250 C 309.150 23.250, 308.020 23, 302.500 23 C 296.980 23, 295.850 23.250, 296.850 24.250 M 584.500 25 C 582.753 26.930, 582.753 27.070, 584.500 29 C 587.166 31.946, 588 31.469, 588 27 C 588 22.531, 587.166 22.054, 584.500 25 M 574.655 34.829 C 572.219 37.521, 572.573 38, 577 38 C 581.399 38, 581.943 37.163, 579.171 34.655 C 576.884 32.585, 576.679 32.592, 574.655 34.829 M 240.175 36.289 C 239.587 36.997, 237.783 40.525, 236.167 44.128 C 230.926 55.808, 228.684 58.635, 224.076 59.372 C 221.426 59.796, 220 60.544, 220 61.512 C 220 62.643, 221.277 63, 225.325 63 L 230.651 63 235.205 55.750 C 237.710 51.762, 240.517 47.006, 241.442 45.179 C 243.544 41.030, 245.238 42.075, 247.356 48.827 C 250.384 58.477, 250.366 58.848, 246.829 59.764 C 241.326 61.190, 242.181 63, 248.358 63 C 251.396 63, 254.086 62.663, 254.336 62.250 C 255.281 60.688, 252.792 49.287, 250.287 43.704 C 246.877 36.107, 242.805 33.121, 240.175 36.289 M 241.245 38.250 C 240.695 38.938, 238.355 43.325, 236.044 48 C 233.733 52.675, 230.900 57.513, 229.747 58.750 C 228.594 59.987, 228.116 61, 228.684 61 C 229.919 61, 235.757 52.387, 239.413 45.172 C 240.854 42.327, 242.664 40, 243.435 40 C 246.545 40, 251.965 54.200, 250.701 59.034 C 250.379 60.268, 250.687 61, 251.531 61 C 254.324 61, 250.343 44.750, 246.403 40.067 C 243.558 36.685, 242.730 36.394, 241.245 38.250 M 373 38.948 C 373 40.591, 372.183 40.943, 367.769 41.198 C 363.072 41.469, 362.440 41.783, 361.569 44.272 C 360.761 46.580, 360.971 47.416, 362.826 49.272 C 364.977 51.423, 365.680 51.496, 383.277 51.374 C 393.300 51.304, 405.100 50.978, 409.500 50.649 C 413.900 50.319, 417.863 50.038, 418.307 50.025 C 418.752 50.011, 418.977 48.087, 418.807 45.750 L 418.500 41.500 412 40.903 C 408.425 40.575, 403.056 39.562, 400.068 38.653 C 396.451 37.552, 391.023 37, 383.818 37 C 373.763 37, 373 37.137, 373 38.948 M 379 38.913 C 371.321 39.733, 375.014 41, 385.082 41 C 389.992 41, 393 41.403, 393 42.060 C 393 42.765, 388.361 43.052, 379.136 42.917 C 371.511 42.805, 364.761 43.030, 364.136 43.416 C 362.198 44.614, 362.883 47.693, 365.465 49.385 C 368.816 51.581, 393.954 51.660, 402 49.500 C 405.025 48.688, 409.637 48.018, 412.250 48.012 C 416.647 48.001, 417 47.814, 417 45.500 C 417 43.251, 416.599 43, 413.013 43 C 410.819 43, 404.695 41.875, 399.403 40.500 C 389.609 37.955, 388.662 37.882, 379 38.913 M 532.483 39.202 C 531.677 41.280, 532.618 43, 534.559 43 C 536.383 43, 536.387 41.908, 534.571 39.441 C 533.264 37.664, 533.087 37.644, 532.483 39.202 M 91.500 43.408 C 84.243 45.070, 77.837 48.001, 78.306 49.444 C 78.494 50.025, 81.315 51.592, 84.574 52.927 C 95.465 57.386, 123.061 56.953, 133 52.167 C 138.339 49.596, 137.460 47.827, 129.500 45.118 C 120.718 42.129, 100.960 41.240, 91.500 43.408 M 90.711 45.507 C 87.527 46.313, 83.960 47.486, 82.785 48.115 L 80.647 49.259 83.074 50.518 C 92.079 55.187, 119.686 55.492, 131.369 51.050 C 132.816 50.500, 134 49.606, 134 49.063 C 134 45.222, 102.179 42.608, 90.711 45.507 M 591.667 45.667 C 590.563 46.770, 590.883 72, 592 72 C 592.617 72, 593 66.833, 593 58.500 C 593 51.075, 592.850 45, 592.667 45 C 592.483 45, 592.033 45.300, 591.667 45.667 M 446.750 54.785 C 444.457 61.313, 444.545 62.259, 447.059 58.135 C 448.187 56.284, 448.973 53.652, 448.805 52.286 C 448.556 50.259, 448.178 50.719, 446.750 54.785 M 505.510 51.250 C 505.275 51.938, 505.721 55.200, 506.500 58.500 L 507.917 64.500 507.447 59.500 C 507.188 56.750, 506.934 53.487, 506.882 52.250 C 506.779 49.765, 506.169 49.321, 505.510 51.250 M 451.134 54 C 451.190 55.925, 451.580 58.850, 452 60.500 C 452.664 63.111, 452.777 62.851, 452.866 58.500 C 452.923 55.750, 452.533 52.825, 452 52 C 451.280 50.885, 451.057 51.399, 451.134 54 M 508.514 51.977 C 508.181 52.517, 508.378 53.838, 508.954 54.914 C 509.529 55.989, 510 58.248, 510 59.934 C 510 63.514, 509.912 63.486, 514.400 61.346 L 517.867 59.693 515.279 56.299 C 512.265 52.347, 509.412 50.524, 508.514 51.977 M 566.253 60.250 C 562.756 62.694, 559.673 68.059, 560.197 70.790 C 560.484 72.289, 562.233 72.534, 574.348 72.779 L 588.172 73.058 587.488 69.779 C 585.380 59.674, 574.233 54.672, 566.253 60.250 M 48 62.020 C 48 63.681, 46.897 67.753, 45.550 71.070 C 43.581 75.916, 43.370 77.205, 44.477 77.629 C 47.648 78.846, 50.515 77.451, 52.196 73.872 C 55.320 67.222, 55.360 65.581, 52.480 62.158 C 49.153 58.204, 48 58.169, 48 62.020 M 165.918 59.128 C 165.873 59.333, 165.623 60.807, 165.363 62.405 C 165.103 64.003, 163.812 67.963, 162.495 71.206 C 159.917 77.548, 160.311 78.519, 165.177 77.829 C 168.512 77.357, 172.524 68.818, 171.344 64.704 C 170.655 62.302, 166.223 57.748, 165.918 59.128 M 520.500 60.866 C 510.949 64.306, 506.919 66.256, 507.258 67.274 C 507.460 67.879, 511.873 68.325, 518.050 68.365 L 528.500 68.433 528.805 63.717 C 529.161 58.207, 528.507 57.982, 520.500 60.866 M 315 60.659 C 308.017 61.142, 299.879 63.045, 295.676 65.177 C 292.536 66.769, 292.065 67.374, 293.046 68.555 C 296.574 72.806, 317.515 75.799, 332.024 74.125 C 340.635 73.131, 352 69.619, 352 67.951 C 352 63.732, 330.849 59.563, 315 60.659 M 566.051 62.750 C 564.412 64.263, 562.782 66.737, 562.427 68.250 L 561.783 71 573.892 71 C 580.551 71, 586 70.761, 586 70.468 C 586 70.175, 585.360 68.405, 584.579 66.534 C 581.757 59.782, 571.531 57.693, 566.051 62.750 M 310 63.032 C 302.833 63.879, 294.406 66.830, 295.685 68.044 C 297.737 69.993, 308.474 72.166, 318.500 72.661 C 329.493 73.203, 339.196 71.921, 346.500 68.963 L 349.500 67.747 345.500 65.954 C 337.966 62.576, 323.749 61.406, 310 63.032 M 504.188 69.739 C 504.631 72.035, 506.799 72.354, 515.904 71.461 C 521.773 70.885, 522.896 70.546, 520.844 69.969 C 519.383 69.559, 516.044 69.624, 513.424 70.113 C 509.662 70.816, 508.312 70.687, 507.002 69.501 C 504.807 67.516, 503.777 67.603, 504.188 69.739" stroke="none" fill="#f8f8f8" fill-rule="evenodd"/></svg>