<svg xmlns="http://www.w3.org/2000/svg" width="1118" height="128" viewBox="0 0 1118 128" version="1.1"><path d="M 9.522 20.351 C 9.231 22.083, 7.850 34.205, 6.454 47.288 L 3.915 71.076 12.002 78.684 L 20.088 86.291 19.794 94.395 C 19.513 102.142, 19.599 102.514, 21.750 102.820 C 24.476 103.207, 24.403 105.450, 22.989 65 C 21.818 31.507, 21.091 26.312, 16.913 21.553 C 12.716 16.773, 10.194 16.363, 9.522 20.351 M 46.334 18.518 C 44.776 19.183, 42.643 20.688, 41.595 21.863 C 40.547 23.039, 38.972 24.018, 38.095 24.040 C 37.110 24.065, 37.541 24.645, 39.225 25.559 C 42.838 27.520, 44 29.926, 44 35.450 C 44 39.042, 45.270 42.564, 49.882 51.765 C 53.117 58.219, 56.978 66.383, 58.461 69.908 C 61.546 77.237, 61.403 78.537, 55.933 92.860 L 52.825 101 46.412 101 C 42.804 101, 40 101.437, 40 102 C 40 102.629, 46.500 103, 57.500 103 C 68.500 103, 75 102.629, 75 102 C 75 101.450, 73.425 101, 71.500 101 C 69.575 101, 68 100.853, 68 100.672 C 68 100.492, 69.125 97.576, 70.500 94.192 C 73.104 87.784, 73.753 81.153, 71.952 79.352 C 71.221 78.621, 73.284 78.120, 78.767 77.697 C 83.092 77.364, 87.838 76.632, 89.315 76.070 C 93.106 74.629, 92.775 71.273, 88.424 67.046 C 86.469 65.146, 83.242 60.681, 81.253 57.124 C 77.641 50.665, 72.446 44.049, 65.059 36.500 C 62.486 33.871, 60.903 31.175, 60.439 28.633 C 59.607 24.074, 55.001 18.425, 51.583 17.771 C 50.255 17.517, 47.893 17.853, 46.334 18.518 M 401.979 19.525 C 401.174 20.495, 399.399 20.950, 397.106 20.775 C 394.192 20.553, 393.498 20.848, 393.492 22.313 C 393.488 23.310, 392.363 25.004, 390.992 26.077 L 388.500 28.027 390.643 29.837 C 391.821 30.832, 392.952 32.514, 393.155 33.573 C 393.439 35.054, 394.439 35.536, 397.480 35.654 C 399.656 35.739, 401.601 36.302, 401.801 36.904 C 402.327 38.480, 404.890 38.253, 406.670 36.473 C 407.746 35.397, 409.201 35.135, 411.598 35.584 C 414.544 36.137, 415 35.955, 415 34.228 C 415 30.384, 423.851 29.949, 438.047 33.094 C 449.826 35.704, 462.163 35.349, 469.296 32.193 C 477.279 28.662, 475.313 25.229, 463.742 22.501 C 455.422 20.540, 450.326 20.646, 439.098 23.016 C 426.867 25.597, 416.196 25.702, 415.292 23.250 C 414.433 20.922, 412.806 19.923, 411.534 20.942 C 410.277 21.948, 406 20.472, 406 19.032 C 406 17.477, 403.416 17.793, 401.979 19.525 M 640.003 21.750 C 636.767 24.847, 636.184 25.979, 636.659 28.250 C 637.022 29.991, 637.879 31, 638.994 31 C 639.963 31, 641.315 31.675, 642 32.500 C 643.017 33.725, 642.957 34, 641.670 34 C 640.804 34, 637.036 37.095, 633.298 40.878 C 627.394 46.851, 625.803 47.904, 621.201 48.878 C 618.286 49.495, 614.500 50, 612.787 50 C 608.724 50, 602 52.992, 602 54.799 C 602 55.746, 602.579 55.983, 603.750 55.516 C 604.712 55.132, 606.850 54.651, 608.500 54.448 C 629.110 51.908, 628.234 52.149, 632.729 47.757 C 635.055 45.484, 637.274 43.940, 637.659 44.326 C 638.711 45.378, 640.087 58.314, 639.237 59.162 C 638.832 59.567, 632.703 60.784, 625.617 61.867 C 618.532 62.950, 612.190 64.436, 611.524 65.168 C 610.858 65.901, 608.159 72.800, 605.524 80.500 C 602.890 88.200, 600.093 95.240, 599.307 96.146 C 598.522 97.051, 595.769 98.086, 593.190 98.446 C 583.534 99.794, 582 100.236, 582 101.663 C 582 102.856, 583.506 102.996, 590.750 102.473 C 595.563 102.126, 599.975 101.701, 600.555 101.528 C 601.135 101.354, 604.272 95.877, 607.526 89.356 L 613.443 77.500 614.748 84.500 C 615.465 88.350, 615.928 93.074, 615.776 94.998 C 615.514 98.323, 615.255 98.548, 610.570 99.537 C 607.859 100.109, 605.459 101.123, 605.237 101.789 C 604.676 103.472, 619.584 103.482, 620.625 101.798 C 621.449 100.464, 621.263 82.890, 620.355 76.250 L 619.773 72 635.731 72 C 655.784 72, 655.046 72.547, 654.728 57.921 C 654.534 49.014, 654.789 47.008, 656.434 44.480 L 658.368 41.508 660.623 46.504 C 663.751 53.436, 663.962 66.962, 661 70.727 C 658.977 73.299, 658.351 76, 659.777 76 C 660.205 76, 661.936 74.738, 663.624 73.197 C 666.455 70.610, 666.748 69.714, 667.404 61.626 C 668.016 54.090, 667.814 51.950, 665.965 46.396 C 663.412 38.722, 659.944 34.243, 656.223 33.813 C 652.788 33.416, 652.214 30.760, 654.933 27.842 C 657.575 25.005, 657.645 20.415, 655.066 19.035 C 654.002 18.466, 651.059 18, 648.527 18 C 644.570 18, 643.372 18.527, 640.003 21.750 M 716.161 19.750 C 715.028 20.712, 712.969 24.108, 711.585 27.295 C 709.524 32.045, 709.328 33.188, 710.497 33.637 C 711.282 33.938, 712.196 35.043, 712.529 36.092 C 712.874 37.178, 714.076 38.020, 715.317 38.047 C 716.933 38.081, 716.315 38.711, 712.936 40.471 C 710.425 41.779, 706.214 45.375, 703.578 48.461 L 698.784 54.072 693.642 49.291 C 690.814 46.662, 688.155 43.291, 687.733 41.800 C 686.822 38.579, 683.027 35.573, 681.633 36.967 C 681.035 37.565, 681.148 38.473, 681.937 39.424 C 682.626 40.254, 682.984 41.510, 682.733 42.216 C 682.483 42.922, 684.353 45.771, 686.889 48.546 C 689.425 51.322, 692.924 55.259, 694.665 57.296 C 696.405 59.333, 698.517 61, 699.357 61 C 700.197 61, 703.023 58.523, 705.637 55.495 C 708.251 52.467, 710.693 50.330, 711.063 50.745 C 711.433 51.160, 712.443 55.460, 713.309 60.301 C 714.556 67.279, 714.661 70.359, 713.813 75.174 L 712.743 81.246 710.127 77.873 C 703.870 69.805, 695.420 64.577, 692.523 66.981 C 690.582 68.592, 690.605 71.516, 692.636 81.749 L 694.273 89.997 691.637 92.071 C 690.186 93.212, 689 94.994, 689 96.032 C 689 97.368, 687.830 98.270, 685 99.118 C 679.040 100.904, 679.578 103.442, 685.750 102.653 C 693.138 101.710, 726.771 101.577, 733.876 102.463 C 738.892 103.089, 740.162 102.985, 739.825 101.974 C 739.589 101.268, 737.493 100.128, 735.167 99.441 C 730.344 98.017, 727.756 96.204, 728.599 94.839 C 728.917 94.325, 729.249 87.214, 729.338 79.035 C 729.427 70.857, 729.828 63.837, 730.230 63.436 C 730.631 63.035, 733.484 63.673, 736.569 64.854 C 747.652 69.095, 748.433 67.174, 741.586 52.521 C 736.999 42.706, 733.355 39.012, 728.250 39.004 C 725.407 38.999, 725.432 38.659, 728.500 35.591 C 730.494 33.597, 731 32.088, 731 28.134 C 731 23.827, 730.597 22.839, 727.923 20.589 C 724.290 17.532, 719.200 17.169, 716.161 19.750 M 10.172 28.788 C 9.567 34.130, 8.319 45.700, 7.399 54.500 L 5.727 70.500 13.595 78.185 C 17.923 82.412, 21.600 85.733, 21.768 85.565 C 22.532 84.802, 19.791 31.107, 18.830 28 C 17.673 24.262, 15.533 21.356, 12.898 19.945 C 11.481 19.187, 11.133 20.315, 10.172 28.788 M 45.250 20.989 C 41.666 23.174, 41.262 24.527, 43.467 26.963 C 44.274 27.855, 45.239 31.265, 45.612 34.542 C 46.121 39.013, 48.100 44.243, 53.543 55.500 C 60.657 70.212, 60.896 70.555, 66.008 73.370 C 70.850 76.035, 71.819 76.208, 79.647 75.797 C 90.571 75.224, 92.407 73.769, 88.012 69.170 C 84.865 65.876, 78.011 55.712, 77.985 54.298 C 77.977 53.859, 76.481 51.740, 74.662 49.589 L 71.353 45.679 68.217 47.997 C 65.322 50.138, 65.127 50.648, 65.674 54.638 C 66.153 58.129, 65.941 59.085, 64.574 59.610 C 61.006 60.979, 53 49.863, 53 43.540 C 53 40.744, 55.266 38.683, 57.702 39.263 C 59.354 39.656, 59.338 39.758, 57.500 40.522 C 56.400 40.980, 55.200 41.803, 54.833 42.351 C 53.737 43.991, 57.894 53.277, 61.167 56.500 L 64.214 59.500 63.755 54.262 C 63.309 49.178, 63.396 48.964, 66.688 47.021 C 70.722 44.641, 70.436 43.723, 63.577 37.042 C 60.714 34.253, 59 31.707, 59 30.242 C 59 25.374, 53.907 18.994, 50.027 19.004 C 49.187 19.006, 47.038 19.899, 45.250 20.989 M 648.295 22.309 C 649.508 23.579, 650.989 25.475, 651.586 26.523 C 652.616 28.328, 652.767 28.286, 654.446 25.722 C 657.066 21.724, 655.900 20, 650.577 20 L 646.091 20 648.295 22.309 M 716.200 21.200 C 715.540 21.860, 715 22.936, 715 23.592 C 715 24.823, 718.993 26.341, 722.500 26.442 C 724.155 26.490, 724.500 27.186, 724.500 30.476 C 724.500 33.431, 724.940 34.539, 726.214 34.792 C 729.819 35.509, 730.525 24.653, 727.056 21.844 C 724.474 19.754, 718.029 19.371, 716.200 21.200 M 643 21.903 C 643 22.533, 641.829 23.495, 640.398 24.039 C 638.620 24.715, 637.987 25.524, 638.398 26.596 C 638.729 27.458, 639 28.545, 639 29.012 C 639 29.479, 640.013 30.005, 641.250 30.180 C 644.200 30.599, 644.911 34.576, 642.190 35.440 C 641.131 35.776, 639.532 36.860, 638.637 37.849 C 637.131 39.512, 637.154 39.944, 638.947 43.654 C 641.363 48.655, 641.937 58.524, 639.923 60.427 C 639.140 61.167, 633.357 62.503, 627.072 63.397 C 620.786 64.292, 615.393 65.274, 615.086 65.580 C 614.780 65.886, 615.629 66.966, 616.972 67.979 C 619.019 69.523, 621.771 69.884, 633.957 70.205 C 641.956 70.417, 649.578 70.218, 650.896 69.764 C 653.239 68.957, 653.279 68.747, 652.696 60.483 C 651.907 49.296, 653.811 42.275, 658.073 40.666 C 659.683 40.059, 661 39.236, 661 38.837 C 661 37.665, 656.704 35, 654.814 35 C 653.691 35, 652.086 32.983, 650.287 29.309 C 647.671 23.967, 643 19.220, 643 21.903 M 220.392 23.494 C 218.801 24.172, 216.643 25.688, 215.595 26.863 C 214.547 28.039, 212.747 29.018, 211.595 29.039 C 209.958 29.070, 210.193 29.380, 212.671 30.458 C 216.688 32.205, 218 34.675, 218 40.491 C 218 44.309, 219.478 48.030, 226.500 61.886 C 232.951 74.614, 234.993 79.603, 234.969 82.579 C 234.952 84.736, 233.253 90.775, 231.194 96 L 227.449 105.500 220.725 105.796 C 217.026 105.958, 214 106.521, 214 107.046 C 214 107.616, 221.241 108, 232 108 C 243.333 108, 250 107.630, 250 107 C 250 106.450, 248.425 106, 246.500 106 C 244.575 106, 243 105.761, 243 105.470 C 243 105.178, 244.125 102.267, 245.500 99 C 248.165 92.667, 248.644 88.072, 246.965 84.934 C 246.007 83.144, 246.295 83, 250.828 83 C 253.523 83, 258.128 82.545, 261.062 81.988 C 268.956 80.491, 270.006 77.874, 264.662 73.011 C 262.825 71.340, 259.563 66.943, 257.412 63.239 C 255.260 59.536, 249.338 51.879, 244.250 46.222 C 239.033 40.423, 235 35.058, 235 33.920 C 235 26.803, 226.635 20.833, 220.392 23.494 M 397.079 23.265 C 395.747 23.944, 394.472 25.063, 394.246 25.750 C 393.934 26.695, 396.313 27, 404 27 C 411.685 27, 414.067 26.695, 413.758 25.750 C 412.753 22.674, 401.517 21, 397.079 23.265 M 760 40.487 L 760 59 769.500 59 C 775.167 59, 779 58.596, 779 58 C 779 57.412, 775.500 57, 770.500 57 L 762 57 762 40.500 L 762 24 794 24 L 826 24 826 40.500 L 826 57 817.500 57 C 812.295 57, 809 57.402, 809 58.038 C 809 58.700, 812.342 58.971, 818.250 58.788 L 827.500 58.500 827.500 40.500 L 827.500 22.500 793.750 22.237 L 760 21.973 760 40.487 M 964.278 22.744 L 956.056 23.080 954.925 27.279 C 952.717 35.480, 954.031 41.668, 960.228 52.254 L 965.855 61.865 966.089 77.682 C 966.282 90.681, 966.025 94.168, 964.648 97.250 L 962.973 101 955.237 101.015 C 948.422 101.029, 943.641 102.098, 945.029 103.299 C 945.288 103.523, 949.037 103.354, 953.360 102.924 C 960.427 102.220, 965.199 102.576, 974.500 104.503 C 979.689 105.578, 981.500 103.270, 981.500 95.581 C 981.500 91.961, 981.672 89, 981.882 89 C 982.092 89, 983.803 89.951, 985.685 91.114 C 987.566 92.277, 989.352 92.981, 989.654 92.679 C 989.956 92.378, 990.494 89.840, 990.851 87.039 L 991.500 81.948 997.780 92.433 C 1001.233 98.200, 1004.608 103.274, 1005.280 103.709 C 1007.317 105.029, 1022.444 107.824, 1023.298 107.038 C 1023.737 106.635, 1023.530 105.061, 1022.837 103.543 C 1021.752 101.160, 1021.817 100.607, 1023.312 99.514 C 1024.900 98.353, 1024.754 97.991, 1021.563 95.190 C 1019.648 93.508, 1015.994 88.175, 1013.442 83.337 C 1006.077 69.373, 987.276 42.364, 982.573 38.993 C 976.069 34.330, 976 34.221, 976 28.568 C 976 24.608, 975.588 23.056, 974.418 22.607 C 973.548 22.273, 972.761 22.092, 972.668 22.204 C 972.576 22.315, 968.800 22.558, 964.278 22.744 M 286.991 24.250 C 286.986 24.938, 285.636 36.975, 283.991 51 L 281 76.500 283.750 78.481 C 285.263 79.570, 289.069 83.111, 292.210 86.348 L 297.919 92.235 297.311 100.118 L 296.704 108 299.352 108 C 302.555 108, 302.462 110.259, 300.947 69.500 C 299.669 35.142, 299.023 30.823, 294.484 26.284 C 291.213 23.013, 287.008 21.872, 286.991 24.250 M 437 25.151 C 431.978 26.316, 426.029 26.995, 422.462 26.811 C 417.353 26.548, 416.424 26.758, 416.426 28.178 C 416.428 29.585, 417.175 29.767, 421.061 29.306 C 424.037 28.954, 429.386 29.561, 436.019 31.004 C 448.088 33.630, 462.733 33.460, 469.437 30.616 C 472.959 29.122, 473.214 28.785, 471.855 27.427 C 467.407 22.979, 450.993 21.907, 437 25.151 M 218.189 26.631 L 214.878 29.241 217.025 31.527 C 218.528 33.126, 219.333 35.580, 219.706 39.700 C 220.139 44.466, 221.692 48.432, 227.870 60.543 C 235.187 74.886, 235.705 75.612, 240.500 78.227 C 244.497 80.406, 246.829 80.958, 252.125 80.977 C 260.498 81.006, 265.020 80.112, 265.720 78.287 C 266.032 77.473, 264.745 75.277, 262.728 73.179 C 260.780 71.156, 257.139 66.100, 254.636 61.944 C 252.133 57.788, 249.200 53.586, 248.119 52.607 C 246.226 50.894, 246.034 50.915, 242.999 53.159 C 240.108 55.296, 239.897 55.830, 240.461 59.591 C 240.891 62.456, 240.666 64.032, 239.715 64.822 C 237.453 66.699, 230.828 59.482, 228.485 52.587 C 226.550 46.894, 226.549 46.803, 228.454 45.410 C 230.698 43.769, 233 43.562, 233 45 C 233 45.550, 232.100 46, 231 46 C 229.695 46, 229 46.667, 229 47.917 C 229 51.303, 232.674 58.411, 236.020 61.500 L 239.270 64.500 238.682 59.251 C 238.120 54.225, 238.217 53.939, 240.984 52.508 C 242.573 51.687, 244.155 50.558, 244.500 50 C 244.845 49.442, 242.664 46.401, 239.654 43.242 C 236.008 39.418, 233.959 36.331, 233.519 34 C 232.761 29.987, 231.519 28.111, 228.027 25.704 C 224.604 23.344, 222.055 23.585, 218.189 26.631 M 288.590 26.156 C 288.318 27.445, 286.909 39.230, 285.461 52.345 L 282.827 76.190 285.163 77.794 C 286.448 78.676, 290.346 82.113, 293.825 85.430 L 300.151 91.462 299.494 75.481 C 297.729 32.501, 297.184 29.165, 291.293 25.271 C 289.245 23.918, 289.049 23.982, 288.590 26.156 M 962.283 24.736 C 957.222 25.091, 957.035 25.213, 956.038 28.801 C 953.714 37.170, 954.716 40.081, 966.894 60.332 C 971.249 67.575, 976.211 76.425, 977.921 80 C 980.303 84.983, 981.947 87.025, 984.962 88.750 L 988.895 91 989.198 85.750 C 989.411 82.052, 989.915 80.500, 990.904 80.500 C 991.677 80.500, 995.196 85.225, 998.724 91 C 1002.252 96.775, 1005.445 101.810, 1005.819 102.190 C 1006.631 103.013, 1021.201 106.132, 1021.736 105.597 C 1021.940 105.393, 1020.620 102.138, 1018.804 98.363 C 1015.657 91.826, 1014.575 90.731, 996 75.297 C 985.275 66.386, 975.038 57.505, 973.250 55.562 C 969.562 51.553, 969.016 47.597, 971.934 46.035 C 975.188 44.294, 976.652 44.928, 974.029 46.943 C 969.731 50.246, 971.884 53.124, 990.013 68.314 C 999.081 75.911, 1008.288 83.561, 1010.473 85.314 L 1014.445 88.500 1010.607 81.500 C 1005.549 72.276, 989.580 48.396, 985.623 44.141 C 983.905 42.293, 980.836 39.715, 978.802 38.411 C 975.396 36.228, 975.050 35.565, 974.423 30.020 C 973.655 23.234, 975.049 23.840, 962.283 24.736 M 848 26.060 C 848 28.491, 858.633 38.186, 864.411 41.023 C 883.911 50.598, 910.710 48.045, 925 35.251 C 927.475 33.035, 930.313 29.822, 931.307 28.111 L 933.113 25 890.557 25 C 861.250 25, 848 25.330, 848 26.060 M 1063.500 26.871 C 1059.518 29.344, 1056.374 32.865, 1055.067 36.315 C 1053.447 40.591, 1053.828 48.033, 1055.896 52.500 C 1057.634 56.254, 1063.084 62.366, 1064.415 62.054 C 1064.746 61.976, 1066.631 62.215, 1068.605 62.586 C 1070.715 62.982, 1073.904 62.719, 1076.346 61.949 C 1078.631 61.229, 1081.108 60.751, 1081.850 60.887 C 1082.593 61.023, 1082.944 60.719, 1082.631 60.212 C 1082.318 59.705, 1083.173 58.247, 1084.531 56.971 C 1085.889 55.695, 1087.044 55.067, 1087.098 55.576 C 1087.152 56.084, 1087.784 53.575, 1088.503 50 C 1090.166 41.732, 1089.018 35.734, 1084.901 31.178 C 1079.384 25.072, 1069.575 23.098, 1063.500 26.871 M 714 27.139 C 714 27.612, 714.712 28, 715.583 28 C 716.454 28, 716.967 28.563, 716.723 29.250 C 716.479 29.938, 715.317 30.393, 714.140 30.262 C 711.672 29.987, 711.668 29.997, 713.018 33.547 C 713.775 35.538, 714.543 36.091, 716.018 35.706 C 717.590 35.294, 718 35.687, 718 37.602 C 718 39.480, 717.123 40.367, 714.047 41.598 C 710.579 42.986, 707.531 45.925, 700.803 54.370 L 699.106 56.500 695.303 52.946 C 688.392 46.488, 687.427 46.411, 692.851 52.750 C 695.792 56.188, 698.761 59, 699.450 59 C 700.138 59, 702.906 56.325, 705.601 53.056 C 708.295 49.787, 710.950 47.237, 711.500 47.389 C 712.050 47.541, 713.372 52.232, 714.437 57.814 C 716.002 66.008, 716.193 69.275, 715.432 74.780 L 714.490 81.598 720.578 80.076 L 726.665 78.554 727.592 70.175 L 728.518 61.795 724.759 59.877 C 722.692 58.822, 721 57.297, 721 56.488 C 721 55.679, 720.100 54.455, 719 53.768 C 717.900 53.081, 717 51.952, 717 51.259 C 717 50.567, 717.900 50, 719 50 C 720.836 50, 722.289 51.162, 725.789 55.428 C 727.676 57.728, 728.877 57.359, 729.615 54.250 C 730.396 50.964, 732.914 47.829, 734.156 48.596 C 735.383 49.354, 741.239 61.094, 740.673 61.660 C 740.421 61.912, 737.579 61.356, 734.357 60.423 C 731.136 59.491, 727.825 58.536, 727 58.301 C 723.554 57.318, 731.196 61.091, 737.316 63.395 C 741.114 64.824, 744.198 65.489, 744.530 64.951 C 745.452 63.459, 735.956 44.201, 733.506 42.596 C 732.289 41.798, 729.652 40.838, 727.646 40.461 C 725.029 39.970, 724 39.261, 724 37.948 C 724 36.941, 723.500 35.809, 722.890 35.432 C 722.255 35.039, 722.003 33.366, 722.303 31.521 C 722.808 28.406, 722.677 28.263, 718.413 27.287 C 715.986 26.732, 714 26.665, 714 27.139 M 852.223 29.250 C 853.587 31.038, 856.859 34.145, 859.495 36.156 C 872.877 46.368, 899.409 47.907, 916.115 39.442 C 920.973 36.980, 930 28.832, 930 26.908 C 930 26.379, 913.254 26, 889.872 26 L 849.744 26 852.223 29.250 M 1068 26.691 C 1063.915 27.472, 1063.956 28.266, 1068.337 33.285 L 1072.514 38.071 1076.871 33.631 C 1080.875 29.552, 1081.075 29.111, 1079.345 28.185 C 1076.853 26.851, 1071.115 26.096, 1068 26.691 M 394.232 31 C 396.682 34.923, 409.448 34.996, 413.334 31.110 L 415.444 29 404.214 29 C 393.234 29, 393.011 29.045, 394.232 31 M 960.631 29.702 C 959.285 31.048, 960.095 33, 962 33 C 963.454 33, 964 33.667, 964 35.441 C 964 39.301, 965.832 39.413, 966.548 35.597 C 966.973 33.333, 967.646 32.311, 968.497 32.637 C 970.199 33.290, 971.518 31.118, 970.213 29.813 C 969.529 29.129, 968.518 29.482, 967.100 30.900 C 965.945 32.055, 965 32.566, 965 32.035 C 965 30.778, 961.451 28.882, 960.631 29.702 M 1060.039 31.459 L 1057.611 34.043 1063.020 39.520 L 1068.428 44.997 1063.497 50.003 L 1058.565 55.010 1060.778 57.222 L 1062.990 59.435 1068.057 54.467 L 1073.123 49.500 1077.005 54 L 1080.887 58.500 1083.093 56.323 L 1085.298 54.146 1081.114 49.393 L 1076.930 44.639 1081.682 39.815 L 1086.435 34.990 1084.169 32.745 L 1081.904 30.500 1077.255 35.400 L 1072.606 40.301 1067.536 34.587 L 1062.467 28.874 1060.039 31.459 M 1056.718 36.648 C 1054.594 40.084, 1055.477 53, 1057.836 53 C 1058.253 53, 1060.359 51.192, 1062.517 48.983 L 1066.439 44.966 1061.847 40.373 C 1059.321 37.847, 1057.013 36.171, 1056.718 36.648 M 1083.205 40.288 C 1081.442 42.107, 1080 44.052, 1080 44.611 C 1080 46.091, 1085.862 51.471, 1086.634 50.699 C 1087.755 49.579, 1088.280 40.323, 1087.321 38.609 C 1086.534 37.203, 1085.974 37.432, 1083.205 40.288 M 630.727 45.532 C 628.101 47.916, 625.176 50.061, 624.227 50.299 C 623.277 50.536, 623.850 50.556, 625.500 50.344 C 627.311 50.110, 630.067 48.393, 632.451 46.013 C 637.895 40.578, 636.584 40.212, 630.727 45.532 M 662.205 45.674 C 663.393 48.328, 664.667 53.650, 665.036 57.500 L 665.707 64.500 665.810 58 C 665.918 51.156, 663.419 41.925, 661.273 41.240 C 660.501 40.994, 660.848 42.641, 662.205 45.674 M 346.272 46.055 C 344.753 46.644, 342.170 50.690, 338.157 58.765 C 328.732 77.732, 328.124 78.503, 321.321 80.118 C 317.427 81.042, 315.500 81.997, 315.500 83 C 315.500 83.825, 316.063 84.455, 316.750 84.400 C 317.438 84.345, 320.936 84.233, 324.525 84.150 C 330.514 84.012, 331.128 83.793, 332.007 81.481 C 332.534 80.095, 335.266 75.552, 338.078 71.384 C 340.890 67.217, 344.108 61.601, 345.229 58.904 C 346.350 56.207, 347.667 54, 348.155 54 C 348.644 54, 350.308 55.992, 351.852 58.427 C 354.797 63.071, 358.636 77.764, 357.264 79.136 C 356.825 79.575, 354.673 80.307, 352.483 80.762 C 350.043 81.269, 348.500 82.153, 348.500 83.045 C 348.500 85.227, 362.857 85.136, 364.029 82.946 C 364.486 82.091, 364.449 80.742, 363.946 79.946 C 363.442 79.151, 363.024 76.860, 363.015 74.855 C 362.981 66.673, 355.422 49.510, 350.500 46.438 C 349.197 45.625, 347.724 45.491, 346.272 46.055 M 345.242 48.250 C 344.691 48.938, 341.754 54.675, 338.717 61 C 331.613 75.792, 327.887 80.966, 324.244 81.102 C 321.756 81.195, 321.826 81.281, 324.990 82.025 C 328.363 82.818, 331 81.888, 331 79.906 C 331 79.438, 333.635 75.044, 336.855 70.140 C 340.075 65.236, 343.562 59.150, 344.605 56.616 C 347.189 50.333, 348.827 50.507, 353.223 57.529 C 356.003 61.969, 360.246 77.197, 359.352 79.526 C 359.040 80.337, 358.133 81, 357.334 81 C 356.535 81, 356.160 81.450, 356.500 82 C 356.840 82.550, 358.472 83, 360.126 83 C 362.527 83, 363.028 82.647, 362.604 81.250 C 362.312 80.287, 361.607 76.521, 361.038 72.880 C 359.397 62.382, 356.305 54.767, 351.648 49.750 C 348.881 46.769, 346.818 46.286, 345.242 48.250 M 504.468 52.102 C 504.139 53.136, 504.152 54.436, 504.494 54.991 C 504.891 55.632, 502.603 56, 498.214 56 C 492.795 56, 490.954 56.393, 489.655 57.829 C 486.131 61.722, 488.718 69.061, 493.579 68.960 C 495.146 68.927, 495.005 68.651, 492.819 67.464 C 487.476 64.563, 488.409 58.577, 494.380 57.457 C 496.225 57.110, 505.445 56.979, 514.868 57.164 C 524.292 57.349, 532.002 57.163, 532.001 56.750 C 532 56.337, 526.862 56, 520.582 56 C 508.351 56, 506 55.580, 506 53.393 C 506 52.335, 507.982 51.941, 514.250 51.756 C 528.880 51.322, 534.490 51.861, 542.574 54.478 C 546.933 55.889, 554.212 57.326, 558.750 57.670 L 567 58.297 567 62.698 L 567 67.099 561.167 66.439 C 556.783 65.943, 553.314 66.303, 547.194 67.890 C 540.136 69.719, 536.189 70, 517.526 70 C 503.842 70, 496 70.364, 496 71 C 496 71.635, 503.603 72, 516.810 72 C 534.732 72, 538.787 71.705, 546.032 69.873 C 552.435 68.254, 556.185 67.877, 561.723 68.295 L 569 68.846 569 62.423 L 569 56 561.750 55.993 C 556.759 55.989, 551.139 55.048, 543.714 52.975 C 533.910 50.238, 531.658 49.975, 518.996 50.093 C 506.302 50.210, 505.011 50.389, 504.468 52.102 M 732.135 51.748 C 730.072 55.602, 730.744 57.586, 734.500 58.739 C 738.598 59.996, 738.627 59.872, 735.590 54.064 C 733.393 49.864, 733.209 49.741, 732.135 51.748 M 1069.196 55.298 C 1064.666 59.971, 1065.039 61.003, 1071.250 60.985 C 1078.967 60.962, 1079.884 60.002, 1076.381 55.610 C 1074.796 53.625, 1073.251 52, 1072.946 52 C 1072.642 52, 1070.954 53.484, 1069.196 55.298 M 143 56.068 C 137.775 56.458, 130.659 57.522, 127.187 58.433 C 120.450 60.198, 112 63.923, 112 65.127 C 112 66.513, 122.534 70.793, 130.500 72.642 C 141.371 75.167, 169.208 75.162, 179.500 72.634 C 187.325 70.712, 197 66.598, 197 65.192 C 197 63.554, 185.710 59.178, 177.500 57.634 C 167.321 55.720, 155.088 55.165, 143 56.068 M 140.500 57.612 C 133.802 58.316, 122.727 61.168, 118.547 63.265 L 114.594 65.248 118.095 67.044 C 126.540 71.377, 133.619 72.447, 154 72.474 C 174.235 72.501, 179.731 71.765, 189.250 67.755 C 191.863 66.654, 194 65.408, 194 64.985 C 194 63.920, 186.964 61.210, 179.632 59.450 C 173.559 57.992, 148.207 56.801, 140.500 57.612 M 608.009 78.226 C 605.657 84.977, 603.520 91.175, 603.260 92 C 603.001 92.825, 605.135 89.450, 608.003 84.500 C 612.296 77.089, 613.195 74.718, 613.094 71.068 C 613.026 68.631, 612.816 66.483, 612.628 66.295 C 612.440 66.106, 610.361 71.476, 608.009 78.226 M 968.031 76.637 L 968 87.773 971.250 88.267 C 975.147 88.859, 978.004 87.566, 977.990 85.215 C 977.979 83.183, 974.194 75.123, 970.611 69.500 L 968.062 65.500 968.031 76.637 M 693.086 69.839 C 692.166 71.558, 692.410 73.251, 695.520 86.750 C 695.805 87.987, 696.480 89, 697.019 89 C 698.566 89, 698.150 79.811, 696.456 76.562 C 695.525 74.777, 695.166 72.521, 695.541 70.812 C 696.244 67.614, 694.621 66.971, 693.086 69.839 M 792 87.500 C 792 99.833, 792.368 107, 793 107 C 793.632 107, 794 99.833, 794 87.500 C 794 75.167, 793.632 68, 793 68 C 792.368 68, 792 75.167, 792 87.500 M 614.997 70.628 C 614.996 71.657, 615.742 78.086, 616.656 84.913 L 618.316 97.325 616.047 99.163 L 613.778 101 616.664 101 L 619.551 101 619.251 90.250 C 618.857 76.109, 618.210 71.419, 616.451 69.959 C 615.271 68.980, 615 69.105, 614.997 70.628 M 697 72.066 C 697 73.202, 697.503 75.071, 698.118 76.220 C 698.733 77.369, 699.268 80.449, 699.308 83.065 L 699.379 87.821 704.402 85.842 C 712.834 82.518, 712.753 82.932, 706.310 76.162 C 700.260 69.804, 697 68.370, 697 72.066 M 889.420 89.500 C 889.419 100.500, 889.565 105.136, 889.745 99.803 C 889.924 94.470, 889.925 85.470, 889.746 79.803 C 889.568 74.136, 889.421 78.500, 889.420 89.500 M 1092 89.500 C 1092 101.833, 1092.368 109, 1093 109 C 1093.632 109, 1094 101.833, 1094 89.500 C 1094 77.167, 1093.632 70, 1093 70 C 1092.368 70, 1092 77.167, 1092 89.500 M 61.724 78.740 C 61.419 81.908, 59.781 87.824, 58.085 91.888 C 56.388 95.951, 55 99.663, 55 100.138 C 55 100.612, 57.469 101, 60.487 101 C 66.580 101, 66.325 101.299, 70.694 88.998 C 72.282 84.529, 72.269 84.142, 70.429 80.611 C 69.368 78.575, 67.100 76.026, 65.390 74.945 L 62.280 72.981 61.724 78.740 M 237 81.481 C 237 84.376, 234.190 92.869, 229.300 104.750 C 228.922 105.668, 230.381 106, 234.800 106 L 240.813 106 243.985 98.381 C 248.058 88.597, 247.052 83.825, 240.043 79.684 L 237 77.887 237 81.481 M 715 83.402 C 705.731 86.661, 695 91.711, 695 92.815 C 695 95.453, 697.878 96.125, 704.008 94.919 C 708.900 93.956, 711.554 93.972, 716.985 94.997 C 720.741 95.706, 724.506 96.020, 725.352 95.695 C 727.277 94.956, 728.432 89.118, 727.566 84.500 C 727.004 81.503, 726.520 81.008, 724.205 81.059 C 722.717 81.091, 718.575 82.146, 715 83.402 M 408.795 85.915 C 399.794 87.876, 389 92.188, 389 93.822 C 389 95.026, 396.731 98.329, 405 100.658 C 413.314 102.999, 448.181 103.321, 457 101.139 C 463.596 99.506, 474 95.064, 474 93.880 C 474 92.522, 465.057 88.415, 458 86.533 C 447.781 83.806, 420.070 83.459, 408.795 85.915 M 410.500 87.089 C 403.942 88.376, 395.971 90.965, 393.638 92.567 C 391.914 93.751, 392.065 93.993, 395.688 95.841 C 403.053 99.598, 414.251 101.268, 432 101.257 C 444.131 101.249, 450.460 100.786, 455.903 99.508 C 464.202 97.560, 469.548 95.541, 470.504 93.994 C 471.200 92.867, 466.403 90.575, 458.500 88.259 C 452.391 86.469, 417.944 85.630, 410.500 87.089 M 977.519 88.969 C 977.092 89.661, 975.112 90.016, 972.747 89.826 L 968.706 89.500 966.856 94.920 C 965.839 97.901, 965.171 100.505, 965.373 100.706 C 965.575 100.908, 968.531 101.592, 971.943 102.227 C 979.331 103.601, 979.969 103.066, 979.969 95.500 C 979.969 90.083, 978.784 86.923, 977.519 88.969 M 21.116 94.750 C 21.052 98.188, 21.341 101, 21.757 101 C 22.174 101, 22.377 98.862, 22.208 96.250 C 21.719 88.651, 21.241 87.995, 21.116 94.750 M 1063.186 89.714 C 1059.489 90.420, 1052.362 97.981, 1050.968 102.675 C 1048.770 110.079, 1048.568 110, 1069.591 110 C 1084.371 110, 1088.041 109.740, 1087.263 108.750 C 1086.723 108.063, 1085.983 105.932, 1085.619 104.016 C 1083.672 93.778, 1074.046 87.641, 1063.186 89.714 M 1059.990 93.250 C 1055.318 96.429, 1052.942 100.014, 1052.292 104.862 L 1051.730 109.051 1068.115 108.775 L 1084.500 108.500 1084.173 105.500 C 1082.928 94.072, 1069.085 87.060, 1059.990 93.250 M 299.079 99.750 C 299.036 103.188, 299.384 106, 299.853 106 C 300.322 106, 300.512 103.638, 300.274 100.750 C 299.639 93.042, 299.169 92.649, 299.079 99.750 M 691.184 96.750 L 691.500 99.500 709 99.500 C 718.625 99.500, 728.075 99.862, 730 100.305 L 733.500 101.111 730.500 99.328 C 728.850 98.347, 725.700 97.462, 723.500 97.360 C 721.300 97.259, 716.861 96.852, 713.635 96.455 C 709.973 96.004, 705.713 96.194, 702.294 96.959 C 697.143 98.111, 696.730 98.060, 695.352 96.092 C 693.185 92.998, 690.795 93.375, 691.184 96.750" stroke="none" fill="#282828" fill-rule="evenodd"/><path d="M -0 64.001 L -0 128.002 559.250 127.751 L 1118.500 127.500 1118.757 63.750 L 1119.015 0 559.507 0 L 0 0 -0 64.001 M 0.471 64.500 C 0.471 99.700, 0.597 113.955, 0.750 96.178 C 0.903 78.400, 0.903 49.600, 0.749 32.178 C 0.596 14.755, 0.471 29.300, 0.471 64.500 M 9.522 20.351 C 9.231 22.083, 7.850 34.205, 6.454 47.288 L 3.915 71.076 12.002 78.684 L 20.088 86.291 19.794 94.395 C 19.513 102.142, 19.599 102.514, 21.750 102.820 C 24.476 103.207, 24.403 105.450, 22.989 65 C 21.818 31.507, 21.091 26.312, 16.913 21.553 C 12.716 16.773, 10.194 16.363, 9.522 20.351 M 46.334 18.518 C 44.776 19.183, 42.643 20.688, 41.595 21.863 C 40.547 23.039, 38.972 24.018, 38.095 24.040 C 37.110 24.065, 37.541 24.645, 39.225 25.559 C 42.838 27.520, 44 29.926, 44 35.450 C 44 39.042, 45.270 42.564, 49.882 51.765 C 53.117 58.219, 56.978 66.383, 58.461 69.908 C 61.546 77.237, 61.403 78.537, 55.933 92.860 L 52.825 101 46.412 101 C 42.804 101, 40 101.437, 40 102 C 40 102.629, 46.500 103, 57.500 103 C 68.500 103, 75 102.629, 75 102 C 75 101.450, 73.425 101, 71.500 101 C 69.575 101, 68 100.853, 68 100.672 C 68 100.492, 69.125 97.576, 70.500 94.192 C 73.104 87.784, 73.753 81.153, 71.952 79.352 C 71.221 78.621, 73.284 78.120, 78.767 77.697 C 83.092 77.364, 87.838 76.632, 89.315 76.070 C 93.106 74.629, 92.775 71.273, 88.424 67.046 C 86.469 65.146, 83.242 60.681, 81.253 57.124 C 77.641 50.665, 72.446 44.049, 65.059 36.500 C 62.486 33.871, 60.903 31.175, 60.439 28.633 C 59.607 24.074, 55.001 18.425, 51.583 17.771 C 50.255 17.517, 47.893 17.853, 46.334 18.518 M 401.979 19.525 C 401.174 20.495, 399.399 20.950, 397.106 20.775 C 394.192 20.553, 393.498 20.848, 393.492 22.313 C 393.488 23.310, 392.363 25.004, 390.992 26.077 L 388.500 28.027 390.643 29.837 C 391.821 30.832, 392.952 32.514, 393.155 33.573 C 393.439 35.054, 394.439 35.536, 397.480 35.654 C 399.656 35.739, 401.601 36.302, 401.801 36.904 C 402.327 38.480, 404.890 38.253, 406.670 36.473 C 407.746 35.397, 409.201 35.135, 411.598 35.584 C 414.544 36.137, 415 35.955, 415 34.228 C 415 30.384, 423.851 29.949, 438.047 33.094 C 449.826 35.704, 462.163 35.349, 469.296 32.193 C 477.279 28.662, 475.313 25.229, 463.742 22.501 C 455.422 20.540, 450.326 20.646, 439.098 23.016 C 426.867 25.597, 416.196 25.702, 415.292 23.250 C 414.433 20.922, 412.806 19.923, 411.534 20.942 C 410.277 21.948, 406 20.472, 406 19.032 C 406 17.477, 403.416 17.793, 401.979 19.525 M 640.003 21.750 C 636.767 24.847, 636.184 25.979, 636.659 28.250 C 637.022 29.991, 637.879 31, 638.994 31 C 639.963 31, 641.315 31.675, 642 32.500 C 643.017 33.725, 642.957 34, 641.670 34 C 640.804 34, 637.036 37.095, 633.298 40.878 C 627.394 46.851, 625.803 47.904, 621.201 48.878 C 618.286 49.495, 614.500 50, 612.787 50 C 608.724 50, 602 52.992, 602 54.799 C 602 55.746, 602.579 55.983, 603.750 55.516 C 604.712 55.132, 606.850 54.651, 608.500 54.448 C 629.110 51.908, 628.234 52.149, 632.729 47.757 C 635.055 45.484, 637.274 43.940, 637.659 44.326 C 638.711 45.378, 640.087 58.314, 639.237 59.162 C 638.832 59.567, 632.703 60.784, 625.617 61.867 C 618.532 62.950, 612.190 64.436, 611.524 65.168 C 610.858 65.901, 608.159 72.800, 605.524 80.500 C 602.890 88.200, 600.093 95.240, 599.307 96.146 C 598.522 97.051, 595.769 98.086, 593.190 98.446 C 583.534 99.794, 582 100.236, 582 101.663 C 582 102.856, 583.506 102.996, 590.750 102.473 C 595.563 102.126, 599.975 101.701, 600.555 101.528 C 601.135 101.354, 604.272 95.877, 607.526 89.356 L 613.443 77.500 614.748 84.500 C 615.465 88.350, 615.928 93.074, 615.776 94.998 C 615.514 98.323, 615.255 98.548, 610.570 99.537 C 607.859 100.109, 605.459 101.123, 605.237 101.789 C 604.676 103.472, 619.584 103.482, 620.625 101.798 C 621.449 100.464, 621.263 82.890, 620.355 76.250 L 619.773 72 635.731 72 C 655.784 72, 655.046 72.547, 654.728 57.921 C 654.534 49.014, 654.789 47.008, 656.434 44.480 L 658.368 41.508 660.623 46.504 C 663.751 53.436, 663.962 66.962, 661 70.727 C 658.977 73.299, 658.351 76, 659.777 76 C 660.205 76, 661.936 74.738, 663.624 73.197 C 666.455 70.610, 666.748 69.714, 667.404 61.626 C 668.016 54.090, 667.814 51.950, 665.965 46.396 C 663.412 38.722, 659.944 34.243, 656.223 33.813 C 652.788 33.416, 652.214 30.760, 654.933 27.842 C 657.575 25.005, 657.645 20.415, 655.066 19.035 C 654.002 18.466, 651.059 18, 648.527 18 C 644.570 18, 643.372 18.527, 640.003 21.750 M 716.161 19.750 C 715.028 20.712, 712.969 24.108, 711.585 27.295 C 709.524 32.045, 709.328 33.188, 710.497 33.637 C 711.282 33.938, 712.196 35.043, 712.529 36.092 C 712.874 37.178, 714.076 38.020, 715.317 38.047 C 716.933 38.081, 716.315 38.711, 712.936 40.471 C 710.425 41.779, 706.214 45.375, 703.578 48.461 L 698.784 54.072 693.642 49.291 C 690.814 46.662, 688.155 43.291, 687.733 41.800 C 686.822 38.579, 683.027 35.573, 681.633 36.967 C 681.035 37.565, 681.148 38.473, 681.937 39.424 C 682.626 40.254, 682.984 41.510, 682.733 42.216 C 682.483 42.922, 684.353 45.771, 686.889 48.546 C 689.425 51.322, 692.924 55.259, 694.665 57.296 C 696.405 59.333, 698.517 61, 699.357 61 C 700.197 61, 703.023 58.523, 705.637 55.495 C 708.251 52.467, 710.693 50.330, 711.063 50.745 C 711.433 51.160, 712.443 55.460, 713.309 60.301 C 714.556 67.279, 714.661 70.359, 713.813 75.174 L 712.743 81.246 710.127 77.873 C 703.870 69.805, 695.420 64.577, 692.523 66.981 C 690.582 68.592, 690.605 71.516, 692.636 81.749 L 694.273 89.997 691.637 92.071 C 690.186 93.212, 689 94.994, 689 96.032 C 689 97.368, 687.830 98.270, 685 99.118 C 679.040 100.904, 679.578 103.442, 685.750 102.653 C 693.138 101.710, 726.771 101.577, 733.876 102.463 C 738.892 103.089, 740.162 102.985, 739.825 101.974 C 739.589 101.268, 737.493 100.128, 735.167 99.441 C 730.344 98.017, 727.756 96.204, 728.599 94.839 C 728.917 94.325, 729.249 87.214, 729.338 79.035 C 729.427 70.857, 729.828 63.837, 730.230 63.436 C 730.631 63.035, 733.484 63.673, 736.569 64.854 C 747.652 69.095, 748.433 67.174, 741.586 52.521 C 736.999 42.706, 733.355 39.012, 728.250 39.004 C 725.407 38.999, 725.432 38.659, 728.500 35.591 C 730.494 33.597, 731 32.088, 731 28.134 C 731 23.827, 730.597 22.839, 727.923 20.589 C 724.290 17.532, 719.200 17.169, 716.161 19.750 M 10.172 28.788 C 9.567 34.130, 8.319 45.700, 7.399 54.500 L 5.727 70.500 13.595 78.185 C 17.923 82.412, 21.600 85.733, 21.768 85.565 C 22.532 84.802, 19.791 31.107, 18.830 28 C 17.673 24.262, 15.533 21.356, 12.898 19.945 C 11.481 19.187, 11.133 20.315, 10.172 28.788 M 45.250 20.989 C 41.666 23.174, 41.262 24.527, 43.467 26.963 C 44.274 27.855, 45.239 31.265, 45.612 34.542 C 46.121 39.013, 48.100 44.243, 53.543 55.500 C 60.657 70.212, 60.896 70.555, 66.008 73.370 C 70.850 76.035, 71.819 76.208, 79.647 75.797 C 90.571 75.224, 92.407 73.769, 88.012 69.170 C 84.865 65.876, 78.011 55.712, 77.985 54.298 C 77.977 53.859, 76.481 51.740, 74.662 49.589 L 71.353 45.679 68.217 47.997 C 65.322 50.138, 65.127 50.648, 65.674 54.638 C 66.153 58.129, 65.941 59.085, 64.574 59.610 C 61.006 60.979, 53 49.863, 53 43.540 C 53 40.744, 55.266 38.683, 57.702 39.263 C 59.354 39.656, 59.338 39.758, 57.500 40.522 C 56.400 40.980, 55.200 41.803, 54.833 42.351 C 53.737 43.991, 57.894 53.277, 61.167 56.500 L 64.214 59.500 63.755 54.262 C 63.309 49.178, 63.396 48.964, 66.688 47.021 C 70.722 44.641, 70.436 43.723, 63.577 37.042 C 60.714 34.253, 59 31.707, 59 30.242 C 59 25.374, 53.907 18.994, 50.027 19.004 C 49.187 19.006, 47.038 19.899, 45.250 20.989 M 648.295 22.309 C 649.508 23.579, 650.989 25.475, 651.586 26.523 C 652.616 28.328, 652.767 28.286, 654.446 25.722 C 657.066 21.724, 655.900 20, 650.577 20 L 646.091 20 648.295 22.309 M 716.200 21.200 C 715.540 21.860, 715 22.936, 715 23.592 C 715 24.823, 718.993 26.341, 722.500 26.442 C 724.155 26.490, 724.500 27.186, 724.500 30.476 C 724.500 33.431, 724.940 34.539, 726.214 34.792 C 729.819 35.509, 730.525 24.653, 727.056 21.844 C 724.474 19.754, 718.029 19.371, 716.200 21.200 M 643 21.903 C 643 22.533, 641.829 23.495, 640.398 24.039 C 638.620 24.715, 637.987 25.524, 638.398 26.596 C 638.729 27.458, 639 28.545, 639 29.012 C 639 29.479, 640.013 30.005, 641.250 30.180 C 644.200 30.599, 644.911 34.576, 642.190 35.440 C 641.131 35.776, 639.532 36.860, 638.637 37.849 C 637.131 39.512, 637.154 39.944, 638.947 43.654 C 641.363 48.655, 641.937 58.524, 639.923 60.427 C 639.140 61.167, 633.357 62.503, 627.072 63.397 C 620.786 64.292, 615.393 65.274, 615.086 65.580 C 614.780 65.886, 615.629 66.966, 616.972 67.979 C 619.019 69.523, 621.771 69.884, 633.957 70.205 C 641.956 70.417, 649.578 70.218, 650.896 69.764 C 653.239 68.957, 653.279 68.747, 652.696 60.483 C 651.907 49.296, 653.811 42.275, 658.073 40.666 C 659.683 40.059, 661 39.236, 661 38.837 C 661 37.665, 656.704 35, 654.814 35 C 653.691 35, 652.086 32.983, 650.287 29.309 C 647.671 23.967, 643 19.220, 643 21.903 M 220.392 23.494 C 218.801 24.172, 216.643 25.688, 215.595 26.863 C 214.547 28.039, 212.747 29.018, 211.595 29.039 C 209.958 29.070, 210.193 29.380, 212.671 30.458 C 216.688 32.205, 218 34.675, 218 40.491 C 218 44.309, 219.478 48.030, 226.500 61.886 C 232.951 74.614, 234.993 79.603, 234.969 82.579 C 234.952 84.736, 233.253 90.775, 231.194 96 L 227.449 105.500 220.725 105.796 C 217.026 105.958, 214 106.521, 214 107.046 C 214 107.616, 221.241 108, 232 108 C 243.333 108, 250 107.630, 250 107 C 250 106.450, 248.425 106, 246.500 106 C 244.575 106, 243 105.761, 243 105.470 C 243 105.178, 244.125 102.267, 245.500 99 C 248.165 92.667, 248.644 88.072, 246.965 84.934 C 246.007 83.144, 246.295 83, 250.828 83 C 253.523 83, 258.128 82.545, 261.062 81.988 C 268.956 80.491, 270.006 77.874, 264.662 73.011 C 262.825 71.340, 259.563 66.943, 257.412 63.239 C 255.260 59.536, 249.338 51.879, 244.250 46.222 C 239.033 40.423, 235 35.058, 235 33.920 C 235 26.803, 226.635 20.833, 220.392 23.494 M 397.079 23.265 C 395.747 23.944, 394.472 25.063, 394.246 25.750 C 393.934 26.695, 396.313 27, 404 27 C 411.685 27, 414.067 26.695, 413.758 25.750 C 412.753 22.674, 401.517 21, 397.079 23.265 M 760 40.487 L 760 59 769.500 59 C 775.167 59, 779 58.596, 779 58 C 779 57.412, 775.500 57, 770.500 57 L 762 57 762 40.500 L 762 24 794 24 L 826 24 826 40.500 L 826 57 817.500 57 C 812.295 57, 809 57.402, 809 58.038 C 809 58.700, 812.342 58.971, 818.250 58.788 L 827.500 58.500 827.500 40.500 L 827.500 22.500 793.750 22.237 L 760 21.973 760 40.487 M 964.278 22.744 L 956.056 23.080 954.925 27.279 C 952.717 35.480, 954.031 41.668, 960.228 52.254 L 965.855 61.865 966.089 77.682 C 966.282 90.681, 966.025 94.168, 964.648 97.250 L 962.973 101 955.237 101.015 C 948.422 101.029, 943.641 102.098, 945.029 103.299 C 945.288 103.523, 949.037 103.354, 953.360 102.924 C 960.427 102.220, 965.199 102.576, 974.500 104.503 C 979.689 105.578, 981.500 103.270, 981.500 95.581 C 981.500 91.961, 981.672 89, 981.882 89 C 982.092 89, 983.803 89.951, 985.685 91.114 C 987.566 92.277, 989.352 92.981, 989.654 92.679 C 989.956 92.378, 990.494 89.840, 990.851 87.039 L 991.500 81.948 997.780 92.433 C 1001.233 98.200, 1004.608 103.274, 1005.280 103.709 C 1007.317 105.029, 1022.444 107.824, 1023.298 107.038 C 1023.737 106.635, 1023.530 105.061, 1022.837 103.543 C 1021.752 101.160, 1021.817 100.607, 1023.312 99.514 C 1024.900 98.353, 1024.754 97.991, 1021.563 95.190 C 1019.648 93.508, 1015.994 88.175, 1013.442 83.337 C 1006.077 69.373, 987.276 42.364, 982.573 38.993 C 976.069 34.330, 976 34.221, 976 28.568 C 976 24.608, 975.588 23.056, 974.418 22.607 C 973.548 22.273, 972.761 22.092, 972.668 22.204 C 972.576 22.315, 968.800 22.558, 964.278 22.744 M 286.991 24.250 C 286.986 24.938, 285.636 36.975, 283.991 51 L 281 76.500 283.750 78.481 C 285.263 79.570, 289.069 83.111, 292.210 86.348 L 297.919 92.235 297.311 100.118 L 296.704 108 299.352 108 C 302.555 108, 302.462 110.259, 300.947 69.500 C 299.669 35.142, 299.023 30.823, 294.484 26.284 C 291.213 23.013, 287.008 21.872, 286.991 24.250 M 437 25.151 C 431.978 26.316, 426.029 26.995, 422.462 26.811 C 417.353 26.548, 416.424 26.758, 416.426 28.178 C 416.428 29.585, 417.175 29.767, 421.061 29.306 C 424.037 28.954, 429.386 29.561, 436.019 31.004 C 448.088 33.630, 462.733 33.460, 469.437 30.616 C 472.959 29.122, 473.214 28.785, 471.855 27.427 C 467.407 22.979, 450.993 21.907, 437 25.151 M 218.189 26.631 L 214.878 29.241 217.025 31.527 C 218.528 33.126, 219.333 35.580, 219.706 39.700 C 220.139 44.466, 221.692 48.432, 227.870 60.543 C 235.187 74.886, 235.705 75.612, 240.500 78.227 C 244.497 80.406, 246.829 80.958, 252.125 80.977 C 260.498 81.006, 265.020 80.112, 265.720 78.287 C 266.032 77.473, 264.745 75.277, 262.728 73.179 C 260.780 71.156, 257.139 66.100, 254.636 61.944 C 252.133 57.788, 249.200 53.586, 248.119 52.607 C 246.226 50.894, 246.034 50.915, 242.999 53.159 C 240.108 55.296, 239.897 55.830, 240.461 59.591 C 240.891 62.456, 240.666 64.032, 239.715 64.822 C 237.453 66.699, 230.828 59.482, 228.485 52.587 C 226.550 46.894, 226.549 46.803, 228.454 45.410 C 230.698 43.769, 233 43.562, 233 45 C 233 45.550, 232.100 46, 231 46 C 229.695 46, 229 46.667, 229 47.917 C 229 51.303, 232.674 58.411, 236.020 61.500 L 239.270 64.500 238.682 59.251 C 238.120 54.225, 238.217 53.939, 240.984 52.508 C 242.573 51.687, 244.155 50.558, 244.500 50 C 244.845 49.442, 242.664 46.401, 239.654 43.242 C 236.008 39.418, 233.959 36.331, 233.519 34 C 232.761 29.987, 231.519 28.111, 228.027 25.704 C 224.604 23.344, 222.055 23.585, 218.189 26.631 M 288.590 26.156 C 288.318 27.445, 286.909 39.230, 285.461 52.345 L 282.827 76.190 285.163 77.794 C 286.448 78.676, 290.346 82.113, 293.825 85.430 L 300.151 91.462 299.494 75.481 C 297.729 32.501, 297.184 29.165, 291.293 25.271 C 289.245 23.918, 289.049 23.982, 288.590 26.156 M 962.283 24.736 C 957.222 25.091, 957.035 25.213, 956.038 28.801 C 953.714 37.170, 954.716 40.081, 966.894 60.332 C 971.249 67.575, 976.211 76.425, 977.921 80 C 980.303 84.983, 981.947 87.025, 984.962 88.750 L 988.895 91 989.198 85.750 C 989.411 82.052, 989.915 80.500, 990.904 80.500 C 991.677 80.500, 995.196 85.225, 998.724 91 C 1002.252 96.775, 1005.445 101.810, 1005.819 102.190 C 1006.631 103.013, 1021.201 106.132, 1021.736 105.597 C 1021.940 105.393, 1020.620 102.138, 1018.804 98.363 C 1015.657 91.826, 1014.575 90.731, 996 75.297 C 985.275 66.386, 975.038 57.505, 973.250 55.562 C 969.562 51.553, 969.016 47.597, 971.934 46.035 C 975.188 44.294, 976.652 44.928, 974.029 46.943 C 969.731 50.246, 971.884 53.124, 990.013 68.314 C 999.081 75.911, 1008.288 83.561, 1010.473 85.314 L 1014.445 88.500 1010.607 81.500 C 1005.549 72.276, 989.580 48.396, 985.623 44.141 C 983.905 42.293, 980.836 39.715, 978.802 38.411 C 975.396 36.228, 975.050 35.565, 974.423 30.020 C 973.655 23.234, 975.049 23.840, 962.283 24.736 M 848 26.060 C 848 28.491, 858.633 38.186, 864.411 41.023 C 883.911 50.598, 910.710 48.045, 925 35.251 C 927.475 33.035, 930.313 29.822, 931.307 28.111 L 933.113 25 890.557 25 C 861.250 25, 848 25.330, 848 26.060 M 1063.500 26.871 C 1059.518 29.344, 1056.374 32.865, 1055.067 36.315 C 1053.447 40.591, 1053.828 48.033, 1055.896 52.500 C 1057.634 56.254, 1063.084 62.366, 1064.415 62.054 C 1064.746 61.976, 1066.631 62.215, 1068.605 62.586 C 1070.715 62.982, 1073.904 62.719, 1076.346 61.949 C 1078.631 61.229, 1081.108 60.751, 1081.850 60.887 C 1082.593 61.023, 1082.944 60.719, 1082.631 60.212 C 1082.318 59.705, 1083.173 58.247, 1084.531 56.971 C 1085.889 55.695, 1087.044 55.067, 1087.098 55.576 C 1087.152 56.084, 1087.784 53.575, 1088.503 50 C 1090.166 41.732, 1089.018 35.734, 1084.901 31.178 C 1079.384 25.072, 1069.575 23.098, 1063.500 26.871 M 714 27.139 C 714 27.612, 714.712 28, 715.583 28 C 716.454 28, 716.967 28.563, 716.723 29.250 C 716.479 29.938, 715.317 30.393, 714.140 30.262 C 711.672 29.987, 711.668 29.997, 713.018 33.547 C 713.775 35.538, 714.543 36.091, 716.018 35.706 C 717.590 35.294, 718 35.687, 718 37.602 C 718 39.480, 717.123 40.367, 714.047 41.598 C 710.579 42.986, 707.531 45.925, 700.803 54.370 L 699.106 56.500 695.303 52.946 C 688.392 46.488, 687.427 46.411, 692.851 52.750 C 695.792 56.188, 698.761 59, 699.450 59 C 700.138 59, 702.906 56.325, 705.601 53.056 C 708.295 49.787, 710.950 47.237, 711.500 47.389 C 712.050 47.541, 713.372 52.232, 714.437 57.814 C 716.002 66.008, 716.193 69.275, 715.432 74.780 L 714.490 81.598 720.578 80.076 L 726.665 78.554 727.592 70.175 L 728.518 61.795 724.759 59.877 C 722.692 58.822, 721 57.297, 721 56.488 C 721 55.679, 720.100 54.455, 719 53.768 C 717.900 53.081, 717 51.952, 717 51.259 C 717 50.567, 717.900 50, 719 50 C 720.836 50, 722.289 51.162, 725.789 55.428 C 727.676 57.728, 728.877 57.359, 729.615 54.250 C 730.396 50.964, 732.914 47.829, 734.156 48.596 C 735.383 49.354, 741.239 61.094, 740.673 61.660 C 740.421 61.912, 737.579 61.356, 734.357 60.423 C 731.136 59.491, 727.825 58.536, 727 58.301 C 723.554 57.318, 731.196 61.091, 737.316 63.395 C 741.114 64.824, 744.198 65.489, 744.530 64.951 C 745.452 63.459, 735.956 44.201, 733.506 42.596 C 732.289 41.798, 729.652 40.838, 727.646 40.461 C 725.029 39.970, 724 39.261, 724 37.948 C 724 36.941, 723.500 35.809, 722.890 35.432 C 722.255 35.039, 722.003 33.366, 722.303 31.521 C 722.808 28.406, 722.677 28.263, 718.413 27.287 C 715.986 26.732, 714 26.665, 714 27.139 M 852.223 29.250 C 853.587 31.038, 856.859 34.145, 859.495 36.156 C 872.877 46.368, 899.409 47.907, 916.115 39.442 C 920.973 36.980, 930 28.832, 930 26.908 C 930 26.379, 913.254 26, 889.872 26 L 849.744 26 852.223 29.250 M 1068 26.691 C 1063.915 27.472, 1063.956 28.266, 1068.337 33.285 L 1072.514 38.071 1076.871 33.631 C 1080.875 29.552, 1081.075 29.111, 1079.345 28.185 C 1076.853 26.851, 1071.115 26.096, 1068 26.691 M 394.232 31 C 396.682 34.923, 409.448 34.996, 413.334 31.110 L 415.444 29 404.214 29 C 393.234 29, 393.011 29.045, 394.232 31 M 960.631 29.702 C 959.285 31.048, 960.095 33, 962 33 C 963.454 33, 964 33.667, 964 35.441 C 964 39.301, 965.832 39.413, 966.548 35.597 C 966.973 33.333, 967.646 32.311, 968.497 32.637 C 970.199 33.290, 971.518 31.118, 970.213 29.813 C 969.529 29.129, 968.518 29.482, 967.100 30.900 C 965.945 32.055, 965 32.566, 965 32.035 C 965 30.778, 961.451 28.882, 960.631 29.702 M 1060.039 31.459 L 1057.611 34.043 1063.020 39.520 L 1068.428 44.997 1063.497 50.003 L 1058.565 55.010 1060.778 57.222 L 1062.990 59.435 1068.057 54.467 L 1073.123 49.500 1077.005 54 L 1080.887 58.500 1083.093 56.323 L 1085.298 54.146 1081.114 49.393 L 1076.930 44.639 1081.682 39.815 L 1086.435 34.990 1084.169 32.745 L 1081.904 30.500 1077.255 35.400 L 1072.606 40.301 1067.536 34.587 L 1062.467 28.874 1060.039 31.459 M 1056.718 36.648 C 1054.594 40.084, 1055.477 53, 1057.836 53 C 1058.253 53, 1060.359 51.192, 1062.517 48.983 L 1066.439 44.966 1061.847 40.373 C 1059.321 37.847, 1057.013 36.171, 1056.718 36.648 M 1083.205 40.288 C 1081.442 42.107, 1080 44.052, 1080 44.611 C 1080 46.091, 1085.862 51.471, 1086.634 50.699 C 1087.755 49.579, 1088.280 40.323, 1087.321 38.609 C 1086.534 37.203, 1085.974 37.432, 1083.205 40.288 M 630.727 45.532 C 628.101 47.916, 625.176 50.061, 624.227 50.299 C 623.277 50.536, 623.850 50.556, 625.500 50.344 C 627.311 50.110, 630.067 48.393, 632.451 46.013 C 637.895 40.578, 636.584 40.212, 630.727 45.532 M 662.205 45.674 C 663.393 48.328, 664.667 53.650, 665.036 57.500 L 665.707 64.500 665.810 58 C 665.918 51.156, 663.419 41.925, 661.273 41.240 C 660.501 40.994, 660.848 42.641, 662.205 45.674 M 346.272 46.055 C 344.753 46.644, 342.170 50.690, 338.157 58.765 C 328.732 77.732, 328.124 78.503, 321.321 80.118 C 317.427 81.042, 315.500 81.997, 315.500 83 C 315.500 83.825, 316.063 84.455, 316.750 84.400 C 317.438 84.345, 320.936 84.233, 324.525 84.150 C 330.514 84.012, 331.128 83.793, 332.007 81.481 C 332.534 80.095, 335.266 75.552, 338.078 71.384 C 340.890 67.217, 344.108 61.601, 345.229 58.904 C 346.350 56.207, 347.667 54, 348.155 54 C 348.644 54, 350.308 55.992, 351.852 58.427 C 354.797 63.071, 358.636 77.764, 357.264 79.136 C 356.825 79.575, 354.673 80.307, 352.483 80.762 C 350.043 81.269, 348.500 82.153, 348.500 83.045 C 348.500 85.227, 362.857 85.136, 364.029 82.946 C 364.486 82.091, 364.449 80.742, 363.946 79.946 C 363.442 79.151, 363.024 76.860, 363.015 74.855 C 362.981 66.673, 355.422 49.510, 350.500 46.438 C 349.197 45.625, 347.724 45.491, 346.272 46.055 M 345.242 48.250 C 344.691 48.938, 341.754 54.675, 338.717 61 C 331.613 75.792, 327.887 80.966, 324.244 81.102 C 321.756 81.195, 321.826 81.281, 324.990 82.025 C 328.363 82.818, 331 81.888, 331 79.906 C 331 79.438, 333.635 75.044, 336.855 70.140 C 340.075 65.236, 343.562 59.150, 344.605 56.616 C 347.189 50.333, 348.827 50.507, 353.223 57.529 C 356.003 61.969, 360.246 77.197, 359.352 79.526 C 359.040 80.337, 358.133 81, 357.334 81 C 356.535 81, 356.160 81.450, 356.500 82 C 356.840 82.550, 358.472 83, 360.126 83 C 362.527 83, 363.028 82.647, 362.604 81.250 C 362.312 80.287, 361.607 76.521, 361.038 72.880 C 359.397 62.382, 356.305 54.767, 351.648 49.750 C 348.881 46.769, 346.818 46.286, 345.242 48.250 M 504.468 52.102 C 504.139 53.136, 504.152 54.436, 504.494 54.991 C 504.891 55.632, 502.603 56, 498.214 56 C 492.795 56, 490.954 56.393, 489.655 57.829 C 486.131 61.722, 488.718 69.061, 493.579 68.960 C 495.146 68.927, 495.005 68.651, 492.819 67.464 C 487.476 64.563, 488.409 58.577, 494.380 57.457 C 496.225 57.110, 505.445 56.979, 514.868 57.164 C 524.292 57.349, 532.002 57.163, 532.001 56.750 C 532 56.337, 526.862 56, 520.582 56 C 508.351 56, 506 55.580, 506 53.393 C 506 52.335, 507.982 51.941, 514.250 51.756 C 528.880 51.322, 534.490 51.861, 542.574 54.478 C 546.933 55.889, 554.212 57.326, 558.750 57.670 L 567 58.297 567 62.698 L 567 67.099 561.167 66.439 C 556.783 65.943, 553.314 66.303, 547.194 67.890 C 540.136 69.719, 536.189 70, 517.526 70 C 503.842 70, 496 70.364, 496 71 C 496 71.635, 503.603 72, 516.810 72 C 534.732 72, 538.787 71.705, 546.032 69.873 C 552.435 68.254, 556.185 67.877, 561.723 68.295 L 569 68.846 569 62.423 L 569 56 561.750 55.993 C 556.759 55.989, 551.139 55.048, 543.714 52.975 C 533.910 50.238, 531.658 49.975, 518.996 50.093 C 506.302 50.210, 505.011 50.389, 504.468 52.102 M 732.135 51.748 C 730.072 55.602, 730.744 57.586, 734.500 58.739 C 738.598 59.996, 738.627 59.872, 735.590 54.064 C 733.393 49.864, 733.209 49.741, 732.135 51.748 M 1069.196 55.298 C 1064.666 59.971, 1065.039 61.003, 1071.250 60.985 C 1078.967 60.962, 1079.884 60.002, 1076.381 55.610 C 1074.796 53.625, 1073.251 52, 1072.946 52 C 1072.642 52, 1070.954 53.484, 1069.196 55.298 M 143 56.068 C 137.775 56.458, 130.659 57.522, 127.187 58.433 C 120.450 60.198, 112 63.923, 112 65.127 C 112 66.513, 122.534 70.793, 130.500 72.642 C 141.371 75.167, 169.208 75.162, 179.500 72.634 C 187.325 70.712, 197 66.598, 197 65.192 C 197 63.554, 185.710 59.178, 177.500 57.634 C 167.321 55.720, 155.088 55.165, 143 56.068 M 140.500 57.612 C 133.802 58.316, 122.727 61.168, 118.547 63.265 L 114.594 65.248 118.095 67.044 C 126.540 71.377, 133.619 72.447, 154 72.474 C 174.235 72.501, 179.731 71.765, 189.250 67.755 C 191.863 66.654, 194 65.408, 194 64.985 C 194 63.920, 186.964 61.210, 179.632 59.450 C 173.559 57.992, 148.207 56.801, 140.500 57.612 M 608.009 78.226 C 605.657 84.977, 603.520 91.175, 603.260 92 C 603.001 92.825, 605.135 89.450, 608.003 84.500 C 612.296 77.089, 613.195 74.718, 613.094 71.068 C 613.026 68.631, 612.816 66.483, 612.628 66.295 C 612.440 66.106, 610.361 71.476, 608.009 78.226 M 968.031 76.637 L 968 87.773 971.250 88.267 C 975.147 88.859, 978.004 87.566, 977.990 85.215 C 977.979 83.183, 974.194 75.123, 970.611 69.500 L 968.062 65.500 968.031 76.637 M 693.086 69.839 C 692.166 71.558, 692.410 73.251, 695.520 86.750 C 695.805 87.987, 696.480 89, 697.019 89 C 698.566 89, 698.150 79.811, 696.456 76.562 C 695.525 74.777, 695.166 72.521, 695.541 70.812 C 696.244 67.614, 694.621 66.971, 693.086 69.839 M 792 87.500 C 792 99.833, 792.368 107, 793 107 C 793.632 107, 794 99.833, 794 87.500 C 794 75.167, 793.632 68, 793 68 C 792.368 68, 792 75.167, 792 87.500 M 614.997 70.628 C 614.996 71.657, 615.742 78.086, 616.656 84.913 L 618.316 97.325 616.047 99.163 L 613.778 101 616.664 101 L 619.551 101 619.251 90.250 C 618.857 76.109, 618.210 71.419, 616.451 69.959 C 615.271 68.980, 615 69.105, 614.997 70.628 M 697 72.066 C 697 73.202, 697.503 75.071, 698.118 76.220 C 698.733 77.369, 699.268 80.449, 699.308 83.065 L 699.379 87.821 704.402 85.842 C 712.834 82.518, 712.753 82.932, 706.310 76.162 C 700.260 69.804, 697 68.370, 697 72.066 M 889.420 89.500 C 889.419 100.500, 889.565 105.136, 889.745 99.803 C 889.924 94.470, 889.925 85.470, 889.746 79.803 C 889.568 74.136, 889.421 78.500, 889.420 89.500 M 1092 89.500 C 1092 101.833, 1092.368 109, 1093 109 C 1093.632 109, 1094 101.833, 1094 89.500 C 1094 77.167, 1093.632 70, 1093 70 C 1092.368 70, 1092 77.167, 1092 89.500 M 61.724 78.740 C 61.419 81.908, 59.781 87.824, 58.085 91.888 C 56.388 95.951, 55 99.663, 55 100.138 C 55 100.612, 57.469 101, 60.487 101 C 66.580 101, 66.325 101.299, 70.694 88.998 C 72.282 84.529, 72.269 84.142, 70.429 80.611 C 69.368 78.575, 67.100 76.026, 65.390 74.945 L 62.280 72.981 61.724 78.740 M 237 81.481 C 237 84.376, 234.190 92.869, 229.300 104.750 C 228.922 105.668, 230.381 106, 234.800 106 L 240.813 106 243.985 98.381 C 248.058 88.597, 247.052 83.825, 240.043 79.684 L 237 77.887 237 81.481 M 715 83.402 C 705.731 86.661, 695 91.711, 695 92.815 C 695 95.453, 697.878 96.125, 704.008 94.919 C 708.900 93.956, 711.554 93.972, 716.985 94.997 C 720.741 95.706, 724.506 96.020, 725.352 95.695 C 727.277 94.956, 728.432 89.118, 727.566 84.500 C 727.004 81.503, 726.520 81.008, 724.205 81.059 C 722.717 81.091, 718.575 82.146, 715 83.402 M 408.795 85.915 C 399.794 87.876, 389 92.188, 389 93.822 C 389 95.026, 396.731 98.329, 405 100.658 C 413.314 102.999, 448.181 103.321, 457 101.139 C 463.596 99.506, 474 95.064, 474 93.880 C 474 92.522, 465.057 88.415, 458 86.533 C 447.781 83.806, 420.070 83.459, 408.795 85.915 M 410.500 87.089 C 403.942 88.376, 395.971 90.965, 393.638 92.567 C 391.914 93.751, 392.065 93.993, 395.688 95.841 C 403.053 99.598, 414.251 101.268, 432 101.257 C 444.131 101.249, 450.460 100.786, 455.903 99.508 C 464.202 97.560, 469.548 95.541, 470.504 93.994 C 471.200 92.867, 466.403 90.575, 458.500 88.259 C 452.391 86.469, 417.944 85.630, 410.500 87.089 M 977.519 88.969 C 977.092 89.661, 975.112 90.016, 972.747 89.826 L 968.706 89.500 966.856 94.920 C 965.839 97.901, 965.171 100.505, 965.373 100.706 C 965.575 100.908, 968.531 101.592, 971.943 102.227 C 979.331 103.601, 979.969 103.066, 979.969 95.500 C 979.969 90.083, 978.784 86.923, 977.519 88.969 M 21.116 94.750 C 21.052 98.188, 21.341 101, 21.757 101 C 22.174 101, 22.377 98.862, 22.208 96.250 C 21.719 88.651, 21.241 87.995, 21.116 94.750 M 1063.186 89.714 C 1059.489 90.420, 1052.362 97.981, 1050.968 102.675 C 1048.770 110.079, 1048.568 110, 1069.591 110 C 1084.371 110, 1088.041 109.740, 1087.263 108.750 C 1086.723 108.063, 1085.983 105.932, 1085.619 104.016 C 1083.672 93.778, 1074.046 87.641, 1063.186 89.714 M 1059.990 93.250 C 1055.318 96.429, 1052.942 100.014, 1052.292 104.862 L 1051.730 109.051 1068.115 108.775 L 1084.500 108.500 1084.173 105.500 C 1082.928 94.072, 1069.085 87.060, 1059.990 93.250 M 299.079 99.750 C 299.036 103.188, 299.384 106, 299.853 106 C 300.322 106, 300.512 103.638, 300.274 100.750 C 299.639 93.042, 299.169 92.649, 299.079 99.750 M 691.184 96.750 L 691.500 99.500 709 99.500 C 718.625 99.500, 728.075 99.862, 730 100.305 L 733.500 101.111 730.500 99.328 C 728.850 98.347, 725.700 97.462, 723.500 97.360 C 721.300 97.259, 716.861 96.852, 713.635 96.455 C 709.973 96.004, 705.713 96.194, 702.294 96.959 C 697.143 98.111, 696.730 98.060, 695.352 96.092 C 693.185 92.998, 690.795 93.375, 691.184 96.750" stroke="none" fill="#f9f9f9" fill-rule="evenodd"/></svg>