<svg xmlns="http://www.w3.org/2000/svg" width="788" height="126" viewBox="0 0 788 126" version="1.1"><path d="M 536.198 13.122 C 534.973 13.576, 533.527 15.113, 532.985 16.538 C 531.639 20.079, 531.653 97, 533 97 C 533.650 97, 534 83.024, 534 57.071 C 534 21.551, 534.179 16.963, 535.625 15.518 C 537.796 13.347, 541.267 13.970, 542.487 16.750 C 543.030 17.988, 543.818 19, 544.237 19 C 546.481 19, 542.939 13.479, 540.243 12.774 C 539.243 12.512, 537.423 12.669, 536.198 13.122 M 595.721 13.444 C 580.385 17.492, 576.979 38.704, 590.280 47.329 C 597.516 52.020, 604.672 52.069, 611.444 47.474 C 613.449 46.113, 615.781 45, 616.628 45 C 617.474 45, 617.966 44.437, 617.721 43.750 C 617.475 43.063, 617.952 41.161, 618.780 39.523 C 619.608 37.886, 620.342 34.736, 620.411 32.523 C 620.818 19.407, 608.677 10.025, 595.721 13.444 M 668.667 12.667 C 668.300 13.033, 668 20.950, 668 30.260 L 668 47.186 663 43 C 657.075 38.039, 656.339 38.972, 661.897 44.400 C 665.724 48.137, 665.760 48.240, 663.897 50.103 C 660.681 53.319, 662.137 57.610, 667 59.243 C 668.092 59.610, 667.074 61.140, 663.250 64.877 C 660.362 67.698, 658 70.551, 658 71.216 C 658 71.881, 660.250 70.209, 663 67.500 L 668 62.575 668 80.288 L 668 98 673.500 98 L 679 98 679 55 L 679 12 674.167 12 C 671.508 12, 669.033 12.300, 668.667 12.667 M 593.500 15.863 C 591.300 16.864, 588.882 18.429, 588.128 19.342 C 586.860 20.873, 587.848 21, 601 21 C 614.152 21, 615.140 20.873, 613.872 19.342 C 611.822 16.864, 604.971 14.044, 601 14.044 C 599.075 14.044, 595.700 14.863, 593.500 15.863 M 669 55 L 669 96 673.500 96 L 678 96 678 55 L 678 14 673.500 14 L 669 14 669 55 M 7.313 17.766 C 3.675 20.140, 2.824 32.782, 5.898 38.790 C 6.942 40.830, 9.867 45.854, 12.398 49.954 L 17 57.408 17 71.526 C 17 81.822, 16.568 86.910, 15.406 90.322 L 13.812 95 6.906 95 C 2.969 95, 0 95.430, 0 96 C 0 96.578, 3.160 97, 7.481 97 C 11.596 97, 18.171 97.550, 22.092 98.223 C 29.140 99.431, 29.244 99.417, 31.226 96.973 C 32.883 94.928, 33.140 93.510, 32.712 88.779 L 32.195 83.059 36.216 85.110 C 40.994 87.548, 42.031 86.868, 42.259 81.153 C 42.350 78.869, 42.667 77.013, 42.962 77.028 C 43.258 77.044, 45.865 80.982, 48.755 85.778 C 56.574 98.757, 56.708 98.887, 63.515 100.060 C 66.807 100.627, 71.028 101.366, 72.896 101.700 C 76.076 102.270, 76.259 102.156, 75.775 99.905 C 75.490 98.582, 74.926 96.712, 74.522 95.750 C 73.998 94.504, 74.249 94, 75.393 94 C 77.907 94, 77.298 92.395, 73.621 89.323 C 71.762 87.770, 69.108 84.250, 67.722 81.500 C 64.770 75.640, 55.560 61.481, 45.806 47.806 C 39.344 38.747, 35.847 35.057, 29.632 30.741 C 27.500 29.260, 27.052 28.073, 26.800 23.241 L 26.500 17.500 17.500 17.245 C 12.550 17.105, 7.966 17.340, 7.313 17.766 M 93.455 19.455 C 91.190 21.719, 91 22.652, 91 31.479 C 91 44.826, 86.551 43.817, 139.750 42.535 L 175 41.685 175 29.288 L 175 16.890 170.274 17.195 L 165.549 17.500 163.683 27.058 L 161.818 36.615 147.498 36.184 C 139.623 35.947, 127.925 36.295, 121.503 36.957 C 115.082 37.619, 109.531 37.865, 109.169 37.503 C 108.807 37.141, 108.237 34.292, 107.903 31.172 L 107.294 25.500 107.147 30.162 L 107 34.824 102.250 34.662 C 98.622 34.538, 97.500 34.854, 97.500 36 C 97.500 36.930, 98.830 37.735, 101 38.118 L 104.500 38.737 101 38.855 C 93.413 39.110, 93 38.651, 93 29.955 C 93 21.147, 94.193 19, 99.086 19 C 101.334 19, 102.498 19.768, 104.011 22.250 C 105.719 25.052, 105.993 25.200, 105.996 23.323 C 106.001 20.642, 101.578 17, 98.320 17 C 96.994 17, 94.805 18.105, 93.455 19.455 M 278.765 19.750 C 278.112 21.262, 277.561 25.654, 277.539 29.509 C 277.501 36.341, 277.657 36.783, 283.750 47.078 L 290 57.638 290.005 71.569 C 290.009 82.016, 289.596 86.655, 288.355 90.118 L 286.700 94.737 278.254 95.264 C 273.610 95.553, 269.359 96.241, 268.809 96.791 C 268.143 97.457, 270.705 97.610, 276.497 97.249 C 281.569 96.932, 288.668 97.248, 293.553 98.008 C 304.379 99.692, 305 99.247, 305 89.796 L 305 82.837 308.368 84.918 C 310.220 86.063, 312.182 87, 312.727 87 C 313.273 87, 314.120 84.742, 314.609 81.983 L 315.500 76.966 320.805 85.733 C 328.980 99.244, 328.414 98.753, 337.886 100.543 C 346.939 102.255, 348.994 101.726, 347.093 98.173 C 345.591 95.367, 345.724 94, 347.500 94 C 349.939 94, 349.232 92.414, 345.534 89.594 C 343.361 87.936, 340.381 83.697, 337.543 78.225 C 335.054 73.426, 328.133 62.300, 322.163 53.500 C 313.807 41.183, 310.007 36.505, 305.654 33.179 C 300.312 29.097, 300 28.619, 300 24.511 C 300 17.047, 299.934 17, 289.368 17 C 280.049 17, 279.938 17.029, 278.765 19.750 M 392.763 18.509 C 387.708 21.356, 387 24.298, 387 42.450 L 387 59 381 59 L 375 59 375 80.500 L 375 102 388.020 102 L 401.040 102 400.770 80.750 L 400.500 59.500 394.820 59.202 L 389.139 58.904 388.808 43.202 C 388.625 34.566, 388.791 26.531, 389.177 25.346 C 391.391 18.540, 400.791 16.637, 406.077 21.923 C 407.795 23.641, 409 25.908, 409 27.423 C 409 28.840, 409.450 30, 410 30 C 410.631 30, 411 36.978, 411 48.934 L 411 67.867 408.296 68.184 C 405.756 68.481, 405.598 68.793, 405.711 73.296 C 405.854 79.003, 407.247 81, 411.088 81 C 415.305 81, 419.563 76.416, 419.696 71.734 C 419.769 69.148, 419.371 68, 418.401 68 C 417.630 68, 417.015 67.662, 417.033 67.250 C 417.135 64.961, 426.997 57, 429.732 57 C 430.718 57, 431 61.998, 431 79.500 C 431 98.833, 431.211 102, 432.500 102 C 433.791 102, 434 98.736, 434 78.622 C 434 59.062, 434.245 55.042, 435.500 54 C 437.422 52.405, 437.410 50.111, 435.469 47.966 C 434.627 47.036, 433.670 44.009, 433.342 41.240 C 432.821 36.844, 433.006 36.067, 434.801 35.106 C 437.296 33.771, 441.340 26.001, 440.852 23.481 C 440.546 21.901, 437.577 19.534, 433.213 17.390 C 432.505 17.042, 431.119 17.487, 430.134 18.379 C 429.149 19.270, 427.826 20, 427.194 20 C 426.563 20, 425.294 21.149, 424.374 22.552 C 422.784 24.979, 422.807 25.248, 424.851 28.012 C 426.033 29.611, 427 31.377, 427 31.936 C 427 32.496, 428.125 33.691, 429.500 34.592 C 430.946 35.539, 432 37.183, 432 38.490 C 432 42.911, 430.729 47, 429.355 47 C 425.297 47, 416.469 55.126, 414.113 61.030 C 413.403 62.809, 413.109 58.814, 413.063 46.750 C 413.029 37.537, 412.600 30, 412.111 30 C 411.623 30, 410.942 28.504, 410.599 26.675 C 409.218 19.312, 399.354 14.796, 392.763 18.509 M 488.063 19.163 C 486.954 20.353, 485.528 22.940, 484.893 24.913 C 484.259 26.886, 483.286 29.071, 482.732 29.769 C 482.027 30.656, 482.216 31.581, 483.362 32.847 C 484.263 33.843, 485 35.237, 485 35.945 C 485 36.741, 485.765 37.033, 487 36.710 C 490.126 35.893, 489.345 37.615, 485.952 39.020 C 484.276 39.714, 480.338 43.119, 477.202 46.586 L 471.500 52.890 466.734 48.375 C 464.113 45.892, 461.370 42.429, 460.639 40.680 C 459.076 36.941, 456.518 34.562, 455.041 35.475 C 454.331 35.913, 454.317 36.724, 454.997 37.995 C 455.549 39.025, 456 40.714, 456 41.747 C 456 42.780, 457.381 44.948, 459.069 46.563 C 460.757 48.178, 463.961 51.862, 466.190 54.750 C 468.419 57.638, 470.930 60, 471.770 60 C 472.609 60, 475.644 57.457, 478.514 54.349 L 483.731 48.698 485.508 58.131 C 487.201 67.119, 487.013 79.001, 485.178 79 C 484.805 78.999, 482.536 76.718, 480.135 73.931 C 474.834 67.775, 467.921 63.991, 465.558 65.952 C 463.582 67.592, 463.597 70.476, 465.636 80.749 L 467.273 88.997 464.637 91.071 C 463.186 92.212, 462 93.994, 462 95.032 C 462 96.368, 460.830 97.270, 458 98.118 C 452.366 99.806, 452.548 102.395, 458.250 101.670 C 465.299 100.774, 499.050 100.636, 505.876 101.475 C 513.714 102.438, 514.018 100.694, 506.467 98.084 L 501.500 96.367 501.500 79.767 C 501.500 70.636, 501.827 62.840, 502.226 62.440 C 502.625 62.041, 505.597 62.679, 508.829 63.857 C 512.061 65.036, 515.447 66, 516.353 66 C 519.122 66, 518.291 61.590, 513.650 51.659 C 509.043 41.800, 505.411 38, 500.596 38 C 497.465 38, 497.341 37.355, 500.049 35.160 C 502.624 33.075, 503.914 27.495, 502.801 23.263 C 501.264 17.418, 492.071 14.861, 488.063 19.163 M 6.083 24.049 C 5.487 26.826, 5 29.991, 5 31.082 C 5 33.902, 8.955 41.365, 19.191 57.856 C 24.091 65.752, 28.816 73.998, 29.689 76.181 C 31.180 79.906, 38.371 85.962, 39.712 84.622 C 39.999 84.334, 40.465 82.052, 40.747 79.549 C 41.059 76.787, 41.763 75, 42.540 75 C 43.244 75, 46.555 79.425, 49.897 84.833 C 53.240 90.242, 56.768 95.363, 57.737 96.214 C 59.385 97.661, 72.748 100.585, 73.640 99.694 C 73.863 99.470, 72.733 96.411, 71.129 92.894 C 68.646 87.451, 66.969 85.497, 59.856 79.757 C 55.260 76.048, 45.218 67.948, 37.540 61.757 C 29.862 55.566, 22.722 49.018, 21.674 47.208 C 19.847 44.054, 19.841 43.833, 21.538 41.958 C 22.513 40.881, 24.253 40.029, 25.405 40.063 C 27.495 40.127, 27.495 40.129, 25.352 40.993 C 19.001 43.556, 21.350 46.730, 41.471 62.771 C 50.837 70.237, 59.956 77.700, 61.735 79.355 C 63.514 81.010, 65.204 82.129, 65.490 81.843 C 66.095 81.238, 57.931 68.046, 47.665 53.041 C 40.831 43.052, 36.661 38.312, 28.614 31.391 C 25.428 28.650, 25 27.733, 25 23.641 L 25 19 16.083 19 L 7.166 19 6.083 24.049 M 166.623 20.750 C 165.837 23.440, 164 34.159, 164 36.059 C 164 37.091, 165.071 37.984, 166.750 38.351 C 168.262 38.681, 170.512 39.240, 171.750 39.593 C 173.940 40.216, 174 40.034, 174 32.742 C 174 21.301, 173.321 19, 169.942 19 C 168.130 19, 166.953 19.620, 166.623 20.750 M 279.625 22.125 C 279.281 23.844, 279 27.513, 279 30.279 C 279 35.854, 279.925 37.753, 293.822 60.712 C 298.221 67.979, 302.320 75.439, 302.931 77.290 C 304.031 80.624, 310.912 85.755, 312.352 84.314 C 312.709 83.958, 313 81.684, 313 79.260 C 313 72.518, 315.452 74.022, 322.116 84.850 C 329.713 97.193, 330.249 97.710, 336.330 98.541 C 339.174 98.930, 342.512 99.631, 343.750 100.100 C 346.732 101.227, 346.622 100.292, 342.890 92.769 C 339.595 86.130, 340.357 86.851, 309.566 61.253 C 294.277 48.542, 292.185 46.085, 293.742 42.668 C 294.341 41.353, 295.769 40.032, 296.915 39.732 C 299.583 39.035, 299.661 40.655, 297 41.500 C 294.622 42.255, 294.425 44.735, 296.509 47.709 C 297.338 48.894, 305.326 55.813, 314.259 63.085 C 323.191 70.357, 332.188 77.904, 334.250 79.857 C 336.313 81.809, 338 83.003, 338 82.511 C 338 80.917, 329.922 67.856, 319.440 52.500 C 310.204 38.970, 304.894 33, 302.097 33 C 300.040 33, 298 28.407, 298 23.777 L 298 19 289.125 19 L 280.250 19 279.625 22.125 M 431.184 21.531 C 431.593 24.807, 433.407 24.807, 433.816 21.531 C 434.042 19.727, 433.664 19, 432.500 19 C 431.336 19, 430.958 19.727, 431.184 21.531 M 488.698 20.781 C 487.764 21.813, 487 22.924, 487 23.249 C 487 23.800, 492.251 25.375, 494.500 25.498 C 496.988 25.635, 497.969 27.078, 496.822 28.914 C 495.342 31.283, 496.505 34.242, 498.745 33.811 C 499.901 33.588, 500.805 32.013, 501.402 29.181 C 502.167 25.554, 501.997 24.472, 500.304 22.194 C 497.712 18.709, 491.282 17.926, 488.698 20.781 M 724.667 19.667 C 724.300 20.033, 724 27.233, 724 35.667 L 724 51 736.500 51 L 749 51 749 35 L 749 19 737.167 19 C 730.658 19, 725.033 19.300, 724.667 19.667 M 546.435 45 C 546.435 59.025, 546.575 64.763, 546.747 57.750 C 546.919 50.738, 546.919 39.263, 546.747 32.250 C 546.575 25.238, 546.435 30.975, 546.435 45 M 726 35.534 L 726 50.068 736.750 49.784 L 747.500 49.500 747.777 35.250 L 748.055 21 737.027 21 L 726 21 726 35.534 M 425.494 23.009 C 424.732 24.242, 425.824 28, 426.945 28 C 428.482 28, 430.033 25.249, 429.410 23.627 C 428.714 21.813, 426.454 21.456, 425.494 23.009 M 435.590 23.627 C 434.975 25.229, 436.512 28, 438.015 28 C 439.177 28, 440.014 25.201, 439.362 23.500 C 438.599 21.511, 436.373 21.586, 435.590 23.627 M 585.035 23.934 C 582.934 27.861, 583.481 28, 601 28 C 618.519 28, 619.066 27.861, 616.965 23.934 C 616.012 22.155, 614.737 22, 601 22 C 587.263 22, 585.988 22.155, 585.035 23.934 M 10 25.500 C 10 26.325, 10.880 27, 11.955 27 C 13.396 27, 14.081 27.917, 14.564 30.491 C 15.288 34.351, 17 34.298, 17 30.416 C 17 28.691, 17.769 27.658, 19.560 26.977 C 20.968 26.442, 21.842 25.553, 21.501 25.002 C 20.602 23.547, 18.432 23.774, 17.023 25.472 C 15.947 26.768, 15.625 26.768, 14.329 25.472 C 12.423 23.566, 10 23.581, 10 25.500 M 283 25.500 C 283 26.325, 283.880 27, 284.955 27 C 286.396 27, 287.081 27.917, 287.564 30.491 C 288.288 34.351, 290 34.298, 290 30.416 C 290 28.691, 290.769 27.658, 292.560 26.977 C 293.968 26.442, 294.842 25.553, 294.501 25.002 C 293.585 23.519, 291.423 23.785, 289.948 25.563 C 288.771 26.981, 288.569 26.981, 287.775 25.563 C 286.659 23.568, 283 23.519, 283 25.500 M 486 25.776 C 486 26.321, 487.012 27.093, 488.250 27.492 C 490.386 28.180, 490.351 28.249, 487.557 28.858 C 485.938 29.211, 484.713 29.725, 484.835 30 C 484.957 30.275, 485.321 31.512, 485.645 32.750 C 486.047 34.289, 486.986 35, 488.617 35 C 492.642 35, 491.608 38.422, 486.946 40.524 C 483.772 41.955, 476.331 49.264, 472.274 54.935 C 472.103 55.174, 470.284 53.800, 468.232 51.881 C 461.406 45.499, 460.538 45.435, 465.545 51.681 C 468.270 55.080, 471.217 57.893, 472.094 57.931 C 472.970 57.969, 475.853 55.300, 478.500 52 C 481.147 48.700, 483.655 46, 484.073 46 C 484.869 46, 486.066 50.909, 488.025 62.199 C 488.881 67.133, 488.899 70.242, 488.094 73.998 C 487.492 76.803, 487 79.452, 487 79.884 C 487 80.316, 489.687 79.969, 492.972 79.113 L 498.944 77.558 499.504 73.029 C 499.812 70.538, 500.280 66.808, 500.545 64.740 C 500.991 61.258, 500.775 60.860, 497.611 59.351 C 495.732 58.455, 493.705 56.647, 493.106 55.333 C 492.507 54.019, 491.338 52.683, 490.509 52.365 C 488.244 51.496, 488.694 49, 491.115 49 C 492.278 49, 494.673 50.575, 496.436 52.500 C 500.144 56.548, 502 56.956, 502 53.723 C 502 51.306, 504.538 47, 505.962 47 C 506.925 47, 513.262 60.071, 512.614 60.719 C 512.383 60.951, 509.156 60.202, 505.444 59.056 C 501.733 57.909, 498.519 57.147, 498.304 57.363 C 497.552 58.115, 515.506 64.827, 516.282 64.084 C 517.431 62.984, 509.923 46.106, 506.982 43.178 C 505.598 41.799, 502.739 40.182, 500.629 39.585 C 497.339 38.655, 496.585 37.885, 495.334 34.177 C 494.283 31.061, 494.176 29.493, 494.950 28.560 C 495.783 27.557, 495.290 27.142, 492.762 26.718 C 490.968 26.417, 488.712 25.859, 487.750 25.478 C 486.788 25.097, 486 25.232, 486 25.776 M 430.189 28.039 C 427.470 30.572, 427.438 31.629, 430.038 33.020 C 434.508 35.413, 438.111 30.968, 434.571 27.429 C 432.759 25.616, 432.794 25.611, 430.189 28.039 M 583 31.418 C 583 35.905, 583.374 36, 601.107 36 C 610.398 36, 618.006 35.663, 618.014 35.250 C 618.021 34.837, 618.299 33.487, 618.630 32.250 L 619.233 30 601.117 30 C 586.144 30, 583 30.246, 583 31.418 M 585.500 40 L 587.051 43 601 43 L 614.949 43 616.500 40 L 618.051 37 601 37 L 583.949 37 585.500 40 M 122.917 38.416 C 122.688 38.645, 119.125 39.097, 115 39.421 C 95.641 40.942, 100.142 41.475, 130 41.198 C 161.972 40.902, 168.635 40.443, 162.500 38.961 C 159.332 38.196, 123.630 37.704, 122.917 38.416 M 244.500 40.399 C 235.537 43.233, 228.543 48.194, 218.652 58.733 C 215.435 62.162, 210.372 66.357, 207.401 68.057 C 204.430 69.756, 202 71.304, 202 71.496 C 202 71.689, 203.276 73.123, 204.837 74.683 C 206.397 76.243, 207.887 78.160, 208.148 78.943 C 208.529 80.086, 209.686 79.837, 214.008 77.684 C 218.297 75.546, 220.827 74.996, 226.446 74.978 C 235.014 74.951, 240.168 72.851, 244.907 67.453 C 250.351 61.252, 255 49.005, 255 40.864 C 255 38.618, 250.728 38.429, 244.500 40.399 M 457.526 40.959 C 457.112 41.627, 457.268 42.668, 457.870 43.270 C 459.407 44.807, 460.380 43.501, 459.230 41.447 C 458.530 40.196, 458.077 40.067, 457.526 40.959 M 247.500 43.511 C 241.076 46.442, 234.207 52.274, 227.406 60.571 C 224.432 64.198, 222 67.303, 222 67.472 C 222 67.640, 222.563 67.757, 223.250 67.731 C 226.491 67.611, 229 68.073, 229 68.790 C 229 69.583, 220.255 69.588, 219.462 68.796 C 218.413 67.747, 232.755 51.563, 238.505 47.307 C 242.025 44.702, 244.716 42.382, 244.485 42.152 C 244.255 41.921, 241.510 42.984, 238.386 44.512 C 234.711 46.310, 228.962 50.889, 222.103 57.480 C 216.271 63.083, 210.037 68.515, 208.250 69.550 C 206.463 70.585, 205.014 71.672, 205.032 71.966 C 205.049 72.260, 206.155 73.740, 207.489 75.256 L 209.915 78.012 214.029 75.868 C 217.012 74.313, 220.321 73.647, 226.054 73.446 C 236.215 73.091, 241.046 70.585, 246.225 62.983 C 249.881 57.618, 253.453 46.831, 252.816 43.085 C 252.516 41.323, 252.251 41.344, 247.500 43.511 M 590 45.551 C 590 46.753, 597.168 49, 601 49 C 604.832 49, 612 46.753, 612 45.551 C 612 45.248, 607.050 45, 601 45 C 594.950 45, 590 45.248, 590 45.551 M 423.767 51.512 C 420.192 53.941, 416.230 59.564, 414.086 65.250 C 412.600 69.193, 414.042 68.604, 417.362 63.913 C 419.175 61.351, 422.199 58.900, 425.612 57.226 C 430.212 54.970, 431 54.175, 431 51.792 C 431 48.213, 428.751 48.126, 423.767 51.512 M 504.161 51.547 C 502.345 55.533, 502.742 56.585, 506.500 57.739 C 508.611 58.386, 510 58.437, 510 57.867 C 510 56.826, 506.152 49, 505.640 49 C 505.465 49, 504.799 50.146, 504.161 51.547 M 665.031 51.463 C 663.423 53.400, 664.113 56.398, 666.261 56.812 C 667.602 57.070, 668 56.457, 668 54.132 C 668 50.590, 666.714 49.434, 665.031 51.463 M 18.370 64.390 C 18.717 67.079, 19 72.121, 19 75.594 L 19 81.909 22.587 82.582 C 26.978 83.406, 29.566 81.386, 28.671 77.835 C 28.068 75.442, 20.538 62.297, 18.741 60.500 C 18.074 59.833, 17.951 61.130, 18.370 64.390 M 291.559 70.500 C 291.932 76.550, 292.353 81.632, 292.495 81.793 C 292.636 81.954, 294.339 82.343, 296.279 82.658 C 299.175 83.128, 300.007 82.855, 300.927 81.137 C 301.856 79.400, 301.457 77.892, 298.576 72.272 C 296.668 68.547, 294.155 64.150, 292.993 62.500 L 290.880 59.500 291.559 70.500 M 377 81 L 377 101 388 101 L 399 101 399 81 L 399 61 388 61 L 377 61 377 81 M 384.362 66.500 C 383.569 68.564, 384.644 71, 386.346 71 C 388.393 71, 390.135 68.514, 389.410 66.627 C 388.626 64.584, 385.131 64.496, 384.362 66.500 M 465.731 68.921 C 465.270 70.685, 467.359 83.485, 468.682 87 C 469.898 90.231, 470.925 82.621, 469.820 78.564 C 469.211 76.329, 468.733 72.813, 468.757 70.750 C 468.803 66.746, 466.641 65.439, 465.731 68.921 M 469.718 70.250 C 469.472 70.938, 469.737 72.400, 470.308 73.500 C 470.878 74.600, 471.605 78.071, 471.922 81.213 L 472.500 86.927 478.250 84.320 C 481.413 82.886, 484 81.409, 484 81.039 C 484 80.668, 481.620 77.808, 478.712 74.682 C 473.563 69.151, 470.631 67.705, 469.718 70.250 M 407.986 71.250 C 407.979 71.938, 407.748 73.400, 407.473 74.500 C 406.853 76.984, 407.858 78.530, 410.657 79.403 C 413.680 80.346, 417.869 76.348, 417.658 72.721 C 417.510 70.165, 417.214 70.001, 412.750 70.001 C 409.624 70, 407.995 70.427, 407.986 71.250 M 591 78.983 C 586.325 79.362, 580.025 80.246, 577 80.948 C 570.702 82.407, 560 86.887, 560 88.064 C 560 89.505, 570.378 93.756, 578.500 95.642 C 590.622 98.457, 616.479 98.207, 627.858 95.165 C 636.518 92.850, 644 89.582, 644 88.116 C 644 86.668, 632.336 81.959, 625.259 80.551 C 616.434 78.795, 601.648 78.118, 591 78.983 M 91.438 82.880 C 99.523 98.515, 123.041 106.091, 143.411 99.622 C 151.146 97.166, 160.173 91.414, 162.181 87.662 C 163.282 85.605, 163.374 85.657, 164.485 88.954 C 165.941 93.281, 169.988 96.456, 172.878 95.539 C 175.839 94.599, 176.498 90.851, 174.457 86.550 C 171.246 79.784, 172.737 80, 129.252 80 L 89.949 80 91.438 82.880 M 385.250 80.731 C 383.545 81.325, 383.664 85.657, 385.403 86.324 C 387.473 87.119, 390.222 84.742, 389.477 82.801 C 388.755 80.920, 387.071 80.095, 385.250 80.731 M 489 81.894 C 485.975 82.876, 479.762 85.401, 475.193 87.505 C 467.011 91.273, 466.915 91.359, 468.799 93.244 C 470.560 95.005, 471.208 95.060, 476.935 93.933 C 481.949 92.947, 484.526 92.967, 490.207 94.039 C 496.806 95.284, 497.344 95.249, 498.628 93.494 C 500.029 91.578, 500.487 84.434, 499.393 81.582 C 498.621 79.569, 495.906 79.651, 489 81.894 M 585 81.017 C 577.256 82.096, 565.469 85.729, 564.010 87.488 C 563.224 88.434, 564.135 89.232, 567.735 90.748 C 577.140 94.711, 582.830 95.500, 602 95.500 C 621.163 95.500, 626.860 94.711, 636.250 90.755 C 638.862 89.654, 641 88.408, 641 87.985 C 641 86.927, 634.002 84.222, 626.632 82.432 C 619.195 80.625, 593.964 79.768, 585 81.017 M 93 82.364 C 93 84.588, 102.277 93.318, 107.273 95.796 C 114.907 99.582, 126.805 101.370, 135.324 100.012 C 142.391 98.885, 152.585 94.666, 156.500 91.247 C 159.406 88.709, 164 82.998, 164 81.923 C 164 81.376, 149.533 81, 128.500 81 C 99.181 81, 93 81.238, 93 82.364 M 165.523 83.927 C 164.115 88.365, 169.705 95.536, 172.991 93.506 C 174.823 92.373, 174.042 88.203, 171.411 85.077 C 168.444 81.550, 166.404 81.152, 165.523 83.927 M 27.952 84.077 C 27.154 84.596, 24.874 84.762, 22.886 84.446 C 19.281 83.872, 19.269 83.882, 17.580 89.045 C 16.649 91.892, 16.175 94.508, 16.526 94.860 C 16.878 95.211, 19.484 96.021, 22.317 96.659 C 29.735 98.330, 31 97.363, 31 90.024 C 31 83.809, 30.341 82.523, 27.952 84.077 M 300.582 83.750 C 300.169 84.162, 298.008 84.500, 295.779 84.500 C 291.843 84.500, 291.689 84.629, 290.379 89 C 288.436 95.484, 288.531 95.703, 293.628 96.467 C 296.173 96.849, 298.815 97.376, 299.499 97.638 C 301.634 98.457, 304.001 95.051, 303.986 91.179 C 303.962 84.681, 302.608 81.727, 300.582 83.750 M 464.184 95.750 L 464.500 98.500 481.500 98.502 C 490.850 98.503, 500.075 98.866, 502 99.307 L 505.500 100.111 502.500 98.359 C 500.850 97.396, 497.925 96.519, 496 96.411 C 494.075 96.303, 489.471 95.880, 485.769 95.472 C 481.218 94.970, 477.558 95.144, 474.465 96.010 C 470.170 97.212, 469.800 97.159, 468.389 95.145 C 466.190 92.006, 463.792 92.351, 464.184 95.750 M 699.743 97.541 C 696.759 102.481, 696.578 103, 697.843 103 C 698.306 103, 699.533 101.425, 700.570 99.500 C 701.607 97.575, 702.770 96, 703.155 96 C 703.540 96, 704.951 97.401, 706.291 99.112 L 708.727 102.225 711.485 98.608 L 714.244 94.991 716.872 98.459 C 718.317 100.367, 719.725 101.940, 720 101.957 C 720.275 101.973, 721.574 100.410, 722.886 98.483 L 725.271 94.980 728.399 98.599 L 731.526 102.217 734.118 98.574 L 736.710 94.931 739.515 98.608 L 742.319 102.285 745.160 98.892 L 748 95.500 750.840 98.892 L 753.681 102.285 756.485 98.608 L 759.290 94.931 761.882 98.574 L 764.474 102.217 767.516 98.697 L 770.558 95.178 772.948 99.331 C 774.263 101.616, 775.514 102.957, 775.729 102.312 C 775.944 101.667, 774.872 99.252, 773.345 96.946 L 770.570 92.752 767.733 96.126 L 764.896 99.500 761.961 96 C 760.130 93.817, 758.738 92.897, 758.263 93.556 C 757.843 94.137, 756.685 95.712, 755.688 97.056 L 753.877 99.500 750.938 96.038 L 748 92.576 745.029 96.038 C 743.157 98.219, 741.770 99.109, 741.279 98.444 C 740.851 97.863, 739.693 96.288, 738.706 94.944 L 736.912 92.500 733.977 96 L 731.041 99.500 728.329 96.098 L 725.617 92.696 722.757 96.098 L 719.896 99.500 717.132 96.137 L 714.368 92.775 711.556 96.116 L 708.745 99.457 706.050 96.228 C 704.567 94.453, 703.159 93, 702.920 93 C 702.681 93, 701.251 95.043, 699.743 97.541" stroke="none" fill="#232323" fill-rule="evenodd"/><path d="M 0 47.500 L 0 95 6.906 95 L 13.812 95 15.406 90.322 C 16.568 86.910, 17 81.822, 17 71.526 L 17 57.408 12.398 49.954 C 5.018 37.999, 4 35.543, 4 29.689 C 4 22.687, 5.619 18.134, 8.353 17.447 C 9.538 17.150, 14.105 17.040, 18.503 17.203 L 26.500 17.500 26.800 23.241 C 27.052 28.073, 27.500 29.260, 29.632 30.741 C 35.847 35.057, 39.344 38.747, 45.806 47.806 C 55.560 61.481, 64.770 75.640, 67.722 81.500 C 69.108 84.250, 71.762 87.770, 73.621 89.323 C 77.298 92.395, 77.907 94, 75.393 94 C 74.249 94, 73.998 94.504, 74.522 95.750 C 74.926 96.713, 75.490 98.582, 75.775 99.905 C 76.259 102.156, 76.076 102.270, 72.896 101.700 C 71.028 101.366, 66.807 100.627, 63.515 100.060 C 56.708 98.887, 56.574 98.757, 48.755 85.778 C 45.865 80.982, 43.258 77.044, 42.962 77.028 C 42.667 77.013, 42.350 78.869, 42.259 81.153 C 42.031 86.868, 40.994 87.548, 36.216 85.110 L 32.195 83.059 32.712 88.779 C 33.140 93.510, 32.883 94.928, 31.226 96.973 C 29.244 99.417, 29.140 99.431, 22.092 98.223 C 18.171 97.550, 11.596 97, 7.481 97 L 0 97 -0 111.501 L -0 126.003 394.250 125.751 L 788.500 125.500 788.763 62.750 L 789.026 0 394.513 0 L 0 0 0 47.500 M 0.462 48 C 0.462 74.125, 0.591 84.813, 0.749 71.750 C 0.907 58.688, 0.907 37.313, 0.749 24.250 C 0.591 11.188, 0.462 21.875, 0.462 48 M 536.198 13.122 C 534.973 13.576, 533.527 15.113, 532.985 16.538 C 531.639 20.079, 531.653 97, 533 97 C 533.650 97, 534 83.024, 534 57.071 C 534 21.551, 534.179 16.963, 535.625 15.518 C 537.796 13.347, 541.267 13.970, 542.487 16.750 C 543.030 17.988, 543.818 19, 544.237 19 C 546.481 19, 542.939 13.479, 540.243 12.774 C 539.243 12.512, 537.423 12.669, 536.198 13.122 M 595.721 13.444 C 580.385 17.492, 576.979 38.704, 590.280 47.329 C 597.516 52.020, 604.672 52.069, 611.444 47.474 C 613.449 46.113, 615.781 45, 616.628 45 C 617.474 45, 617.966 44.437, 617.721 43.750 C 617.475 43.063, 617.952 41.161, 618.780 39.523 C 619.608 37.886, 620.342 34.736, 620.411 32.523 C 620.818 19.407, 608.677 10.025, 595.721 13.444 M 668.667 12.667 C 668.300 13.033, 668 20.950, 668 30.260 L 668 47.186 663 43 C 657.075 38.039, 656.339 38.972, 661.897 44.400 C 665.724 48.137, 665.760 48.240, 663.897 50.103 C 660.681 53.319, 662.137 57.610, 667 59.243 C 668.092 59.610, 667.074 61.140, 663.250 64.877 C 660.362 67.698, 658 70.551, 658 71.216 C 658 71.881, 660.250 70.209, 663 67.500 L 668 62.575 668 80.288 L 668 98 673.500 98 L 679 98 679 55 L 679 12 674.167 12 C 671.508 12, 669.033 12.300, 668.667 12.667 M 593.500 15.863 C 591.300 16.864, 588.882 18.429, 588.128 19.342 C 586.860 20.873, 587.848 21, 601 21 C 614.152 21, 615.140 20.873, 613.872 19.342 C 611.822 16.864, 604.971 14.044, 601 14.044 C 599.075 14.044, 595.700 14.863, 593.500 15.863 M 669 55 L 669 96 673.500 96 L 678 96 678 55 L 678 14 673.500 14 L 669 14 669 55 M 93.455 19.455 C 91.190 21.719, 91 22.652, 91 31.479 C 91 44.826, 86.551 43.817, 139.750 42.535 L 175 41.685 175 29.288 L 175 16.890 170.274 17.195 L 165.549 17.500 163.683 27.058 L 161.818 36.615 147.498 36.184 C 139.623 35.947, 127.925 36.295, 121.503 36.957 C 115.082 37.619, 109.531 37.865, 109.169 37.503 C 108.807 37.141, 108.237 34.292, 107.903 31.172 L 107.294 25.500 107.147 30.162 L 107 34.824 102.250 34.662 C 98.622 34.538, 97.500 34.854, 97.500 36 C 97.500 36.930, 98.830 37.735, 101 38.118 L 104.500 38.737 101 38.855 C 93.413 39.110, 93 38.651, 93 29.955 C 93 21.147, 94.193 19, 99.086 19 C 101.334 19, 102.498 19.768, 104.011 22.250 C 105.719 25.052, 105.993 25.200, 105.996 23.323 C 106.001 20.642, 101.578 17, 98.320 17 C 96.994 17, 94.805 18.105, 93.455 19.455 M 278.765 19.750 C 278.112 21.262, 277.561 25.654, 277.539 29.509 C 277.501 36.341, 277.657 36.783, 283.750 47.078 L 290 57.638 290.005 71.569 C 290.009 82.016, 289.596 86.655, 288.355 90.118 L 286.700 94.737 278.254 95.264 C 273.610 95.553, 269.359 96.241, 268.809 96.791 C 268.143 97.457, 270.705 97.610, 276.497 97.249 C 281.569 96.932, 288.668 97.248, 293.553 98.008 C 304.379 99.692, 305 99.247, 305 89.796 L 305 82.837 308.368 84.918 C 310.220 86.063, 312.182 87, 312.727 87 C 313.273 87, 314.120 84.742, 314.609 81.983 L 315.500 76.966 320.805 85.733 C 328.980 99.244, 328.414 98.753, 337.886 100.543 C 346.939 102.255, 348.994 101.726, 347.093 98.173 C 345.591 95.367, 345.724 94, 347.500 94 C 349.939 94, 349.232 92.414, 345.534 89.594 C 343.361 87.936, 340.381 83.697, 337.543 78.225 C 335.054 73.426, 328.133 62.300, 322.163 53.500 C 313.807 41.183, 310.007 36.505, 305.654 33.179 C 300.312 29.097, 300 28.619, 300 24.511 C 300 17.047, 299.934 17, 289.368 17 C 280.049 17, 279.938 17.029, 278.765 19.750 M 392.763 18.509 C 387.708 21.356, 387 24.298, 387 42.450 L 387 59 381 59 L 375 59 375 80.500 L 375 102 388.020 102 L 401.040 102 400.770 80.750 L 400.500 59.500 394.820 59.202 L 389.139 58.904 388.808 43.202 C 388.625 34.566, 388.791 26.531, 389.177 25.346 C 391.391 18.540, 400.791 16.637, 406.077 21.923 C 407.795 23.641, 409 25.908, 409 27.423 C 409 28.840, 409.450 30, 410 30 C 410.631 30, 411 36.978, 411 48.934 L 411 67.867 408.296 68.184 C 405.756 68.481, 405.598 68.793, 405.711 73.296 C 405.854 79.003, 407.247 81, 411.088 81 C 415.305 81, 419.563 76.416, 419.696 71.734 C 419.769 69.148, 419.371 68, 418.401 68 C 417.630 68, 417.015 67.662, 417.033 67.250 C 417.135 64.961, 426.997 57, 429.732 57 C 430.718 57, 431 61.998, 431 79.500 C 431 98.833, 431.211 102, 432.500 102 C 433.791 102, 434 98.736, 434 78.622 C 434 59.062, 434.245 55.042, 435.500 54 C 437.422 52.405, 437.410 50.111, 435.469 47.966 C 434.627 47.036, 433.670 44.009, 433.342 41.240 C 432.821 36.844, 433.006 36.067, 434.801 35.106 C 437.296 33.771, 441.340 26.001, 440.852 23.481 C 440.546 21.901, 437.577 19.534, 433.213 17.390 C 432.505 17.042, 431.119 17.487, 430.134 18.379 C 429.149 19.270, 427.826 20, 427.194 20 C 426.563 20, 425.294 21.149, 424.374 22.552 C 422.784 24.979, 422.807 25.248, 424.851 28.012 C 426.033 29.611, 427 31.377, 427 31.936 C 427 32.496, 428.125 33.691, 429.500 34.592 C 430.946 35.539, 432 37.183, 432 38.490 C 432 42.911, 430.729 47, 429.355 47 C 425.297 47, 416.469 55.126, 414.113 61.030 C 413.403 62.809, 413.109 58.814, 413.063 46.750 C 413.029 37.537, 412.600 30, 412.111 30 C 411.623 30, 410.942 28.504, 410.599 26.675 C 409.218 19.312, 399.354 14.796, 392.763 18.509 M 488.063 19.163 C 486.954 20.353, 485.528 22.940, 484.893 24.913 C 484.259 26.886, 483.286 29.071, 482.732 29.769 C 482.027 30.656, 482.216 31.581, 483.362 32.847 C 484.263 33.843, 485 35.237, 485 35.945 C 485 36.741, 485.765 37.033, 487 36.710 C 490.126 35.893, 489.345 37.615, 485.952 39.020 C 484.276 39.714, 480.338 43.119, 477.202 46.586 L 471.500 52.890 466.734 48.375 C 464.113 45.892, 461.370 42.429, 460.639 40.680 C 459.076 36.941, 456.518 34.562, 455.041 35.475 C 454.331 35.913, 454.317 36.724, 454.997 37.995 C 455.549 39.025, 456 40.714, 456 41.747 C 456 42.780, 457.381 44.948, 459.069 46.563 C 460.757 48.178, 463.961 51.862, 466.190 54.750 C 468.419 57.638, 470.930 60, 471.770 60 C 472.609 60, 475.644 57.457, 478.514 54.349 L 483.731 48.698 485.508 58.131 C 487.201 67.119, 487.013 79.001, 485.178 79 C 484.805 78.999, 482.536 76.718, 480.135 73.931 C 474.834 67.775, 467.921 63.991, 465.558 65.952 C 463.582 67.592, 463.597 70.476, 465.636 80.749 L 467.273 88.997 464.637 91.071 C 463.186 92.212, 462 93.994, 462 95.032 C 462 96.368, 460.830 97.270, 458 98.118 C 452.366 99.806, 452.548 102.395, 458.250 101.670 C 465.299 100.774, 499.050 100.636, 505.876 101.475 C 513.714 102.438, 514.018 100.694, 506.467 98.084 L 501.500 96.367 501.500 79.767 C 501.500 70.636, 501.827 62.840, 502.226 62.440 C 502.625 62.041, 505.597 62.679, 508.829 63.857 C 512.061 65.036, 515.447 66, 516.353 66 C 519.122 66, 518.291 61.590, 513.650 51.659 C 509.043 41.800, 505.411 38, 500.596 38 C 497.465 38, 497.341 37.355, 500.049 35.160 C 502.624 33.075, 503.914 27.495, 502.801 23.263 C 501.264 17.418, 492.071 14.861, 488.063 19.163 M 6.083 24.049 C 5.487 26.826, 5 29.991, 5 31.082 C 5 33.902, 8.955 41.365, 19.191 57.856 C 24.091 65.752, 28.816 73.998, 29.689 76.181 C 31.180 79.906, 38.371 85.962, 39.712 84.622 C 39.999 84.334, 40.465 82.052, 40.747 79.549 C 41.059 76.787, 41.763 75, 42.540 75 C 43.244 75, 46.555 79.425, 49.897 84.833 C 53.240 90.242, 56.768 95.363, 57.737 96.214 C 59.385 97.661, 72.748 100.585, 73.640 99.694 C 73.863 99.470, 72.733 96.411, 71.129 92.894 C 68.646 87.451, 66.969 85.497, 59.856 79.757 C 55.260 76.048, 45.218 67.948, 37.540 61.757 C 29.862 55.566, 22.722 49.018, 21.674 47.208 C 19.847 44.054, 19.841 43.833, 21.538 41.958 C 22.513 40.881, 24.253 40.029, 25.405 40.063 C 27.495 40.127, 27.495 40.129, 25.352 40.993 C 19.001 43.556, 21.350 46.730, 41.471 62.771 C 50.837 70.237, 59.956 77.700, 61.735 79.355 C 63.514 81.010, 65.204 82.129, 65.490 81.843 C 66.095 81.238, 57.931 68.046, 47.665 53.041 C 40.831 43.052, 36.661 38.312, 28.614 31.391 C 25.428 28.650, 25 27.733, 25 23.641 L 25 19 16.083 19 L 7.166 19 6.083 24.049 M 166.623 20.750 C 165.837 23.440, 164 34.159, 164 36.059 C 164 37.091, 165.071 37.984, 166.750 38.351 C 168.262 38.681, 170.512 39.240, 171.750 39.593 C 173.940 40.216, 174 40.034, 174 32.742 C 174 21.301, 173.321 19, 169.942 19 C 168.130 19, 166.953 19.620, 166.623 20.750 M 279.625 22.125 C 279.281 23.844, 279 27.513, 279 30.279 C 279 35.854, 279.925 37.753, 293.822 60.712 C 298.221 67.979, 302.320 75.439, 302.931 77.290 C 304.031 80.624, 310.912 85.755, 312.352 84.314 C 312.709 83.958, 313 81.684, 313 79.260 C 313 72.518, 315.452 74.022, 322.116 84.850 C 329.713 97.193, 330.249 97.710, 336.330 98.541 C 339.174 98.930, 342.512 99.631, 343.750 100.100 C 346.732 101.227, 346.622 100.292, 342.890 92.769 C 339.595 86.130, 340.357 86.851, 309.566 61.253 C 294.277 48.542, 292.185 46.085, 293.742 42.668 C 294.341 41.353, 295.769 40.032, 296.915 39.732 C 299.583 39.035, 299.661 40.655, 297 41.500 C 294.622 42.255, 294.425 44.735, 296.509 47.709 C 297.338 48.894, 305.326 55.813, 314.259 63.085 C 323.191 70.357, 332.188 77.904, 334.250 79.857 C 336.313 81.809, 338 83.003, 338 82.511 C 338 80.917, 329.922 67.856, 319.440 52.500 C 310.204 38.970, 304.894 33, 302.097 33 C 300.040 33, 298 28.407, 298 23.777 L 298 19 289.125 19 L 280.250 19 279.625 22.125 M 431.184 21.531 C 431.593 24.807, 433.407 24.807, 433.816 21.531 C 434.042 19.727, 433.664 19, 432.500 19 C 431.336 19, 430.958 19.727, 431.184 21.531 M 488.698 20.781 C 487.764 21.813, 487 22.924, 487 23.249 C 487 23.800, 492.251 25.375, 494.500 25.498 C 496.988 25.635, 497.969 27.078, 496.822 28.914 C 495.342 31.283, 496.505 34.242, 498.745 33.811 C 499.901 33.588, 500.805 32.013, 501.402 29.181 C 502.167 25.554, 501.997 24.472, 500.304 22.194 C 497.712 18.709, 491.282 17.926, 488.698 20.781 M 724.667 19.667 C 724.300 20.033, 724 27.233, 724 35.667 L 724 51 736.500 51 L 749 51 749 35 L 749 19 737.167 19 C 730.658 19, 725.033 19.300, 724.667 19.667 M 546.435 45 C 546.435 59.025, 546.575 64.763, 546.747 57.750 C 546.919 50.738, 546.919 39.263, 546.747 32.250 C 546.575 25.238, 546.435 30.975, 546.435 45 M 726 35.534 L 726 50.068 736.750 49.784 L 747.500 49.500 747.777 35.250 L 748.055 21 737.027 21 L 726 21 726 35.534 M 425.494 23.009 C 424.732 24.242, 425.824 28, 426.945 28 C 428.482 28, 430.033 25.249, 429.410 23.627 C 428.714 21.813, 426.454 21.456, 425.494 23.009 M 435.590 23.627 C 434.975 25.229, 436.512 28, 438.015 28 C 439.177 28, 440.014 25.201, 439.362 23.500 C 438.599 21.511, 436.373 21.586, 435.590 23.627 M 585.035 23.934 C 582.934 27.861, 583.481 28, 601 28 C 618.519 28, 619.066 27.861, 616.965 23.934 C 616.012 22.155, 614.737 22, 601 22 C 587.263 22, 585.988 22.155, 585.035 23.934 M 10 25.500 C 10 26.325, 10.880 27, 11.955 27 C 13.396 27, 14.081 27.917, 14.564 30.491 C 15.288 34.351, 17 34.298, 17 30.416 C 17 28.691, 17.769 27.658, 19.560 26.977 C 20.968 26.442, 21.842 25.553, 21.501 25.002 C 20.602 23.547, 18.432 23.774, 17.023 25.472 C 15.947 26.768, 15.625 26.768, 14.329 25.472 C 12.423 23.566, 10 23.581, 10 25.500 M 283 25.500 C 283 26.325, 283.880 27, 284.955 27 C 286.396 27, 287.081 27.917, 287.564 30.491 C 288.288 34.351, 290 34.298, 290 30.416 C 290 28.691, 290.769 27.658, 292.560 26.977 C 293.968 26.442, 294.842 25.553, 294.501 25.002 C 293.585 23.519, 291.423 23.785, 289.948 25.563 C 288.771 26.981, 288.569 26.981, 287.775 25.563 C 286.659 23.568, 283 23.519, 283 25.500 M 486 25.776 C 486 26.321, 487.012 27.093, 488.250 27.492 C 490.386 28.180, 490.351 28.249, 487.557 28.858 C 485.938 29.211, 484.713 29.725, 484.835 30 C 484.957 30.275, 485.321 31.512, 485.645 32.750 C 486.047 34.289, 486.986 35, 488.617 35 C 492.642 35, 491.608 38.422, 486.946 40.524 C 483.772 41.955, 476.331 49.264, 472.274 54.935 C 472.103 55.174, 470.284 53.800, 468.232 51.881 C 461.406 45.499, 460.538 45.435, 465.545 51.681 C 468.270 55.080, 471.217 57.893, 472.094 57.931 C 472.970 57.969, 475.853 55.300, 478.500 52 C 481.147 48.700, 483.655 46, 484.073 46 C 484.869 46, 486.066 50.909, 488.025 62.199 C 488.881 67.133, 488.899 70.242, 488.094 73.998 C 487.492 76.803, 487 79.452, 487 79.884 C 487 80.316, 489.687 79.969, 492.972 79.113 L 498.944 77.558 499.504 73.029 C 499.812 70.538, 500.280 66.808, 500.545 64.740 C 500.991 61.258, 500.775 60.860, 497.611 59.351 C 495.732 58.455, 493.705 56.647, 493.106 55.333 C 492.507 54.019, 491.338 52.683, 490.509 52.365 C 488.244 51.496, 488.694 49, 491.115 49 C 492.278 49, 494.673 50.575, 496.436 52.500 C 500.144 56.548, 502 56.956, 502 53.723 C 502 51.306, 504.538 47, 505.962 47 C 506.925 47, 513.262 60.071, 512.614 60.719 C 512.383 60.951, 509.156 60.202, 505.444 59.056 C 501.733 57.909, 498.519 57.147, 498.304 57.363 C 497.552 58.115, 515.506 64.827, 516.282 64.084 C 517.431 62.984, 509.923 46.106, 506.982 43.178 C 505.598 41.799, 502.739 40.182, 500.629 39.585 C 497.339 38.655, 496.585 37.885, 495.334 34.177 C 494.283 31.061, 494.176 29.493, 494.950 28.560 C 495.783 27.557, 495.290 27.142, 492.762 26.718 C 490.968 26.417, 488.712 25.859, 487.750 25.478 C 486.788 25.097, 486 25.232, 486 25.776 M 430.189 28.039 C 427.470 30.572, 427.438 31.629, 430.038 33.020 C 434.508 35.413, 438.111 30.968, 434.571 27.429 C 432.759 25.616, 432.794 25.611, 430.189 28.039 M 583 31.418 C 583 35.905, 583.374 36, 601.107 36 C 610.398 36, 618.006 35.663, 618.014 35.250 C 618.021 34.837, 618.299 33.487, 618.630 32.250 L 619.233 30 601.117 30 C 586.144 30, 583 30.246, 583 31.418 M 585.500 40 L 587.051 43 601 43 L 614.949 43 616.500 40 L 618.051 37 601 37 L 583.949 37 585.500 40 M 122.917 38.416 C 122.688 38.645, 119.125 39.097, 115 39.421 C 95.641 40.942, 100.142 41.475, 130 41.198 C 161.972 40.902, 168.635 40.443, 162.500 38.961 C 159.332 38.196, 123.630 37.704, 122.917 38.416 M 244.500 40.399 C 235.537 43.233, 228.543 48.194, 218.652 58.733 C 215.435 62.162, 210.372 66.357, 207.401 68.057 C 204.430 69.756, 202 71.304, 202 71.496 C 202 71.689, 203.276 73.123, 204.837 74.683 C 206.397 76.243, 207.887 78.160, 208.148 78.943 C 208.529 80.086, 209.686 79.837, 214.008 77.684 C 218.297 75.546, 220.827 74.996, 226.446 74.978 C 235.014 74.951, 240.168 72.851, 244.907 67.453 C 250.351 61.252, 255 49.005, 255 40.864 C 255 38.618, 250.728 38.429, 244.500 40.399 M 457.526 40.959 C 457.112 41.627, 457.268 42.668, 457.870 43.270 C 459.407 44.807, 460.380 43.501, 459.230 41.447 C 458.530 40.196, 458.077 40.067, 457.526 40.959 M 247.500 43.511 C 241.076 46.442, 234.207 52.274, 227.406 60.571 C 224.432 64.198, 222 67.303, 222 67.472 C 222 67.640, 222.563 67.757, 223.250 67.731 C 226.491 67.611, 229 68.073, 229 68.790 C 229 69.583, 220.255 69.588, 219.462 68.796 C 218.413 67.747, 232.755 51.563, 238.505 47.307 C 242.025 44.702, 244.716 42.382, 244.485 42.152 C 244.255 41.921, 241.510 42.984, 238.386 44.512 C 234.711 46.310, 228.962 50.889, 222.103 57.480 C 216.271 63.083, 210.037 68.515, 208.250 69.550 C 206.463 70.585, 205.014 71.672, 205.032 71.966 C 205.049 72.260, 206.155 73.740, 207.489 75.256 L 209.915 78.012 214.029 75.868 C 217.012 74.313, 220.321 73.647, 226.054 73.446 C 236.215 73.091, 241.046 70.585, 246.225 62.983 C 249.881 57.618, 253.453 46.831, 252.816 43.085 C 252.516 41.323, 252.251 41.344, 247.500 43.511 M 590 45.551 C 590 46.753, 597.168 49, 601 49 C 604.832 49, 612 46.753, 612 45.551 C 612 45.248, 607.050 45, 601 45 C 594.950 45, 590 45.248, 590 45.551 M 423.767 51.512 C 420.192 53.941, 416.230 59.564, 414.086 65.250 C 412.600 69.193, 414.042 68.604, 417.362 63.913 C 419.175 61.351, 422.199 58.900, 425.612 57.226 C 430.212 54.970, 431 54.175, 431 51.792 C 431 48.213, 428.751 48.126, 423.767 51.512 M 504.161 51.547 C 502.345 55.533, 502.742 56.585, 506.500 57.739 C 508.611 58.386, 510 58.437, 510 57.867 C 510 56.826, 506.152 49, 505.640 49 C 505.465 49, 504.799 50.146, 504.161 51.547 M 665.031 51.463 C 663.423 53.400, 664.113 56.398, 666.261 56.812 C 667.602 57.070, 668 56.457, 668 54.132 C 668 50.590, 666.714 49.434, 665.031 51.463 M 18.370 64.390 C 18.717 67.079, 19 72.121, 19 75.594 L 19 81.909 22.587 82.582 C 26.978 83.406, 29.566 81.386, 28.671 77.835 C 28.068 75.442, 20.538 62.297, 18.741 60.500 C 18.074 59.833, 17.951 61.130, 18.370 64.390 M 291.559 70.500 C 291.932 76.550, 292.353 81.632, 292.495 81.793 C 292.636 81.954, 294.339 82.343, 296.279 82.658 C 299.175 83.128, 300.007 82.855, 300.927 81.137 C 301.856 79.400, 301.457 77.892, 298.576 72.272 C 296.668 68.547, 294.155 64.150, 292.993 62.500 L 290.880 59.500 291.559 70.500 M 377 81 L 377 101 388 101 L 399 101 399 81 L 399 61 388 61 L 377 61 377 81 M 384.362 66.500 C 383.569 68.564, 384.644 71, 386.346 71 C 388.393 71, 390.135 68.514, 389.410 66.627 C 388.626 64.584, 385.131 64.496, 384.362 66.500 M 465.731 68.921 C 465.270 70.685, 467.359 83.485, 468.682 87 C 469.898 90.231, 470.925 82.621, 469.820 78.564 C 469.211 76.329, 468.733 72.813, 468.757 70.750 C 468.803 66.746, 466.641 65.439, 465.731 68.921 M 469.718 70.250 C 469.472 70.938, 469.737 72.400, 470.308 73.500 C 470.878 74.600, 471.605 78.071, 471.922 81.213 L 472.500 86.927 478.250 84.320 C 481.413 82.886, 484 81.409, 484 81.039 C 484 80.668, 481.620 77.808, 478.712 74.682 C 473.563 69.151, 470.631 67.705, 469.718 70.250 M 407.986 71.250 C 407.979 71.938, 407.748 73.400, 407.473 74.500 C 406.853 76.984, 407.858 78.530, 410.657 79.403 C 413.680 80.346, 417.869 76.348, 417.658 72.721 C 417.510 70.165, 417.214 70.001, 412.750 70.001 C 409.624 70, 407.995 70.427, 407.986 71.250 M 591 78.983 C 586.325 79.362, 580.025 80.246, 577 80.948 C 570.702 82.407, 560 86.887, 560 88.064 C 560 89.505, 570.378 93.756, 578.500 95.642 C 590.622 98.457, 616.479 98.207, 627.858 95.165 C 636.518 92.850, 644 89.582, 644 88.116 C 644 86.668, 632.336 81.959, 625.259 80.551 C 616.434 78.795, 601.648 78.118, 591 78.983 M 91.438 82.880 C 99.523 98.515, 123.041 106.091, 143.411 99.622 C 151.146 97.166, 160.173 91.414, 162.181 87.662 C 163.282 85.605, 163.374 85.657, 164.485 88.954 C 165.941 93.281, 169.988 96.456, 172.878 95.539 C 175.839 94.599, 176.498 90.851, 174.457 86.550 C 171.246 79.784, 172.737 80, 129.252 80 L 89.949 80 91.438 82.880 M 385.250 80.731 C 383.545 81.325, 383.664 85.657, 385.403 86.324 C 387.473 87.119, 390.222 84.742, 389.477 82.801 C 388.755 80.920, 387.071 80.095, 385.250 80.731 M 489 81.894 C 485.975 82.876, 479.762 85.401, 475.193 87.505 C 467.011 91.273, 466.915 91.359, 468.799 93.244 C 470.560 95.005, 471.208 95.060, 476.935 93.933 C 481.949 92.947, 484.526 92.967, 490.207 94.039 C 496.806 95.284, 497.344 95.249, 498.628 93.494 C 500.029 91.578, 500.487 84.434, 499.393 81.582 C 498.621 79.569, 495.906 79.651, 489 81.894 M 585 81.017 C 577.256 82.096, 565.469 85.729, 564.010 87.488 C 563.224 88.434, 564.135 89.232, 567.735 90.748 C 577.140 94.711, 582.830 95.500, 602 95.500 C 621.163 95.500, 626.860 94.711, 636.250 90.755 C 638.862 89.654, 641 88.408, 641 87.985 C 641 86.927, 634.002 84.222, 626.632 82.432 C 619.195 80.625, 593.964 79.768, 585 81.017 M 93 82.364 C 93 84.588, 102.277 93.318, 107.273 95.796 C 114.907 99.582, 126.805 101.370, 135.324 100.012 C 142.391 98.885, 152.585 94.666, 156.500 91.247 C 159.406 88.709, 164 82.998, 164 81.923 C 164 81.376, 149.533 81, 128.500 81 C 99.181 81, 93 81.238, 93 82.364 M 165.523 83.927 C 164.115 88.365, 169.705 95.536, 172.991 93.506 C 174.823 92.373, 174.042 88.203, 171.411 85.077 C 168.444 81.550, 166.404 81.152, 165.523 83.927 M 27.952 84.077 C 27.154 84.596, 24.874 84.762, 22.886 84.446 C 19.281 83.872, 19.269 83.882, 17.580 89.045 C 16.649 91.892, 16.175 94.508, 16.526 94.860 C 16.878 95.211, 19.484 96.021, 22.317 96.659 C 29.735 98.330, 31 97.363, 31 90.024 C 31 83.809, 30.341 82.523, 27.952 84.077 M 300.582 83.750 C 300.169 84.162, 298.008 84.500, 295.779 84.500 C 291.843 84.500, 291.689 84.629, 290.379 89 C 288.436 95.484, 288.531 95.703, 293.628 96.467 C 296.173 96.849, 298.815 97.376, 299.499 97.638 C 301.634 98.457, 304.001 95.051, 303.986 91.179 C 303.962 84.681, 302.608 81.727, 300.582 83.750 M 464.184 95.750 L 464.500 98.500 481.500 98.502 C 490.850 98.503, 500.075 98.866, 502 99.307 L 505.500 100.111 502.500 98.359 C 500.850 97.396, 497.925 96.519, 496 96.411 C 494.075 96.303, 489.471 95.880, 485.769 95.472 C 481.218 94.970, 477.558 95.144, 474.465 96.010 C 470.170 97.212, 469.800 97.159, 468.389 95.145 C 466.190 92.006, 463.792 92.351, 464.184 95.750 M 699.743 97.541 C 696.759 102.481, 696.578 103, 697.843 103 C 698.306 103, 699.533 101.425, 700.570 99.500 C 701.607 97.575, 702.770 96, 703.155 96 C 703.540 96, 704.951 97.401, 706.291 99.112 L 708.727 102.225 711.485 98.608 L 714.244 94.991 716.872 98.459 C 718.317 100.367, 719.725 101.940, 720 101.957 C 720.275 101.973, 721.574 100.410, 722.886 98.483 L 725.271 94.980 728.399 98.599 L 731.526 102.217 734.118 98.574 L 736.710 94.931 739.515 98.608 L 742.319 102.285 745.160 98.892 L 748 95.500 750.840 98.892 L 753.681 102.285 756.485 98.608 L 759.290 94.931 761.882 98.574 L 764.474 102.217 767.516 98.697 L 770.558 95.178 772.948 99.331 C 774.263 101.616, 775.514 102.957, 775.729 102.312 C 775.944 101.667, 774.872 99.252, 773.345 96.946 L 770.570 92.752 767.733 96.126 L 764.896 99.500 761.961 96 C 760.130 93.817, 758.738 92.897, 758.263 93.556 C 757.843 94.137, 756.685 95.712, 755.688 97.056 L 753.877 99.500 750.938 96.038 L 748 92.576 745.029 96.038 C 743.157 98.219, 741.770 99.109, 741.279 98.444 C 740.851 97.863, 739.693 96.288, 738.706 94.944 L 736.912 92.500 733.977 96 L 731.041 99.500 728.329 96.098 L 725.617 92.696 722.757 96.098 L 719.896 99.500 717.132 96.137 L 714.368 92.775 711.556 96.116 L 708.745 99.457 706.050 96.228 C 704.567 94.453, 703.159 93, 702.920 93 C 702.681 93, 701.251 95.043, 699.743 97.541 M 0.400 111.500 C 0.401 119.750, 0.556 122.992, 0.744 118.704 C 0.932 114.417, 0.931 107.667, 0.742 103.704 C 0.552 99.742, 0.399 103.250, 0.400 111.500" stroke="none" fill="#f9f9f9" fill-rule="evenodd"/></svg>