<svg xmlns="http://www.w3.org/2000/svg" width="736" height="132" viewBox="0 0 736 132" version="1.1"><path d="M 495.500 21.494 C 494.950 21.676, 493.271 22.096, 491.768 22.427 C 488.493 23.149, 482.425 28.278, 480.544 31.914 C 479.800 33.354, 479.035 36.100, 478.845 38.016 L 478.500 41.500 498.165 41.771 L 517.830 42.042 516.551 37.193 C 514.824 30.646, 512.500 27.366, 507.608 24.571 C 503.683 22.328, 497.627 20.789, 495.500 21.494 M 564.420 22.482 C 562.814 23.167, 560.643 24.688, 559.595 25.863 C 558.547 27.039, 556.747 28.018, 555.595 28.039 C 553.958 28.070, 554.193 28.380, 556.671 29.458 C 560.685 31.204, 562 33.675, 562 39.473 C 562 43.262, 563.506 47.065, 570.500 60.943 C 576.855 73.551, 578.992 78.779, 578.969 81.654 C 578.952 83.769, 577.253 89.775, 575.194 95 L 571.449 104.500 564.725 104.796 C 561.026 104.958, 558 105.521, 558 106.046 C 558 106.616, 565.241 107, 576 107 C 587.333 107, 594 106.630, 594 106 C 594 105.450, 592.425 105, 590.500 105 C 588.575 105, 587 104.809, 587 104.576 C 587 104.342, 588.330 100.828, 589.957 96.767 C 592.850 89.542, 593.042 86.201, 590.733 83.250 C 589.979 82.286, 590.897 82, 594.741 82 C 597.483 82, 602.128 81.545, 605.062 80.988 C 612.956 79.491, 614.006 76.874, 608.662 72.011 C 606.825 70.340, 603.563 65.945, 601.412 62.244 C 597.683 55.830, 593.158 50.197, 583.400 39.822 C 580.980 37.249, 579 34.189, 579 33.022 C 579 30.505, 576.727 25.848, 574.663 24.135 C 571.952 21.885, 567.505 21.168, 564.420 22.482 M 427.980 23.250 C 427.969 23.938, 426.639 35.975, 425.024 50 L 422.089 75.500 424.795 77.481 C 426.283 78.570, 430.043 82.083, 433.152 85.287 L 438.803 91.111 438.259 99.056 L 437.714 107 440.357 107 C 442.959 107, 442.999 106.894, 442.947 100.250 C 442.918 96.537, 442.310 80, 441.596 63.500 C 440.197 31.164, 439.669 28.245, 434.486 24.168 C 431.452 21.781, 428.011 21.296, 427.980 23.250 M 429.583 25.156 C 429.307 26.445, 427.910 38.267, 426.479 51.426 C 423.980 74.399, 423.949 75.391, 425.688 76.348 C 426.685 76.897, 430.557 80.285, 434.293 83.878 L 441.086 90.411 440.447 75.456 C 438.821 37.439, 438.376 32.328, 436.403 28.970 C 435.357 27.188, 433.507 25.074, 432.293 24.271 C 430.245 22.918, 430.049 22.982, 429.583 25.156 M 490.500 24.515 C 484.282 27.868, 480 33.762, 480 38.968 C 480 40.933, 480.574 41, 497.500 41 C 514.825 41, 515 40.978, 515 38.816 C 515 35.049, 511.178 28.601, 507.450 26.077 C 502.861 22.970, 494.751 22.223, 490.500 24.515 M 562.750 25.115 C 559.591 27.472, 559.364 28.640, 561.588 31.097 C 562.475 32.078, 563.411 35.441, 563.708 38.719 C 564.138 43.462, 565.703 47.453, 571.870 59.543 C 579.187 73.886, 579.705 74.612, 584.500 77.227 C 588.742 79.540, 590.636 79.942, 597 79.877 C 609.866 79.746, 613.026 77.417, 607.101 72.432 C 605.426 71.022, 601.819 66.166, 599.086 61.642 C 596.353 57.118, 593.225 52.608, 592.134 51.622 C 590.221 49.890, 590.044 49.908, 587.046 52.124 C 584.207 54.223, 583.993 54.771, 584.555 58.517 C 584.992 61.429, 584.762 62.953, 583.761 63.783 C 579.875 67.009, 568.568 48.635, 571.940 44.572 C 573.383 42.834, 577 42.425, 577 44 C 577 44.550, 576.100 45, 575 45 C 573.695 45, 573 45.667, 573 46.917 C 573 50.303, 576.674 57.411, 580.020 60.500 L 583.270 63.500 582.682 58.251 C 582.120 53.225, 582.217 52.939, 584.984 51.508 C 586.573 50.687, 588.155 49.558, 588.500 49 C 588.845 48.442, 586.676 45.401, 583.681 42.242 C 580.233 38.607, 577.960 35.221, 577.486 33.015 C 576.502 28.432, 574.550 25.572, 571.439 24.154 C 567.884 22.535, 565.917 22.752, 562.750 25.115 M 4.983 24.750 C 4.974 25.163, 3.856 35.175, 2.500 47 C 1.144 58.825, 0.026 70.680, 0.017 73.345 C 0 78.091, 0.152 78.331, 7.500 85.193 L 15 92.198 15 100.599 C 15 108.248, 15.174 109, 16.941 109 C 18.009 109, 19.083 108.662, 19.329 108.250 C 19.933 107.235, 17.213 39.282, 16.416 35.500 C 15.487 31.090, 12.409 26.507, 9.478 25.172 C 6.514 23.821, 5.007 23.680, 4.983 24.750 M 38.653 27 C 36.774 28.650, 34.481 30, 33.559 30 C 32.637 30, 32.160 30.450, 32.500 31 C 32.840 31.550, 33.980 32, 35.033 32 C 37.654 32, 40 36.910, 40 42.395 C 40 46.026, 41.659 50.244, 48.641 64.357 L 57.282 81.825 56.106 86.662 C 55.459 89.323, 53.545 94.987, 51.853 99.250 L 48.775 107 42.388 107 C 38.796 107, 36 107.438, 36 108 C 36 108.629, 42.500 109, 53.500 109 C 64.500 109, 71 108.629, 71 108 C 71 107.450, 69.425 107, 67.500 107 C 65.575 107, 64 106.788, 64 106.529 C 64 106.269, 65.125 103.513, 66.500 100.404 C 69.108 94.506, 69.681 89.141, 68.031 86.058 C 67.139 84.392, 67.728 84.213, 75.424 83.809 C 83.524 83.384, 89 81.436, 89 78.979 C 89 78.443, 87.398 76.316, 85.439 74.252 C 83.480 72.189, 79.830 67.125, 77.327 63 C 74.823 58.875, 69.261 51.644, 64.967 46.930 C 59.046 40.432, 56.981 37.410, 56.424 34.430 C 55.972 32.011, 54.442 29.251, 52.445 27.250 C 48.091 22.889, 43.431 22.805, 38.653 27 M 126.591 24.743 C 126.266 25.068, 126 26.383, 126 27.667 C 126 29.866, 125.635 30, 119.655 30 C 112.526 30, 109.750 31.840, 109.750 36.564 C 109.750 39.815, 113.102 43.347, 115.625 42.755 C 117.213 42.382, 117.083 42.143, 114.778 41.193 C 110.852 39.575, 109.969 35.253, 113.053 32.756 C 115.217 31.003, 116.925 30.876, 134.205 31.175 C 144.543 31.354, 153.002 31.163, 153.001 30.750 C 153 30.337, 147.911 30, 141.691 30 C 133.507 30, 129.846 29.608, 128.443 28.582 C 127.376 27.802, 126.774 26.893, 127.105 26.562 C 127.436 26.231, 133.960 25.872, 141.603 25.764 C 154.402 25.584, 156.132 25.784, 163.500 28.298 C 167.900 29.799, 174.988 31.313, 179.250 31.662 L 187 32.296 187 36.698 L 187 41.099 181.193 40.442 C 176.957 39.963, 173.644 40.278, 168.943 41.607 C 163.936 43.023, 157.374 43.558, 139.500 44.009 L 116.500 44.588 139.572 44.794 C 158.685 44.965, 163.466 44.720, 167.438 43.366 C 171.013 42.148, 174.367 41.866, 180.616 42.256 L 189 42.779 189 36.389 L 189 30 181.663 30 C 176.385 30, 171.543 29.159, 164.413 27.004 C 155.402 24.281, 153.258 24.015, 140.841 24.080 C 133.328 24.120, 126.915 24.418, 126.591 24.743 M 327.449 27.468 C 326.652 29.375, 326 33.323, 326 36.241 C 326 40.866, 326.778 42.944, 332.065 52.452 L 338.130 63.358 338.627 77.144 C 339.033 88.392, 338.809 91.931, 337.410 96.368 L 335.696 101.807 327.397 102.154 C 322.833 102.344, 318.649 102.950, 318.098 103.500 C 317.430 104.167, 320.330 104.380, 326.798 104.140 C 332.134 103.942, 339.564 104.325, 343.309 104.991 C 349.506 106.094, 350.300 106.039, 352.135 104.378 C 353.830 102.844, 354.099 101.553, 353.825 96.275 C 353.646 92.821, 353.672 89.997, 353.882 89.998 C 354.092 89.999, 355.812 90.957, 357.705 92.127 C 361.958 94.755, 363.081 93.856, 363.321 87.629 C 363.420 85.083, 363.580 83, 363.678 83 C 363.775 83, 365.539 85.813, 367.597 89.250 C 377.454 105.711, 377.434 105.691, 384.283 106.941 C 387.702 107.566, 391.738 108.337, 393.250 108.655 C 395.587 109.146, 396 108.905, 396 107.051 C 396 105.851, 395.534 103.998, 394.965 102.934 C 394.150 101.412, 394.257 101, 395.465 101 C 397.870 101, 397.275 99.102, 394.008 96.353 C 392.362 94.968, 389.108 90.160, 386.778 85.668 C 384.447 81.175, 377.884 70.525, 372.194 62 C 362.524 47.513, 357.812 41.935, 351.756 37.805 C 349.745 36.434, 349.140 34.955, 348.586 30.055 L 347.901 24 338.399 24 L 328.898 24 327.449 27.468 M 41.250 26.989 C 37.678 29.167, 37.319 30.516, 39.532 33.441 C 40.351 34.525, 41 37.512, 41 40.203 C 41 44.230, 42.316 47.651, 48.997 60.993 C 56.914 76.804, 57.045 76.990, 62.247 79.694 C 66.652 81.985, 68.635 82.401, 74.534 82.270 C 85.992 82.017, 90.101 79.262, 84.497 75.590 C 82.064 73.996, 79.089 69.875, 75.333 62.898 C 72.067 56.829, 68.902 52.999, 67.182 53.033 C 66.257 53.052, 64.521 53.884, 63.325 54.883 C 61.579 56.341, 61.242 57.469, 61.616 60.600 C 61.872 62.745, 61.633 65.170, 61.085 65.988 C 60.251 67.233, 59.488 66.905, 56.433 63.988 C 50.572 58.394, 47.311 49.089, 50.200 46.200 C 51.653 44.747, 55 44.607, 55 46 C 55 46.550, 54.127 47, 53.059 47 C 51.991 47, 50.828 47.469, 50.474 48.042 C 49.308 49.929, 53.323 58.922, 56.815 62.243 L 60.240 65.500 59.769 60.270 C 59.379 55.945, 59.595 54.946, 61.017 54.495 C 61.963 54.195, 63.494 53.111, 64.420 52.088 C 66.022 50.319, 65.831 49.932, 60.552 44.230 C 57.499 40.931, 55 37.491, 55 36.584 C 55 33.119, 52.043 28.074, 49.128 26.566 C 45.310 24.592, 45.169 24.600, 41.250 26.989 M 336.856 25.752 C 328.090 26.129, 328.037 26.191, 328.014 36.300 C 327.998 42.947, 327.940 42.818, 340.113 63.079 C 345.103 71.385, 350.058 80.277, 351.124 82.840 C 352.514 86.181, 354.159 88.130, 356.934 89.724 C 361.317 92.242, 362 91.669, 362 85.477 C 362 78.448, 364.011 80.011, 371.831 93.116 C 374.659 97.855, 377.655 102.299, 378.489 102.991 C 379.820 104.095, 390.432 106.869, 393.695 106.965 C 395.404 107.015, 390.466 96.172, 387.170 92.638 C 385.701 91.063, 376.092 82.838, 365.815 74.359 C 346.203 58.178, 342 54.052, 342 50.980 C 342 49.258, 345.416 46, 347.223 46 C 348.861 46, 347.904 47.792, 346 48.290 C 343.823 48.859, 343.432 51.070, 344.992 53.985 C 346.287 56.405, 386 89.317, 386 87.970 C 386 86.496, 376.394 70.932, 368.349 59.371 C 364.571 53.942, 360.704 48.289, 359.755 46.809 C 358.807 45.328, 355.886 42.668, 353.265 40.897 C 350.644 39.125, 348.278 37.489, 348.006 37.260 C 347.734 37.032, 347.284 34.327, 347.006 31.251 C 346.728 28.175, 346.050 25.605, 345.500 25.541 C 344.950 25.476, 341.060 25.571, 336.856 25.752 M 3.655 51.421 L 0.875 76.842 8.688 84.340 L 16.500 91.838 16.797 86.505 C 17.335 76.852, 15.240 36.566, 14.041 33.500 C 12.695 30.061, 9.176 26, 7.543 26 C 6.833 26, 5.434 35.151, 3.655 51.421 M 339.114 31.886 C 337.532 33.468, 337.050 33.572, 336.609 32.423 C 335.879 30.521, 332 30.586, 332 32.500 C 332 33.325, 332.870 34, 333.934 34 C 335.300 34, 335.960 34.807, 336.184 36.750 C 336.573 40.136, 338.385 39.986, 338.816 36.531 C 339.032 34.805, 339.748 34, 341.066 34 C 342.130 34, 343 33.352, 343 32.559 C 343 30.137, 341.178 29.822, 339.114 31.886 M 267.107 45.250 C 267.754 46.487, 269.120 48.694, 270.142 50.154 C 271.615 52.259, 272 54.654, 272 61.719 L 272 70.630 265.750 72.825 C 262.313 74.032, 259.163 75.016, 258.750 75.010 C 257.222 74.990, 258.066 70.934, 260 69 C 262.561 66.439, 262.572 61.572, 260.023 59.023 C 257.760 56.760, 255.399 57.258, 252.796 60.546 C 251.859 61.730, 248.364 63.693, 245.029 64.909 C 238.588 67.258, 235 70.220, 235 73.189 C 235 76.351, 227.868 75.190, 211.145 69.308 C 205.040 67.160, 203.641 66.957, 202.911 68.110 C 201.032 71.077, 201.718 71.494, 218.369 77.497 C 224.073 79.553, 226.661 80.916, 225.619 81.316 C 224.497 81.746, 224 83.175, 224 85.969 L 224 90 250.057 90 L 276.115 90 275.807 85.750 L 275.500 81.500 269.075 81.198 L 262.649 80.895 272.962 76.276 C 284.610 71.058, 285.132 71.170, 286.409 79.154 C 287.118 83.592, 292.457 90, 295.445 90 C 296.793 90, 296.975 89.322, 296.454 86.250 C 295.692 81.765, 293.186 77.945, 289.921 76.292 C 287.562 75.097, 285 72.291, 285 70.901 C 285 70.506, 287.024 68.905, 289.498 67.342 C 294.511 64.175, 294.485 64.224, 292.544 61.662 C 291.208 59.900, 290.996 59.931, 287.344 62.412 C 285.249 63.836, 282.998 65, 282.340 65 C 281.683 65, 279.537 62.354, 277.572 59.119 C 275.006 54.894, 274 52.079, 274 49.119 C 274 44.788, 272.371 43.395, 271.814 47.250 C 271.511 49.349, 271.357 49.281, 269.529 46.250 C 267.328 42.601, 265.278 41.755, 267.107 45.250 M 628 52 C 628 52.550, 629.334 53, 630.965 53 C 636.519 53, 637.713 60.779, 633.536 69.750 C 631.548 74.021, 630.628 75, 628.605 75 C 627.237 75, 625.840 75.450, 625.500 76 C 625.091 76.661, 640.509 77, 671 77 C 701.491 77, 716.909 76.661, 716.500 76 C 716.160 75.450, 713.942 75, 711.572 75 L 707.261 75 704.631 68.934 C 701.695 62.164, 701.517 60.684, 703.098 56.149 C 704.146 53.141, 704.438 53, 709.598 53 C 712.569 53, 715 52.550, 715 52 C 715 51.349, 699.833 51, 671.500 51 C 643.167 51, 628 51.349, 628 52 M 637.025 55.565 C 638.588 59.676, 638.172 63.430, 635.521 69.151 L 633.043 74.500 668.675 74.763 C 688.273 74.907, 704.529 74.804, 704.800 74.534 C 705.070 74.263, 704.061 71.299, 702.556 67.946 C 699.915 62.061, 699.824 60.779, 701.615 54.750 C 702.103 53.108, 700.093 53, 669.092 53 L 636.050 53 637.025 55.565 M 274.019 62.750 C 274.009 66.188, 274.255 69, 274.566 69 C 275.089 69, 279.097 67.065, 279.815 66.466 C 279.988 66.322, 278.759 64.020, 277.084 61.352 L 274.038 56.500 274.019 62.750 M 253.801 61.839 C 252.246 63.584, 248.984 65.448, 245.648 66.497 C 239.862 68.317, 237.683 70.031, 236.592 73.620 C 236.052 75.398, 236.456 75.841, 239.099 76.370 C 243.124 77.175, 249.865 77.177, 253.875 76.375 C 256.712 75.808, 257 75.402, 257 71.982 C 257 69.490, 257.529 68.011, 258.561 67.615 C 259.677 67.187, 260.033 65.948, 259.811 63.266 C 259.415 58.490, 257.244 57.975, 253.801 61.839 M 286.750 64.573 C 283.523 66.687, 281.836 69, 283.521 69 C 284.968 69, 291.893 63.635, 291.425 62.878 C 290.763 61.807, 291.236 61.636, 286.750 64.573 M 340.045 75.500 C 340.022 87.088, 340.475 88.645, 344.078 89.366 C 352.316 91.013, 351.857 85.220, 342.583 70.500 L 340.062 66.500 340.045 75.500 M 274.473 70.989 C 254.096 80.513, 239.587 80.625, 212.309 71.468 C 208.146 70.070, 204.517 69.149, 204.246 69.421 C 203.552 70.115, 213.652 74.468, 223.341 77.650 C 233.860 81.106, 251.808 82.075, 260.143 79.638 C 267.088 77.607, 282 70.374, 282 69.036 C 282 67.606, 281.350 67.775, 274.473 70.989 M 110.095 77.385 C 109.313 78.328, 109.034 83.525, 109.223 93.635 L 109.500 108.500 121.750 108.781 L 134 109.062 134 92.531 L 134 76 122.622 76 C 114.147 76, 110.952 76.353, 110.095 77.385 M 288 79.542 C 288 82.360, 294.043 89.370, 294.721 87.338 C 295.368 85.395, 292.291 79.226, 290.085 78.045 C 288.219 77.047, 288 77.204, 288 79.542 M 580.701 81.879 C 580.386 84.536, 578.525 90.688, 576.564 95.549 C 574.604 100.411, 573 104.526, 573 104.694 C 573 104.862, 575.658 105, 578.907 105 L 584.813 105 587.985 97.381 C 592.033 87.658, 591.044 82.820, 584.179 78.765 L 581.273 77.048 580.701 81.879 M 111 92.500 L 111 107 122 107 L 133 107 133 92.500 L 133 78 122 78 L 111 78 111 92.500 M 57.714 85.250 C 57.403 88.138, 55.765 93.824, 54.074 97.888 C 52.383 101.951, 51 105.686, 51 106.187 C 51 106.689, 53.527 106.965, 56.616 106.800 L 62.232 106.500 65.096 99.273 C 68.149 91.567, 68.157 88.119, 65.128 84.397 C 63.622 82.546, 59.903 80, 58.706 80 C 58.471 80, 58.025 82.362, 57.714 85.250 M 226 85.500 L 226 88 250 88 L 274 88 274 85.500 L 274 83 250 83 L 226 83 226 85.500 M 486.500 88.037 C 473.410 89.134, 458.687 93.461, 456.610 96.822 C 455.830 98.084, 466.486 102.770, 474.500 104.689 C 485.592 107.345, 512.844 107.095, 524.256 104.231 C 533.120 102.008, 541 98.659, 541 97.116 C 541 95.601, 529.449 91.046, 521.890 89.580 C 512.303 87.721, 497.814 87.089, 486.500 88.037 M 160.459 89.880 C 155.523 92.122, 151.443 96.790, 149.891 101.970 C 147.769 109.052, 147.627 109, 168.988 109 L 188.038 109 187.386 106.250 C 185.351 97.670, 181.817 92.806, 175.500 89.890 C 170.429 87.549, 165.596 87.546, 160.459 89.880 M 350.286 90.106 C 349.619 90.778, 347.144 91.255, 344.786 91.167 L 340.500 91.006 338.896 96.452 L 337.293 101.897 342.196 102.949 C 351.877 105.025, 352.269 104.704, 351.801 95.087 C 351.565 90.220, 351.239 89.148, 350.286 90.106 M 485 89.609 C 477.438 90.540, 466.306 93.331, 462.555 95.236 L 458.610 97.240 461.161 98.577 C 472.171 104.345, 501.815 106.866, 519.497 103.537 C 528.416 101.858, 538 98.464, 538 96.985 C 538 95.927, 531.002 93.222, 523.632 91.432 C 517.612 89.970, 491.917 88.757, 485 89.609 M 161.001 91.123 C 155.740 93.221, 151 99.538, 151 104.450 L 151 107 168.131 107 L 185.262 107 184.679 103.407 C 183.929 98.785, 180.048 93.725, 175.655 91.641 C 171.835 89.828, 164.867 89.582, 161.001 91.123 M 440.320 99 C 440.320 102.575, 440.502 104.037, 440.723 102.250 C 440.945 100.463, 440.945 97.537, 440.723 95.750 C 440.502 93.963, 440.320 95.425, 440.320 99 M 16.774 100.941 C 16.084 106.123, 16.335 107.999, 17.556 106.777 C 17.862 106.471, 17.974 103.809, 17.806 100.861 L 17.500 95.500 16.774 100.941" stroke="none" fill="#2c2c2c" fill-rule="evenodd"/><path d="M 0.117 32.750 L 0.234 65.500 2.614 45.087 C 3.923 33.859, 5.206 24.461, 5.465 24.202 C 5.724 23.943, 7.296 24.294, 8.959 24.983 C 12.268 26.354, 15.429 30.811, 16.416 35.500 C 17.213 39.282, 19.933 107.235, 19.329 108.250 C 19.083 108.663, 18.009 109, 16.941 109 C 15.176 109, 15 108.249, 15 100.719 L 15 92.437 9.250 86.910 C -1.006 77.051, 0 75.044, 0 105.379 L 0 132.003 368.250 131.751 L 736.500 131.500 736.714 65.750 L 736.928 -0 368.464 -0 L 0 0 0.117 32.750 M 0.447 33 C 0.447 50.875, 0.582 58.188, 0.748 49.250 C 0.914 40.312, 0.914 25.687, 0.748 16.750 C 0.582 7.812, 0.447 15.125, 0.447 33 M 495.500 21.494 C 494.950 21.676, 493.271 22.096, 491.768 22.427 C 488.493 23.149, 482.425 28.278, 480.544 31.914 C 479.800 33.354, 479.035 36.100, 478.845 38.016 L 478.500 41.500 498.165 41.771 L 517.830 42.042 516.551 37.193 C 514.824 30.646, 512.500 27.366, 507.608 24.571 C 503.683 22.328, 497.627 20.789, 495.500 21.494 M 564.420 22.482 C 562.814 23.167, 560.643 24.688, 559.595 25.863 C 558.547 27.039, 556.747 28.018, 555.595 28.039 C 553.958 28.070, 554.193 28.380, 556.671 29.458 C 560.685 31.204, 562 33.675, 562 39.473 C 562 43.262, 563.506 47.065, 570.500 60.943 C 576.855 73.551, 578.992 78.779, 578.969 81.654 C 578.952 83.769, 577.253 89.775, 575.194 95 L 571.449 104.500 564.725 104.796 C 561.026 104.958, 558 105.521, 558 106.046 C 558 106.616, 565.241 107, 576 107 C 587.333 107, 594 106.630, 594 106 C 594 105.450, 592.425 105, 590.500 105 C 588.575 105, 587 104.809, 587 104.576 C 587 104.342, 588.330 100.828, 589.957 96.767 C 592.850 89.542, 593.042 86.201, 590.733 83.250 C 589.979 82.286, 590.897 82, 594.741 82 C 597.483 82, 602.128 81.545, 605.062 80.988 C 612.956 79.491, 614.006 76.874, 608.662 72.011 C 606.825 70.340, 603.563 65.945, 601.412 62.244 C 597.683 55.830, 593.158 50.197, 583.400 39.822 C 580.980 37.249, 579 34.189, 579 33.022 C 579 30.505, 576.727 25.848, 574.663 24.135 C 571.952 21.885, 567.505 21.168, 564.420 22.482 M 427.980 23.250 C 427.969 23.938, 426.639 35.975, 425.024 50 L 422.089 75.500 424.795 77.481 C 426.283 78.570, 430.043 82.083, 433.152 85.287 L 438.803 91.111 438.259 99.056 L 437.714 107 440.357 107 C 442.959 107, 442.999 106.894, 442.947 100.250 C 442.918 96.537, 442.310 80, 441.596 63.500 C 440.197 31.164, 439.669 28.245, 434.486 24.168 C 431.452 21.781, 428.011 21.296, 427.980 23.250 M 429.583 25.156 C 429.307 26.445, 427.910 38.267, 426.479 51.426 C 423.980 74.399, 423.949 75.391, 425.688 76.348 C 426.685 76.897, 430.557 80.285, 434.293 83.878 L 441.086 90.411 440.447 75.456 C 438.821 37.439, 438.376 32.328, 436.403 28.970 C 435.357 27.188, 433.507 25.074, 432.293 24.271 C 430.245 22.918, 430.049 22.982, 429.583 25.156 M 490.500 24.515 C 484.282 27.868, 480 33.762, 480 38.968 C 480 40.933, 480.574 41, 497.500 41 C 514.825 41, 515 40.978, 515 38.816 C 515 35.049, 511.178 28.601, 507.450 26.077 C 502.861 22.970, 494.751 22.223, 490.500 24.515 M 562.750 25.115 C 559.591 27.472, 559.364 28.640, 561.588 31.097 C 562.475 32.078, 563.411 35.441, 563.708 38.719 C 564.138 43.462, 565.703 47.453, 571.870 59.543 C 579.187 73.886, 579.705 74.612, 584.500 77.227 C 588.742 79.540, 590.636 79.942, 597 79.877 C 609.866 79.746, 613.026 77.417, 607.101 72.432 C 605.426 71.022, 601.819 66.166, 599.086 61.642 C 596.353 57.118, 593.225 52.608, 592.134 51.622 C 590.221 49.890, 590.044 49.908, 587.046 52.124 C 584.207 54.223, 583.993 54.771, 584.555 58.517 C 584.992 61.429, 584.762 62.953, 583.761 63.783 C 579.875 67.009, 568.568 48.635, 571.940 44.572 C 573.383 42.834, 577 42.425, 577 44 C 577 44.550, 576.100 45, 575 45 C 573.695 45, 573 45.667, 573 46.917 C 573 50.303, 576.674 57.411, 580.020 60.500 L 583.270 63.500 582.682 58.251 C 582.120 53.225, 582.217 52.939, 584.984 51.508 C 586.573 50.687, 588.155 49.558, 588.500 49 C 588.845 48.442, 586.676 45.401, 583.681 42.242 C 580.233 38.607, 577.960 35.221, 577.486 33.015 C 576.502 28.432, 574.550 25.572, 571.439 24.154 C 567.884 22.535, 565.917 22.752, 562.750 25.115 M 38.653 27 C 36.774 28.650, 34.481 30, 33.559 30 C 32.637 30, 32.160 30.450, 32.500 31 C 32.840 31.550, 33.980 32, 35.033 32 C 37.654 32, 40 36.910, 40 42.395 C 40 46.026, 41.659 50.244, 48.641 64.357 L 57.282 81.825 56.106 86.662 C 55.459 89.323, 53.545 94.987, 51.853 99.250 L 48.775 107 42.388 107 C 38.796 107, 36 107.438, 36 108 C 36 108.629, 42.500 109, 53.500 109 C 64.500 109, 71 108.629, 71 108 C 71 107.450, 69.425 107, 67.500 107 C 65.575 107, 64 106.788, 64 106.529 C 64 106.269, 65.125 103.513, 66.500 100.404 C 69.108 94.506, 69.681 89.141, 68.031 86.058 C 67.139 84.392, 67.728 84.213, 75.424 83.809 C 83.524 83.384, 89 81.436, 89 78.979 C 89 78.443, 87.398 76.316, 85.439 74.252 C 83.480 72.189, 79.830 67.125, 77.327 63 C 74.823 58.875, 69.261 51.644, 64.967 46.930 C 59.046 40.432, 56.981 37.410, 56.424 34.430 C 55.972 32.011, 54.442 29.251, 52.445 27.250 C 48.091 22.889, 43.431 22.805, 38.653 27 M 126.591 24.743 C 126.266 25.068, 126 26.383, 126 27.667 C 126 29.866, 125.635 30, 119.655 30 C 112.526 30, 109.750 31.840, 109.750 36.564 C 109.750 39.815, 113.102 43.347, 115.625 42.755 C 117.213 42.382, 117.083 42.143, 114.778 41.193 C 110.852 39.575, 109.969 35.253, 113.053 32.756 C 115.217 31.003, 116.925 30.876, 134.205 31.175 C 144.543 31.354, 153.002 31.163, 153.001 30.750 C 153 30.337, 147.911 30, 141.691 30 C 133.507 30, 129.846 29.608, 128.443 28.582 C 127.376 27.802, 126.774 26.893, 127.105 26.562 C 127.436 26.231, 133.960 25.872, 141.603 25.764 C 154.402 25.584, 156.132 25.784, 163.500 28.298 C 167.900 29.799, 174.988 31.313, 179.250 31.662 L 187 32.296 187 36.698 L 187 41.099 181.193 40.442 C 176.957 39.963, 173.644 40.278, 168.943 41.607 C 163.936 43.023, 157.374 43.558, 139.500 44.009 L 116.500 44.588 139.572 44.794 C 158.685 44.965, 163.466 44.720, 167.438 43.366 C 171.013 42.148, 174.367 41.866, 180.616 42.256 L 189 42.779 189 36.389 L 189 30 181.663 30 C 176.385 30, 171.543 29.159, 164.413 27.004 C 155.402 24.281, 153.258 24.015, 140.841 24.080 C 133.328 24.120, 126.915 24.418, 126.591 24.743 M 327.449 27.468 C 326.652 29.375, 326 33.323, 326 36.241 C 326 40.866, 326.778 42.944, 332.065 52.452 L 338.130 63.358 338.627 77.144 C 339.033 88.392, 338.809 91.931, 337.410 96.368 L 335.696 101.807 327.397 102.154 C 322.833 102.344, 318.649 102.950, 318.098 103.500 C 317.430 104.167, 320.330 104.380, 326.798 104.140 C 332.134 103.942, 339.564 104.325, 343.309 104.991 C 349.506 106.094, 350.300 106.039, 352.135 104.378 C 353.830 102.844, 354.099 101.553, 353.825 96.275 C 353.646 92.821, 353.672 89.997, 353.882 89.998 C 354.092 89.999, 355.812 90.957, 357.705 92.127 C 361.958 94.755, 363.081 93.856, 363.321 87.629 C 363.420 85.083, 363.580 83, 363.678 83 C 363.775 83, 365.539 85.813, 367.597 89.250 C 377.454 105.711, 377.434 105.691, 384.283 106.941 C 387.702 107.566, 391.738 108.337, 393.250 108.655 C 395.587 109.146, 396 108.905, 396 107.051 C 396 105.851, 395.534 103.998, 394.965 102.934 C 394.150 101.412, 394.257 101, 395.465 101 C 397.870 101, 397.275 99.102, 394.008 96.353 C 392.362 94.968, 389.108 90.160, 386.778 85.668 C 384.447 81.175, 377.884 70.525, 372.194 62 C 362.524 47.513, 357.812 41.935, 351.756 37.805 C 349.745 36.434, 349.140 34.955, 348.586 30.055 L 347.901 24 338.399 24 L 328.898 24 327.449 27.468 M 41.250 26.989 C 37.678 29.167, 37.319 30.516, 39.532 33.441 C 40.351 34.525, 41 37.512, 41 40.203 C 41 44.230, 42.316 47.651, 48.997 60.993 C 56.914 76.804, 57.045 76.990, 62.247 79.694 C 66.652 81.985, 68.635 82.401, 74.534 82.270 C 85.992 82.017, 90.101 79.262, 84.497 75.590 C 82.064 73.996, 79.089 69.875, 75.333 62.898 C 72.067 56.829, 68.902 52.999, 67.182 53.033 C 66.257 53.052, 64.521 53.884, 63.325 54.883 C 61.579 56.341, 61.242 57.469, 61.616 60.600 C 61.872 62.745, 61.633 65.170, 61.085 65.988 C 60.251 67.233, 59.488 66.905, 56.433 63.988 C 50.572 58.394, 47.311 49.089, 50.200 46.200 C 51.653 44.747, 55 44.607, 55 46 C 55 46.550, 54.127 47, 53.059 47 C 51.991 47, 50.828 47.469, 50.474 48.042 C 49.308 49.929, 53.323 58.922, 56.815 62.243 L 60.240 65.500 59.769 60.270 C 59.379 55.945, 59.595 54.946, 61.017 54.495 C 61.963 54.195, 63.494 53.111, 64.420 52.088 C 66.022 50.319, 65.831 49.932, 60.552 44.230 C 57.499 40.931, 55 37.491, 55 36.584 C 55 33.119, 52.043 28.074, 49.128 26.566 C 45.310 24.592, 45.169 24.600, 41.250 26.989 M 336.856 25.752 C 328.090 26.129, 328.037 26.191, 328.014 36.300 C 327.998 42.947, 327.940 42.818, 340.113 63.079 C 345.103 71.385, 350.058 80.277, 351.124 82.840 C 352.514 86.181, 354.159 88.130, 356.934 89.724 C 361.317 92.242, 362 91.669, 362 85.477 C 362 78.448, 364.011 80.011, 371.831 93.116 C 374.659 97.855, 377.655 102.299, 378.489 102.991 C 379.820 104.095, 390.432 106.869, 393.695 106.965 C 395.404 107.015, 390.466 96.172, 387.170 92.638 C 385.701 91.063, 376.092 82.838, 365.815 74.359 C 346.203 58.178, 342 54.052, 342 50.980 C 342 49.258, 345.416 46, 347.223 46 C 348.861 46, 347.904 47.792, 346 48.290 C 343.823 48.859, 343.432 51.070, 344.992 53.985 C 346.287 56.405, 386 89.317, 386 87.970 C 386 86.496, 376.394 70.932, 368.349 59.371 C 364.571 53.942, 360.704 48.289, 359.755 46.809 C 358.807 45.328, 355.886 42.668, 353.265 40.897 C 350.644 39.125, 348.278 37.489, 348.006 37.260 C 347.734 37.032, 347.284 34.327, 347.006 31.251 C 346.728 28.175, 346.050 25.605, 345.500 25.541 C 344.950 25.476, 341.060 25.571, 336.856 25.752 M 3.655 51.421 L 0.875 76.842 8.688 84.340 L 16.500 91.838 16.797 86.505 C 17.335 76.852, 15.240 36.566, 14.041 33.500 C 12.695 30.061, 9.176 26, 7.543 26 C 6.833 26, 5.434 35.151, 3.655 51.421 M 339.114 31.886 C 337.532 33.468, 337.050 33.572, 336.609 32.423 C 335.879 30.521, 332 30.586, 332 32.500 C 332 33.325, 332.870 34, 333.934 34 C 335.300 34, 335.960 34.807, 336.184 36.750 C 336.573 40.136, 338.385 39.986, 338.816 36.531 C 339.032 34.805, 339.748 34, 341.066 34 C 342.130 34, 343 33.352, 343 32.559 C 343 30.137, 341.178 29.822, 339.114 31.886 M 267.107 45.250 C 267.754 46.487, 269.120 48.694, 270.142 50.154 C 271.615 52.259, 272 54.654, 272 61.719 L 272 70.630 265.750 72.825 C 262.313 74.032, 259.163 75.016, 258.750 75.010 C 257.222 74.990, 258.066 70.934, 260 69 C 262.561 66.439, 262.572 61.572, 260.023 59.023 C 257.760 56.760, 255.399 57.258, 252.796 60.546 C 251.859 61.730, 248.364 63.693, 245.029 64.909 C 238.588 67.258, 235 70.220, 235 73.189 C 235 76.351, 227.868 75.190, 211.145 69.308 C 205.040 67.160, 203.641 66.957, 202.911 68.110 C 201.032 71.077, 201.718 71.494, 218.369 77.497 C 224.073 79.553, 226.661 80.916, 225.619 81.316 C 224.497 81.746, 224 83.175, 224 85.969 L 224 90 250.057 90 L 276.115 90 275.807 85.750 L 275.500 81.500 269.075 81.198 L 262.649 80.895 272.962 76.276 C 284.610 71.058, 285.132 71.170, 286.409 79.154 C 287.118 83.592, 292.457 90, 295.445 90 C 296.793 90, 296.975 89.322, 296.454 86.250 C 295.692 81.765, 293.186 77.945, 289.921 76.292 C 287.562 75.097, 285 72.291, 285 70.901 C 285 70.506, 287.024 68.905, 289.498 67.342 C 294.511 64.175, 294.485 64.224, 292.544 61.662 C 291.208 59.900, 290.996 59.931, 287.344 62.412 C 285.249 63.836, 282.998 65, 282.340 65 C 281.683 65, 279.537 62.354, 277.572 59.119 C 275.006 54.894, 274 52.079, 274 49.119 C 274 44.788, 272.371 43.395, 271.814 47.250 C 271.511 49.349, 271.357 49.281, 269.529 46.250 C 267.328 42.601, 265.278 41.755, 267.107 45.250 M 628 52 C 628 52.550, 629.334 53, 630.965 53 C 636.519 53, 637.713 60.779, 633.536 69.750 C 631.548 74.021, 630.628 75, 628.605 75 C 627.237 75, 625.840 75.450, 625.500 76 C 625.091 76.661, 640.509 77, 671 77 C 701.491 77, 716.909 76.661, 716.500 76 C 716.160 75.450, 713.942 75, 711.572 75 L 707.261 75 704.631 68.934 C 701.695 62.164, 701.517 60.684, 703.098 56.149 C 704.146 53.141, 704.438 53, 709.598 53 C 712.569 53, 715 52.550, 715 52 C 715 51.349, 699.833 51, 671.500 51 C 643.167 51, 628 51.349, 628 52 M 637.025 55.565 C 638.588 59.676, 638.172 63.430, 635.521 69.151 L 633.043 74.500 668.675 74.763 C 688.273 74.907, 704.529 74.804, 704.800 74.534 C 705.070 74.263, 704.061 71.299, 702.556 67.946 C 699.915 62.061, 699.824 60.779, 701.615 54.750 C 702.103 53.108, 700.093 53, 669.092 53 L 636.050 53 637.025 55.565 M 274.019 62.750 C 274.009 66.188, 274.255 69, 274.566 69 C 275.089 69, 279.097 67.065, 279.815 66.466 C 279.988 66.322, 278.759 64.020, 277.084 61.352 L 274.038 56.500 274.019 62.750 M 253.801 61.839 C 252.246 63.584, 248.984 65.448, 245.648 66.497 C 239.862 68.317, 237.683 70.031, 236.592 73.620 C 236.052 75.398, 236.456 75.841, 239.099 76.370 C 243.124 77.175, 249.865 77.177, 253.875 76.375 C 256.712 75.808, 257 75.402, 257 71.982 C 257 69.490, 257.529 68.011, 258.561 67.615 C 259.677 67.187, 260.033 65.948, 259.811 63.266 C 259.415 58.490, 257.244 57.975, 253.801 61.839 M 286.750 64.573 C 283.523 66.687, 281.836 69, 283.521 69 C 284.968 69, 291.893 63.635, 291.425 62.878 C 290.763 61.807, 291.236 61.636, 286.750 64.573 M 340.045 75.500 C 340.022 87.088, 340.475 88.645, 344.078 89.366 C 352.316 91.013, 351.857 85.220, 342.583 70.500 L 340.062 66.500 340.045 75.500 M 274.473 70.989 C 254.096 80.513, 239.587 80.625, 212.309 71.468 C 208.146 70.070, 204.517 69.149, 204.246 69.421 C 203.552 70.115, 213.652 74.468, 223.341 77.650 C 233.860 81.106, 251.808 82.075, 260.143 79.638 C 267.088 77.607, 282 70.374, 282 69.036 C 282 67.606, 281.350 67.775, 274.473 70.989 M 110.095 77.385 C 109.313 78.328, 109.034 83.525, 109.223 93.635 L 109.500 108.500 121.750 108.781 L 134 109.062 134 92.531 L 134 76 122.622 76 C 114.147 76, 110.952 76.353, 110.095 77.385 M 288 79.542 C 288 82.360, 294.043 89.370, 294.721 87.338 C 295.368 85.395, 292.291 79.226, 290.085 78.045 C 288.219 77.047, 288 77.204, 288 79.542 M 580.701 81.879 C 580.386 84.536, 578.525 90.688, 576.564 95.549 C 574.604 100.411, 573 104.526, 573 104.694 C 573 104.862, 575.658 105, 578.907 105 L 584.813 105 587.985 97.381 C 592.033 87.658, 591.044 82.820, 584.179 78.765 L 581.273 77.048 580.701 81.879 M 111 92.500 L 111 107 122 107 L 133 107 133 92.500 L 133 78 122 78 L 111 78 111 92.500 M 0.438 105.500 C 0.437 120.350, 0.576 126.564, 0.747 119.310 C 0.918 112.055, 0.918 99.905, 0.748 92.310 C 0.578 84.714, 0.438 90.650, 0.438 105.500 M 57.714 85.250 C 57.403 88.138, 55.765 93.824, 54.074 97.888 C 52.383 101.951, 51 105.686, 51 106.187 C 51 106.689, 53.527 106.965, 56.616 106.800 L 62.232 106.500 65.096 99.273 C 68.149 91.567, 68.157 88.119, 65.128 84.397 C 63.622 82.546, 59.903 80, 58.706 80 C 58.471 80, 58.025 82.362, 57.714 85.250 M 226 85.500 L 226 88 250 88 L 274 88 274 85.500 L 274 83 250 83 L 226 83 226 85.500 M 486.500 88.037 C 473.410 89.134, 458.687 93.461, 456.610 96.822 C 455.830 98.084, 466.486 102.770, 474.500 104.689 C 485.592 107.345, 512.844 107.095, 524.256 104.231 C 533.120 102.008, 541 98.659, 541 97.116 C 541 95.601, 529.449 91.046, 521.890 89.580 C 512.303 87.721, 497.814 87.089, 486.500 88.037 M 160.459 89.880 C 155.523 92.122, 151.443 96.790, 149.891 101.970 C 147.769 109.052, 147.627 109, 168.988 109 L 188.038 109 187.386 106.250 C 185.351 97.670, 181.817 92.806, 175.500 89.890 C 170.429 87.549, 165.596 87.546, 160.459 89.880 M 350.286 90.106 C 349.619 90.778, 347.144 91.255, 344.786 91.167 L 340.500 91.006 338.896 96.452 L 337.293 101.897 342.196 102.949 C 351.877 105.025, 352.269 104.704, 351.801 95.087 C 351.565 90.220, 351.239 89.148, 350.286 90.106 M 485 89.609 C 477.438 90.540, 466.306 93.331, 462.555 95.236 L 458.610 97.240 461.161 98.577 C 472.171 104.345, 501.815 106.866, 519.497 103.537 C 528.416 101.858, 538 98.464, 538 96.985 C 538 95.927, 531.002 93.222, 523.632 91.432 C 517.612 89.970, 491.917 88.757, 485 89.609 M 161.001 91.123 C 155.740 93.221, 151 99.538, 151 104.450 L 151 107 168.131 107 L 185.262 107 184.679 103.407 C 183.929 98.785, 180.048 93.725, 175.655 91.641 C 171.835 89.828, 164.867 89.582, 161.001 91.123 M 440.320 99 C 440.320 102.575, 440.502 104.037, 440.723 102.250 C 440.945 100.463, 440.945 97.537, 440.723 95.750 C 440.502 93.963, 440.320 95.425, 440.320 99 M 16.774 100.941 C 16.084 106.123, 16.335 107.999, 17.556 106.777 C 17.862 106.471, 17.974 103.809, 17.806 100.861 L 17.500 95.500 16.774 100.941" stroke="none" fill="#f9f9f9" fill-rule="evenodd"/></svg>