<svg xmlns="http://www.w3.org/2000/svg" width="282" height="85" viewBox="0 0 282 85" version="1.1"><path d="M 13.533 12.250 C 13.310 12.938, 12.344 21.505, 11.385 31.290 L 9.641 49.079 15.230 54.790 L 20.818 60.500 20.282 65.750 C 19.780 70.662, 19.888 71, 21.956 71 C 24.165 71, 24.167 70.984, 23.564 56.250 C 21.989 17.754, 21.503 14.410, 17.150 12.080 C 14.564 10.696, 14.027 10.721, 13.533 12.250 M 37.500 13 C 36.505 14.100, 35.085 15, 34.345 15 C 32.385 15, 32.700 16.331, 35 17.768 C 36.316 18.590, 37 20.100, 37 22.184 C 37 23.955, 39.644 31.031, 43 38.242 C 46.300 45.333, 49 52.203, 49 53.510 C 49 54.816, 47.823 59.061, 46.384 62.943 L 43.768 70 39.217 70 C 36.715 70, 34.909 70.242, 35.205 70.538 C 35.955 71.289, 57.980 71.353, 58.726 70.607 C 59.060 70.273, 58.358 70, 57.167 70 C 54.578 70, 54.516 69.402, 56.588 64.443 C 57.462 62.352, 58.008 59.194, 57.801 57.425 L 57.426 54.210 63.243 53.789 C 66.581 53.547, 69.701 52.727, 70.564 51.864 C 71.903 50.526, 71.723 49.928, 68.935 46.430 C 67.211 44.269, 64.955 40.848, 63.921 38.829 C 62.886 36.810, 59.106 31.706, 55.520 27.486 C 51.934 23.266, 49 18.935, 49 17.862 C 49 15.151, 44.584 11, 41.700 11 C 40.386 11, 38.495 11.900, 37.500 13 M 91.220 24.731 L 91.500 37.500 97.750 37.798 C 101.629 37.983, 104 37.698, 104 37.048 C 104 36.444, 101.667 36, 98.500 36 L 93 36 93 25 L 93 14 114 14 L 135 14 135 25 L 135 36 129.500 36 C 126.333 36, 124 36.444, 124 37.048 C 124 37.698, 126.371 37.983, 130.250 37.798 L 136.500 37.500 136.500 25 L 136.500 12.500 113.720 12.231 L 90.940 11.962 91.220 24.731 M 166.801 12.733 C 161.520 13.152, 160.863 14.103, 160.751 21.503 C 160.700 24.883, 161.604 27.400, 164.800 32.780 C 168.867 39.625, 168.917 39.831, 169.189 50.603 C 169.363 57.515, 169.022 62.506, 168.256 64.250 C 167.152 66.767, 166.587 67, 161.584 67 C 158.522 67, 155.803 67.509, 155.402 68.158 C 154.877 69.009, 156.120 69.145, 160.093 68.674 C 163.067 68.321, 168.388 68.534, 171.917 69.148 C 177.729 70.158, 178.460 70.092, 179.667 68.441 C 180.400 67.438, 181 64.893, 181 62.786 L 181 58.954 183.490 60.585 C 186.198 62.360, 186.598 61.980, 187.201 57.062 C 187.453 55.011, 188.226 55.805, 192.074 62.062 C 196.413 69.119, 196.900 69.559, 201.574 70.654 C 209.743 72.568, 210.339 72.446, 209.650 69 C 209.257 67.033, 209.453 66, 210.221 66 C 210.865 66, 210.025 64.537, 208.354 62.750 C 206.683 60.962, 204.307 57.475, 203.073 55 C 198.886 46.599, 185.537 27.712, 181.259 24.136 C 178.173 21.557, 177 19.831, 177 17.870 C 177 13.699, 175.988 11.983, 173.643 12.180 C 172.464 12.279, 169.385 12.528, 166.801 12.733 M 243.213 14.139 C 236.807 18.240, 235.034 26.786, 239.280 33.088 C 242.463 37.810, 245.520 39.185, 251.619 38.634 C 255.523 38.281, 257.404 37.505, 259.549 35.360 C 261.986 32.923, 262.369 31.747, 262.428 26.524 C 262.506 19.638, 260.561 16.069, 255.349 13.533 C 251.045 11.439, 247.123 11.635, 243.213 14.139 M 14.572 16.295 C 14.295 18.058, 13.378 25.922, 12.534 33.770 L 10.998 48.041 16.499 53.630 L 22 59.220 21.936 52.860 C 21.772 36.582, 20.287 18.393, 18.949 16.269 C 16.709 12.715, 15.131 12.724, 14.572 16.295 M 37.933 14.581 C 36.903 15.821, 36.877 16.573, 37.810 18.068 C 38.465 19.116, 39 21.561, 39 23.503 C 39 25.779, 40.923 30.867, 44.412 37.825 C 49.267 47.505, 50.241 48.805, 53.860 50.437 C 57.812 52.219, 67.973 52.361, 69.676 50.657 C 70.049 50.284, 69.218 48.746, 67.830 47.240 C 66.441 45.733, 63.629 41.688, 61.580 38.250 C 59.531 34.813, 57.303 32, 56.628 32 C 54.478 32, 53 34.299, 53 37.641 C 53 42.017, 51.808 42.455, 48.717 39.214 C 44.290 34.574, 42.545 27.496, 45.543 26.345 C 47.841 25.463, 48.611 26.832, 46.632 28.280 C 45.068 29.424, 45.044 29.861, 46.372 33.040 C 47.177 34.965, 48.812 37.425, 50.007 38.506 L 52.179 40.472 51.494 36.822 C 50.917 33.743, 51.137 32.997, 52.905 32.051 C 55.750 30.528, 55.569 29.635, 51.500 25.132 C 49.575 23.001, 48 20.585, 48 19.764 C 48 17.209, 43.986 13, 41.550 13 C 40.282 13, 38.654 13.712, 37.933 14.581 M 163.035 15.934 C 160.319 21.010, 161.564 24.527, 172.398 42.379 C 176.029 48.362, 179 53.823, 179 54.514 C 179 56.135, 183.758 59.268, 185.028 58.483 C 185.563 58.152, 186 56.784, 186 55.441 C 186 51.201, 188.453 52.776, 192.424 59.563 C 196.660 66.805, 198.641 68.449, 204.337 69.449 C 207.997 70.092, 208.142 70.017, 207.483 67.812 C 206.219 63.583, 204.009 61.033, 195.282 53.736 C 176.727 38.222, 172.489 34.294, 172.202 32.346 C 171.878 30.153, 174.593 27.226, 175.774 28.494 C 176.173 28.923, 175.938 29.475, 175.250 29.720 C 171.994 30.883, 174.514 34.304, 184.750 42.618 C 190.662 47.420, 196.963 52.709, 198.750 54.371 C 200.537 56.033, 202 56.900, 202 56.297 C 202 54.372, 183.761 27.907, 181.238 26.171 C 176.234 22.728, 175 21.012, 175 17.500 L 175 14 169.535 14 C 165.156 14, 163.865 14.384, 163.035 15.934 M 245.595 14.847 C 245.307 15.313, 246.322 16.893, 247.851 18.358 L 250.632 21.021 252.921 18.585 C 254.179 17.245, 254.911 15.665, 254.546 15.074 C 253.762 13.806, 246.354 13.618, 245.595 14.847 M 242.004 17.495 C 240.879 18.851, 241.147 19.557, 243.844 22.339 C 247.652 26.268, 247.713 26.982, 244.500 30 C 243.125 31.292, 242 32.945, 242 33.674 C 242 35.933, 245.683 35.133, 247.408 32.500 C 249.471 29.351, 250.721 29.359, 254.041 32.539 C 256.467 34.863, 256.806 34.939, 258.057 33.431 C 259.248 31.996, 259.075 31.530, 256.712 29.809 C 253.351 27.361, 253.309 25.998, 256.500 23 C 257.875 21.708, 259 20.081, 259 19.385 C 259 16.701, 256.928 17.048, 254.091 20.206 L 251.132 23.500 247.227 19.704 C 243.747 16.322, 243.178 16.081, 242.004 17.495 M 165 18.500 C 165 19.325, 165.675 20, 166.500 20 C 167.333 20, 168 20.889, 168 22 C 168 23.100, 168.450 24, 169 24 C 169.550 24, 170 23.100, 170 22 C 170 20.889, 170.667 20, 171.500 20 C 172.325 20, 173 19.625, 173 19.167 C 173 17.552, 171.717 17.081, 169.929 18.038 C 168.749 18.669, 167.906 18.657, 167.502 18.003 C 166.566 16.489, 165 16.800, 165 18.500 M 239 25.441 C 239 30.601, 240.333 31.914, 243.063 29.443 C 245.587 27.159, 245.506 25.824, 242.686 23.174 C 239.441 20.127, 239 20.398, 239 25.441 M 257.500 24 C 255.753 25.930, 255.753 26.070, 257.500 28 C 260.166 30.946, 261 30.469, 261 26 C 261 21.531, 260.166 21.054, 257.500 24 M 248 34.500 L 245.651 37 249.659 37 C 254.582 37, 255.501 36.211, 253.347 33.831 C 251.204 31.463, 250.807 31.512, 248 34.500 M 113.395 57.500 C 113.396 65.200, 113.553 68.218, 113.743 64.206 C 113.934 60.195, 113.932 53.895, 113.741 50.206 C 113.549 46.518, 113.393 49.800, 113.395 57.500 M 171.204 50.750 C 171.477 56.986, 171.680 57.525, 173.865 57.835 C 178.063 58.429, 178.343 56.622, 175.062 50.123 C 173.362 46.756, 171.732 44, 171.440 44 C 171.148 44, 171.042 47.038, 171.204 50.750 M 264 57.559 C 264 66.344, 264.352 70.900, 265 70.500 C 265.583 70.139, 266 64.490, 266 56.941 C 266 48.980, 265.615 44, 265 44 C 264.383 44, 264 49.186, 264 57.559 M 51 52.484 C 51 53.338, 49.875 57.258, 48.500 61.193 C 47.125 65.129, 46 68.720, 46 69.174 C 46 69.628, 47.523 70, 49.384 70 C 52.549 70, 52.912 69.644, 55.003 64.494 C 56.947 59.704, 57.074 58.593, 55.982 55.955 C 54.518 52.423, 51 49.971, 51 52.484 M 240.310 59.077 C 237.006 61.194, 233.198 68.894, 234.453 70.923 C 235.212 72.151, 261.003 72.469, 260.994 71.250 C 260.969 67.886, 258.366 62.651, 255.441 60.082 C 251.142 56.308, 245.245 55.916, 240.310 59.077 M 244.445 59.142 C 240.738 60.130, 237.388 63.534, 236.466 67.250 L 235.783 70 247.392 70 C 254.830 70, 259 69.623, 259 68.950 C 259 67.347, 256.313 62.505, 254.663 61.135 C 252.280 59.158, 247.723 58.269, 244.445 59.142 M 170.535 62.500 C 168.953 66.223, 169.806 67.226, 174.680 67.380 C 178.456 67.499, 178.503 67.453, 178.799 63.423 L 179.098 59.346 175.454 59.423 C 172.387 59.488, 171.607 59.976, 170.535 62.500" stroke="none" fill="#6c6c6c" fill-rule="evenodd"/><path d="M -0 42.503 L -0 85.007 141.250 84.753 L 282.500 84.500 282.761 42.250 L 283.022 -0 141.511 -0 L 0 0 -0 42.503 M 0.458 43 C 0.458 66.375, 0.589 75.938, 0.749 64.250 C 0.909 52.563, 0.909 33.438, 0.749 21.750 C 0.589 10.063, 0.458 19.625, 0.458 43 M 13.533 12.250 C 13.310 12.938, 12.344 21.505, 11.385 31.290 L 9.641 49.079 15.230 54.790 L 20.818 60.500 20.282 65.750 C 19.780 70.662, 19.888 71, 21.956 71 C 24.165 71, 24.167 70.984, 23.564 56.250 C 21.989 17.754, 21.503 14.410, 17.150 12.080 C 14.564 10.696, 14.027 10.721, 13.533 12.250 M 37.500 13 C 36.505 14.100, 35.085 15, 34.345 15 C 32.385 15, 32.700 16.331, 35 17.768 C 36.316 18.590, 37 20.100, 37 22.184 C 37 23.955, 39.644 31.031, 43 38.242 C 46.300 45.333, 49 52.203, 49 53.510 C 49 54.816, 47.823 59.061, 46.384 62.943 L 43.768 70 39.217 70 C 36.715 70, 34.909 70.242, 35.205 70.538 C 35.955 71.289, 57.980 71.353, 58.726 70.607 C 59.060 70.273, 58.358 70, 57.167 70 C 54.578 70, 54.516 69.402, 56.588 64.443 C 57.462 62.352, 58.008 59.194, 57.801 57.425 L 57.426 54.210 63.243 53.789 C 66.581 53.547, 69.701 52.727, 70.564 51.864 C 71.903 50.526, 71.723 49.928, 68.935 46.430 C 67.211 44.269, 64.955 40.848, 63.921 38.829 C 62.886 36.810, 59.106 31.706, 55.520 27.486 C 51.934 23.266, 49 18.935, 49 17.862 C 49 15.151, 44.584 11, 41.700 11 C 40.386 11, 38.495 11.900, 37.500 13 M 91.220 24.731 L 91.500 37.500 97.750 37.798 C 101.629 37.983, 104 37.698, 104 37.048 C 104 36.444, 101.667 36, 98.500 36 L 93 36 93 25 L 93 14 114 14 L 135 14 135 25 L 135 36 129.500 36 C 126.333 36, 124 36.444, 124 37.048 C 124 37.698, 126.371 37.983, 130.250 37.798 L 136.500 37.500 136.500 25 L 136.500 12.500 113.720 12.231 L 90.940 11.962 91.220 24.731 M 166.801 12.733 C 161.520 13.152, 160.863 14.103, 160.751 21.503 C 160.700 24.883, 161.604 27.400, 164.800 32.780 C 168.867 39.625, 168.917 39.831, 169.189 50.603 C 169.363 57.515, 169.022 62.506, 168.256 64.250 C 167.152 66.767, 166.587 67, 161.584 67 C 158.522 67, 155.803 67.509, 155.402 68.158 C 154.877 69.009, 156.120 69.145, 160.093 68.674 C 163.067 68.321, 168.388 68.534, 171.917 69.148 C 177.729 70.158, 178.460 70.092, 179.667 68.441 C 180.400 67.438, 181 64.893, 181 62.786 L 181 58.954 183.490 60.585 C 186.198 62.360, 186.598 61.980, 187.201 57.062 C 187.453 55.011, 188.226 55.805, 192.074 62.062 C 196.413 69.119, 196.900 69.559, 201.574 70.654 C 209.743 72.568, 210.339 72.446, 209.650 69 C 209.257 67.033, 209.453 66, 210.221 66 C 210.865 66, 210.025 64.537, 208.354 62.750 C 206.683 60.962, 204.307 57.475, 203.073 55 C 198.886 46.599, 185.537 27.712, 181.259 24.136 C 178.173 21.557, 177 19.831, 177 17.870 C 177 13.699, 175.988 11.983, 173.643 12.180 C 172.464 12.279, 169.385 12.528, 166.801 12.733 M 243.213 14.139 C 236.807 18.240, 235.034 26.786, 239.280 33.088 C 242.463 37.810, 245.520 39.185, 251.619 38.634 C 255.523 38.281, 257.404 37.505, 259.549 35.360 C 261.986 32.923, 262.369 31.747, 262.428 26.524 C 262.506 19.638, 260.561 16.069, 255.349 13.533 C 251.045 11.439, 247.123 11.635, 243.213 14.139 M 14.572 16.295 C 14.295 18.058, 13.378 25.922, 12.534 33.770 L 10.998 48.041 16.499 53.630 L 22 59.220 21.936 52.860 C 21.772 36.582, 20.287 18.393, 18.949 16.269 C 16.709 12.715, 15.131 12.724, 14.572 16.295 M 37.933 14.581 C 36.903 15.821, 36.877 16.573, 37.810 18.068 C 38.465 19.116, 39 21.561, 39 23.503 C 39 25.779, 40.923 30.867, 44.412 37.825 C 49.267 47.505, 50.241 48.805, 53.860 50.437 C 57.812 52.219, 67.973 52.361, 69.676 50.657 C 70.049 50.284, 69.218 48.746, 67.830 47.240 C 66.441 45.733, 63.629 41.688, 61.580 38.250 C 59.531 34.813, 57.303 32, 56.628 32 C 54.478 32, 53 34.299, 53 37.641 C 53 42.017, 51.808 42.455, 48.717 39.214 C 44.290 34.574, 42.545 27.496, 45.543 26.345 C 47.841 25.463, 48.611 26.832, 46.632 28.280 C 45.068 29.424, 45.044 29.861, 46.372 33.040 C 47.177 34.965, 48.812 37.425, 50.007 38.506 L 52.179 40.472 51.494 36.822 C 50.917 33.743, 51.137 32.997, 52.905 32.051 C 55.750 30.528, 55.569 29.635, 51.500 25.132 C 49.575 23.001, 48 20.585, 48 19.764 C 48 17.209, 43.986 13, 41.550 13 C 40.282 13, 38.654 13.712, 37.933 14.581 M 163.035 15.934 C 160.319 21.010, 161.564 24.527, 172.398 42.379 C 176.029 48.362, 179 53.823, 179 54.514 C 179 56.135, 183.758 59.268, 185.028 58.483 C 185.563 58.152, 186 56.784, 186 55.441 C 186 51.201, 188.453 52.776, 192.424 59.563 C 196.660 66.805, 198.641 68.449, 204.337 69.449 C 207.997 70.092, 208.142 70.017, 207.483 67.812 C 206.219 63.583, 204.009 61.033, 195.282 53.736 C 176.727 38.222, 172.489 34.294, 172.202 32.346 C 171.878 30.153, 174.593 27.226, 175.774 28.494 C 176.173 28.923, 175.938 29.475, 175.250 29.720 C 171.994 30.883, 174.514 34.304, 184.750 42.618 C 190.662 47.420, 196.963 52.709, 198.750 54.371 C 200.537 56.033, 202 56.900, 202 56.297 C 202 54.372, 183.761 27.907, 181.238 26.171 C 176.234 22.728, 175 21.012, 175 17.500 L 175 14 169.535 14 C 165.156 14, 163.865 14.384, 163.035 15.934 M 245.595 14.847 C 245.307 15.313, 246.322 16.893, 247.851 18.358 L 250.632 21.021 252.921 18.585 C 254.179 17.245, 254.911 15.665, 254.546 15.074 C 253.762 13.806, 246.354 13.618, 245.595 14.847 M 242.004 17.495 C 240.879 18.851, 241.147 19.557, 243.844 22.339 C 247.652 26.268, 247.713 26.982, 244.500 30 C 243.125 31.292, 242 32.945, 242 33.674 C 242 35.933, 245.683 35.133, 247.408 32.500 C 249.471 29.351, 250.721 29.359, 254.041 32.539 C 256.467 34.863, 256.806 34.939, 258.057 33.431 C 259.248 31.996, 259.075 31.530, 256.712 29.809 C 253.351 27.361, 253.309 25.998, 256.500 23 C 257.875 21.708, 259 20.081, 259 19.385 C 259 16.701, 256.928 17.048, 254.091 20.206 L 251.132 23.500 247.227 19.704 C 243.747 16.322, 243.178 16.081, 242.004 17.495 M 165 18.500 C 165 19.325, 165.675 20, 166.500 20 C 167.333 20, 168 20.889, 168 22 C 168 23.100, 168.450 24, 169 24 C 169.550 24, 170 23.100, 170 22 C 170 20.889, 170.667 20, 171.500 20 C 172.325 20, 173 19.625, 173 19.167 C 173 17.552, 171.717 17.081, 169.929 18.038 C 168.749 18.669, 167.906 18.657, 167.502 18.003 C 166.566 16.489, 165 16.800, 165 18.500 M 239 25.441 C 239 30.601, 240.333 31.914, 243.063 29.443 C 245.587 27.159, 245.506 25.824, 242.686 23.174 C 239.441 20.127, 239 20.398, 239 25.441 M 257.500 24 C 255.753 25.930, 255.753 26.070, 257.500 28 C 260.166 30.946, 261 30.469, 261 26 C 261 21.531, 260.166 21.054, 257.500 24 M 248 34.500 L 245.651 37 249.659 37 C 254.582 37, 255.501 36.211, 253.347 33.831 C 251.204 31.463, 250.807 31.512, 248 34.500 M 113.395 57.500 C 113.396 65.200, 113.553 68.218, 113.743 64.206 C 113.934 60.195, 113.932 53.895, 113.741 50.206 C 113.549 46.518, 113.393 49.800, 113.395 57.500 M 171.204 50.750 C 171.477 56.986, 171.680 57.525, 173.865 57.835 C 178.063 58.429, 178.343 56.622, 175.062 50.123 C 173.362 46.756, 171.732 44, 171.440 44 C 171.148 44, 171.042 47.038, 171.204 50.750 M 264 57.559 C 264 66.344, 264.352 70.900, 265 70.500 C 265.583 70.139, 266 64.490, 266 56.941 C 266 48.980, 265.615 44, 265 44 C 264.383 44, 264 49.186, 264 57.559 M 51 52.484 C 51 53.338, 49.875 57.258, 48.500 61.193 C 47.125 65.129, 46 68.720, 46 69.174 C 46 69.628, 47.523 70, 49.384 70 C 52.549 70, 52.912 69.644, 55.003 64.494 C 56.947 59.704, 57.074 58.593, 55.982 55.955 C 54.518 52.423, 51 49.971, 51 52.484 M 240.310 59.077 C 237.006 61.194, 233.198 68.894, 234.453 70.923 C 235.212 72.151, 261.003 72.469, 260.994 71.250 C 260.969 67.886, 258.366 62.651, 255.441 60.082 C 251.142 56.308, 245.245 55.916, 240.310 59.077 M 244.445 59.142 C 240.738 60.130, 237.388 63.534, 236.466 67.250 L 235.783 70 247.392 70 C 254.830 70, 259 69.623, 259 68.950 C 259 67.347, 256.313 62.505, 254.663 61.135 C 252.280 59.158, 247.723 58.269, 244.445 59.142 M 170.535 62.500 C 168.953 66.223, 169.806 67.226, 174.680 67.380 C 178.456 67.499, 178.503 67.453, 178.799 63.423 L 179.098 59.346 175.454 59.423 C 172.387 59.488, 171.607 59.976, 170.535 62.500" stroke="none" fill="#f7f7f7" fill-rule="evenodd"/></svg>