<svg xmlns="http://www.w3.org/2000/svg" width="384" height="200" viewBox="0 0 384 200" version="1.1"><path d="M 12.110 32.396 C 8.949 34.147, 7.077 37.698, 7.045 42 C 7.018 45.701, 10.653 54.472, 13.953 58.667 L 15.921 61.170 12.961 66.416 C 9.091 73.273, 9.085 78.057, 12.936 85.379 C 14.581 88.505, 15.454 91.219, 14.922 91.548 C 14.399 91.871, 13.023 93.994, 11.865 96.265 C 9.034 101.814, 9.679 110.326, 13.522 118.124 L 16.293 123.748 9.397 136.093 C 1.040 151.052, 1.492 150, 3.417 150 C 4.288 150, 5.009 149.662, 5.021 149.250 C 5.033 148.838, 7.899 143.391, 11.390 137.148 L 17.738 125.795 24.484 137.898 C 30.349 148.420, 33.025 151.991, 32.991 149.250 C 32.985 148.838, 29.879 142.936, 26.087 136.135 L 19.194 123.770 22.063 117.703 C 25.951 109.483, 26.668 104.038, 24.584 98.581 C 23.673 96.196, 22.084 93.481, 21.052 92.547 C 19.228 90.896, 19.263 90.710, 22.338 85.763 C 26.648 78.831, 26.665 73.198, 22.400 66.336 L 19.299 61.349 21.255 58.934 C 22.330 57.606, 24.337 54.296, 25.714 51.578 C 29.129 44.838, 28.638 36.806, 24.598 33.331 C 21.518 30.681, 15.954 30.265, 12.110 32.396 M 60.633 33.250 C 55.135 42.006, 53.926 44.259, 54.444 44.778 C 55.285 45.619, 56.935 43.749, 60.036 38.439 L 62.739 33.810 66.039 38.405 C 68.950 42.458, 71.972 44.403, 72.015 42.250 C 72.023 41.837, 73.492 39.771, 75.280 37.659 L 78.530 33.818 81.827 38.409 C 83.641 40.934, 85.526 43, 86.016 43 C 86.507 43, 88.472 40.952, 90.384 38.449 L 93.859 33.897 97.180 38.410 C 99.006 40.891, 100.986 42.940, 101.580 42.961 C 102.175 42.982, 104.115 40.975, 105.893 38.500 C 107.670 36.025, 109.293 34, 109.500 34 C 109.707 34, 111.330 36.025, 113.107 38.500 C 114.885 40.975, 116.825 42.982, 117.420 42.961 C 118.014 42.940, 119.994 40.891, 121.820 38.410 L 125.141 33.897 128.616 38.449 C 130.528 40.952, 132.493 43, 132.984 43 C 133.474 43, 135.359 40.934, 137.173 38.409 L 140.470 33.818 143.720 37.659 C 145.508 39.771, 146.977 41.837, 146.985 42.250 C 147.028 44.415, 150.005 42.447, 152.900 38.340 L 156.185 33.680 158.926 38.374 C 162.046 43.716, 163.712 45.621, 164.539 44.794 C 165.245 44.088, 157.811 31.770, 156.393 31.298 C 155.831 31.110, 153.861 33.059, 152.015 35.628 L 148.661 40.299 146.857 38.072 C 145.865 36.847, 144.143 34.642, 143.029 33.172 L 141.004 30.500 138.597 33.195 C 137.273 34.678, 135.472 36.915, 134.595 38.168 L 133 40.445 131.405 38.168 C 130.528 36.915, 128.726 34.678, 127.402 33.195 L 124.994 30.500 123.024 32.828 C 121.940 34.108, 120.209 36.315, 119.176 37.733 L 117.298 40.311 113.899 35.695 C 112.030 33.155, 110.050 31.078, 109.500 31.078 C 108.950 31.078, 106.970 33.155, 105.101 35.695 L 101.702 40.311 99.824 37.733 C 98.791 36.315, 97.060 34.108, 95.976 32.828 L 94.006 30.500 91.753 33.033 C 90.514 34.426, 88.746 36.676, 87.825 38.033 L 86.149 40.500 84.480 38.195 C 83.561 36.928, 81.727 34.678, 80.403 33.195 L 77.996 30.500 75.971 33.172 C 74.857 34.642, 73.114 36.872, 72.097 38.128 L 70.249 40.411 66.932 35.706 C 65.108 33.118, 63.262 31, 62.831 31 C 62.399 31, 61.410 32.013, 60.633 33.250 M 282.917 33.588 C 280.682 35.967, 280.401 36, 262.326 36 C 250.775 36, 244 36.370, 244 37 C 244 37.630, 250.702 38, 262.106 38 C 279.705 38, 280.290 38.066, 283.034 40.375 C 285.394 42.361, 286.960 42.750, 292.599 42.750 C 298.362 42.750, 299.686 42.405, 301.716 40.375 C 304.044 38.047, 304.453 38, 322.545 38 C 334.182 38, 341 37.631, 341 37 C 341 36.369, 334.182 36, 322.545 36 C 304.374 36, 304.054 35.963, 301.679 33.588 C 299.587 31.496, 298.335 31.176, 292.225 31.176 C 286.075 31.176, 284.896 31.482, 282.917 33.588 M 12.635 35.073 C 10.421 36.814, 10 37.938, 10 42.106 C 10 47.244, 13.295 55.340, 16.453 57.961 C 18.445 59.614, 19.906 58.034, 23.678 50.151 C 25.645 46.040, 26.108 43.845, 25.681 40.662 C 24.721 33.501, 18.190 30.703, 12.635 35.073 M 284.540 34.956 C 282.740 36.945, 282.740 37.055, 284.540 39.044 C 285.557 40.168, 287.314 40.956, 288.445 40.794 C 290.071 40.561, 290.500 39.769, 290.500 37 C 290.500 34.231, 290.071 33.439, 288.445 33.206 C 287.314 33.044, 285.557 33.832, 284.540 34.956 M 293.667 33.667 C 292.140 35.193, 293.029 39.874, 294.962 40.488 C 299.243 41.847, 302.810 37.210, 299.800 34.200 C 298.506 32.906, 294.753 32.580, 293.667 33.667 M 282.527 52.273 C 280.587 54.213, 279 56.730, 279 57.866 C 279 59.002, 278.212 61.595, 277.250 63.627 C 275.864 66.554, 275.773 67.415, 276.815 67.766 C 277.538 68.010, 278.539 69.288, 279.040 70.605 C 279.622 72.136, 280.771 73.017, 282.225 73.047 C 283.972 73.082, 283.415 73.658, 279.825 75.528 C 276.930 77.035, 273.008 80.566, 269.526 84.798 L 263.903 91.634 258.012 86.067 C 254.772 83.005, 251.488 78.925, 250.715 77 C 249.016 72.768, 246.572 70.566, 244.470 71.373 C 243.263 71.836, 243.148 72.408, 243.957 73.919 C 244.531 74.991, 245 76.998, 245 78.378 C 245 79.758, 245.793 81.475, 246.763 82.193 C 247.732 82.912, 251.596 87.213, 255.349 91.750 C 259.102 96.287, 262.838 100, 263.652 100 C 266.341 100, 268.627 98.168, 272.980 92.525 C 275.347 89.458, 277.431 87.098, 277.614 87.280 C 277.796 87.462, 278.902 92.536, 280.072 98.556 C 281.944 108.186, 282.057 110.311, 281.009 116.250 C 280.354 119.963, 279.522 122.997, 279.159 122.993 C 278.797 122.989, 277.495 121.510, 276.266 119.705 C 270.907 111.832, 261.264 105.253, 257.802 107.106 C 254.179 109.045, 253.912 112.274, 256.376 124.400 L 258.696 135.818 256.296 136.911 C 254.976 137.512, 253.272 139.499, 252.508 141.326 C 251.441 143.880, 250.183 144.928, 247.060 145.864 C 243.995 146.782, 243 147.593, 243 149.172 C 243 151.086, 243.361 151.198, 247.250 150.500 C 249.588 150.080, 254.650 149.658, 258.500 149.562 C 262.350 149.466, 271.580 149.012, 279.012 148.553 C 290.335 147.855, 293.438 147.985, 298.166 149.360 C 310.222 152.865, 316.296 149.876, 305.108 145.944 C 302.142 144.902, 299.502 143.836, 299.241 143.575 C 297.787 142.121, 298.794 104.873, 300.329 103.338 C 300.691 102.976, 304.151 103.920, 308.018 105.437 C 311.884 106.954, 315.712 107.941, 316.524 107.629 C 319.272 106.575, 318.043 100.986, 312.551 89.561 C 308.261 80.639, 306.374 77.776, 303.683 76.113 C 301.802 74.951, 299.380 74, 298.299 74 C 295.225 74, 295.020 73.071, 297.540 70.551 C 301.992 66.099, 301.996 56.224, 297.547 52.044 C 296.050 50.637, 293.392 49.573, 290.589 49.257 C 286.424 48.788, 285.766 49.034, 282.527 52.273 M 284.635 53.073 C 283.186 54.212, 282 55.518, 282 55.975 C 282 57.047, 287.604 59, 290.681 59 C 293.385 59, 294.754 61.387, 293.154 63.315 C 291.847 64.889, 292.704 68.673, 294.525 69.371 C 296.788 70.240, 298.234 67.248, 298.370 61.420 C 298.485 56.459, 298.186 55.563, 295.694 53.417 C 292.253 50.452, 288.129 50.324, 284.635 53.073 M 282.794 60.568 C 285.486 62.454, 284.828 64, 281.334 64 C 279.300 64, 278.931 64.353, 279.506 65.750 C 279.903 66.713, 280.452 68.283, 280.728 69.240 C 281.093 70.511, 281.872 70.819, 283.614 70.382 C 285.669 69.866, 286 70.143, 286 72.375 C 286 74.474, 285.067 75.439, 281.086 77.456 C 277.701 79.172, 274.224 82.331, 269.908 87.612 C 263.906 94.957, 263.578 95.198, 262.072 93.352 C 259.889 90.677, 251.135 83.064, 253.059 85.515 C 259.737 94.017, 263.370 98, 264.450 98 C 265.146 98, 268.522 94.579, 271.954 90.397 C 275.386 86.216, 278.548 83.178, 278.980 83.647 C 279.412 84.116, 280.789 90.125, 282.039 97 C 284.035 107.974, 284.172 110.326, 283.156 116.269 C 282.520 119.991, 282 123.457, 282 123.971 C 282 124.484, 284.137 124.256, 286.750 123.463 C 289.363 122.670, 292.460 122.017, 293.633 122.011 C 295.568 122.001, 295.826 121.282, 296.426 114.250 C 296.789 109.987, 297.311 105.339, 297.585 103.921 C 298.018 101.682, 297.541 101.097, 293.980 99.491 C 291.146 98.213, 289.447 96.613, 288.489 94.320 C 287.726 92.494, 286.404 91, 285.551 91 C 283.592 91, 283.510 88.125, 285.448 87.381 C 287.450 86.613, 292.605 89.839, 293.893 92.665 C 295.344 95.848, 299 95.826, 299 92.635 C 299 90.165, 302.449 85, 304.098 85 C 304.852 85, 312 99.134, 312 100.625 C 312 101.435, 308.058 100.933, 304.376 99.652 C 302.244 98.911, 299.150 98.005, 297.500 97.639 C 294.848 97.050, 294.732 97.112, 296.500 98.178 C 298.267 99.243, 314.829 106, 315.672 106 C 317.364 106, 312.466 93.006, 306.794 82.449 C 305.152 79.394, 300.692 76.558, 296 75.586 C 294.203 75.213, 293.008 73.860, 291.750 70.773 C 289.674 65.679, 289.569 63.857, 291.250 62.075 C 292.259 61.005, 292.211 60.842, 291 61.225 C 290.175 61.487, 287.756 61.093, 285.624 60.350 C 280.614 58.605, 280.053 58.648, 282.794 60.568 M 14.965 67.250 C 12.303 71.563, 11.653 74.342, 12.393 78.257 C 13.068 81.830, 16.493 88, 17.801 88 C 19.576 88, 23 80.098, 23 76 C 23 71.902, 19.576 64, 17.801 64 C 17.344 64, 16.068 65.463, 14.965 67.250 M 247.173 77.566 C 247.353 79.095, 248.004 80.511, 248.619 80.713 C 249.326 80.944, 249.558 80.139, 249.250 78.525 C 248.568 74.961, 246.769 74.131, 247.173 77.566 M 302.200 89.200 C 301.540 89.860, 301 91.792, 301 93.493 C 301 96.246, 301.431 96.702, 304.914 97.631 C 308.764 98.659, 308.813 98.638, 307.936 96.331 C 306.846 93.464, 304.051 88, 303.674 88 C 303.523 88, 302.860 88.540, 302.200 89.200 M 14.454 96.488 C 11.149 102.128, 11.367 107.762, 15.210 116.025 L 17.757 121.500 20.566 115.501 C 24.698 106.675, 23.909 97.489, 18.643 93.118 C 17.393 92.081, 16.719 92.623, 14.454 96.488 M 290.710 94 C 290.998 95.100, 291.647 96, 292.152 96 C 292.659 96, 292.591 95.105, 292 94 C 291.411 92.900, 290.763 92, 290.558 92 C 290.354 92, 290.423 92.900, 290.710 94 M 338 126.500 C 338 141.500, 338.362 150, 339 150 C 339.638 150, 340 141.500, 340 126.500 C 340 111.500, 339.638 103, 339 103 C 338.362 103, 338 111.500, 338 126.500 M 257.153 111.114 C 256.279 113.477, 259.912 134, 261.204 134 C 262.702 134, 262.059 121.015, 260.403 117.812 C 259.155 115.400, 259.046 114.195, 259.903 112.314 C 261.321 109.202, 261.294 109, 259.468 109 C 258.625 109, 257.584 109.952, 257.153 111.114 M 262.115 112.178 C 261.512 113.780, 261.720 115.430, 262.787 117.500 C 263.637 119.150, 264.595 123.053, 264.916 126.174 L 265.500 131.849 271.738 129.174 C 275.169 127.703, 277.981 126.204, 277.988 125.842 C 278.011 124.558, 268.957 114.106, 265.996 111.997 L 262.989 109.856 262.115 112.178 M 152.523 123.750 C 150.495 135.296, 149.304 141.030, 148.839 141.491 C 148.652 141.676, 146.475 141.435, 144 140.957 C 136.894 139.583, 107.805 139.898, 93 141.508 L 79.500 142.976 73.305 139.866 C 68.361 137.385, 66.392 136.891, 63.555 137.424 C 61.024 137.898, 60 138.616, 60 139.915 C 60 141.341, 61.003 141.853, 64.587 142.257 C 67.110 142.541, 69.675 143.275, 70.287 143.887 C 71.925 145.525, 63.606 145.314, 57.867 143.572 C 52.650 141.989, 50.376 142.965, 52.039 146.073 C 53.333 148.490, 59.048 150.212, 65.299 150.068 C 68.160 150.003, 92.325 149.623, 119 149.224 L 167.500 148.500 167.774 131.250 L 168.047 114 161.142 114 L 154.236 114 152.523 123.750 M 154.038 128.016 C 152.806 134.625, 152.029 140.634, 152.312 141.371 C 152.595 142.107, 155.565 143.400, 158.913 144.243 L 165 145.777 165 130.888 L 165 116 160.639 116 L 156.278 116 154.038 128.016 M 284.500 126.396 C 276.340 129.085, 260.555 136.292, 259.662 137.738 C 259.324 138.285, 259.915 139.518, 260.975 140.478 C 262.689 142.029, 263.477 142.085, 268.063 140.985 C 272.838 139.839, 279.758 140.014, 290 141.540 C 291.925 141.827, 294.078 141.674, 294.785 141.200 C 296.546 140.020, 297.384 134.048, 296.561 128.555 C 295.743 123.105, 294.930 122.959, 284.500 126.396 M 255.227 140.643 C 254.178 142.679, 254.684 145.088, 256.400 146.235 C 257.837 147.194, 268.434 147.109, 278.488 146.056 C 285.626 145.308, 290.224 145.618, 300.500 147.539 L 303.500 148.100 300.500 146.404 C 298.850 145.472, 297.275 144.437, 297 144.105 C 296.725 143.772, 294.250 143.424, 291.500 143.330 C 288.750 143.237, 283.575 142.874, 280 142.524 C 275.564 142.090, 271.754 142.360, 268 143.375 L 262.500 144.862 259.342 141.824 C 256.403 138.997, 256.118 138.915, 255.227 140.643 M 93.500 143.640 C 86.350 144.411, 79.263 144.819, 77.750 144.546 C 76.237 144.273, 75 144.489, 75 145.025 C 75 145.642, 89.742 146, 115.167 146 C 137.258 146, 155.067 145.733, 154.740 145.407 C 154.414 145.081, 149.952 144.184, 144.824 143.414 C 133.293 141.683, 110.727 141.782, 93.500 143.640 M 56.826 146.529 C 60.600 148.275, 69.738 148.805, 72.216 147.421 C 73.342 146.792, 71.587 146.500, 66.682 146.500 C 62.732 146.500, 58.150 146.160, 56.500 145.745 C 53.555 145.003, 53.561 145.017, 56.826 146.529 M 250 147 C 249.175 147.533, 248.950 147.969, 249.500 147.969 C 250.050 147.969, 251.175 147.533, 252 147 C 252.825 146.467, 253.050 146.031, 252.500 146.031 C 251.950 146.031, 250.825 146.467, 250 147" stroke="none" fill="#222222" fill-rule="evenodd"/><path d="M 0 100.003 L 0 200.005 192.250 199.753 L 384.500 199.500 384.755 99.750 L 385.010 0 192.505 0 L 0 0 0 100.003 M 0.481 100.500 C 0.481 155.500, 0.602 178.147, 0.750 150.826 C 0.898 123.506, 0.898 78.506, 0.750 50.826 C 0.602 23.147, 0.481 45.500, 0.481 100.500 M 12.110 32.396 C 8.949 34.147, 7.077 37.698, 7.045 42 C 7.018 45.701, 10.653 54.472, 13.953 58.667 L 15.921 61.170 12.961 66.416 C 9.091 73.273, 9.085 78.057, 12.936 85.379 C 14.581 88.505, 15.454 91.219, 14.922 91.548 C 14.399 91.871, 13.023 93.994, 11.865 96.265 C 9.034 101.814, 9.679 110.326, 13.522 118.124 L 16.293 123.748 9.397 136.093 C 1.040 151.052, 1.492 150, 3.417 150 C 4.288 150, 5.009 149.662, 5.021 149.250 C 5.033 148.838, 7.899 143.391, 11.390 137.148 L 17.738 125.795 24.484 137.898 C 30.349 148.420, 33.025 151.991, 32.991 149.250 C 32.985 148.838, 29.879 142.936, 26.087 136.135 L 19.194 123.770 22.063 117.703 C 25.951 109.483, 26.668 104.038, 24.584 98.581 C 23.673 96.196, 22.084 93.481, 21.052 92.547 C 19.228 90.896, 19.263 90.710, 22.338 85.763 C 26.648 78.831, 26.665 73.198, 22.400 66.336 L 19.299 61.349 21.255 58.934 C 22.330 57.606, 24.337 54.296, 25.714 51.578 C 29.129 44.838, 28.638 36.806, 24.598 33.331 C 21.518 30.681, 15.954 30.265, 12.110 32.396 M 60.633 33.250 C 55.135 42.006, 53.926 44.259, 54.444 44.778 C 55.285 45.619, 56.935 43.749, 60.036 38.439 L 62.739 33.810 66.039 38.405 C 68.950 42.458, 71.972 44.403, 72.015 42.250 C 72.023 41.837, 73.492 39.771, 75.280 37.659 L 78.530 33.818 81.827 38.409 C 83.641 40.934, 85.526 43, 86.016 43 C 86.507 43, 88.472 40.952, 90.384 38.449 L 93.859 33.897 97.180 38.410 C 99.006 40.891, 100.986 42.940, 101.580 42.961 C 102.175 42.982, 104.115 40.975, 105.893 38.500 C 107.670 36.025, 109.293 34, 109.500 34 C 109.707 34, 111.330 36.025, 113.107 38.500 C 114.885 40.975, 116.825 42.982, 117.420 42.961 C 118.014 42.940, 119.994 40.891, 121.820 38.410 L 125.141 33.897 128.616 38.449 C 130.528 40.952, 132.493 43, 132.984 43 C 133.474 43, 135.359 40.934, 137.173 38.409 L 140.470 33.818 143.720 37.659 C 145.508 39.771, 146.977 41.837, 146.985 42.250 C 147.028 44.415, 150.005 42.447, 152.900 38.340 L 156.185 33.680 158.926 38.374 C 162.046 43.716, 163.712 45.621, 164.539 44.794 C 165.245 44.088, 157.811 31.770, 156.393 31.298 C 155.831 31.110, 153.861 33.059, 152.015 35.628 L 148.661 40.299 146.857 38.072 C 145.865 36.847, 144.143 34.642, 143.029 33.172 L 141.004 30.500 138.597 33.195 C 137.273 34.678, 135.472 36.915, 134.595 38.168 L 133 40.445 131.405 38.168 C 130.528 36.915, 128.726 34.678, 127.402 33.195 L 124.994 30.500 123.024 32.828 C 121.940 34.108, 120.209 36.315, 119.176 37.733 L 117.298 40.311 113.899 35.695 C 112.030 33.155, 110.050 31.078, 109.500 31.078 C 108.950 31.078, 106.970 33.155, 105.101 35.695 L 101.702 40.311 99.824 37.733 C 98.791 36.315, 97.060 34.108, 95.976 32.828 L 94.006 30.500 91.753 33.033 C 90.514 34.426, 88.746 36.676, 87.825 38.033 L 86.149 40.500 84.480 38.195 C 83.561 36.928, 81.727 34.678, 80.403 33.195 L 77.996 30.500 75.971 33.172 C 74.857 34.642, 73.114 36.872, 72.097 38.128 L 70.249 40.411 66.932 35.706 C 65.108 33.118, 63.262 31, 62.831 31 C 62.399 31, 61.410 32.013, 60.633 33.250 M 282.917 33.588 C 280.682 35.967, 280.401 36, 262.326 36 C 250.775 36, 244 36.370, 244 37 C 244 37.630, 250.702 38, 262.106 38 C 279.705 38, 280.290 38.066, 283.034 40.375 C 285.394 42.361, 286.960 42.750, 292.599 42.750 C 298.362 42.750, 299.686 42.405, 301.716 40.375 C 304.044 38.047, 304.453 38, 322.545 38 C 334.182 38, 341 37.631, 341 37 C 341 36.369, 334.182 36, 322.545 36 C 304.374 36, 304.054 35.963, 301.679 33.588 C 299.587 31.496, 298.335 31.176, 292.225 31.176 C 286.075 31.176, 284.896 31.482, 282.917 33.588 M 12.635 35.073 C 10.421 36.814, 10 37.938, 10 42.106 C 10 47.244, 13.295 55.340, 16.453 57.961 C 18.445 59.614, 19.906 58.034, 23.678 50.151 C 25.645 46.040, 26.108 43.845, 25.681 40.662 C 24.721 33.501, 18.190 30.703, 12.635 35.073 M 284.540 34.956 C 282.740 36.945, 282.740 37.055, 284.540 39.044 C 285.557 40.168, 287.314 40.956, 288.445 40.794 C 290.071 40.561, 290.500 39.769, 290.500 37 C 290.500 34.231, 290.071 33.439, 288.445 33.206 C 287.314 33.044, 285.557 33.832, 284.540 34.956 M 293.667 33.667 C 292.140 35.193, 293.029 39.874, 294.962 40.488 C 299.243 41.847, 302.810 37.210, 299.800 34.200 C 298.506 32.906, 294.753 32.580, 293.667 33.667 M 282.527 52.273 C 280.587 54.213, 279 56.730, 279 57.866 C 279 59.002, 278.212 61.595, 277.250 63.627 C 275.864 66.554, 275.773 67.415, 276.815 67.766 C 277.538 68.010, 278.539 69.288, 279.040 70.605 C 279.622 72.136, 280.771 73.017, 282.225 73.047 C 283.972 73.082, 283.415 73.658, 279.825 75.528 C 276.930 77.035, 273.008 80.566, 269.526 84.798 L 263.903 91.634 258.012 86.067 C 254.772 83.005, 251.488 78.925, 250.715 77 C 249.016 72.768, 246.572 70.566, 244.470 71.373 C 243.263 71.836, 243.148 72.408, 243.957 73.919 C 244.531 74.991, 245 76.998, 245 78.378 C 245 79.758, 245.793 81.475, 246.763 82.193 C 247.732 82.912, 251.596 87.213, 255.349 91.750 C 259.102 96.287, 262.838 100, 263.652 100 C 266.341 100, 268.627 98.168, 272.980 92.525 C 275.347 89.458, 277.431 87.098, 277.614 87.280 C 277.796 87.462, 278.902 92.536, 280.072 98.556 C 281.944 108.186, 282.057 110.311, 281.009 116.250 C 280.354 119.963, 279.522 122.997, 279.159 122.993 C 278.797 122.989, 277.495 121.510, 276.266 119.705 C 270.907 111.832, 261.264 105.253, 257.802 107.106 C 254.179 109.045, 253.912 112.274, 256.376 124.400 L 258.696 135.818 256.296 136.911 C 254.976 137.512, 253.272 139.499, 252.508 141.326 C 251.441 143.880, 250.183 144.928, 247.060 145.864 C 243.995 146.782, 243 147.593, 243 149.172 C 243 151.086, 243.361 151.198, 247.250 150.500 C 249.588 150.080, 254.650 149.658, 258.500 149.562 C 262.350 149.466, 271.580 149.012, 279.012 148.553 C 290.335 147.855, 293.438 147.985, 298.166 149.360 C 310.222 152.865, 316.296 149.876, 305.108 145.944 C 302.142 144.902, 299.502 143.836, 299.241 143.575 C 297.787 142.121, 298.794 104.873, 300.329 103.338 C 300.691 102.976, 304.151 103.920, 308.018 105.437 C 311.884 106.954, 315.712 107.941, 316.524 107.629 C 319.272 106.575, 318.043 100.986, 312.551 89.561 C 308.261 80.639, 306.374 77.776, 303.683 76.113 C 301.802 74.951, 299.380 74, 298.299 74 C 295.225 74, 295.020 73.071, 297.540 70.551 C 301.992 66.099, 301.996 56.224, 297.547 52.044 C 296.050 50.637, 293.392 49.573, 290.589 49.257 C 286.424 48.788, 285.766 49.034, 282.527 52.273 M 284.635 53.073 C 283.186 54.212, 282 55.518, 282 55.975 C 282 57.047, 287.604 59, 290.681 59 C 293.385 59, 294.754 61.387, 293.154 63.315 C 291.847 64.889, 292.704 68.673, 294.525 69.371 C 296.788 70.240, 298.234 67.248, 298.370 61.420 C 298.485 56.459, 298.186 55.563, 295.694 53.417 C 292.253 50.452, 288.129 50.324, 284.635 53.073 M 282.794 60.568 C 285.486 62.454, 284.828 64, 281.334 64 C 279.300 64, 278.931 64.353, 279.506 65.750 C 279.903 66.713, 280.452 68.283, 280.728 69.240 C 281.093 70.511, 281.872 70.819, 283.614 70.382 C 285.669 69.866, 286 70.143, 286 72.375 C 286 74.474, 285.067 75.439, 281.086 77.456 C 277.701 79.172, 274.224 82.331, 269.908 87.612 C 263.906 94.957, 263.578 95.198, 262.072 93.352 C 259.889 90.677, 251.135 83.064, 253.059 85.515 C 259.737 94.017, 263.370 98, 264.450 98 C 265.146 98, 268.522 94.579, 271.954 90.397 C 275.386 86.216, 278.548 83.178, 278.980 83.647 C 279.412 84.116, 280.789 90.125, 282.039 97 C 284.035 107.974, 284.172 110.326, 283.156 116.269 C 282.520 119.991, 282 123.457, 282 123.971 C 282 124.484, 284.137 124.256, 286.750 123.463 C 289.363 122.670, 292.460 122.017, 293.633 122.011 C 295.568 122.001, 295.826 121.282, 296.426 114.250 C 296.789 109.987, 297.311 105.339, 297.585 103.921 C 298.018 101.682, 297.541 101.097, 293.980 99.491 C 291.146 98.213, 289.447 96.613, 288.489 94.320 C 287.726 92.494, 286.404 91, 285.551 91 C 283.592 91, 283.510 88.125, 285.448 87.381 C 287.450 86.613, 292.605 89.839, 293.893 92.665 C 295.344 95.848, 299 95.826, 299 92.635 C 299 90.165, 302.449 85, 304.098 85 C 304.852 85, 312 99.134, 312 100.625 C 312 101.435, 308.058 100.933, 304.376 99.652 C 302.244 98.911, 299.150 98.005, 297.500 97.639 C 294.848 97.050, 294.732 97.112, 296.500 98.178 C 298.267 99.243, 314.829 106, 315.672 106 C 317.364 106, 312.466 93.006, 306.794 82.449 C 305.152 79.394, 300.692 76.558, 296 75.586 C 294.203 75.213, 293.008 73.860, 291.750 70.773 C 289.674 65.679, 289.569 63.857, 291.250 62.075 C 292.259 61.005, 292.211 60.842, 291 61.225 C 290.175 61.487, 287.756 61.093, 285.624 60.350 C 280.614 58.605, 280.053 58.648, 282.794 60.568 M 14.965 67.250 C 12.303 71.563, 11.653 74.342, 12.393 78.257 C 13.068 81.830, 16.493 88, 17.801 88 C 19.576 88, 23 80.098, 23 76 C 23 71.902, 19.576 64, 17.801 64 C 17.344 64, 16.068 65.463, 14.965 67.250 M 247.173 77.566 C 247.353 79.095, 248.004 80.511, 248.619 80.713 C 249.326 80.944, 249.558 80.139, 249.250 78.525 C 248.568 74.961, 246.769 74.131, 247.173 77.566 M 302.200 89.200 C 301.540 89.860, 301 91.792, 301 93.493 C 301 96.246, 301.431 96.702, 304.914 97.631 C 308.764 98.659, 308.813 98.638, 307.936 96.331 C 306.846 93.464, 304.051 88, 303.674 88 C 303.523 88, 302.860 88.540, 302.200 89.200 M 14.454 96.488 C 11.149 102.128, 11.367 107.762, 15.210 116.025 L 17.757 121.500 20.566 115.501 C 24.698 106.675, 23.909 97.489, 18.643 93.118 C 17.393 92.081, 16.719 92.623, 14.454 96.488 M 290.710 94 C 290.998 95.100, 291.647 96, 292.152 96 C 292.659 96, 292.591 95.105, 292 94 C 291.411 92.900, 290.763 92, 290.558 92 C 290.354 92, 290.423 92.900, 290.710 94 M 338 126.500 C 338 141.500, 338.362 150, 339 150 C 339.638 150, 340 141.500, 340 126.500 C 340 111.500, 339.638 103, 339 103 C 338.362 103, 338 111.500, 338 126.500 M 257.153 111.114 C 256.279 113.477, 259.912 134, 261.204 134 C 262.702 134, 262.059 121.015, 260.403 117.812 C 259.155 115.400, 259.046 114.195, 259.903 112.314 C 261.321 109.202, 261.294 109, 259.468 109 C 258.625 109, 257.584 109.952, 257.153 111.114 M 262.115 112.178 C 261.512 113.780, 261.720 115.430, 262.787 117.500 C 263.637 119.150, 264.595 123.053, 264.916 126.174 L 265.500 131.849 271.738 129.174 C 275.169 127.703, 277.981 126.204, 277.988 125.842 C 278.011 124.558, 268.957 114.106, 265.996 111.997 L 262.989 109.856 262.115 112.178 M 152.523 123.750 C 150.495 135.296, 149.304 141.030, 148.839 141.491 C 148.652 141.676, 146.475 141.435, 144 140.957 C 136.894 139.583, 107.805 139.898, 93 141.508 L 79.500 142.976 73.305 139.866 C 68.361 137.385, 66.392 136.891, 63.555 137.424 C 61.024 137.898, 60 138.616, 60 139.915 C 60 141.341, 61.003 141.853, 64.587 142.257 C 67.110 142.541, 69.675 143.275, 70.287 143.887 C 71.925 145.525, 63.606 145.314, 57.867 143.572 C 52.650 141.989, 50.376 142.965, 52.039 146.073 C 53.333 148.490, 59.048 150.212, 65.299 150.068 C 68.160 150.003, 92.325 149.623, 119 149.224 L 167.500 148.500 167.774 131.250 L 168.047 114 161.142 114 L 154.236 114 152.523 123.750 M 154.038 128.016 C 152.806 134.625, 152.029 140.634, 152.312 141.371 C 152.595 142.107, 155.565 143.400, 158.913 144.243 L 165 145.777 165 130.888 L 165 116 160.639 116 L 156.278 116 154.038 128.016 M 284.500 126.396 C 276.340 129.085, 260.555 136.292, 259.662 137.738 C 259.324 138.285, 259.915 139.518, 260.975 140.478 C 262.689 142.029, 263.477 142.085, 268.063 140.985 C 272.838 139.839, 279.758 140.014, 290 141.540 C 291.925 141.827, 294.078 141.674, 294.785 141.200 C 296.546 140.020, 297.384 134.048, 296.561 128.555 C 295.743 123.105, 294.930 122.959, 284.500 126.396 M 255.227 140.643 C 254.178 142.679, 254.684 145.088, 256.400 146.235 C 257.837 147.194, 268.434 147.109, 278.488 146.056 C 285.626 145.308, 290.224 145.618, 300.500 147.539 L 303.500 148.100 300.500 146.404 C 298.850 145.472, 297.275 144.437, 297 144.105 C 296.725 143.772, 294.250 143.424, 291.500 143.330 C 288.750 143.237, 283.575 142.874, 280 142.524 C 275.564 142.090, 271.754 142.360, 268 143.375 L 262.500 144.862 259.342 141.824 C 256.403 138.997, 256.118 138.915, 255.227 140.643 M 93.500 143.640 C 86.350 144.411, 79.263 144.819, 77.750 144.546 C 76.237 144.273, 75 144.489, 75 145.025 C 75 145.642, 89.742 146, 115.167 146 C 137.258 146, 155.067 145.733, 154.740 145.407 C 154.414 145.081, 149.952 144.184, 144.824 143.414 C 133.293 141.683, 110.727 141.782, 93.500 143.640 M 56.826 146.529 C 60.600 148.275, 69.738 148.805, 72.216 147.421 C 73.342 146.792, 71.587 146.500, 66.682 146.500 C 62.732 146.500, 58.150 146.160, 56.500 145.745 C 53.555 145.003, 53.561 145.017, 56.826 146.529 M 250 147 C 249.175 147.533, 248.950 147.969, 249.500 147.969 C 250.050 147.969, 251.175 147.533, 252 147 C 252.825 146.467, 253.050 146.031, 252.500 146.031 C 251.950 146.031, 250.825 146.467, 250 147" stroke="none" fill="#fafafa" fill-rule="evenodd"/></svg>