<svg xmlns="http://www.w3.org/2000/svg" width="326" height="216" viewBox="0 0 326 216" version="1.1"><path d="M 47.903 37.105 C 41.961 37.991, 38.359 39.931, 33.860 44.668 C 27.893 50.950, 26.527 54.459, 26.531 63.500 C 26.534 69.839, 26.996 72.370, 28.757 75.689 C 33.589 84.801, 42.071 90.111, 51.762 90.095 C 59.182 90.082, 63.489 88.745, 68.130 85.016 C 70.194 83.357, 72.809 82, 73.941 82 C 75.074 82, 76 81.550, 76 81 C 76 80.450, 75.572 80, 75.049 80 C 73.974 80, 77.445 71.685, 78.693 71.269 C 79.860 70.881, 79.438 59.996, 78.128 56.706 C 77.516 55.169, 76.724 52.748, 76.367 51.326 C 75.719 48.743, 70.092 42.986, 65.128 39.828 C 61.551 37.552, 53.473 36.275, 47.903 37.105 M 226.753 37.046 C 221.002 38, 216.376 40.734, 211.637 45.980 C 207.709 50.328, 204.434 59.607, 205.428 63.569 L 206.038 66 233.019 66 C 257.571 66, 262.332 65.559, 259.132 63.581 C 258.654 63.286, 257.973 60.852, 257.617 58.172 C 256.394 48.953, 246.953 38.917, 238.106 37.431 C 236.123 37.098, 233.825 36.698, 233 36.542 C 232.175 36.386, 229.364 36.613, 226.753 37.046 M 42.500 40.890 C 40.300 41.905, 37.409 43.921, 36.076 45.368 L 33.651 48 52.500 48 L 71.349 48 69.008 45.509 C 63.058 39.175, 50.832 37.045, 42.500 40.890 M 222.355 40.447 C 214.616 43.814, 209.194 51.274, 207.598 60.750 L 207.050 64 231.525 64 L 256 64 255.978 60.750 C 255.929 53.490, 249.333 44.419, 241.522 40.871 C 236.709 38.684, 226.904 38.467, 222.355 40.447 M 30.526 52.950 C 27.305 59.179, 26.656 59, 52.500 59 C 66.409 59, 76 58.618, 76 58.065 C 76 56.239, 73.857 51.529, 72.687 50.786 C 72.034 50.370, 62.624 50.024, 51.776 50.015 L 32.051 50 30.526 52.950 M 28 63.418 C 28 69.174, 27.237 69, 52.500 69 C 77.763 69, 77 69.174, 77 63.418 L 77 61 52.500 61 L 28 61 28 63.418 M 30.004 72.250 C 30.006 72.938, 30.899 74.963, 31.989 76.750 L 33.971 80 52.500 80 L 71.029 80 73.011 76.750 C 76.595 70.872, 77.052 71, 52.500 71 C 35.165 71, 30.001 71.287, 30.004 72.250 M 37.564 83.104 C 38.905 85.273, 46.585 87.956, 51.500 87.972 C 57.638 87.993, 62.699 86.610, 66 84.012 L 68.500 82.044 52.691 82.022 C 41.407 82.006, 37.077 82.316, 37.564 83.104 M 45.071 128.165 C 39.729 129.699, 33.286 134.650, 30.605 139.282 C 27.556 144.550, 25.665 151.527, 26.444 154.634 L 27.038 157 54.019 157 C 76.414 157, 81 156.763, 81 155.607 C 81 154.841, 80.325 153.955, 79.500 153.638 C 78.668 153.319, 77.996 151.824, 77.990 150.281 C 77.985 148.752, 76.930 145.250, 75.647 142.500 C 70.233 130.898, 57.059 124.722, 45.071 128.165 M 47.653 130.138 C 38.466 131.510, 30.582 139.553, 29.075 149.091 L 28.299 154 52.149 154 L 76 154 75.994 151.750 C 75.978 144.943, 70.178 135.695, 63.886 132.441 C 59.610 130.230, 53.162 129.315, 47.653 130.138 M 198.167 145.416 C 196.357 147.937, 194.492 150, 194.022 150 C 193.552 150, 191.742 148.200, 190 146 C 188.258 143.800, 186.452 142, 185.988 142 C 184.986 142, 178 153.265, 178 154.881 C 178 157.247, 179.609 155.804, 182.288 151.035 C 183.821 148.305, 185.476 145.824, 185.965 145.522 C 186.455 145.219, 188.314 147.003, 190.097 149.486 C 191.880 151.969, 193.636 154, 194 154 C 194.364 154, 196.115 151.975, 197.893 149.500 C 199.670 147.025, 201.434 145.018, 201.812 145.039 C 202.190 145.060, 203.977 147.085, 205.782 149.539 C 207.587 151.993, 209.387 153.982, 209.782 153.961 C 210.177 153.940, 212.033 151.839, 213.908 149.294 L 217.316 144.666 219.563 147.278 C 220.799 148.715, 222.550 150.928, 223.455 152.195 L 225.101 154.500 227.455 151.805 C 228.750 150.322, 230.551 148.072, 231.457 146.805 L 233.104 144.500 235.025 146.828 C 236.082 148.108, 237.858 150.358, 238.973 151.828 L 241 154.500 243.027 151.828 C 244.142 150.358, 245.941 148.108, 247.026 146.828 L 248.998 144.500 251.026 147.172 C 252.141 148.642, 253.918 150.892, 254.975 152.172 L 256.896 154.500 258.543 152.195 C 259.449 150.928, 261.250 148.678, 262.545 147.195 L 264.899 144.500 266.545 146.805 C 267.450 148.072, 269.201 150.285, 270.437 151.722 L 272.684 154.334 276.092 149.706 C 277.967 147.161, 279.732 145.060, 280.016 145.039 C 280.300 145.018, 282.018 147.483, 283.833 150.518 C 285.648 153.553, 287.578 155.761, 288.121 155.425 C 288.737 155.044, 288.586 154.004, 287.720 152.657 C 286.956 151.471, 285.051 148.298, 283.487 145.607 L 280.643 140.714 278.571 143.125 C 277.432 144.451, 275.585 146.794, 274.466 148.332 L 272.431 151.128 269.180 146.601 C 267.392 144.111, 265.535 141.830, 265.053 141.533 C 264.571 141.235, 262.518 143.251, 260.491 146.012 L 256.806 151.033 253.357 146.516 C 251.460 144.032, 249.366 142.010, 248.704 142.021 C 248.042 142.033, 246.233 143.833, 244.685 146.021 C 243.137 148.210, 241.477 150, 240.997 150 C 240.517 150, 238.643 147.937, 236.833 145.416 L 233.541 140.833 231.520 143.184 C 230.409 144.478, 228.566 146.820, 227.424 148.389 L 225.348 151.242 221.589 146.121 C 219.521 143.304, 217.681 141, 217.500 141 C 217.319 141, 215.479 143.304, 213.411 146.121 L 209.652 151.242 207.576 148.389 C 206.434 146.820, 204.591 144.478, 203.480 143.184 L 201.459 140.833 198.167 145.416" stroke="none" fill="#1f1f1f" fill-rule="evenodd"/><path d="M 0 108.003 L 0 216.006 163.250 215.753 L 326.500 215.500 326.754 107.750 L 327.009 0 163.504 0 L 0 0 0 108.003 M 0.482 108.500 C 0.482 167.900, 0.603 192.053, 0.750 162.173 C 0.897 132.294, 0.897 83.694, 0.750 54.173 C 0.603 24.653, 0.482 49.100, 0.482 108.500 M 47.903 37.105 C 41.961 37.991, 38.359 39.931, 33.860 44.668 C 27.893 50.950, 26.527 54.459, 26.531 63.500 C 26.534 69.839, 26.996 72.370, 28.757 75.689 C 33.589 84.801, 42.071 90.111, 51.762 90.095 C 59.182 90.082, 63.489 88.745, 68.130 85.016 C 70.194 83.357, 72.809 82, 73.941 82 C 75.074 82, 76 81.550, 76 81 C 76 80.450, 75.572 80, 75.049 80 C 73.974 80, 77.445 71.685, 78.693 71.269 C 79.860 70.881, 79.438 59.996, 78.128 56.706 C 77.516 55.169, 76.724 52.748, 76.367 51.326 C 75.719 48.743, 70.092 42.986, 65.128 39.828 C 61.551 37.552, 53.473 36.275, 47.903 37.105 M 226.753 37.046 C 221.002 38, 216.376 40.734, 211.637 45.980 C 207.709 50.328, 204.434 59.607, 205.428 63.569 L 206.038 66 233.019 66 C 257.571 66, 262.332 65.559, 259.132 63.581 C 258.654 63.286, 257.973 60.852, 257.617 58.172 C 256.394 48.953, 246.953 38.917, 238.106 37.431 C 236.123 37.098, 233.825 36.698, 233 36.542 C 232.175 36.386, 229.364 36.613, 226.753 37.046 M 42.500 40.890 C 40.300 41.905, 37.409 43.921, 36.076 45.368 L 33.651 48 52.500 48 L 71.349 48 69.008 45.509 C 63.058 39.175, 50.832 37.045, 42.500 40.890 M 222.355 40.447 C 214.616 43.814, 209.194 51.274, 207.598 60.750 L 207.050 64 231.525 64 L 256 64 255.978 60.750 C 255.929 53.490, 249.333 44.419, 241.522 40.871 C 236.709 38.684, 226.904 38.467, 222.355 40.447 M 30.526 52.950 C 27.305 59.179, 26.656 59, 52.500 59 C 66.409 59, 76 58.618, 76 58.065 C 76 56.239, 73.857 51.529, 72.687 50.786 C 72.034 50.370, 62.624 50.024, 51.776 50.015 L 32.051 50 30.526 52.950 M 28 63.418 C 28 69.174, 27.237 69, 52.500 69 C 77.763 69, 77 69.174, 77 63.418 L 77 61 52.500 61 L 28 61 28 63.418 M 30.004 72.250 C 30.006 72.938, 30.899 74.963, 31.989 76.750 L 33.971 80 52.500 80 L 71.029 80 73.011 76.750 C 76.595 70.872, 77.052 71, 52.500 71 C 35.165 71, 30.001 71.287, 30.004 72.250 M 37.564 83.104 C 38.905 85.273, 46.585 87.956, 51.500 87.972 C 57.638 87.993, 62.699 86.610, 66 84.012 L 68.500 82.044 52.691 82.022 C 41.407 82.006, 37.077 82.316, 37.564 83.104 M 45.071 128.165 C 39.729 129.699, 33.286 134.650, 30.605 139.282 C 27.556 144.550, 25.665 151.527, 26.444 154.634 L 27.038 157 54.019 157 C 76.414 157, 81 156.763, 81 155.607 C 81 154.841, 80.325 153.955, 79.500 153.638 C 78.668 153.319, 77.996 151.824, 77.990 150.281 C 77.985 148.752, 76.930 145.250, 75.647 142.500 C 70.233 130.898, 57.059 124.722, 45.071 128.165 M 47.653 130.138 C 38.466 131.510, 30.582 139.553, 29.075 149.091 L 28.299 154 52.149 154 L 76 154 75.994 151.750 C 75.978 144.943, 70.178 135.695, 63.886 132.441 C 59.610 130.230, 53.162 129.315, 47.653 130.138 M 198.167 145.416 C 196.357 147.937, 194.492 150, 194.022 150 C 193.552 150, 191.742 148.200, 190 146 C 188.258 143.800, 186.452 142, 185.988 142 C 184.986 142, 178 153.265, 178 154.881 C 178 157.247, 179.609 155.804, 182.288 151.035 C 183.821 148.305, 185.476 145.824, 185.965 145.522 C 186.455 145.219, 188.314 147.003, 190.097 149.486 C 191.880 151.969, 193.636 154, 194 154 C 194.364 154, 196.115 151.975, 197.893 149.500 C 199.670 147.025, 201.434 145.018, 201.812 145.039 C 202.190 145.060, 203.977 147.085, 205.782 149.539 C 207.587 151.993, 209.387 153.982, 209.782 153.961 C 210.177 153.940, 212.033 151.839, 213.908 149.294 L 217.316 144.666 219.563 147.278 C 220.799 148.715, 222.550 150.928, 223.455 152.195 L 225.101 154.500 227.455 151.805 C 228.750 150.322, 230.551 148.072, 231.457 146.805 L 233.104 144.500 235.025 146.828 C 236.082 148.108, 237.858 150.358, 238.973 151.828 L 241 154.500 243.027 151.828 C 244.142 150.358, 245.941 148.108, 247.026 146.828 L 248.998 144.500 251.026 147.172 C 252.141 148.642, 253.918 150.892, 254.975 152.172 L 256.896 154.500 258.543 152.195 C 259.449 150.928, 261.250 148.678, 262.545 147.195 L 264.899 144.500 266.545 146.805 C 267.450 148.072, 269.201 150.285, 270.437 151.722 L 272.684 154.334 276.092 149.706 C 277.967 147.161, 279.732 145.060, 280.016 145.039 C 280.300 145.018, 282.018 147.483, 283.833 150.518 C 285.648 153.553, 287.578 155.761, 288.121 155.425 C 288.737 155.044, 288.586 154.004, 287.720 152.657 C 286.956 151.471, 285.051 148.298, 283.487 145.607 L 280.643 140.714 278.571 143.125 C 277.432 144.451, 275.585 146.794, 274.466 148.332 L 272.431 151.128 269.180 146.601 C 267.392 144.111, 265.535 141.830, 265.053 141.533 C 264.571 141.235, 262.518 143.251, 260.491 146.012 L 256.806 151.033 253.357 146.516 C 251.460 144.032, 249.366 142.010, 248.704 142.021 C 248.042 142.033, 246.233 143.833, 244.685 146.021 C 243.137 148.210, 241.477 150, 240.997 150 C 240.517 150, 238.643 147.937, 236.833 145.416 L 233.541 140.833 231.520 143.184 C 230.409 144.478, 228.566 146.820, 227.424 148.389 L 225.348 151.242 221.589 146.121 C 219.521 143.304, 217.681 141, 217.500 141 C 217.319 141, 215.479 143.304, 213.411 146.121 L 209.652 151.242 207.576 148.389 C 206.434 146.820, 204.591 144.478, 203.480 143.184 L 201.459 140.833 198.167 145.416" stroke="none" fill="#fbfbfb" fill-rule="evenodd"/></svg>