<svg xmlns="http://www.w3.org/2000/svg" width="330" height="186" viewBox="0 0 330 186" version="1.1"><path d="M 14 31.279 C 14 33.459, 19.442 41.203, 24.126 45.689 C 30.494 51.787, 38.958 56.502, 47.767 58.859 C 60.231 62.193, 67.095 62.475, 78.499 60.121 C 91.687 57.400, 101.554 52.502, 108.864 45.050 L 114.466 39.338 116.047 43.919 C 117.593 48.399, 122.458 53, 125.648 53 C 128.041 53, 131 49.107, 131 45.960 C 131 42.188, 128.058 36.306, 124.517 33 L 121.840 30.500 67.920 30.225 C 23.595 29.999, 14 30.186, 14 31.279 M 235.994 30.883 C 228.943 33.173, 222.928 38.281, 219.371 45 C 217.989 47.610, 217.515 50.663, 217.509 57 C 217.501 64.480, 217.830 66.061, 220.249 70.176 C 225.348 78.850, 234.427 84.032, 244.432 83.978 C 248.970 83.954, 255.307 81.393, 260.351 77.546 C 262.187 76.146, 264.434 75, 265.344 75 C 266.255 75, 267 74.550, 267 74 C 267 73.450, 266.583 73, 266.074 73 C 265.565 73, 265.903 71.205, 266.824 69.010 C 267.746 66.816, 269.063 65.016, 269.750 65.010 C 271.224 64.998, 271.378 63.788, 270.075 62.450 C 269.532 61.891, 269.495 59.647, 269.986 57.004 C 270.446 54.531, 270.461 52.281, 270.021 52.004 C 269.581 51.727, 268.618 49.481, 267.881 47.014 C 266.376 41.973, 260.027 35.208, 254.131 32.363 C 250.138 30.436, 239.932 29.603, 235.994 30.883 M 17 32.777 C 17 36.081, 28.225 47.423, 35.601 51.573 C 52.418 61.035, 77.431 61.403, 95.100 52.449 C 102.858 48.518, 115 36.376, 115 32.550 C 115 32.247, 92.950 32, 66 32 C 39.050 32, 17 32.350, 17 32.777 M 117.598 32.736 C 116.466 33.868, 117.003 40.763, 118.503 44.354 C 119.351 46.382, 121.287 48.614, 122.939 49.469 C 125.573 50.830, 126.032 50.826, 127.436 49.421 C 129.362 47.495, 129.419 44.920, 127.629 40.718 C 125.608 35.975, 119.343 30.990, 117.598 32.736 M 237.500 32.935 C 233.161 33.991, 228.855 36.430, 226.076 39.405 L 223.651 42 242.826 42 C 253.372 42, 262 41.798, 262 41.551 C 262 41.304, 260.538 39.721, 258.750 38.033 C 253.645 33.214, 244.937 31.125, 237.500 32.935 M 220.718 47.750 L 219.221 51.500 242.759 51.768 C 255.705 51.916, 266.481 51.852, 266.707 51.627 C 266.932 51.401, 266.439 49.593, 265.610 47.608 L 264.102 44 243.158 44 L 222.214 44 220.718 47.750 M 219.193 58.250 L 219.500 62.500 243.134 62.768 L 266.768 63.036 267.252 59.768 C 268.131 53.829, 268.857 54, 242.836 54 L 218.885 54 219.193 58.250 M 222 69 L 224.041 73 243.035 73 L 262.029 73 264.011 69.750 C 265.101 67.963, 265.994 66.162, 265.996 65.750 C 265.998 65.338, 255.641 65, 242.980 65 L 219.959 65 222 69 M 228 76.056 C 228 76.637, 230.137 78.082, 232.750 79.267 C 239.119 82.157, 247.968 82.120, 253.682 79.180 C 261.057 75.386, 260.122 75, 243.559 75 C 233.301 75, 228 75.360, 228 76.056 M 61.242 122.494 C 56.003 124.771, 51.083 129.002, 48.451 133.494 C 45.485 138.555, 43.702 146.936, 45.205 148.747 C 45.991 149.694, 52.811 150, 73.122 150 C 97.139 150, 103.221 149.450, 98.640 147.692 C 97.891 147.405, 97.050 145.135, 96.769 142.644 C 95.793 133.986, 88.859 125.498, 80.252 122.427 C 75.338 120.673, 65.351 120.708, 61.242 122.494 M 233.615 122.472 C 228.883 124.159, 222.548 130.110, 219.787 135.461 C 218.612 137.739, 217.692 141.565, 217.622 144.461 L 217.500 149.500 244.750 149.766 C 262.712 149.941, 272 149.686, 272 149.016 C 272 148.457, 271.325 148, 270.500 148 C 269.476 148, 268.997 146.968, 268.990 144.750 C 268.966 136.637, 259.249 124.275, 251.123 122.017 C 246.094 120.621, 238.238 120.825, 233.615 122.472 M 60.168 125.603 C 52.657 129.347, 47 137.665, 47 144.968 L 47 148 71 148 L 95 148 94.978 144.750 C 94.929 137.490, 88.333 128.419, 80.522 124.871 C 74.520 122.145, 66.532 122.432, 60.168 125.603 M 234 124.592 C 226.735 127.734, 220.916 135.439, 219.532 143.750 L 218.824 148 242.912 148 L 267 148 266.994 145.750 C 266.974 137.418, 258.519 126.329, 250.500 124.115 C 244.980 122.592, 238.170 122.788, 234 124.592" stroke="none" fill="#1b1b1b" fill-rule="evenodd"/><path d="M 0 93.003 L 0 186.006 165.250 185.753 L 330.500 185.500 330.755 92.750 L 331.010 -0 165.505 -0 L 0 0 0 93.003 M 0.480 93.500 C 0.480 144.650, 0.601 165.428, 0.750 139.674 C 0.898 113.920, 0.898 72.070, 0.750 46.674 C 0.601 21.278, 0.480 42.350, 0.480 93.500 M 14 31.279 C 14 33.459, 19.442 41.203, 24.126 45.689 C 30.494 51.787, 38.958 56.502, 47.767 58.859 C 60.231 62.193, 67.095 62.475, 78.499 60.121 C 91.687 57.400, 101.554 52.502, 108.864 45.050 L 114.466 39.338 116.047 43.919 C 117.593 48.399, 122.458 53, 125.648 53 C 128.041 53, 131 49.107, 131 45.960 C 131 42.188, 128.058 36.306, 124.517 33 L 121.840 30.500 67.920 30.225 C 23.595 29.999, 14 30.186, 14 31.279 M 235.994 30.883 C 228.943 33.173, 222.928 38.281, 219.371 45 C 217.989 47.610, 217.515 50.663, 217.509 57 C 217.501 64.480, 217.830 66.061, 220.249 70.176 C 225.348 78.850, 234.427 84.032, 244.432 83.978 C 248.970 83.954, 255.307 81.393, 260.351 77.546 C 262.187 76.146, 264.434 75, 265.344 75 C 266.255 75, 267 74.550, 267 74 C 267 73.450, 266.583 73, 266.074 73 C 265.565 73, 265.903 71.205, 266.824 69.010 C 267.746 66.816, 269.063 65.016, 269.750 65.010 C 271.224 64.998, 271.378 63.788, 270.075 62.450 C 269.532 61.891, 269.495 59.647, 269.986 57.004 C 270.446 54.531, 270.461 52.281, 270.021 52.004 C 269.581 51.727, 268.618 49.481, 267.881 47.014 C 266.376 41.973, 260.027 35.208, 254.131 32.363 C 250.138 30.436, 239.932 29.603, 235.994 30.883 M 17 32.777 C 17 36.081, 28.225 47.423, 35.601 51.573 C 52.418 61.035, 77.431 61.403, 95.100 52.449 C 102.858 48.518, 115 36.376, 115 32.550 C 115 32.247, 92.950 32, 66 32 C 39.050 32, 17 32.350, 17 32.777 M 117.598 32.736 C 116.466 33.868, 117.003 40.763, 118.503 44.354 C 119.351 46.382, 121.287 48.614, 122.939 49.469 C 125.573 50.830, 126.032 50.826, 127.436 49.421 C 129.362 47.495, 129.419 44.920, 127.629 40.718 C 125.608 35.975, 119.343 30.990, 117.598 32.736 M 237.500 32.935 C 233.161 33.991, 228.855 36.430, 226.076 39.405 L 223.651 42 242.826 42 C 253.372 42, 262 41.798, 262 41.551 C 262 41.304, 260.538 39.721, 258.750 38.033 C 253.645 33.214, 244.937 31.125, 237.500 32.935 M 220.718 47.750 L 219.221 51.500 242.759 51.768 C 255.705 51.916, 266.481 51.852, 266.707 51.627 C 266.932 51.401, 266.439 49.593, 265.610 47.608 L 264.102 44 243.158 44 L 222.214 44 220.718 47.750 M 219.193 58.250 L 219.500 62.500 243.134 62.768 L 266.768 63.036 267.252 59.768 C 268.131 53.829, 268.857 54, 242.836 54 L 218.885 54 219.193 58.250 M 222 69 L 224.041 73 243.035 73 L 262.029 73 264.011 69.750 C 265.101 67.963, 265.994 66.162, 265.996 65.750 C 265.998 65.338, 255.641 65, 242.980 65 L 219.959 65 222 69 M 228 76.056 C 228 76.637, 230.137 78.082, 232.750 79.267 C 239.119 82.157, 247.968 82.120, 253.682 79.180 C 261.057 75.386, 260.122 75, 243.559 75 C 233.301 75, 228 75.360, 228 76.056 M 61.242 122.494 C 56.003 124.771, 51.083 129.002, 48.451 133.494 C 45.485 138.555, 43.702 146.936, 45.205 148.747 C 45.991 149.694, 52.811 150, 73.122 150 C 97.139 150, 103.221 149.450, 98.640 147.692 C 97.891 147.405, 97.050 145.135, 96.769 142.644 C 95.793 133.986, 88.859 125.498, 80.252 122.427 C 75.338 120.673, 65.351 120.708, 61.242 122.494 M 233.615 122.472 C 228.883 124.159, 222.548 130.110, 219.787 135.461 C 218.612 137.739, 217.692 141.565, 217.622 144.461 L 217.500 149.500 244.750 149.766 C 262.712 149.941, 272 149.686, 272 149.016 C 272 148.457, 271.325 148, 270.500 148 C 269.476 148, 268.997 146.968, 268.990 144.750 C 268.966 136.637, 259.249 124.275, 251.123 122.017 C 246.094 120.621, 238.238 120.825, 233.615 122.472 M 60.168 125.603 C 52.657 129.347, 47 137.665, 47 144.968 L 47 148 71 148 L 95 148 94.978 144.750 C 94.929 137.490, 88.333 128.419, 80.522 124.871 C 74.520 122.145, 66.532 122.432, 60.168 125.603 M 234 124.592 C 226.735 127.734, 220.916 135.439, 219.532 143.750 L 218.824 148 242.912 148 L 267 148 266.994 145.750 C 266.974 137.418, 258.519 126.329, 250.500 124.115 C 244.980 122.592, 238.170 122.788, 234 124.592" stroke="none" fill="#fbfbfb" fill-rule="evenodd"/></svg>