<svg xmlns="http://www.w3.org/2000/svg" width="314" height="176" viewBox="0 0 314 176" version="1.1"><path d="M 54.175 23.131 C 52.954 23.582, 51.692 24.638, 51.371 25.476 C 50.875 26.767, 47.897 27, 31.893 27 C 19.964 27, 13 27.369, 13 28 C 13 28.631, 19.844 29, 31.531 29 C 47.279 29, 50.151 29.231, 50.653 30.537 C 51.628 33.078, 56.556 35.119, 59.246 34.096 C 60.644 33.565, 62.264 33.568, 63.223 34.105 C 65.344 35.292, 69.564 33.671, 71.209 31.037 C 72.415 29.105, 73.451 29, 91.241 29 C 103.080 29, 110 28.631, 110 28 C 110 27.368, 102.990 27, 90.969 27 C 75.434 27, 71.837 26.739, 71.391 25.577 C 71.091 24.795, 70.093 23.828, 69.173 23.428 C 66.738 22.371, 56.764 22.173, 54.175 23.131 M 227.667 22.667 C 227.300 23.033, 227 33.383, 227 45.667 L 227 68 244.500 68 L 262 68 262 45 L 262 22 245.167 22 C 235.908 22, 228.033 22.300, 227.667 22.667 M 53.978 25.817 C 52.067 27.364, 51.907 27.958, 52.902 29.817 C 53.700 31.307, 55.011 32, 57.035 32 C 59.739 32, 60 31.701, 60 28.607 C 60 26.435, 59.431 24.995, 58.418 24.607 C 56.324 23.803, 56.536 23.745, 53.978 25.817 M 63.170 24.874 C 62.414 25.353, 61.982 26.966, 62.170 28.609 C 62.449 31.054, 62.946 31.500, 65.391 31.500 C 67.108 31.500, 68.732 30.764, 69.391 29.687 C 70.294 28.211, 70.062 27.515, 68.139 25.937 C 65.496 23.768, 65.061 23.675, 63.170 24.874 M 229 45.026 L 229 66.052 244.250 65.776 L 259.500 65.500 259.770 44.750 L 260.041 24 244.520 24 L 229 24 229 45.026 M 54 41.289 C 51.539 42.528, 49.884 45.256, 46.380 53.850 C 44.772 57.792, 44.755 58.283, 46.191 59.087 C 47.063 59.575, 48.050 61.064, 48.384 62.395 C 48.841 64.215, 49.489 64.685, 50.996 64.291 C 54.584 63.352, 53.109 65.064, 48.616 67.052 C 45.575 68.397, 42.484 71.156, 38.520 76.062 L 32.807 83.132 27.036 77.816 C 23.863 74.892, 20.952 71.295, 20.569 69.823 C 19.882 67.178, 15.482 62, 13.923 62 C 12.442 62, 11.761 64.161, 12.887 65.287 C 13.499 65.899, 14 67.605, 14 69.078 C 14 70.550, 14.746 72.373, 15.659 73.128 C 16.571 73.882, 20.221 78.100, 23.770 82.500 C 27.318 86.900, 31.121 90.841, 32.220 91.258 C 34.321 92.055, 38.555 88.463, 44.170 81.119 L 46.755 77.739 48.976 89.653 C 51.015 100.589, 51.085 102.130, 49.832 108.428 L 48.466 115.289 44.152 109.697 C 39.246 103.338, 31.229 97.687, 27.804 98.175 C 23.294 98.817, 22.760 102.526, 25.346 115.253 L 27.683 126.753 24.341 129.419 C 22.504 130.886, 21 132.873, 21 133.836 C 21 134.986, 19.542 136.118, 16.750 137.135 C 14.253 138.045, 12.355 139.427, 12.149 140.483 C 11.835 142.098, 12.298 142.204, 16.649 141.519 C 19.317 141.099, 23.750 140.833, 26.500 140.927 C 29.250 141.021, 37.350 140.602, 44.500 139.996 C 54.072 139.184, 58.818 139.189, 62.500 140.017 C 65.250 140.635, 70.313 141.386, 73.750 141.687 C 78.765 142.125, 80 141.950, 80 140.799 C 80 139.939, 77.813 138.676, 74.534 137.642 C 71.528 136.695, 68.729 135.375, 68.314 134.710 C 66.713 132.143, 67.246 97.837, 68.929 95.114 C 69.408 94.339, 71.582 94.771, 76.059 96.530 C 88.119 101.270, 89.463 98.578, 82.596 83.431 C 76.911 70.888, 74.173 67.417, 68.736 65.856 C 63.245 64.279, 63.352 64.466, 66.415 61.801 C 68.401 60.074, 69.209 58.219, 69.656 54.367 C 70.375 48.164, 68.260 43.826, 63.393 41.516 C 59.527 39.681, 57.298 39.628, 54 41.289 M 57 42.801 C 54.425 43.194, 51 45.671, 51 47.142 C 51 48.506, 57.712 50.888, 59.925 50.309 C 62.500 49.636, 63.801 52.488, 62.135 55.155 C 61.285 56.516, 61.251 57.600, 62.012 59.023 C 63.970 62.681, 66.317 60.845, 67.405 54.803 C 68.759 47.282, 63.956 41.742, 57 42.801 M 50 50.928 C 50 51.389, 50.900 52.002, 52 52.290 C 55.074 53.094, 54.371 55, 51 55 C 47.692 55, 47.430 55.654, 49.188 59.514 C 50.121 61.561, 50.874 61.997, 52.688 61.542 C 54.711 61.034, 55 61.329, 55 63.898 C 55 66.460, 54.422 67.055, 50.467 68.566 C 46.981 69.897, 44.433 72.111, 39.438 78.149 C 35.865 82.467, 32.748 86, 32.511 86 C 32.274 86, 29.969 83.743, 27.389 80.985 C 24.809 78.226, 22.500 76.166, 22.259 76.407 C 21.368 77.299, 31.562 88.984, 33.237 88.992 C 34.193 88.996, 37.763 85.603, 41.170 81.451 C 45.351 76.357, 47.592 74.325, 48.062 75.201 C 48.445 75.916, 49.780 82.039, 51.029 88.808 C 53.074 99.892, 53.175 101.814, 52.047 108.123 C 51.359 111.976, 50.997 115.331, 51.244 115.577 C 51.490 115.824, 54.687 115.240, 58.346 114.280 L 65 112.535 65.073 108.018 C 65.113 105.533, 65.491 101.073, 65.912 98.107 L 66.678 92.714 62.812 91.107 C 60.402 90.105, 58.726 88.647, 58.361 87.234 C 58.039 85.988, 56.701 84.123, 55.388 83.090 C 52.287 80.651, 52.351 79, 55.545 79 C 57.841 79, 59.915 80.611, 63.789 85.405 C 65.670 87.732, 66.877 87.366, 67.600 84.250 C 68.513 80.316, 70.794 77, 72.588 77 C 74.105 77, 81.670 91.663, 80.669 92.664 C 80.407 92.927, 77.062 92.210, 73.238 91.071 C 65.185 88.673, 63.448 88.508, 67.092 90.489 C 70.131 92.141, 82.838 97, 84.119 97 C 85.764 97, 85.008 94.169, 80.750 84.385 C 75.598 72.547, 72.133 68.532, 66.206 67.533 C 62.492 66.907, 61.833 66.414, 61.327 63.884 C 61.005 62.275, 60.350 60.716, 59.871 60.420 C 58.674 59.681, 58.771 55.260, 60 54.500 C 61.466 53.594, 61.221 51.978, 59.705 52.560 C 58.993 52.833, 56.518 52.389, 54.205 51.572 C 51.892 50.756, 50 50.466, 50 50.928 M 16 68.678 C 16 69.820, 16.740 71.369, 17.644 72.120 C 19.116 73.341, 19.209 73.223, 18.532 70.992 C 17.466 67.481, 16 66.141, 16 68.678 M 71.137 80.744 C 70.512 81.913, 70 83.988, 70 85.357 C 70 87.323, 70.749 88.092, 73.567 89.022 C 75.529 89.670, 77.285 90.042, 77.469 89.850 C 77.654 89.657, 76.560 87.052, 75.039 84.060 C 72.455 78.977, 72.199 78.760, 71.137 80.744 M 59.500 85 C 60.353 86.650, 61.276 88, 61.551 88 C 61.826 88, 61.353 86.650, 60.500 85 C 59.647 83.350, 58.724 82, 58.449 82 C 58.174 82, 58.647 83.350, 59.500 85 M 107 118 C 107 132.667, 107.362 141, 108 141 C 108.638 141, 109 132.667, 109 118 C 109 103.333, 108.638 95, 108 95 C 107.362 95, 107 103.333, 107 118 M 26.153 102.114 C 25.279 104.477, 28.912 125, 30.204 125 C 31.675 125, 31.050 112.997, 29.414 109.834 C 27.893 106.892, 27.906 105.607, 29.494 101.750 C 30.007 100.502, 29.744 100, 28.575 100 C 27.673 100, 26.584 100.952, 26.153 102.114 M 31.005 103.991 C 30.205 105.486, 30.320 106.719, 31.470 108.941 C 32.311 110.569, 33 114.398, 33 117.450 C 33 120.894, 33.427 123, 34.125 123 C 35.504 123, 47 117.899, 47 117.287 C 47 116.097, 37.800 105.099, 35.596 103.655 C 32.418 101.572, 32.294 101.581, 31.005 103.991 M 54.500 117.436 C 50.650 118.667, 43.108 121.782, 37.741 124.358 L 27.982 129.043 29.639 131.572 C 30.627 133.080, 31.882 133.876, 32.748 133.543 C 33.547 133.237, 37.278 132.478, 41.040 131.856 C 46.769 130.910, 48.950 130.996, 54.471 132.382 C 59.144 133.556, 61.608 133.745, 62.940 133.032 C 65.266 131.787, 66.391 125.788, 65.460 119.583 C 64.660 114.244, 64.551 114.223, 54.500 117.436 M 192.713 133.456 C 188.721 140.397, 188.499 141, 189.942 141 C 190.461 141, 192.148 138.750, 193.692 136.001 C 195.237 133.252, 196.800 131.002, 197.166 131.001 C 197.532 131, 199.258 132.800, 201 135 C 202.742 137.200, 204.560 139, 205.038 139 C 205.517 139, 207.472 136.952, 209.384 134.449 L 212.859 129.897 216.180 134.410 C 218.006 136.891, 220.035 138.940, 220.688 138.961 C 221.341 138.982, 223.356 136.939, 225.164 134.421 C 228.835 129.309, 227.993 129.067, 234.053 136.974 L 236.606 140.305 240.477 135.031 L 244.348 129.758 246.424 132.611 C 247.566 134.180, 249.409 136.522, 250.520 137.816 L 252.541 140.167 255.833 135.584 C 257.643 133.063, 259.517 131, 259.997 131 C 260.477 131, 262.137 132.790, 263.685 134.979 C 265.233 137.167, 267.042 138.967, 267.704 138.979 C 268.366 138.990, 270.460 136.968, 272.357 134.484 L 275.806 129.967 279.593 135.127 L 283.381 140.288 286.676 136.394 C 288.488 134.252, 289.977 132.162, 289.985 131.750 C 290.028 129.582, 292.256 131.616, 295.165 136.479 C 296.967 139.492, 298.814 141.586, 299.269 141.131 C 300.044 140.356, 293.706 128.554, 291.923 127.452 C 291.472 127.174, 289.618 128.966, 287.802 131.434 C 285.986 133.902, 284.177 135.940, 283.782 135.961 C 283.387 135.982, 281.587 133.993, 279.782 131.539 C 277.977 129.085, 276.190 127.060, 275.812 127.039 C 275.434 127.018, 273.670 129.025, 271.893 131.500 C 270.115 133.975, 268.315 136, 267.893 136 C 267.470 136, 265.670 133.975, 263.893 131.500 C 262.115 129.025, 260.364 127, 260 127 C 259.636 127, 257.885 129.025, 256.107 131.500 C 254.330 133.975, 252.566 135.982, 252.188 135.961 C 251.810 135.940, 250.023 133.915, 248.218 131.461 C 246.413 129.007, 244.613 127.018, 244.218 127.039 C 243.823 127.060, 241.973 129.153, 240.106 131.688 L 236.712 136.298 232.523 131.470 L 228.334 126.641 224.917 131.282 C 223.038 133.834, 221.190 135.940, 220.812 135.961 C 220.434 135.982, 218.670 133.975, 216.893 131.500 C 215.115 129.025, 213.315 127, 212.893 127 C 212.470 127, 210.670 129.025, 208.893 131.500 C 207.115 133.975, 205.364 136, 205 136 C 204.636 136, 202.885 133.975, 201.107 131.500 C 199.330 129.025, 197.550 127, 197.151 127 C 196.752 127, 194.755 129.905, 192.713 133.456 M 24.105 132.373 C 23.478 133.129, 23.251 134.491, 23.600 135.401 C 24.921 138.842, 27.561 139.171, 43.479 137.875 C 55.296 136.912, 59.968 136.892, 63.676 137.787 C 66.329 138.428, 69.625 139.228, 71 139.564 C 72.660 139.971, 72.040 139.308, 69.156 137.593 C 66.489 136.007, 63.979 135.218, 62.656 135.549 C 61.470 135.846, 57.575 135.411, 54 134.583 C 47.704 133.124, 42.503 133.371, 32.838 135.589 C 30.706 136.078, 29.838 135.682, 28.473 133.600 C 26.540 130.648, 25.726 130.420, 24.105 132.373 M 17.500 139 C 16.181 139.567, 16.011 139.878, 17 139.914 C 17.825 139.945, 19.175 139.533, 20 139 C 21.828 137.819, 20.249 137.819, 17.500 139" stroke="none" fill="#202020" fill-rule="evenodd"/><path d="M -0 88.003 L -0 176.006 157.250 175.753 L 314.500 175.500 314.755 87.750 L 315.011 0 157.505 0 L 0 0 -0 88.003 M 0.479 88.500 C 0.478 136.900, 0.600 156.846, 0.750 132.825 C 0.899 108.804, 0.899 69.204, 0.750 44.825 C 0.601 20.446, 0.479 40.100, 0.479 88.500 M 54.175 23.131 C 52.954 23.582, 51.692 24.638, 51.371 25.476 C 50.875 26.767, 47.897 27, 31.893 27 C 19.964 27, 13 27.369, 13 28 C 13 28.631, 19.844 29, 31.531 29 C 47.279 29, 50.151 29.231, 50.653 30.537 C 51.628 33.078, 56.556 35.119, 59.246 34.096 C 60.644 33.565, 62.264 33.568, 63.223 34.105 C 65.344 35.292, 69.564 33.671, 71.209 31.037 C 72.415 29.105, 73.451 29, 91.241 29 C 103.080 29, 110 28.631, 110 28 C 110 27.368, 102.990 27, 90.969 27 C 75.434 27, 71.837 26.739, 71.391 25.577 C 71.091 24.795, 70.093 23.828, 69.173 23.428 C 66.738 22.371, 56.764 22.173, 54.175 23.131 M 227.667 22.667 C 227.300 23.033, 227 33.383, 227 45.667 L 227 68 244.500 68 L 262 68 262 45 L 262 22 245.167 22 C 235.908 22, 228.033 22.300, 227.667 22.667 M 53.978 25.817 C 52.067 27.364, 51.907 27.958, 52.902 29.817 C 53.700 31.307, 55.011 32, 57.035 32 C 59.739 32, 60 31.701, 60 28.607 C 60 26.435, 59.431 24.995, 58.418 24.607 C 56.324 23.803, 56.536 23.745, 53.978 25.817 M 63.170 24.874 C 62.414 25.353, 61.982 26.966, 62.170 28.609 C 62.449 31.054, 62.946 31.500, 65.391 31.500 C 67.108 31.500, 68.732 30.764, 69.391 29.687 C 70.294 28.211, 70.062 27.515, 68.139 25.937 C 65.496 23.768, 65.061 23.675, 63.170 24.874 M 229 45.026 L 229 66.052 244.250 65.776 L 259.500 65.500 259.770 44.750 L 260.041 24 244.520 24 L 229 24 229 45.026 M 54 41.289 C 51.539 42.528, 49.884 45.256, 46.380 53.850 C 44.772 57.792, 44.755 58.283, 46.191 59.087 C 47.063 59.575, 48.050 61.064, 48.384 62.395 C 48.841 64.215, 49.489 64.685, 50.996 64.291 C 54.584 63.352, 53.109 65.064, 48.616 67.052 C 45.575 68.397, 42.484 71.156, 38.520 76.062 L 32.807 83.132 27.036 77.816 C 23.863 74.892, 20.952 71.295, 20.569 69.823 C 19.882 67.178, 15.482 62, 13.923 62 C 12.442 62, 11.761 64.161, 12.887 65.287 C 13.499 65.899, 14 67.605, 14 69.078 C 14 70.550, 14.746 72.373, 15.659 73.128 C 16.571 73.882, 20.221 78.100, 23.770 82.500 C 27.318 86.900, 31.121 90.841, 32.220 91.258 C 34.321 92.055, 38.555 88.463, 44.170 81.119 L 46.755 77.739 48.976 89.653 C 51.015 100.589, 51.085 102.130, 49.832 108.428 L 48.466 115.289 44.152 109.697 C 39.246 103.338, 31.229 97.687, 27.804 98.175 C 23.294 98.817, 22.760 102.526, 25.346 115.253 L 27.683 126.753 24.341 129.419 C 22.504 130.886, 21 132.873, 21 133.836 C 21 134.986, 19.542 136.118, 16.750 137.135 C 14.253 138.045, 12.355 139.427, 12.149 140.483 C 11.835 142.098, 12.298 142.204, 16.649 141.519 C 19.317 141.099, 23.750 140.833, 26.500 140.927 C 29.250 141.021, 37.350 140.602, 44.500 139.996 C 54.072 139.184, 58.818 139.189, 62.500 140.017 C 65.250 140.635, 70.313 141.386, 73.750 141.687 C 78.765 142.125, 80 141.950, 80 140.799 C 80 139.939, 77.813 138.676, 74.534 137.642 C 71.528 136.695, 68.729 135.375, 68.314 134.710 C 66.713 132.143, 67.246 97.837, 68.929 95.114 C 69.408 94.339, 71.582 94.771, 76.059 96.530 C 88.119 101.270, 89.463 98.578, 82.596 83.431 C 76.911 70.888, 74.173 67.417, 68.736 65.856 C 63.245 64.279, 63.352 64.466, 66.415 61.801 C 68.401 60.074, 69.209 58.219, 69.656 54.367 C 70.375 48.164, 68.260 43.826, 63.393 41.516 C 59.527 39.681, 57.298 39.628, 54 41.289 M 57 42.801 C 54.425 43.194, 51 45.671, 51 47.142 C 51 48.506, 57.712 50.888, 59.925 50.309 C 62.500 49.636, 63.801 52.488, 62.135 55.155 C 61.285 56.516, 61.251 57.600, 62.012 59.023 C 63.970 62.681, 66.317 60.845, 67.405 54.803 C 68.759 47.282, 63.956 41.742, 57 42.801 M 50 50.928 C 50 51.389, 50.900 52.002, 52 52.290 C 55.074 53.094, 54.371 55, 51 55 C 47.692 55, 47.430 55.654, 49.188 59.514 C 50.121 61.561, 50.874 61.997, 52.688 61.542 C 54.711 61.034, 55 61.329, 55 63.898 C 55 66.460, 54.422 67.055, 50.467 68.566 C 46.981 69.897, 44.433 72.111, 39.438 78.149 C 35.865 82.467, 32.748 86, 32.511 86 C 32.274 86, 29.969 83.743, 27.389 80.985 C 24.809 78.226, 22.500 76.166, 22.259 76.407 C 21.368 77.299, 31.562 88.984, 33.237 88.992 C 34.193 88.996, 37.763 85.603, 41.170 81.451 C 45.351 76.357, 47.592 74.325, 48.062 75.201 C 48.445 75.916, 49.780 82.039, 51.029 88.808 C 53.074 99.892, 53.175 101.814, 52.047 108.123 C 51.359 111.976, 50.997 115.331, 51.244 115.577 C 51.490 115.824, 54.687 115.240, 58.346 114.280 L 65 112.535 65.073 108.018 C 65.113 105.533, 65.491 101.073, 65.912 98.107 L 66.678 92.714 62.812 91.107 C 60.402 90.105, 58.726 88.647, 58.361 87.234 C 58.039 85.988, 56.701 84.123, 55.388 83.090 C 52.287 80.651, 52.351 79, 55.545 79 C 57.841 79, 59.915 80.611, 63.789 85.405 C 65.670 87.732, 66.877 87.366, 67.600 84.250 C 68.513 80.316, 70.794 77, 72.588 77 C 74.105 77, 81.670 91.663, 80.669 92.664 C 80.407 92.927, 77.062 92.210, 73.238 91.071 C 65.185 88.673, 63.448 88.508, 67.092 90.489 C 70.131 92.141, 82.838 97, 84.119 97 C 85.764 97, 85.008 94.169, 80.750 84.385 C 75.598 72.547, 72.133 68.532, 66.206 67.533 C 62.492 66.907, 61.833 66.414, 61.327 63.884 C 61.005 62.275, 60.350 60.716, 59.871 60.420 C 58.674 59.681, 58.771 55.260, 60 54.500 C 61.466 53.594, 61.221 51.978, 59.705 52.560 C 58.993 52.833, 56.518 52.389, 54.205 51.572 C 51.892 50.756, 50 50.466, 50 50.928 M 16 68.678 C 16 69.820, 16.740 71.369, 17.644 72.120 C 19.116 73.341, 19.209 73.223, 18.532 70.992 C 17.466 67.481, 16 66.141, 16 68.678 M 71.137 80.744 C 70.512 81.913, 70 83.988, 70 85.357 C 70 87.323, 70.749 88.092, 73.567 89.022 C 75.529 89.670, 77.285 90.042, 77.469 89.850 C 77.654 89.657, 76.560 87.052, 75.039 84.060 C 72.455 78.977, 72.199 78.760, 71.137 80.744 M 59.500 85 C 60.353 86.650, 61.276 88, 61.551 88 C 61.826 88, 61.353 86.650, 60.500 85 C 59.647 83.350, 58.724 82, 58.449 82 C 58.174 82, 58.647 83.350, 59.500 85 M 107 118 C 107 132.667, 107.362 141, 108 141 C 108.638 141, 109 132.667, 109 118 C 109 103.333, 108.638 95, 108 95 C 107.362 95, 107 103.333, 107 118 M 26.153 102.114 C 25.279 104.477, 28.912 125, 30.204 125 C 31.675 125, 31.050 112.997, 29.414 109.834 C 27.893 106.892, 27.906 105.607, 29.494 101.750 C 30.007 100.502, 29.744 100, 28.575 100 C 27.673 100, 26.584 100.952, 26.153 102.114 M 31.005 103.991 C 30.205 105.486, 30.320 106.719, 31.470 108.941 C 32.311 110.569, 33 114.398, 33 117.450 C 33 120.894, 33.427 123, 34.125 123 C 35.504 123, 47 117.899, 47 117.287 C 47 116.097, 37.800 105.099, 35.596 103.655 C 32.418 101.572, 32.294 101.581, 31.005 103.991 M 54.500 117.436 C 50.650 118.667, 43.108 121.782, 37.741 124.358 L 27.982 129.043 29.639 131.572 C 30.627 133.080, 31.882 133.876, 32.748 133.543 C 33.547 133.237, 37.278 132.478, 41.040 131.856 C 46.769 130.910, 48.950 130.996, 54.471 132.382 C 59.144 133.556, 61.608 133.745, 62.940 133.032 C 65.266 131.787, 66.391 125.788, 65.460 119.583 C 64.660 114.244, 64.551 114.223, 54.500 117.436 M 192.713 133.456 C 188.721 140.397, 188.499 141, 189.942 141 C 190.461 141, 192.148 138.750, 193.692 136.001 C 195.237 133.252, 196.800 131.002, 197.166 131.001 C 197.532 131, 199.258 132.800, 201 135 C 202.742 137.200, 204.560 139, 205.038 139 C 205.517 139, 207.472 136.952, 209.384 134.449 L 212.859 129.897 216.180 134.410 C 218.006 136.891, 220.035 138.940, 220.688 138.961 C 221.341 138.982, 223.356 136.939, 225.164 134.421 C 228.835 129.309, 227.993 129.067, 234.053 136.974 L 236.606 140.305 240.477 135.031 L 244.348 129.758 246.424 132.611 C 247.566 134.180, 249.409 136.522, 250.520 137.816 L 252.541 140.167 255.833 135.584 C 257.643 133.063, 259.517 131, 259.997 131 C 260.477 131, 262.137 132.790, 263.685 134.979 C 265.233 137.167, 267.042 138.967, 267.704 138.979 C 268.366 138.990, 270.460 136.968, 272.357 134.484 L 275.806 129.967 279.593 135.127 L 283.381 140.288 286.676 136.394 C 288.488 134.252, 289.977 132.162, 289.985 131.750 C 290.028 129.582, 292.256 131.616, 295.165 136.479 C 296.967 139.492, 298.814 141.586, 299.269 141.131 C 300.044 140.356, 293.706 128.554, 291.923 127.452 C 291.472 127.174, 289.618 128.966, 287.802 131.434 C 285.986 133.902, 284.177 135.940, 283.782 135.961 C 283.387 135.982, 281.587 133.993, 279.782 131.539 C 277.977 129.085, 276.190 127.060, 275.812 127.039 C 275.434 127.018, 273.670 129.025, 271.893 131.500 C 270.115 133.975, 268.315 136, 267.893 136 C 267.470 136, 265.670 133.975, 263.893 131.500 C 262.115 129.025, 260.364 127, 260 127 C 259.636 127, 257.885 129.025, 256.107 131.500 C 254.330 133.975, 252.566 135.982, 252.188 135.961 C 251.810 135.940, 250.023 133.915, 248.218 131.461 C 246.413 129.007, 244.613 127.018, 244.218 127.039 C 243.823 127.060, 241.973 129.153, 240.106 131.688 L 236.712 136.298 232.523 131.470 L 228.334 126.641 224.917 131.282 C 223.038 133.834, 221.190 135.940, 220.812 135.961 C 220.434 135.982, 218.670 133.975, 216.893 131.500 C 215.115 129.025, 213.315 127, 212.893 127 C 212.470 127, 210.670 129.025, 208.893 131.500 C 207.115 133.975, 205.364 136, 205 136 C 204.636 136, 202.885 133.975, 201.107 131.500 C 199.330 129.025, 197.550 127, 197.151 127 C 196.752 127, 194.755 129.905, 192.713 133.456 M 24.105 132.373 C 23.478 133.129, 23.251 134.491, 23.600 135.401 C 24.921 138.842, 27.561 139.171, 43.479 137.875 C 55.296 136.912, 59.968 136.892, 63.676 137.787 C 66.329 138.428, 69.625 139.228, 71 139.564 C 72.660 139.971, 72.040 139.308, 69.156 137.593 C 66.489 136.007, 63.979 135.218, 62.656 135.549 C 61.470 135.846, 57.575 135.411, 54 134.583 C 47.704 133.124, 42.503 133.371, 32.838 135.589 C 30.706 136.078, 29.838 135.682, 28.473 133.600 C 26.540 130.648, 25.726 130.420, 24.105 132.373 M 17.500 139 C 16.181 139.567, 16.011 139.878, 17 139.914 C 17.825 139.945, 19.175 139.533, 20 139 C 21.828 137.819, 20.249 137.819, 17.500 139" stroke="none" fill="#fafafa" fill-rule="evenodd"/></svg>