<svg xmlns="http://www.w3.org/2000/svg" width="474" height="190" viewBox="0 0 474 190" version="1.1"><path d="M 166 37.379 C 166 38.137, 164.200 54.841, 162 74.500 C 159.800 94.159, 158.010 110.751, 158.022 111.371 C 158.035 111.992, 160.269 114.075, 162.987 116 C 165.706 117.925, 170.843 122.700, 174.403 126.610 L 180.876 133.721 180.288 144.860 L 179.700 156 182.100 155.985 C 187.325 155.951, 187.206 158.020, 185.077 104.423 C 183.857 73.724, 182.624 52.960, 181.873 50.500 C 181.201 48.300, 179.553 44.999, 178.210 43.165 C 174.171 37.648, 166 33.776, 166 37.379 M 213 37.379 C 213 38.137, 211.200 54.841, 209 74.500 C 206.800 94.159, 205.010 110.751, 205.022 111.371 C 205.035 111.992, 207.269 114.075, 209.987 116 C 212.706 117.925, 217.862 122.722, 221.447 126.659 L 227.964 133.818 227.329 144.909 L 226.694 156 229.097 155.985 C 234.326 155.951, 234.206 158.024, 232.077 104.423 C 230.857 73.724, 229.624 52.960, 228.873 50.500 C 228.201 48.300, 226.553 44.999, 225.210 43.165 C 221.171 37.648, 213 33.776, 213 37.379 M 363.935 38.569 C 361.678 40.972, 361.442 41, 343.326 41 C 331.775 41, 325 41.370, 325 42 C 325 42.631, 331.818 43, 343.455 43 C 361.547 43, 361.956 43.047, 364.284 45.375 C 366.321 47.412, 367.632 47.750, 373.500 47.750 C 379.368 47.750, 380.679 47.412, 382.716 45.375 C 385.044 43.047, 385.453 43, 403.545 43 C 415.182 43, 422 42.631, 422 42 C 422 41.370, 415.225 41, 403.674 41 C 385.618 41, 385.315 40.965, 383.092 38.598 C 381.114 36.493, 379.930 36.192, 373.527 36.167 C 367.060 36.141, 365.956 36.418, 363.935 38.569 M 168 39.532 C 168 40.375, 166.200 56.895, 164.001 76.243 C 160.234 109.370, 160.103 111.476, 161.751 112.366 C 162.713 112.885, 168.149 117.853, 173.831 123.405 L 184.162 133.500 183.556 121 C 183.222 114.125, 182.489 96.835, 181.927 82.577 C 180.683 51.019, 180.178 48.264, 174.570 42.411 C 170.195 37.846, 168 36.884, 168 39.532 M 211.337 74.175 L 207.274 110.349 218.887 121.575 C 225.274 127.750, 230.608 132.701, 230.739 132.578 C 231.424 131.939, 227.851 56.709, 226.921 52.178 C 226.083 48.098, 224.838 45.822, 221.586 42.428 C 219.252 39.993, 216.906 38, 216.372 38 C 215.836 38, 213.577 54.232, 211.337 74.175 M 366.243 39.157 C 364.203 41.197, 364.826 43.964, 367.610 45.232 C 369.860 46.257, 370.416 46.152, 371.647 44.468 C 373.766 41.570, 372.970 38.555, 369.993 38.207 C 368.614 38.046, 366.927 38.473, 366.243 39.157 M 375.190 41.742 C 375.563 46.243, 377.871 47.129, 381.020 43.980 C 383.062 41.938, 383.081 41.747, 381.426 39.919 C 380.471 38.863, 378.608 38, 377.285 38 C 375.117 38, 374.910 38.370, 375.190 41.742 M 364.770 55.966 C 363.395 57.047, 361.723 59.410, 361.053 61.216 C 360.383 63.022, 359.160 66.054, 358.336 67.954 C 357.037 70.950, 357.028 71.548, 358.273 72.458 C 359.063 73.035, 360.043 74.560, 360.451 75.845 C 360.980 77.512, 361.739 78.040, 363.096 77.685 C 366.547 76.783, 365.080 78.563, 360.565 80.756 C 357.714 82.141, 354.251 85.255, 350.871 89.474 C 347.978 93.084, 345.309 95.916, 344.940 95.769 C 342.849 94.932, 333 84.902, 333 83.608 C 333 81.580, 327.056 74.848, 325.897 75.564 C 323.906 76.794, 326.296 84.508, 329.907 88.500 C 331.896 90.700, 335.722 95.313, 338.409 98.750 C 344.962 107.132, 346.674 106.995, 353.995 97.507 C 356.369 94.429, 358.632 92.269, 359.025 92.706 C 359.933 93.717, 363 110.796, 363 114.844 C 363 116.526, 362.490 120.280, 361.867 123.186 L 360.733 128.470 358.130 124.985 C 354.112 119.608, 349.177 115.131, 344.811 112.903 C 341.129 111.025, 340.660 110.993, 338.419 112.461 C 335.380 114.453, 335.313 117.441, 338.015 130.572 C 340.132 140.860, 340.192 140.526, 335.750 143.069 C 334.788 143.620, 334 145.161, 334 146.495 C 334 148.459, 333.237 149.148, 329.988 150.122 C 325.131 151.577, 323.152 153.552, 324.848 155.248 C 325.733 156.133, 327.100 156.121, 330.552 155.197 C 335.053 153.993, 359.419 152.569, 370 152.890 C 373.025 152.983, 377.075 153.492, 379 154.023 C 380.925 154.554, 384.848 154.991, 387.719 154.994 C 391.948 154.999, 392.828 154.716, 392.362 153.500 C 392.045 152.675, 390.822 151.993, 389.643 151.984 C 385.965 151.955, 379.460 147.627, 379.805 145.438 C 379.973 144.372, 380.104 136.975, 380.097 129 C 380.089 121.025, 380.401 112.860, 380.791 110.855 L 381.500 107.211 388.500 110.053 C 397.088 113.540, 397.778 113.582, 399.091 110.700 C 399.961 108.791, 399.321 106.543, 395.319 97.452 C 389.862 85.054, 384.890 79, 380.167 79 C 376.078 79, 375.885 78.269, 379.122 75.032 C 381.649 72.505, 382 71.427, 382 66.196 C 382 60.815, 381.691 59.935, 378.810 57.119 C 374.914 53.309, 368.787 52.807, 364.770 55.966 M 365.635 58.073 C 364.186 59.212, 363 60.491, 363 60.914 C 363 61.854, 369.903 64, 372.927 64 C 374.962 64, 375.073 64.329, 374.449 68.488 C 373.898 72.168, 374.079 73.093, 375.455 73.621 C 378.020 74.605, 379.286 72.595, 379.769 66.775 C 380.162 62.038, 379.919 61.192, 377.468 58.740 C 374.110 55.383, 369.393 55.117, 365.635 58.073 M 363.834 65.062 C 366.748 66.230, 366.145 68.494, 362.912 68.519 C 360.400 68.539, 360.224 69.045, 361.461 72.693 C 361.928 74.074, 363.185 75, 364.852 75.193 C 369.432 75.724, 368.257 79.094, 362.397 82.235 C 359.030 84.039, 355.179 87.526, 351.076 92.487 L 344.857 100.005 339.797 94.468 C 337.013 91.422, 334.530 89.137, 334.278 89.389 C 333.311 90.356, 344.428 103.050, 345.785 102.529 C 346.543 102.238, 347.301 102, 347.469 102 C 347.637 102, 350.320 98.850, 353.430 95 C 356.541 91.150, 359.428 88, 359.846 88 C 360.264 88, 361.655 93.447, 362.938 100.104 C 365.199 111.840, 365.307 118.427, 363.382 127.183 L 362.792 129.867 367.555 128.433 C 370.175 127.645, 373.363 127, 374.640 127 C 377.361 127, 377.643 126.038, 378.411 114.165 L 378.950 105.830 374.985 104.165 C 372.805 103.249, 371.016 101.893, 371.010 101.151 C 371.005 100.409, 369.580 98.476, 367.846 96.856 C 365.553 94.714, 364.991 93.609, 365.790 92.810 C 367.448 91.152, 372.704 93.690, 374.736 97.130 C 376.842 100.695, 380 100.998, 380 97.635 C 380 95.178, 383.446 90, 385.081 90 C 386.398 90, 393.562 104.771, 392.675 105.658 C 392.275 106.059, 388.702 105.431, 384.737 104.263 C 372.536 100.670, 375.331 102.681, 390.750 108.588 L 397 110.983 397 108.533 C 397 107.185, 394.816 101.416, 392.146 95.713 C 387.099 84.934, 383.561 81.015, 378.846 80.985 C 375.415 80.962, 374.563 80.047, 372.810 74.500 C 371.705 71, 371.525 68.940, 372.212 67.634 C 372.959 66.216, 372.871 65.878, 371.847 66.223 C 371.106 66.473, 369.052 66.075, 367.282 65.339 C 365.512 64.602, 363.487 64.029, 362.782 64.063 C 362.077 64.098, 362.550 64.548, 363.834 65.062 M 22.533 82.250 C 24.638 89.347, 35.811 100.376, 45.657 105.075 C 69.442 116.427, 99.463 112.379, 116.776 95.486 L 123.151 89.267 124.060 91.883 C 125.834 96.993, 127.561 99.424, 130.733 101.276 C 134.698 103.592, 137.402 102.857, 138.986 99.033 C 141.165 93.773, 137.707 85.621, 131.759 81.995 C 128.615 80.077, 126.621 80.007, 75.183 80.004 L 21.865 80 22.533 82.250 M 329.015 82.691 C 329.007 83.896, 329.450 85.160, 330 85.500 C 331.273 86.287, 331.273 83.970, 330 82 C 329.212 80.781, 329.028 80.910, 329.015 82.691 M 25 82.850 C 25 84.480, 30.728 91.591, 35.243 95.565 C 55.946 113.788, 93.054 113.788, 113.757 95.565 C 118.272 91.591, 124 84.480, 124 82.850 C 124 82.382, 101.725 82, 74.500 82 C 47.275 82, 25 82.382, 25 82.850 M 126 86.982 C 126 92.909, 127.810 96.990, 131.516 99.418 C 133.535 100.741, 134.453 100.869, 135.528 99.977 C 137.968 97.952, 138.172 95.175, 136.204 90.777 C 134.106 86.087, 131.704 83.604, 128.250 82.551 C 126.120 81.902, 126 82.139, 126 86.982 M 383.035 94.934 C 381.234 98.300, 381.812 100.978, 384.565 102.025 C 389.570 103.928, 389.992 103.388, 387.716 98 C 385.407 92.536, 384.601 92.008, 383.035 94.934 M 371.670 97.766 C 371.984 99.012, 372.637 100.276, 373.121 100.575 C 374.489 101.420, 374.156 99.591, 372.550 97.441 C 371.151 95.568, 371.120 95.580, 371.670 97.766 M 419 131.500 C 419 146.500, 419.362 155, 420 155 C 420.638 155, 421 146.500, 421 131.500 C 421 116.500, 420.638 108, 420 108 C 419.362 108, 419 116.500, 419 131.500 M 339.200 114.200 C 337.628 115.772, 337.686 118.336, 339.497 127.185 C 341.829 138.583, 341.997 139.120, 343.029 138.482 C 344.719 137.437, 344.060 127.729, 341.989 123.164 C 340.461 119.799, 340.263 118.377, 341.103 116.807 C 342.400 114.384, 340.972 112.428, 339.200 114.200 M 343.469 117.267 C 343.150 118.538, 343.443 120.911, 344.121 122.539 C 344.799 124.168, 345.611 128.090, 345.926 131.255 L 346.500 137.009 352.750 134.047 C 356.188 132.418, 359 130.793, 359 130.436 C 359 129.377, 352.905 121.683, 350.099 119.201 C 345.419 115.060, 344.118 114.681, 343.469 117.267 M 365.500 131.405 C 358.896 133.589, 345.110 139.725, 342.147 141.799 C 341.067 142.554, 341.035 143.198, 341.989 144.979 C 342.993 146.856, 343.690 147.097, 346.342 146.487 C 354.703 144.566, 359.787 144.347, 366 145.644 C 374.158 147.346, 374.518 147.339, 376.429 145.429 C 377.499 144.358, 378 141.992, 378 138.010 C 378 127.895, 377.273 127.511, 365.500 131.405 M 229.655 144.356 C 229.228 149.227, 229.031 153.365, 229.218 153.552 C 229.405 153.738, 230.086 153.565, 230.731 153.166 C 231.575 152.645, 231.697 150.069, 231.167 143.971 L 230.431 135.500 229.655 144.356 M 182.587 144.807 C 181.737 153.577, 181.842 154.334, 183.750 153.154 C 184.620 152.617, 184.733 150.264, 184.168 144.459 L 183.393 136.500 182.587 144.807 M 336.407 146.513 C 335.005 152.101, 339.494 153.016, 358.500 151.020 C 366.792 150.149, 370.486 150.378, 382.500 152.510 C 385.349 153.016, 385.377 152.989, 383.054 151.981 C 381.708 151.397, 379.978 150.397, 379.209 149.758 C 378.439 149.120, 375.715 148.511, 373.155 148.405 C 370.595 148.299, 365.125 147.888, 361 147.492 C 355.398 146.954, 352.177 147.165, 348.275 148.325 L 343.049 149.878 340.956 146.939 C 338.394 143.341, 337.231 143.232, 336.407 146.513" stroke="none" fill="#1f1f1f" fill-rule="evenodd"/><path d="M 0 95.002 L 0 190.004 237.250 189.752 L 474.500 189.500 474.755 94.750 L 475.010 0 237.505 0 L 0 0 0 95.002 M 0.480 95.500 C 0.480 147.750, 0.601 169.272, 0.750 143.326 C 0.898 117.380, 0.898 74.630, 0.750 48.326 C 0.601 22.022, 0.480 43.250, 0.480 95.500 M 166 37.379 C 166 38.137, 164.200 54.841, 162 74.500 C 159.800 94.159, 158.010 110.751, 158.022 111.371 C 158.035 111.992, 160.269 114.075, 162.987 116 C 165.706 117.925, 170.843 122.700, 174.403 126.610 L 180.876 133.721 180.288 144.860 L 179.700 156 182.100 155.985 C 187.325 155.951, 187.206 158.020, 185.077 104.423 C 183.857 73.724, 182.624 52.960, 181.873 50.500 C 181.201 48.300, 179.553 44.999, 178.210 43.165 C 174.171 37.648, 166 33.776, 166 37.379 M 213 37.379 C 213 38.137, 211.200 54.841, 209 74.500 C 206.800 94.159, 205.010 110.751, 205.022 111.371 C 205.035 111.992, 207.269 114.075, 209.987 116 C 212.706 117.925, 217.862 122.722, 221.447 126.659 L 227.964 133.818 227.329 144.909 L 226.694 156 229.097 155.985 C 234.326 155.951, 234.206 158.024, 232.077 104.423 C 230.857 73.724, 229.624 52.960, 228.873 50.500 C 228.201 48.300, 226.553 44.999, 225.210 43.165 C 221.171 37.648, 213 33.776, 213 37.379 M 363.935 38.569 C 361.678 40.972, 361.442 41, 343.326 41 C 331.775 41, 325 41.370, 325 42 C 325 42.631, 331.818 43, 343.455 43 C 361.547 43, 361.956 43.047, 364.284 45.375 C 366.321 47.412, 367.632 47.750, 373.500 47.750 C 379.368 47.750, 380.679 47.412, 382.716 45.375 C 385.044 43.047, 385.453 43, 403.545 43 C 415.182 43, 422 42.631, 422 42 C 422 41.370, 415.225 41, 403.674 41 C 385.618 41, 385.315 40.965, 383.092 38.598 C 381.114 36.493, 379.930 36.192, 373.527 36.167 C 367.060 36.141, 365.956 36.418, 363.935 38.569 M 168 39.532 C 168 40.375, 166.200 56.895, 164.001 76.243 C 160.234 109.370, 160.103 111.476, 161.751 112.366 C 162.713 112.885, 168.149 117.853, 173.831 123.405 L 184.162 133.500 183.556 121 C 183.222 114.125, 182.489 96.835, 181.927 82.577 C 180.683 51.019, 180.178 48.264, 174.570 42.411 C 170.195 37.846, 168 36.884, 168 39.532 M 211.337 74.175 L 207.274 110.349 218.887 121.575 C 225.274 127.750, 230.608 132.701, 230.739 132.578 C 231.424 131.939, 227.851 56.709, 226.921 52.178 C 226.083 48.098, 224.838 45.822, 221.586 42.428 C 219.252 39.993, 216.906 38, 216.372 38 C 215.836 38, 213.577 54.232, 211.337 74.175 M 366.243 39.157 C 364.203 41.197, 364.826 43.964, 367.610 45.232 C 369.860 46.257, 370.416 46.152, 371.647 44.468 C 373.766 41.570, 372.970 38.555, 369.993 38.207 C 368.614 38.046, 366.927 38.473, 366.243 39.157 M 375.190 41.742 C 375.563 46.243, 377.871 47.129, 381.020 43.980 C 383.062 41.938, 383.081 41.747, 381.426 39.919 C 380.471 38.863, 378.608 38, 377.285 38 C 375.117 38, 374.910 38.370, 375.190 41.742 M 364.770 55.966 C 363.395 57.047, 361.723 59.410, 361.053 61.216 C 360.383 63.022, 359.160 66.054, 358.336 67.954 C 357.037 70.950, 357.028 71.548, 358.273 72.458 C 359.063 73.035, 360.043 74.560, 360.451 75.845 C 360.980 77.512, 361.739 78.040, 363.096 77.685 C 366.547 76.783, 365.080 78.563, 360.565 80.756 C 357.714 82.141, 354.251 85.255, 350.871 89.474 C 347.978 93.084, 345.309 95.916, 344.940 95.769 C 342.849 94.932, 333 84.902, 333 83.608 C 333 81.580, 327.056 74.848, 325.897 75.564 C 323.906 76.794, 326.296 84.508, 329.907 88.500 C 331.896 90.700, 335.722 95.313, 338.409 98.750 C 344.962 107.132, 346.674 106.995, 353.995 97.507 C 356.369 94.429, 358.632 92.269, 359.025 92.706 C 359.933 93.717, 363 110.796, 363 114.844 C 363 116.526, 362.490 120.280, 361.867 123.186 L 360.733 128.470 358.130 124.985 C 354.112 119.608, 349.177 115.131, 344.811 112.903 C 341.129 111.025, 340.660 110.993, 338.419 112.461 C 335.380 114.453, 335.313 117.441, 338.015 130.572 C 340.132 140.860, 340.192 140.526, 335.750 143.069 C 334.788 143.620, 334 145.161, 334 146.495 C 334 148.459, 333.237 149.148, 329.988 150.122 C 325.131 151.577, 323.152 153.552, 324.848 155.248 C 325.733 156.133, 327.100 156.121, 330.552 155.197 C 335.053 153.993, 359.419 152.569, 370 152.890 C 373.025 152.983, 377.075 153.492, 379 154.023 C 380.925 154.554, 384.848 154.991, 387.719 154.994 C 391.948 154.999, 392.828 154.716, 392.362 153.500 C 392.045 152.675, 390.822 151.993, 389.643 151.984 C 385.965 151.955, 379.460 147.627, 379.805 145.438 C 379.973 144.372, 380.104 136.975, 380.097 129 C 380.089 121.025, 380.401 112.860, 380.791 110.855 L 381.500 107.211 388.500 110.053 C 397.088 113.540, 397.778 113.582, 399.091 110.700 C 399.961 108.791, 399.321 106.543, 395.319 97.452 C 389.862 85.054, 384.890 79, 380.167 79 C 376.078 79, 375.885 78.269, 379.122 75.032 C 381.649 72.505, 382 71.427, 382 66.196 C 382 60.815, 381.691 59.935, 378.810 57.119 C 374.914 53.309, 368.787 52.807, 364.770 55.966 M 365.635 58.073 C 364.186 59.212, 363 60.491, 363 60.914 C 363 61.854, 369.903 64, 372.927 64 C 374.962 64, 375.073 64.329, 374.449 68.488 C 373.898 72.168, 374.079 73.093, 375.455 73.621 C 378.020 74.605, 379.286 72.595, 379.769 66.775 C 380.162 62.038, 379.919 61.192, 377.468 58.740 C 374.110 55.383, 369.393 55.117, 365.635 58.073 M 363.834 65.062 C 366.748 66.230, 366.145 68.494, 362.912 68.519 C 360.400 68.539, 360.224 69.045, 361.461 72.693 C 361.928 74.074, 363.185 75, 364.852 75.193 C 369.432 75.724, 368.257 79.094, 362.397 82.235 C 359.030 84.039, 355.179 87.526, 351.076 92.487 L 344.857 100.005 339.797 94.468 C 337.013 91.422, 334.530 89.137, 334.278 89.389 C 333.311 90.356, 344.428 103.050, 345.785 102.529 C 346.543 102.238, 347.301 102, 347.469 102 C 347.637 102, 350.320 98.850, 353.430 95 C 356.541 91.150, 359.428 88, 359.846 88 C 360.264 88, 361.655 93.447, 362.938 100.104 C 365.199 111.840, 365.307 118.427, 363.382 127.183 L 362.792 129.867 367.555 128.433 C 370.175 127.645, 373.363 127, 374.640 127 C 377.361 127, 377.643 126.038, 378.411 114.165 L 378.950 105.830 374.985 104.165 C 372.805 103.249, 371.016 101.893, 371.010 101.151 C 371.005 100.409, 369.580 98.476, 367.846 96.856 C 365.553 94.714, 364.991 93.609, 365.790 92.810 C 367.448 91.152, 372.704 93.690, 374.736 97.130 C 376.842 100.695, 380 100.998, 380 97.635 C 380 95.178, 383.446 90, 385.081 90 C 386.398 90, 393.562 104.771, 392.675 105.658 C 392.275 106.059, 388.702 105.431, 384.737 104.263 C 372.536 100.670, 375.331 102.681, 390.750 108.588 L 397 110.983 397 108.533 C 397 107.185, 394.816 101.416, 392.146 95.713 C 387.099 84.934, 383.561 81.015, 378.846 80.985 C 375.415 80.962, 374.563 80.047, 372.810 74.500 C 371.705 71, 371.525 68.940, 372.212 67.634 C 372.959 66.216, 372.871 65.878, 371.847 66.223 C 371.106 66.473, 369.052 66.075, 367.282 65.339 C 365.512 64.602, 363.487 64.029, 362.782 64.063 C 362.077 64.098, 362.550 64.548, 363.834 65.062 M 22.533 82.250 C 24.638 89.347, 35.811 100.376, 45.657 105.075 C 69.442 116.427, 99.463 112.379, 116.776 95.486 L 123.151 89.267 124.060 91.883 C 125.834 96.993, 127.561 99.424, 130.733 101.276 C 134.698 103.592, 137.402 102.857, 138.986 99.033 C 141.165 93.773, 137.707 85.621, 131.759 81.995 C 128.615 80.077, 126.621 80.007, 75.183 80.004 L 21.865 80 22.533 82.250 M 329.015 82.691 C 329.007 83.896, 329.450 85.160, 330 85.500 C 331.273 86.287, 331.273 83.970, 330 82 C 329.212 80.781, 329.028 80.910, 329.015 82.691 M 25 82.850 C 25 84.480, 30.728 91.591, 35.243 95.565 C 55.946 113.788, 93.054 113.788, 113.757 95.565 C 118.272 91.591, 124 84.480, 124 82.850 C 124 82.382, 101.725 82, 74.500 82 C 47.275 82, 25 82.382, 25 82.850 M 126 86.982 C 126 92.909, 127.810 96.990, 131.516 99.418 C 133.535 100.741, 134.453 100.869, 135.528 99.977 C 137.968 97.952, 138.172 95.175, 136.204 90.777 C 134.106 86.087, 131.704 83.604, 128.250 82.551 C 126.120 81.902, 126 82.139, 126 86.982 M 383.035 94.934 C 381.234 98.300, 381.812 100.978, 384.565 102.025 C 389.570 103.928, 389.992 103.388, 387.716 98 C 385.407 92.536, 384.601 92.008, 383.035 94.934 M 371.670 97.766 C 371.984 99.012, 372.637 100.276, 373.121 100.575 C 374.489 101.420, 374.156 99.591, 372.550 97.441 C 371.151 95.568, 371.120 95.580, 371.670 97.766 M 419 131.500 C 419 146.500, 419.362 155, 420 155 C 420.638 155, 421 146.500, 421 131.500 C 421 116.500, 420.638 108, 420 108 C 419.362 108, 419 116.500, 419 131.500 M 339.200 114.200 C 337.628 115.772, 337.686 118.336, 339.497 127.185 C 341.829 138.583, 341.997 139.120, 343.029 138.482 C 344.719 137.437, 344.060 127.729, 341.989 123.164 C 340.461 119.799, 340.263 118.377, 341.103 116.807 C 342.400 114.384, 340.972 112.428, 339.200 114.200 M 343.469 117.267 C 343.150 118.538, 343.443 120.911, 344.121 122.539 C 344.799 124.168, 345.611 128.090, 345.926 131.255 L 346.500 137.009 352.750 134.047 C 356.188 132.418, 359 130.793, 359 130.436 C 359 129.377, 352.905 121.683, 350.099 119.201 C 345.419 115.060, 344.118 114.681, 343.469 117.267 M 365.500 131.405 C 358.896 133.589, 345.110 139.725, 342.147 141.799 C 341.067 142.554, 341.035 143.198, 341.989 144.979 C 342.993 146.856, 343.690 147.097, 346.342 146.487 C 354.703 144.566, 359.787 144.347, 366 145.644 C 374.158 147.346, 374.518 147.339, 376.429 145.429 C 377.499 144.358, 378 141.992, 378 138.010 C 378 127.895, 377.273 127.511, 365.500 131.405 M 229.655 144.356 C 229.228 149.227, 229.031 153.365, 229.218 153.552 C 229.405 153.738, 230.086 153.565, 230.731 153.166 C 231.575 152.645, 231.697 150.069, 231.167 143.971 L 230.431 135.500 229.655 144.356 M 182.587 144.807 C 181.737 153.577, 181.842 154.334, 183.750 153.154 C 184.620 152.617, 184.733 150.264, 184.168 144.459 L 183.393 136.500 182.587 144.807 M 336.407 146.513 C 335.005 152.101, 339.494 153.016, 358.500 151.020 C 366.792 150.149, 370.486 150.378, 382.500 152.510 C 385.349 153.016, 385.377 152.989, 383.054 151.981 C 381.708 151.397, 379.978 150.397, 379.209 149.758 C 378.439 149.120, 375.715 148.511, 373.155 148.405 C 370.595 148.299, 365.125 147.888, 361 147.492 C 355.398 146.954, 352.177 147.165, 348.275 148.325 L 343.049 149.878 340.956 146.939 C 338.394 143.341, 337.231 143.232, 336.407 146.513" stroke="none" fill="#fafafa" fill-rule="evenodd"/></svg>