<svg xmlns="http://www.w3.org/2000/svg" width="926" height="1272" viewBox="0 0 926 1272" version="1.1"><path d="M 432.500 117.588 C 422.774 120.455, 406.298 122.952, 390 124.029 C 361.343 125.921, 356.055 127.761, 341.778 140.802 C 334.632 147.330, 331.888 149.138, 325.701 151.394 C 317.570 154.360, 315.665 155.959, 311.280 163.500 C 308.916 167.566, 307.230 169.063, 302.254 171.512 C 293.569 175.788, 291.437 178.182, 288.523 186.932 C 285.921 194.743, 283.311 198.407, 276.853 203.311 C 270.642 208.027, 265.108 220.164, 262.560 234.657 C 261.778 239.106, 258.680 248.936, 255.643 256.607 C 252.618 264.248, 249.443 273.200, 248.587 276.500 C 247.032 282.494, 240.535 299.507, 238.185 303.738 C 235.068 309.351, 229.603 307.522, 225.548 299.507 C 222.207 292.904, 218.199 289.524, 211.982 288.065 C 164.296 276.876, 139.485 283.375, 125.911 310.611 C 121.973 318.511, 116.562 328.443, 113.885 332.683 C 107.099 343.428, 107.500 334.402, 107.500 476.500 L 107.500 605.500 109.786 614 C 112.983 625.885, 115.820 629.607, 125.412 634.500 L 133.255 638.500 448.345 638.758 C 799.936 639.045, 770.350 639.650, 777.974 632.026 C 784.824 625.176, 784.411 634.193, 784.752 484.173 C 785.054 351.093, 785.014 347.676, 783.090 340.673 C 782.006 336.728, 780.803 331.250, 780.417 328.500 C 778.914 317.787, 775.206 311.302, 767.587 306.060 C 765.192 304.412, 760.888 300.081, 758.022 296.434 C 749.532 285.629, 740.769 283.017, 713 283.013 C 678.924 283.008, 663.276 293.588, 656.136 321.459 C 650.807 342.262, 639.159 340.153, 636.406 317.887 C 631.702 279.840, 630.895 275.917, 626.549 269.912 C 621.520 262.962, 620.064 259.002, 617.544 245.411 C 613.447 223.321, 612.864 221.853, 605.353 214.702 C 598.365 208.049, 596.190 204.161, 591.538 189.998 C 588.127 179.613, 586.451 177.659, 577.387 173.501 C 570.179 170.195, 569.230 169.292, 563.929 160.686 C 561.560 156.841, 559.810 155.360, 555.232 153.324 C 536.216 144.868, 532.572 142.717, 526.053 136.098 C 517.058 126.963, 519.848 127.602, 468.602 122.934 C 461.170 122.257, 454.226 120.974, 450.102 119.516 C 440.733 116.203, 438.155 115.921, 432.500 117.588 M 410.616 152.602 C 373.922 156.100, 370.566 157.227, 361.772 169 C 359.175 172.478, 357.059 174.017, 352.456 175.778 C 341.039 180.144, 339.173 181.362, 335.259 187 C 332.736 190.635, 329.791 193.395, 326.576 195.139 C 319.481 198.989, 316.365 202.364, 314.463 208.263 C 311.897 216.221, 308.658 221.188, 303.727 224.730 C 296.760 229.733, 292.091 242.797, 290.051 263 C 288.144 281.890, 287.182 285.891, 282.458 294.595 C 274.127 309.945, 273.337 323.253, 280.031 335.500 C 285.014 344.615, 289.335 360.723, 291.937 379.877 C 294.434 398.255, 295.591 401.044, 302.669 405.744 C 308.650 409.715, 310.942 412.943, 313.500 421 C 318.631 437.161, 322.541 441.615, 337.730 448.602 C 353.962 456.069, 353.851 455.993, 357.622 462.200 C 362.267 469.848, 365.247 471.259, 382.500 473.980 C 417.311 479.469, 419.191 479.888, 427.576 484.020 C 438.226 489.268, 441.781 489.267, 452.424 484.012 C 459.036 480.748, 463.128 479.572, 475 477.528 C 505.567 472.263, 515.313 469.239, 518.670 463.976 C 523.354 456.633, 525.508 454.718, 532.843 451.375 C 544.561 446.035, 562.542 427.491, 565.742 417.446 C 568.085 410.090, 571.084 406.364, 578 402.214 C 584.316 398.424, 587.611 386.820, 590.512 358.147 C 591.517 348.221, 593.117 338.622, 594.583 333.721 C 597.900 322.641, 597.545 316.662, 591.421 280.500 C 590.024 272.250, 588.224 261.225, 587.420 256 C 585.205 241.605, 582.508 234.407, 577.717 230.112 C 568.407 221.762, 566.128 218.953, 564.085 213.305 C 561.113 205.086, 559.663 202.799, 555.851 200.321 C 548.980 195.853, 545.795 192.537, 542.935 186.871 C 539.736 180.534, 538.334 179.532, 527.849 176.087 C 521.991 174.163, 520.380 173.025, 514.349 166.553 C 505.910 157.497, 503.121 156.500, 480.500 154.453 C 471.700 153.657, 458.824 152.329, 451.888 151.503 C 444.951 150.676, 438.426 150.052, 437.388 150.115 C 436.349 150.178, 424.302 151.297, 410.616 152.602 M 167 316.084 C 159.372 317.392, 156.908 319.522, 154.264 327.095 C 153.034 330.618, 150.109 337.286, 147.764 341.913 L 143.500 350.325 143.500 466.413 C 143.500 602.426, 143.175 598.497, 155.003 605.446 L 158.500 607.500 450 607.500 C 730.889 607.500, 741.598 607.433, 744.198 605.669 C 750.811 601.181, 750.500 607.899, 750.500 469.500 L 750.500 344.500 747.245 334.882 C 736.291 302.511, 691.109 309.625, 682.987 345 C 681.040 353.481, 678.309 358.426, 673.189 362.743 C 667.935 367.174, 668.291 366.561, 660.371 384.805 C 654.982 397.220, 654.179 398.477, 648.373 403.574 C 643.102 408.202, 641.833 409.989, 640.072 415.268 C 634.725 431.302, 632.137 432.377, 606 429.425 C 598.941 428.627, 595.984 430.752, 592.987 438.773 C 589.717 447.524, 587.521 450.403, 581.775 453.473 C 574.646 457.282, 573.198 458.671, 570.284 464.500 C 566.555 471.960, 563.529 474.604, 555.271 477.616 C 549.689 479.652, 547.152 481.203, 545.159 483.799 C 538.078 493.026, 537.129 493.742, 526.566 497.836 C 520.848 500.052, 512.887 502.842, 508.876 504.037 C 504.864 505.232, 499.003 507.961, 495.850 510.102 C 487.653 515.668, 448.466 523.161, 436.195 521.508 C 434.163 521.235, 426.650 520.298, 419.500 519.428 C 389.468 515.772, 377.921 512.661, 363.931 504.459 C 359.756 502.012, 353.700 499.101, 350.473 497.991 C 342.299 495.178, 340.428 493.729, 336.895 487.468 C 333.954 482.257, 329.851 478, 327.769 478 C 320.488 478, 310.907 471.930, 306.608 464.593 C 304.885 461.654, 301.991 458.963, 297.568 456.190 C 292.501 453.013, 290.446 450.968, 288.281 446.943 C 284.042 439.065, 281.051 435.913, 275.478 433.448 C 268.501 430.362, 264.398 426.674, 260.750 420.211 C 258.841 416.829, 255.512 413.066, 252.052 410.379 C 245.404 405.216, 243.736 402.633, 241.515 394.060 C 239.304 385.525, 237.264 381.860, 230.070 373.500 C 223.449 365.806, 218.880 357.322, 217.017 349.262 C 215.529 342.824, 213.305 339.900, 206.653 335.630 C 202.773 333.140, 200.635 330.762, 198 326.002 C 192.174 315.480, 184.619 313.063, 167 316.084 M 741.212 688.072 C 733.331 690.481, 734.008 672.270, 734.004 882.066 C 734 1093.532, 733.597 1083.845, 742.534 1087.579 C 754.997 1092.786, 765.364 1088.153, 770.338 1075.151 L 772.500 1069.500 772.766 892.536 C 773.070 690.478, 773.261 695.149, 764.457 689.380 C 761.263 687.287, 746.497 686.456, 741.212 688.072 M 294.500 881.119 C 290.594 882.353, 268.366 885.641, 255 886.962 C 232.217 889.215, 223.491 892.066, 217.940 899.076 C 215.439 902.233, 212.401 904.272, 205.247 907.592 C 193.927 912.846, 189.818 915.879, 180 926.225 C 175.875 930.572, 169.362 936.237, 165.526 938.815 C 157.403 944.274, 153.014 950.847, 147.839 965.303 C 144.618 974.303, 144.149 974.891, 135.286 981.038 C 128.873 985.486, 126.129 994.474, 123.547 1019.500 C 122.582 1028.850, 118.972 1044.844, 116.211 1052 C 107.294 1075.107, 113.767 1093.010, 134.506 1102.607 L 139.512 1104.923 313.597 1105.042 C 507.702 1105.174, 491.494 1105.771, 499.332 1098.201 C 506.440 1091.337, 507.618 1086.102, 503.879 1078 C 499.229 1067.925, 496.421 1055.098, 494.029 1033 C 492.398 1017.938, 491.456 1015.091, 485.979 1008.672 C 481.345 1003.242, 479.992 1000.277, 478.348 991.946 C 477.027 985.250, 474.691 981.438, 467.053 973.512 C 457.816 963.928, 455.975 960.992, 452.565 950.417 C 449.481 940.853, 447.274 938.505, 437.622 934.511 C 432.288 932.305, 430.154 930.788, 428.122 927.758 C 421.157 917.375, 415.281 913.357, 397 906.478 C 390.865 904.170, 388.590 902.661, 384.500 898.189 C 377.574 890.614, 370.200 888.283, 347.500 886.491 C 334.838 885.491, 316.132 883.009, 309.542 881.455 C 302.689 879.838, 298.829 879.752, 294.500 881.119 M 286.500 914.082 C 250.575 916.695, 247.800 917.355, 239.055 925.381 C 234.043 929.980, 228.785 933.397, 219.359 938.178 C 209.674 943.091, 206.006 945.494, 204.500 947.913 C 199.441 956.038, 195.943 959.817, 189.732 963.866 C 183.819 967.720, 182.670 969.008, 179.916 974.866 C 174.581 986.214, 167.308 997.418, 163.060 1000.832 C 152.754 1009.114, 146.265 1059.404, 154.405 1067.901 C 159.516 1073.236, 156.629 1073.142, 306.500 1072.809 L 445.500 1072.500 450.256 1070.137 C 459.931 1065.330, 461.330 1061.771, 457.521 1051.653 C 456.001 1047.613, 454.256 1039.173, 453.008 1029.817 C 449.164 1001.007, 444.903 989.076, 437 985 C 432.072 982.458, 429.479 979.345, 427.007 973 C 423.795 964.758, 422.647 963.449, 415.203 959.537 C 410.037 956.823, 407.773 954.931, 405.934 951.794 C 401.671 944.523, 398.010 941.432, 392 940.029 C 382.876 937.901, 376.258 934.163, 368.091 926.525 C 360.119 919.069, 357.168 917.567, 348.500 916.554 C 342.859 915.894, 298.969 912.923, 298.077 913.141 C 297.760 913.218, 292.550 913.642, 286.500 914.082" stroke="none" fill="#666666" fill-rule="evenodd"/><path d="M 38.500 29.500 C 33.630 31.226, 30.412 34.755, 29.031 39.885 C 28.318 42.532, 28.073 229.884, 28.247 638.119 L 28.500 1232.500 30.535 1235.965 C 31.655 1237.870, 34.130 1240.345, 36.035 1241.465 L 39.500 1243.500 463 1243.500 L 886.500 1243.500 889.965 1241.465 C 891.870 1240.345, 894.345 1237.870, 895.465 1235.965 L 897.500 1232.500 897.500 636 L 897.500 39.500 895.465 36.035 C 894.345 34.130, 891.870 31.655, 889.965 30.535 L 886.500 28.500 464.500 28.291 C 102.459 28.113, 41.932 28.284, 38.500 29.500 M 432.500 117.588 C 422.774 120.455, 406.298 122.952, 390 124.029 C 361.343 125.921, 356.055 127.761, 341.778 140.802 C 334.632 147.330, 331.888 149.138, 325.701 151.394 C 317.570 154.360, 315.665 155.959, 311.280 163.500 C 308.916 167.566, 307.230 169.063, 302.254 171.512 C 293.569 175.788, 291.437 178.182, 288.523 186.932 C 285.921 194.743, 283.311 198.407, 276.853 203.311 C 270.642 208.027, 265.108 220.164, 262.560 234.657 C 261.778 239.106, 258.680 248.936, 255.643 256.607 C 252.618 264.248, 249.443 273.200, 248.587 276.500 C 247.032 282.494, 240.535 299.507, 238.185 303.738 C 235.068 309.351, 229.603 307.522, 225.548 299.507 C 222.207 292.904, 218.199 289.524, 211.982 288.065 C 164.296 276.876, 139.485 283.375, 125.911 310.611 C 121.973 318.511, 116.562 328.443, 113.885 332.683 C 107.099 343.428, 107.500 334.402, 107.500 476.500 L 107.500 605.500 109.786 614 C 112.983 625.885, 115.820 629.607, 125.412 634.500 L 133.255 638.500 448.345 638.758 C 799.936 639.045, 770.350 639.650, 777.974 632.026 C 784.824 625.176, 784.411 634.193, 784.752 484.173 C 785.054 351.093, 785.014 347.676, 783.090 340.673 C 782.006 336.728, 780.803 331.250, 780.417 328.500 C 778.914 317.787, 775.206 311.302, 767.587 306.060 C 765.192 304.412, 760.888 300.081, 758.022 296.434 C 749.532 285.629, 740.769 283.017, 713 283.013 C 678.924 283.008, 663.276 293.588, 656.136 321.459 C 650.807 342.262, 639.159 340.153, 636.406 317.887 C 631.702 279.840, 630.895 275.917, 626.549 269.912 C 621.520 262.962, 620.064 259.002, 617.544 245.411 C 613.447 223.321, 612.864 221.853, 605.353 214.702 C 598.365 208.049, 596.190 204.161, 591.538 189.998 C 588.127 179.613, 586.451 177.659, 577.387 173.501 C 570.179 170.195, 569.230 169.292, 563.929 160.686 C 561.560 156.841, 559.810 155.360, 555.232 153.324 C 536.216 144.868, 532.572 142.717, 526.053 136.098 C 517.058 126.963, 519.848 127.602, 468.602 122.934 C 461.170 122.257, 454.226 120.974, 450.102 119.516 C 440.733 116.203, 438.155 115.921, 432.500 117.588 M 410.616 152.602 C 373.922 156.100, 370.566 157.227, 361.772 169 C 359.175 172.478, 357.059 174.017, 352.456 175.778 C 341.039 180.144, 339.173 181.362, 335.259 187 C 332.736 190.635, 329.791 193.395, 326.576 195.139 C 319.481 198.989, 316.365 202.364, 314.463 208.263 C 311.897 216.221, 308.658 221.188, 303.727 224.730 C 296.760 229.733, 292.091 242.797, 290.051 263 C 288.144 281.890, 287.182 285.891, 282.458 294.595 C 274.127 309.945, 273.337 323.253, 280.031 335.500 C 285.014 344.615, 289.335 360.723, 291.937 379.877 C 294.434 398.255, 295.591 401.044, 302.669 405.744 C 308.650 409.715, 310.942 412.943, 313.500 421 C 318.631 437.161, 322.541 441.615, 337.730 448.602 C 353.962 456.069, 353.851 455.993, 357.622 462.200 C 362.267 469.848, 365.247 471.259, 382.500 473.980 C 417.311 479.469, 419.191 479.888, 427.576 484.020 C 438.226 489.268, 441.781 489.267, 452.424 484.012 C 459.036 480.748, 463.128 479.572, 475 477.528 C 505.567 472.263, 515.313 469.239, 518.670 463.976 C 523.354 456.633, 525.508 454.718, 532.843 451.375 C 544.561 446.035, 562.542 427.491, 565.742 417.446 C 568.085 410.090, 571.084 406.364, 578 402.214 C 584.316 398.424, 587.611 386.820, 590.512 358.147 C 591.517 348.221, 593.117 338.622, 594.583 333.721 C 597.900 322.641, 597.545 316.662, 591.421 280.500 C 590.024 272.250, 588.224 261.225, 587.420 256 C 585.205 241.605, 582.508 234.407, 577.717 230.112 C 568.407 221.762, 566.128 218.953, 564.085 213.305 C 561.113 205.086, 559.663 202.799, 555.851 200.321 C 548.980 195.853, 545.795 192.537, 542.935 186.871 C 539.736 180.534, 538.334 179.532, 527.849 176.087 C 521.991 174.163, 520.380 173.025, 514.349 166.553 C 505.910 157.497, 503.121 156.500, 480.500 154.453 C 471.700 153.657, 458.824 152.329, 451.888 151.503 C 444.951 150.676, 438.426 150.052, 437.388 150.115 C 436.349 150.178, 424.302 151.297, 410.616 152.602 M 167 316.084 C 159.372 317.392, 156.908 319.522, 154.264 327.095 C 153.034 330.618, 150.109 337.286, 147.764 341.913 L 143.500 350.325 143.500 466.413 C 143.500 602.426, 143.175 598.497, 155.003 605.446 L 158.500 607.500 450 607.500 C 730.889 607.500, 741.598 607.433, 744.198 605.669 C 750.811 601.181, 750.500 607.899, 750.500 469.500 L 750.500 344.500 747.245 334.882 C 736.291 302.511, 691.109 309.625, 682.987 345 C 681.040 353.481, 678.309 358.426, 673.189 362.743 C 667.935 367.174, 668.291 366.561, 660.371 384.805 C 654.982 397.220, 654.179 398.477, 648.373 403.574 C 643.102 408.202, 641.833 409.989, 640.072 415.268 C 634.725 431.302, 632.137 432.377, 606 429.425 C 598.941 428.627, 595.984 430.752, 592.987 438.773 C 589.717 447.524, 587.521 450.403, 581.775 453.473 C 574.646 457.282, 573.198 458.671, 570.284 464.500 C 566.555 471.960, 563.529 474.604, 555.271 477.616 C 549.689 479.652, 547.152 481.203, 545.159 483.799 C 538.078 493.026, 537.129 493.742, 526.566 497.836 C 520.848 500.052, 512.887 502.842, 508.876 504.037 C 504.864 505.232, 499.003 507.961, 495.850 510.102 C 487.653 515.668, 448.466 523.161, 436.195 521.508 C 434.163 521.235, 426.650 520.298, 419.500 519.428 C 389.468 515.772, 377.921 512.661, 363.931 504.459 C 359.756 502.012, 353.700 499.101, 350.473 497.991 C 342.299 495.178, 340.428 493.729, 336.895 487.468 C 333.954 482.257, 329.851 478, 327.769 478 C 320.488 478, 310.907 471.930, 306.608 464.593 C 304.885 461.654, 301.991 458.963, 297.568 456.190 C 292.501 453.013, 290.446 450.968, 288.281 446.943 C 284.042 439.065, 281.051 435.913, 275.478 433.448 C 268.501 430.362, 264.398 426.674, 260.750 420.211 C 258.841 416.829, 255.512 413.066, 252.052 410.379 C 245.404 405.216, 243.736 402.633, 241.515 394.060 C 239.304 385.525, 237.264 381.860, 230.070 373.500 C 223.449 365.806, 218.880 357.322, 217.017 349.262 C 215.529 342.824, 213.305 339.900, 206.653 335.630 C 202.773 333.140, 200.635 330.762, 198 326.002 C 192.174 315.480, 184.619 313.063, 167 316.084 M 741.212 688.072 C 733.331 690.481, 734.008 672.270, 734.004 882.066 C 734 1093.532, 733.597 1083.845, 742.534 1087.579 C 754.997 1092.786, 765.364 1088.153, 770.338 1075.151 L 772.500 1069.500 772.766 892.536 C 773.070 690.478, 773.261 695.149, 764.457 689.380 C 761.263 687.287, 746.497 686.456, 741.212 688.072 M 294.500 881.119 C 290.594 882.353, 268.366 885.641, 255 886.962 C 232.217 889.215, 223.491 892.066, 217.940 899.076 C 215.439 902.233, 212.401 904.272, 205.247 907.592 C 193.927 912.846, 189.818 915.879, 180 926.225 C 175.875 930.572, 169.362 936.237, 165.526 938.815 C 157.403 944.274, 153.014 950.847, 147.839 965.303 C 144.618 974.303, 144.149 974.891, 135.286 981.038 C 128.873 985.486, 126.129 994.474, 123.547 1019.500 C 122.582 1028.850, 118.972 1044.844, 116.211 1052 C 107.294 1075.107, 113.767 1093.010, 134.506 1102.607 L 139.512 1104.923 313.597 1105.042 C 507.702 1105.174, 491.494 1105.771, 499.332 1098.201 C 506.440 1091.337, 507.618 1086.102, 503.879 1078 C 499.229 1067.925, 496.421 1055.098, 494.029 1033 C 492.398 1017.938, 491.456 1015.091, 485.979 1008.672 C 481.345 1003.242, 479.992 1000.277, 478.348 991.946 C 477.027 985.250, 474.691 981.438, 467.053 973.512 C 457.816 963.928, 455.975 960.992, 452.565 950.417 C 449.481 940.853, 447.274 938.505, 437.622 934.511 C 432.288 932.305, 430.154 930.788, 428.122 927.758 C 421.157 917.375, 415.281 913.357, 397 906.478 C 390.865 904.170, 388.590 902.661, 384.500 898.189 C 377.574 890.614, 370.200 888.283, 347.500 886.491 C 334.838 885.491, 316.132 883.009, 309.542 881.455 C 302.689 879.838, 298.829 879.752, 294.500 881.119 M 286.500 914.082 C 250.575 916.695, 247.800 917.355, 239.055 925.381 C 234.043 929.980, 228.785 933.397, 219.359 938.178 C 209.674 943.091, 206.006 945.494, 204.500 947.913 C 199.441 956.038, 195.943 959.817, 189.732 963.866 C 183.819 967.720, 182.670 969.008, 179.916 974.866 C 174.581 986.214, 167.308 997.418, 163.060 1000.832 C 152.754 1009.114, 146.265 1059.404, 154.405 1067.901 C 159.516 1073.236, 156.629 1073.142, 306.500 1072.809 L 445.500 1072.500 450.256 1070.137 C 459.931 1065.330, 461.330 1061.771, 457.521 1051.653 C 456.001 1047.613, 454.256 1039.173, 453.008 1029.817 C 449.164 1001.007, 444.903 989.076, 437 985 C 432.072 982.458, 429.479 979.345, 427.007 973 C 423.795 964.758, 422.647 963.449, 415.203 959.537 C 410.037 956.823, 407.773 954.931, 405.934 951.794 C 401.671 944.523, 398.010 941.432, 392 940.029 C 382.876 937.901, 376.258 934.163, 368.091 926.525 C 360.119 919.069, 357.168 917.567, 348.500 916.554 C 342.859 915.894, 298.969 912.923, 298.077 913.141 C 297.760 913.218, 292.550 913.642, 286.500 914.082" stroke="none" fill="#f3f3f3" fill-rule="evenodd"/></svg>