<svg xmlns="http://www.w3.org/2000/svg" width="1272" height="666" viewBox="0 0 1272 666" version="1.1"><path d="M 239 111.144 C 234.325 111.505, 218.744 111.846, 204.376 111.901 L 178.251 112 173.879 113.543 C 168.433 115.464, 163.398 120.243, 161.882 124.928 C 161.247 126.893, 159.701 130.548, 158.447 133.051 L 156.168 137.603 153.334 138.989 L 150.500 140.375 128.500 141.062 L 106.500 141.750 99 144.396 C 94.875 145.851, 89.700 148.054, 87.500 149.290 L 83.500 151.539 77.274 159.783 L 71.048 168.028 69.396 173.709 L 67.745 179.390 68.233 187.953 L 68.721 196.517 71.254 201.508 C 72.647 204.254, 75.821 209.262, 78.308 212.637 L 82.830 218.774 88.412 221.415 C 91.482 222.868, 98.133 225.131, 103.192 226.445 L 112.389 228.834 116.817 233.455 C 119.253 235.996, 122.653 238.846, 124.373 239.788 L 127.500 241.500 248 241.500 L 368.500 241.500 376.075 238.750 C 380.242 237.237, 388.567 235.115, 394.575 234.033 C 400.584 232.950, 410 230.524, 415.500 228.640 C 421 226.757, 428.200 224.605, 431.500 223.858 L 437.500 222.500 466.500 222.528 L 495.500 222.556 505.314 224.382 L 515.128 226.208 519.606 225.536 L 524.084 224.865 527.709 221.682 L 531.334 218.500 533.240 214.191 L 535.146 209.882 535.642 184.191 L 536.137 158.500 533.819 154.559 L 531.500 150.617 526.529 148.059 L 521.557 145.500 490.029 144.838 L 458.500 144.175 453.500 143.126 C 450.750 142.548, 445.350 141.150, 441.500 140.019 C 437.650 138.888, 429.325 137.035, 423 135.902 L 411.500 133.842 401.712 129.914 C 396.328 127.753, 387.103 124.854, 381.212 123.470 C 375.320 122.086, 366.675 119.604, 362 117.954 C 357.325 116.304, 350.350 114.259, 346.500 113.410 L 339.500 111.865 311.500 111.426 C 254.312 110.527, 247.313 110.500, 239 111.144 M 263.500 129.461 C 261.707 130.294, 222.857 133.310, 208.500 133.730 L 194.500 134.140 193.573 135.047 L 192.646 135.954 196.445 137.541 L 200.244 139.129 207.372 138.997 C 211.292 138.924, 234.075 139.305, 258 139.843 L 301.500 140.821 307.932 142.441 C 318.336 145.062, 324 149.513, 324 155.068 L 324 157.690 322.250 159.246 C 321.288 160.101, 318.721 161.285, 316.548 161.876 L 312.595 162.951 297.048 161.866 L 281.500 160.781 234 161.480 C 207.875 161.865, 183.125 162.242, 179 162.319 C 174.875 162.396, 159.640 161.922, 145.144 161.266 L 118.788 160.072 111.896 161.522 C 103.513 163.285, 98.700 165.228, 94.185 168.672 L 90.762 171.283 88.769 175.788 L 86.777 180.293 87.210 185.520 L 87.644 190.746 91.277 195.696 L 94.910 200.646 103.090 205.049 L 111.270 209.451 115.144 214.695 C 117.275 217.580, 119.885 220.403, 120.943 220.970 L 122.869 222 242.184 221.983 L 361.500 221.965 368.500 220.414 C 372.350 219.561, 381.743 217.556, 389.373 215.958 L 403.246 213.052 408.637 210.010 C 411.602 208.336, 416.533 206.315, 419.595 205.517 L 425.162 204.067 443.812 203.009 L 462.463 201.950 484.220 203.101 L 505.977 204.252 509.035 202.985 L 512.094 201.718 513.419 199.109 L 514.743 196.500 515.376 187.500 L 516.009 178.500 515.074 174.593 L 514.140 170.685 511.591 168.136 L 509.042 165.588 479.771 164.323 L 450.500 163.058 441 160.646 C 417.254 154.618, 400.910 149.932, 394 147.171 C 389.875 145.523, 381.987 143.232, 376.470 142.081 C 364.504 139.582, 362.592 139.037, 353.500 135.524 C 349.650 134.037, 343.125 132.187, 339 131.412 L 331.500 130.005 298 129.500 C 279.575 129.223, 264.050 129.205, 263.500 129.461 M 979.862 225.018 C 978.961 225.544, 977.929 227.148, 977.569 228.583 L 976.914 231.192 978.542 236.794 C 980.388 243.143, 984.596 251.596, 988.850 257.500 C 990.435 259.700, 994.283 266.057, 997.402 271.627 L 1003.072 281.755 1004.165 288.127 L 1005.259 294.500 1005.379 330.500 L 1005.500 366.500 1003.870 370.085 L 1002.240 373.669 997.870 377.214 C 992.107 381.889, 986.975 384.339, 978.664 386.384 C 974.904 387.309, 967.553 389.892, 962.328 392.124 L 952.828 396.183 948.638 396.247 C 943.497 396.324, 940.207 394.674, 938.959 391.391 L 938.013 388.904 939.386 385.619 C 940.141 383.812, 942.800 379.560, 945.295 376.171 L 949.832 370.008 953.619 358.754 L 957.407 347.500 957.343 342 L 957.280 336.500 955.008 328 C 953.759 323.325, 951.802 317.793, 950.659 315.706 L 948.582 311.912 944.146 308.974 C 941.707 307.358, 937.188 305.083, 934.105 303.920 L 928.500 301.804 923.366 302.318 L 918.232 302.832 912.719 305.440 L 907.205 308.048 903.262 312.274 C 901.093 314.598, 896.770 319.243, 893.655 322.595 L 887.991 328.690 878.745 333.809 L 869.500 338.928 858.681 341.483 C 852.730 342.887, 845.755 345.089, 843.181 346.375 C 840.606 347.661, 834.077 350.413, 828.671 352.490 L 818.842 356.268 813.007 360.654 C 804.407 367.119, 801.249 371.226, 795.467 383.469 L 790.256 394.500 787.788 396.774 C 786.431 398.025, 783.870 399.464, 782.097 399.972 L 778.873 400.897 766.686 398.930 L 754.500 396.964 743 393.043 C 736.675 390.887, 726.405 388.172, 720.179 387.010 C 713.952 385.848, 705.313 383.590, 700.982 381.993 C 696.650 380.396, 688.200 377.984, 682.204 376.634 L 671.303 374.178 664.064 370.532 C 660.083 368.527, 653.377 365.612, 649.163 364.054 C 644.948 362.496, 638.575 359.953, 635 358.403 L 628.500 355.585 622 355.554 L 615.500 355.522 612.454 357.356 C 608.332 359.838, 605.311 364.498, 603.929 370.505 L 602.780 375.500 603.916 379.705 C 604.541 382.017, 606.228 385.307, 607.666 387.015 L 610.279 390.120 622.889 396.107 C 629.825 399.400, 638.649 403.038, 642.500 404.192 C 646.350 405.347, 652.650 407.868, 656.500 409.795 C 660.350 411.722, 668.675 414.992, 675 417.062 C 681.325 419.131, 690.100 422.194, 694.500 423.867 C 698.900 425.541, 705.650 427.865, 709.500 429.032 C 713.350 430.200, 718.657 432.529, 721.292 434.209 L 726.084 437.263 727.706 440.381 L 729.327 443.500 729.098 463.513 L 728.869 483.526 729.998 486.513 C 730.619 488.156, 732.291 490.720, 733.714 492.212 L 736.301 494.924 741.401 496.019 L 746.500 497.115 885 496.807 L 1023.500 496.500 1026.895 494.500 C 1028.763 493.400, 1031.238 491.230, 1032.395 489.677 L 1034.500 486.853 1034.500 467.650 L 1034.500 448.447 1031.956 443.504 L 1029.413 438.561 1026.456 436.842 L 1023.500 435.123 1014.088 433.614 L 1004.676 432.105 1003.248 430.676 L 1001.819 429.248 1005.986 425.374 C 1011.335 420.401, 1016.243 417.423, 1022.500 415.355 C 1026.736 413.955, 1039.714 407.531, 1058.899 397.337 L 1063.298 395 1066.536 395 L 1069.774 395 1074.614 398.250 L 1079.455 401.500 1082.225 407 L 1084.996 412.500 1087.026 425 L 1089.056 437.500 1093.170 448.840 L 1097.284 460.180 1101.555 465.840 C 1113.813 482.087, 1130.808 494.002, 1141.718 493.998 L 1146.500 493.997 1150 492.248 L 1153.500 490.500 1155.248 487 L 1156.997 483.500 1156.998 478.315 C 1157.004 459.793, 1146.766 435.224, 1132.966 420.646 L 1124.949 412.176 1116.225 407.653 L 1107.500 403.130 1102.897 398.315 C 1100.365 395.667, 1097.552 392.387, 1096.647 391.027 L 1095 388.555 1095.007 385.027 L 1095.013 381.500 1096.778 378.823 C 1099.123 375.269, 1102.103 373.054, 1110.500 368.626 C 1114.350 366.596, 1120.936 362.498, 1125.136 359.519 L 1132.772 354.103 1134.886 349.736 L 1137 345.369 1136.990 340.434 L 1136.980 335.500 1134.606 330.401 L 1132.231 325.301 1129.264 323.188 C 1127.632 322.026, 1124.316 320.631, 1121.895 320.088 L 1117.493 319.102 1113.056 320.099 L 1108.620 321.095 1102.560 325.367 C 1094.936 330.741, 1080.557 338.476, 1075.697 339.818 L 1072 340.839 1068.706 339.929 L 1065.411 339.020 1062.143 335.647 C 1060.345 333.793, 1057.215 329.561, 1055.187 326.243 C 1053.159 322.925, 1049.887 317.801, 1047.915 314.855 C 1040.003 303.036, 1035.138 293.976, 1031.080 283.499 L 1026.820 272.500 1025.853 263 C 1025.321 257.775, 1024.433 251.155, 1023.880 248.288 L 1022.874 243.076 1019.904 239.898 L 1016.935 236.719 1009.951 237.368 L 1002.968 238.017 996.482 231.983 C 988.310 224.380, 984.026 222.585, 979.862 225.018 M 917.400 326.870 C 915.255 328.448, 910.350 333.063, 906.500 337.124 L 899.500 344.509 889.039 350.418 L 878.578 356.326 869.055 358.685 L 859.533 361.044 850.017 365.416 C 844.782 367.820, 838.458 370.535, 835.963 371.448 C 830.157 373.573, 820.552 380.748, 817.193 385.469 L 814.586 389.132 814.177 395.564 L 813.767 401.996 815.381 404.459 L 816.995 406.921 821.247 408.210 L 825.500 409.498 863.500 409.499 L 901.500 409.500 906.500 407 L 911.500 404.500 913.412 400.583 L 915.324 396.666 916.172 386.583 C 916.638 381.037, 917.513 374.999, 918.116 373.164 L 919.212 369.828 926.099 363.194 L 932.987 356.560 935.129 352.030 L 937.271 347.500 937.324 341 L 937.376 334.500 935.553 330.706 L 933.730 326.912 930.915 325.456 C 929.366 324.655, 926.569 324, 924.700 324 L 921.300 324 917.400 326.870 M 1027.273 333.706 L 1025.500 336.412 1025.500 345.125 L 1025.500 353.839 1028 356.514 L 1030.500 359.190 1034.868 358.705 L 1039.235 358.219 1041.818 355.637 L 1044.400 353.055 1044.400 349.767 L 1044.400 346.479 1040.202 340.298 C 1033.713 330.742, 1030.341 329.023, 1027.273 333.706 M 85.461 409.961 C 76.758 411.290, 72.554 414.299, 69.288 421.537 L 67.500 425.500 67.210 504.899 L 66.920 584.299 68.033 589.659 L 69.146 595.020 71.692 598.046 C 73.092 599.710, 75.647 601.843, 77.369 602.786 L 80.500 604.500 140.866 604.787 L 201.233 605.074 206.550 603.529 C 209.474 602.678, 213.215 600.849, 214.862 599.463 L 217.856 596.943 219.459 592.722 L 221.061 588.500 220.781 504.323 L 220.500 420.146 218.448 417.323 C 217.319 415.770, 214.169 413.375, 211.448 412 L 206.500 409.500 148.500 409.346 C 116.600 409.261, 88.233 409.538, 85.461 409.961 M 94.374 429.114 L 90.248 430.069 88.374 432.139 L 86.500 434.209 86.241 504.355 L 85.981 574.500 87.741 577.999 L 89.500 581.498 92.500 582.999 L 95.500 584.500 143 584.500 L 190.500 584.500 194.325 582.601 C 196.429 581.556, 198.904 579.551, 199.825 578.145 L 201.500 575.590 201.777 507.326 L 202.053 439.063 200.563 435.496 L 199.072 431.928 195.286 430.214 L 191.500 428.500 145 428.330 L 98.500 428.160 94.374 429.114 M 813 454.103 L 803.500 455.032 781.343 454.408 L 759.186 453.783 755.495 455.002 L 751.804 456.220 749.924 460.360 C 747.648 465.372, 747.511 469.155, 749.470 472.941 L 750.939 475.783 754.119 476.892 L 757.298 478 882.199 478 L 1007.099 478 1010.020 476.490 C 1013.645 474.615, 1015 472.177, 1015 467.526 L 1015 463.920 1012.997 459.994 C 1011.895 457.834, 1009.982 455.489, 1008.747 454.783 L 1006.500 453.500 970 454 C 949.925 454.275, 927.425 454.432, 920 454.349 C 912.575 454.267, 887.600 453.968, 864.500 453.686 L 822.500 453.174 813 454.103 M 385.500 478.039 C 373.208 479.914, 362.274 485.112, 342.631 498.419 L 330.762 506.459 326.528 511.480 C 320.555 518.561, 309.722 536.232, 303.968 548.278 L 299.085 558.500 297.436 568 L 295.787 577.500 296.243 584.008 L 296.698 590.516 298.334 593.679 C 300.536 597.938, 304.610 600.663, 311.430 602.440 L 317.105 603.918 417.430 604.048 L 517.756 604.178 520.868 602.568 C 522.580 601.683, 524.747 599.790, 525.683 598.361 L 527.385 595.764 527.383 591.132 L 527.380 586.500 524.651 580.544 L 521.922 574.588 520.349 564.544 C 517.974 549.376, 508.038 530.664, 491.908 510.985 L 488.207 506.470 476.854 498.858 C 463.154 489.673, 447.226 481.540, 438.741 479.396 L 432.500 477.819 412 477.471 L 391.500 477.124 385.500 478.039 M 387.197 497.116 L 381.895 497.999 370.197 504.283 L 358.500 510.567 349.640 517.521 L 340.780 524.475 334.443 532.685 C 326.752 542.649, 325.973 544.118, 320.961 558.109 L 317 569.166 317 573.129 L 317 577.091 319.385 579.476 C 320.697 580.788, 323.595 582.352, 325.826 582.953 L 329.881 584.045 412.422 583.773 L 494.962 583.500 498.196 580.266 L 501.429 577.032 501.448 571.266 C 501.458 568.095, 501.111 563.379, 500.677 560.786 L 499.888 556.071 491.450 543.396 C 480.278 526.613, 476.752 522.455, 470.088 518.201 C 467.015 516.239, 462.320 512.915, 459.657 510.814 C 456.993 508.713, 450.693 504.976, 445.657 502.509 L 436.500 498.024 430 497.020 C 422.209 495.816, 394.640 495.878, 387.197 497.116" stroke="none" fill="#7a7a7a" fill-rule="evenodd"/><path d="M 38.500 29.501 C 33.627 31.227, 30.412 34.755, 29.028 39.898 L 27.987 43.764 28.243 335.132 L 28.500 626.500 30.535 629.965 C 31.655 631.870, 34.130 634.345, 36.035 635.465 L 39.500 637.500 636 637.500 L 1232.500 637.500 1235.965 635.465 C 1237.870 634.345, 1240.345 631.870, 1241.465 629.965 L 1243.500 626.500 1243.500 333 L 1243.500 39.500 1241.465 36.035 C 1240.345 34.130, 1237.870 31.655, 1235.965 30.535 L 1232.500 28.500 637.500 28.292 L 42.500 28.084 38.500 29.501 M 239 111.144 C 234.325 111.505, 218.744 111.846, 204.376 111.901 L 178.251 112 173.879 113.543 C 168.433 115.464, 163.398 120.243, 161.882 124.928 C 161.247 126.893, 159.701 130.548, 158.447 133.051 L 156.168 137.603 153.334 138.989 L 150.500 140.375 128.500 141.062 L 106.500 141.750 99 144.396 C 94.875 145.851, 89.700 148.054, 87.500 149.290 L 83.500 151.539 77.274 159.783 L 71.048 168.028 69.396 173.709 L 67.745 179.390 68.233 187.953 L 68.721 196.517 71.254 201.508 C 72.647 204.254, 75.821 209.262, 78.308 212.637 L 82.830 218.774 88.412 221.415 C 91.482 222.868, 98.133 225.131, 103.192 226.445 L 112.389 228.834 116.817 233.455 C 119.253 235.996, 122.653 238.846, 124.373 239.788 L 127.500 241.500 248 241.500 L 368.500 241.500 376.075 238.750 C 380.242 237.237, 388.567 235.115, 394.575 234.033 C 400.584 232.950, 410 230.524, 415.500 228.640 C 421 226.757, 428.200 224.605, 431.500 223.858 L 437.500 222.500 466.500 222.528 L 495.500 222.556 505.314 224.382 L 515.128 226.208 519.606 225.536 L 524.084 224.865 527.709 221.682 L 531.334 218.500 533.240 214.191 L 535.146 209.882 535.642 184.191 L 536.137 158.500 533.819 154.559 L 531.500 150.617 526.529 148.059 L 521.557 145.500 490.029 144.838 L 458.500 144.175 453.500 143.126 C 450.750 142.548, 445.350 141.150, 441.500 140.019 C 437.650 138.888, 429.325 137.035, 423 135.902 L 411.500 133.842 401.712 129.914 C 396.328 127.753, 387.103 124.854, 381.212 123.470 C 375.320 122.086, 366.675 119.604, 362 117.954 C 357.325 116.304, 350.350 114.259, 346.500 113.410 L 339.500 111.865 311.500 111.426 C 254.312 110.527, 247.313 110.500, 239 111.144 M 263.500 129.461 C 261.707 130.294, 222.857 133.310, 208.500 133.730 L 194.500 134.140 193.573 135.047 L 192.646 135.954 196.445 137.541 L 200.244 139.129 207.372 138.997 C 211.292 138.924, 234.075 139.305, 258 139.843 L 301.500 140.821 307.932 142.441 C 318.336 145.062, 324 149.513, 324 155.068 L 324 157.690 322.250 159.246 C 321.288 160.101, 318.721 161.285, 316.548 161.876 L 312.595 162.951 297.048 161.866 L 281.500 160.781 234 161.480 C 207.875 161.865, 183.125 162.242, 179 162.319 C 174.875 162.396, 159.640 161.922, 145.144 161.266 L 118.788 160.072 111.896 161.522 C 103.513 163.285, 98.700 165.228, 94.185 168.672 L 90.762 171.283 88.769 175.788 L 86.777 180.293 87.210 185.520 L 87.644 190.746 91.277 195.696 L 94.910 200.646 103.090 205.049 L 111.270 209.451 115.144 214.695 C 117.275 217.580, 119.885 220.403, 120.943 220.970 L 122.869 222 242.184 221.983 L 361.500 221.965 368.500 220.414 C 372.350 219.561, 381.743 217.556, 389.373 215.958 L 403.246 213.052 408.637 210.010 C 411.602 208.336, 416.533 206.315, 419.595 205.517 L 425.162 204.067 443.812 203.009 L 462.463 201.950 484.220 203.101 L 505.977 204.252 509.035 202.985 L 512.094 201.718 513.419 199.109 L 514.743 196.500 515.376 187.500 L 516.009 178.500 515.074 174.593 L 514.140 170.685 511.591 168.136 L 509.042 165.588 479.771 164.323 L 450.500 163.058 441 160.646 C 417.254 154.618, 400.910 149.932, 394 147.171 C 389.875 145.523, 381.987 143.232, 376.470 142.081 C 364.504 139.582, 362.592 139.037, 353.500 135.524 C 349.650 134.037, 343.125 132.187, 339 131.412 L 331.500 130.005 298 129.500 C 279.575 129.223, 264.050 129.205, 263.500 129.461 M 979.862 225.018 C 978.961 225.544, 977.929 227.148, 977.569 228.583 L 976.914 231.192 978.542 236.794 C 980.388 243.143, 984.596 251.596, 988.850 257.500 C 990.435 259.700, 994.283 266.057, 997.402 271.627 L 1003.072 281.755 1004.165 288.127 L 1005.259 294.500 1005.379 330.500 L 1005.500 366.500 1003.870 370.085 L 1002.240 373.669 997.870 377.214 C 992.107 381.889, 986.975 384.339, 978.664 386.384 C 974.904 387.309, 967.553 389.892, 962.328 392.124 L 952.828 396.183 948.638 396.247 C 943.497 396.324, 940.207 394.674, 938.959 391.391 L 938.013 388.904 939.386 385.619 C 940.141 383.812, 942.800 379.560, 945.295 376.171 L 949.832 370.008 953.619 358.754 L 957.407 347.500 957.343 342 L 957.280 336.500 955.008 328 C 953.759 323.325, 951.802 317.793, 950.659 315.706 L 948.582 311.912 944.146 308.974 C 941.707 307.358, 937.188 305.083, 934.105 303.920 L 928.500 301.804 923.366 302.318 L 918.232 302.832 912.719 305.440 L 907.205 308.048 903.262 312.274 C 901.093 314.598, 896.770 319.243, 893.655 322.595 L 887.991 328.690 878.745 333.809 L 869.500 338.928 858.681 341.483 C 852.730 342.887, 845.755 345.089, 843.181 346.375 C 840.606 347.661, 834.077 350.413, 828.671 352.490 L 818.842 356.268 813.007 360.654 C 804.407 367.119, 801.249 371.226, 795.467 383.469 L 790.256 394.500 787.788 396.774 C 786.431 398.025, 783.870 399.464, 782.097 399.972 L 778.873 400.897 766.686 398.930 L 754.500 396.964 743 393.043 C 736.675 390.887, 726.405 388.172, 720.179 387.010 C 713.952 385.848, 705.313 383.590, 700.982 381.993 C 696.650 380.396, 688.200 377.984, 682.204 376.634 L 671.303 374.178 664.064 370.532 C 660.083 368.527, 653.377 365.612, 649.163 364.054 C 644.948 362.496, 638.575 359.953, 635 358.403 L 628.500 355.585 622 355.554 L 615.500 355.522 612.454 357.356 C 608.332 359.838, 605.311 364.498, 603.929 370.505 L 602.780 375.500 603.916 379.705 C 604.541 382.017, 606.228 385.307, 607.666 387.015 L 610.279 390.120 622.889 396.107 C 629.825 399.400, 638.649 403.038, 642.500 404.192 C 646.350 405.347, 652.650 407.868, 656.500 409.795 C 660.350 411.722, 668.675 414.992, 675 417.062 C 681.325 419.131, 690.100 422.194, 694.500 423.867 C 698.900 425.541, 705.650 427.865, 709.500 429.032 C 713.350 430.200, 718.657 432.529, 721.292 434.209 L 726.084 437.263 727.706 440.381 L 729.327 443.500 729.098 463.513 L 728.869 483.526 729.998 486.513 C 730.619 488.156, 732.291 490.720, 733.714 492.212 L 736.301 494.924 741.401 496.019 L 746.500 497.115 885 496.807 L 1023.500 496.500 1026.895 494.500 C 1028.763 493.400, 1031.238 491.230, 1032.395 489.677 L 1034.500 486.853 1034.500 467.650 L 1034.500 448.447 1031.956 443.504 L 1029.413 438.561 1026.456 436.842 L 1023.500 435.123 1014.088 433.614 L 1004.676 432.105 1003.248 430.676 L 1001.819 429.248 1005.986 425.374 C 1011.335 420.401, 1016.243 417.423, 1022.500 415.355 C 1026.736 413.955, 1039.714 407.531, 1058.899 397.337 L 1063.298 395 1066.536 395 L 1069.774 395 1074.614 398.250 L 1079.455 401.500 1082.225 407 L 1084.996 412.500 1087.026 425 L 1089.056 437.500 1093.170 448.840 L 1097.284 460.180 1101.555 465.840 C 1113.813 482.087, 1130.808 494.002, 1141.718 493.998 L 1146.500 493.997 1150 492.248 L 1153.500 490.500 1155.248 487 L 1156.997 483.500 1156.998 478.315 C 1157.004 459.793, 1146.766 435.224, 1132.966 420.646 L 1124.949 412.176 1116.225 407.653 L 1107.500 403.130 1102.897 398.315 C 1100.365 395.667, 1097.552 392.387, 1096.647 391.027 L 1095 388.555 1095.007 385.027 L 1095.013 381.500 1096.778 378.823 C 1099.123 375.269, 1102.103 373.054, 1110.500 368.626 C 1114.350 366.596, 1120.936 362.498, 1125.136 359.519 L 1132.772 354.103 1134.886 349.736 L 1137 345.369 1136.990 340.434 L 1136.980 335.500 1134.606 330.401 L 1132.231 325.301 1129.264 323.188 C 1127.632 322.026, 1124.316 320.631, 1121.895 320.088 L 1117.493 319.102 1113.056 320.099 L 1108.620 321.095 1102.560 325.367 C 1094.936 330.741, 1080.557 338.476, 1075.697 339.818 L 1072 340.839 1068.706 339.929 L 1065.411 339.020 1062.143 335.647 C 1060.345 333.793, 1057.215 329.561, 1055.187 326.243 C 1053.159 322.925, 1049.887 317.801, 1047.915 314.855 C 1040.003 303.036, 1035.138 293.976, 1031.080 283.499 L 1026.820 272.500 1025.853 263 C 1025.321 257.775, 1024.433 251.155, 1023.880 248.288 L 1022.874 243.076 1019.904 239.898 L 1016.935 236.719 1009.951 237.368 L 1002.968 238.017 996.482 231.983 C 988.310 224.380, 984.026 222.585, 979.862 225.018 M 917.400 326.870 C 915.255 328.448, 910.350 333.063, 906.500 337.124 L 899.500 344.509 889.039 350.418 L 878.578 356.326 869.055 358.685 L 859.533 361.044 850.017 365.416 C 844.782 367.820, 838.458 370.535, 835.963 371.448 C 830.157 373.573, 820.552 380.748, 817.193 385.469 L 814.586 389.132 814.177 395.564 L 813.767 401.996 815.381 404.459 L 816.995 406.921 821.247 408.210 L 825.500 409.498 863.500 409.499 L 901.500 409.500 906.500 407 L 911.500 404.500 913.412 400.583 L 915.324 396.666 916.172 386.583 C 916.638 381.037, 917.513 374.999, 918.116 373.164 L 919.212 369.828 926.099 363.194 L 932.987 356.560 935.129 352.030 L 937.271 347.500 937.324 341 L 937.376 334.500 935.553 330.706 L 933.730 326.912 930.915 325.456 C 929.366 324.655, 926.569 324, 924.700 324 L 921.300 324 917.400 326.870 M 1027.273 333.706 L 1025.500 336.412 1025.500 345.125 L 1025.500 353.839 1028 356.514 L 1030.500 359.190 1034.868 358.705 L 1039.235 358.219 1041.818 355.637 L 1044.400 353.055 1044.400 349.767 L 1044.400 346.479 1040.202 340.298 C 1033.713 330.742, 1030.341 329.023, 1027.273 333.706 M 85.461 409.961 C 76.758 411.290, 72.554 414.299, 69.288 421.537 L 67.500 425.500 67.210 504.899 L 66.920 584.299 68.033 589.659 L 69.146 595.020 71.692 598.046 C 73.092 599.710, 75.647 601.843, 77.369 602.786 L 80.500 604.500 140.866 604.787 L 201.233 605.074 206.550 603.529 C 209.474 602.678, 213.215 600.849, 214.862 599.463 L 217.856 596.943 219.459 592.722 L 221.061 588.500 220.781 504.323 L 220.500 420.146 218.448 417.323 C 217.319 415.770, 214.169 413.375, 211.448 412 L 206.500 409.500 148.500 409.346 C 116.600 409.261, 88.233 409.538, 85.461 409.961 M 94.374 429.114 L 90.248 430.069 88.374 432.139 L 86.500 434.209 86.241 504.355 L 85.981 574.500 87.741 577.999 L 89.500 581.498 92.500 582.999 L 95.500 584.500 143 584.500 L 190.500 584.500 194.325 582.601 C 196.429 581.556, 198.904 579.551, 199.825 578.145 L 201.500 575.590 201.777 507.326 L 202.053 439.063 200.563 435.496 L 199.072 431.928 195.286 430.214 L 191.500 428.500 145 428.330 L 98.500 428.160 94.374 429.114 M 813 454.103 L 803.500 455.032 781.343 454.408 L 759.186 453.783 755.495 455.002 L 751.804 456.220 749.924 460.360 C 747.648 465.372, 747.511 469.155, 749.470 472.941 L 750.939 475.783 754.119 476.892 L 757.298 478 882.199 478 L 1007.099 478 1010.020 476.490 C 1013.645 474.615, 1015 472.177, 1015 467.526 L 1015 463.920 1012.997 459.994 C 1011.895 457.834, 1009.982 455.489, 1008.747 454.783 L 1006.500 453.500 970 454 C 949.925 454.275, 927.425 454.432, 920 454.349 C 912.575 454.267, 887.600 453.968, 864.500 453.686 L 822.500 453.174 813 454.103 M 385.500 478.039 C 373.208 479.914, 362.274 485.112, 342.631 498.419 L 330.762 506.459 326.528 511.480 C 320.555 518.561, 309.722 536.232, 303.968 548.278 L 299.085 558.500 297.436 568 L 295.787 577.500 296.243 584.008 L 296.698 590.516 298.334 593.679 C 300.536 597.938, 304.610 600.663, 311.430 602.440 L 317.105 603.918 417.430 604.048 L 517.756 604.178 520.868 602.568 C 522.580 601.683, 524.747 599.790, 525.683 598.361 L 527.385 595.764 527.383 591.132 L 527.380 586.500 524.651 580.544 L 521.922 574.588 520.349 564.544 C 517.974 549.376, 508.038 530.664, 491.908 510.985 L 488.207 506.470 476.854 498.858 C 463.154 489.673, 447.226 481.540, 438.741 479.396 L 432.500 477.819 412 477.471 L 391.500 477.124 385.500 478.039 M 387.197 497.116 L 381.895 497.999 370.197 504.283 L 358.500 510.567 349.640 517.521 L 340.780 524.475 334.443 532.685 C 326.752 542.649, 325.973 544.118, 320.961 558.109 L 317 569.166 317 573.129 L 317 577.091 319.385 579.476 C 320.697 580.788, 323.595 582.352, 325.826 582.953 L 329.881 584.045 412.422 583.773 L 494.962 583.500 498.196 580.266 L 501.429 577.032 501.448 571.266 C 501.458 568.095, 501.111 563.379, 500.677 560.786 L 499.888 556.071 491.450 543.396 C 480.278 526.613, 476.752 522.455, 470.088 518.201 C 467.015 516.239, 462.320 512.915, 459.657 510.814 C 456.993 508.713, 450.693 504.976, 445.657 502.509 L 436.500 498.024 430 497.020 C 422.209 495.816, 394.640 495.878, 387.197 497.116" stroke="none" fill="#f4f4f4" fill-rule="evenodd"/></svg>