<svg xmlns="http://www.w3.org/2000/svg" width="684" height="1272" viewBox="0 0 684 1272" version="1.1"><path d="M 295 152.999 L 272.500 153.617 263.590 155.972 L 254.680 158.326 248.255 164.149 L 241.829 169.973 235.452 171.942 C 231.944 173.026, 224.366 175.753, 218.611 178.003 L 208.148 182.094 204.824 185.900 C 202.996 187.994, 200.274 191.310, 198.775 193.269 L 196.049 196.831 190.275 199.526 C 187.099 201.008, 183.264 203.379, 181.753 204.795 L 179.006 207.369 176.943 212.881 C 173.859 221.124, 172.023 223.736, 166.242 228.104 L 160.983 232.077 157.107 239.789 C 154.976 244.030, 152.285 250.678, 151.129 254.563 L 149.027 261.626 146.763 263.664 C 143.141 266.926, 142.621 267.067, 128.932 268.507 L 115.892 269.879 112.700 271.743 C 110.944 272.769, 108.584 274.977, 107.457 276.650 L 105.407 279.692 103.679 287.733 L 101.951 295.774 97.955 300.314 C 95.757 302.810, 93.244 306.566, 92.369 308.659 L 90.779 312.465 90.250 320.188 L 89.720 327.911 90.966 330.917 C 91.651 332.571, 93.748 335.096, 95.626 336.528 C 100.687 340.388, 101.894 342.821, 103.599 352.584 C 104.449 357.454, 106.524 365.052, 108.210 369.469 L 111.276 377.500 115.470 381.572 L 119.663 385.643 126.581 388.204 C 130.387 389.612, 136.419 391.510, 139.986 392.422 C 148.192 394.519, 150.003 395.736, 155.015 402.520 L 159.087 408.032 164.577 411.130 L 170.067 414.229 171.437 416.878 C 172.190 418.334, 173.526 421.995, 174.406 425.013 C 176.672 432.785, 178.960 436.069, 185.643 441.142 L 191.500 445.588 197.365 456.544 C 200.590 462.570, 204.432 469.298, 205.900 471.496 L 208.571 475.492 214.109 479.157 C 220.334 483.276, 223.730 487.030, 228.340 494.887 L 231.500 500.274 243.323 506.387 L 255.146 512.500 258.366 515.688 L 261.587 518.877 263.808 525.188 C 265.030 528.660, 266.406 534.650, 266.866 538.500 L 267.703 545.500 266.837 558.812 L 265.972 572.125 262.571 582.812 C 251.482 617.665, 254.664 637.979, 272.500 646.196 L 277.500 648.500 312 648.473 L 346.500 648.447 352.242 647.154 L 357.985 645.861 360.856 642.991 L 363.726 640.120 364.860 635.810 C 365.483 633.439, 366.488 624.476, 367.092 615.892 L 368.191 600.283 366.926 586.892 C 365.413 570.860, 364.586 534.374, 365.507 524.275 L 366.166 517.049 368.333 513.862 L 370.500 510.675 377.333 507.917 C 385.714 504.535, 387.455 503.012, 391.028 495.940 C 394.417 489.233, 394.989 488.724, 402.179 486.034 C 405.289 484.870, 409.014 482.990, 410.457 481.855 L 413.079 479.792 416.505 472.989 L 419.931 466.187 425.853 462.589 C 432.848 458.340, 434.112 456.614, 436.944 447.444 C 439.604 438.834, 440.915 436.814, 445.699 433.954 C 447.790 432.704, 450.739 430.543, 452.254 429.150 L 455.007 426.619 460.088 413.559 C 467.018 395.747, 466.809 395.903, 488.407 392.470 C 503.489 390.073, 507.662 387.547, 512.583 377.837 L 514.953 373.158 520.075 368.840 C 526.573 363.360, 527.635 361.225, 530.628 347.626 L 533.077 336.500 533.674 323.941 L 534.272 311.382 533.065 304.441 L 531.858 297.500 528.105 289.487 L 524.352 281.474 521.022 278.672 C 516.601 274.952, 505.915 269.638, 497.393 266.922 C 487.444 263.751, 485.461 262.552, 476.184 254.104 L 467.834 246.500 465.917 242.790 C 464.863 240.749, 464 238.629, 464 238.077 C 464 237.526, 463.028 234.471, 461.841 231.288 L 459.682 225.500 452.091 217.940 C 447.916 213.782, 442.651 208.148, 440.392 205.420 L 436.284 200.459 428.151 196.082 L 420.019 191.704 416.898 186.841 C 412.786 180.433, 409.874 178.506, 400.399 175.920 C 390.615 173.251, 387.820 171.860, 381.500 166.515 C 369.641 156.485, 350.334 151.594, 325 152.201 C 320.875 152.300, 307.375 152.659, 295 152.999 M 255.225 203.655 C 250.842 205.163, 248.870 207.031, 244.453 213.859 L 240.804 219.500 235.496 223.721 L 230.187 227.943 228.455 232.721 C 227.502 235.350, 225.707 239.813, 224.467 242.641 L 222.211 247.781 216.355 252.084 C 209.621 257.033, 209.313 257.383, 204.385 265.709 C 202.363 269.123, 197.227 275.710, 192.972 280.346 C 183.768 290.373, 178.029 297.899, 175.024 303.884 C 173.813 306.296, 171.758 309.333, 170.457 310.634 L 168.091 313 164.195 313 L 160.300 313 156.064 309.750 C 153.735 307.962, 150.405 305.448, 148.664 304.161 L 145.500 301.823 139.702 302.229 L 133.904 302.635 130.993 305.567 L 128.082 308.500 126.541 314.460 C 125.693 317.738, 125 322.362, 125 324.735 L 125 329.050 127.110 334.775 C 128.270 337.924, 130.068 343.425, 131.105 347 C 132.141 350.575, 133.505 354.759, 134.135 356.297 L 135.282 359.094 138.163 360.584 L 141.044 362.074 153.987 362.999 L 166.931 363.924 170.716 365.867 L 174.500 367.810 176.130 370.655 C 177.026 372.220, 178.473 375.975, 179.346 379 C 181.446 386.282, 182.952 388.218, 189.310 391.806 C 195.518 395.309, 196.677 396.863, 200.842 407.265 C 202.540 411.505, 205.107 417.465, 206.548 420.509 L 209.167 426.045 214.368 429.372 C 221.125 433.695, 224.417 437.708, 226.545 444.219 C 227.494 447.124, 228.913 450.769, 229.697 452.319 L 231.123 455.139 237.312 457.933 C 244.793 461.310, 246.218 462.816, 249.012 470.293 C 251.776 477.692, 253.656 479.367, 262.551 482.358 L 269.814 484.800 278.881 490.814 C 290.464 498.496, 297.392 501.866, 303.629 502.852 L 308.603 503.639 317.052 502.840 C 321.698 502.401, 327.737 501.513, 330.472 500.868 L 335.443 499.694 340.472 494.956 L 345.500 490.219 355.205 485.603 L 364.910 480.988 368.695 476.244 C 370.776 473.635, 376.309 467.668, 380.990 462.985 C 385.670 458.302, 391.781 452.002, 394.569 448.985 C 397.358 445.968, 401.989 441.376, 404.862 438.780 L 410.086 434.061 413.431 426.780 L 416.776 419.500 419.638 416.909 C 421.212 415.484, 424.157 413.329, 426.183 412.119 L 429.865 409.920 431.312 405.710 C 432.107 403.395, 433.719 398, 434.893 393.722 C 436.068 389.445, 438.425 382.988, 440.133 379.375 L 443.236 372.806 447.760 369.937 C 452.875 366.693, 460.919 363.924, 472.192 361.526 L 479.884 359.889 483.585 357.378 C 485.620 355.996, 489.936 352.534, 493.175 349.683 L 499.063 344.500 501.226 340.034 L 503.388 335.567 503.817 324.349 C 504.053 318.179, 503.930 311.020, 503.543 308.440 L 502.840 303.749 500.465 301.374 L 498.091 299 494.611 299 C 489.261 299, 486.057 300.641, 479.852 306.560 L 474.148 312 472.025 312 C 468.823 312, 464.934 309.626, 460.632 305.047 C 455.911 300.021, 453.222 298.583, 445.603 297.013 L 439.706 295.797 437.455 293.545 L 435.203 291.294 434.043 285.709 C 433.406 282.637, 431.897 278.663, 430.692 276.879 L 428.500 273.634 423.269 270.566 C 416.888 266.824, 415.859 265.411, 412.188 255.353 C 408.427 245.046, 405.286 240.155, 396.487 230.898 L 389.261 223.296 387.067 216.702 C 384.520 209.048, 382.175 205.705, 378.284 204.179 L 375.500 203.087 317.041 202.794 L 258.583 202.500 255.225 203.655 M 239 289.589 C 233.775 290.313, 224.465 291.757, 218.311 292.798 L 207.122 294.690 204.600 296.342 L 202.079 297.995 200.944 302.209 L 199.809 306.423 200.892 311.962 C 201.488 315.008, 203.444 320.406, 205.238 323.958 L 208.500 330.416 212.500 333.219 C 214.700 334.761, 219.650 337.133, 223.500 338.490 L 230.500 340.958 243.500 340.971 C 262.661 340.991, 274.471 338.521, 283.157 332.677 L 286.500 330.427 289.973 323.618 L 293.445 316.809 293.809 310.154 L 294.173 303.500 291.798 300 L 289.422 296.500 284.461 294.832 C 281.732 293.914, 275.609 292.002, 270.854 290.582 L 262.207 288 255.354 288.136 C 251.584 288.211, 244.225 288.865, 239 289.589 M 360.183 289.519 C 345.980 292.178, 340.641 295.021, 337.527 301.585 L 335.772 305.283 336.236 309.392 C 338.144 326.280, 347.212 336.661, 362.574 339.545 L 371.500 341.221 387 340.798 L 402.500 340.375 406.735 338.174 C 411.150 335.881, 411.388 335.587, 417.422 325 C 419.460 321.425, 422.216 316.700, 423.547 314.500 L 425.967 310.500 425.984 307.441 C 426.004 303.584, 424.694 301.916, 418.714 298.187 C 411.603 293.753, 389.632 288.762, 375.500 288.371 L 367.500 288.149 360.183 289.519 M 295 391.888 C 286.941 394.496, 279.706 398.439, 272.867 403.951 L 266.819 408.824 261.019 410.993 L 255.219 413.162 252.360 416.147 L 249.500 419.131 249.500 425 L 249.500 430.869 252.469 433.968 C 254.102 435.672, 257.330 438.176, 259.643 439.531 L 263.849 441.996 268.174 448.164 L 272.500 454.332 276 456.127 C 277.925 457.114, 283.775 458.613, 289 459.457 L 298.500 460.992 310.500 460.965 C 317.100 460.950, 325.737 460.518, 329.692 460.004 L 336.885 459.069 345.138 455.886 L 353.392 452.704 357.946 448.102 L 362.500 443.500 365.374 437.741 C 366.955 434.573, 368.470 430.014, 368.741 427.609 L 369.233 423.237 368.056 419.669 L 366.878 416.100 363.459 413.098 C 361.579 411.447, 357.669 409.287, 354.770 408.298 L 349.500 406.500 342.494 399.385 L 335.487 392.270 330.194 391.135 L 324.902 390 312.701 390.054 L 300.500 390.108 295 391.888 M 305.500 532.689 C 302.555 533.451, 299.906 536.070, 298.341 539.768 L 296.958 543.036 295.229 561.768 C 294.278 572.071, 293.536 586.125, 293.581 593 L 293.662 605.500 294.815 609.548 L 295.968 613.595 298.774 616.284 L 301.580 618.972 306.731 619.949 L 311.882 620.926 320.180 619.979 L 328.479 619.033 330.989 617.177 C 335.755 613.652, 337.979 604.636, 337.992 588.777 L 338 580.054 334.499 564.427 C 332.574 555.832, 330.270 547.264, 329.380 545.388 C 325.735 537.708, 312.764 530.810, 305.500 532.689 M 298.299 699.960 C 296.538 701.033, 294.358 703.341, 293.454 705.088 L 291.812 708.265 290.882 718.382 L 289.952 728.500 290.226 930 L 290.500 1131.500 292.369 1135.262 C 294.769 1140.090, 299.141 1143.748, 303.486 1144.563 L 306.913 1145.206 310.679 1143.353 L 314.444 1141.500 316.472 1138 L 318.500 1134.500 318.800 930.500 L 319.101 726.500 317.953 717 C 317.321 711.775, 316.209 706.067, 315.481 704.316 L 314.158 701.133 311.128 699.566 C 309.462 698.705, 306.614 698.002, 304.800 698.004 L 301.500 698.007 298.299 699.960" stroke="none" fill="#4d4d4d" fill-rule="evenodd"/><path d="M 38.500 29.500 C 33.630 31.227, 30.412 34.756, 29.031 39.885 L 27.993 43.738 28.247 638.119 L 28.500 1232.500 30.535 1235.965 C 31.655 1237.870, 34.130 1240.345, 36.035 1241.465 L 39.500 1243.500 341.500 1243.500 L 643.500 1243.500 646.965 1241.465 C 648.870 1240.345, 651.345 1237.870, 652.465 1235.965 L 654.500 1232.500 654.500 636 L 654.500 39.500 652.465 36.035 C 651.345 34.130, 648.870 31.655, 646.965 30.535 L 643.500 28.500 343 28.290 L 42.500 28.081 38.500 29.500 M 295 152.999 L 272.500 153.617 263.590 155.972 L 254.680 158.326 248.255 164.149 L 241.829 169.973 235.452 171.942 C 231.944 173.026, 224.366 175.753, 218.611 178.003 L 208.148 182.094 204.824 185.900 C 202.996 187.994, 200.274 191.310, 198.775 193.269 L 196.049 196.831 190.275 199.526 C 187.099 201.008, 183.264 203.379, 181.753 204.795 L 179.006 207.369 176.943 212.881 C 173.859 221.124, 172.023 223.736, 166.242 228.104 L 160.983 232.077 157.107 239.789 C 154.976 244.030, 152.285 250.678, 151.129 254.563 L 149.027 261.626 146.763 263.664 C 143.141 266.926, 142.621 267.067, 128.932 268.507 L 115.892 269.879 112.700 271.743 C 110.944 272.769, 108.584 274.977, 107.457 276.650 L 105.407 279.692 103.679 287.733 L 101.951 295.774 97.955 300.314 C 95.757 302.810, 93.244 306.566, 92.369 308.659 L 90.779 312.465 90.250 320.188 L 89.720 327.911 90.966 330.917 C 91.651 332.571, 93.748 335.096, 95.626 336.528 C 100.687 340.388, 101.894 342.821, 103.599 352.584 C 104.449 357.454, 106.524 365.052, 108.210 369.469 L 111.276 377.500 115.470 381.572 L 119.663 385.643 126.581 388.204 C 130.387 389.612, 136.419 391.510, 139.986 392.422 C 148.192 394.519, 150.003 395.736, 155.015 402.520 L 159.087 408.032 164.577 411.130 L 170.067 414.229 171.437 416.878 C 172.190 418.334, 173.526 421.995, 174.406 425.013 C 176.672 432.785, 178.960 436.069, 185.643 441.142 L 191.500 445.588 197.365 456.544 C 200.590 462.570, 204.432 469.298, 205.900 471.496 L 208.571 475.492 214.109 479.157 C 220.334 483.276, 223.730 487.030, 228.340 494.887 L 231.500 500.274 243.323 506.387 L 255.146 512.500 258.366 515.688 L 261.587 518.877 263.808 525.188 C 265.030 528.660, 266.406 534.650, 266.866 538.500 L 267.703 545.500 266.837 558.812 L 265.972 572.125 262.571 582.812 C 251.482 617.665, 254.664 637.979, 272.500 646.196 L 277.500 648.500 312 648.473 L 346.500 648.447 352.242 647.154 L 357.985 645.861 360.856 642.991 L 363.726 640.120 364.860 635.810 C 365.483 633.439, 366.488 624.476, 367.092 615.892 L 368.191 600.283 366.926 586.892 C 365.413 570.860, 364.586 534.374, 365.507 524.275 L 366.166 517.049 368.333 513.862 L 370.500 510.675 377.333 507.917 C 385.714 504.535, 387.455 503.012, 391.028 495.940 C 394.417 489.233, 394.989 488.724, 402.179 486.034 C 405.289 484.870, 409.014 482.990, 410.457 481.855 L 413.079 479.792 416.505 472.989 L 419.931 466.187 425.853 462.589 C 432.848 458.340, 434.112 456.614, 436.944 447.444 C 439.604 438.834, 440.915 436.814, 445.699 433.954 C 447.790 432.704, 450.739 430.543, 452.254 429.150 L 455.007 426.619 460.088 413.559 C 467.018 395.747, 466.809 395.903, 488.407 392.470 C 503.489 390.073, 507.662 387.547, 512.583 377.837 L 514.953 373.158 520.075 368.840 C 526.573 363.360, 527.635 361.225, 530.628 347.626 L 533.077 336.500 533.674 323.941 L 534.272 311.382 533.065 304.441 L 531.858 297.500 528.105 289.487 L 524.352 281.474 521.022 278.672 C 516.601 274.952, 505.915 269.638, 497.393 266.922 C 487.444 263.751, 485.461 262.552, 476.184 254.104 L 467.834 246.500 465.917 242.790 C 464.863 240.749, 464 238.629, 464 238.077 C 464 237.526, 463.028 234.471, 461.841 231.288 L 459.682 225.500 452.091 217.940 C 447.916 213.782, 442.651 208.148, 440.392 205.420 L 436.284 200.459 428.151 196.082 L 420.019 191.704 416.898 186.841 C 412.786 180.433, 409.874 178.506, 400.399 175.920 C 390.615 173.251, 387.820 171.860, 381.500 166.515 C 369.641 156.485, 350.334 151.594, 325 152.201 C 320.875 152.300, 307.375 152.659, 295 152.999 M 255.225 203.655 C 250.842 205.163, 248.870 207.031, 244.453 213.859 L 240.804 219.500 235.496 223.721 L 230.187 227.943 228.455 232.721 C 227.502 235.350, 225.707 239.813, 224.467 242.641 L 222.211 247.781 216.355 252.084 C 209.621 257.033, 209.313 257.383, 204.385 265.709 C 202.363 269.123, 197.227 275.710, 192.972 280.346 C 183.768 290.373, 178.029 297.899, 175.024 303.884 C 173.813 306.296, 171.758 309.333, 170.457 310.634 L 168.091 313 164.195 313 L 160.300 313 156.064 309.750 C 153.735 307.962, 150.405 305.448, 148.664 304.161 L 145.500 301.823 139.702 302.229 L 133.904 302.635 130.993 305.567 L 128.082 308.500 126.541 314.460 C 125.693 317.738, 125 322.362, 125 324.735 L 125 329.050 127.110 334.775 C 128.270 337.924, 130.068 343.425, 131.105 347 C 132.141 350.575, 133.505 354.759, 134.135 356.297 L 135.282 359.094 138.163 360.584 L 141.044 362.074 153.987 362.999 L 166.931 363.924 170.716 365.867 L 174.500 367.810 176.130 370.655 C 177.026 372.220, 178.473 375.975, 179.346 379 C 181.446 386.282, 182.952 388.218, 189.310 391.806 C 195.518 395.309, 196.677 396.863, 200.842 407.265 C 202.540 411.505, 205.107 417.465, 206.548 420.509 L 209.167 426.045 214.368 429.372 C 221.125 433.695, 224.417 437.708, 226.545 444.219 C 227.494 447.124, 228.913 450.769, 229.697 452.319 L 231.123 455.139 237.312 457.933 C 244.793 461.310, 246.218 462.816, 249.012 470.293 C 251.776 477.692, 253.656 479.367, 262.551 482.358 L 269.814 484.800 278.881 490.814 C 290.464 498.496, 297.392 501.866, 303.629 502.852 L 308.603 503.639 317.052 502.840 C 321.698 502.401, 327.737 501.513, 330.472 500.868 L 335.443 499.694 340.472 494.956 L 345.500 490.219 355.205 485.603 L 364.910 480.988 368.695 476.244 C 370.776 473.635, 376.309 467.668, 380.990 462.985 C 385.670 458.302, 391.781 452.002, 394.569 448.985 C 397.358 445.968, 401.989 441.376, 404.862 438.780 L 410.086 434.061 413.431 426.780 L 416.776 419.500 419.638 416.909 C 421.212 415.484, 424.157 413.329, 426.183 412.119 L 429.865 409.920 431.312 405.710 C 432.107 403.395, 433.719 398, 434.893 393.722 C 436.068 389.445, 438.425 382.988, 440.133 379.375 L 443.236 372.806 447.760 369.937 C 452.875 366.693, 460.919 363.924, 472.192 361.526 L 479.884 359.889 483.585 357.378 C 485.620 355.996, 489.936 352.534, 493.175 349.683 L 499.063 344.500 501.226 340.034 L 503.388 335.567 503.817 324.349 C 504.053 318.179, 503.930 311.020, 503.543 308.440 L 502.840 303.749 500.465 301.374 L 498.091 299 494.611 299 C 489.261 299, 486.057 300.641, 479.852 306.560 L 474.148 312 472.025 312 C 468.823 312, 464.934 309.626, 460.632 305.047 C 455.911 300.021, 453.222 298.583, 445.603 297.013 L 439.706 295.797 437.455 293.545 L 435.203 291.294 434.043 285.709 C 433.406 282.637, 431.897 278.663, 430.692 276.879 L 428.500 273.634 423.269 270.566 C 416.888 266.824, 415.859 265.411, 412.188 255.353 C 408.427 245.046, 405.286 240.155, 396.487 230.898 L 389.261 223.296 387.067 216.702 C 384.520 209.048, 382.175 205.705, 378.284 204.179 L 375.500 203.087 317.041 202.794 L 258.583 202.500 255.225 203.655 M 239 289.589 C 233.775 290.313, 224.465 291.757, 218.311 292.798 L 207.122 294.690 204.600 296.342 L 202.079 297.995 200.944 302.209 L 199.809 306.423 200.892 311.962 C 201.488 315.008, 203.444 320.406, 205.238 323.958 L 208.500 330.416 212.500 333.219 C 214.700 334.761, 219.650 337.133, 223.500 338.490 L 230.500 340.958 243.500 340.971 C 262.661 340.991, 274.471 338.521, 283.157 332.677 L 286.500 330.427 289.973 323.618 L 293.445 316.809 293.809 310.154 L 294.173 303.500 291.798 300 L 289.422 296.500 284.461 294.832 C 281.732 293.914, 275.609 292.002, 270.854 290.582 L 262.207 288 255.354 288.136 C 251.584 288.211, 244.225 288.865, 239 289.589 M 360.183 289.519 C 345.980 292.178, 340.641 295.021, 337.527 301.585 L 335.772 305.283 336.236 309.392 C 338.144 326.280, 347.212 336.661, 362.574 339.545 L 371.500 341.221 387 340.798 L 402.500 340.375 406.735 338.174 C 411.150 335.881, 411.388 335.587, 417.422 325 C 419.460 321.425, 422.216 316.700, 423.547 314.500 L 425.967 310.500 425.984 307.441 C 426.004 303.584, 424.694 301.916, 418.714 298.187 C 411.603 293.753, 389.632 288.762, 375.500 288.371 L 367.500 288.149 360.183 289.519 M 295 391.888 C 286.941 394.496, 279.706 398.439, 272.867 403.951 L 266.819 408.824 261.019 410.993 L 255.219 413.162 252.360 416.147 L 249.500 419.131 249.500 425 L 249.500 430.869 252.469 433.968 C 254.102 435.672, 257.330 438.176, 259.643 439.531 L 263.849 441.996 268.174 448.164 L 272.500 454.332 276 456.127 C 277.925 457.114, 283.775 458.613, 289 459.457 L 298.500 460.992 310.500 460.965 C 317.100 460.950, 325.737 460.518, 329.692 460.004 L 336.885 459.069 345.138 455.886 L 353.392 452.704 357.946 448.102 L 362.500 443.500 365.374 437.741 C 366.955 434.573, 368.470 430.014, 368.741 427.609 L 369.233 423.237 368.056 419.669 L 366.878 416.100 363.459 413.098 C 361.579 411.447, 357.669 409.287, 354.770 408.298 L 349.500 406.500 342.494 399.385 L 335.487 392.270 330.194 391.135 L 324.902 390 312.701 390.054 L 300.500 390.108 295 391.888 M 305.500 532.689 C 302.555 533.451, 299.906 536.070, 298.341 539.768 L 296.958 543.036 295.229 561.768 C 294.278 572.071, 293.536 586.125, 293.581 593 L 293.662 605.500 294.815 609.548 L 295.968 613.595 298.774 616.284 L 301.580 618.972 306.731 619.949 L 311.882 620.926 320.180 619.979 L 328.479 619.033 330.989 617.177 C 335.755 613.652, 337.979 604.636, 337.992 588.777 L 338 580.054 334.499 564.427 C 332.574 555.832, 330.270 547.264, 329.380 545.388 C 325.735 537.708, 312.764 530.810, 305.500 532.689 M 298.299 699.960 C 296.538 701.033, 294.358 703.341, 293.454 705.088 L 291.812 708.265 290.882 718.382 L 289.952 728.500 290.226 930 L 290.500 1131.500 292.369 1135.262 C 294.769 1140.090, 299.141 1143.748, 303.486 1144.563 L 306.913 1145.206 310.679 1143.353 L 314.444 1141.500 316.472 1138 L 318.500 1134.500 318.800 930.500 L 319.101 726.500 317.953 717 C 317.321 711.775, 316.209 706.067, 315.481 704.316 L 314.158 701.133 311.128 699.566 C 309.462 698.705, 306.614 698.002, 304.800 698.004 L 301.500 698.007 298.299 699.960" stroke="none" fill="#f3f3f3" fill-rule="evenodd"/></svg>