<svg xmlns="http://www.w3.org/2000/svg" width="1272" height="479" viewBox="0 0 1272 479" version="1.1"><path d="M 862.994 77.934 C 841.939 84.339, 828.530 112.205, 839.050 127.693 C 844.888 136.287, 844.603 137.507, 834.224 148.340 C 829.398 153.378, 821.267 162.337, 816.156 168.248 C 803.041 183.416, 797.796 185.900, 771.335 189.473 C 743.176 193.276, 732.114 197.697, 728.375 206.645 C 724.025 217.057, 742.069 221.155, 762.784 214.460 C 767.438 212.956, 776.056 211.378, 784.500 210.482 C 809.172 207.866, 811.772 206.880, 824.224 195.414 C 836.889 183.752, 841.093 185.543, 843.060 203.438 C 845.403 224.758, 841.904 227.986, 811.543 232.520 C 802.216 233.913, 791.866 235.681, 788.543 236.449 C 785.219 237.217, 778.706 238.363, 774.068 238.995 C 760.456 240.852, 754.154 245.648, 750.643 256.822 C 716.698 364.873, 719.931 358.872, 692.910 364 C 669.050 368.527, 665 370.581, 665 378.154 C 665 388.807, 677.720 389.961, 721.307 383.262 C 732.114 381.601, 732.114 381.601, 738.067 384.874 C 745.507 388.964, 751.061 389.590, 766.570 388.085 C 793.807 385.442, 795.786 382.664, 792.275 352 C 790.430 335.879, 791.230 283.824, 793.374 280.552 C 796.348 276.013, 799.756 275.721, 837.925 276.731 C 898.878 278.344, 907.413 271.564, 898.997 228.215 C 893.938 202.161, 901.551 173.347, 909.876 187.036 C 920.220 204.046, 920.568 244.920, 910.532 264.211 C 901.005 282.524, 908.054 295.165, 922.290 285.299 C 937.047 275.072, 939.140 268.504, 940.564 227.956 C 942.029 186.211, 929.720 151.503, 908.493 137.524 C 896.276 129.478, 896.196 129.205, 902.044 115.516 C 913.699 88.236, 893.388 68.689, 862.994 77.934 M 1096.205 79.833 C 1075.873 87.091, 1061.090 123.916, 1071 142.620 C 1077.122 154.176, 1076.752 155.515, 1064.125 167.500 C 1060.068 171.350, 1053.437 178.858, 1049.388 184.184 C 1036.241 201.480, 1033.910 201.642, 1019.206 186.276 C 1009.141 175.758, 1006.444 171.637, 1002.597 160.901 C 998.401 149.188, 987.413 142.063, 980.515 146.582 C 971.379 152.569, 977.174 173.268, 993.507 192.983 C 997.387 197.667, 1004.110 206.146, 1008.446 211.825 C 1030.219 240.341, 1037.303 242.488, 1052.907 225.297 C 1066.718 210.080, 1072.406 210.332, 1075.006 226.275 C 1075.654 230.249, 1077.267 238.599, 1078.592 244.830 C 1085.648 278.029, 1077.464 293.907, 1062.051 276.920 C 1026.690 237.948, 996.334 245.856, 1008.003 291 C 1014.373 315.645, 1015.260 333.042, 1010.482 339.641 C 1008.546 342.313, 1005.734 346.477, 1004.232 348.894 C 996.600 361.171, 995.519 362.313, 987.277 366.825 C 964.816 379.118, 977.866 394.208, 1003.893 386.039 C 1010.338 384.016, 1012.523 383.799, 1020.922 384.350 C 1026.728 384.730, 1036.507 384.415, 1045.529 383.557 C 1095.045 378.848, 1109.208 379.113, 1129.017 385.116 C 1153.069 392.405, 1169.543 388.415, 1164.567 376.506 C 1163.024 372.814, 1159.874 370.951, 1147.722 366.546 C 1136.974 362.649, 1133.133 355.425, 1135.106 342.819 C 1135.882 337.863, 1135.969 332.271, 1135.376 325.500 C 1134.894 320, 1134.522 304.700, 1134.550 291.500 C 1134.637 249.508, 1136.520 246.787, 1159.804 255.009 C 1186.382 264.393, 1193.492 255.938, 1183.406 226.944 C 1167.963 182.556, 1159.216 167.808, 1141.728 156.672 C 1133.546 151.462, 1133.043 149.854, 1136.604 140.282 C 1149.986 104.318, 1126.416 69.049, 1096.205 79.833 M 95.500 82.033 C 90.597 84.650, 87.913 85.353, 80.817 85.880 C 70.691 86.632, 68.201 88.249, 64.467 96.500 C 63.222 99.250, 60.550 104.200, 58.528 107.500 C 53.543 115.637, 53.812 121.605, 59.572 130.701 C 61.733 134.112, 64.697 138.913, 66.161 141.370 C 69.741 147.381, 72.428 148.916, 81.128 149.923 C 86.325 150.525, 90.270 151.721, 94.500 153.980 C 101.957 157.961, 106.630 157.729, 113.976 153.015 C 117.932 150.477, 120.665 149.593, 126.619 148.925 C 134.810 148.006, 138.899 145.775, 143.268 139.838 C 150.314 130.264, 171.139 128.775, 198.434 135.896 C 236.559 145.841, 234.444 145.501, 258 145.494 C 313.533 145.480, 348.442 119.250, 315.114 102.580 C 286.180 88.107, 255.198 86.056, 215.484 95.983 C 168.214 107.800, 155.443 107.616, 142.362 94.932 C 138.430 91.119, 135.053 87.972, 134.857 87.937 C 134.660 87.902, 130.900 87.518, 126.500 87.084 C 120.072 86.449, 117.506 85.669, 113.439 83.114 C 105.918 78.391, 102.688 78.196, 95.500 82.033 M 1103.272 91.889 C 1092.786 94.763, 1095.438 103.951, 1107.791 107.541 C 1110.898 108.445, 1115.184 110.074, 1117.317 111.162 C 1122.303 113.706, 1124 113.021, 1124 108.466 C 1124 98.834, 1112.242 89.431, 1103.272 91.889 M 237.441 103.974 C 218.194 106.716, 198.722 113.758, 199.189 117.807 C 200.988 133.386, 283.141 137.836, 304.405 123.506 C 321.249 112.155, 274.904 98.637, 237.441 103.974 M 856.106 106.901 C 851.302 111.389, 851.821 114.735, 858.437 121.931 C 867.516 131.807, 867.869 138.835, 859.623 145.525 C 845.457 157.017, 845.540 156.785, 850.351 171.696 C 856.397 190.435, 858.987 220.720, 855.263 229.138 C 851.325 238.040, 839.447 242.450, 808.669 246.435 C 786.473 249.309, 778.144 254.725, 787.896 259.944 C 794.647 263.558, 867.661 266.547, 875.552 263.533 C 886.985 259.167, 889.577 251.002, 885.891 230.965 C 881.153 205.209, 885.672 179.476, 897.944 162.338 C 904.408 153.311, 903.556 150.599, 892.653 145.498 C 885.469 142.138, 882.064 137.262, 878.336 125 C 872.344 105.294, 864.587 98.978, 856.106 106.901 M 1090.949 128.815 C 1085.182 134.583, 1085.467 135.428, 1096.291 144.665 C 1103.412 150.741, 1100.096 160.818, 1088.750 167.580 C 1075.587 175.425, 1074.612 178.039, 1081.323 187.494 C 1086.129 194.265, 1087.275 194.733, 1094.697 192.953 C 1102.422 191.100, 1106.522 192.641, 1114.906 200.551 C 1124.032 209.159, 1126.601 208.824, 1131.861 198.342 C 1133.008 196.055, 1136.659 191.825, 1139.974 188.942 C 1150.662 179.645, 1146.012 171.945, 1126.157 166.062 C 1113.800 162.400, 1105.825 152.051, 1104.604 138.091 C 1103.398 124.295, 1098.677 121.088, 1090.949 128.815 M 463.500 192.128 C 460.200 192.604, 450.445 193.107, 441.823 193.247 C 423.773 193.538, 423.620 193.599, 416.090 203.461 C 410.684 210.540, 408.480 211.489, 394.265 212.860 C 360.729 216.096, 352.336 256.353, 383.079 266.518 C 386.060 267.504, 390.209 269.385, 392.299 270.699 C 394.388 272.012, 397.162 273.491, 398.462 273.986 C 405.843 276.792, 534.400 275.204, 544.500 272.182 C 575.925 262.780, 585.292 261.549, 604.071 264.357 C 625.235 267.522, 628.452 264.026, 628.484 237.828 C 628.509 216.202, 626.915 214.852, 600.222 213.902 C 578.247 213.119, 575.061 212.431, 542 201.325 C 511.587 191.109, 488.947 188.457, 463.500 192.128 M 501.474 211.111 C 507.149 216.094, 507.113 221.866, 501.394 224.040 C 499.968 224.582, 475.841 225.064, 444.805 225.171 C 392.251 225.351, 390.584 225.415, 386.609 227.428 C 372.805 234.417, 376.640 251.100, 394.263 260.731 C 403.872 265.982, 528.142 263.413, 546.750 257.579 C 564.051 252.154, 572.630 250.780, 591.143 250.467 C 612.414 250.107, 615.863 248.347, 614.744 238.418 C 613.780 229.866, 609.587 227.511, 593.500 226.484 C 576.121 225.374, 565.057 223.324, 553 218.979 C 524.454 208.692, 493.300 203.935, 501.474 211.111 M 1089.331 215.579 C 1088.400 218.005, 1089.886 234.343, 1092.051 245.495 C 1094.430 257.747, 1094.509 266.411, 1092.360 279.623 C 1089.967 294.344, 1091.523 297.532, 1101.059 297.430 C 1115.466 297.278, 1119.340 292.469, 1121.493 272.062 C 1124.460 243.953, 1123.893 241.581, 1112.168 233.053 C 1108.367 230.289, 1104.006 226.334, 1102.475 224.264 C 1095.529 214.870, 1090.802 211.746, 1089.331 215.579 M 1037.413 279.492 C 1035.893 281.813, 1035.921 282.759, 1037.823 293.242 C 1038.947 299.434, 1040.158 306.694, 1040.513 309.376 C 1041.607 317.617, 1045.404 320.158, 1053.159 317.834 C 1067.566 313.518, 1067.970 304.069, 1054.412 288.584 C 1044.640 277.424, 1040.292 275.099, 1037.413 279.492 M 1103.500 312.352 C 1101.300 313.077, 1097.700 314.588, 1095.500 315.710 C 1093.300 316.832, 1086.100 319.775, 1079.500 322.251 C 1054.690 331.557, 1034 343.390, 1034 348.274 C 1034 353.067, 1041.528 354.270, 1054 351.471 C 1066.361 348.697, 1078.375 348.543, 1089.500 351.017 C 1114.701 356.622, 1121.530 352.999, 1122.791 333.359 C 1123.881 316.376, 1116.309 308.130, 1103.500 312.352 M 169.986 313.081 C 101.482 316.518, 44.318 338.192, 56.719 356.027 C 63.277 365.459, 90.557 376.281, 125.931 383.486 C 157.630 389.942, 217.956 390.499, 248.046 384.613 C 254.896 383.273, 262.525 381.858, 265 381.469 C 280.035 379.102, 312.862 366.194, 320.770 359.540 C 347.967 336.655, 257.249 308.704, 169.986 313.081 M 757.189 325.028 C 752.542 330.016, 741.982 355.915, 741.786 362.806 C 741.473 373.834, 765.417 366.956, 767.586 355.396 C 770.676 338.921, 763.573 318.175, 757.189 325.028 M 166.048 326.135 C 141.225 327.484, 118.489 331.797, 92.466 340.095 C 73.826 346.039, 74.709 354.216, 94.841 362.087 C 142.555 380.742, 240.256 379.927, 290 360.460 C 314.053 351.046, 296.151 337.801, 249 330.125 C 219.744 325.362, 198.810 324.355, 166.048 326.135" stroke="none" fill="#858585" fill-rule="evenodd"/><path d="M 38.500 29.501 C 33.623 31.229, 30.412 34.756, 29.024 39.909 C 28.311 42.557, 28.063 106.522, 28.240 241.643 C 28.533 464.868, 27.731 443.586, 36.035 448.465 C 41.519 451.686, 1230.481 451.686, 1235.965 448.465 C 1244.280 443.579, 1243.500 465.211, 1243.500 239.500 C 1243.500 13.789, 1244.280 35.421, 1235.965 30.535 C 1231.398 27.853, 46.044 26.829, 38.500 29.501 M 862.994 77.934 C 841.939 84.339, 828.530 112.205, 839.050 127.693 C 844.888 136.287, 844.603 137.507, 834.224 148.340 C 829.398 153.378, 821.267 162.337, 816.156 168.248 C 803.041 183.416, 797.796 185.900, 771.335 189.473 C 743.176 193.276, 732.114 197.697, 728.375 206.645 C 724.025 217.057, 742.069 221.155, 762.784 214.460 C 767.438 212.956, 776.056 211.378, 784.500 210.482 C 809.172 207.866, 811.772 206.880, 824.224 195.414 C 836.889 183.752, 841.093 185.543, 843.060 203.438 C 845.403 224.758, 841.904 227.986, 811.543 232.520 C 802.216 233.913, 791.866 235.681, 788.543 236.449 C 785.219 237.217, 778.706 238.363, 774.068 238.995 C 760.456 240.852, 754.154 245.648, 750.643 256.822 C 716.698 364.873, 719.931 358.872, 692.910 364 C 669.050 368.527, 665 370.581, 665 378.154 C 665 388.807, 677.720 389.961, 721.307 383.262 C 732.114 381.601, 732.114 381.601, 738.067 384.874 C 745.507 388.964, 751.061 389.590, 766.570 388.085 C 793.807 385.442, 795.786 382.664, 792.275 352 C 790.430 335.879, 791.230 283.824, 793.374 280.552 C 796.348 276.013, 799.756 275.721, 837.925 276.731 C 898.878 278.344, 907.413 271.564, 898.997 228.215 C 893.938 202.161, 901.551 173.347, 909.876 187.036 C 920.220 204.046, 920.568 244.920, 910.532 264.211 C 901.005 282.524, 908.054 295.165, 922.290 285.299 C 937.047 275.072, 939.140 268.504, 940.564 227.956 C 942.029 186.211, 929.720 151.503, 908.493 137.524 C 896.276 129.478, 896.196 129.205, 902.044 115.516 C 913.699 88.236, 893.388 68.689, 862.994 77.934 M 1096.205 79.833 C 1075.873 87.091, 1061.090 123.916, 1071 142.620 C 1077.122 154.176, 1076.752 155.515, 1064.125 167.500 C 1060.068 171.350, 1053.437 178.858, 1049.388 184.184 C 1036.241 201.480, 1033.910 201.642, 1019.206 186.276 C 1009.141 175.758, 1006.444 171.637, 1002.597 160.901 C 998.401 149.188, 987.413 142.063, 980.515 146.582 C 971.379 152.569, 977.174 173.268, 993.507 192.983 C 997.387 197.667, 1004.110 206.146, 1008.446 211.825 C 1030.219 240.341, 1037.303 242.488, 1052.907 225.297 C 1066.718 210.080, 1072.406 210.332, 1075.006 226.275 C 1075.654 230.249, 1077.267 238.599, 1078.592 244.830 C 1085.648 278.029, 1077.464 293.907, 1062.051 276.920 C 1026.690 237.948, 996.334 245.856, 1008.003 291 C 1014.373 315.645, 1015.260 333.042, 1010.482 339.641 C 1008.546 342.313, 1005.734 346.477, 1004.232 348.894 C 996.600 361.171, 995.519 362.313, 987.277 366.825 C 964.816 379.118, 977.866 394.208, 1003.893 386.039 C 1010.338 384.016, 1012.523 383.799, 1020.922 384.350 C 1026.728 384.730, 1036.507 384.415, 1045.529 383.557 C 1095.045 378.848, 1109.208 379.113, 1129.017 385.116 C 1153.069 392.405, 1169.543 388.415, 1164.567 376.506 C 1163.024 372.814, 1159.874 370.951, 1147.722 366.546 C 1136.974 362.649, 1133.133 355.425, 1135.106 342.819 C 1135.882 337.863, 1135.969 332.271, 1135.376 325.500 C 1134.894 320, 1134.522 304.700, 1134.550 291.500 C 1134.637 249.508, 1136.520 246.787, 1159.804 255.009 C 1186.382 264.393, 1193.492 255.938, 1183.406 226.944 C 1167.963 182.556, 1159.216 167.808, 1141.728 156.672 C 1133.546 151.462, 1133.043 149.854, 1136.604 140.282 C 1149.986 104.318, 1126.416 69.049, 1096.205 79.833 M 95.500 82.033 C 90.597 84.650, 87.913 85.353, 80.817 85.880 C 70.691 86.632, 68.201 88.249, 64.467 96.500 C 63.222 99.250, 60.550 104.200, 58.528 107.500 C 53.543 115.637, 53.812 121.605, 59.572 130.701 C 61.733 134.112, 64.697 138.913, 66.161 141.370 C 69.741 147.381, 72.428 148.916, 81.128 149.923 C 86.325 150.525, 90.270 151.721, 94.500 153.980 C 101.957 157.961, 106.630 157.729, 113.976 153.015 C 117.932 150.477, 120.665 149.593, 126.619 148.925 C 134.810 148.006, 138.899 145.775, 143.268 139.838 C 150.314 130.264, 171.139 128.775, 198.434 135.896 C 236.559 145.841, 234.444 145.501, 258 145.494 C 313.533 145.480, 348.442 119.250, 315.114 102.580 C 286.180 88.107, 255.198 86.056, 215.484 95.983 C 168.214 107.800, 155.443 107.616, 142.362 94.932 C 138.430 91.119, 135.053 87.972, 134.857 87.937 C 134.660 87.902, 130.900 87.518, 126.500 87.084 C 120.072 86.449, 117.506 85.669, 113.439 83.114 C 105.918 78.391, 102.688 78.196, 95.500 82.033 M 1103.272 91.889 C 1092.786 94.763, 1095.438 103.951, 1107.791 107.541 C 1110.898 108.445, 1115.184 110.074, 1117.317 111.162 C 1122.303 113.706, 1124 113.021, 1124 108.466 C 1124 98.834, 1112.242 89.431, 1103.272 91.889 M 237.441 103.974 C 218.194 106.716, 198.722 113.758, 199.189 117.807 C 200.988 133.386, 283.141 137.836, 304.405 123.506 C 321.249 112.155, 274.904 98.637, 237.441 103.974 M 856.106 106.901 C 851.302 111.389, 851.821 114.735, 858.437 121.931 C 867.516 131.807, 867.869 138.835, 859.623 145.525 C 845.457 157.017, 845.540 156.785, 850.351 171.696 C 856.397 190.435, 858.987 220.720, 855.263 229.138 C 851.325 238.040, 839.447 242.450, 808.669 246.435 C 786.473 249.309, 778.144 254.725, 787.896 259.944 C 794.647 263.558, 867.661 266.547, 875.552 263.533 C 886.985 259.167, 889.577 251.002, 885.891 230.965 C 881.153 205.209, 885.672 179.476, 897.944 162.338 C 904.408 153.311, 903.556 150.599, 892.653 145.498 C 885.469 142.138, 882.064 137.262, 878.336 125 C 872.344 105.294, 864.587 98.978, 856.106 106.901 M 1090.949 128.815 C 1085.182 134.583, 1085.467 135.428, 1096.291 144.665 C 1103.412 150.741, 1100.096 160.818, 1088.750 167.580 C 1075.587 175.425, 1074.612 178.039, 1081.323 187.494 C 1086.129 194.265, 1087.275 194.733, 1094.697 192.953 C 1102.422 191.100, 1106.522 192.641, 1114.906 200.551 C 1124.032 209.159, 1126.601 208.824, 1131.861 198.342 C 1133.008 196.055, 1136.659 191.825, 1139.974 188.942 C 1150.662 179.645, 1146.012 171.945, 1126.157 166.062 C 1113.800 162.400, 1105.825 152.051, 1104.604 138.091 C 1103.398 124.295, 1098.677 121.088, 1090.949 128.815 M 463.500 192.128 C 460.200 192.604, 450.445 193.107, 441.823 193.247 C 423.773 193.538, 423.620 193.599, 416.090 203.461 C 410.684 210.540, 408.480 211.489, 394.265 212.860 C 360.729 216.096, 352.336 256.353, 383.079 266.518 C 386.060 267.504, 390.209 269.385, 392.299 270.699 C 394.388 272.012, 397.162 273.491, 398.462 273.986 C 405.843 276.792, 534.400 275.204, 544.500 272.182 C 575.925 262.780, 585.292 261.549, 604.071 264.357 C 625.235 267.522, 628.452 264.026, 628.484 237.828 C 628.509 216.202, 626.915 214.852, 600.222 213.902 C 578.247 213.119, 575.061 212.431, 542 201.325 C 511.587 191.109, 488.947 188.457, 463.500 192.128 M 501.474 211.111 C 507.149 216.094, 507.113 221.866, 501.394 224.040 C 499.968 224.582, 475.841 225.064, 444.805 225.171 C 392.251 225.351, 390.584 225.415, 386.609 227.428 C 372.805 234.417, 376.640 251.100, 394.263 260.731 C 403.872 265.982, 528.142 263.413, 546.750 257.579 C 564.051 252.154, 572.630 250.780, 591.143 250.467 C 612.414 250.107, 615.863 248.347, 614.744 238.418 C 613.780 229.866, 609.587 227.511, 593.500 226.484 C 576.121 225.374, 565.057 223.324, 553 218.979 C 524.454 208.692, 493.300 203.935, 501.474 211.111 M 1089.331 215.579 C 1088.400 218.005, 1089.886 234.343, 1092.051 245.495 C 1094.430 257.747, 1094.509 266.411, 1092.360 279.623 C 1089.967 294.344, 1091.523 297.532, 1101.059 297.430 C 1115.466 297.278, 1119.340 292.469, 1121.493 272.062 C 1124.460 243.953, 1123.893 241.581, 1112.168 233.053 C 1108.367 230.289, 1104.006 226.334, 1102.475 224.264 C 1095.529 214.870, 1090.802 211.746, 1089.331 215.579 M 1037.413 279.492 C 1035.893 281.813, 1035.921 282.759, 1037.823 293.242 C 1038.947 299.434, 1040.158 306.694, 1040.513 309.376 C 1041.607 317.617, 1045.404 320.158, 1053.159 317.834 C 1067.566 313.518, 1067.970 304.069, 1054.412 288.584 C 1044.640 277.424, 1040.292 275.099, 1037.413 279.492 M 1103.500 312.352 C 1101.300 313.077, 1097.700 314.588, 1095.500 315.710 C 1093.300 316.832, 1086.100 319.775, 1079.500 322.251 C 1054.690 331.557, 1034 343.390, 1034 348.274 C 1034 353.067, 1041.528 354.270, 1054 351.471 C 1066.361 348.697, 1078.375 348.543, 1089.500 351.017 C 1114.701 356.622, 1121.530 352.999, 1122.791 333.359 C 1123.881 316.376, 1116.309 308.130, 1103.500 312.352 M 169.986 313.081 C 101.482 316.518, 44.318 338.192, 56.719 356.027 C 63.277 365.459, 90.557 376.281, 125.931 383.486 C 157.630 389.942, 217.956 390.499, 248.046 384.613 C 254.896 383.273, 262.525 381.858, 265 381.469 C 280.035 379.102, 312.862 366.194, 320.770 359.540 C 347.967 336.655, 257.249 308.704, 169.986 313.081 M 757.189 325.028 C 752.542 330.016, 741.982 355.915, 741.786 362.806 C 741.473 373.834, 765.417 366.956, 767.586 355.396 C 770.676 338.921, 763.573 318.175, 757.189 325.028 M 166.048 326.135 C 141.225 327.484, 118.489 331.797, 92.466 340.095 C 73.826 346.039, 74.709 354.216, 94.841 362.087 C 142.555 380.742, 240.256 379.927, 290 360.460 C 314.053 351.046, 296.151 337.801, 249 330.125 C 219.744 325.362, 198.810 324.355, 166.048 326.135" stroke="none" fill="#f3f3f3" fill-rule="evenodd"/></svg>