<svg xmlns="http://www.w3.org/2000/svg" width="1272" height="773" viewBox="0 0 1272 773" version="1.1"><path d="M 168.184 202.059 C 152.628 205.156, 153.549 198.975, 153.225 302.500 C 152.901 406.006, 152.805 405, 163.039 405 C 174.154 405, 174 406.332, 174 310.419 C 174 221.720, 173.787 224.800, 180.171 221.316 C 185.680 218.310, 397.809 218.518, 403 221.534 C 410.409 225.840, 410.054 221.266, 409.761 308.545 C 409.428 408.093, 418.228 395.500, 349 395.500 C 280.534 395.500, 288.004 402.614, 288.002 337.409 C 288 281.297, 286.871 275, 276.813 275 C 268.310 275, 268.012 277.332, 268.006 344.038 C 267.998 424.590, 257.749 415.500, 348.578 415.500 C 441.258 415.500, 430 430.363, 430 308 C 430 201.629, 430.682 209.091, 420.500 204 C 415.342 201.421, 180.465 199.614, 168.184 202.059 M 650.444 202.008 C 640.289 203.092, 631.651 208.170, 614 223.429 C 610.425 226.520, 604.575 230.444, 601 232.151 C 585.700 239.455, 585.769 245.876, 601.222 252.826 C 619.530 261.060, 624.160 271.581, 625.825 308.726 C 626.678 327.743, 626.723 328.019, 629.953 334.226 C 634.495 342.950, 646.865 367.707, 655.323 385 C 659.224 392.975, 666.305 406.925, 671.060 416 C 705.479 481.698, 708.416 487.784, 713.459 503.868 C 717.569 516.979, 717.833 522.065, 715.057 534.674 C 713.988 539.529, 712.439 547.003, 711.614 551.285 C 710.790 555.566, 708.902 561.641, 707.420 564.785 C 705.937 567.928, 703.250 574.325, 701.448 579 C 691.429 604.991, 688.920 611.236, 686.947 615.103 C 685.751 617.448, 683.673 622.289, 682.328 625.860 C 676.436 641.514, 674.562 642.342, 643.500 643.011 C 616.686 643.588, 614.709 644.029, 611.745 650.087 C 609.462 654.756, 610.873 659.325, 615.358 661.780 C 619.134 663.847, 777.192 664.990, 787.808 663.028 C 802.835 660.250, 801.794 647.169, 786.263 643.627 C 772.277 640.436, 772.600 632.629, 787.983 602.035 C 796.801 584.496, 799.847 566.996, 796.872 550.972 C 793.690 533.836, 795.709 531.179, 812 531.056 C 839.746 530.848, 875.549 525.743, 886.409 520.447 C 906.770 510.519, 909.001 487.577, 891 473.239 C 878.873 463.579, 875.621 460.447, 868.593 451.659 C 860.261 441.237, 840.511 410.951, 835.298 400.599 C 827.286 384.690, 819.230 374.085, 802.937 358 C 791.534 346.742, 785.517 339.903, 780.953 333.009 C 774.635 323.470, 758.740 306.679, 743.257 293.190 C 734.499 285.560, 731.549 280.786, 729.523 270.966 C 723.739 242.926, 712.830 224.784, 692.821 209.933 C 682.605 202.351, 669.753 199.947, 650.444 202.008 M 656.741 221.377 C 650.615 223.648, 649.693 224.842, 650.494 229.459 C 652.380 240.320, 650.263 243.015, 644.538 237.040 C 632.678 224.660, 624.489 239.073, 634.391 254.899 C 644.276 270.698, 644.977 273.581, 644.998 298.500 C 645.017 321.065, 645.582 323.587, 654.121 339.247 C 658.096 346.536, 663.412 356.568, 665.935 361.540 C 668.458 366.512, 672.140 372.587, 674.119 375.040 C 676.097 377.493, 678.909 381.525, 680.368 384 C 687.474 396.056, 688.032 394.660, 683.225 376.864 C 674.949 346.232, 674.496 343.829, 675.856 337.753 C 679.711 320.526, 700.123 308.593, 708.750 318.522 C 712.799 323.182, 711.344 327.550, 703.818 333.332 C 694.036 340.847, 693.810 349.956, 702.944 368.500 C 705.653 374, 708.182 379.625, 708.563 381 C 711.819 392.739, 727.657 408.019, 732.448 404.043 C 733.464 403.200, 733.907 399.102, 734.159 388.203 C 734.599 369.229, 735.100 368.243, 747.462 362 C 770.164 350.536, 767.203 339.615, 733.634 311 C 717.201 296.992, 712.696 290.211, 709.856 275.206 C 707.965 265.217, 703.443 251.627, 699.423 243.850 C 691.313 228.163, 669.463 216.659, 656.741 221.377 M 1056.500 321.022 C 1053.200 321.465, 1048.025 322.818, 1045 324.029 C 1041.975 325.239, 1036.471 327.273, 1032.769 328.549 C 1029.067 329.824, 1023.667 332.414, 1020.769 334.304 C 1017.871 336.193, 1012.800 339.437, 1009.500 341.512 C 961.861 371.463, 949.498 436.163, 982.559 482.500 C 1022.515 538.501, 1103.196 545.068, 1146.089 495.811 C 1211.341 420.878, 1153.483 307.996, 1056.500 321.022 M 1063 340.799 C 1026.704 344.033, 989.891 375.715, 984.915 408 C 980.403 437.276, 985.092 454.804, 1003.703 478.226 C 1009.078 484.991, 1010.268 486.068, 1021.781 494.575 C 1068.555 529.138, 1138.805 500.912, 1154.014 441.444 C 1166.732 391.719, 1116.383 336.042, 1063 340.799 M 771 370.164 C 757.651 376.916, 752.953 385.796, 756.010 398.500 C 760.749 418.194, 757.842 429.509, 746.652 434.927 C 736.474 439.854, 731.955 437.609, 709.850 416.643 C 699.909 407.214, 691.375 399.350, 690.887 399.167 C 687.257 397.803, 697.161 422.680, 709.732 446.500 C 714.667 455.850, 719.525 465.300, 720.528 467.500 C 726.005 479.510, 761.294 502.914, 782.500 508.600 C 795.978 512.213, 848.740 510.824, 865.690 506.408 C 880.856 502.458, 884.021 494.277, 873.704 485.702 C 864.415 477.981, 848.425 459.867, 842.189 450 C 840.277 446.975, 836.640 441.257, 834.107 437.293 C 826.004 424.617, 819.470 413.770, 813.647 403.327 C 797.687 374.706, 783.630 363.775, 771 370.164 M 1060.885 404.380 C 1044.208 410.339, 1040.284 427.757, 1052.848 440.053 C 1068.910 455.774, 1092.055 446.742, 1091.978 424.782 C 1091.920 408.228, 1077.181 398.556, 1060.885 404.380 M 740.628 518.250 C 739.849 519.487, 738.687 523.616, 738.046 527.424 C 737.405 531.232, 735.587 538.432, 734.006 543.424 C 732.425 548.416, 730.233 556.325, 729.134 561 C 728.035 565.675, 725.599 572.875, 723.720 577 C 721.841 581.125, 719.497 586.975, 718.512 590 C 717.526 593.025, 715.267 598.425, 713.491 602 C 709.876 609.277, 702 631.797, 702 634.855 C 702 641.612, 705.533 643.001, 722.700 642.994 C 744.101 642.986, 749.178 640.356, 755.025 626.253 C 756.793 621.989, 759.315 616.652, 760.630 614.394 C 761.945 612.136, 764.077 607.186, 765.368 603.394 C 766.659 599.602, 769.066 593.800, 770.718 590.500 C 777.802 576.349, 779.263 564.121, 775.694 548.845 C 771.651 531.536, 746.232 509.357, 740.628 518.250 M 245.500 551.083 C 203.974 552.360, 199.166 552.980, 153.500 562.939 C 88.638 577.084, 54.254 596.626, 65.911 612.719 C 70.300 618.777, 87.699 628.955, 104 634.999 C 108.125 636.528, 114.200 638.923, 117.500 640.320 C 120.800 641.718, 128.225 643.797, 134 644.941 C 139.775 646.084, 149 648.329, 154.500 649.929 C 167.360 653.671, 172.824 654.681, 187.500 656.028 C 194.100 656.634, 203.100 657.742, 207.500 658.490 C 237.760 663.636, 305.688 664.874, 349.500 661.077 C 389.211 657.636, 417.049 653.600, 428.806 649.579 C 432.825 648.205, 441.375 646.141, 447.806 644.992 C 456.156 643.501, 461.969 641.768, 468.134 638.932 C 472.883 636.748, 479.183 634.249, 482.134 633.378 C 485.085 632.507, 493.226 628.888, 500.224 625.336 C 516.931 616.857, 520.940 612.436, 520.026 603.500 C 518.909 592.579, 465.626 568.413, 430.752 563.011 C 423.740 561.925, 414.065 559.934, 409.252 558.587 C 384.571 551.678, 320.940 548.762, 245.500 551.083 M 246 570.495 C 207.410 571.755, 205.028 571.944, 195.500 574.502 C 190 575.979, 176.941 578.682, 166.480 580.510 C 156.019 582.338, 144.994 584.782, 141.980 585.941 C 138.966 587.101, 131.142 589.375, 124.594 590.995 C 99.723 597.148, 91.558 608.493, 107.701 614.467 C 110.340 615.444, 117.655 618.256, 123.956 620.716 C 130.257 623.177, 141.282 626.491, 148.456 628.080 C 155.630 629.669, 165.109 632.057, 169.521 633.386 C 179.624 636.429, 211.673 639.731, 243.500 641.009 C 256.150 641.517, 272.800 642.233, 280.500 642.600 C 319.107 644.442, 389.638 638.656, 422 630.993 C 431.075 628.844, 441.425 626.429, 445 625.625 C 489.632 615.594, 495.133 600.153, 457.473 590.617 C 451.958 589.221, 444.533 586.984, 440.973 585.648 C 437.413 584.311, 430.225 582.484, 425 581.587 C 419.775 580.690, 408.300 578.590, 399.500 576.920 C 366.947 570.743, 373.512 571.246, 303.500 569.577 C 294.150 569.354, 268.275 569.767, 246 570.495" stroke="none" fill="#868686" fill-rule="evenodd"/><path d="M 38.500 29.501 C 33.628 31.227, 30.412 34.755, 29.029 39.894 C 26.708 48.513, 28.187 732.967, 30.535 736.965 C 31.655 738.870, 34.130 741.345, 36.035 742.465 C 41.519 745.686, 1230.481 745.686, 1235.965 742.465 C 1244.367 737.528, 1243.500 778.500, 1243.500 386.500 C 1243.500 -5.500, 1244.367 35.472, 1235.965 30.535 C 1231.398 27.853, 46.044 26.829, 38.500 29.501 M 168.184 202.059 C 152.628 205.156, 153.549 198.975, 153.225 302.500 C 152.901 406.006, 152.805 405, 163.039 405 C 174.154 405, 174 406.332, 174 310.419 C 174 221.720, 173.787 224.800, 180.171 221.316 C 185.680 218.310, 397.809 218.518, 403 221.534 C 410.409 225.840, 410.054 221.266, 409.761 308.545 C 409.428 408.093, 418.228 395.500, 349 395.500 C 280.534 395.500, 288.004 402.614, 288.002 337.409 C 288 281.297, 286.871 275, 276.813 275 C 268.310 275, 268.012 277.332, 268.006 344.038 C 267.998 424.590, 257.749 415.500, 348.578 415.500 C 441.258 415.500, 430 430.363, 430 308 C 430 201.629, 430.682 209.091, 420.500 204 C 415.342 201.421, 180.465 199.614, 168.184 202.059 M 650.444 202.008 C 640.289 203.092, 631.651 208.170, 614 223.429 C 610.425 226.520, 604.575 230.444, 601 232.151 C 585.700 239.455, 585.769 245.876, 601.222 252.826 C 619.530 261.060, 624.160 271.581, 625.825 308.726 C 626.678 327.743, 626.723 328.019, 629.953 334.226 C 634.495 342.950, 646.865 367.707, 655.323 385 C 659.224 392.975, 666.305 406.925, 671.060 416 C 705.479 481.698, 708.416 487.784, 713.459 503.868 C 717.569 516.979, 717.833 522.065, 715.057 534.674 C 713.988 539.529, 712.439 547.003, 711.614 551.285 C 710.790 555.566, 708.902 561.641, 707.420 564.785 C 705.937 567.928, 703.250 574.325, 701.448 579 C 691.429 604.991, 688.920 611.236, 686.947 615.103 C 685.751 617.448, 683.673 622.289, 682.328 625.860 C 676.436 641.514, 674.562 642.342, 643.500 643.011 C 616.686 643.588, 614.709 644.029, 611.745 650.087 C 609.462 654.756, 610.873 659.325, 615.358 661.780 C 619.134 663.847, 777.192 664.990, 787.808 663.028 C 802.835 660.250, 801.794 647.169, 786.263 643.627 C 772.277 640.436, 772.600 632.629, 787.983 602.035 C 796.801 584.496, 799.847 566.996, 796.872 550.972 C 793.690 533.836, 795.709 531.179, 812 531.056 C 839.746 530.848, 875.549 525.743, 886.409 520.447 C 906.770 510.519, 909.001 487.577, 891 473.239 C 878.873 463.579, 875.621 460.447, 868.593 451.659 C 860.261 441.237, 840.511 410.951, 835.298 400.599 C 827.286 384.690, 819.230 374.085, 802.937 358 C 791.534 346.742, 785.517 339.903, 780.953 333.009 C 774.635 323.470, 758.740 306.679, 743.257 293.190 C 734.499 285.560, 731.549 280.786, 729.523 270.966 C 723.739 242.926, 712.830 224.784, 692.821 209.933 C 682.605 202.351, 669.753 199.947, 650.444 202.008 M 656.741 221.377 C 650.615 223.648, 649.693 224.842, 650.494 229.459 C 652.380 240.320, 650.263 243.015, 644.538 237.040 C 632.678 224.660, 624.489 239.073, 634.391 254.899 C 644.276 270.698, 644.977 273.581, 644.998 298.500 C 645.017 321.065, 645.582 323.587, 654.121 339.247 C 658.096 346.536, 663.412 356.568, 665.935 361.540 C 668.458 366.512, 672.140 372.587, 674.119 375.040 C 676.097 377.493, 678.909 381.525, 680.368 384 C 687.474 396.056, 688.032 394.660, 683.225 376.864 C 674.949 346.232, 674.496 343.829, 675.856 337.753 C 679.711 320.526, 700.123 308.593, 708.750 318.522 C 712.799 323.182, 711.344 327.550, 703.818 333.332 C 694.036 340.847, 693.810 349.956, 702.944 368.500 C 705.653 374, 708.182 379.625, 708.563 381 C 711.819 392.739, 727.657 408.019, 732.448 404.043 C 733.464 403.200, 733.907 399.102, 734.159 388.203 C 734.599 369.229, 735.100 368.243, 747.462 362 C 770.164 350.536, 767.203 339.615, 733.634 311 C 717.201 296.992, 712.696 290.211, 709.856 275.206 C 707.965 265.217, 703.443 251.627, 699.423 243.850 C 691.313 228.163, 669.463 216.659, 656.741 221.377 M 1056.500 321.022 C 1053.200 321.465, 1048.025 322.818, 1045 324.029 C 1041.975 325.239, 1036.471 327.273, 1032.769 328.549 C 1029.067 329.824, 1023.667 332.414, 1020.769 334.304 C 1017.871 336.193, 1012.800 339.437, 1009.500 341.512 C 961.861 371.463, 949.498 436.163, 982.559 482.500 C 1022.515 538.501, 1103.196 545.068, 1146.089 495.811 C 1211.341 420.878, 1153.483 307.996, 1056.500 321.022 M 1063 340.799 C 1026.704 344.033, 989.891 375.715, 984.915 408 C 980.403 437.276, 985.092 454.804, 1003.703 478.226 C 1009.078 484.991, 1010.268 486.068, 1021.781 494.575 C 1068.555 529.138, 1138.805 500.912, 1154.014 441.444 C 1166.732 391.719, 1116.383 336.042, 1063 340.799 M 771 370.164 C 757.651 376.916, 752.953 385.796, 756.010 398.500 C 760.749 418.194, 757.842 429.509, 746.652 434.927 C 736.474 439.854, 731.955 437.609, 709.850 416.643 C 699.909 407.214, 691.375 399.350, 690.887 399.167 C 687.257 397.803, 697.161 422.680, 709.732 446.500 C 714.667 455.850, 719.525 465.300, 720.528 467.500 C 726.005 479.510, 761.294 502.914, 782.500 508.600 C 795.978 512.213, 848.740 510.824, 865.690 506.408 C 880.856 502.458, 884.021 494.277, 873.704 485.702 C 864.415 477.981, 848.425 459.867, 842.189 450 C 840.277 446.975, 836.640 441.257, 834.107 437.293 C 826.004 424.617, 819.470 413.770, 813.647 403.327 C 797.687 374.706, 783.630 363.775, 771 370.164 M 1060.885 404.380 C 1044.208 410.339, 1040.284 427.757, 1052.848 440.053 C 1068.910 455.774, 1092.055 446.742, 1091.978 424.782 C 1091.920 408.228, 1077.181 398.556, 1060.885 404.380 M 740.628 518.250 C 739.849 519.487, 738.687 523.616, 738.046 527.424 C 737.405 531.232, 735.587 538.432, 734.006 543.424 C 732.425 548.416, 730.233 556.325, 729.134 561 C 728.035 565.675, 725.599 572.875, 723.720 577 C 721.841 581.125, 719.497 586.975, 718.512 590 C 717.526 593.025, 715.267 598.425, 713.491 602 C 709.876 609.277, 702 631.797, 702 634.855 C 702 641.612, 705.533 643.001, 722.700 642.994 C 744.101 642.986, 749.178 640.356, 755.025 626.253 C 756.793 621.989, 759.315 616.652, 760.630 614.394 C 761.945 612.136, 764.077 607.186, 765.368 603.394 C 766.659 599.602, 769.066 593.800, 770.718 590.500 C 777.802 576.349, 779.263 564.121, 775.694 548.845 C 771.651 531.536, 746.232 509.357, 740.628 518.250 M 245.500 551.083 C 203.974 552.360, 199.166 552.980, 153.500 562.939 C 88.638 577.084, 54.254 596.626, 65.911 612.719 C 70.300 618.777, 87.699 628.955, 104 634.999 C 108.125 636.528, 114.200 638.923, 117.500 640.320 C 120.800 641.718, 128.225 643.797, 134 644.941 C 139.775 646.084, 149 648.329, 154.500 649.929 C 167.360 653.671, 172.824 654.681, 187.500 656.028 C 194.100 656.634, 203.100 657.742, 207.500 658.490 C 237.760 663.636, 305.688 664.874, 349.500 661.077 C 389.211 657.636, 417.049 653.600, 428.806 649.579 C 432.825 648.205, 441.375 646.141, 447.806 644.992 C 456.156 643.501, 461.969 641.768, 468.134 638.932 C 472.883 636.748, 479.183 634.249, 482.134 633.378 C 485.085 632.507, 493.226 628.888, 500.224 625.336 C 516.931 616.857, 520.940 612.436, 520.026 603.500 C 518.909 592.579, 465.626 568.413, 430.752 563.011 C 423.740 561.925, 414.065 559.934, 409.252 558.587 C 384.571 551.678, 320.940 548.762, 245.500 551.083 M 246 570.495 C 207.410 571.755, 205.028 571.944, 195.500 574.502 C 190 575.979, 176.941 578.682, 166.480 580.510 C 156.019 582.338, 144.994 584.782, 141.980 585.941 C 138.966 587.101, 131.142 589.375, 124.594 590.995 C 99.723 597.148, 91.558 608.493, 107.701 614.467 C 110.340 615.444, 117.655 618.256, 123.956 620.716 C 130.257 623.177, 141.282 626.491, 148.456 628.080 C 155.630 629.669, 165.109 632.057, 169.521 633.386 C 179.624 636.429, 211.673 639.731, 243.500 641.009 C 256.150 641.517, 272.800 642.233, 280.500 642.600 C 319.107 644.442, 389.638 638.656, 422 630.993 C 431.075 628.844, 441.425 626.429, 445 625.625 C 489.632 615.594, 495.133 600.153, 457.473 590.617 C 451.958 589.221, 444.533 586.984, 440.973 585.648 C 437.413 584.311, 430.225 582.484, 425 581.587 C 419.775 580.690, 408.300 578.590, 399.500 576.920 C 366.947 570.743, 373.512 571.246, 303.500 569.577 C 294.150 569.354, 268.275 569.767, 246 570.495" stroke="none" fill="#f6f6f6" fill-rule="evenodd"/></svg>