<svg xmlns="http://www.w3.org/2000/svg" width="1272" height="497" viewBox="0 0 1272 497" version="1.1"><path d="M 77.209 80.984 C 69.357 82.845, 67.511 87.058, 65.521 107.656 C 64.094 122.430, 63.156 130.800, 59.488 161.500 C 58.700 168.100, 57.572 179.350, 56.981 186.500 C 56.390 193.650, 54.814 207.375, 53.478 217 C 52.141 226.625, 50.362 242.375, 49.524 252 C 48.686 261.625, 47.250 275.575, 46.333 283 C 43.766 303.798, 44.826 305.853, 67.543 324.120 C 80.497 334.537, 102.346 357.573, 106.596 365.296 C 109.707 370.948, 110.220 380.431, 109.066 411 C 108.453 427.247, 112.093 432.993, 123 432.993 C 137.624 432.993, 140.013 421.994, 137.010 368.500 C 136.135 352.933, 134.219 313.278, 131.983 264.500 C 131.378 251.300, 130.248 220.025, 129.471 195 C 127.385 127.782, 124.677 115.596, 107.353 95.466 C 99.669 86.537, 86.783 79.013, 81.040 80.102 C 80.743 80.159, 79.019 80.556, 77.209 80.984 M 333.500 81.425 C 323.923 83.291, 321.932 84.182, 310.823 91.572 C 277.887 113.486, 261.238 163.419, 284.697 169.933 C 289.859 171.366, 428.050 171.392, 433.205 169.960 C 447.379 166.023, 434.095 120.404, 413.391 101.919 C 391.965 82.790, 363.703 75.540, 333.500 81.425 M 630 81.387 C 623.062 82.926, 619.773 84.679, 611.846 91.063 C 608.356 93.874, 602.482 97.943, 598.794 100.106 C 586.047 107.579, 585.547 114.217, 597.288 120.113 C 610.828 126.913, 612.470 130.805, 613.859 159.400 C 614.680 176.300, 614.680 176.300, 623.887 193.900 C 636.648 218.293, 672.003 289.859, 678.773 305 C 687.627 324.802, 686.279 335.620, 670.056 375 C 667.224 381.875, 663.294 391.775, 661.323 397 C 653.941 416.570, 651.625 418.091, 627.955 418.920 C 607.390 419.641, 601.761 422.408, 606.414 429.510 C 609.664 434.470, 728.816 437.390, 739.248 432.765 C 747.261 429.213, 746.278 423.427, 736.796 418.329 C 727.804 413.494, 727.761 413.905, 740.535 382.534 C 746.926 366.838, 747.668 362.274, 745.700 350.740 C 743.029 335.091, 743.746 334.352, 763 332.921 C 807.367 329.624, 820.520 325.074, 825.010 311.469 C 827.897 302.722, 823.933 294.961, 810.057 282.197 C 800.641 273.535, 779.592 244.076, 771.933 228.841 C 766.850 218.730, 762.668 213.007, 751.873 201.388 C 746.310 195.400, 737.611 185.325, 732.541 179 C 727.472 172.675, 718.593 163.129, 712.809 157.786 C 698.035 144.138, 695.495 140.145, 692.907 126.493 C 686.597 93.207, 660.637 74.594, 630 81.387 M 341 95.448 C 309.205 103.542, 278.342 143.912, 296.391 153.797 C 300.149 155.855, 400.291 156.953, 410.799 155.051 C 421.863 153.049, 423.246 147.895, 416.587 133.482 C 403.343 104.817, 370.034 88.057, 341 95.448 M 641.352 96.598 C 639.142 97.688, 637.594 99.619, 636.157 103.076 C 634.111 108, 634.111 108, 628.627 108 C 619.704 108, 618.273 110.748, 622.484 119.794 C 627.142 129.798, 628.148 134.901, 628.932 152.500 C 629.896 174.121, 634.689 186.139, 650.791 207.311 C 656.159 214.369, 656.493 214.222, 653.870 205.957 C 648.163 187.971, 655.508 170.059, 669.681 167.400 C 678.337 165.776, 681.575 175.141, 674.407 181.073 C 668.056 186.329, 667.886 193.105, 673.727 208.246 C 683.068 232.465, 697.686 240.892, 697.111 221.728 C 696.849 212.980, 699.312 208.380, 707.318 202.667 C 722.333 191.953, 721.334 187.474, 699.110 165.862 C 682.315 149.529, 680.007 145.877, 677.610 131.839 C 673.802 109.536, 654.048 90.336, 641.352 96.598 M 83.807 103.750 C 81.189 106.799, 81.049 107.455, 79.469 124.140 C 78.618 133.138, 76.843 148.150, 75.527 157.500 C 74.211 166.850, 72.621 180.800, 71.994 188.500 C 71.367 196.200, 69.983 208.536, 68.918 215.913 C 67.853 223.290, 66.078 239.040, 64.974 250.913 C 63.871 262.786, 62.516 276.187, 61.963 280.693 C 60.114 295.768, 61.998 300.082, 74.530 309.470 C 78.914 312.754, 88.609 321.388, 96.076 328.658 C 119.430 351.395, 120.324 350.371, 118.037 303.500 C 115.981 261.366, 114.977 235.171, 113.976 197.500 C 112.668 148.259, 110.245 130.133, 102.995 115.358 C 97.576 104.315, 88.195 98.640, 83.807 103.750 M 905.500 198.758 C 896.530 199.529, 893.596 200.313, 891.374 202.535 C 886.549 207.360, 889.234 211.770, 898.650 214.489 C 916.728 219.708, 922.007 240.371, 911.419 264.471 C 909.479 268.887, 906.946 274.975, 905.790 278 C 901.513 289.187, 896.549 294.661, 888.149 297.451 C 878.657 300.603, 876.585 307.666, 884.024 311.512 C 898.428 318.961, 1244 313.128, 1244 305.436 C 1244 297.373, 1244 297.373, 1233.315 297.122 C 1216.529 296.729, 1211.434 292.950, 1205.504 276.500 C 1203.720 271.550, 1200.814 264.189, 1199.047 260.142 C 1191.399 242.633, 1195.907 220.767, 1208.118 216.142 C 1209.558 215.596, 1218.221 215.034, 1227.368 214.892 C 1244 214.634, 1244 214.634, 1244 206.817 C 1244 199, 1244 199, 1223.750 198.969 C 982.753 198.594, 907.981 198.545, 905.500 198.758 M 726.058 210.206 C 717.182 214.790, 715.459 218.415, 715.766 231.859 C 716.450 261.732, 706.046 268.689, 685.803 251.896 C 666.895 236.209, 665.446 239.993, 679.671 267.913 C 693.900 295.841, 699.383 300.860, 728.500 312.605 C 743.026 318.464, 760.875 319.257, 785.389 315.131 C 810.188 310.957, 812.117 307.301, 797.594 292 C 783.474 277.125, 775.016 264.991, 760.469 238.744 C 746.380 213.323, 736.266 204.935, 726.058 210.206 M 933.791 218.055 C 930.712 221.134, 930.712 221.134, 931.548 229.817 C 933.331 248.360, 931.970 256.181, 923.800 274.325 C 918.233 286.689, 917.892 290.046, 921.809 293.963 C 925.992 298.146, 1185.998 298.447, 1190.171 294.273 C 1193.350 291.094, 1192.890 286.986, 1188.181 276.486 C 1181.764 262.177, 1178.635 249.972, 1179.360 242.075 C 1181.412 219.737, 1181.465 221.652, 1178.707 218.446 C 1174.606 213.678, 938.545 213.301, 933.791 218.055 M 704.095 323.727 C 702.620 324.925, 701.153 328.420, 699.572 334.500 C 694.220 355.090, 690.917 366.129, 688.457 371.649 C 685.563 378.147, 675.633 403.217, 674.546 406.772 C 669.026 424.825, 706.546 422.664, 714.175 404.491 C 715.097 402.296, 718.176 395.100, 721.018 388.500 C 729.550 368.689, 730.333 366.155, 730.289 358.500 C 730.190 341.416, 712.019 317.292, 704.095 323.727 M 323.500 348.041 C 302.638 349.051, 277.915 351.758, 269 354.007 C 264.875 355.048, 257 356.862, 251.500 358.038 C 224.636 363.784, 191.171 377.902, 187.476 385.047 C 180.454 398.626, 202.822 411.427, 255.500 423.974 C 303.070 435.304, 392.543 437.137, 447.500 427.906 C 477.221 422.913, 519.196 408.437, 529.784 399.528 C 543.850 387.693, 524.232 372.074, 481.500 361.085 C 432.566 348.502, 388.732 344.883, 323.500 348.041 M 334.500 363.091 C 309.414 364.030, 279.462 366.701, 272.511 368.621 C 269.755 369.382, 261.875 371.371, 255 373.040 C 201.013 386.150, 204.538 398.204, 266 410.653 C 315.008 420.580, 409.464 421.004, 448.937 411.474 C 454.197 410.204, 461.425 408.648, 465 408.016 C 471.123 406.933, 486.334 402.637, 495.722 399.339 C 530.863 386.995, 474.096 367.862, 388 363.032 C 368.011 361.911, 365.995 361.913, 334.500 363.091" stroke="none" fill="#8a8a8a" fill-rule="evenodd"/><path d="M 38.500 29.501 C 33.624 31.228, 30.412 34.756, 29.025 39.908 C 28.312 42.556, 28.063 109.164, 28.241 250.142 C 28.533 482.986, 27.722 460.581, 36.035 465.465 C 41.519 468.686, 1230.481 468.686, 1235.965 465.465 C 1243.933 460.784, 1243.500 465.404, 1243.500 385 C 1243.500 313.500, 1243.500 313.500, 1065.330 313.317 C 903.300 313.151, 886.876 312.987, 884.028 311.515 C 876.585 307.666, 878.654 300.604, 888.149 297.451 C 896.549 294.661, 901.513 289.187, 905.790 278 C 906.946 274.975, 909.479 268.887, 911.419 264.471 C 922.007 240.371, 916.728 219.708, 898.650 214.489 C 889.744 211.918, 887.065 208.207, 890.537 203.251 C 893.639 198.822, 892.090 198.859, 1072.139 198.891 C 1244.046 198.922, 1244.046 198.922, 1243.773 119.211 C 1243.466 29.594, 1243.963 35.234, 1235.965 30.535 C 1231.398 27.853, 46.044 26.829, 38.500 29.501 M 77.209 80.984 C 69.357 82.845, 67.511 87.058, 65.521 107.656 C 64.094 122.430, 63.156 130.800, 59.488 161.500 C 58.700 168.100, 57.572 179.350, 56.981 186.500 C 56.390 193.650, 54.814 207.375, 53.478 217 C 52.141 226.625, 50.362 242.375, 49.524 252 C 48.686 261.625, 47.250 275.575, 46.333 283 C 43.766 303.798, 44.826 305.853, 67.543 324.120 C 80.497 334.537, 102.346 357.573, 106.596 365.296 C 109.707 370.948, 110.220 380.431, 109.066 411 C 108.453 427.247, 112.093 432.993, 123 432.993 C 137.624 432.993, 140.013 421.994, 137.010 368.500 C 136.135 352.933, 134.219 313.278, 131.983 264.500 C 131.378 251.300, 130.248 220.025, 129.471 195 C 127.385 127.782, 124.677 115.596, 107.353 95.466 C 99.669 86.537, 86.783 79.013, 81.040 80.102 C 80.743 80.159, 79.019 80.556, 77.209 80.984 M 333.500 81.425 C 323.923 83.291, 321.932 84.182, 310.823 91.572 C 277.887 113.486, 261.238 163.419, 284.697 169.933 C 289.859 171.366, 428.050 171.392, 433.205 169.960 C 447.379 166.023, 434.095 120.404, 413.391 101.919 C 391.965 82.790, 363.703 75.540, 333.500 81.425 M 630 81.387 C 623.062 82.926, 619.773 84.679, 611.846 91.063 C 608.356 93.874, 602.482 97.943, 598.794 100.106 C 586.047 107.579, 585.547 114.217, 597.288 120.113 C 610.828 126.913, 612.470 130.805, 613.859 159.400 C 614.680 176.300, 614.680 176.300, 623.887 193.900 C 636.648 218.293, 672.003 289.859, 678.773 305 C 687.627 324.802, 686.279 335.620, 670.056 375 C 667.224 381.875, 663.294 391.775, 661.323 397 C 653.941 416.570, 651.625 418.091, 627.955 418.920 C 607.390 419.641, 601.761 422.408, 606.414 429.510 C 609.664 434.470, 728.816 437.390, 739.248 432.765 C 747.261 429.213, 746.278 423.427, 736.796 418.329 C 727.804 413.494, 727.761 413.905, 740.535 382.534 C 746.926 366.838, 747.668 362.274, 745.700 350.740 C 743.029 335.091, 743.746 334.352, 763 332.921 C 807.367 329.624, 820.520 325.074, 825.010 311.469 C 827.897 302.722, 823.933 294.961, 810.057 282.197 C 800.641 273.535, 779.592 244.076, 771.933 228.841 C 766.850 218.730, 762.668 213.007, 751.873 201.388 C 746.310 195.400, 737.611 185.325, 732.541 179 C 727.472 172.675, 718.593 163.129, 712.809 157.786 C 698.035 144.138, 695.495 140.145, 692.907 126.493 C 686.597 93.207, 660.637 74.594, 630 81.387 M 341 95.448 C 309.205 103.542, 278.342 143.912, 296.391 153.797 C 300.149 155.855, 400.291 156.953, 410.799 155.051 C 421.863 153.049, 423.246 147.895, 416.587 133.482 C 403.343 104.817, 370.034 88.057, 341 95.448 M 641.352 96.598 C 639.142 97.688, 637.594 99.619, 636.157 103.076 C 634.111 108, 634.111 108, 628.627 108 C 619.704 108, 618.273 110.748, 622.484 119.794 C 627.142 129.798, 628.148 134.901, 628.932 152.500 C 629.896 174.121, 634.689 186.139, 650.791 207.311 C 656.159 214.369, 656.493 214.222, 653.870 205.957 C 648.163 187.971, 655.508 170.059, 669.681 167.400 C 678.337 165.776, 681.575 175.141, 674.407 181.073 C 668.056 186.329, 667.886 193.105, 673.727 208.246 C 683.068 232.465, 697.686 240.892, 697.111 221.728 C 696.849 212.980, 699.312 208.380, 707.318 202.667 C 722.333 191.953, 721.334 187.474, 699.110 165.862 C 682.315 149.529, 680.007 145.877, 677.610 131.839 C 673.802 109.536, 654.048 90.336, 641.352 96.598 M 83.807 103.750 C 81.189 106.799, 81.049 107.455, 79.469 124.140 C 78.618 133.138, 76.843 148.150, 75.527 157.500 C 74.211 166.850, 72.621 180.800, 71.994 188.500 C 71.367 196.200, 69.983 208.536, 68.918 215.913 C 67.853 223.290, 66.078 239.040, 64.974 250.913 C 63.871 262.786, 62.516 276.187, 61.963 280.693 C 60.114 295.768, 61.998 300.082, 74.530 309.470 C 78.914 312.754, 88.609 321.388, 96.076 328.658 C 119.430 351.395, 120.324 350.371, 118.037 303.500 C 115.981 261.366, 114.977 235.171, 113.976 197.500 C 112.668 148.259, 110.245 130.133, 102.995 115.358 C 97.576 104.315, 88.195 98.640, 83.807 103.750 M 726.058 210.206 C 717.182 214.790, 715.459 218.415, 715.766 231.859 C 716.450 261.732, 706.046 268.689, 685.803 251.896 C 666.895 236.209, 665.446 239.993, 679.671 267.913 C 693.900 295.841, 699.383 300.860, 728.500 312.605 C 743.026 318.464, 760.875 319.257, 785.389 315.131 C 810.188 310.957, 812.117 307.301, 797.594 292 C 783.474 277.125, 775.016 264.991, 760.469 238.744 C 746.380 213.323, 736.266 204.935, 726.058 210.206 M 1223.819 215 C 1206.492 215.552, 1204.958 216.073, 1200.248 222.993 C 1194.293 231.743, 1193.678 248.430, 1198.885 260 C 1200.742 264.125, 1203.720 271.550, 1205.504 276.500 C 1211.403 292.865, 1216.491 296.678, 1233.029 297.126 C 1243.500 297.410, 1243.500 297.410, 1243.500 255.955 C 1243.500 215.167, 1243.468 214.500, 1241.500 214.500 C 1240.400 214.500, 1232.444 214.725, 1223.819 215 M 933.791 218.055 C 930.712 221.134, 930.712 221.134, 931.548 229.817 C 933.331 248.360, 931.970 256.181, 923.800 274.325 C 918.233 286.689, 917.892 290.046, 921.809 293.963 C 925.992 298.146, 1185.998 298.447, 1190.171 294.273 C 1193.350 291.094, 1192.890 286.986, 1188.181 276.486 C 1181.764 262.177, 1178.635 249.972, 1179.360 242.075 C 1181.412 219.737, 1181.465 221.652, 1178.707 218.446 C 1174.606 213.678, 938.545 213.301, 933.791 218.055 M 704.095 323.727 C 702.620 324.925, 701.153 328.420, 699.572 334.500 C 694.220 355.090, 690.917 366.129, 688.457 371.649 C 685.563 378.147, 675.633 403.217, 674.546 406.772 C 669.026 424.825, 706.546 422.664, 714.175 404.491 C 715.097 402.296, 718.176 395.100, 721.018 388.500 C 729.550 368.689, 730.333 366.155, 730.289 358.500 C 730.190 341.416, 712.019 317.292, 704.095 323.727 M 323.500 348.041 C 302.638 349.051, 277.915 351.758, 269 354.007 C 264.875 355.048, 257 356.862, 251.500 358.038 C 224.636 363.784, 191.171 377.902, 187.476 385.047 C 180.454 398.626, 202.822 411.427, 255.500 423.974 C 303.070 435.304, 392.543 437.137, 447.500 427.906 C 477.221 422.913, 519.196 408.437, 529.784 399.528 C 543.850 387.693, 524.232 372.074, 481.500 361.085 C 432.566 348.502, 388.732 344.883, 323.500 348.041 M 334.500 363.091 C 309.414 364.030, 279.462 366.701, 272.511 368.621 C 269.755 369.382, 261.875 371.371, 255 373.040 C 201.013 386.150, 204.538 398.204, 266 410.653 C 315.008 420.580, 409.464 421.004, 448.937 411.474 C 454.197 410.204, 461.425 408.648, 465 408.016 C 471.123 406.933, 486.334 402.637, 495.722 399.339 C 530.863 386.995, 474.096 367.862, 388 363.032 C 368.011 361.911, 365.995 361.913, 334.500 363.091" stroke="none" fill="#f2f2f2" fill-rule="evenodd"/></svg>