<svg xmlns="http://www.w3.org/2000/svg" width="1272" height="545" viewBox="0 0 1272 545" version="1.1"><path d="M 817.911 129.829 C 812.917 131.848, 784.259 150.450, 782.282 152.956 C 779.134 156.945, 780.970 162.020, 787 166 C 799.213 174.063, 801.477 179.005, 802.450 199.725 C 802.791 206.998, 803.676 214.648, 804.415 216.725 C 806.465 222.485, 840.228 289.033, 842.740 292.266 C 845.091 295.291, 862.077 333.339, 864.497 341 C 868.723 354.382, 866.929 363.034, 852.608 398.330 C 838.592 432.876, 837.105 434.399, 816.500 435.298 C 796.315 436.179, 787.847 444.920, 803.179 449.048 C 811.729 451.350, 910.766 450.867, 915.500 448.500 C 921.755 445.372, 921.629 441.516, 915.061 435.153 C 908.962 429.243, 908.460 425.206, 912.618 415.500 C 922.074 393.426, 924.124 384.447, 922.592 371.814 C 921.597 363.617, 923.751 360.537, 931.124 359.611 C 933.531 359.309, 942.925 358.156, 952 357.050 C 997.658 351.485, 1008.872 335.031, 982.252 312.666 C 971.614 303.729, 958.850 286.210, 946.590 263.718 C 941.414 254.223, 929.320 237.911, 925.695 235.536 C 923.659 234.202, 919.356 229.187, 903.993 210.246 C 901.203 206.806, 895.373 201.057, 891.037 197.470 C 881.035 189.195, 877.950 184.478, 874.574 172.297 C 865.699 140.277, 839.898 120.940, 817.911 129.829 M 1113.500 130.299 C 1110.750 131.618, 1105.405 135.240, 1101.623 138.349 C 1097.840 141.457, 1094.015 144.070, 1093.123 144.156 C 1092.230 144.242, 1087.303 144.354, 1082.173 144.406 C 1069.707 144.532, 1066.390 147.434, 1067.319 157.405 C 1070.445 190.956, 1073.334 195.764, 1092.047 198.559 C 1105.661 200.593, 1106.860 202.354, 1101.662 212.683 C 1094.251 227.408, 1092.656 237.146, 1095.598 249.688 C 1097.753 258.870, 1097.012 266.053, 1093.112 273.777 C 1085.889 288.088, 1094.812 291.122, 1107 278.500 C 1120.327 264.698, 1125.100 270.595, 1119.073 293.417 C 1115.221 308.005, 1114.249 313.361, 1113.107 326.309 C 1111.295 346.839, 1108.909 347.028, 1089.633 328.165 C 1055.926 295.178, 1022.530 311.590, 1042.633 351.262 C 1047.342 360.554, 1054.109 377.267, 1055.626 383.348 C 1056.470 386.732, 1058.024 392.360, 1059.080 395.855 C 1061.620 404.264, 1061.589 415.447, 1059 424.500 C 1056.344 433.786, 1056.422 438.846, 1059.287 443.102 C 1063.371 449.169, 1062.203 449.043, 1118.724 449.538 C 1147.201 449.788, 1173.459 450.238, 1177.075 450.539 C 1197.014 452.199, 1203.145 444.071, 1193.087 429.310 C 1186.535 419.696, 1185.891 416.185, 1187.756 400.283 C 1190.986 372.754, 1189.405 273.986, 1185.535 261.500 C 1183.788 255.863, 1178.131 229.660, 1177.312 223.410 C 1176.818 219.638, 1177.136 218.914, 1181.388 214.126 C 1185.820 209.136, 1186.452 207.486, 1186.029 202 C 1185.643 196.999, 1181.332 190.345, 1173.621 182.851 C 1165.742 175.194, 1165.742 175.194, 1164.861 165.607 C 1162.269 137.412, 1136.132 119.444, 1113.500 130.299 M 128.291 139.250 C 127.160 140.488, 125.484 142.982, 124.568 144.794 C 119.118 155.574, 104.763 155.406, 94.428 144.442 C 87.403 136.990, 85.853 136.657, 81.610 141.687 C 76.815 147.370, 71.660 152.205, 66.866 155.514 C 58.593 161.224, 58.500 161.725, 58.500 200.500 C 58.500 253.681, 35.744 246.943, 216.398 247.248 C 387.540 247.537, 374.802 247.671, 378.924 245.539 C 391.885 238.837, 389.497 161.689, 376.065 153.197 C 372.196 150.750, 368.662 147.423, 366.234 143.939 C 360.711 136.018, 357.610 135.906, 352.054 143.427 C 343.161 155.465, 328.846 155.749, 320.445 144.056 C 314.681 136.033, 311.604 135.914, 306.003 143.495 C 296.346 156.568, 282.955 156.532, 275.034 143.413 C 269.513 134.268, 265.716 134.527, 260.128 144.428 C 256.296 151.217, 250.788 153.682, 242.263 152.423 C 237.481 151.717, 235.616 150.267, 227.145 140.668 C 223.449 136.480, 221.205 137.188, 214.398 144.691 C 204.444 155.664, 192.623 155.173, 183.946 143.427 C 178.377 135.888, 175.292 136.013, 169.724 144 C 161.121 156.342, 147.074 156.062, 139.650 143.401 C 135.447 136.232, 132.152 135.028, 128.291 139.250 M 1119 145.081 C 1110.023 149.145, 1105.675 155.320, 1105.680 164 C 1105.691 183.580, 1130.738 194.038, 1143.633 179.847 C 1159.601 162.275, 1140.517 135.341, 1119 145.081 M 828.401 145.416 C 826.696 146.164, 824.356 148.307, 823.200 150.177 C 822.044 152.046, 819.302 154.586, 817.107 155.820 C 811.847 158.776, 811.471 160.487, 814.057 169.703 C 815.676 175.474, 816.408 181.700, 816.917 194.044 C 818.105 222.811, 831.172 244.239, 836.368 225.937 C 839.322 215.530, 846.159 209.052, 854.227 209.016 C 861.526 208.984, 862.562 214.359, 856.863 222.680 C 850.886 231.407, 858.847 257.667, 869.424 264.117 C 874.643 267.300, 876.320 265.760, 877.949 256.288 C 879.253 248.708, 881.977 244.129, 887.936 239.500 C 899.639 230.410, 897.276 222.173, 878.245 205.710 C 865.992 195.110, 863.663 191.444, 861.017 178.580 C 856.447 156.371, 840.462 140.118, 828.401 145.416 M 90.500 168 C 73.277 168.861, 73 169.368, 73 200.067 C 73 224.734, 73.601 227.627, 79.385 230.794 C 84.195 233.428, 359.805 233.428, 364.615 230.794 C 374.705 225.268, 374.254 173.586, 364.078 169.219 C 360.503 167.684, 118.382 166.606, 90.500 168 M 1122.123 230.085 C 1111.454 232.342, 1108.108 243.308, 1116.246 249.347 C 1122.132 253.715, 1133.587 251.030, 1136.673 244.560 C 1140.634 236.253, 1132.276 227.938, 1122.123 230.085 M 902 248.170 C 895.970 252.212, 894 257.664, 894 270.311 C 894 290.647, 885.377 297.505, 872.253 287.606 C 862.996 280.625, 860.472 279.062, 858 278.782 C 852.450 278.155, 854.865 286.937, 865.317 305.383 C 883.179 336.908, 922.203 350.703, 965.849 340.922 C 977.901 338.221, 979.290 332.272, 970.114 322.663 C 962.840 315.046, 948.900 296.003, 941.603 283.714 C 920.998 249.015, 912.336 241.241, 902 248.170 M 444.854 249.382 C 427.319 253.154, 423.088 267.011, 434.498 283.300 C 436.965 286.823, 436.306 291.073, 432.388 296.891 C 415.029 322.667, 448.172 337.409, 489.405 322.253 C 499.500 318.542, 499.500 318.542, 598 318.021 C 680.382 317.585, 696.909 317.268, 699 316.085 C 701.582 314.623, 708.098 309.357, 715.615 302.657 C 729.463 290.312, 725.141 267.485, 707.500 259.806 C 705.121 258.770, 683.177 258.396, 601.500 258 C 498.500 257.500, 498.500 257.500, 486.967 253.833 C 469.380 248.242, 456.488 246.879, 444.854 249.382 M 495 274.430 C 467.755 282.093, 469.467 297.831, 498.111 303.031 C 507.185 304.679, 689.394 303.826, 694.497 302.112 C 708.244 297.495, 713.155 280.776, 702.341 275.407 C 697.436 272.972, 503.435 272.058, 495 274.430 M 1158.557 278.223 C 1157.357 279.936, 1157 283.208, 1157 292.500 C 1157 306.042, 1155.954 309.012, 1151.193 308.985 C 1147.377 308.963, 1146.022 307.848, 1142.482 301.819 C 1135.099 289.245, 1131.081 298.735, 1127.536 337.124 C 1126.691 346.267, 1126 356.999, 1126 360.972 C 1126 371.230, 1122.005 378, 1115.951 378 C 1110.951 378, 1103.075 369.904, 1091.735 353.104 C 1077.680 332.284, 1061.085 321.329, 1055.557 329.223 C 1052.463 333.639, 1054.106 340.301, 1063.762 362.500 C 1065.676 366.900, 1068.255 374.775, 1069.494 380 C 1070.733 385.225, 1072.704 392.585, 1073.874 396.355 C 1075.468 401.495, 1076 405.820, 1076 413.637 C 1076 435.216, 1074.177 434.423, 1124.630 434.802 C 1174.709 435.178, 1171 436.773, 1172.100 414.391 C 1172.503 406.201, 1173.368 393.200, 1174.023 385.500 C 1175.425 369.011, 1174.783 303.542, 1173.108 292.140 C 1171.223 279.304, 1163.184 271.616, 1158.557 278.223 M 885.291 352.509 C 882.793 354.258, 880.241 360.645, 876.472 374.580 C 874.996 380.036, 872.273 388.100, 870.422 392.500 C 854.617 430.051, 856.298 438.731, 878.568 434.553 C 890.154 432.380, 908.964 396.373, 907.819 378.561 C 906.893 364.155, 892.473 347.478, 885.291 352.509 M 94.208 405.711 C 89.368 406.638, 77.098 424.258, 75.408 432.710 C 73.890 440.298, 80.959 441.970, 87.793 435.640 C 96.360 427.704, 98.715 427.335, 105.681 432.842 C 116.530 441.418, 120.424 441.443, 129.500 433 C 137.219 425.819, 142.006 425.439, 147.073 431.605 C 153.871 439.878, 168.319 440.430, 171.349 432.532 C 173.774 426.213, 181.512 425.909, 188.663 431.851 C 200.490 441.680, 204.209 441.681, 214.690 431.862 C 221.822 425.181, 224.131 425.399, 233.323 433.622 C 241.464 440.905, 246.603 440.566, 256.384 432.101 C 262.416 426.880, 265.968 426.686, 271.986 431.250 C 279.766 437.150, 281.460 437.989, 285.600 437.995 C 288.685 437.999, 290.761 437.195, 293.986 434.750 C 304.270 426.951, 306.542 426.416, 312.102 430.489 C 326.567 441.083, 327.919 441.238, 337.532 433.403 C 345.674 426.766, 348.642 427.102, 356.501 435.547 C 368.449 448.384, 374.933 439.094, 365.478 422.685 C 354.187 403.088, 347.981 400.603, 336.440 411.055 C 328.746 418.022, 325.703 417.934, 317.179 410.500 C 307.768 402.292, 302.738 402.767, 293.319 412.750 C 287.344 419.084, 284.153 418.769, 275.581 411 C 265.859 402.190, 261.625 402.497, 251.208 412.768 C 245.276 418.617, 241.592 418.612, 235.804 412.750 C 225.699 402.516, 220.985 402.176, 211.500 411 C 203.325 418.605, 201.176 418.787, 193.787 412.503 C 183.013 403.338, 178.242 402.920, 170.136 410.427 C 161.307 418.604, 159.170 418.672, 150.465 411.054 C 141.430 403.148, 136.568 403.150, 127.528 411.060 C 120.043 417.610, 116.329 417.802, 109.714 411.980 C 105.527 408.294, 99.188 404.804, 97.282 405.136 C 96.852 405.211, 95.469 405.470, 94.208 405.711" stroke="none" fill="#7e7e7e" fill-rule="evenodd"/><path d="M 38.500 29.501 C 33.625 31.228, 30.412 34.756, 29.026 39.904 C 28.313 42.552, 28.065 116.783, 28.242 274.638 C 28.533 535.209, 27.700 509.568, 36.035 514.465 C 41.519 517.686, 1230.481 517.686, 1235.965 514.465 C 1244.309 509.562, 1243.500 535.552, 1243.500 272.500 C 1243.500 9.448, 1244.309 35.438, 1235.965 30.535 C 1231.398 27.853, 46.044 26.829, 38.500 29.501 M 817.911 129.829 C 812.917 131.848, 784.259 150.450, 782.282 152.956 C 779.134 156.945, 780.970 162.020, 787 166 C 799.213 174.063, 801.477 179.005, 802.450 199.725 C 802.791 206.998, 803.676 214.648, 804.415 216.725 C 806.465 222.485, 840.228 289.033, 842.740 292.266 C 845.091 295.291, 862.077 333.339, 864.497 341 C 868.723 354.382, 866.929 363.034, 852.608 398.330 C 838.592 432.876, 837.105 434.399, 816.500 435.298 C 796.315 436.179, 787.847 444.920, 803.179 449.048 C 811.729 451.350, 910.766 450.867, 915.500 448.500 C 921.755 445.372, 921.629 441.516, 915.061 435.153 C 908.962 429.243, 908.460 425.206, 912.618 415.500 C 922.074 393.426, 924.124 384.447, 922.592 371.814 C 921.597 363.617, 923.751 360.537, 931.124 359.611 C 933.531 359.309, 942.925 358.156, 952 357.050 C 997.658 351.485, 1008.872 335.031, 982.252 312.666 C 971.614 303.729, 958.850 286.210, 946.590 263.718 C 941.414 254.223, 929.320 237.911, 925.695 235.536 C 923.659 234.202, 919.356 229.187, 903.993 210.246 C 901.203 206.806, 895.373 201.057, 891.037 197.470 C 881.035 189.195, 877.950 184.478, 874.574 172.297 C 865.699 140.277, 839.898 120.940, 817.911 129.829 M 1113.500 130.299 C 1110.750 131.618, 1105.405 135.240, 1101.623 138.349 C 1097.840 141.457, 1094.015 144.070, 1093.123 144.156 C 1092.230 144.242, 1087.303 144.354, 1082.173 144.406 C 1069.707 144.532, 1066.390 147.434, 1067.319 157.405 C 1070.445 190.956, 1073.334 195.764, 1092.047 198.559 C 1105.661 200.593, 1106.860 202.354, 1101.662 212.683 C 1094.251 227.408, 1092.656 237.146, 1095.598 249.688 C 1097.753 258.870, 1097.012 266.053, 1093.112 273.777 C 1085.889 288.088, 1094.812 291.122, 1107 278.500 C 1120.327 264.698, 1125.100 270.595, 1119.073 293.417 C 1115.221 308.005, 1114.249 313.361, 1113.107 326.309 C 1111.295 346.839, 1108.909 347.028, 1089.633 328.165 C 1055.926 295.178, 1022.530 311.590, 1042.633 351.262 C 1047.342 360.554, 1054.109 377.267, 1055.626 383.348 C 1056.470 386.732, 1058.024 392.360, 1059.080 395.855 C 1061.620 404.264, 1061.589 415.447, 1059 424.500 C 1056.344 433.786, 1056.422 438.846, 1059.287 443.102 C 1063.371 449.169, 1062.203 449.043, 1118.724 449.538 C 1147.201 449.788, 1173.459 450.238, 1177.075 450.539 C 1197.014 452.199, 1203.145 444.071, 1193.087 429.310 C 1186.535 419.696, 1185.891 416.185, 1187.756 400.283 C 1190.986 372.754, 1189.405 273.986, 1185.535 261.500 C 1183.788 255.863, 1178.131 229.660, 1177.312 223.410 C 1176.818 219.638, 1177.136 218.914, 1181.388 214.126 C 1185.820 209.136, 1186.452 207.486, 1186.029 202 C 1185.643 196.999, 1181.332 190.345, 1173.621 182.851 C 1165.742 175.194, 1165.742 175.194, 1164.861 165.607 C 1162.269 137.412, 1136.132 119.444, 1113.500 130.299 M 128.291 139.250 C 127.160 140.488, 125.484 142.982, 124.568 144.794 C 119.118 155.574, 104.763 155.406, 94.428 144.442 C 87.403 136.990, 85.853 136.657, 81.610 141.687 C 76.815 147.370, 71.660 152.205, 66.866 155.514 C 58.593 161.224, 58.500 161.725, 58.500 200.500 C 58.500 253.681, 35.744 246.943, 216.398 247.248 C 387.540 247.537, 374.802 247.671, 378.924 245.539 C 391.885 238.837, 389.497 161.689, 376.065 153.197 C 372.196 150.750, 368.662 147.423, 366.234 143.939 C 360.711 136.018, 357.610 135.906, 352.054 143.427 C 343.161 155.465, 328.846 155.749, 320.445 144.056 C 314.681 136.033, 311.604 135.914, 306.003 143.495 C 296.346 156.568, 282.955 156.532, 275.034 143.413 C 269.513 134.268, 265.716 134.527, 260.128 144.428 C 256.296 151.217, 250.788 153.682, 242.263 152.423 C 237.481 151.717, 235.616 150.267, 227.145 140.668 C 223.449 136.480, 221.205 137.188, 214.398 144.691 C 204.444 155.664, 192.623 155.173, 183.946 143.427 C 178.377 135.888, 175.292 136.013, 169.724 144 C 161.121 156.342, 147.074 156.062, 139.650 143.401 C 135.447 136.232, 132.152 135.028, 128.291 139.250 M 1119 145.081 C 1110.023 149.145, 1105.675 155.320, 1105.680 164 C 1105.691 183.580, 1130.738 194.038, 1143.633 179.847 C 1159.601 162.275, 1140.517 135.341, 1119 145.081 M 828.401 145.416 C 826.696 146.164, 824.356 148.307, 823.200 150.177 C 822.044 152.046, 819.302 154.586, 817.107 155.820 C 811.847 158.776, 811.471 160.487, 814.057 169.703 C 815.676 175.474, 816.408 181.700, 816.917 194.044 C 818.105 222.811, 831.172 244.239, 836.368 225.937 C 839.322 215.530, 846.159 209.052, 854.227 209.016 C 861.526 208.984, 862.562 214.359, 856.863 222.680 C 850.886 231.407, 858.847 257.667, 869.424 264.117 C 874.643 267.300, 876.320 265.760, 877.949 256.288 C 879.253 248.708, 881.977 244.129, 887.936 239.500 C 899.639 230.410, 897.276 222.173, 878.245 205.710 C 865.992 195.110, 863.663 191.444, 861.017 178.580 C 856.447 156.371, 840.462 140.118, 828.401 145.416 M 90.500 168 C 73.277 168.861, 73 169.368, 73 200.067 C 73 224.734, 73.601 227.627, 79.385 230.794 C 84.195 233.428, 359.805 233.428, 364.615 230.794 C 374.705 225.268, 374.254 173.586, 364.078 169.219 C 360.503 167.684, 118.382 166.606, 90.500 168 M 1122.123 230.085 C 1111.454 232.342, 1108.108 243.308, 1116.246 249.347 C 1122.132 253.715, 1133.587 251.030, 1136.673 244.560 C 1140.634 236.253, 1132.276 227.938, 1122.123 230.085 M 902 248.170 C 895.970 252.212, 894 257.664, 894 270.311 C 894 290.647, 885.377 297.505, 872.253 287.606 C 862.996 280.625, 860.472 279.062, 858 278.782 C 852.450 278.155, 854.865 286.937, 865.317 305.383 C 883.179 336.908, 922.203 350.703, 965.849 340.922 C 977.901 338.221, 979.290 332.272, 970.114 322.663 C 962.840 315.046, 948.900 296.003, 941.603 283.714 C 920.998 249.015, 912.336 241.241, 902 248.170 M 444.854 249.382 C 427.319 253.154, 423.088 267.011, 434.498 283.300 C 436.965 286.823, 436.306 291.073, 432.388 296.891 C 415.029 322.667, 448.172 337.409, 489.405 322.253 C 499.500 318.542, 499.500 318.542, 598 318.021 C 680.382 317.585, 696.909 317.268, 699 316.085 C 701.582 314.623, 708.098 309.357, 715.615 302.657 C 729.463 290.312, 725.141 267.485, 707.500 259.806 C 705.121 258.770, 683.177 258.396, 601.500 258 C 498.500 257.500, 498.500 257.500, 486.967 253.833 C 469.380 248.242, 456.488 246.879, 444.854 249.382 M 495 274.430 C 467.755 282.093, 469.467 297.831, 498.111 303.031 C 507.185 304.679, 689.394 303.826, 694.497 302.112 C 708.244 297.495, 713.155 280.776, 702.341 275.407 C 697.436 272.972, 503.435 272.058, 495 274.430 M 1158.557 278.223 C 1157.357 279.936, 1157 283.208, 1157 292.500 C 1157 306.042, 1155.954 309.012, 1151.193 308.985 C 1147.377 308.963, 1146.022 307.848, 1142.482 301.819 C 1135.099 289.245, 1131.081 298.735, 1127.536 337.124 C 1126.691 346.267, 1126 356.999, 1126 360.972 C 1126 371.230, 1122.005 378, 1115.951 378 C 1110.951 378, 1103.075 369.904, 1091.735 353.104 C 1077.680 332.284, 1061.085 321.329, 1055.557 329.223 C 1052.463 333.639, 1054.106 340.301, 1063.762 362.500 C 1065.676 366.900, 1068.255 374.775, 1069.494 380 C 1070.733 385.225, 1072.704 392.585, 1073.874 396.355 C 1075.468 401.495, 1076 405.820, 1076 413.637 C 1076 435.216, 1074.177 434.423, 1124.630 434.802 C 1174.709 435.178, 1171 436.773, 1172.100 414.391 C 1172.503 406.201, 1173.368 393.200, 1174.023 385.500 C 1175.425 369.011, 1174.783 303.542, 1173.108 292.140 C 1171.223 279.304, 1163.184 271.616, 1158.557 278.223 M 885.291 352.509 C 882.793 354.258, 880.241 360.645, 876.472 374.580 C 874.996 380.036, 872.273 388.100, 870.422 392.500 C 854.617 430.051, 856.298 438.731, 878.568 434.553 C 890.154 432.380, 908.964 396.373, 907.819 378.561 C 906.893 364.155, 892.473 347.478, 885.291 352.509 M 94.208 405.711 C 89.368 406.638, 77.098 424.258, 75.408 432.710 C 73.890 440.298, 80.959 441.970, 87.793 435.640 C 96.360 427.704, 98.715 427.335, 105.681 432.842 C 116.530 441.418, 120.424 441.443, 129.500 433 C 137.219 425.819, 142.006 425.439, 147.073 431.605 C 153.871 439.878, 168.319 440.430, 171.349 432.532 C 173.774 426.213, 181.512 425.909, 188.663 431.851 C 200.490 441.680, 204.209 441.681, 214.690 431.862 C 221.822 425.181, 224.131 425.399, 233.323 433.622 C 241.464 440.905, 246.603 440.566, 256.384 432.101 C 262.416 426.880, 265.968 426.686, 271.986 431.250 C 279.766 437.150, 281.460 437.989, 285.600 437.995 C 288.685 437.999, 290.761 437.195, 293.986 434.750 C 304.270 426.951, 306.542 426.416, 312.102 430.489 C 326.567 441.083, 327.919 441.238, 337.532 433.403 C 345.674 426.766, 348.642 427.102, 356.501 435.547 C 368.449 448.384, 374.933 439.094, 365.478 422.685 C 354.187 403.088, 347.981 400.603, 336.440 411.055 C 328.746 418.022, 325.703 417.934, 317.179 410.500 C 307.768 402.292, 302.738 402.767, 293.319 412.750 C 287.344 419.084, 284.153 418.769, 275.581 411 C 265.859 402.190, 261.625 402.497, 251.208 412.768 C 245.276 418.617, 241.592 418.612, 235.804 412.750 C 225.699 402.516, 220.985 402.176, 211.500 411 C 203.325 418.605, 201.176 418.787, 193.787 412.503 C 183.013 403.338, 178.242 402.920, 170.136 410.427 C 161.307 418.604, 159.170 418.672, 150.465 411.054 C 141.430 403.148, 136.568 403.150, 127.528 411.060 C 120.043 417.610, 116.329 417.802, 109.714 411.980 C 105.527 408.294, 99.188 404.804, 97.282 405.136 C 96.852 405.211, 95.469 405.470, 94.208 405.711" stroke="none" fill="#f1f1f1" fill-rule="evenodd"/></svg>