<svg xmlns="http://www.w3.org/2000/svg" width="1212" height="1272" viewBox="0 0 1212 1272" version="1.1"><path d="M 300.500 220.178 C 299.400 220.792, 296.017 223.591, 292.982 226.397 C 289.947 229.204, 285.350 232.942, 282.767 234.704 C 279.215 237.128, 277.237 239.564, 274.646 244.704 C 271.254 251.437, 256.330 268.147, 251.312 270.833 C 245.713 273.829, 241.875 271.734, 236.614 262.810 C 234.540 259.294, 230.971 255.045, 228.551 253.214 C 225.717 251.068, 222.981 247.597, 220.671 243.214 C 211.159 225.169, 186.267 215.787, 178.669 227.382 C 177.774 228.749, 172.349 235.733, 166.615 242.903 C 160.488 250.563, 155.531 257.808, 154.594 260.470 C 153.717 262.961, 152.306 266.976, 151.459 269.392 C 150.611 271.807, 147.610 276.420, 144.790 279.642 C 131.295 295.060, 129.323 312.362, 140.033 321.374 C 146.546 326.855, 154.059 322.575, 161.385 309.210 C 163.466 305.413, 167.131 300.405, 169.530 298.081 C 172.046 295.642, 174.611 291.876, 175.594 289.177 C 182.521 270.169, 184.691 268.475, 196.823 272.611 C 208.478 276.583, 210.266 277.998, 214.518 286.602 C 217.909 293.465, 218.900 294.590, 224.990 298.493 C 228.744 300.900, 232.687 304.376, 233.914 306.360 C 241.519 318.666, 249.340 318.478, 265.318 305.605 C 273.514 299.002, 274.458 297.849, 278.684 289.280 C 282.519 281.504, 283.957 279.591, 287.866 277.066 C 290.415 275.420, 294.056 271.772, 295.959 268.960 C 302.737 258.940, 309.527 259.272, 314.942 269.887 C 316.056 272.070, 319.497 276.026, 322.588 278.678 C 326.726 282.228, 329.156 285.432, 331.801 290.824 C 343.737 315.161, 368.984 322.661, 378.725 304.764 C 380.253 301.957, 383.512 298.343, 386.662 295.965 C 390.496 293.070, 392.869 290.222, 395.060 285.881 C 406.470 263.277, 423.986 260.742, 434.016 280.241 C 438.940 289.813, 440.709 291.963, 446.965 295.978 C 449.484 297.594, 452.660 300.782, 454.023 303.061 C 464.547 320.669, 481.896 318.395, 497.116 297.414 C 500.627 292.574, 506.296 285.795, 509.713 282.351 C 513.130 278.907, 517.271 273.426, 518.914 270.170 C 523.621 260.846, 526.987 260.576, 534.964 268.881 C 538.070 272.115, 542.387 275.667, 544.556 276.774 C 549.650 279.374, 551.287 281.277, 554.285 288.087 C 555.941 291.847, 558.172 294.790, 561.108 297.087 C 563.507 298.964, 568.677 303.823, 572.597 307.884 C 583.586 319.267, 589.232 319.162, 601.621 307.341 C 604.988 304.128, 609.745 299.687, 612.192 297.471 C 615.254 294.697, 617.242 291.750, 618.570 288.015 C 620.507 282.567, 621.324 281.593, 634.718 268.750 C 644.469 259.400, 648.135 259.734, 652.854 270.403 C 653.966 272.916, 657.955 278.241, 661.719 282.236 C 665.482 286.231, 670.759 293.325, 673.445 298 C 681.776 312.503, 684.078 313.984, 698.300 313.994 C 708.175 314.001, 710.861 312.627, 715.357 305.267 C 717.294 302.095, 721.650 296.800, 725.036 293.500 C 728.422 290.200, 733.827 283.612, 737.047 278.861 C 745.881 265.827, 748.662 264.375, 759.545 267.116 C 764.582 268.384, 770.260 273.902, 772.660 279.860 C 777.083 290.842, 779.042 293.745, 784.459 297.342 C 787.455 299.331, 791.740 303.440, 793.981 306.474 C 805.542 322.124, 829.034 313.651, 841.326 289.398 C 842.191 287.692, 846.004 283.543, 849.800 280.177 C 853.597 276.811, 857.774 272.494, 859.083 270.584 C 863.855 263.619, 868.363 263.861, 872.137 271.283 C 874.677 276.277, 880.297 284.374, 886.516 292 C 889.311 295.427, 891.803 299.950, 893.127 304 C 897.144 316.282, 901.319 319.545, 914.434 320.654 C 928.183 321.816, 932.239 312.763, 924.107 299.060 C 921.966 295.452, 919.204 289.350, 917.970 285.500 C 916.095 279.652, 914.758 277.538, 909.839 272.653 C 903.091 265.952, 902.338 264.671, 898.144 252.767 C 894.153 241.437, 892.755 239.443, 886.209 235.749 C 883.216 234.059, 878.171 230.050, 875 226.839 C 867.281 219.023, 864.186 218.853, 856.690 225.831 C 853.836 228.489, 848.689 232.345, 845.254 234.402 C 839.525 237.831, 838.703 238.775, 835.326 245.820 C 832.488 251.738, 829.907 255.184, 824.072 260.839 C 808.712 275.727, 804.143 275.884, 797.539 261.747 C 795.763 257.945, 793.143 254.554, 789.814 251.747 C 787.043 249.411, 782.848 244.521, 780.492 240.881 C 771.384 226.804, 751.307 219.601, 741.400 226.856 C 732.198 233.595, 718.563 249.239, 713.761 258.568 C 704.337 276.878, 691.777 274.514, 676.209 251.500 C 672.477 245.983, 668.141 240.990, 665.003 238.599 C 662.188 236.453, 657.867 231.869, 655.400 228.412 C 648.342 218.522, 644.779 218.113, 632.711 225.808 C 629.527 227.839, 624.806 230.850, 622.219 232.500 C 618.346 234.970, 616.851 236.867, 613.748 243.247 C 610.561 249.797, 609.161 251.537, 604.682 254.511 C 601.681 256.503, 598.326 259.827, 596.942 262.178 C 589.603 274.651, 583.489 275.357, 576.565 264.533 C 574.315 261.017, 571.083 257.786, 567.330 255.303 C 562.342 252.002, 561.198 250.626, 558.933 245.196 C 555.418 236.774, 552.910 233.597, 547.252 230.407 C 544.638 228.933, 540.238 226.275, 537.474 224.502 C 531.201 220.477, 528.732 219.680, 525.040 220.491 C 521.355 221.301, 500.696 241.439, 496.171 248.632 C 490.419 257.777, 478.303 267.647, 470.644 269.427 C 466.733 270.337, 463.903 268.261, 460.263 261.813 C 458.613 258.891, 453.942 253.089, 449.882 248.920 C 445.822 244.751, 439.933 238.399, 436.796 234.806 C 421.014 216.727, 403.560 219, 391.674 240.682 C 389.052 245.466, 386.240 248.901, 382.653 251.702 C 379.436 254.215, 376.346 257.826, 374.579 261.136 C 370.562 268.662, 368.206 271, 364.641 271 C 356.118 271, 343.389 260.280, 337.945 248.516 C 333.941 239.865, 332.952 238.738, 325.789 234.650 C 323.198 233.171, 319.148 229.690, 316.789 226.914 C 310.480 219.489, 305.454 217.411, 300.500 220.178 M 298.324 594.439 C 288.142 597.623, 280.264 605.598, 273.231 619.838 C 268.845 628.719, 268.027 629.738, 262 633.828 C 258.425 636.254, 253.811 639.760, 251.747 641.619 C 247.034 645.865, 246.425 645.841, 242.359 641.250 C 240.533 639.188, 235.218 633.307, 230.549 628.181 C 224.153 621.161, 220.942 616.582, 217.531 609.616 C 212.134 598.595, 209.577 596.730, 197.580 595.069 C 182.734 593.014, 177.723 595.390, 172.420 607 C 171.038 610.025, 167.724 614.750, 165.056 617.500 C 159.619 623.104, 157.228 627.426, 152.441 640.301 C 149.568 648.028, 148.377 649.892, 143.158 654.832 C 130.353 666.955, 128.187 690.266, 139.241 697.005 C 147.319 701.931, 154.191 698.249, 159.726 686.028 C 161.730 681.603, 164.947 676.645, 167.530 674 C 170.384 671.077, 174.067 665.179, 178.042 657.166 C 187.603 637.889, 201.941 635.787, 211.554 652.251 C 216.308 660.393, 219.809 664.595, 230.911 675.483 C 244.528 688.839, 246.106 689.316, 255.856 683.015 C 259.247 680.823, 263.704 678.167, 265.761 677.112 C 270.667 674.596, 273.136 671.779, 276.816 664.500 C 286.351 645.637, 305.003 633.483, 312.237 641.420 C 314.582 643.992, 319.939 649.563, 324.142 653.799 C 329.694 659.394, 332.540 663.221, 334.548 667.793 C 337.863 675.341, 339.581 676.646, 352.402 681.360 C 364.137 685.674, 365.986 685.784, 371.591 682.500 C 378.112 678.678, 395.309 658.877, 399.641 650.202 C 407.109 635.249, 425.976 634.105, 432.708 648.197 C 435.423 653.880, 442.208 662, 444.241 662 C 444.681 662, 447.027 665.071, 449.456 668.825 C 458.829 683.315, 463.915 685.620, 478.668 682.063 C 490.808 679.136, 494.520 676.429, 498.747 667.421 C 501.297 661.986, 503.170 659.594, 507.465 656.280 C 511.053 653.512, 513.835 650.286, 515.549 646.904 C 524.228 629.777, 540.917 635.385, 553.030 659.500 C 564.011 681.359, 581.770 689.034, 599.439 679.556 C 611.185 673.255, 611.325 673.118, 616.980 662.370 C 630.132 637.372, 646.574 630.717, 655.401 646.819 C 657.977 651.518, 660.728 654.816, 664.525 657.754 C 668.700 660.983, 670.623 663.416, 672.808 668.230 C 677.503 678.572, 682.656 681.935, 696.286 683.553 C 704.742 684.556, 710.361 682.680, 715.945 676.987 C 730.416 662.234, 739.947 649.316, 739.990 644.396 C 740.038 638.952, 748.439 636.676, 758.546 639.368 C 766.310 641.435, 767.430 642.375, 771.454 650.207 C 773.581 654.347, 777.869 660.310, 781.371 664 C 784.765 667.575, 790.202 673.568, 793.453 677.319 C 803.176 688.533, 805.127 688.951, 817.664 682.500 C 822.473 680.025, 826.889 678, 827.477 678 C 829.816 678, 835.875 671.789, 837.934 667.279 C 839.194 664.520, 842.944 659.750, 846.808 655.992 C 850.489 652.413, 855.075 647.268, 857 644.559 C 863.447 635.485, 868.729 636.366, 874.562 647.488 C 876.395 650.985, 879.924 655.368, 883.358 658.415 C 888.658 663.118, 889.357 664.262, 892.570 673.485 C 899.248 692.659, 901.905 695.003, 916.962 694.996 C 933.529 694.989, 937.927 686.674, 927.480 675.110 C 925.496 672.913, 922.393 667.556, 920.585 663.205 C 917.172 654.989, 914.286 650.508, 906.095 640.707 C 902.226 636.077, 900.791 633.266, 898.950 626.707 C 896.798 619.040, 896.210 618.073, 890.009 612 C 886.358 608.425, 882.087 603.783, 880.517 601.684 C 875.222 594.606, 866.342 592.159, 858.239 595.544 C 851.124 598.517, 835.744 615.648, 832.547 624.160 C 830.607 629.325, 827.730 632.357, 821 636.328 C 818.525 637.788, 814.636 640.382, 812.357 642.093 C 806.947 646.153, 805.083 645.498, 799.814 637.679 C 797.523 634.281, 792.531 628.141, 788.719 624.036 C 783.958 618.908, 780.492 613.915, 777.644 608.086 C 768.834 590.046, 742.604 588.806, 733.568 606.002 C 730.999 610.891, 728.602 613.880, 725.412 616.170 C 722.584 618.201, 719.299 622.048, 716.628 626.457 C 709.701 637.894, 704.677 639.888, 691.460 636.449 C 683.160 634.289, 681.491 632.924, 677.529 625.057 C 675.192 620.418, 672.393 616.740, 668.983 613.829 C 666.194 611.448, 662.556 607.150, 660.898 604.277 C 650.545 586.336, 629.070 591.150, 613.928 614.807 C 610.515 620.138, 605.133 627.012, 601.968 630.082 C 598.802 633.152, 595.212 637.652, 593.990 640.082 C 588.593 650.810, 584.654 650.743, 578.118 639.811 C 576.905 637.782, 573.205 633.777, 569.897 630.911 C 566.575 628.032, 562.836 623.640, 561.546 621.100 C 547.952 594.318, 521.534 585.386, 511.336 604.124 C 509.631 607.256, 506.485 610.769, 503.045 613.383 C 498.927 616.510, 496.725 619.174, 494.488 623.729 C 490.381 632.095, 488.066 634.275, 479.450 637.892 C 466.680 643.252, 463.608 641.964, 456.983 628.466 C 453.351 621.065, 452.069 619.448, 447.207 616.137 C 442.712 613.075, 440.913 610.973, 438.056 605.441 C 429.534 588.942, 403.244 589.731, 394.988 606.733 C 392.752 611.338, 389.258 616.245, 385.375 620.233 C 382.020 623.680, 377.797 628.750, 375.990 631.500 C 368.893 642.304, 365.508 644.037, 359.500 639.942 C 357.850 638.818, 354.250 636.746, 351.500 635.339 C 344.600 631.807, 342.167 629.359, 339.419 623.187 C 337.683 619.287, 334.010 614.849, 325.615 606.508 C 311.817 592.800, 308.400 591.289, 298.324 594.439 M 293.500 970.980 C 288.550 974.247, 283.534 977.598, 282.354 978.428 C 281.173 979.258, 278.606 982.764, 276.649 986.218 C 262.905 1010.484, 244.693 1019.588, 237.079 1006 C 234.254 1000.959, 232.122 998.621, 227.580 995.583 C 222.708 992.325, 221.258 990.644, 218.951 985.583 C 214.855 976.594, 212.168 974.530, 200.538 971.434 C 184.652 967.206, 179.302 969.187, 172.707 981.738 C 170.224 986.464, 167.215 990.252, 163.113 993.820 C 158.373 997.943, 156.705 1000.206, 155.049 1004.759 C 153.900 1007.917, 152.284 1012.343, 151.457 1014.595 C 150.630 1016.847, 146.813 1022.472, 142.976 1027.095 C 132.340 1039.908, 130.438 1049.849, 136.101 1063.013 C 141.687 1075.999, 149.113 1074.118, 158.468 1057.347 C 161.183 1052.481, 165.995 1045.780, 169.163 1042.455 C 172.635 1038.812, 175.956 1034.045, 177.523 1030.455 C 183.547 1016.663, 185.765 1015.105, 196.744 1016.957 C 206.073 1018.530, 209.708 1021.049, 213.813 1028.786 C 216.194 1033.273, 218.652 1036.157, 222.550 1039.037 C 225.533 1041.241, 229.672 1045.622, 231.748 1048.772 C 244.499 1068.128, 266.598 1059.285, 282.005 1028.661 C 282.791 1027.099, 286.419 1023.175, 290.068 1019.940 C 293.717 1016.705, 297.774 1012.494, 299.083 1010.584 C 303.914 1003.534, 306.712 1003.974, 313.206 1012.805 C 315.510 1015.937, 319.590 1020.485, 322.273 1022.911 C 325.246 1025.598, 329.546 1031.392, 333.279 1037.735 C 347.296 1061.561, 369.393 1065.605, 379.958 1046.278 C 381.467 1043.517, 384.936 1039.740, 388.497 1036.982 C 392.566 1033.829, 395.620 1030.355, 397.997 1026.174 C 402.036 1019.070, 403.423 1017.949, 413.138 1013.943 C 424.018 1009.457, 430.105 1011.136, 432.558 1019.301 C 435.072 1027.664, 439.122 1033.798, 444.481 1037.356 C 448.268 1039.870, 451.190 1042.921, 453.755 1047.038 C 458.827 1055.179, 463.483 1057.521, 472.864 1056.649 C 487.296 1055.308, 491.314 1053.010, 496.608 1043.069 C 498.198 1040.082, 502.670 1034.182, 506.545 1029.958 C 510.420 1025.733, 515.595 1019.318, 518.045 1015.702 C 524.977 1005.469, 526.292 1005.225, 535.043 1012.536 C 537.428 1014.528, 541.505 1017.236, 544.104 1018.553 C 548.565 1020.813, 554 1028.743, 554 1032.992 C 554 1035.107, 573.466 1054.263, 577.500 1056.117 C 590.469 1062.079, 608.370 1051.769, 616.955 1033.391 C 618.726 1029.601, 620.848 1025.099, 621.671 1023.387 C 622.494 1021.675, 625.020 1019.233, 627.285 1017.960 C 629.550 1016.687, 634.008 1013.250, 637.193 1010.323 C 645.136 1003.021, 648.146 1003.486, 652.870 1012.745 C 653.944 1014.851, 658.263 1020.379, 662.467 1025.030 C 667.911 1031.051, 671.390 1036.097, 674.554 1042.558 C 684.106 1062.064, 709.885 1063.960, 719.073 1045.833 C 720.781 1042.462, 723.921 1038.500, 726.819 1036.056 C 729.788 1033.552, 733.174 1029.243, 735.485 1025.027 C 745.509 1006.741, 765.066 1007.952, 774.439 1027.439 C 777.408 1033.612, 778.782 1035.310, 782.824 1037.797 C 787.619 1040.747, 790.081 1043.344, 794.306 1049.908 C 804.063 1065.066, 823.629 1059.137, 838.549 1036.500 C 842.579 1030.387, 847.816 1023.834, 850.339 1021.751 C 852.836 1019.689, 856.594 1015.528, 858.689 1012.505 C 865.233 1003.065, 867.449 1003.767, 874.132 1017.390 C 877.797 1024.862, 880.648 1029.076, 885.058 1033.539 C 890.249 1038.794, 891.337 1040.590, 893.425 1047.358 C 898.516 1063.859, 915.950 1073.907, 924.557 1065.300 C 929.785 1060.073, 918.920 1024.541, 909.024 1014.500 C 904.453 1009.863, 902.319 1006.614, 899.625 1000.197 C 894.605 988.236, 890.933 983.068, 882.340 975.871 C 865.526 961.789, 865.983 961.829, 850.977 973.132 C 841.861 979.998, 840.522 981.495, 834.994 991 C 821.309 1014.532, 805.503 1020.362, 797.368 1004.881 C 794.385 999.204, 792.570 997.071, 788.326 994.253 C 784.064 991.423, 782.439 989.507, 780.094 984.543 C 770.130 963.454, 741.647 963.063, 729.962 983.853 C 728.660 986.170, 725.255 989.832, 722.395 991.991 C 718.262 995.112, 716.467 997.452, 713.644 1003.398 C 708.833 1013.534, 705.893 1014.769, 694.475 1011.450 C 687.687 1009.476, 684.812 1007.179, 680.337 1000.153 C 674.693 991.292, 654.252 970.008, 649.262 967.795 C 639.584 963.506, 620.524 973.054, 614.362 985.280 C 612.344 989.283, 608.396 994.667, 604.722 998.423 C 601.300 1001.923, 596.665 1006.859, 594.423 1009.393 C 587.221 1017.532, 582.984 1016.285, 568.720 1001.828 C 561.709 994.722, 559.758 992.043, 557.915 986.988 C 553.645 975.275, 530.698 963.355, 521.684 968.166 C 509.334 974.758, 499.947 984.596, 492.265 999 C 482.983 1016.403, 463.696 1019.033, 458.326 1003.629 C 457.014 999.867, 454.777 996.767, 449.933 992 C 446.301 988.425, 442.323 983.820, 441.094 981.767 C 429.797 962.906, 400.981 964.284, 390.922 984.167 C 389.175 987.620, 386.077 991.502, 382.996 994.100 C 380.214 996.446, 376.575 1000.746, 374.911 1003.656 C 366.240 1018.811, 352.320 1015.189, 337.992 994.048 C 333.581 987.541, 328.291 980.954, 326.236 979.411 C 324.181 977.867, 320.025 974.500, 317 971.928 C 306.678 963.152, 305.438 963.102, 293.500 970.980" stroke="none" fill="#686868" fill-rule="evenodd"/><path d="M 38.500 29.501 C 33.630 31.226, 30.412 34.755, 29.031 39.885 C 26.703 48.530, 28.192 1231.975, 30.535 1235.965 C 31.655 1237.870, 34.130 1240.345, 36.035 1241.465 C 41.518 1244.686, 1170.482 1244.686, 1175.965 1241.465 C 1177.870 1240.345, 1180.345 1237.870, 1181.465 1235.965 C 1184.686 1230.481, 1184.686 41.519, 1181.465 36.035 C 1180.345 34.130, 1177.870 31.655, 1175.965 30.535 C 1171.398 27.852, 46.043 26.829, 38.500 29.501 M 300.500 220.178 C 299.400 220.792, 296.017 223.591, 292.982 226.397 C 289.947 229.204, 285.350 232.942, 282.767 234.704 C 279.215 237.128, 277.237 239.564, 274.646 244.704 C 271.254 251.437, 256.330 268.147, 251.312 270.833 C 245.713 273.829, 241.875 271.734, 236.614 262.810 C 234.540 259.294, 230.971 255.045, 228.551 253.214 C 225.717 251.068, 222.981 247.597, 220.671 243.214 C 211.159 225.169, 186.267 215.787, 178.669 227.382 C 177.774 228.749, 172.349 235.733, 166.615 242.903 C 160.488 250.563, 155.531 257.808, 154.594 260.470 C 153.717 262.961, 152.306 266.976, 151.459 269.392 C 150.611 271.807, 147.610 276.420, 144.790 279.642 C 131.295 295.060, 129.323 312.362, 140.033 321.374 C 146.546 326.855, 154.059 322.575, 161.385 309.210 C 163.466 305.413, 167.131 300.405, 169.530 298.081 C 172.046 295.642, 174.611 291.876, 175.594 289.177 C 182.521 270.169, 184.691 268.475, 196.823 272.611 C 208.478 276.583, 210.266 277.998, 214.518 286.602 C 217.909 293.465, 218.900 294.590, 224.990 298.493 C 228.744 300.900, 232.687 304.376, 233.914 306.360 C 241.519 318.666, 249.340 318.478, 265.318 305.605 C 273.514 299.002, 274.458 297.849, 278.684 289.280 C 282.519 281.504, 283.957 279.591, 287.866 277.066 C 290.415 275.420, 294.056 271.772, 295.959 268.960 C 302.737 258.940, 309.527 259.272, 314.942 269.887 C 316.056 272.070, 319.497 276.026, 322.588 278.678 C 326.726 282.228, 329.156 285.432, 331.801 290.824 C 343.737 315.161, 368.984 322.661, 378.725 304.764 C 380.253 301.957, 383.512 298.343, 386.662 295.965 C 390.496 293.070, 392.869 290.222, 395.060 285.881 C 406.470 263.277, 423.986 260.742, 434.016 280.241 C 438.940 289.813, 440.709 291.963, 446.965 295.978 C 449.484 297.594, 452.660 300.782, 454.023 303.061 C 464.547 320.669, 481.896 318.395, 497.116 297.414 C 500.627 292.574, 506.296 285.795, 509.713 282.351 C 513.130 278.907, 517.271 273.426, 518.914 270.170 C 523.621 260.846, 526.987 260.576, 534.964 268.881 C 538.070 272.115, 542.387 275.667, 544.556 276.774 C 549.650 279.374, 551.287 281.277, 554.285 288.087 C 555.941 291.847, 558.172 294.790, 561.108 297.087 C 563.507 298.964, 568.677 303.823, 572.597 307.884 C 583.586 319.267, 589.232 319.162, 601.621 307.341 C 604.988 304.128, 609.745 299.687, 612.192 297.471 C 615.254 294.697, 617.242 291.750, 618.570 288.015 C 620.507 282.567, 621.324 281.593, 634.718 268.750 C 644.469 259.400, 648.135 259.734, 652.854 270.403 C 653.966 272.916, 657.955 278.241, 661.719 282.236 C 665.482 286.231, 670.759 293.325, 673.445 298 C 681.776 312.503, 684.078 313.984, 698.300 313.994 C 708.175 314.001, 710.861 312.627, 715.357 305.267 C 717.294 302.095, 721.650 296.800, 725.036 293.500 C 728.422 290.200, 733.827 283.612, 737.047 278.861 C 745.881 265.827, 748.662 264.375, 759.545 267.116 C 764.582 268.384, 770.260 273.902, 772.660 279.860 C 777.083 290.842, 779.042 293.745, 784.459 297.342 C 787.455 299.331, 791.740 303.440, 793.981 306.474 C 805.542 322.124, 829.034 313.651, 841.326 289.398 C 842.191 287.692, 846.004 283.543, 849.800 280.177 C 853.597 276.811, 857.774 272.494, 859.083 270.584 C 863.855 263.619, 868.363 263.861, 872.137 271.283 C 874.677 276.277, 880.297 284.374, 886.516 292 C 889.311 295.427, 891.803 299.950, 893.127 304 C 897.144 316.282, 901.319 319.545, 914.434 320.654 C 928.183 321.816, 932.239 312.763, 924.107 299.060 C 921.966 295.452, 919.204 289.350, 917.970 285.500 C 916.095 279.652, 914.758 277.538, 909.839 272.653 C 903.091 265.952, 902.338 264.671, 898.144 252.767 C 894.153 241.437, 892.755 239.443, 886.209 235.749 C 883.216 234.059, 878.171 230.050, 875 226.839 C 867.281 219.023, 864.186 218.853, 856.690 225.831 C 853.836 228.489, 848.689 232.345, 845.254 234.402 C 839.525 237.831, 838.703 238.775, 835.326 245.820 C 832.488 251.738, 829.907 255.184, 824.072 260.839 C 808.712 275.727, 804.143 275.884, 797.539 261.747 C 795.763 257.945, 793.143 254.554, 789.814 251.747 C 787.043 249.411, 782.848 244.521, 780.492 240.881 C 771.384 226.804, 751.307 219.601, 741.400 226.856 C 732.198 233.595, 718.563 249.239, 713.761 258.568 C 704.337 276.878, 691.777 274.514, 676.209 251.500 C 672.477 245.983, 668.141 240.990, 665.003 238.599 C 662.188 236.453, 657.867 231.869, 655.400 228.412 C 648.342 218.522, 644.779 218.113, 632.711 225.808 C 629.527 227.839, 624.806 230.850, 622.219 232.500 C 618.346 234.970, 616.851 236.867, 613.748 243.247 C 610.561 249.797, 609.161 251.537, 604.682 254.511 C 601.681 256.503, 598.326 259.827, 596.942 262.178 C 589.603 274.651, 583.489 275.357, 576.565 264.533 C 574.315 261.017, 571.083 257.786, 567.330 255.303 C 562.342 252.002, 561.198 250.626, 558.933 245.196 C 555.418 236.774, 552.910 233.597, 547.252 230.407 C 544.638 228.933, 540.238 226.275, 537.474 224.502 C 531.201 220.477, 528.732 219.680, 525.040 220.491 C 521.355 221.301, 500.696 241.439, 496.171 248.632 C 490.419 257.777, 478.303 267.647, 470.644 269.427 C 466.733 270.337, 463.903 268.261, 460.263 261.813 C 458.613 258.891, 453.942 253.089, 449.882 248.920 C 445.822 244.751, 439.933 238.399, 436.796 234.806 C 421.014 216.727, 403.560 219, 391.674 240.682 C 389.052 245.466, 386.240 248.901, 382.653 251.702 C 379.436 254.215, 376.346 257.826, 374.579 261.136 C 370.562 268.662, 368.206 271, 364.641 271 C 356.118 271, 343.389 260.280, 337.945 248.516 C 333.941 239.865, 332.952 238.738, 325.789 234.650 C 323.198 233.171, 319.148 229.690, 316.789 226.914 C 310.480 219.489, 305.454 217.411, 300.500 220.178 M 298.324 594.439 C 288.142 597.623, 280.264 605.598, 273.231 619.838 C 268.845 628.719, 268.027 629.738, 262 633.828 C 258.425 636.254, 253.811 639.760, 251.747 641.619 C 247.034 645.865, 246.425 645.841, 242.359 641.250 C 240.533 639.188, 235.218 633.307, 230.549 628.181 C 224.153 621.161, 220.942 616.582, 217.531 609.616 C 212.134 598.595, 209.577 596.730, 197.580 595.069 C 182.734 593.014, 177.723 595.390, 172.420 607 C 171.038 610.025, 167.724 614.750, 165.056 617.500 C 159.619 623.104, 157.228 627.426, 152.441 640.301 C 149.568 648.028, 148.377 649.892, 143.158 654.832 C 130.353 666.955, 128.187 690.266, 139.241 697.005 C 147.319 701.931, 154.191 698.249, 159.726 686.028 C 161.730 681.603, 164.947 676.645, 167.530 674 C 170.384 671.077, 174.067 665.179, 178.042 657.166 C 187.603 637.889, 201.941 635.787, 211.554 652.251 C 216.308 660.393, 219.809 664.595, 230.911 675.483 C 244.528 688.839, 246.106 689.316, 255.856 683.015 C 259.247 680.823, 263.704 678.167, 265.761 677.112 C 270.667 674.596, 273.136 671.779, 276.816 664.500 C 286.351 645.637, 305.003 633.483, 312.237 641.420 C 314.582 643.992, 319.939 649.563, 324.142 653.799 C 329.694 659.394, 332.540 663.221, 334.548 667.793 C 337.863 675.341, 339.581 676.646, 352.402 681.360 C 364.137 685.674, 365.986 685.784, 371.591 682.500 C 378.112 678.678, 395.309 658.877, 399.641 650.202 C 407.109 635.249, 425.976 634.105, 432.708 648.197 C 435.423 653.880, 442.208 662, 444.241 662 C 444.681 662, 447.027 665.071, 449.456 668.825 C 458.829 683.315, 463.915 685.620, 478.668 682.063 C 490.808 679.136, 494.520 676.429, 498.747 667.421 C 501.297 661.986, 503.170 659.594, 507.465 656.280 C 511.053 653.512, 513.835 650.286, 515.549 646.904 C 524.228 629.777, 540.917 635.385, 553.030 659.500 C 564.011 681.359, 581.770 689.034, 599.439 679.556 C 611.185 673.255, 611.325 673.118, 616.980 662.370 C 630.132 637.372, 646.574 630.717, 655.401 646.819 C 657.977 651.518, 660.728 654.816, 664.525 657.754 C 668.700 660.983, 670.623 663.416, 672.808 668.230 C 677.503 678.572, 682.656 681.935, 696.286 683.553 C 704.742 684.556, 710.361 682.680, 715.945 676.987 C 730.416 662.234, 739.947 649.316, 739.990 644.396 C 740.038 638.952, 748.439 636.676, 758.546 639.368 C 766.310 641.435, 767.430 642.375, 771.454 650.207 C 773.581 654.347, 777.869 660.310, 781.371 664 C 784.765 667.575, 790.202 673.568, 793.453 677.319 C 803.176 688.533, 805.127 688.951, 817.664 682.500 C 822.473 680.025, 826.889 678, 827.477 678 C 829.816 678, 835.875 671.789, 837.934 667.279 C 839.194 664.520, 842.944 659.750, 846.808 655.992 C 850.489 652.413, 855.075 647.268, 857 644.559 C 863.447 635.485, 868.729 636.366, 874.562 647.488 C 876.395 650.985, 879.924 655.368, 883.358 658.415 C 888.658 663.118, 889.357 664.262, 892.570 673.485 C 899.248 692.659, 901.905 695.003, 916.962 694.996 C 933.529 694.989, 937.927 686.674, 927.480 675.110 C 925.496 672.913, 922.393 667.556, 920.585 663.205 C 917.172 654.989, 914.286 650.508, 906.095 640.707 C 902.226 636.077, 900.791 633.266, 898.950 626.707 C 896.798 619.040, 896.210 618.073, 890.009 612 C 886.358 608.425, 882.087 603.783, 880.517 601.684 C 875.222 594.606, 866.342 592.159, 858.239 595.544 C 851.124 598.517, 835.744 615.648, 832.547 624.160 C 830.607 629.325, 827.730 632.357, 821 636.328 C 818.525 637.788, 814.636 640.382, 812.357 642.093 C 806.947 646.153, 805.083 645.498, 799.814 637.679 C 797.523 634.281, 792.531 628.141, 788.719 624.036 C 783.958 618.908, 780.492 613.915, 777.644 608.086 C 768.834 590.046, 742.604 588.806, 733.568 606.002 C 730.999 610.891, 728.602 613.880, 725.412 616.170 C 722.584 618.201, 719.299 622.048, 716.628 626.457 C 709.701 637.894, 704.677 639.888, 691.460 636.449 C 683.160 634.289, 681.491 632.924, 677.529 625.057 C 675.192 620.418, 672.393 616.740, 668.983 613.829 C 666.194 611.448, 662.556 607.150, 660.898 604.277 C 650.545 586.336, 629.070 591.150, 613.928 614.807 C 610.515 620.138, 605.133 627.012, 601.968 630.082 C 598.802 633.152, 595.212 637.652, 593.990 640.082 C 588.593 650.810, 584.654 650.743, 578.118 639.811 C 576.905 637.782, 573.205 633.777, 569.897 630.911 C 566.575 628.032, 562.836 623.640, 561.546 621.100 C 547.952 594.318, 521.534 585.386, 511.336 604.124 C 509.631 607.256, 506.485 610.769, 503.045 613.383 C 498.927 616.510, 496.725 619.174, 494.488 623.729 C 490.381 632.095, 488.066 634.275, 479.450 637.892 C 466.680 643.252, 463.608 641.964, 456.983 628.466 C 453.351 621.065, 452.069 619.448, 447.207 616.137 C 442.712 613.075, 440.913 610.973, 438.056 605.441 C 429.534 588.942, 403.244 589.731, 394.988 606.733 C 392.752 611.338, 389.258 616.245, 385.375 620.233 C 382.020 623.680, 377.797 628.750, 375.990 631.500 C 368.893 642.304, 365.508 644.037, 359.500 639.942 C 357.850 638.818, 354.250 636.746, 351.500 635.339 C 344.600 631.807, 342.167 629.359, 339.419 623.187 C 337.683 619.287, 334.010 614.849, 325.615 606.508 C 311.817 592.800, 308.400 591.289, 298.324 594.439 M 293.500 970.980 C 288.550 974.247, 283.534 977.598, 282.354 978.428 C 281.173 979.258, 278.606 982.764, 276.649 986.218 C 262.905 1010.484, 244.693 1019.588, 237.079 1006 C 234.254 1000.959, 232.122 998.621, 227.580 995.583 C 222.708 992.325, 221.258 990.644, 218.951 985.583 C 214.855 976.594, 212.168 974.530, 200.538 971.434 C 184.652 967.206, 179.302 969.187, 172.707 981.738 C 170.224 986.464, 167.215 990.252, 163.113 993.820 C 158.373 997.943, 156.705 1000.206, 155.049 1004.759 C 153.900 1007.917, 152.284 1012.343, 151.457 1014.595 C 150.630 1016.847, 146.813 1022.472, 142.976 1027.095 C 132.340 1039.908, 130.438 1049.849, 136.101 1063.013 C 141.687 1075.999, 149.113 1074.118, 158.468 1057.347 C 161.183 1052.481, 165.995 1045.780, 169.163 1042.455 C 172.635 1038.812, 175.956 1034.045, 177.523 1030.455 C 183.547 1016.663, 185.765 1015.105, 196.744 1016.957 C 206.073 1018.530, 209.708 1021.049, 213.813 1028.786 C 216.194 1033.273, 218.652 1036.157, 222.550 1039.037 C 225.533 1041.241, 229.672 1045.622, 231.748 1048.772 C 244.499 1068.128, 266.598 1059.285, 282.005 1028.661 C 282.791 1027.099, 286.419 1023.175, 290.068 1019.940 C 293.717 1016.705, 297.774 1012.494, 299.083 1010.584 C 303.914 1003.534, 306.712 1003.974, 313.206 1012.805 C 315.510 1015.937, 319.590 1020.485, 322.273 1022.911 C 325.246 1025.598, 329.546 1031.392, 333.279 1037.735 C 347.296 1061.561, 369.393 1065.605, 379.958 1046.278 C 381.467 1043.517, 384.936 1039.740, 388.497 1036.982 C 392.566 1033.829, 395.620 1030.355, 397.997 1026.174 C 402.036 1019.070, 403.423 1017.949, 413.138 1013.943 C 424.018 1009.457, 430.105 1011.136, 432.558 1019.301 C 435.072 1027.664, 439.122 1033.798, 444.481 1037.356 C 448.268 1039.870, 451.190 1042.921, 453.755 1047.038 C 458.827 1055.179, 463.483 1057.521, 472.864 1056.649 C 487.296 1055.308, 491.314 1053.010, 496.608 1043.069 C 498.198 1040.082, 502.670 1034.182, 506.545 1029.958 C 510.420 1025.733, 515.595 1019.318, 518.045 1015.702 C 524.977 1005.469, 526.292 1005.225, 535.043 1012.536 C 537.428 1014.528, 541.505 1017.236, 544.104 1018.553 C 548.565 1020.813, 554 1028.743, 554 1032.992 C 554 1035.107, 573.466 1054.263, 577.500 1056.117 C 590.469 1062.079, 608.370 1051.769, 616.955 1033.391 C 618.726 1029.601, 620.848 1025.099, 621.671 1023.387 C 622.494 1021.675, 625.020 1019.233, 627.285 1017.960 C 629.550 1016.687, 634.008 1013.250, 637.193 1010.323 C 645.136 1003.021, 648.146 1003.486, 652.870 1012.745 C 653.944 1014.851, 658.263 1020.379, 662.467 1025.030 C 667.911 1031.051, 671.390 1036.097, 674.554 1042.558 C 684.106 1062.064, 709.885 1063.960, 719.073 1045.833 C 720.781 1042.462, 723.921 1038.500, 726.819 1036.056 C 729.788 1033.552, 733.174 1029.243, 735.485 1025.027 C 745.509 1006.741, 765.066 1007.952, 774.439 1027.439 C 777.408 1033.612, 778.782 1035.310, 782.824 1037.797 C 787.619 1040.747, 790.081 1043.344, 794.306 1049.908 C 804.063 1065.066, 823.629 1059.137, 838.549 1036.500 C 842.579 1030.387, 847.816 1023.834, 850.339 1021.751 C 852.836 1019.689, 856.594 1015.528, 858.689 1012.505 C 865.233 1003.065, 867.449 1003.767, 874.132 1017.390 C 877.797 1024.862, 880.648 1029.076, 885.058 1033.539 C 890.249 1038.794, 891.337 1040.590, 893.425 1047.358 C 898.516 1063.859, 915.950 1073.907, 924.557 1065.300 C 929.785 1060.073, 918.920 1024.541, 909.024 1014.500 C 904.453 1009.863, 902.319 1006.614, 899.625 1000.197 C 894.605 988.236, 890.933 983.068, 882.340 975.871 C 865.526 961.789, 865.983 961.829, 850.977 973.132 C 841.861 979.998, 840.522 981.495, 834.994 991 C 821.309 1014.532, 805.503 1020.362, 797.368 1004.881 C 794.385 999.204, 792.570 997.071, 788.326 994.253 C 784.064 991.423, 782.439 989.507, 780.094 984.543 C 770.130 963.454, 741.647 963.063, 729.962 983.853 C 728.660 986.170, 725.255 989.832, 722.395 991.991 C 718.262 995.112, 716.467 997.452, 713.644 1003.398 C 708.833 1013.534, 705.893 1014.769, 694.475 1011.450 C 687.687 1009.476, 684.812 1007.179, 680.337 1000.153 C 674.693 991.292, 654.252 970.008, 649.262 967.795 C 639.584 963.506, 620.524 973.054, 614.362 985.280 C 612.344 989.283, 608.396 994.667, 604.722 998.423 C 601.300 1001.923, 596.665 1006.859, 594.423 1009.393 C 587.221 1017.532, 582.984 1016.285, 568.720 1001.828 C 561.709 994.722, 559.758 992.043, 557.915 986.988 C 553.645 975.275, 530.698 963.355, 521.684 968.166 C 509.334 974.758, 499.947 984.596, 492.265 999 C 482.983 1016.403, 463.696 1019.033, 458.326 1003.629 C 457.014 999.867, 454.777 996.767, 449.933 992 C 446.301 988.425, 442.323 983.820, 441.094 981.767 C 429.797 962.906, 400.981 964.284, 390.922 984.167 C 389.175 987.620, 386.077 991.502, 382.996 994.100 C 380.214 996.446, 376.575 1000.746, 374.911 1003.656 C 366.240 1018.811, 352.320 1015.189, 337.992 994.048 C 333.581 987.541, 328.291 980.954, 326.236 979.411 C 324.181 977.867, 320.025 974.500, 317 971.928 C 306.678 963.152, 305.438 963.102, 293.500 970.980" stroke="none" fill="#f7f7f7" fill-rule="evenodd"/></svg>