<svg xmlns="http://www.w3.org/2000/svg" width="864" height="1272" viewBox="0 0 864 1272" version="1.1"><path d="M 393.738 129.973 C 372.262 131.450, 362.660 134.785, 352.165 144.417 C 346.272 149.825, 344.380 150.939, 338.416 152.510 C 327.975 155.261, 316 163.136, 316 167.252 C 316 168.712, 304.489 175.409, 294.539 179.738 C 282.404 185.018, 281.906 185.453, 276.808 195.252 C 273.572 201.472, 271.522 204.021, 266.880 207.592 C 258.250 214.233, 252.607 223.300, 246.502 240.336 C 245.087 244.284, 243.804 245.790, 239.521 248.530 C 236.635 250.376, 233.098 253.283, 231.663 254.989 C 228.860 258.320, 228.878 258.262, 224.148 279.912 C 221.059 294.052, 219.805 297.100, 213.444 305.912 C 205.691 316.652, 203.239 342.707, 205.624 389 C 206.866 413.116, 207.417 415.261, 213.966 421.500 C 219.585 426.853, 220.233 428.323, 223.887 444 C 225.617 451.425, 227.479 459.138, 228.024 461.140 C 229.050 464.912, 234.169 470.157, 239.749 473.154 C 245.164 476.063, 245.940 478.143, 250.999 503.310 C 252.522 510.889, 256.299 515.224, 263.810 518.017 C 271.982 521.055, 273.670 522.407, 276.603 528.268 C 280.231 535.519, 282.465 537.658, 288.915 540.056 C 300.340 544.305, 315.902 558.553, 326.921 574.854 C 332.305 582.819, 335.512 584.334, 351.500 586.468 C 358.100 587.348, 366.547 588.736, 370.272 589.551 C 385.009 592.778, 448.985 594.957, 474.292 593.094 C 514.576 590.129, 525.939 587.226, 535.395 577.482 C 541.449 571.244, 543.084 570.320, 549.577 569.471 C 554.264 568.857, 556.273 569.198, 571.827 573.246 C 579.852 575.335, 585.982 569.516, 589.995 556 C 593.147 545.381, 594.425 543.344, 600.298 539.577 C 606.971 535.296, 608.139 533.914, 611.964 525.772 C 615.962 517.261, 620.173 513.760, 630.465 510.391 C 657.052 501.690, 661.354 495.890, 661.541 468.500 C 661.706 444.211, 665.138 426.658, 672.002 414.997 C 687.944 387.910, 687.531 329.346, 671.238 306.593 C 666.279 299.668, 665.315 295.643, 664.050 276.593 C 662.843 258.404, 661.232 254.239, 653.500 249.318 C 644.674 243.700, 643.857 242.868, 641.056 236.632 C 637.628 229, 634.374 225.090, 628.103 221.066 C 624.678 218.868, 621.699 215.615, 618.166 210.214 C 606.980 193.114, 595.226 181.213, 582.396 173.999 C 579.153 172.175, 573.333 167.650, 569.461 163.943 C 562.724 157.492, 556.049 154.062, 550.068 153.978 C 547.108 153.937, 539.962 150.079, 534.296 145.463 C 517.772 132.003, 507.106 130.079, 446 129.529 C 423.725 129.329, 400.207 129.529, 393.738 129.973 M 405.806 160.987 C 387.165 162.785, 382.325 165.373, 377.005 176.391 C 369.463 192.008, 370.833 198.701, 383.191 206.623 C 388.182 209.822, 390.866 212.364, 392.807 215.730 C 396.166 221.555, 403.178 228.571, 409.566 232.500 C 413.255 234.769, 415.386 237.146, 418.306 242.253 C 420.532 246.147, 424.122 250.592, 426.785 252.753 C 429.326 254.814, 435.028 260.161, 439.456 264.635 C 452.674 277.990, 461.333 278.087, 472.774 265.008 C 475.233 262.198, 480.483 257.503, 484.440 254.576 C 488.938 251.250, 493.035 247.148, 495.364 243.639 C 497.414 240.550, 501.209 236.330, 503.796 234.261 C 506.383 232.193, 511.200 227.650, 514.500 224.166 C 517.800 220.683, 523.978 214.323, 528.230 210.034 C 541.989 196.153, 541.703 187.475, 527.353 183.491 C 517.017 180.621, 511.684 178.077, 503.147 171.945 C 492.381 164.212, 490.560 163.314, 482.883 161.963 C 474.975 160.571, 417.643 159.844, 405.806 160.987 M 313.500 208.929 C 308.478 210.141, 306.339 211.759, 304.531 215.715 C 303.580 217.797, 301.903 221.420, 300.804 223.766 C 299.527 226.492, 296.698 229.655, 292.968 232.525 C 286.034 237.860, 284.052 247, 289.828 247 C 292.181 247, 299.010 255.689, 301.072 261.306 C 304.337 270.198, 305.109 271.064, 313.728 275.500 C 321.423 279.460, 321.540 279.579, 325.500 287.500 C 329.500 295.500, 329.500 295.500, 337.500 299.500 C 345.500 303.500, 345.500 303.500, 349.500 311.500 C 353.500 319.500, 353.500 319.500, 361.500 323.500 C 369.452 327.476, 369.523 327.546, 373.344 335.206 C 376.786 342.106, 377.676 343.132, 381.844 345.003 C 397.514 352.038, 398.428 353.632, 398.470 374 C 398.509 392.722, 397.424 394.964, 385.165 401.500 C 380.210 404.142, 379.048 405.392, 375.439 411.969 C 371.700 418.782, 370.767 419.748, 364.821 422.969 C 356.146 427.668, 355.304 428.456, 352.028 434.940 C 348.569 441.786, 347.016 443.222, 339.466 446.547 C 331.668 449.982, 330.255 451.336, 327 458.500 C 323.756 465.639, 321.815 467.533, 313.674 471.500 C 305.818 475.329, 304.338 477.939, 302.854 490.588 C 300.884 507.383, 302.659 511.083, 314.560 514.987 C 320.609 516.971, 322.367 518.161, 328.253 524.256 C 336.609 532.907, 338.284 532.902, 347.426 524.193 C 351.239 520.561, 355.361 517.718, 358.500 516.555 C 365.999 513.777, 368.472 511.624, 371.460 505.273 C 374.951 497.852, 377.238 495.439, 384.060 491.981 C 390.760 488.585, 391.528 487.725, 396 478.624 C 399.289 471.929, 399.888 471.303, 405.941 468.232 C 414.363 463.960, 415.588 462.756, 419.586 454.824 C 423.434 447.189, 424.838 446.001, 434.279 442.394 C 438.990 440.593, 442.902 438.138, 446.814 434.526 C 455.093 426.883, 460.079 426.613, 464.632 433.562 C 466.759 436.808, 472.762 440.208, 481.222 442.959 C 488.810 445.426, 492.215 448.647, 494.185 455.223 C 495.766 460.501, 500.499 465.234, 505.777 466.815 C 511.880 468.644, 515.647 472.332, 518.028 478.813 C 520.914 486.668, 521.800 487.617, 530.156 491.813 C 537.177 495.338, 537.654 495.804, 541 502.418 C 546.680 513.645, 551.220 515.347, 569.517 513.111 C 580.679 511.747, 582.465 510.501, 587.165 500.792 C 589.962 495.014, 591.976 492.348, 595.665 489.537 C 604.653 482.687, 604.650 479.841, 595.646 471.178 C 591.248 466.946, 589.681 464.550, 587.994 459.482 C 585.177 451.018, 583.159 448.691, 576.278 445.972 C 568.952 443.078, 565.328 439.800, 562.488 433.500 C 559.677 427.265, 557.927 425.686, 550.934 423.073 C 544.249 420.576, 540.973 417.334, 537.725 410 C 534.898 403.618, 533.119 401.825, 526.874 399.062 C 516.680 394.553, 514.435 389.589, 515.337 373.553 C 516.341 355.723, 518.370 351.488, 527.928 347.279 C 535.073 344.133, 536.612 342.696, 540.009 336 C 543.318 329.478, 545.754 327.094, 552.620 323.659 C 558.281 320.827, 561.133 317.767, 565.259 310.095 C 567.682 305.591, 568.894 304.539, 575.188 301.476 C 584.280 297.051, 585.171 296.206, 588.840 288.527 C 591.892 282.136, 592.473 281.549, 601.500 275.725 C 613.874 267.743, 610.647 244.651, 595.817 235.062 C 592.893 233.171, 588.025 229.305, 585 226.471 C 576.723 218.716, 576.422 218.708, 566.500 226.002 C 563.750 228.024, 559.025 230.702, 556 231.954 C 548.678 234.983, 548.108 235.526, 544.921 242.500 C 541.570 249.832, 537.976 253.371, 529.782 257.407 C 523.966 260.271, 523.199 261.051, 519.437 267.937 C 515.626 274.916, 514.916 275.626, 507.937 279.437 C 500.821 283.325, 500.349 283.810, 497 290.697 C 492.630 299.683, 490.066 302.422, 482.500 306.184 C 478.893 307.978, 474.306 311.488, 471 314.984 C 460.543 326.042, 451.881 325.478, 443.883 313.218 C 439.799 306.958, 439.025 306.310, 432.524 303.712 C 423.650 300.165, 421.511 298.128, 417.516 289.420 C 414.325 282.463, 414.154 282.290, 407.707 279.551 C 400.005 276.277, 396.912 273.334, 393.993 266.500 C 391.125 259.786, 389.543 258.202, 382.500 254.991 C 375.399 251.753, 372.876 249.233, 369.996 242.500 C 367.122 235.782, 365.540 234.199, 358.500 231 C 351.358 227.755, 349.465 225.813, 345.500 217.665 C 341.079 208.579, 328.818 205.232, 313.500 208.929 M 259.750 282.080 C 256.637 283.893, 255.202 288.306, 252.098 305.611 C 250.422 314.958, 248.336 324.606, 247.463 327.053 C 240.835 345.618, 239.469 360.914, 243.497 371.483 C 245.319 376.265, 246.745 383.260, 248.022 393.677 C 249.047 402.044, 250.825 411.933, 251.974 415.653 C 253.123 419.373, 254.744 426.710, 255.575 431.958 C 258.331 449.360, 262.997 455.042, 271.736 451.639 C 274.356 450.619, 280.325 448.426, 285 446.766 C 295.791 442.936, 297.476 441.681, 302.984 433.372 C 306.639 427.859, 308.739 425.850, 314 422.831 C 320.293 419.221, 324.420 415.376, 330.330 407.620 C 331.887 405.577, 336.278 401.638, 340.089 398.866 C 352.056 390.162, 353.532 385.664, 350.021 368.600 C 347.151 354.653, 345.085 351.577, 336.209 348.036 C 330.938 345.934, 328.121 343.182, 325.063 337.148 C 321.516 330.150, 319.264 328.085, 310.880 324.138 C 304.658 321.209, 304.041 320.607, 300.647 314.148 C 296.376 306.021, 295.863 305.539, 286.624 301 C 279.873 297.683, 279.309 297.137, 275.855 290.563 C 270.948 281.226, 265.838 278.534, 259.750 282.080 M 618.285 308.250 C 617.149 309.488, 615.095 312.750, 613.718 315.500 C 610.631 321.669, 608.903 323.264, 601.966 326.352 C 595.486 329.236, 592.986 331.783, 590.082 338.463 C 587.181 345.136, 585.469 346.868, 579 349.678 C 569.771 353.688, 569.086 354.189, 567.067 358.414 C 559.733 373.760, 563.327 391.220, 575.375 398.774 C 580.212 401.806, 582.750 404.333, 586.105 409.456 C 590.259 415.798, 591.004 416.406, 599.707 420.564 C 607.991 424.522, 609.262 425.505, 612.369 430.363 C 622.592 446.343, 630.900 441.883, 634.468 418.500 C 636.172 407.328, 637.725 399.277, 641.121 384 C 644.042 370.860, 644.560 358.767, 642.534 351.048 C 641.602 347.499, 640.223 340.484, 639.469 335.459 C 635.427 308.533, 627.438 298.272, 618.285 308.250 M 450.784 474.500 C 449.290 475.341, 446.853 478.160, 445.368 480.764 C 441.350 487.811, 439.182 489.858, 431.758 493.610 C 425.465 496.790, 424.790 497.465, 421.610 503.758 C 417.576 511.739, 415.412 513.880, 407.775 517.448 C 401.419 520.416, 399.429 522.766, 396.028 531.316 C 394.305 535.648, 392.338 538.319, 388.320 541.788 C 373.372 554.693, 383.637 560.425, 424.171 561.807 C 497.611 564.311, 515.500 558.732, 515.500 533.327 C 515.500 523.212, 514.029 520.867, 504.847 516.351 C 497.369 512.672, 496.685 511.970, 492 503.137 C 488.686 496.890, 488.075 496.320, 480.500 492.413 C 473.834 488.975, 471.896 487.388, 468.875 482.893 C 462.639 473.615, 457.004 471, 450.784 474.500 M 711.804 682.983 C 707.265 685.451, 703.567 690.197, 702.053 695.500 C 699.024 706.109, 701.253 1129.315, 704.362 1133.800 C 711.688 1144.372, 726.461 1144.680, 731.580 1134.368 C 734.030 1129.431, 734.660 697.767, 732.227 690.915 C 729.163 682.288, 719.784 678.646, 711.804 682.983 M 384 898.708 C 378.152 899.173, 342.481 904.660, 336.311 906.042 C 333.691 906.630, 328.375 908.861, 324.498 911.001 C 317.839 914.677, 311.345 917.293, 292.393 923.935 C 281.271 927.833, 280.438 928.378, 277.365 933.768 C 273.075 941.294, 271.150 942.873, 263.563 945.094 C 254.370 947.784, 250.028 950.700, 245.442 957.264 C 243.251 960.398, 238.869 964.622, 234.885 967.439 C 230.094 970.827, 226.582 974.413, 223.046 979.527 C 220.154 983.710, 215.882 988.334, 212.986 990.415 C 207.031 994.693, 204.676 998.227, 201.942 1006.988 C 199.269 1015.555, 197.914 1017.440, 191.453 1021.573 C 183.582 1026.608, 179.507 1036.728, 176.987 1057.500 C 175.693 1068.164, 171.816 1084.033, 168.526 1092.128 C 160.066 1112.949, 158.632 1138, 165.902 1138 C 168.317 1138, 175.555 1146.046, 177.988 1151.435 C 181.058 1158.234, 182.918 1160.232, 188.254 1162.462 C 195.287 1165.400, 627.172 1164.709, 633.030 1161.750 C 642.240 1157.097, 645.019 1137.951, 639.592 1116.534 C 638.760 1113.252, 637.334 1105.377, 636.423 1099.034 C 633.866 1081.233, 631.683 1073.912, 626.797 1066.752 C 622.790 1060.880, 616.182 1043.454, 612.973 1030.295 C 611.728 1025.193, 607.994 1020.551, 603.124 1018.053 C 597.754 1015.299, 595.502 1012.280, 593.012 1004.500 C 588.726 991.105, 583.505 982.964, 575.286 976.861 C 568.109 971.532, 565.325 968.409, 562.039 962 C 557.831 953.794, 552.782 950.502, 534.520 944.061 C 524.610 940.566, 522.657 939.204, 519.953 933.905 C 517.002 928.124, 511.896 924.322, 505.310 923.003 C 487.783 919.492, 477.115 915.641, 469.783 910.179 C 458.129 901.499, 417.382 896.050, 384 898.708 M 386 930.649 C 379.721 931.594, 375.129 933.525, 370.619 937.115 C 364.884 941.681, 359.766 943.363, 343.500 946.031 C 328.880 948.428, 311.894 951.696, 306.530 953.142 C 303.718 953.900, 300.655 956.154, 296.030 960.870 C 290.374 966.637, 287.553 968.491, 274.952 974.726 C 260.404 981.924, 260.404 981.924, 257.452 988.212 C 255.484 992.404, 251.800 997.333, 246.400 1003 C 236.639 1013.242, 232.276 1019.478, 228.478 1028.616 C 224.600 1037.944, 222.813 1040.328, 217.032 1043.885 C 210.507 1047.900, 209.416 1050.343, 207.087 1066.147 C 200.946 1107.820, 203.390 1119.797, 218.884 1123.969 C 229.459 1126.816, 577.114 1124.693, 583 1121.745 C 597.580 1114.443, 601.680 1106.299, 596.441 1095.045 C 592.875 1087.385, 588.229 1070.520, 586.018 1057.212 C 583.678 1043.131, 581.294 1038.155, 573.235 1030.530 C 565.551 1023.259, 563.834 1020.599, 560.954 1011.500 C 558.279 1003.051, 557.090 1001.585, 550 998 C 543.643 994.785, 542.327 993.438, 538.444 986.171 C 535.234 980.164, 532.982 978.695, 522.592 975.828 C 512.713 973.103, 503.903 967.900, 497.204 960.836 C 490.061 953.304, 488.144 952.318, 476.184 950.019 C 459.166 946.747, 447.388 943.215, 438.326 938.665 C 422.368 930.652, 404.330 927.889, 386 930.649" stroke="none" fill="#656565" fill-rule="evenodd"/><path d="M 38.500 29.500 C 33.630 31.227, 30.412 34.755, 29.031 39.885 C 26.703 48.530, 28.192 1231.975, 30.535 1235.965 C 31.655 1237.870, 34.130 1240.345, 36.035 1241.465 C 41.517 1244.685, 822.483 1244.685, 827.965 1241.465 C 829.870 1240.345, 832.345 1237.870, 833.465 1235.965 C 836.686 1230.481, 836.686 41.519, 833.465 36.035 C 832.345 34.130, 829.870 31.655, 827.965 30.535 C 823.395 27.851, 46.029 26.832, 38.500 29.500 M 393.738 129.973 C 372.262 131.450, 362.660 134.785, 352.165 144.417 C 346.272 149.825, 344.380 150.939, 338.416 152.510 C 327.975 155.261, 316 163.136, 316 167.252 C 316 168.712, 304.489 175.409, 294.539 179.738 C 282.404 185.018, 281.906 185.453, 276.808 195.252 C 273.572 201.472, 271.522 204.021, 266.880 207.592 C 258.250 214.233, 252.607 223.300, 246.502 240.336 C 245.087 244.284, 243.804 245.790, 239.521 248.530 C 236.635 250.376, 233.098 253.283, 231.663 254.989 C 228.860 258.320, 228.878 258.262, 224.148 279.912 C 221.059 294.052, 219.805 297.100, 213.444 305.912 C 205.691 316.652, 203.239 342.707, 205.624 389 C 206.866 413.116, 207.417 415.261, 213.966 421.500 C 219.585 426.853, 220.233 428.323, 223.887 444 C 225.617 451.425, 227.479 459.138, 228.024 461.140 C 229.050 464.912, 234.169 470.157, 239.749 473.154 C 245.164 476.063, 245.940 478.143, 250.999 503.310 C 252.522 510.889, 256.299 515.224, 263.810 518.017 C 271.982 521.055, 273.670 522.407, 276.603 528.268 C 280.231 535.519, 282.465 537.658, 288.915 540.056 C 300.340 544.305, 315.902 558.553, 326.921 574.854 C 332.305 582.819, 335.512 584.334, 351.500 586.468 C 358.100 587.348, 366.547 588.736, 370.272 589.551 C 385.009 592.778, 448.985 594.957, 474.292 593.094 C 514.576 590.129, 525.939 587.226, 535.395 577.482 C 541.449 571.244, 543.084 570.320, 549.577 569.471 C 554.264 568.857, 556.273 569.198, 571.827 573.246 C 579.852 575.335, 585.982 569.516, 589.995 556 C 593.147 545.381, 594.425 543.344, 600.298 539.577 C 606.971 535.296, 608.139 533.914, 611.964 525.772 C 615.962 517.261, 620.173 513.760, 630.465 510.391 C 657.052 501.690, 661.354 495.890, 661.541 468.500 C 661.706 444.211, 665.138 426.658, 672.002 414.997 C 687.944 387.910, 687.531 329.346, 671.238 306.593 C 666.279 299.668, 665.315 295.643, 664.050 276.593 C 662.843 258.404, 661.232 254.239, 653.500 249.318 C 644.674 243.700, 643.857 242.868, 641.056 236.632 C 637.628 229, 634.374 225.090, 628.103 221.066 C 624.678 218.868, 621.699 215.615, 618.166 210.214 C 606.980 193.114, 595.226 181.213, 582.396 173.999 C 579.153 172.175, 573.333 167.650, 569.461 163.943 C 562.724 157.492, 556.049 154.062, 550.068 153.978 C 547.108 153.937, 539.962 150.079, 534.296 145.463 C 517.772 132.003, 507.106 130.079, 446 129.529 C 423.725 129.329, 400.207 129.529, 393.738 129.973 M 405.806 160.987 C 387.165 162.785, 382.325 165.373, 377.005 176.391 C 369.463 192.008, 370.833 198.701, 383.191 206.623 C 388.182 209.822, 390.866 212.364, 392.807 215.730 C 396.166 221.555, 403.178 228.571, 409.566 232.500 C 413.255 234.769, 415.386 237.146, 418.306 242.253 C 420.532 246.147, 424.122 250.592, 426.785 252.753 C 429.326 254.814, 435.028 260.161, 439.456 264.635 C 452.674 277.990, 461.333 278.087, 472.774 265.008 C 475.233 262.198, 480.483 257.503, 484.440 254.576 C 488.938 251.250, 493.035 247.148, 495.364 243.639 C 497.414 240.550, 501.209 236.330, 503.796 234.261 C 506.383 232.193, 511.200 227.650, 514.500 224.166 C 517.800 220.683, 523.978 214.323, 528.230 210.034 C 541.989 196.153, 541.703 187.475, 527.353 183.491 C 517.017 180.621, 511.684 178.077, 503.147 171.945 C 492.381 164.212, 490.560 163.314, 482.883 161.963 C 474.975 160.571, 417.643 159.844, 405.806 160.987 M 313.500 208.929 C 308.478 210.141, 306.339 211.759, 304.531 215.715 C 303.580 217.797, 301.903 221.420, 300.804 223.766 C 299.527 226.492, 296.698 229.655, 292.968 232.525 C 286.034 237.860, 284.052 247, 289.828 247 C 292.181 247, 299.010 255.689, 301.072 261.306 C 304.337 270.198, 305.109 271.064, 313.728 275.500 C 321.423 279.460, 321.540 279.579, 325.500 287.500 C 329.500 295.500, 329.500 295.500, 337.500 299.500 C 345.500 303.500, 345.500 303.500, 349.500 311.500 C 353.500 319.500, 353.500 319.500, 361.500 323.500 C 369.452 327.476, 369.523 327.546, 373.344 335.206 C 376.786 342.106, 377.676 343.132, 381.844 345.003 C 397.514 352.038, 398.428 353.632, 398.470 374 C 398.509 392.722, 397.424 394.964, 385.165 401.500 C 380.210 404.142, 379.048 405.392, 375.439 411.969 C 371.700 418.782, 370.767 419.748, 364.821 422.969 C 356.146 427.668, 355.304 428.456, 352.028 434.940 C 348.569 441.786, 347.016 443.222, 339.466 446.547 C 331.668 449.982, 330.255 451.336, 327 458.500 C 323.756 465.639, 321.815 467.533, 313.674 471.500 C 305.818 475.329, 304.338 477.939, 302.854 490.588 C 300.884 507.383, 302.659 511.083, 314.560 514.987 C 320.609 516.971, 322.367 518.161, 328.253 524.256 C 336.609 532.907, 338.284 532.902, 347.426 524.193 C 351.239 520.561, 355.361 517.718, 358.500 516.555 C 365.999 513.777, 368.472 511.624, 371.460 505.273 C 374.951 497.852, 377.238 495.439, 384.060 491.981 C 390.760 488.585, 391.528 487.725, 396 478.624 C 399.289 471.929, 399.888 471.303, 405.941 468.232 C 414.363 463.960, 415.588 462.756, 419.586 454.824 C 423.434 447.189, 424.838 446.001, 434.279 442.394 C 438.990 440.593, 442.902 438.138, 446.814 434.526 C 455.093 426.883, 460.079 426.613, 464.632 433.562 C 466.759 436.808, 472.762 440.208, 481.222 442.959 C 488.810 445.426, 492.215 448.647, 494.185 455.223 C 495.766 460.501, 500.499 465.234, 505.777 466.815 C 511.880 468.644, 515.647 472.332, 518.028 478.813 C 520.914 486.668, 521.800 487.617, 530.156 491.813 C 537.177 495.338, 537.654 495.804, 541 502.418 C 546.680 513.645, 551.220 515.347, 569.517 513.111 C 580.679 511.747, 582.465 510.501, 587.165 500.792 C 589.962 495.014, 591.976 492.348, 595.665 489.537 C 604.653 482.687, 604.650 479.841, 595.646 471.178 C 591.248 466.946, 589.681 464.550, 587.994 459.482 C 585.177 451.018, 583.159 448.691, 576.278 445.972 C 568.952 443.078, 565.328 439.800, 562.488 433.500 C 559.677 427.265, 557.927 425.686, 550.934 423.073 C 544.249 420.576, 540.973 417.334, 537.725 410 C 534.898 403.618, 533.119 401.825, 526.874 399.062 C 516.680 394.553, 514.435 389.589, 515.337 373.553 C 516.341 355.723, 518.370 351.488, 527.928 347.279 C 535.073 344.133, 536.612 342.696, 540.009 336 C 543.318 329.478, 545.754 327.094, 552.620 323.659 C 558.281 320.827, 561.133 317.767, 565.259 310.095 C 567.682 305.591, 568.894 304.539, 575.188 301.476 C 584.280 297.051, 585.171 296.206, 588.840 288.527 C 591.892 282.136, 592.473 281.549, 601.500 275.725 C 613.874 267.743, 610.647 244.651, 595.817 235.062 C 592.893 233.171, 588.025 229.305, 585 226.471 C 576.723 218.716, 576.422 218.708, 566.500 226.002 C 563.750 228.024, 559.025 230.702, 556 231.954 C 548.678 234.983, 548.108 235.526, 544.921 242.500 C 541.570 249.832, 537.976 253.371, 529.782 257.407 C 523.966 260.271, 523.199 261.051, 519.437 267.937 C 515.626 274.916, 514.916 275.626, 507.937 279.437 C 500.821 283.325, 500.349 283.810, 497 290.697 C 492.630 299.683, 490.066 302.422, 482.500 306.184 C 478.893 307.978, 474.306 311.488, 471 314.984 C 460.543 326.042, 451.881 325.478, 443.883 313.218 C 439.799 306.958, 439.025 306.310, 432.524 303.712 C 423.650 300.165, 421.511 298.128, 417.516 289.420 C 414.325 282.463, 414.154 282.290, 407.707 279.551 C 400.005 276.277, 396.912 273.334, 393.993 266.500 C 391.125 259.786, 389.543 258.202, 382.500 254.991 C 375.399 251.753, 372.876 249.233, 369.996 242.500 C 367.122 235.782, 365.540 234.199, 358.500 231 C 351.358 227.755, 349.465 225.813, 345.500 217.665 C 341.079 208.579, 328.818 205.232, 313.500 208.929 M 259.750 282.080 C 256.637 283.893, 255.202 288.306, 252.098 305.611 C 250.422 314.958, 248.336 324.606, 247.463 327.053 C 240.835 345.618, 239.469 360.914, 243.497 371.483 C 245.319 376.265, 246.745 383.260, 248.022 393.677 C 249.047 402.044, 250.825 411.933, 251.974 415.653 C 253.123 419.373, 254.744 426.710, 255.575 431.958 C 258.331 449.360, 262.997 455.042, 271.736 451.639 C 274.356 450.619, 280.325 448.426, 285 446.766 C 295.791 442.936, 297.476 441.681, 302.984 433.372 C 306.639 427.859, 308.739 425.850, 314 422.831 C 320.293 419.221, 324.420 415.376, 330.330 407.620 C 331.887 405.577, 336.278 401.638, 340.089 398.866 C 352.056 390.162, 353.532 385.664, 350.021 368.600 C 347.151 354.653, 345.085 351.577, 336.209 348.036 C 330.938 345.934, 328.121 343.182, 325.063 337.148 C 321.516 330.150, 319.264 328.085, 310.880 324.138 C 304.658 321.209, 304.041 320.607, 300.647 314.148 C 296.376 306.021, 295.863 305.539, 286.624 301 C 279.873 297.683, 279.309 297.137, 275.855 290.563 C 270.948 281.226, 265.838 278.534, 259.750 282.080 M 618.285 308.250 C 617.149 309.488, 615.095 312.750, 613.718 315.500 C 610.631 321.669, 608.903 323.264, 601.966 326.352 C 595.486 329.236, 592.986 331.783, 590.082 338.463 C 587.181 345.136, 585.469 346.868, 579 349.678 C 569.771 353.688, 569.086 354.189, 567.067 358.414 C 559.733 373.760, 563.327 391.220, 575.375 398.774 C 580.212 401.806, 582.750 404.333, 586.105 409.456 C 590.259 415.798, 591.004 416.406, 599.707 420.564 C 607.991 424.522, 609.262 425.505, 612.369 430.363 C 622.592 446.343, 630.900 441.883, 634.468 418.500 C 636.172 407.328, 637.725 399.277, 641.121 384 C 644.042 370.860, 644.560 358.767, 642.534 351.048 C 641.602 347.499, 640.223 340.484, 639.469 335.459 C 635.427 308.533, 627.438 298.272, 618.285 308.250 M 450.784 474.500 C 449.290 475.341, 446.853 478.160, 445.368 480.764 C 441.350 487.811, 439.182 489.858, 431.758 493.610 C 425.465 496.790, 424.790 497.465, 421.610 503.758 C 417.576 511.739, 415.412 513.880, 407.775 517.448 C 401.419 520.416, 399.429 522.766, 396.028 531.316 C 394.305 535.648, 392.338 538.319, 388.320 541.788 C 373.372 554.693, 383.637 560.425, 424.171 561.807 C 497.611 564.311, 515.500 558.732, 515.500 533.327 C 515.500 523.212, 514.029 520.867, 504.847 516.351 C 497.369 512.672, 496.685 511.970, 492 503.137 C 488.686 496.890, 488.075 496.320, 480.500 492.413 C 473.834 488.975, 471.896 487.388, 468.875 482.893 C 462.639 473.615, 457.004 471, 450.784 474.500 M 711.804 682.983 C 707.265 685.451, 703.567 690.197, 702.053 695.500 C 699.024 706.109, 701.253 1129.315, 704.362 1133.800 C 711.688 1144.372, 726.461 1144.680, 731.580 1134.368 C 734.030 1129.431, 734.660 697.767, 732.227 690.915 C 729.163 682.288, 719.784 678.646, 711.804 682.983 M 384 898.708 C 378.152 899.173, 342.481 904.660, 336.311 906.042 C 333.691 906.630, 328.375 908.861, 324.498 911.001 C 317.839 914.677, 311.345 917.293, 292.393 923.935 C 281.271 927.833, 280.438 928.378, 277.365 933.768 C 273.075 941.294, 271.150 942.873, 263.563 945.094 C 254.370 947.784, 250.028 950.700, 245.442 957.264 C 243.251 960.398, 238.869 964.622, 234.885 967.439 C 230.094 970.827, 226.582 974.413, 223.046 979.527 C 220.154 983.710, 215.882 988.334, 212.986 990.415 C 207.031 994.693, 204.676 998.227, 201.942 1006.988 C 199.269 1015.555, 197.914 1017.440, 191.453 1021.573 C 183.582 1026.608, 179.507 1036.728, 176.987 1057.500 C 175.693 1068.164, 171.816 1084.033, 168.526 1092.128 C 160.066 1112.949, 158.632 1138, 165.902 1138 C 168.317 1138, 175.555 1146.046, 177.988 1151.435 C 181.058 1158.234, 182.918 1160.232, 188.254 1162.462 C 195.287 1165.400, 627.172 1164.709, 633.030 1161.750 C 642.240 1157.097, 645.019 1137.951, 639.592 1116.534 C 638.760 1113.252, 637.334 1105.377, 636.423 1099.034 C 633.866 1081.233, 631.683 1073.912, 626.797 1066.752 C 622.790 1060.880, 616.182 1043.454, 612.973 1030.295 C 611.728 1025.193, 607.994 1020.551, 603.124 1018.053 C 597.754 1015.299, 595.502 1012.280, 593.012 1004.500 C 588.726 991.105, 583.505 982.964, 575.286 976.861 C 568.109 971.532, 565.325 968.409, 562.039 962 C 557.831 953.794, 552.782 950.502, 534.520 944.061 C 524.610 940.566, 522.657 939.204, 519.953 933.905 C 517.002 928.124, 511.896 924.322, 505.310 923.003 C 487.783 919.492, 477.115 915.641, 469.783 910.179 C 458.129 901.499, 417.382 896.050, 384 898.708 M 386 930.649 C 379.721 931.594, 375.129 933.525, 370.619 937.115 C 364.884 941.681, 359.766 943.363, 343.500 946.031 C 328.880 948.428, 311.894 951.696, 306.530 953.142 C 303.718 953.900, 300.655 956.154, 296.030 960.870 C 290.374 966.637, 287.553 968.491, 274.952 974.726 C 260.404 981.924, 260.404 981.924, 257.452 988.212 C 255.484 992.404, 251.800 997.333, 246.400 1003 C 236.639 1013.242, 232.276 1019.478, 228.478 1028.616 C 224.600 1037.944, 222.813 1040.328, 217.032 1043.885 C 210.507 1047.900, 209.416 1050.343, 207.087 1066.147 C 200.946 1107.820, 203.390 1119.797, 218.884 1123.969 C 229.459 1126.816, 577.114 1124.693, 583 1121.745 C 597.580 1114.443, 601.680 1106.299, 596.441 1095.045 C 592.875 1087.385, 588.229 1070.520, 586.018 1057.212 C 583.678 1043.131, 581.294 1038.155, 573.235 1030.530 C 565.551 1023.259, 563.834 1020.599, 560.954 1011.500 C 558.279 1003.051, 557.090 1001.585, 550 998 C 543.643 994.785, 542.327 993.438, 538.444 986.171 C 535.234 980.164, 532.982 978.695, 522.592 975.828 C 512.713 973.103, 503.903 967.900, 497.204 960.836 C 490.061 953.304, 488.144 952.318, 476.184 950.019 C 459.166 946.747, 447.388 943.215, 438.326 938.665 C 422.368 930.652, 404.330 927.889, 386 930.649" stroke="none" fill="#f2f2f2" fill-rule="evenodd"/></svg>