<svg xmlns="http://www.w3.org/2000/svg" width="1272" height="1230" viewBox="0 0 1272 1230" version="1.1"><path d="M 129 179.978 C 116.146 182.221, 108.852 188.665, 103.194 202.779 C 100.243 210.142, 98.171 496.567, 100.975 509.588 C 102.138 514.988, 105.300 518.771, 112 522.780 C 113.925 523.932, 117.300 526.741, 119.500 529.022 C 128.447 538.300, 117.307 537.500, 237.622 537.500 C 358.990 537.500, 366.046 536.345, 373.573 515.252 C 375.251 510.549, 375.623 210.156, 373.965 198.500 C 372.442 187.796, 368.850 184.044, 357.500 181.303 C 349.882 179.463, 138.963 178.241, 129 179.978 M 155.474 208.888 C 133.159 210.721, 134.999 197.834, 135.006 352.270 C 135.012 501.373, 134.162 490.886, 146.744 497.137 C 154.157 500.820, 319.150 500.867, 330.857 497.189 C 346.274 492.345, 344.998 505.459, 344.938 352.500 C 344.879 200.786, 346.176 214.513, 331.500 210.355 C 325.166 208.561, 174.728 207.307, 155.474 208.888 M 751 241.633 C 749.075 241.810, 740.750 242.441, 732.500 243.035 C 709.217 244.712, 696.899 247.979, 687.500 254.970 C 684.750 257.015, 679.883 259.723, 676.684 260.987 C 668.429 264.250, 660.225 269.812, 651.150 278.300 C 645.243 283.824, 641.768 286.217, 637.142 287.947 C 630.609 290.390, 626.404 294.238, 623.438 300.490 C 621.745 304.058, 620.083 305.634, 612.427 310.936 C 609.040 313.281, 607.322 315.878, 602.233 326.343 C 597.570 335.931, 594.663 340.488, 590.030 345.467 C 582.751 353.292, 582.733 353.335, 578.899 372.339 C 576.596 383.755, 574.798 389.699, 571.417 397.075 C 556.944 428.649, 557.229 451.806, 572.183 459.177 C 575.856 460.987, 579.569 463.959, 582.683 467.580 C 585.332 470.662, 588.742 473.831, 590.261 474.623 C 593.687 476.409, 948.762 476.734, 956.688 474.958 C 973.065 471.288, 980.806 456.152, 973.341 442.399 C 966.902 430.537, 966.822 430.243, 965.895 415.077 C 964.559 393.199, 961.553 382.072, 954.906 374.392 C 950.077 368.812, 949.818 368.322, 946.530 358.510 C 943.241 348.694, 938.598 340.923, 932.484 335 C 927.083 329.767, 925.636 327.270, 922.931 318.513 C 920.720 311.353, 917.769 307.321, 911.635 303.077 C 909.361 301.503, 906.156 298.415, 904.514 296.215 C 900.677 291.075, 896.717 288.402, 889.971 286.399 C 884.571 284.795, 883.157 283.625, 874 273.182 C 870.821 269.557, 869.222 268.792, 856.561 264.845 C 843.074 260.641, 842.433 260.315, 836.820 254.797 C 826.870 245.014, 815.109 242.507, 775.500 241.726 C 763.950 241.498, 752.925 241.456, 751 241.633 M 738.842 272.050 C 722.165 273.534, 717.338 274.997, 710.362 280.684 C 708.086 282.540, 702.236 285.777, 697.362 287.878 C 681.267 294.817, 675.215 298.023, 673.621 300.455 C 670.331 305.477, 664.499 310.075, 658.774 312.163 C 654.314 313.789, 651.959 315.425, 649.181 318.828 C 645.781 322.995, 643.381 325.406, 634.583 333.500 C 632.341 335.563, 630.622 338.673, 629.081 343.459 C 626.669 350.945, 625.156 353.480, 618.020 362 C 609.320 372.386, 608.604 374.318, 605.971 394.500 C 604.895 402.750, 603.341 411.975, 602.519 415 C 599.229 427.101, 602.327 433.126, 613.581 436.514 C 622.372 439.161, 922.966 438.261, 928.385 435.572 C 938.849 430.379, 938.363 408.133, 927.497 395 C 923.070 389.648, 918.980 379.261, 914.951 363.135 C 913.842 358.694, 912.553 357.131, 905.026 351.103 C 902.111 348.768, 899.880 345.690, 897.892 341.259 C 893.458 331.377, 878.418 315.769, 868.251 310.500 C 862.142 307.334, 859.642 305.318, 856.256 300.829 C 852.128 295.356, 851.638 295.045, 842.239 291.939 C 829.572 287.754, 824.184 284.992, 818.048 279.543 C 809.637 272.072, 775.194 268.814, 738.842 272.050 M 130 843.366 C 127.525 844.050, 122.350 846.711, 118.500 849.281 C 98.048 862.930, 100.551 847.530, 100.226 961.698 C 99.869 1086.957, 99.218 1083.500, 123.169 1083.500 C 132.838 1083.500, 132.838 1083.500, 140.669 1075.943 C 144.976 1071.786, 150.202 1067.353, 152.281 1066.092 C 154.361 1064.830, 157.794 1061.256, 159.910 1058.149 C 164.674 1051.153, 166.723 1049.292, 173.834 1045.500 C 178.091 1043.230, 180.527 1040.966, 183.843 1036.194 C 186.882 1031.823, 190.110 1028.690, 194.363 1025.984 C 197.871 1023.752, 202.303 1019.727, 204.708 1016.587 C 214.462 1003.856, 181.875 1004.920, 552.500 1005.233 C 918.567 1005.541, 880.903 1003.662, 896.345 1022.394 C 898.460 1024.960, 903.011 1028.681, 906.459 1030.664 C 909.907 1032.647, 913.514 1035.600, 914.474 1037.225 C 917.809 1042.870, 922.359 1047.152, 928.105 1050.053 C 931.284 1051.658, 934.596 1053.990, 935.467 1055.235 C 936.337 1056.481, 938.501 1059.722, 940.275 1062.437 C 942.656 1066.082, 945.151 1068.272, 949.809 1070.809 C 954.233 1073.218, 957.288 1075.829, 960.037 1079.550 C 970.922 1094.284, 983.756 1090.655, 988.508 1071.500 C 991.052 1061.242, 991.092 868.549, 988.551 862.467 C 984.683 853.211, 976.227 846.240, 966 843.876 C 957.990 842.026, 136.668 841.524, 130 843.366 M 148.558 880.492 C 143.297 882.366, 139.920 884.997, 137.500 889.105 C 134.985 893.375, 134.329 1006.200, 136.779 1013.103 C 141.036 1025.094, 152.847 1025.030, 160.734 1012.973 C 164.113 1007.807, 166.234 1005.784, 171.234 1002.956 C 176.511 999.971, 178.148 998.336, 181.606 992.598 C 186.934 983.758, 188.856 982.670, 205.529 979.050 C 213.707 977.275, 222.403 974.666, 226.500 972.759 C 237.840 967.480, 863.082 967.138, 874.864 972.404 C 879.064 974.281, 885.425 976.551, 889 977.447 C 898.920 979.935, 902.023 982.403, 936.608 1015.313 C 958.961 1036.582, 960.196 1033.038, 959.788 948.821 C 959.465 882.199, 959.749 884.678, 951.966 880.752 C 947.176 878.335, 155.331 878.079, 148.558 880.492" stroke="none" fill="#707070" fill-rule="evenodd"/><path d="M 39.354 29.090 C 34.809 30.410, 30.341 35.020, 29.084 39.690 C 26.975 47.521, 28.105 1189.779, 30.226 1193.653 C 31.175 1195.388, 33.650 1197.863, 35.726 1199.153 C 41.699 1202.867, 1230.301 1202.867, 1236.274 1199.153 C 1238.350 1197.863, 1240.825 1195.388, 1241.774 1193.653 C 1244.456 1188.754, 1244.456 41.246, 1241.774 36.347 C 1240.825 34.612, 1238.350 32.137, 1236.274 30.847 C 1232.292 28.370, 47.821 26.632, 39.354 29.090 M 129 179.978 C 116.146 182.221, 108.852 188.665, 103.194 202.779 C 100.243 210.142, 98.171 496.567, 100.975 509.588 C 102.138 514.988, 105.300 518.771, 112 522.780 C 113.925 523.932, 117.300 526.741, 119.500 529.022 C 128.447 538.300, 117.307 537.500, 237.622 537.500 C 358.990 537.500, 366.046 536.345, 373.573 515.252 C 375.251 510.549, 375.623 210.156, 373.965 198.500 C 372.442 187.796, 368.850 184.044, 357.500 181.303 C 349.882 179.463, 138.963 178.241, 129 179.978 M 155.474 208.888 C 133.159 210.721, 134.999 197.834, 135.006 352.270 C 135.012 501.373, 134.162 490.886, 146.744 497.137 C 154.157 500.820, 319.150 500.867, 330.857 497.189 C 346.274 492.345, 344.998 505.459, 344.938 352.500 C 344.879 200.786, 346.176 214.513, 331.500 210.355 C 325.166 208.561, 174.728 207.307, 155.474 208.888 M 751 241.633 C 749.075 241.810, 740.750 242.441, 732.500 243.035 C 709.217 244.712, 696.899 247.979, 687.500 254.970 C 684.750 257.015, 679.883 259.723, 676.684 260.987 C 668.429 264.250, 660.225 269.812, 651.150 278.300 C 645.243 283.824, 641.768 286.217, 637.142 287.947 C 630.609 290.390, 626.404 294.238, 623.438 300.490 C 621.745 304.058, 620.083 305.634, 612.427 310.936 C 609.040 313.281, 607.322 315.878, 602.233 326.343 C 597.570 335.931, 594.663 340.488, 590.030 345.467 C 582.751 353.292, 582.733 353.335, 578.899 372.339 C 576.596 383.755, 574.798 389.699, 571.417 397.075 C 556.944 428.649, 557.229 451.806, 572.183 459.177 C 575.856 460.987, 579.569 463.959, 582.683 467.580 C 585.332 470.662, 588.742 473.831, 590.261 474.623 C 593.687 476.409, 948.762 476.734, 956.688 474.958 C 973.065 471.288, 980.806 456.152, 973.341 442.399 C 966.902 430.537, 966.822 430.243, 965.895 415.077 C 964.559 393.199, 961.553 382.072, 954.906 374.392 C 950.077 368.812, 949.818 368.322, 946.530 358.510 C 943.241 348.694, 938.598 340.923, 932.484 335 C 927.083 329.767, 925.636 327.270, 922.931 318.513 C 920.720 311.353, 917.769 307.321, 911.635 303.077 C 909.361 301.503, 906.156 298.415, 904.514 296.215 C 900.677 291.075, 896.717 288.402, 889.971 286.399 C 884.571 284.795, 883.157 283.625, 874 273.182 C 870.821 269.557, 869.222 268.792, 856.561 264.845 C 843.074 260.641, 842.433 260.315, 836.820 254.797 C 826.870 245.014, 815.109 242.507, 775.500 241.726 C 763.950 241.498, 752.925 241.456, 751 241.633 M 738.842 272.050 C 722.165 273.534, 717.338 274.997, 710.362 280.684 C 708.086 282.540, 702.236 285.777, 697.362 287.878 C 681.267 294.817, 675.215 298.023, 673.621 300.455 C 670.331 305.477, 664.499 310.075, 658.774 312.163 C 654.314 313.789, 651.959 315.425, 649.181 318.828 C 645.781 322.995, 643.381 325.406, 634.583 333.500 C 632.341 335.563, 630.622 338.673, 629.081 343.459 C 626.669 350.945, 625.156 353.480, 618.020 362 C 609.320 372.386, 608.604 374.318, 605.971 394.500 C 604.895 402.750, 603.341 411.975, 602.519 415 C 599.229 427.101, 602.327 433.126, 613.581 436.514 C 622.372 439.161, 922.966 438.261, 928.385 435.572 C 938.849 430.379, 938.363 408.133, 927.497 395 C 923.070 389.648, 918.980 379.261, 914.951 363.135 C 913.842 358.694, 912.553 357.131, 905.026 351.103 C 902.111 348.768, 899.880 345.690, 897.892 341.259 C 893.458 331.377, 878.418 315.769, 868.251 310.500 C 862.142 307.334, 859.642 305.318, 856.256 300.829 C 852.128 295.356, 851.638 295.045, 842.239 291.939 C 829.572 287.754, 824.184 284.992, 818.048 279.543 C 809.637 272.072, 775.194 268.814, 738.842 272.050 M 130 843.366 C 127.525 844.050, 122.350 846.711, 118.500 849.281 C 98.048 862.930, 100.551 847.530, 100.226 961.698 C 99.869 1086.957, 99.218 1083.500, 123.169 1083.500 C 132.838 1083.500, 132.838 1083.500, 140.669 1075.943 C 144.976 1071.786, 150.202 1067.353, 152.281 1066.092 C 154.361 1064.830, 157.794 1061.256, 159.910 1058.149 C 164.674 1051.153, 166.723 1049.292, 173.834 1045.500 C 178.091 1043.230, 180.527 1040.966, 183.843 1036.194 C 186.882 1031.823, 190.110 1028.690, 194.363 1025.984 C 197.871 1023.752, 202.303 1019.727, 204.708 1016.587 C 214.462 1003.856, 181.875 1004.920, 552.500 1005.233 C 918.567 1005.541, 880.903 1003.662, 896.345 1022.394 C 898.460 1024.960, 903.011 1028.681, 906.459 1030.664 C 909.907 1032.647, 913.514 1035.600, 914.474 1037.225 C 917.809 1042.870, 922.359 1047.152, 928.105 1050.053 C 931.284 1051.658, 934.596 1053.990, 935.467 1055.235 C 936.337 1056.481, 938.501 1059.722, 940.275 1062.437 C 942.656 1066.082, 945.151 1068.272, 949.809 1070.809 C 954.233 1073.218, 957.288 1075.829, 960.037 1079.550 C 970.922 1094.284, 983.756 1090.655, 988.508 1071.500 C 991.052 1061.242, 991.092 868.549, 988.551 862.467 C 984.683 853.211, 976.227 846.240, 966 843.876 C 957.990 842.026, 136.668 841.524, 130 843.366 M 148.558 880.492 C 143.297 882.366, 139.920 884.997, 137.500 889.105 C 134.985 893.375, 134.329 1006.200, 136.779 1013.103 C 141.036 1025.094, 152.847 1025.030, 160.734 1012.973 C 164.113 1007.807, 166.234 1005.784, 171.234 1002.956 C 176.511 999.971, 178.148 998.336, 181.606 992.598 C 186.934 983.758, 188.856 982.670, 205.529 979.050 C 213.707 977.275, 222.403 974.666, 226.500 972.759 C 237.840 967.480, 863.082 967.138, 874.864 972.404 C 879.064 974.281, 885.425 976.551, 889 977.447 C 898.920 979.935, 902.023 982.403, 936.608 1015.313 C 958.961 1036.582, 960.196 1033.038, 959.788 948.821 C 959.465 882.199, 959.749 884.678, 951.966 880.752 C 947.176 878.335, 155.331 878.079, 148.558 880.492" stroke="none" fill="#f5f5f5" fill-rule="evenodd"/></svg>