<svg xmlns="http://www.w3.org/2000/svg" width="1272" height="861" viewBox="0 0 1272 861" version="1.1"><path d="M 347.500 96.991 C 302.380 97.931, 294.590 98.648, 271.500 103.978 C 254.786 107.836, 240.979 110.299, 217.783 113.560 C 206.933 115.085, 201.349 116.697, 183.949 123.327 C 180.346 124.699, 172.246 126.561, 165.949 127.463 C 151.698 129.504, 147.392 130.894, 138.211 136.417 C 133.792 139.076, 127.690 141.654, 122.711 142.967 C 110.185 146.271, 106.172 148.010, 100.600 152.548 C 97.786 154.840, 92.105 158.277, 87.977 160.184 C 68.363 169.247, 70.534 187.882, 92.145 195.956 C 95.249 197.116, 99.702 199.513, 102.040 201.282 C 110.887 207.980, 112.565 209.048, 116.478 210.469 C 118.690 211.273, 122.313 212.386, 124.528 212.944 C 126.743 213.501, 131.691 215.849, 135.524 218.160 C 144.210 223.399, 150.804 225.476, 165.062 227.465 C 179.428 229.469, 179.739 229.549, 191 234.199 C 204.349 239.711, 212.545 241.817, 227.500 243.576 C 234.650 244.417, 248.154 246.847, 257.508 248.977 C 282.666 254.703, 290.588 255.890, 311 256.994 C 347.036 258.943, 416.703 259.910, 452 258.952 C 528.417 256.876, 538.049 255.993, 554.794 249.526 C 562.622 246.503, 565.895 245.901, 584.545 244.057 C 611.462 241.396, 615.891 240.562, 625.126 236.420 C 629.673 234.381, 640.484 231.192, 651.896 228.524 C 672.580 223.689, 672.435 223.743, 681.510 217.530 C 685.474 214.816, 690.087 212.721, 694.569 211.598 C 703.364 209.395, 709.152 206.839, 713.943 203.045 C 716.024 201.397, 721.467 198.471, 726.039 196.543 C 750.335 186.296, 749.988 167.135, 725.339 157.940 C 721.028 156.332, 716.375 154.117, 715 153.018 C 709.905 148.945, 703.540 145.592, 695.108 142.539 C 690.344 140.814, 684.315 137.937, 681.712 136.146 C 674.787 131.381, 671.954 130.427, 654.441 126.957 C 644.404 124.968, 635.078 122.407, 629.040 119.981 C 617.707 115.428, 609.599 113.796, 584.606 111.038 C 568.622 109.274, 564.613 108.475, 557.170 105.566 C 538.368 98.219, 454.048 94.771, 347.500 96.991 M 369 119.091 C 310.660 120.819, 300.432 121.561, 289 124.891 C 277.742 128.171, 260.570 130.973, 236.500 133.457 C 217.611 135.407, 216.863 135.571, 209 139.485 C 197.837 145.041, 191.034 146.725, 168.424 149.530 C 155.740 151.104, 154.916 151.416, 147.474 157.478 C 143.227 160.937, 140.619 162.118, 133.131 163.968 C 119.527 167.329, 115.085 172.663, 117.943 182.205 C 119.307 186.758, 120.944 187.699, 135 192.009 C 140.775 193.780, 149.550 197.396, 154.500 200.045 C 162.644 204.402, 165.070 205.151, 180 207.919 C 199.271 211.491, 199.887 211.655, 211.579 216.326 C 221.736 220.385, 226.556 221.263, 251 223.511 C 261.335 224.462, 274.846 226.502, 284 228.495 C 311.728 234.530, 327.335 235.691, 393.500 236.639 C 461.488 237.614, 508.893 234.947, 539.394 228.430 C 551.610 225.820, 565.522 223.538, 572.894 222.935 C 590.172 221.521, 596.104 220.367, 606.031 216.488 C 616.296 212.477, 626.578 209.790, 642.077 207.067 C 655.365 204.733, 658.482 203.722, 669.500 198.174 C 673.900 195.958, 680.875 193.215, 685 192.080 C 706.051 186.283, 707.854 169.543, 687.981 164.398 C 682.767 163.048, 673.733 159.695, 667.907 156.947 C 662.081 154.198, 653.306 151.013, 648.407 149.868 C 631.342 145.881, 620.439 142.640, 611.167 138.796 C 603.378 135.567, 599.988 134.762, 590.667 133.930 C 562.504 131.417, 546.415 128.958, 522.500 123.512 C 518.527 122.607, 506.636 121.513, 495 120.983 C 423.760 117.736, 417.761 117.646, 369 119.091 M 981.500 276.126 C 979.300 276.635, 973.225 278.368, 968 279.978 C 962.775 281.587, 954.450 283.635, 949.500 284.529 C 938.687 286.481, 931.935 289.387, 923.111 295.886 C 919.475 298.564, 914.543 301.743, 912.151 302.949 C 909.758 304.155, 905.933 306.841, 903.651 308.917 C 901.368 310.992, 897.025 314.331, 894 316.335 C 886.511 321.297, 875.712 333.933, 871.472 342.695 C 869.557 346.652, 866.202 351.956, 864.015 354.482 C 857.171 362.391, 856.161 364.465, 844.290 395 C 837.247 413.117, 839.539 450.240, 849.089 472.699 C 851.240 477.758, 853.004 482.483, 853.010 483.199 C 853.033 486.346, 858.515 495.851, 863.106 500.706 C 866.041 503.808, 869.496 509.003, 871.452 513.251 C 873.428 517.543, 876.489 522.132, 878.958 524.500 C 881.250 526.700, 884.070 530.075, 885.225 532 C 888.558 537.559, 891.146 540.019, 896.500 542.720 C 899.250 544.107, 904.065 547.672, 907.199 550.643 C 910.992 554.237, 915.699 557.333, 921.267 559.893 C 925.869 562.009, 931.243 565.153, 933.209 566.878 C 940.249 573.060, 943.052 573.773, 975.308 577.593 C 1006.593 581.298, 1043.854 575.884, 1057.867 565.598 C 1060.435 563.713, 1065.228 561.120, 1068.518 559.835 C 1072.585 558.248, 1076.149 555.837, 1079.650 552.307 C 1082.483 549.451, 1087.925 545.112, 1091.744 542.664 C 1101.353 536.505, 1105.249 532.881, 1112.281 523.557 C 1115.623 519.125, 1119.700 513.939, 1121.341 512.030 C 1122.982 510.122, 1125.649 505.640, 1127.268 502.070 C 1128.886 498.500, 1131.730 493.726, 1133.586 491.460 C 1143.837 478.950, 1147.747 448.984, 1144.605 407 C 1142.581 379.957, 1141.267 374.598, 1134.846 367.207 C 1133.272 365.395, 1130.576 361.123, 1128.855 357.713 C 1127.133 354.302, 1123.507 349.034, 1120.796 346.006 C 1118.085 342.978, 1113.830 336.570, 1111.340 331.766 C 1107.188 323.754, 1106.305 322.726, 1100.657 319.334 C 1097.271 317.301, 1091.867 313.225, 1088.649 310.278 C 1085.376 307.280, 1078.988 302.999, 1074.149 300.562 C 1069.392 298.166, 1064.375 294.990, 1063 293.505 C 1059.172 289.371, 1054.267 287.306, 1042.901 285.041 C 1037.180 283.901, 1028.675 281.659, 1024 280.057 C 1010.540 275.446, 991.896 273.721, 981.500 276.126 M 968.588 303.514 C 944.961 307.809, 943.960 308.150, 937.334 314.150 C 934.348 316.855, 929.495 320.133, 926.551 321.435 C 923.606 322.737, 918.548 326.210, 915.309 329.151 C 912.071 332.093, 906.064 337.239, 901.960 340.586 C 896.257 345.239, 893.401 348.535, 889.831 354.586 C 887.262 358.939, 883.957 363.625, 882.486 365 C 878.837 368.409, 877.371 371.493, 873.994 382.857 C 872.403 388.214, 869.655 396.175, 867.888 400.548 C 862.954 412.760, 862.827 440.504, 867.653 452.033 C 869.388 456.176, 872.257 465.176, 874.030 472.033 C 877.723 486.319, 878.623 488.371, 883.006 492.500 C 884.758 494.150, 887.718 498.516, 889.584 502.202 C 893.754 510.439, 897.160 514.385, 906.917 522.282 C 911.088 525.658, 916.126 530.062, 918.113 532.070 C 920.544 534.526, 924.464 536.766, 930.092 538.915 C 934.692 540.672, 940.739 543.870, 943.529 546.022 C 952.936 553.280, 966.271 555.971, 992.500 555.905 C 1023.087 555.827, 1033.491 554.039, 1044.500 546.965 C 1047.800 544.845, 1054.440 541.464, 1059.256 539.453 C 1064.655 537.197, 1069.830 534.163, 1072.756 531.538 C 1075.365 529.197, 1080.064 525.644, 1083.198 523.643 C 1088.067 520.534, 1089.486 518.877, 1092.948 512.252 C 1095.176 507.989, 1099.198 501.936, 1101.885 498.803 C 1104.573 495.670, 1107.787 491.395, 1109.028 489.303 C 1110.269 487.211, 1113.057 482.713, 1115.223 479.306 C 1126.944 460.874, 1127.178 394.591, 1115.577 379.397 C 1113.549 376.741, 1110.071 370.740, 1107.848 366.061 C 1100.482 350.556, 1084.881 335.159, 1064.500 323.279 C 1060.650 321.035, 1055.475 317.420, 1053 315.246 C 1039.196 303.121, 1000.405 297.729, 968.588 303.514 M 985.500 398.347 C 959.182 405.159, 955.917 446.242, 980.681 458.980 C 1007.572 472.811, 1044.252 430.731, 1021.582 412.058 C 1020.619 411.264, 1018.463 408.627, 1016.791 406.196 C 1011.659 398.737, 997.610 395.213, 985.500 398.347 M 674.021 559.078 C 670.107 560.699, 668.097 562.892, 661.860 572.341 C 652.951 585.839, 651.988 590.209, 647.120 639.288 C 646.255 648.006, 645.273 652.003, 641.998 660.125 C 638.020 669.992, 637.118 674.372, 635.081 693.733 C 632.924 714.241, 631.297 714.957, 593 712.239 C 538.657 708.383, 435.965 708.511, 357 712.533 C 309.257 714.964, 306.898 715.137, 294.500 717.103 C 247.391 724.573, 236.636 725.024, 228.841 719.854 C 225.818 717.849, 220.904 714.980, 217.922 713.479 C 214.940 711.977, 209.909 708.812, 206.743 706.444 C 199.798 701.250, 193 698.579, 182.994 697.112 C 140.829 690.932, 124 695.791, 124 714.148 C 124 724.799, 119.233 727.431, 104.178 725.096 C 90.484 722.971, 86.015 723.962, 78.823 730.719 C 68.685 740.245, 79.539 758.972, 98.663 764.950 C 103.987 766.614, 110.955 769.335, 114.147 770.997 C 136.328 782.540, 182.909 782.426, 207.423 770.768 C 218.500 765.500, 218.500 765.500, 473 765.436 C 755.659 765.366, 733.958 765.888, 740.855 758.992 C 746.548 753.298, 746.500 754.123, 746.500 662 C 746.500 562.664, 747.136 567.167, 732.129 560.254 C 727.772 558.247, 678.437 557.248, 674.021 559.078 M 691.500 583.879 C 677.303 590.393, 672.630 601.292, 670.009 634 C 668.581 651.812, 666.794 661.927, 661.348 683 C 652.184 718.469, 654.763 724.154, 682 728.527 C 712.344 733.399, 717.303 732.893, 721.500 724.500 C 723.633 720.234, 724.696 608.150, 722.693 598.690 C 720.197 586.898, 702.861 578.666, 691.500 583.879 M 408.500 732.998 C 362.407 734.057, 346.519 736.205, 356.555 740.021 C 365.316 743.352, 591.806 744.390, 599.750 741.136 C 617.448 733.886, 530.621 730.192, 408.500 732.998" stroke="none" fill="#626262" fill-rule="evenodd"/><path d="M 38.500 29.501 C 33.628 31.227, 30.412 34.755, 29.029 39.892 C 26.706 48.518, 28.188 820.969, 30.535 824.965 C 31.655 826.870, 34.130 829.345, 36.035 830.465 C 41.519 833.686, 1230.481 833.686, 1235.965 830.465 C 1237.870 829.345, 1240.345 826.870, 1241.465 824.965 C 1244.685 819.483, 1244.685 41.517, 1241.465 36.035 C 1240.345 34.130, 1237.870 31.655, 1235.965 30.535 C 1231.398 27.853, 46.044 26.829, 38.500 29.501 M 347.500 96.991 C 302.380 97.931, 294.590 98.648, 271.500 103.978 C 254.786 107.836, 240.979 110.299, 217.783 113.560 C 206.933 115.085, 201.349 116.697, 183.949 123.327 C 180.346 124.699, 172.246 126.561, 165.949 127.463 C 151.698 129.504, 147.392 130.894, 138.211 136.417 C 133.792 139.076, 127.690 141.654, 122.711 142.967 C 110.185 146.271, 106.172 148.010, 100.600 152.548 C 97.786 154.840, 92.105 158.277, 87.977 160.184 C 68.363 169.247, 70.534 187.882, 92.145 195.956 C 95.249 197.116, 99.702 199.513, 102.040 201.282 C 110.887 207.980, 112.565 209.048, 116.478 210.469 C 118.690 211.273, 122.313 212.386, 124.528 212.944 C 126.743 213.501, 131.691 215.849, 135.524 218.160 C 144.210 223.399, 150.804 225.476, 165.062 227.465 C 179.428 229.469, 179.739 229.549, 191 234.199 C 204.349 239.711, 212.545 241.817, 227.500 243.576 C 234.650 244.417, 248.154 246.847, 257.508 248.977 C 282.666 254.703, 290.588 255.890, 311 256.994 C 347.036 258.943, 416.703 259.910, 452 258.952 C 528.417 256.876, 538.049 255.993, 554.794 249.526 C 562.622 246.503, 565.895 245.901, 584.545 244.057 C 611.462 241.396, 615.891 240.562, 625.126 236.420 C 629.673 234.381, 640.484 231.192, 651.896 228.524 C 672.580 223.689, 672.435 223.743, 681.510 217.530 C 685.474 214.816, 690.087 212.721, 694.569 211.598 C 703.364 209.395, 709.152 206.839, 713.943 203.045 C 716.024 201.397, 721.467 198.471, 726.039 196.543 C 750.335 186.296, 749.988 167.135, 725.339 157.940 C 721.028 156.332, 716.375 154.117, 715 153.018 C 709.905 148.945, 703.540 145.592, 695.108 142.539 C 690.344 140.814, 684.315 137.937, 681.712 136.146 C 674.787 131.381, 671.954 130.427, 654.441 126.957 C 644.404 124.968, 635.078 122.407, 629.040 119.981 C 617.707 115.428, 609.599 113.796, 584.606 111.038 C 568.622 109.274, 564.613 108.475, 557.170 105.566 C 538.368 98.219, 454.048 94.771, 347.500 96.991 M 369 119.091 C 310.660 120.819, 300.432 121.561, 289 124.891 C 277.742 128.171, 260.570 130.973, 236.500 133.457 C 217.611 135.407, 216.863 135.571, 209 139.485 C 197.837 145.041, 191.034 146.725, 168.424 149.530 C 155.740 151.104, 154.916 151.416, 147.474 157.478 C 143.227 160.937, 140.619 162.118, 133.131 163.968 C 119.527 167.329, 115.085 172.663, 117.943 182.205 C 119.307 186.758, 120.944 187.699, 135 192.009 C 140.775 193.780, 149.550 197.396, 154.500 200.045 C 162.644 204.402, 165.070 205.151, 180 207.919 C 199.271 211.491, 199.887 211.655, 211.579 216.326 C 221.736 220.385, 226.556 221.263, 251 223.511 C 261.335 224.462, 274.846 226.502, 284 228.495 C 311.728 234.530, 327.335 235.691, 393.500 236.639 C 461.488 237.614, 508.893 234.947, 539.394 228.430 C 551.610 225.820, 565.522 223.538, 572.894 222.935 C 590.172 221.521, 596.104 220.367, 606.031 216.488 C 616.296 212.477, 626.578 209.790, 642.077 207.067 C 655.365 204.733, 658.482 203.722, 669.500 198.174 C 673.900 195.958, 680.875 193.215, 685 192.080 C 706.051 186.283, 707.854 169.543, 687.981 164.398 C 682.767 163.048, 673.733 159.695, 667.907 156.947 C 662.081 154.198, 653.306 151.013, 648.407 149.868 C 631.342 145.881, 620.439 142.640, 611.167 138.796 C 603.378 135.567, 599.988 134.762, 590.667 133.930 C 562.504 131.417, 546.415 128.958, 522.500 123.512 C 518.527 122.607, 506.636 121.513, 495 120.983 C 423.760 117.736, 417.761 117.646, 369 119.091 M 981.500 276.126 C 979.300 276.635, 973.225 278.368, 968 279.978 C 962.775 281.587, 954.450 283.635, 949.500 284.529 C 938.687 286.481, 931.935 289.387, 923.111 295.886 C 919.475 298.564, 914.543 301.743, 912.151 302.949 C 909.758 304.155, 905.933 306.841, 903.651 308.917 C 901.368 310.992, 897.025 314.331, 894 316.335 C 886.511 321.297, 875.712 333.933, 871.472 342.695 C 869.557 346.652, 866.202 351.956, 864.015 354.482 C 857.171 362.391, 856.161 364.465, 844.290 395 C 837.247 413.117, 839.539 450.240, 849.089 472.699 C 851.240 477.758, 853.004 482.483, 853.010 483.199 C 853.033 486.346, 858.515 495.851, 863.106 500.706 C 866.041 503.808, 869.496 509.003, 871.452 513.251 C 873.428 517.543, 876.489 522.132, 878.958 524.500 C 881.250 526.700, 884.070 530.075, 885.225 532 C 888.558 537.559, 891.146 540.019, 896.500 542.720 C 899.250 544.107, 904.065 547.672, 907.199 550.643 C 910.992 554.237, 915.699 557.333, 921.267 559.893 C 925.869 562.009, 931.243 565.153, 933.209 566.878 C 940.249 573.060, 943.052 573.773, 975.308 577.593 C 1006.593 581.298, 1043.854 575.884, 1057.867 565.598 C 1060.435 563.713, 1065.228 561.120, 1068.518 559.835 C 1072.585 558.248, 1076.149 555.837, 1079.650 552.307 C 1082.483 549.451, 1087.925 545.112, 1091.744 542.664 C 1101.353 536.505, 1105.249 532.881, 1112.281 523.557 C 1115.623 519.125, 1119.700 513.939, 1121.341 512.030 C 1122.982 510.122, 1125.649 505.640, 1127.268 502.070 C 1128.886 498.500, 1131.730 493.726, 1133.586 491.460 C 1143.837 478.950, 1147.747 448.984, 1144.605 407 C 1142.581 379.957, 1141.267 374.598, 1134.846 367.207 C 1133.272 365.395, 1130.576 361.123, 1128.855 357.713 C 1127.133 354.302, 1123.507 349.034, 1120.796 346.006 C 1118.085 342.978, 1113.830 336.570, 1111.340 331.766 C 1107.188 323.754, 1106.305 322.726, 1100.657 319.334 C 1097.271 317.301, 1091.867 313.225, 1088.649 310.278 C 1085.376 307.280, 1078.988 302.999, 1074.149 300.562 C 1069.392 298.166, 1064.375 294.990, 1063 293.505 C 1059.172 289.371, 1054.267 287.306, 1042.901 285.041 C 1037.180 283.901, 1028.675 281.659, 1024 280.057 C 1010.540 275.446, 991.896 273.721, 981.500 276.126 M 968.588 303.514 C 944.961 307.809, 943.960 308.150, 937.334 314.150 C 934.348 316.855, 929.495 320.133, 926.551 321.435 C 923.606 322.737, 918.548 326.210, 915.309 329.151 C 912.071 332.093, 906.064 337.239, 901.960 340.586 C 896.257 345.239, 893.401 348.535, 889.831 354.586 C 887.262 358.939, 883.957 363.625, 882.486 365 C 878.837 368.409, 877.371 371.493, 873.994 382.857 C 872.403 388.214, 869.655 396.175, 867.888 400.548 C 862.954 412.760, 862.827 440.504, 867.653 452.033 C 869.388 456.176, 872.257 465.176, 874.030 472.033 C 877.723 486.319, 878.623 488.371, 883.006 492.500 C 884.758 494.150, 887.718 498.516, 889.584 502.202 C 893.754 510.439, 897.160 514.385, 906.917 522.282 C 911.088 525.658, 916.126 530.062, 918.113 532.070 C 920.544 534.526, 924.464 536.766, 930.092 538.915 C 934.692 540.672, 940.739 543.870, 943.529 546.022 C 952.936 553.280, 966.271 555.971, 992.500 555.905 C 1023.087 555.827, 1033.491 554.039, 1044.500 546.965 C 1047.800 544.845, 1054.440 541.464, 1059.256 539.453 C 1064.655 537.197, 1069.830 534.163, 1072.756 531.538 C 1075.365 529.197, 1080.064 525.644, 1083.198 523.643 C 1088.067 520.534, 1089.486 518.877, 1092.948 512.252 C 1095.176 507.989, 1099.198 501.936, 1101.885 498.803 C 1104.573 495.670, 1107.787 491.395, 1109.028 489.303 C 1110.269 487.211, 1113.057 482.713, 1115.223 479.306 C 1126.944 460.874, 1127.178 394.591, 1115.577 379.397 C 1113.549 376.741, 1110.071 370.740, 1107.848 366.061 C 1100.482 350.556, 1084.881 335.159, 1064.500 323.279 C 1060.650 321.035, 1055.475 317.420, 1053 315.246 C 1039.196 303.121, 1000.405 297.729, 968.588 303.514 M 985.500 398.347 C 959.182 405.159, 955.917 446.242, 980.681 458.980 C 1007.572 472.811, 1044.252 430.731, 1021.582 412.058 C 1020.619 411.264, 1018.463 408.627, 1016.791 406.196 C 1011.659 398.737, 997.610 395.213, 985.500 398.347 M 674.021 559.078 C 670.107 560.699, 668.097 562.892, 661.860 572.341 C 652.951 585.839, 651.988 590.209, 647.120 639.288 C 646.255 648.006, 645.273 652.003, 641.998 660.125 C 638.020 669.992, 637.118 674.372, 635.081 693.733 C 632.924 714.241, 631.297 714.957, 593 712.239 C 538.657 708.383, 435.965 708.511, 357 712.533 C 309.257 714.964, 306.898 715.137, 294.500 717.103 C 247.391 724.573, 236.636 725.024, 228.841 719.854 C 225.818 717.849, 220.904 714.980, 217.922 713.479 C 214.940 711.977, 209.909 708.812, 206.743 706.444 C 199.798 701.250, 193 698.579, 182.994 697.112 C 140.829 690.932, 124 695.791, 124 714.148 C 124 724.799, 119.233 727.431, 104.178 725.096 C 90.484 722.971, 86.015 723.962, 78.823 730.719 C 68.685 740.245, 79.539 758.972, 98.663 764.950 C 103.987 766.614, 110.955 769.335, 114.147 770.997 C 136.328 782.540, 182.909 782.426, 207.423 770.768 C 218.500 765.500, 218.500 765.500, 473 765.436 C 755.659 765.366, 733.958 765.888, 740.855 758.992 C 746.548 753.298, 746.500 754.123, 746.500 662 C 746.500 562.664, 747.136 567.167, 732.129 560.254 C 727.772 558.247, 678.437 557.248, 674.021 559.078 M 691.500 583.879 C 677.303 590.393, 672.630 601.292, 670.009 634 C 668.581 651.812, 666.794 661.927, 661.348 683 C 652.184 718.469, 654.763 724.154, 682 728.527 C 712.344 733.399, 717.303 732.893, 721.500 724.500 C 723.633 720.234, 724.696 608.150, 722.693 598.690 C 720.197 586.898, 702.861 578.666, 691.500 583.879 M 408.500 732.998 C 362.407 734.057, 346.519 736.205, 356.555 740.021 C 365.316 743.352, 591.806 744.390, 599.750 741.136 C 617.448 733.886, 530.621 730.192, 408.500 732.998" stroke="none" fill="#f4f4f4" fill-rule="evenodd"/></svg>