<svg xmlns="http://www.w3.org/2000/svg" width="1272" height="789" viewBox="0 0 1272 789" version="1.1"><path d="M 155.403 130.049 C 145.427 131.352, 129.916 140.814, 117.939 152.905 C 111.851 159.050, 101.610 167.633, 98.361 169.313 C 90.772 173.238, 79.273 177.102, 69.303 179.079 C 40.332 184.824, 39.574 200.949, 68.270 201.028 C 100.860 201.118, 125.761 204.477, 138.394 210.487 C 148.965 215.517, 153.007 216.447, 174.965 218.906 C 203.410 222.091, 204.784 229.588, 181.310 253.523 C 175.365 259.585, 166.626 269.035, 161.891 274.523 C 157.155 280.010, 149.280 288.316, 144.391 292.980 C 123.469 312.936, 109.157 329.806, 102.929 341.853 C 100.965 345.651, 97.864 350.647, 96.037 352.953 C 85.008 366.878, 84.760 412.061, 95.623 428.173 C 97.599 431.103, 100.697 436.425, 102.509 440 C 104.320 443.575, 107.651 448.491, 109.910 450.925 C 112.168 453.359, 115.348 457.409, 116.974 459.925 C 120.282 465.041, 130.156 474.195, 137 478.492 C 142.189 481.750, 164.677 502.378, 176.725 514.930 C 228.137 568.499, 231.120 571.449, 238.945 576.465 C 260.550 590.313, 273.628 631.799, 262.917 652.506 C 251.477 674.623, 249.051 679.074, 246.798 682.081 C 245.389 683.962, 243.483 686.989, 242.561 688.810 C 235.417 702.931, 234.224 703.198, 175.846 703.752 C 120.159 704.281, 120 704.314, 120 715.549 C 120 724.412, 120.619 724.500, 183.168 724.500 C 257.034 724.500, 258.663 723.988, 265.011 698.753 C 266.988 690.895, 275.439 671.973, 279.308 666.742 C 284.383 659.882, 296.851 632.663, 297.972 626 C 299.848 614.849, 300.105 614.029, 302.674 610.976 C 305.794 607.267, 310.641 607.031, 321.263 610.072 C 326.603 611.600, 333.086 612.339, 346 612.890 C 370.543 613.936, 372.481 614.985, 383.157 633 C 392.967 649.554, 393.679 670.987, 384.985 688.030 C 376.963 703.753, 378.115 703.448, 325.500 703.765 C 269.983 704.098, 271 703.919, 271 713.365 C 271 725.070, 271.559 725.168, 336.572 724.803 C 406.976 724.408, 408.431 723.850, 408.563 697.158 C 408.638 681.954, 411.314 657.518, 414.110 646.508 C 415.733 640.116, 416.004 636.898, 415.466 630.434 C 414.430 617.996, 415.598 617.011, 432.542 616.043 C 445.433 615.307, 445.547 615.278, 454.664 610.588 C 467.361 604.055, 471.364 603.756, 485 608.320 C 505.754 615.266, 516.797 615.686, 530.073 610.037 C 547.058 602.809, 567.854 603.098, 583.293 610.776 C 594.259 616.230, 595.011 616.451, 609.314 618.449 C 634.834 622.014, 637.169 604.522, 611.926 598.886 C 604.048 597.127, 600.289 595.686, 595.596 592.629 C 592.243 590.444, 586.018 587.176, 581.762 585.367 C 577.506 583.558, 571.551 580.495, 568.527 578.560 C 565.503 576.626, 560.320 573.676, 557.008 572.004 C 536.223 561.512, 539.865 552.707, 565.282 552.004 C 584.272 551.479, 587.112 550.859, 591.174 546.352 C 597.986 538.796, 590.643 531.569, 573.500 528.958 C 568.711 528.228, 564.171 526.637, 559.127 523.921 C 555.071 521.737, 548.181 518.793, 543.814 517.380 C 538.091 515.527, 534.288 513.496, 530.188 510.102 C 527.059 507.513, 522.250 503.874, 519.500 502.016 C 516.750 500.157, 512.683 497.168, 510.462 495.372 C 508.241 493.576, 503.429 490.763, 499.769 489.120 C 492.283 485.762, 480.284 476.109, 463.500 459.945 C 457.450 454.118, 449.800 447.302, 446.500 444.797 C 443.200 442.293, 439.600 439.240, 438.500 438.013 C 435.493 434.658, 421.180 423.780, 415.500 420.533 C 412.750 418.960, 408.172 415.562, 405.326 412.980 C 401.917 409.888, 397.427 407.188, 392.168 405.068 C 387.777 403.298, 382.681 400.724, 380.842 399.347 C 376.067 395.772, 371.310 393.450, 363.781 391.017 C 360.163 389.849, 354.570 387.296, 351.352 385.346 C 343.748 380.737, 342.516 380.288, 329.652 377.432 C 323.686 376.107, 315.361 373.474, 311.152 371.581 C 303.779 368.263, 298.594 367.065, 276.092 363.481 C 270.367 362.570, 260.712 360.297, 254.637 358.432 C 248.561 356.567, 239.970 354.540, 235.545 353.928 C 212.381 350.726, 200.865 348.757, 195 346.996 C 171.620 339.978, 166.834 317.449, 184.606 298.075 C 209.021 271.459, 226.771 248.902, 229.520 241 C 234.499 226.687, 235.967 203.577, 233.088 184.823 C 230.469 167.760, 229.612 165.057, 224.698 158.341 C 222.348 155.128, 219.426 150.867, 218.206 148.871 C 208.161 132.446, 186.584 125.979, 155.403 130.049 M 986.500 129.962 C 964.981 132.018, 950.084 147.160, 940.714 176.500 C 935.714 192.157, 929.525 208.331, 925.327 216.711 C 918.875 229.591, 920 234.980, 931.961 248.500 C 948.928 267.678, 950.596 276.189, 938.656 282.654 C 934.436 284.938, 929.427 288.174, 927.525 289.843 C 925.624 291.513, 921.275 294.776, 917.861 297.094 C 908.687 303.324, 896.594 315.328, 890.870 323.886 C 888.098 328.030, 883.281 334.270, 880.165 337.752 C 877.049 341.234, 871.785 347.101, 868.467 350.791 C 865.148 354.481, 861.773 358.423, 860.967 359.550 C 855.444 367.270, 843.361 366.971, 836.609 358.948 C 835.164 357.229, 831.075 353.501, 827.523 350.662 C 796.292 325.695, 785.575 313.921, 780.499 298.996 C 779.135 294.985, 776.720 289.633, 775.134 287.102 C 773.547 284.571, 770.584 279.280, 768.550 275.344 C 762.319 263.288, 750.598 255, 739.781 255 C 724.768 255, 721.258 264.904, 730.150 282.173 C 733.693 289.055, 734.190 290.938, 734.943 300.349 C 736.090 314.676, 738.594 320.076, 747.247 326.876 C 755.535 333.389, 781.108 361.040, 796.217 379.825 C 798.573 382.753, 802.525 387.553, 805 390.491 C 807.475 393.429, 811.975 398.897, 815 402.641 C 843.119 437.451, 869.026 437.456, 892.535 402.657 C 897.374 395.494, 921.789 370.091, 924.485 369.414 C 928.474 368.413, 931.751 371.669, 936.528 381.378 C 941.401 391.283, 942.042 394.494, 944.002 418.790 C 945.013 431.316, 945.887 435.525, 953.184 463 C 956.894 476.966, 956.334 495.037, 951.775 508.500 C 949.727 514.550, 947.570 522.875, 946.983 527 C 945.299 538.831, 942.400 545, 938.523 545 C 937.231 545, 927.584 535.255, 922.712 529.030 C 919.901 525.438, 915.329 520.203, 912.551 517.396 C 909.773 514.588, 903.675 508.164, 899 503.120 C 894.325 498.076, 887.805 492.071, 884.512 489.775 C 881.218 487.480, 876.680 483.902, 874.426 481.825 C 872.173 479.749, 867.218 476.616, 863.415 474.864 C 859.612 473.113, 853.494 469.919, 849.821 467.768 C 805.569 441.852, 775.289 486.375, 797.975 544 C 803.294 557.509, 804.051 560.797, 805.560 576.918 C 806.413 586.038, 808.014 597.775, 809.118 603 C 813.278 622.693, 812.686 624.888, 800.320 635.666 C 784.190 649.724, 782.578 651.757, 778.990 662.565 C 774.373 676.475, 772.076 678.598, 757 682.894 C 730.513 690.441, 721.500 698.889, 725.449 712.471 C 728.953 724.527, 745.009 728.655, 762.500 721.997 C 786.489 712.865, 782.400 713.309, 831.500 714.511 C 850.938 714.987, 868.013 714.848, 880 714.114 C 925.770 711.313, 942.861 709.739, 955.500 707.161 C 971.734 703.850, 988.557 703.754, 1013.519 706.829 C 1034.664 709.433, 1064.792 716.217, 1079 721.572 C 1097.972 728.723, 1127.630 725.103, 1132.750 715.011 C 1138.115 704.436, 1132.905 698.428, 1114.603 694.081 C 1109.265 692.813, 1102.567 690.262, 1097.641 687.621 C 1093.163 685.221, 1086.081 682.039, 1081.902 680.550 C 1060.065 672.770, 1057.045 664.970, 1064.060 634.472 C 1068.602 614.729, 1068.632 602.299, 1064.169 589.294 C 1056.233 566.167, 1060.826 476.943, 1070.977 457.045 C 1075.375 448.424, 1087.423 448.886, 1107.922 458.460 C 1113.190 460.920, 1121.809 464.051, 1127.075 465.418 C 1132.341 466.784, 1140.417 469.724, 1145.022 471.951 C 1157.404 477.939, 1161.479 477.443, 1170.576 468.840 C 1182.720 457.355, 1183.997 447.878, 1175.746 430.500 C 1173.134 425, 1170.046 417.350, 1168.884 413.500 C 1167.722 409.650, 1165.066 403.350, 1162.983 399.500 C 1160.900 395.650, 1157.927 388.450, 1156.376 383.500 C 1154.594 377.809, 1151.927 372.114, 1149.122 368.011 C 1146.682 364.442, 1143.379 357.917, 1141.782 353.511 C 1140.185 349.105, 1137.131 342.575, 1134.995 339 C 1132.859 335.425, 1129.896 329.203, 1128.411 325.172 C 1126.607 320.276, 1124.179 316.129, 1121.094 312.672 C 1118.555 309.828, 1114.960 305.217, 1113.104 302.427 C 1111.249 299.637, 1108.111 296.262, 1106.131 294.927 C 1104.152 293.592, 1099.289 290.191, 1095.325 287.368 C 1087.562 281.839, 1072.695 274.259, 1064.307 271.553 C 1051.916 267.554, 1051.223 263.975, 1060.833 253.611 C 1080.641 232.248, 1082.331 175.386, 1063.794 153.971 C 1044.866 132.103, 1025.867 126.201, 986.500 129.962 M 564.200 135.050 C 557.202 137.858, 557.500 131.898, 557.500 269 C 557.500 336.925, 557.855 394.174, 558.290 396.221 C 560.954 408.770, 573.046 408.770, 575.710 396.221 C 577.906 385.878, 576.584 145.682, 574.304 140.746 C 572.517 136.875, 568.573 133.416, 566.685 134.063 C 566.583 134.098, 565.465 134.542, 564.200 135.050 M 161.409 149.134 C 154.003 150.801, 152.700 152.957, 153.517 162.194 C 154.520 173.520, 153.066 175, 140.936 175 C 126.836 175, 122.986 180.599, 135.795 182.476 C 142.600 183.473, 147.942 186.172, 152.483 190.907 C 158.495 197.178, 169.768 199.495, 197.500 200.160 C 211.899 200.506, 214.632 197.082, 211.645 182.436 C 206.670 158.041, 185.171 143.789, 161.409 149.134 M 991.152 149.074 C 976.796 151.897, 967.207 165.789, 975.055 172.393 C 984.835 180.622, 993.709 183.849, 1009.606 184.956 C 1030.453 186.408, 1036.981 196.219, 1030.596 216.500 C 1025.665 232.161, 1032.141 243.128, 1043.382 238.155 C 1052.048 234.322, 1054.011 228.744, 1054.726 205.921 C 1055.677 175.592, 1050.684 165.119, 1029.171 152.312 C 1022.724 148.474, 1002.823 146.779, 991.152 149.074 M 982.310 205.288 C 981.106 205.958, 978.308 209.037, 976.092 212.132 C 971.721 218.236, 966.834 221, 960.414 221 C 941.922 221, 951.542 244.018, 973 251.113 C 985.461 255.234, 989 259.222, 989 269.144 C 989 277.022, 986.215 281.850, 979.269 286.010 C 976.096 287.910, 970.921 291.343, 967.768 293.638 C 964.616 295.933, 958.944 298.993, 955.164 300.437 C 951.384 301.882, 946.183 304.401, 943.605 306.035 C 941.028 307.670, 936.575 310.180, 933.709 311.614 C 926.925 315.009, 924.332 317.458, 921.375 323.268 C 920.040 325.891, 916.713 330.505, 913.981 333.521 C 911.249 336.538, 907.678 341.372, 906.046 344.264 C 904.414 347.156, 901.733 350.317, 900.087 351.289 C 894.677 354.485, 890.075 363, 893.758 363 C 896.343 363, 899.684 359.224, 901.318 354.456 C 902.329 351.508, 903.746 349.902, 906.877 348.153 C 909.189 346.862, 912.852 343.408, 915.017 340.476 C 918.205 336.162, 920.505 334.371, 927.093 331.073 C 942.070 323.577, 946.075 326.413, 950.460 347.621 C 951.811 354.154, 954.719 365.961, 956.923 373.859 C 960.706 387.415, 961.359 391.505, 964.936 424 C 965.563 429.693, 967.187 435.967, 969.855 443 C 977.143 462.213, 978.277 493.198, 972.472 514.500 C 960.138 559.760, 969.532 569.839, 1006.654 551.174 C 1013.770 547.596, 1018.054 546.380, 1030.075 544.526 C 1038.847 543.174, 1040.426 538.107, 1041.458 508 C 1042.251 484.889, 1043.312 474.777, 1046.575 459.241 C 1050.139 442.268, 1046.036 433.336, 1031.780 427.037 C 1014.295 419.310, 1011.714 417.845, 1006.618 412.748 C 1003.477 409.607, 1000.769 405.802, 1000.011 403.463 C 997.074 394.399, 994.117 390.248, 985.287 382.797 C 971.264 370.962, 967.268 362.680, 971.966 355.192 C 982.005 339.190, 1016.690 352.221, 1031.340 377.500 C 1040.866 393.939, 1052.735 394.304, 1056.041 378.260 C 1057.367 371.827, 1058.302 369.765, 1064.777 359 C 1073.173 345.039, 1074.934 342.939, 1080.367 340.410 C 1087.900 336.902, 1093.280 337.195, 1100.430 341.500 C 1108.644 346.446, 1109.410 346.258, 1108.708 339.459 C 1108.100 333.568, 1107.117 331.613, 1100 322.142 C 1097.525 318.848, 1093.925 313.859, 1092 311.055 C 1086.820 303.510, 1069.643 296.090, 1041.070 289.054 C 1023.413 284.707, 1021.613 282.429, 1011.475 251.589 C 1004.489 230.340, 1004 228.283, 1004 220.149 C 1004 207.041, 992.872 199.416, 982.310 205.288 M 133.812 335.250 C 124.484 345.292, 110.695 365.816, 108.838 372.422 C 105.347 384.836, 108.041 410.894, 113.680 419.257 C 115.624 422.141, 118.745 427.532, 120.614 431.238 C 126.011 441.937, 136.046 451.681, 165.851 475.163 C 168.408 477.178, 175.128 483.478, 180.784 489.163 C 200.631 509.111, 230.569 539.946, 237.500 547.577 C 241.350 551.816, 246.292 556.458, 248.482 557.892 C 250.672 559.327, 255.308 562.638, 258.785 565.250 C 262.261 567.862, 265.609 570, 266.223 570 C 266.837 570, 272.835 572.711, 279.551 576.025 C 301.382 586.797, 338.722 593.361, 356 589.464 C 376.955 584.737, 382.227 583.836, 389 583.822 C 398.976 583.801, 404.594 585.204, 416.223 590.621 C 432.567 598.233, 440.886 597.186, 446.847 586.768 C 453.358 575.387, 457.540 574.225, 469.789 580.394 C 501.736 596.482, 538.053 594.015, 527.120 576.500 C 515.710 558.220, 502.257 550.150, 481.174 548.940 C 437.204 546.416, 434.585 546.151, 417.500 542.486 C 397.322 538.158, 388.769 536.805, 363.500 533.945 C 353.050 532.763, 340.450 530.712, 335.500 529.388 C 323.069 526.063, 304.877 521.486, 296.500 519.577 C 292.650 518.699, 285.675 516.152, 281 513.916 C 275.958 511.505, 268.755 509.081, 263.294 507.958 C 252.857 505.810, 248.518 504.183, 241.891 499.930 C 239.343 498.295, 233.068 495.166, 227.947 492.977 C 199.847 480.967, 185.932 464.023, 185.878 441.752 C 185.836 424.324, 192.199 414, 202.983 414 C 210.457 414, 211.987 418.160, 209.054 430.508 C 204.241 450.776, 215.450 467.657, 238.911 475.470 C 243.375 476.957, 249.159 479.636, 251.764 481.424 C 259.069 486.438, 260.216 486.894, 272.213 489.547 C 279.146 491.081, 287.080 493.713, 292.968 496.432 C 300.413 499.871, 304.470 501.078, 311.500 501.946 C 326.311 503.775, 336.483 505.889, 348.291 509.591 C 363.091 514.232, 365.343 514.684, 380 515.965 C 398.649 517.595, 420.236 520.819, 431.500 523.657 C 448.851 528.029, 501.008 530.495, 506.750 527.215 C 512.014 524.208, 505.081 514.918, 492.728 508.426 C 488.774 506.348, 483.505 502.759, 481.019 500.450 C 478.534 498.141, 474.025 494.674, 471 492.746 C 467.975 490.818, 463.639 487.274, 461.363 484.870 C 454.881 478.021, 445.879 469.694, 441.500 466.494 C 439.300 464.887, 435.669 461.934, 433.432 459.933 C 431.195 457.932, 426.697 454.588, 423.437 452.503 C 420.178 450.418, 415.034 446.603, 412.006 444.025 C 400.886 434.560, 394.300 429.936, 385.648 425.522 C 380.780 423.039, 375.155 419.717, 373.148 418.140 C 368.473 414.467, 365.078 412.791, 356.819 410.078 C 353.145 408.871, 348.377 406.607, 346.223 405.047 C 340.010 400.546, 337.058 399.332, 328 397.550 C 323.325 396.631, 315.450 394.589, 310.500 393.012 C 291.933 387.099, 282.538 384.899, 267.237 382.883 C 258.582 381.742, 244.525 379.006, 236 376.803 C 213.623 371.019, 209.033 370.045, 204 370.013 C 191.278 369.933, 183.686 367.389, 174.799 360.231 C 171.885 357.883, 167.478 354.488, 165.008 352.686 C 161.899 350.419, 159.254 347.113, 156.422 341.955 C 149.025 328.485, 142.024 326.409, 133.812 335.250 M 1084.999 371.250 C 1071.183 380.681, 1077.232 403.213, 1093.987 404.733 C 1107.067 405.919, 1110.835 398.974, 1102.989 388.143 C 1101.406 385.958, 1098.534 381.039, 1096.607 377.212 C 1092.147 368.356, 1090.488 367.504, 1084.999 371.250 M 1144.714 419.697 C 1144.456 420.139, 1143.517 423.036, 1142.628 426.136 C 1141.507 430.041, 1139.595 433.346, 1136.402 436.897 C 1130.826 443.100, 1131.120 444.398, 1138.596 446.571 C 1148.988 449.592, 1156.036 446.964, 1155.961 440.095 C 1155.892 433.762, 1146.476 416.683, 1144.714 419.697 M 848.255 497.117 C 840.604 499.327, 839.733 509.906, 846.323 520.583 C 848.943 524.827, 850.509 528.986, 851.586 534.562 C 852.430 538.928, 854.262 547.900, 855.659 554.500 C 857.110 561.363, 858.516 572.244, 858.942 579.917 C 860.100 600.783, 865.320 602.826, 890.500 592.266 C 897.100 589.498, 905.592 586.226, 909.372 584.994 C 920.577 581.344, 927.358 572.470, 924.214 565.570 C 922.811 562.492, 911.816 547.989, 908.998 545.500 C 907.752 544.400, 905.028 541.250, 902.944 538.500 C 891.911 523.942, 864.447 499.052, 857.193 497.037 C 852.941 495.856, 852.614 495.859, 848.255 497.117 M 822.200 536.200 C 820.554 537.846, 820.680 540.225, 823.017 551.584 C 824.127 556.976, 825.513 565.676, 826.097 570.917 C 827.305 581.753, 829.155 587.261, 831.309 586.435 C 839.151 583.426, 835.417 540.852, 826.926 536.462 C 823.522 534.701, 823.689 534.711, 822.200 536.200 M 1015.095 571.983 C 1008.822 574.103, 999.822 576.344, 995.095 576.962 C 982.273 578.640, 978.197 579.757, 970.560 583.682 C 966.706 585.664, 958.504 588.515, 952.111 590.096 C 943.788 592.154, 939.202 593.889, 935.550 596.358 C 928.244 601.298, 927.227 601.715, 917.076 603.930 C 909.530 605.577, 906.552 606.824, 900.510 610.865 C 896.459 613.574, 890.750 616.562, 887.822 617.504 C 884.895 618.446, 878.900 621.126, 874.500 623.460 C 870.100 625.793, 863.350 628.732, 859.500 629.989 C 833.464 638.493, 826.929 653.483, 845.500 662.100 C 851.383 664.830, 856.883 664.457, 866.788 660.659 C 897.900 648.730, 969.919 649.492, 997.500 662.043 C 1018.083 671.410, 1036.234 663.236, 1040.901 642.500 C 1045.190 623.444, 1045.233 604.154, 1041.032 584.902 C 1037.074 566.767, 1034.428 565.450, 1015.095 571.983 M 803.825 664.038 C 797.632 667.651, 799.928 677.765, 808.879 686.303 C 817.274 694.311, 817.188 694.299, 856.291 692.974 C 921.546 690.764, 957.253 686.716, 965.517 680.591 C 978.137 671.240, 894.960 670.514, 877 679.819 C 851.710 692.921, 841.405 691.669, 823.398 673.303 C 812.781 662.475, 809.315 660.835, 803.825 664.038" stroke="none" fill="#6a6a6a" fill-rule="evenodd"/><path d="M 38.500 29.501 C 33.628 31.227, 30.412 34.755, 29.029 39.893 C 26.707 48.514, 28.187 748.968, 30.535 752.965 C 31.655 754.870, 34.130 757.345, 36.035 758.465 C 41.519 761.686, 1230.481 761.686, 1235.965 758.465 C 1244.370 753.527, 1243.500 795.540, 1243.500 394.500 C 1243.500 -6.540, 1244.370 35.473, 1235.965 30.535 C 1231.398 27.853, 46.044 26.829, 38.500 29.501 M 155.403 130.049 C 145.427 131.352, 129.916 140.814, 117.939 152.905 C 111.851 159.050, 101.610 167.633, 98.361 169.313 C 90.772 173.238, 79.273 177.102, 69.303 179.079 C 40.332 184.824, 39.574 200.949, 68.270 201.028 C 100.860 201.118, 125.761 204.477, 138.394 210.487 C 148.965 215.517, 153.007 216.447, 174.965 218.906 C 203.410 222.091, 204.784 229.588, 181.310 253.523 C 175.365 259.585, 166.626 269.035, 161.891 274.523 C 157.155 280.010, 149.280 288.316, 144.391 292.980 C 123.469 312.936, 109.157 329.806, 102.929 341.853 C 100.965 345.651, 97.864 350.647, 96.037 352.953 C 85.008 366.878, 84.760 412.061, 95.623 428.173 C 97.599 431.103, 100.697 436.425, 102.509 440 C 104.320 443.575, 107.651 448.491, 109.910 450.925 C 112.168 453.359, 115.348 457.409, 116.974 459.925 C 120.282 465.041, 130.156 474.195, 137 478.492 C 142.189 481.750, 164.677 502.378, 176.725 514.930 C 228.137 568.499, 231.120 571.449, 238.945 576.465 C 260.550 590.313, 273.628 631.799, 262.917 652.506 C 251.477 674.623, 249.051 679.074, 246.798 682.081 C 245.389 683.962, 243.483 686.989, 242.561 688.810 C 235.417 702.931, 234.224 703.198, 175.846 703.752 C 120.159 704.281, 120 704.314, 120 715.549 C 120 724.412, 120.619 724.500, 183.168 724.500 C 257.034 724.500, 258.663 723.988, 265.011 698.753 C 266.988 690.895, 275.439 671.973, 279.308 666.742 C 284.383 659.882, 296.851 632.663, 297.972 626 C 299.848 614.849, 300.105 614.029, 302.674 610.976 C 305.794 607.267, 310.641 607.031, 321.263 610.072 C 326.603 611.600, 333.086 612.339, 346 612.890 C 370.543 613.936, 372.481 614.985, 383.157 633 C 392.967 649.554, 393.679 670.987, 384.985 688.030 C 376.963 703.753, 378.115 703.448, 325.500 703.765 C 269.983 704.098, 271 703.919, 271 713.365 C 271 725.070, 271.559 725.168, 336.572 724.803 C 406.976 724.408, 408.431 723.850, 408.563 697.158 C 408.638 681.954, 411.314 657.518, 414.110 646.508 C 415.733 640.116, 416.004 636.898, 415.466 630.434 C 414.430 617.996, 415.598 617.011, 432.542 616.043 C 445.433 615.307, 445.547 615.278, 454.664 610.588 C 467.361 604.055, 471.364 603.756, 485 608.320 C 505.754 615.266, 516.797 615.686, 530.073 610.037 C 547.058 602.809, 567.854 603.098, 583.293 610.776 C 594.259 616.230, 595.011 616.451, 609.314 618.449 C 634.834 622.014, 637.169 604.522, 611.926 598.886 C 604.048 597.127, 600.289 595.686, 595.596 592.629 C 592.243 590.444, 586.018 587.176, 581.762 585.367 C 577.506 583.558, 571.551 580.495, 568.527 578.560 C 565.503 576.626, 560.320 573.676, 557.008 572.004 C 536.223 561.512, 539.865 552.707, 565.282 552.004 C 584.272 551.479, 587.112 550.859, 591.174 546.352 C 597.986 538.796, 590.643 531.569, 573.500 528.958 C 568.711 528.228, 564.171 526.637, 559.127 523.921 C 555.071 521.737, 548.181 518.793, 543.814 517.380 C 538.091 515.527, 534.288 513.496, 530.188 510.102 C 527.059 507.513, 522.250 503.874, 519.500 502.016 C 516.750 500.157, 512.683 497.168, 510.462 495.372 C 508.241 493.576, 503.429 490.763, 499.769 489.120 C 492.283 485.762, 480.284 476.109, 463.500 459.945 C 457.450 454.118, 449.800 447.302, 446.500 444.797 C 443.200 442.293, 439.600 439.240, 438.500 438.013 C 435.493 434.658, 421.180 423.780, 415.500 420.533 C 412.750 418.960, 408.172 415.562, 405.326 412.980 C 401.917 409.888, 397.427 407.188, 392.168 405.068 C 387.777 403.298, 382.681 400.724, 380.842 399.347 C 376.067 395.772, 371.310 393.450, 363.781 391.017 C 360.163 389.849, 354.570 387.296, 351.352 385.346 C 343.748 380.737, 342.516 380.288, 329.652 377.432 C 323.686 376.107, 315.361 373.474, 311.152 371.581 C 303.779 368.263, 298.594 367.065, 276.092 363.481 C 270.367 362.570, 260.712 360.297, 254.637 358.432 C 248.561 356.567, 239.970 354.540, 235.545 353.928 C 212.381 350.726, 200.865 348.757, 195 346.996 C 171.620 339.978, 166.834 317.449, 184.606 298.075 C 209.021 271.459, 226.771 248.902, 229.520 241 C 234.499 226.687, 235.967 203.577, 233.088 184.823 C 230.469 167.760, 229.612 165.057, 224.698 158.341 C 222.348 155.128, 219.426 150.867, 218.206 148.871 C 208.161 132.446, 186.584 125.979, 155.403 130.049 M 986.500 129.962 C 964.981 132.018, 950.084 147.160, 940.714 176.500 C 935.714 192.157, 929.525 208.331, 925.327 216.711 C 918.875 229.591, 920 234.980, 931.961 248.500 C 948.928 267.678, 950.596 276.189, 938.656 282.654 C 934.436 284.938, 929.427 288.174, 927.525 289.843 C 925.624 291.513, 921.275 294.776, 917.861 297.094 C 908.687 303.324, 896.594 315.328, 890.870 323.886 C 888.098 328.030, 883.281 334.270, 880.165 337.752 C 877.049 341.234, 871.785 347.101, 868.467 350.791 C 865.148 354.481, 861.773 358.423, 860.967 359.550 C 855.444 367.270, 843.361 366.971, 836.609 358.948 C 835.164 357.229, 831.075 353.501, 827.523 350.662 C 796.292 325.695, 785.575 313.921, 780.499 298.996 C 779.135 294.985, 776.720 289.633, 775.134 287.102 C 773.547 284.571, 770.584 279.280, 768.550 275.344 C 762.319 263.288, 750.598 255, 739.781 255 C 724.768 255, 721.258 264.904, 730.150 282.173 C 733.693 289.055, 734.190 290.938, 734.943 300.349 C 736.090 314.676, 738.594 320.076, 747.247 326.876 C 755.535 333.389, 781.108 361.040, 796.217 379.825 C 798.573 382.753, 802.525 387.553, 805 390.491 C 807.475 393.429, 811.975 398.897, 815 402.641 C 843.119 437.451, 869.026 437.456, 892.535 402.657 C 897.374 395.494, 921.789 370.091, 924.485 369.414 C 928.474 368.413, 931.751 371.669, 936.528 381.378 C 941.401 391.283, 942.042 394.494, 944.002 418.790 C 945.013 431.316, 945.887 435.525, 953.184 463 C 956.894 476.966, 956.334 495.037, 951.775 508.500 C 949.727 514.550, 947.570 522.875, 946.983 527 C 945.299 538.831, 942.400 545, 938.523 545 C 937.231 545, 927.584 535.255, 922.712 529.030 C 919.901 525.438, 915.329 520.203, 912.551 517.396 C 909.773 514.588, 903.675 508.164, 899 503.120 C 894.325 498.076, 887.805 492.071, 884.512 489.775 C 881.218 487.480, 876.680 483.902, 874.426 481.825 C 872.173 479.749, 867.218 476.616, 863.415 474.864 C 859.612 473.113, 853.494 469.919, 849.821 467.768 C 805.569 441.852, 775.289 486.375, 797.975 544 C 803.294 557.509, 804.051 560.797, 805.560 576.918 C 806.413 586.038, 808.014 597.775, 809.118 603 C 813.278 622.693, 812.686 624.888, 800.320 635.666 C 784.190 649.724, 782.578 651.757, 778.990 662.565 C 774.373 676.475, 772.076 678.598, 757 682.894 C 730.513 690.441, 721.500 698.889, 725.449 712.471 C 728.953 724.527, 745.009 728.655, 762.500 721.997 C 786.489 712.865, 782.400 713.309, 831.500 714.511 C 850.938 714.987, 868.013 714.848, 880 714.114 C 925.770 711.313, 942.861 709.739, 955.500 707.161 C 971.734 703.850, 988.557 703.754, 1013.519 706.829 C 1034.664 709.433, 1064.792 716.217, 1079 721.572 C 1097.972 728.723, 1127.630 725.103, 1132.750 715.011 C 1138.115 704.436, 1132.905 698.428, 1114.603 694.081 C 1109.265 692.813, 1102.567 690.262, 1097.641 687.621 C 1093.163 685.221, 1086.081 682.039, 1081.902 680.550 C 1060.065 672.770, 1057.045 664.970, 1064.060 634.472 C 1068.602 614.729, 1068.632 602.299, 1064.169 589.294 C 1056.233 566.167, 1060.826 476.943, 1070.977 457.045 C 1075.375 448.424, 1087.423 448.886, 1107.922 458.460 C 1113.190 460.920, 1121.809 464.051, 1127.075 465.418 C 1132.341 466.784, 1140.417 469.724, 1145.022 471.951 C 1157.404 477.939, 1161.479 477.443, 1170.576 468.840 C 1182.720 457.355, 1183.997 447.878, 1175.746 430.500 C 1173.134 425, 1170.046 417.350, 1168.884 413.500 C 1167.722 409.650, 1165.066 403.350, 1162.983 399.500 C 1160.900 395.650, 1157.927 388.450, 1156.376 383.500 C 1154.594 377.809, 1151.927 372.114, 1149.122 368.011 C 1146.682 364.442, 1143.379 357.917, 1141.782 353.511 C 1140.185 349.105, 1137.131 342.575, 1134.995 339 C 1132.859 335.425, 1129.896 329.203, 1128.411 325.172 C 1126.607 320.276, 1124.179 316.129, 1121.094 312.672 C 1118.555 309.828, 1114.960 305.217, 1113.104 302.427 C 1111.249 299.637, 1108.111 296.262, 1106.131 294.927 C 1104.152 293.592, 1099.289 290.191, 1095.325 287.368 C 1087.562 281.839, 1072.695 274.259, 1064.307 271.553 C 1051.916 267.554, 1051.223 263.975, 1060.833 253.611 C 1080.641 232.248, 1082.331 175.386, 1063.794 153.971 C 1044.866 132.103, 1025.867 126.201, 986.500 129.962 M 564.200 135.050 C 557.202 137.858, 557.500 131.898, 557.500 269 C 557.500 336.925, 557.855 394.174, 558.290 396.221 C 560.954 408.770, 573.046 408.770, 575.710 396.221 C 577.906 385.878, 576.584 145.682, 574.304 140.746 C 572.517 136.875, 568.573 133.416, 566.685 134.063 C 566.583 134.098, 565.465 134.542, 564.200 135.050 M 161.409 149.134 C 154.003 150.801, 152.700 152.957, 153.517 162.194 C 154.520 173.520, 153.066 175, 140.936 175 C 126.836 175, 122.986 180.599, 135.795 182.476 C 142.600 183.473, 147.942 186.172, 152.483 190.907 C 158.495 197.178, 169.768 199.495, 197.500 200.160 C 211.899 200.506, 214.632 197.082, 211.645 182.436 C 206.670 158.041, 185.171 143.789, 161.409 149.134 M 991.152 149.074 C 976.796 151.897, 967.207 165.789, 975.055 172.393 C 984.835 180.622, 993.709 183.849, 1009.606 184.956 C 1030.453 186.408, 1036.981 196.219, 1030.596 216.500 C 1025.665 232.161, 1032.141 243.128, 1043.382 238.155 C 1052.048 234.322, 1054.011 228.744, 1054.726 205.921 C 1055.677 175.592, 1050.684 165.119, 1029.171 152.312 C 1022.724 148.474, 1002.823 146.779, 991.152 149.074 M 982.310 205.288 C 981.106 205.958, 978.308 209.037, 976.092 212.132 C 971.721 218.236, 966.834 221, 960.414 221 C 941.922 221, 951.542 244.018, 973 251.113 C 985.461 255.234, 989 259.222, 989 269.144 C 989 277.022, 986.215 281.850, 979.269 286.010 C 976.096 287.910, 970.921 291.343, 967.768 293.638 C 964.616 295.933, 958.944 298.993, 955.164 300.437 C 951.384 301.882, 946.183 304.401, 943.605 306.035 C 941.028 307.670, 936.575 310.180, 933.709 311.614 C 926.925 315.009, 924.332 317.458, 921.375 323.268 C 920.040 325.891, 916.713 330.505, 913.981 333.521 C 911.249 336.538, 907.678 341.372, 906.046 344.264 C 904.414 347.156, 901.733 350.317, 900.087 351.289 C 894.677 354.485, 890.075 363, 893.758 363 C 896.343 363, 899.684 359.224, 901.318 354.456 C 902.329 351.508, 903.746 349.902, 906.877 348.153 C 909.189 346.862, 912.852 343.408, 915.017 340.476 C 918.205 336.162, 920.505 334.371, 927.093 331.073 C 942.070 323.577, 946.075 326.413, 950.460 347.621 C 951.811 354.154, 954.719 365.961, 956.923 373.859 C 960.706 387.415, 961.359 391.505, 964.936 424 C 965.563 429.693, 967.187 435.967, 969.855 443 C 977.143 462.213, 978.277 493.198, 972.472 514.500 C 960.138 559.760, 969.532 569.839, 1006.654 551.174 C 1013.770 547.596, 1018.054 546.380, 1030.075 544.526 C 1038.847 543.174, 1040.426 538.107, 1041.458 508 C 1042.251 484.889, 1043.312 474.777, 1046.575 459.241 C 1050.139 442.268, 1046.036 433.336, 1031.780 427.037 C 1014.295 419.310, 1011.714 417.845, 1006.618 412.748 C 1003.477 409.607, 1000.769 405.802, 1000.011 403.463 C 997.074 394.399, 994.117 390.248, 985.287 382.797 C 971.264 370.962, 967.268 362.680, 971.966 355.192 C 982.005 339.190, 1016.690 352.221, 1031.340 377.500 C 1040.866 393.939, 1052.735 394.304, 1056.041 378.260 C 1057.367 371.827, 1058.302 369.765, 1064.777 359 C 1073.173 345.039, 1074.934 342.939, 1080.367 340.410 C 1087.900 336.902, 1093.280 337.195, 1100.430 341.500 C 1108.644 346.446, 1109.410 346.258, 1108.708 339.459 C 1108.100 333.568, 1107.117 331.613, 1100 322.142 C 1097.525 318.848, 1093.925 313.859, 1092 311.055 C 1086.820 303.510, 1069.643 296.090, 1041.070 289.054 C 1023.413 284.707, 1021.613 282.429, 1011.475 251.589 C 1004.489 230.340, 1004 228.283, 1004 220.149 C 1004 207.041, 992.872 199.416, 982.310 205.288 M 133.812 335.250 C 124.484 345.292, 110.695 365.816, 108.838 372.422 C 105.347 384.836, 108.041 410.894, 113.680 419.257 C 115.624 422.141, 118.745 427.532, 120.614 431.238 C 126.011 441.937, 136.046 451.681, 165.851 475.163 C 168.408 477.178, 175.128 483.478, 180.784 489.163 C 200.631 509.111, 230.569 539.946, 237.500 547.577 C 241.350 551.816, 246.292 556.458, 248.482 557.892 C 250.672 559.327, 255.308 562.638, 258.785 565.250 C 262.261 567.862, 265.609 570, 266.223 570 C 266.837 570, 272.835 572.711, 279.551 576.025 C 301.382 586.797, 338.722 593.361, 356 589.464 C 376.955 584.737, 382.227 583.836, 389 583.822 C 398.976 583.801, 404.594 585.204, 416.223 590.621 C 432.567 598.233, 440.886 597.186, 446.847 586.768 C 453.358 575.387, 457.540 574.225, 469.789 580.394 C 501.736 596.482, 538.053 594.015, 527.120 576.500 C 515.710 558.220, 502.257 550.150, 481.174 548.940 C 437.204 546.416, 434.585 546.151, 417.500 542.486 C 397.322 538.158, 388.769 536.805, 363.500 533.945 C 353.050 532.763, 340.450 530.712, 335.500 529.388 C 323.069 526.063, 304.877 521.486, 296.500 519.577 C 292.650 518.699, 285.675 516.152, 281 513.916 C 275.958 511.505, 268.755 509.081, 263.294 507.958 C 252.857 505.810, 248.518 504.183, 241.891 499.930 C 239.343 498.295, 233.068 495.166, 227.947 492.977 C 199.847 480.967, 185.932 464.023, 185.878 441.752 C 185.836 424.324, 192.199 414, 202.983 414 C 210.457 414, 211.987 418.160, 209.054 430.508 C 204.241 450.776, 215.450 467.657, 238.911 475.470 C 243.375 476.957, 249.159 479.636, 251.764 481.424 C 259.069 486.438, 260.216 486.894, 272.213 489.547 C 279.146 491.081, 287.080 493.713, 292.968 496.432 C 300.413 499.871, 304.470 501.078, 311.500 501.946 C 326.311 503.775, 336.483 505.889, 348.291 509.591 C 363.091 514.232, 365.343 514.684, 380 515.965 C 398.649 517.595, 420.236 520.819, 431.500 523.657 C 448.851 528.029, 501.008 530.495, 506.750 527.215 C 512.014 524.208, 505.081 514.918, 492.728 508.426 C 488.774 506.348, 483.505 502.759, 481.019 500.450 C 478.534 498.141, 474.025 494.674, 471 492.746 C 467.975 490.818, 463.639 487.274, 461.363 484.870 C 454.881 478.021, 445.879 469.694, 441.500 466.494 C 439.300 464.887, 435.669 461.934, 433.432 459.933 C 431.195 457.932, 426.697 454.588, 423.437 452.503 C 420.178 450.418, 415.034 446.603, 412.006 444.025 C 400.886 434.560, 394.300 429.936, 385.648 425.522 C 380.780 423.039, 375.155 419.717, 373.148 418.140 C 368.473 414.467, 365.078 412.791, 356.819 410.078 C 353.145 408.871, 348.377 406.607, 346.223 405.047 C 340.010 400.546, 337.058 399.332, 328 397.550 C 323.325 396.631, 315.450 394.589, 310.500 393.012 C 291.933 387.099, 282.538 384.899, 267.237 382.883 C 258.582 381.742, 244.525 379.006, 236 376.803 C 213.623 371.019, 209.033 370.045, 204 370.013 C 191.278 369.933, 183.686 367.389, 174.799 360.231 C 171.885 357.883, 167.478 354.488, 165.008 352.686 C 161.899 350.419, 159.254 347.113, 156.422 341.955 C 149.025 328.485, 142.024 326.409, 133.812 335.250 M 1084.999 371.250 C 1071.183 380.681, 1077.232 403.213, 1093.987 404.733 C 1107.067 405.919, 1110.835 398.974, 1102.989 388.143 C 1101.406 385.958, 1098.534 381.039, 1096.607 377.212 C 1092.147 368.356, 1090.488 367.504, 1084.999 371.250 M 1144.714 419.697 C 1144.456 420.139, 1143.517 423.036, 1142.628 426.136 C 1141.507 430.041, 1139.595 433.346, 1136.402 436.897 C 1130.826 443.100, 1131.120 444.398, 1138.596 446.571 C 1148.988 449.592, 1156.036 446.964, 1155.961 440.095 C 1155.892 433.762, 1146.476 416.683, 1144.714 419.697 M 848.255 497.117 C 840.604 499.327, 839.733 509.906, 846.323 520.583 C 848.943 524.827, 850.509 528.986, 851.586 534.562 C 852.430 538.928, 854.262 547.900, 855.659 554.500 C 857.110 561.363, 858.516 572.244, 858.942 579.917 C 860.100 600.783, 865.320 602.826, 890.500 592.266 C 897.100 589.498, 905.592 586.226, 909.372 584.994 C 920.577 581.344, 927.358 572.470, 924.214 565.570 C 922.811 562.492, 911.816 547.989, 908.998 545.500 C 907.752 544.400, 905.028 541.250, 902.944 538.500 C 891.911 523.942, 864.447 499.052, 857.193 497.037 C 852.941 495.856, 852.614 495.859, 848.255 497.117 M 822.200 536.200 C 820.554 537.846, 820.680 540.225, 823.017 551.584 C 824.127 556.976, 825.513 565.676, 826.097 570.917 C 827.305 581.753, 829.155 587.261, 831.309 586.435 C 839.151 583.426, 835.417 540.852, 826.926 536.462 C 823.522 534.701, 823.689 534.711, 822.200 536.200 M 1015.095 571.983 C 1008.822 574.103, 999.822 576.344, 995.095 576.962 C 982.273 578.640, 978.197 579.757, 970.560 583.682 C 966.706 585.664, 958.504 588.515, 952.111 590.096 C 943.788 592.154, 939.202 593.889, 935.550 596.358 C 928.244 601.298, 927.227 601.715, 917.076 603.930 C 909.530 605.577, 906.552 606.824, 900.510 610.865 C 896.459 613.574, 890.750 616.562, 887.822 617.504 C 884.895 618.446, 878.900 621.126, 874.500 623.460 C 870.100 625.793, 863.350 628.732, 859.500 629.989 C 833.464 638.493, 826.929 653.483, 845.500 662.100 C 851.383 664.830, 856.883 664.457, 866.788 660.659 C 897.900 648.730, 969.919 649.492, 997.500 662.043 C 1018.083 671.410, 1036.234 663.236, 1040.901 642.500 C 1045.190 623.444, 1045.233 604.154, 1041.032 584.902 C 1037.074 566.767, 1034.428 565.450, 1015.095 571.983 M 803.825 664.038 C 797.632 667.651, 799.928 677.765, 808.879 686.303 C 817.274 694.311, 817.188 694.299, 856.291 692.974 C 921.546 690.764, 957.253 686.716, 965.517 680.591 C 978.137 671.240, 894.960 670.514, 877 679.819 C 851.710 692.921, 841.405 691.669, 823.398 673.303 C 812.781 662.475, 809.315 660.835, 803.825 664.038" stroke="none" fill="#f0f0f0" fill-rule="evenodd"/></svg>