<svg xmlns="http://www.w3.org/2000/svg" width="1272" height="1095" viewBox="0 0 1272 1095" version="1.1"><path d="M 240.500 175.040 C 221.891 177.297, 219.763 177.925, 212.778 183.230 C 209.686 185.579, 204.983 188.850, 202.328 190.500 C 189.110 198.713, 188.292 226.567, 201 235.691 C 203.475 237.468, 207.525 240.914, 210 243.348 C 215.774 249.029, 219.286 250.748, 227.097 251.716 C 233.988 252.570, 233.553 252.068, 235.509 261.409 C 236.535 266.311, 241.813 270.574, 250.065 273.165 C 261.789 276.847, 930.497 276.859, 938.632 273.177 C 946.206 269.750, 948.540 266.665, 955.130 251.362 C 958.833 242.764, 962.803 235.332, 965.584 231.792 C 975.600 219.039, 975.784 206.692, 966.108 196.500 C 964.019 194.300, 960.223 189.731, 957.671 186.347 C 952.622 179.650, 948.541 177.132, 938.540 174.543 C 928.590 171.967, 261.922 172.442, 240.500 175.040 M 241.388 198.937 C 233.438 202.310, 229.357 218.357, 232.434 234.143 C 233.223 238.189, 234.156 243.672, 234.507 246.326 C 235.145 251.153, 235.145 251.153, 242.823 250.494 C 247.045 250.132, 404.870 249.535, 593.544 249.168 C 913.463 248.545, 936.762 248.386, 939.171 246.807 C 946.110 242.261, 939.721 207.657, 931 202.550 C 927.500 200.500, 927.500 200.500, 590 199.877 C 404.375 199.534, 250.475 198.981, 248 198.647 C 245.525 198.314, 242.550 198.445, 241.388 198.937 M 671 291.704 C 661.776 295.060, 661.052 307.448, 669.638 314.987 C 674.039 318.851, 676.414 318.786, 680.510 314.690 C 690.734 304.466, 683.563 287.132, 671 291.704 M 488.314 294.950 C 481.126 299.333, 481.136 304.440, 488.348 311.652 C 495.819 319.123, 500.958 318.924, 504.997 311.006 C 511.401 298.454, 500.218 287.692, 488.314 294.950 M 572.299 294.503 C 567.153 298.107, 567.488 306.614, 572.967 311.500 C 580.363 318.095, 596.780 307.418, 591.540 299.420 C 587.737 293.617, 577.353 290.963, 572.299 294.503 M 963.256 629.591 C 959.197 631.659, 956.539 635.968, 955.109 642.799 C 952.724 654.196, 953.632 989.844, 956.069 997.229 C 962.691 1017.306, 973.990 1018.508, 979.809 999.755 C 981.746 993.512, 982.925 672.359, 981.096 649.325 C 979.593 630.404, 973.938 624.149, 963.256 629.591 M 219.270 781.054 C 184.389 787.938, 198.791 805.737, 240.179 806.894 C 267.423 807.656, 266.502 807.180, 272.692 823.695 C 274.175 827.652, 277.738 834.075, 280.610 837.968 C 285.090 844.042, 286.133 846.357, 287.952 854.273 C 292.132 872.462, 293.740 876.587, 298.992 882.588 C 304.327 888.684, 305.895 892.488, 309.056 906.997 C 311.616 918.749, 313.623 923.362, 319.489 930.986 C 325.008 938.159, 326.476 941.468, 327.926 950.007 C 330.042 962.463, 333.841 972.433, 338.593 978 C 346.897 987.728, 345.322 993.608, 333.709 996.236 C 331.394 996.760, 304.064 997.484, 272.976 997.844 C 216.451 998.500, 216.451 998.500, 209.896 1001.729 C 197.080 1008.042, 199.326 1016.102, 215.473 1021.744 C 224.582 1024.926, 617.685 1024.384, 627.902 1021.175 C 654.671 1012.767, 643.175 999.684, 607.500 997.955 C 572.645 996.267, 573.501 996.727, 568.494 976.977 C 565.470 965.048, 565.047 964.112, 559.839 957.843 C 554.811 951.792, 552.521 946.435, 550.499 936 C 547.851 922.331, 545.192 915.370, 540.058 908.668 C 533.654 900.307, 533.255 899.431, 531.017 888.788 C 527.355 871.376, 525.959 867.935, 519.838 861.242 C 515.059 856.016, 514.552 854.733, 510.881 838.555 C 509.266 831.435, 507.190 823.489, 506.270 820.896 C 501.652 807.896, 502.909 807.620, 570 806.923 C 632.922 806.270, 637.561 805.748, 642.449 798.770 C 648.400 790.273, 640.800 783.342, 623 781.034 C 613.711 779.830, 225.376 779.849, 219.270 781.054 M 313.849 808.375 C 303.242 811.262, 302.223 813.622, 307.386 823.353 C 310.458 829.145, 312.827 837.362, 315.974 853.148 C 316.842 857.506, 318.262 860.245, 322.187 865.135 C 328.628 873.161, 330.610 877.801, 333.485 891.592 C 336.027 903.779, 338.020 908.441, 343.489 914.987 C 348.808 921.354, 349.919 924.014, 352.630 936.874 C 356.325 954.401, 356.747 955.586, 361.058 960.567 C 366.272 966.591, 368.348 970.802, 371.337 981.417 C 374.035 990.994, 376.361 994.256, 381.897 996.221 C 387.187 998.099, 526.594 998.077, 532.803 996.197 C 542.993 993.112, 543.900 986.436, 535.604 975.569 C 531.250 969.864, 528.243 962.520, 525.937 951.956 C 523.357 940.133, 520.759 933.818, 515.367 926.262 C 510.229 919.061, 508.381 914.180, 504.563 897.712 C 502.124 887.195, 501.389 885.417, 497.747 881.212 C 492.641 875.317, 489.536 868.610, 486.945 857.873 C 485.834 853.268, 484.402 847.475, 483.764 845 C 483.125 842.525, 480.189 836.953, 477.238 832.618 C 474.287 828.283, 470.524 821.881, 468.876 818.393 C 463.284 806.559, 470.281 807.530, 389 807.304 C 334.731 807.154, 317.429 807.400, 313.849 808.375" stroke="none" fill="#606060" fill-rule="evenodd"/><path d="M 38.500 29.501 C 33.630 31.226, 30.412 34.755, 29.030 39.887 C 26.704 48.526, 28.191 1054.973, 30.535 1058.965 C 31.655 1060.870, 34.130 1063.345, 36.035 1064.465 C 41.519 1067.686, 1230.481 1067.686, 1235.965 1064.465 C 1237.870 1063.345, 1240.345 1060.870, 1241.465 1058.965 C 1244.686 1053.482, 1244.686 41.518, 1241.465 36.035 C 1240.345 34.130, 1237.870 31.655, 1235.965 30.535 C 1231.398 27.853, 46.044 26.829, 38.500 29.501 M 240.500 175.040 C 221.891 177.297, 219.763 177.925, 212.778 183.230 C 209.686 185.579, 204.983 188.850, 202.328 190.500 C 189.110 198.713, 188.292 226.567, 201 235.691 C 203.475 237.468, 207.525 240.914, 210 243.348 C 215.774 249.029, 219.286 250.748, 227.097 251.716 C 233.988 252.570, 233.553 252.068, 235.509 261.409 C 236.535 266.311, 241.813 270.574, 250.065 273.165 C 261.789 276.847, 930.497 276.859, 938.632 273.177 C 946.206 269.750, 948.540 266.665, 955.130 251.362 C 958.833 242.764, 962.803 235.332, 965.584 231.792 C 975.600 219.039, 975.784 206.692, 966.108 196.500 C 964.019 194.300, 960.223 189.731, 957.671 186.347 C 952.622 179.650, 948.541 177.132, 938.540 174.543 C 928.590 171.967, 261.922 172.442, 240.500 175.040 M 241.388 198.937 C 233.438 202.310, 229.357 218.357, 232.434 234.143 C 233.223 238.189, 234.156 243.672, 234.507 246.326 C 235.145 251.153, 235.145 251.153, 242.823 250.494 C 247.045 250.132, 404.870 249.535, 593.544 249.168 C 913.463 248.545, 936.762 248.386, 939.171 246.807 C 946.110 242.261, 939.721 207.657, 931 202.550 C 927.500 200.500, 927.500 200.500, 590 199.877 C 404.375 199.534, 250.475 198.981, 248 198.647 C 245.525 198.314, 242.550 198.445, 241.388 198.937 M 671 291.704 C 661.776 295.060, 661.052 307.448, 669.638 314.987 C 674.039 318.851, 676.414 318.786, 680.510 314.690 C 690.734 304.466, 683.563 287.132, 671 291.704 M 488.314 294.950 C 481.126 299.333, 481.136 304.440, 488.348 311.652 C 495.819 319.123, 500.958 318.924, 504.997 311.006 C 511.401 298.454, 500.218 287.692, 488.314 294.950 M 572.299 294.503 C 567.153 298.107, 567.488 306.614, 572.967 311.500 C 580.363 318.095, 596.780 307.418, 591.540 299.420 C 587.737 293.617, 577.353 290.963, 572.299 294.503 M 963.256 629.591 C 959.197 631.659, 956.539 635.968, 955.109 642.799 C 952.724 654.196, 953.632 989.844, 956.069 997.229 C 962.691 1017.306, 973.990 1018.508, 979.809 999.755 C 981.746 993.512, 982.925 672.359, 981.096 649.325 C 979.593 630.404, 973.938 624.149, 963.256 629.591 M 219.270 781.054 C 184.389 787.938, 198.791 805.737, 240.179 806.894 C 267.423 807.656, 266.502 807.180, 272.692 823.695 C 274.175 827.652, 277.738 834.075, 280.610 837.968 C 285.090 844.042, 286.133 846.357, 287.952 854.273 C 292.132 872.462, 293.740 876.587, 298.992 882.588 C 304.327 888.684, 305.895 892.488, 309.056 906.997 C 311.616 918.749, 313.623 923.362, 319.489 930.986 C 325.008 938.159, 326.476 941.468, 327.926 950.007 C 330.042 962.463, 333.841 972.433, 338.593 978 C 346.897 987.728, 345.322 993.608, 333.709 996.236 C 331.394 996.760, 304.064 997.484, 272.976 997.844 C 216.451 998.500, 216.451 998.500, 209.896 1001.729 C 197.080 1008.042, 199.326 1016.102, 215.473 1021.744 C 224.582 1024.926, 617.685 1024.384, 627.902 1021.175 C 654.671 1012.767, 643.175 999.684, 607.500 997.955 C 572.645 996.267, 573.501 996.727, 568.494 976.977 C 565.470 965.048, 565.047 964.112, 559.839 957.843 C 554.811 951.792, 552.521 946.435, 550.499 936 C 547.851 922.331, 545.192 915.370, 540.058 908.668 C 533.654 900.307, 533.255 899.431, 531.017 888.788 C 527.355 871.376, 525.959 867.935, 519.838 861.242 C 515.059 856.016, 514.552 854.733, 510.881 838.555 C 509.266 831.435, 507.190 823.489, 506.270 820.896 C 501.652 807.896, 502.909 807.620, 570 806.923 C 632.922 806.270, 637.561 805.748, 642.449 798.770 C 648.400 790.273, 640.800 783.342, 623 781.034 C 613.711 779.830, 225.376 779.849, 219.270 781.054 M 313.849 808.375 C 303.242 811.262, 302.223 813.622, 307.386 823.353 C 310.458 829.145, 312.827 837.362, 315.974 853.148 C 316.842 857.506, 318.262 860.245, 322.187 865.135 C 328.628 873.161, 330.610 877.801, 333.485 891.592 C 336.027 903.779, 338.020 908.441, 343.489 914.987 C 348.808 921.354, 349.919 924.014, 352.630 936.874 C 356.325 954.401, 356.747 955.586, 361.058 960.567 C 366.272 966.591, 368.348 970.802, 371.337 981.417 C 374.035 990.994, 376.361 994.256, 381.897 996.221 C 387.187 998.099, 526.594 998.077, 532.803 996.197 C 542.993 993.112, 543.900 986.436, 535.604 975.569 C 531.250 969.864, 528.243 962.520, 525.937 951.956 C 523.357 940.133, 520.759 933.818, 515.367 926.262 C 510.229 919.061, 508.381 914.180, 504.563 897.712 C 502.124 887.195, 501.389 885.417, 497.747 881.212 C 492.641 875.317, 489.536 868.610, 486.945 857.873 C 485.834 853.268, 484.402 847.475, 483.764 845 C 483.125 842.525, 480.189 836.953, 477.238 832.618 C 474.287 828.283, 470.524 821.881, 468.876 818.393 C 463.284 806.559, 470.281 807.530, 389 807.304 C 334.731 807.154, 317.429 807.400, 313.849 808.375" stroke="none" fill="#f7f7f7" fill-rule="evenodd"/></svg>