<svg xmlns="http://www.w3.org/2000/svg" width="1272" height="644" viewBox="0 0 1272 644" version="1.1"><path d="M 1058.367 82.371 C 1049.834 85.156, 1043.198 92.371, 1039.160 103.253 C 1037.986 106.417, 1035.646 111.740, 1033.959 115.082 C 1032.272 118.424, 1029.544 124.812, 1027.898 129.277 C 1026.251 133.742, 1023.420 139.894, 1021.606 142.948 C 1019.792 146.002, 1017.246 151.200, 1015.949 154.500 C 1014.651 157.800, 1012.114 162.987, 1010.311 166.026 C 1008.508 169.065, 1005.931 174.793, 1004.583 178.755 C 1003.236 182.717, 998.220 192.990, 993.437 201.585 C 983.407 219.607, 982.411 222.405, 981.493 235.128 C 980.268 252.114, 977.464 263.247, 970.936 277.043 C 964.063 291.566, 964.035 291.781, 967.999 300.160 C 973.251 311.261, 972.122 315.995, 961.129 328.988 C 946.571 346.196, 946.382 358.902, 960.685 358.978 C 967.478 359.014, 969.598 357.608, 984.065 343.472 C 998.949 328.928, 1001.507 327.579, 1005.595 332.113 C 1009.721 336.691, 1005.988 363.116, 999.354 376.289 C 997.394 380.182, 994.278 389.248, 992.430 396.434 C 979.880 445.239, 978.100 446.761, 963.692 421 C 961.692 417.425, 957.456 410.864, 954.278 406.420 C 937.255 382.616, 932.246 374.666, 929.924 367.776 C 926.522 357.676, 924.104 353.886, 915.779 345.608 C 906.500 336.380, 906 335.336, 906.001 325.185 C 906.005 305.908, 911.509 232.773, 913.466 226 C 914.384 222.821, 917.286 188.033, 917.386 179 C 917.478 170.732, 917.121 168.574, 914.631 162.361 C 911.106 153.562, 911.582 151.536, 919.499 141.622 C 925.237 134.437, 927.500 128.842, 926.416 124.522 C 921.243 103.909, 871.387 141.106, 861.033 173.303 C 856.877 186.225, 867.867 191.044, 882.046 182.517 C 899.374 172.095, 900.823 175.409, 896.032 214.500 C 893.926 231.686, 891.887 257.806, 889.585 297.111 C 887.639 330.327, 886.977 331.739, 869.461 339.981 C 852.474 347.976, 850.044 357.508, 862.579 366.972 C 869.328 372.068, 869.998 374.382, 868.194 386.380 C 866.300 398.984, 867.625 409.167, 873.400 426.362 C 875.883 433.758, 878.611 444.129, 879.460 449.409 C 880.499 455.863, 882.285 461.873, 884.913 467.754 C 899.544 500.496, 897.148 527.600, 877.854 547.588 C 863.519 562.440, 862.409 568.427, 873 573.770 L 877.500 576.040 988.500 575.770 C 1112.025 575.470, 1104.147 575.917, 1109.263 568.908 C 1112.682 564.224, 1112.935 553.940, 1112.936 419.500 C 1112.939 259.811, 1113.878 271.817, 1100.209 256.853 C 1089.012 244.595, 1088.026 234.194, 1095.890 211.308 C 1098.122 204.813, 1100.689 195.900, 1101.595 191.500 C 1102.500 187.100, 1104.565 179.744, 1106.183 175.153 C 1107.801 170.562, 1110.440 161.633, 1112.048 155.311 C 1113.656 148.988, 1116.604 140.199, 1118.600 135.779 C 1129.990 110.552, 1122.165 92.009, 1099.055 89.467 C 1095.510 89.077, 1088.204 87.242, 1082.818 85.389 C 1071.184 81.387, 1064.074 80.509, 1058.367 82.371 M 127.684 83.404 C 116.872 87.388, 116.397 89.133, 112.534 139.028 C 111.745 149.218, 109.736 165.193, 108.069 174.528 C 106.402 183.862, 104.566 197.800, 103.990 205.500 C 100.741 248.919, 98.285 270.783, 95.003 285.500 C 93.392 292.724, 92.074 306.072, 90.014 336 C 88.898 352.225, 87.532 370.020, 86.979 375.544 C 84.939 395.927, 86.654 398.790, 113.123 419.184 C 123.981 427.550, 136.875 439.492, 144.122 447.894 C 147.630 451.960, 155.034 459.713, 160.575 465.121 C 178.603 482.717, 180.143 490.983, 174.989 542.500 C 173.520 557.183, 173.725 561.801, 176.060 566.624 C 181.565 577.997, 203.049 578.929, 209.390 568.071 C 211.891 563.789, 209.863 455.552, 206.044 389.500 C 205.472 379.600, 204.560 360.107, 204.018 346.181 C 203.476 332.256, 202.799 320.484, 202.513 320.021 C 201.850 318.948, 200.223 271.466, 199.001 217.500 C 197.926 170.045, 197.712 168.281, 190.008 143.333 C 178.448 105.901, 147.469 76.113, 127.684 83.404 M 596.662 92.990 C 595.173 94.759, 593.688 98.332, 593.024 101.740 C 592.406 104.908, 591.667 108.716, 591.382 110.203 C 589.756 118.655, 584.230 121, 565.933 121 C 545.824 121, 543.565 119.570, 540.476 104.885 C 536.657 86.731, 526.876 86.433, 522.996 104.352 C 520.042 117.997, 515.008 121.001, 495.101 120.998 C 476.700 120.996, 473.640 118.997, 470.086 104.657 C 465.957 88, 456.376 88.528, 451.160 105.700 C 447.384 118.132, 442.399 121, 424.572 121 C 407.591 121, 403.610 118.180, 399.458 103.210 C 395.555 89.135, 384.055 89.786, 381.052 104.252 C 378.337 117.329, 373.845 120.399, 356.790 120.832 C 336.845 121.339, 332.076 118.688, 327.937 104.789 C 322.510 86.566, 312.928 87.853, 309.445 107.274 C 309.073 109.350, 307.794 112.500, 306.603 114.274 C 304.459 117.469, 302.492 118.675, 292.184 123.114 C 278.034 129.208, 277.857 130.130, 278.215 195.649 L 278.500 247.648 281.259 251.816 C 282.776 254.108, 285.893 257.224, 288.185 258.741 L 292.354 261.500 528.797 261.756 C 772.890 262.021, 770.106 262.064, 775.397 257.902 C 782.583 252.250, 782.467 253.218, 782.793 196.025 C 783.190 126.354, 782.874 124.976, 765.621 121.114 C 757.749 119.353, 750.020 111.773, 749.994 105.790 C 749.920 88.614, 736.289 87.643, 732.165 104.520 C 728.420 119.844, 726.569 121.001, 705.782 120.998 C 685.407 120.996, 682.272 119.061, 679.577 104.819 C 675.653 84.088, 665.566 84.011, 661.676 104.682 C 658.834 119.781, 656.915 121, 636 121 C 615.358 121, 613.184 119.693, 610.500 105.666 C 607.635 90.692, 602.530 86.016, 596.662 92.990 M 1060.991 107.336 C 1058.681 108.507, 1049.780 123.203, 1045.750 132.500 C 1044.558 135.250, 1041.817 140.859, 1039.658 144.965 C 1037.500 149.072, 1034.701 155.468, 1033.439 159.180 C 1032.176 162.893, 1029.115 169.658, 1026.637 174.215 C 1017.364 191.264, 1017.145 200, 1025.988 200 C 1032.243 200, 1036.256 195.771, 1039.554 185.706 C 1041.033 181.192, 1043.484 175.250, 1045.001 172.500 C 1046.518 169.750, 1048.539 165.025, 1049.494 162 C 1050.448 158.975, 1053.036 152.904, 1055.245 148.510 C 1057.453 144.115, 1060.097 137.503, 1061.118 133.815 C 1062.140 130.127, 1064.107 124.554, 1065.488 121.431 C 1069.918 111.414, 1067.556 104.009, 1060.991 107.336 M 137.303 110.197 C 132.784 112.380, 131.752 116.863, 129.985 142 C 128.854 158.079, 125.781 183.460, 123.568 195 C 122.777 199.125, 121.399 210.375, 120.507 220 C 116.173 266.720, 114.754 280.031, 113.439 286.285 C 111.780 294.176, 109.409 313.579, 108.524 326.500 C 108.185 331.450, 107.015 345.234, 105.923 357.131 C 102.947 389.563, 103.372 390.719, 123.500 405.012 C 128.697 408.703, 142.346 420.930, 155.802 433.952 C 182.919 460.191, 187.700 463.103, 189.488 454.471 C 189.770 453.112, 190.218 450.938, 190.484 449.641 C 190.964 447.297, 189.824 421.781, 187.997 394 C 187.473 386.025, 186.603 368.475, 186.064 355 C 185.525 341.525, 184.638 322.850, 184.094 313.500 C 183.550 304.150, 182.626 274, 182.043 246.500 C 180.468 172.332, 180.696 175.713, 176.414 163.185 C 174.406 157.308, 171.916 148.292, 170.880 143.150 C 166.707 122.412, 148.666 104.707, 137.303 110.197 M 1094 113.632 C 1088.629 117.024, 1081.304 128.438, 1079.001 137.006 C 1078.336 139.478, 1075.636 146.225, 1073 152 C 1070.364 157.775, 1067.679 164.525, 1067.034 167 C 1066.388 169.475, 1063.793 175.960, 1061.268 181.410 C 1054.158 196.753, 1054.415 202.768, 1062.484 209.852 C 1071.234 217.535, 1080.321 208.519, 1085.012 187.500 C 1086.240 182, 1088.749 173.267, 1090.588 168.093 C 1092.428 162.919, 1094.675 155.044, 1095.582 150.593 C 1096.489 146.142, 1098.530 138.282, 1100.116 133.127 C 1105.305 116.263, 1102.747 108.108, 1094 113.632 M 315.948 139.958 C 296.161 140.974, 296.863 139.033, 297.219 191.761 C 297.536 238.901, 297.285 237.430, 305.730 241.627 C 309.381 243.441, 316.540 243.500, 532.677 243.500 L 755.853 243.500 758.677 241.429 C 764.983 236.803, 764.997 236.692, 764.998 191.218 C 765 146.230, 764.852 144.915, 759.378 141.328 C 756.608 139.513, 349.110 138.254, 315.948 139.958 M 1012.604 224.266 C 997.190 233.104, 1004.188 247.500, 1025.587 250.973 C 1040.069 253.324, 1045.969 261.718, 1042.970 275.704 C 1040.677 286.395, 1034.932 286.320, 1028.155 275.511 C 1017.669 258.787, 989.994 267.051, 989.694 286.997 C 989.596 293.476, 991.204 295.142, 1002.780 300.554 C 1009.454 303.673, 1013.807 306.555, 1018.280 310.812 C 1034.844 326.578, 1050.414 321.665, 1046.424 301.932 C 1044.146 290.663, 1044.643 289.014, 1051.333 285.629 C 1065.276 278.575, 1075.400 256.831, 1070.979 243.436 C 1066.104 228.666, 1027.209 215.893, 1012.604 224.266 M 1079.026 285.750 C 1064.861 301.614, 1063.402 320.770, 1074.458 345.701 C 1081.915 362.515, 1080.984 398.107, 1072.370 425.500 C 1067.334 441.515, 1065.154 469.298, 1066.994 494 C 1069.697 530.281, 1086.208 562.998, 1093.993 547.500 C 1095.638 544.225, 1096.572 313.063, 1095.020 293.242 C 1093.822 277.934, 1088.310 275.352, 1079.026 285.750 M 1037.500 343.159 C 1029.729 347.426, 1023.764 355.953, 1020.376 367.636 C 1018.978 372.459, 1016.943 378.151, 1015.854 380.286 C 1014.765 382.421, 1012.505 390.767, 1010.832 398.834 C 1009.158 406.900, 1006.313 418.225, 1004.508 424 C 1000.607 436.485, 999.569 441.503, 997.512 457.831 C 995.190 476.256, 991.213 481.962, 981.590 480.672 C 975.081 479.799, 971.656 474.956, 954.593 442.500 C 945.934 426.029, 941.016 418.077, 926.377 396.884 C 902.127 361.776, 873.301 379.478, 889.806 419.343 C 891.928 424.469, 893.920 432.225, 895.557 441.735 C 897.643 453.852, 898.659 457.353, 901.634 462.672 C 904.185 467.235, 905.866 472.265, 907.519 480.280 C 908.791 486.451, 910.535 494.650, 911.394 498.500 C 914.492 512.392, 912.394 531.050, 906.239 544.329 C 899.502 558.864, 894.777 558.040, 983.170 557.746 L 1056.840 557.500 1059.523 555 C 1063.368 551.418, 1062.530 544.901, 1056.591 532.194 C 1051.605 521.527, 1050.938 518.087, 1048.905 492.552 C 1046.865 466.914, 1048.781 445.481, 1055.423 419.664 C 1067.822 371.466, 1058.490 331.634, 1037.500 343.159 M 329.804 512.041 C 325.548 514.288, 322.369 518.206, 318.478 526 C 316.967 529.025, 314.634 532.811, 313.293 534.413 C 309.620 538.802, 301 556.574, 301 559.759 C 301 571.147, 313.907 566.974, 322.762 552.723 C 334.194 534.324, 340.879 533.684, 351.971 549.926 C 362.714 565.658, 372.809 565.478, 385.609 549.326 C 397.237 534.653, 403.984 533.043, 411.133 543.235 C 426.329 564.899, 438.387 566.631, 451.262 549 C 462.882 533.086, 468.316 532.267, 477.732 545.011 C 484.572 554.270, 487.244 557.084, 491.029 559.015 C 500.663 563.930, 508.209 560.031, 518.732 544.701 C 527.416 532.051, 535.034 534.200, 549.356 553.341 C 558.621 565.725, 568.798 564.065, 581.141 548.157 C 593.374 532.390, 597.850 532.481, 610.236 548.748 C 622.846 565.306, 634.710 565.650, 645.597 549.771 C 657.145 532.929, 663.969 532.229, 673.909 546.866 C 686.911 566.012, 699.334 566.361, 711.482 547.922 C 721.216 533.147, 725.741 534.017, 738.592 553.136 C 746.005 564.166, 747.998 566, 752.568 566 C 761.112 566, 761.340 554.621, 753.037 542.553 C 751.346 540.095, 748.300 534.803, 746.269 530.792 C 744.018 526.349, 740.150 521.007, 736.367 517.120 L 730.159 510.739 724.738 511.189 C 717.835 511.761, 714.281 514.269, 707.857 523.102 C 697.355 537.541, 689.093 538.209, 680.085 525.349 C 665.442 504.444, 657.127 504.742, 640.093 526.780 C 636.150 531.881, 632.421 534, 627.390 534 C 623.498 534, 622.243 532.918, 607.897 517.200 C 599.954 508.496, 591.630 507.987, 584.542 515.773 C 563.412 538.980, 562.520 539.174, 549.145 523.435 C 534.638 506.363, 525.702 506.158, 513.318 522.613 C 501.436 538.400, 493.648 537.913, 482.035 520.657 C 471.578 505.118, 457.359 507.735, 444.348 527.592 C 437.112 538.635, 429.675 536.420, 414.766 518.779 C 405.122 507.369, 397.124 507.366, 387.290 518.770 C 370.049 538.762, 367.198 539.072, 353.098 522.490 C 342.270 509.757, 337.867 507.782, 329.804 512.041" stroke="none" fill="#717171" fill-rule="evenodd"/><path d="M 38.500 29.501 C 33.626 31.228, 30.412 34.755, 29.027 39.899 C 26.711 48.502, 28.185 602.964, 30.535 606.965 C 31.655 608.870, 34.130 611.345, 36.035 612.465 L 39.500 614.500 636 614.500 L 1232.500 614.500 1235.965 612.465 C 1244.341 607.544, 1243.500 640.002, 1243.500 321.500 C 1243.500 2.998, 1244.341 35.456, 1235.965 30.535 L 1232.500 28.500 637.500 28.292 C 126.293 28.114, 41.937 28.284, 38.500 29.501 M 1058.367 82.371 C 1049.834 85.156, 1043.198 92.371, 1039.160 103.253 C 1037.986 106.417, 1035.646 111.740, 1033.959 115.082 C 1032.272 118.424, 1029.544 124.812, 1027.898 129.277 C 1026.251 133.742, 1023.420 139.894, 1021.606 142.948 C 1019.792 146.002, 1017.246 151.200, 1015.949 154.500 C 1014.651 157.800, 1012.114 162.987, 1010.311 166.026 C 1008.508 169.065, 1005.931 174.793, 1004.583 178.755 C 1003.236 182.717, 998.220 192.990, 993.437 201.585 C 983.407 219.607, 982.411 222.405, 981.493 235.128 C 980.268 252.114, 977.464 263.247, 970.936 277.043 C 964.063 291.566, 964.035 291.781, 967.999 300.160 C 973.251 311.261, 972.122 315.995, 961.129 328.988 C 946.571 346.196, 946.382 358.902, 960.685 358.978 C 967.478 359.014, 969.598 357.608, 984.065 343.472 C 998.949 328.928, 1001.507 327.579, 1005.595 332.113 C 1009.721 336.691, 1005.988 363.116, 999.354 376.289 C 997.394 380.182, 994.278 389.248, 992.430 396.434 C 979.880 445.239, 978.100 446.761, 963.692 421 C 961.692 417.425, 957.456 410.864, 954.278 406.420 C 937.255 382.616, 932.246 374.666, 929.924 367.776 C 926.522 357.676, 924.104 353.886, 915.779 345.608 C 906.500 336.380, 906 335.336, 906.001 325.185 C 906.005 305.908, 911.509 232.773, 913.466 226 C 914.384 222.821, 917.286 188.033, 917.386 179 C 917.478 170.732, 917.121 168.574, 914.631 162.361 C 911.106 153.562, 911.582 151.536, 919.499 141.622 C 925.237 134.437, 927.500 128.842, 926.416 124.522 C 921.243 103.909, 871.387 141.106, 861.033 173.303 C 856.877 186.225, 867.867 191.044, 882.046 182.517 C 899.374 172.095, 900.823 175.409, 896.032 214.500 C 893.926 231.686, 891.887 257.806, 889.585 297.111 C 887.639 330.327, 886.977 331.739, 869.461 339.981 C 852.474 347.976, 850.044 357.508, 862.579 366.972 C 869.328 372.068, 869.998 374.382, 868.194 386.380 C 866.300 398.984, 867.625 409.167, 873.400 426.362 C 875.883 433.758, 878.611 444.129, 879.460 449.409 C 880.499 455.863, 882.285 461.873, 884.913 467.754 C 899.544 500.496, 897.148 527.600, 877.854 547.588 C 863.519 562.440, 862.409 568.427, 873 573.770 L 877.500 576.040 988.500 575.770 C 1112.025 575.470, 1104.147 575.917, 1109.263 568.908 C 1112.682 564.224, 1112.935 553.940, 1112.936 419.500 C 1112.939 259.811, 1113.878 271.817, 1100.209 256.853 C 1089.012 244.595, 1088.026 234.194, 1095.890 211.308 C 1098.122 204.813, 1100.689 195.900, 1101.595 191.500 C 1102.500 187.100, 1104.565 179.744, 1106.183 175.153 C 1107.801 170.562, 1110.440 161.633, 1112.048 155.311 C 1113.656 148.988, 1116.604 140.199, 1118.600 135.779 C 1129.990 110.552, 1122.165 92.009, 1099.055 89.467 C 1095.510 89.077, 1088.204 87.242, 1082.818 85.389 C 1071.184 81.387, 1064.074 80.509, 1058.367 82.371 M 127.684 83.404 C 116.872 87.388, 116.397 89.133, 112.534 139.028 C 111.745 149.218, 109.736 165.193, 108.069 174.528 C 106.402 183.862, 104.566 197.800, 103.990 205.500 C 100.741 248.919, 98.285 270.783, 95.003 285.500 C 93.392 292.724, 92.074 306.072, 90.014 336 C 88.898 352.225, 87.532 370.020, 86.979 375.544 C 84.939 395.927, 86.654 398.790, 113.123 419.184 C 123.981 427.550, 136.875 439.492, 144.122 447.894 C 147.630 451.960, 155.034 459.713, 160.575 465.121 C 178.603 482.717, 180.143 490.983, 174.989 542.500 C 173.520 557.183, 173.725 561.801, 176.060 566.624 C 181.565 577.997, 203.049 578.929, 209.390 568.071 C 211.891 563.789, 209.863 455.552, 206.044 389.500 C 205.472 379.600, 204.560 360.107, 204.018 346.181 C 203.476 332.256, 202.799 320.484, 202.513 320.021 C 201.850 318.948, 200.223 271.466, 199.001 217.500 C 197.926 170.045, 197.712 168.281, 190.008 143.333 C 178.448 105.901, 147.469 76.113, 127.684 83.404 M 596.662 92.990 C 595.173 94.759, 593.688 98.332, 593.024 101.740 C 592.406 104.908, 591.667 108.716, 591.382 110.203 C 589.756 118.655, 584.230 121, 565.933 121 C 545.824 121, 543.565 119.570, 540.476 104.885 C 536.657 86.731, 526.876 86.433, 522.996 104.352 C 520.042 117.997, 515.008 121.001, 495.101 120.998 C 476.700 120.996, 473.640 118.997, 470.086 104.657 C 465.957 88, 456.376 88.528, 451.160 105.700 C 447.384 118.132, 442.399 121, 424.572 121 C 407.591 121, 403.610 118.180, 399.458 103.210 C 395.555 89.135, 384.055 89.786, 381.052 104.252 C 378.337 117.329, 373.845 120.399, 356.790 120.832 C 336.845 121.339, 332.076 118.688, 327.937 104.789 C 322.510 86.566, 312.928 87.853, 309.445 107.274 C 309.073 109.350, 307.794 112.500, 306.603 114.274 C 304.459 117.469, 302.492 118.675, 292.184 123.114 C 278.034 129.208, 277.857 130.130, 278.215 195.649 L 278.500 247.648 281.259 251.816 C 282.776 254.108, 285.893 257.224, 288.185 258.741 L 292.354 261.500 528.797 261.756 C 772.890 262.021, 770.106 262.064, 775.397 257.902 C 782.583 252.250, 782.467 253.218, 782.793 196.025 C 783.190 126.354, 782.874 124.976, 765.621 121.114 C 757.749 119.353, 750.020 111.773, 749.994 105.790 C 749.920 88.614, 736.289 87.643, 732.165 104.520 C 728.420 119.844, 726.569 121.001, 705.782 120.998 C 685.407 120.996, 682.272 119.061, 679.577 104.819 C 675.653 84.088, 665.566 84.011, 661.676 104.682 C 658.834 119.781, 656.915 121, 636 121 C 615.358 121, 613.184 119.693, 610.500 105.666 C 607.635 90.692, 602.530 86.016, 596.662 92.990 M 1060.991 107.336 C 1058.681 108.507, 1049.780 123.203, 1045.750 132.500 C 1044.558 135.250, 1041.817 140.859, 1039.658 144.965 C 1037.500 149.072, 1034.701 155.468, 1033.439 159.180 C 1032.176 162.893, 1029.115 169.658, 1026.637 174.215 C 1017.364 191.264, 1017.145 200, 1025.988 200 C 1032.243 200, 1036.256 195.771, 1039.554 185.706 C 1041.033 181.192, 1043.484 175.250, 1045.001 172.500 C 1046.518 169.750, 1048.539 165.025, 1049.494 162 C 1050.448 158.975, 1053.036 152.904, 1055.245 148.510 C 1057.453 144.115, 1060.097 137.503, 1061.118 133.815 C 1062.140 130.127, 1064.107 124.554, 1065.488 121.431 C 1069.918 111.414, 1067.556 104.009, 1060.991 107.336 M 137.303 110.197 C 132.784 112.380, 131.752 116.863, 129.985 142 C 128.854 158.079, 125.781 183.460, 123.568 195 C 122.777 199.125, 121.399 210.375, 120.507 220 C 116.173 266.720, 114.754 280.031, 113.439 286.285 C 111.780 294.176, 109.409 313.579, 108.524 326.500 C 108.185 331.450, 107.015 345.234, 105.923 357.131 C 102.947 389.563, 103.372 390.719, 123.500 405.012 C 128.697 408.703, 142.346 420.930, 155.802 433.952 C 182.919 460.191, 187.700 463.103, 189.488 454.471 C 189.770 453.112, 190.218 450.938, 190.484 449.641 C 190.964 447.297, 189.824 421.781, 187.997 394 C 187.473 386.025, 186.603 368.475, 186.064 355 C 185.525 341.525, 184.638 322.850, 184.094 313.500 C 183.550 304.150, 182.626 274, 182.043 246.500 C 180.468 172.332, 180.696 175.713, 176.414 163.185 C 174.406 157.308, 171.916 148.292, 170.880 143.150 C 166.707 122.412, 148.666 104.707, 137.303 110.197 M 1094 113.632 C 1088.629 117.024, 1081.304 128.438, 1079.001 137.006 C 1078.336 139.478, 1075.636 146.225, 1073 152 C 1070.364 157.775, 1067.679 164.525, 1067.034 167 C 1066.388 169.475, 1063.793 175.960, 1061.268 181.410 C 1054.158 196.753, 1054.415 202.768, 1062.484 209.852 C 1071.234 217.535, 1080.321 208.519, 1085.012 187.500 C 1086.240 182, 1088.749 173.267, 1090.588 168.093 C 1092.428 162.919, 1094.675 155.044, 1095.582 150.593 C 1096.489 146.142, 1098.530 138.282, 1100.116 133.127 C 1105.305 116.263, 1102.747 108.108, 1094 113.632 M 315.948 139.958 C 296.161 140.974, 296.863 139.033, 297.219 191.761 C 297.536 238.901, 297.285 237.430, 305.730 241.627 C 309.381 243.441, 316.540 243.500, 532.677 243.500 L 755.853 243.500 758.677 241.429 C 764.983 236.803, 764.997 236.692, 764.998 191.218 C 765 146.230, 764.852 144.915, 759.378 141.328 C 756.608 139.513, 349.110 138.254, 315.948 139.958 M 1012.604 224.266 C 997.190 233.104, 1004.188 247.500, 1025.587 250.973 C 1040.069 253.324, 1045.969 261.718, 1042.970 275.704 C 1040.677 286.395, 1034.932 286.320, 1028.155 275.511 C 1017.669 258.787, 989.994 267.051, 989.694 286.997 C 989.596 293.476, 991.204 295.142, 1002.780 300.554 C 1009.454 303.673, 1013.807 306.555, 1018.280 310.812 C 1034.844 326.578, 1050.414 321.665, 1046.424 301.932 C 1044.146 290.663, 1044.643 289.014, 1051.333 285.629 C 1065.276 278.575, 1075.400 256.831, 1070.979 243.436 C 1066.104 228.666, 1027.209 215.893, 1012.604 224.266 M 1079.026 285.750 C 1064.861 301.614, 1063.402 320.770, 1074.458 345.701 C 1081.915 362.515, 1080.984 398.107, 1072.370 425.500 C 1067.334 441.515, 1065.154 469.298, 1066.994 494 C 1069.697 530.281, 1086.208 562.998, 1093.993 547.500 C 1095.638 544.225, 1096.572 313.063, 1095.020 293.242 C 1093.822 277.934, 1088.310 275.352, 1079.026 285.750 M 1037.500 343.159 C 1029.729 347.426, 1023.764 355.953, 1020.376 367.636 C 1018.978 372.459, 1016.943 378.151, 1015.854 380.286 C 1014.765 382.421, 1012.505 390.767, 1010.832 398.834 C 1009.158 406.900, 1006.313 418.225, 1004.508 424 C 1000.607 436.485, 999.569 441.503, 997.512 457.831 C 995.190 476.256, 991.213 481.962, 981.590 480.672 C 975.081 479.799, 971.656 474.956, 954.593 442.500 C 945.934 426.029, 941.016 418.077, 926.377 396.884 C 902.127 361.776, 873.301 379.478, 889.806 419.343 C 891.928 424.469, 893.920 432.225, 895.557 441.735 C 897.643 453.852, 898.659 457.353, 901.634 462.672 C 904.185 467.235, 905.866 472.265, 907.519 480.280 C 908.791 486.451, 910.535 494.650, 911.394 498.500 C 914.492 512.392, 912.394 531.050, 906.239 544.329 C 899.502 558.864, 894.777 558.040, 983.170 557.746 L 1056.840 557.500 1059.523 555 C 1063.368 551.418, 1062.530 544.901, 1056.591 532.194 C 1051.605 521.527, 1050.938 518.087, 1048.905 492.552 C 1046.865 466.914, 1048.781 445.481, 1055.423 419.664 C 1067.822 371.466, 1058.490 331.634, 1037.500 343.159 M 329.804 512.041 C 325.548 514.288, 322.369 518.206, 318.478 526 C 316.967 529.025, 314.634 532.811, 313.293 534.413 C 309.620 538.802, 301 556.574, 301 559.759 C 301 571.147, 313.907 566.974, 322.762 552.723 C 334.194 534.324, 340.879 533.684, 351.971 549.926 C 362.714 565.658, 372.809 565.478, 385.609 549.326 C 397.237 534.653, 403.984 533.043, 411.133 543.235 C 426.329 564.899, 438.387 566.631, 451.262 549 C 462.882 533.086, 468.316 532.267, 477.732 545.011 C 484.572 554.270, 487.244 557.084, 491.029 559.015 C 500.663 563.930, 508.209 560.031, 518.732 544.701 C 527.416 532.051, 535.034 534.200, 549.356 553.341 C 558.621 565.725, 568.798 564.065, 581.141 548.157 C 593.374 532.390, 597.850 532.481, 610.236 548.748 C 622.846 565.306, 634.710 565.650, 645.597 549.771 C 657.145 532.929, 663.969 532.229, 673.909 546.866 C 686.911 566.012, 699.334 566.361, 711.482 547.922 C 721.216 533.147, 725.741 534.017, 738.592 553.136 C 746.005 564.166, 747.998 566, 752.568 566 C 761.112 566, 761.340 554.621, 753.037 542.553 C 751.346 540.095, 748.300 534.803, 746.269 530.792 C 744.018 526.349, 740.150 521.007, 736.367 517.120 L 730.159 510.739 724.738 511.189 C 717.835 511.761, 714.281 514.269, 707.857 523.102 C 697.355 537.541, 689.093 538.209, 680.085 525.349 C 665.442 504.444, 657.127 504.742, 640.093 526.780 C 636.150 531.881, 632.421 534, 627.390 534 C 623.498 534, 622.243 532.918, 607.897 517.200 C 599.954 508.496, 591.630 507.987, 584.542 515.773 C 563.412 538.980, 562.520 539.174, 549.145 523.435 C 534.638 506.363, 525.702 506.158, 513.318 522.613 C 501.436 538.400, 493.648 537.913, 482.035 520.657 C 471.578 505.118, 457.359 507.735, 444.348 527.592 C 437.112 538.635, 429.675 536.420, 414.766 518.779 C 405.122 507.369, 397.124 507.366, 387.290 518.770 C 370.049 538.762, 367.198 539.072, 353.098 522.490 C 342.270 509.757, 337.867 507.782, 329.804 512.041" stroke="none" fill="#efefef" fill-rule="evenodd"/></svg>