<svg xmlns="http://www.w3.org/2000/svg" width="1272" height="716" viewBox="0 0 1272 716" version="1.1"><path d="M 161 70.964 C 101.618 71.794, 100.030 72.471, 94.098 99.500 C 93.011 104.450, 90.685 112.550, 88.928 117.500 C 84.990 128.592, 83.342 167.614, 86.308 179.500 C 88.590 188.643, 96.783 207.894, 100.766 213.473 C 102.719 216.208, 105.853 221.817, 107.731 225.938 C 109.609 230.059, 112.631 235.471, 114.447 237.965 C 116.263 240.459, 118.759 244.525, 119.994 247 C 121.229 249.475, 123.741 253.611, 125.575 256.190 C 127.410 258.770, 130.336 263.720, 132.077 267.190 C 133.818 270.661, 136.709 275.525, 138.500 278 C 140.291 280.475, 143.221 285.425, 145.011 289 C 146.801 292.575, 149.486 297.300, 150.978 299.500 C 163.882 318.534, 165.636 324.983, 166.364 356.081 C 166.743 372.261, 167.471 396.750, 167.982 410.500 C 170.249 471.504, 169.217 496.872, 163.996 508.509 C 162.316 512.254, 159.805 519.360, 158.415 524.301 C 150.695 551.762, 150.218 552.007, 101.500 553.614 C 80.600 554.303, 62.375 555.171, 61 555.542 C 59.625 555.914, 54.332 557.519, 49.238 559.109 C 43.359 560.944, 37.789 562, 33.988 562 C 28 562, 28 562, 28 572.012 C 28 582.024, 28 582.024, 31.750 581.551 C 33.813 581.291, 38.487 580.828, 42.137 580.523 C 45.787 580.217, 52.762 578.573, 57.637 576.869 C 79.371 569.270, 156.329 569.839, 188.500 577.836 C 259.619 595.516, 273.767 584.930, 273.967 513.885 C 274.020 495.288, 279.337 492.070, 293.019 502.355 C 312.430 516.946, 325.259 511.091, 331.989 484.570 C 334.727 473.780, 336.907 469, 339.091 469 C 341.125 469, 360.082 495.061, 368.188 509 C 369.627 511.475, 372.245 515.300, 374.004 517.500 C 375.764 519.700, 378.556 524.200, 380.208 527.500 C 381.859 530.800, 385.120 536.425, 387.453 540 C 411.645 577.067, 414.632 580.203, 430.311 584.994 C 446.409 589.912, 462.293 593.199, 476.889 594.634 C 489.540 595.877, 494.776 596.903, 504.500 600.043 C 532.824 609.191, 543.881 601.770, 536.494 578.571 C 532.873 567.199, 533.295 562.142, 538.522 554.269 C 547.313 541.029, 543.231 530.998, 522.929 515.948 C 515.374 510.347, 499.718 492.353, 496.001 485 C 494.750 482.525, 492.382 478.538, 490.740 476.140 C 489.097 473.742, 486.019 467.723, 483.899 462.765 C 481.780 457.806, 478.898 452.244, 477.494 450.404 C 476.091 448.563, 473.593 444.051, 471.945 440.377 C 470.296 436.703, 467.439 431.627, 465.595 429.098 C 463.752 426.569, 460.822 421.668, 459.085 418.207 C 457.349 414.746, 454.031 409.072, 451.714 405.598 C 449.396 402.124, 446.258 397.081, 444.739 394.391 C 441.938 389.427, 436.406 381.135, 428.993 370.787 C 426.742 367.645, 423.718 362.920, 422.273 360.287 C 419.360 354.983, 408.733 339.792, 391.640 316.500 C 389.218 313.200, 386.283 308.604, 385.117 306.287 C 383.951 303.970, 381.072 299.695, 378.719 296.787 C 376.366 293.879, 373.347 289.925, 372.009 288 C 370.672 286.075, 367.535 281.976, 365.039 278.891 C 359.158 271.624, 348.684 256.923, 344.661 250.288 C 342.922 247.421, 338.019 240.107, 333.765 234.035 C 329.511 227.962, 324.885 220.734, 323.486 217.972 C 320.566 212.210, 309.281 199.614, 300.500 192.316 C 297.200 189.573, 290.900 183.948, 286.500 179.814 C 278.639 172.430, 271.725 167.672, 257.166 159.628 C 240.969 150.679, 238.087 144.059, 236.928 113.146 C 235.212 67.376, 239.690 69.863, 161 70.964 M 662.500 71.871 C 657.462 73.205, 652.896 75.994, 643.500 83.478 C 627.426 96.281, 626.255 100.678, 626.059 149 C 625.986 166.875, 625.535 186.391, 625.056 192.369 C 622.777 220.828, 630.970 232.148, 657 236.506 C 662.225 237.381, 670.775 239.010, 676 240.125 C 692.508 243.650, 701.356 243.643, 717.769 240.093 C 732.037 237.007, 732.037 237.007, 918.769 236.034 C 1157.056 234.793, 1140.947 235.305, 1147.728 228.764 C 1154.445 222.285, 1154.399 222.890, 1153.664 151.005 C 1152.777 64.368, 1155.631 70.582, 1117 71.172 C 1086.509 71.637, 1086.234 71.877, 1081.539 102.088 C 1080.719 107.362, 1078.735 116.812, 1077.130 123.088 C 1075.525 129.365, 1073.455 141.250, 1072.531 149.500 C 1068.261 187.616, 1061.502 194.043, 1030.500 189.458 C 1025 188.644, 1007.450 187.554, 991.500 187.034 C 975.550 186.515, 956.875 185.823, 950 185.496 C 932.316 184.655, 873.721 187.688, 844.099 190.978 C 834.419 192.052, 816.375 193.399, 804 193.971 C 791.625 194.542, 776.269 195.518, 769.876 196.140 C 744.719 198.586, 742.887 196.347, 741.948 162 C 741.238 136.069, 741.053 135.197, 734.619 127.381 C 731.291 123.339, 729.871 120.372, 728.143 113.852 C 720.313 84.315, 689.626 64.690, 662.500 71.871 M 125.564 90.040 C 116.508 91.594, 114.752 94.090, 109.412 113 C 107.936 118.225, 106.081 124.750, 105.290 127.500 C 101.734 139.863, 103.035 170.316, 107.620 182 C 109.885 187.775, 112.289 194.847, 112.961 197.715 C 113.678 200.774, 115.902 205.320, 118.341 208.712 C 122.893 215.041, 128.715 224.757, 136.005 238.190 C 138.598 242.969, 141.940 248.329, 143.431 250.100 C 144.922 251.872, 148.154 257.187, 150.614 261.911 C 155.390 271.083, 163.189 283.568, 169.153 291.590 C 171.162 294.292, 173.903 298.977, 175.245 302.001 C 176.587 305.026, 178.826 308.850, 180.220 310.500 C 183.052 313.851, 195.751 334.601, 199.508 342.015 C 200.845 344.655, 204.091 349.734, 206.720 353.302 C 209.349 356.870, 214.200 364.112, 217.500 369.395 C 220.800 374.679, 225.902 382.688, 228.837 387.194 C 231.772 391.701, 235.215 398.257, 236.488 401.765 C 237.762 405.272, 240.407 410.740, 242.367 413.916 C 244.327 417.092, 247.125 423, 248.585 427.047 C 250.044 431.093, 252.315 436.029, 253.630 438.017 C 254.945 440.004, 258.154 445.874, 260.760 451.062 C 270.938 471.317, 300.977 488.937, 310.343 480.146 C 314.002 476.711, 315.117 470.318, 314.817 454.494 C 314.457 435.463, 318.081 429, 329.117 429 C 337.957 429, 341.728 431.728, 348.417 442.967 C 350.663 446.741, 354.255 452.454, 356.401 455.664 C 366.924 471.409, 371.008 477.878, 373.025 482 C 374.237 484.475, 376.962 488.773, 379.082 491.550 C 381.201 494.328, 383.675 498.378, 384.579 500.550 C 386.085 504.167, 389.997 510.478, 400.587 526.374 C 402.739 529.604, 406.410 535.519, 408.745 539.517 C 413.654 547.925, 423.693 559.492, 428.904 562.745 C 437.325 568.001, 463.412 575.492, 478.500 576.986 C 484.550 577.585, 493.170 578.752, 497.655 579.580 C 514.546 582.698, 517.655 577.632, 509.634 560.063 C 507.232 554.804, 504.504 548.387, 503.571 545.803 C 502.639 543.220, 499.842 538.045, 497.357 534.303 C 494.871 530.562, 491.815 525.250, 490.565 522.500 C 485.100 510.476, 469.620 493.747, 454 482.986 C 450.975 480.902, 443.727 474.765, 437.894 469.348 C 422.889 455.415, 406.460 441.787, 396.500 435.013 C 393.750 433.143, 386.550 427.277, 380.500 421.977 C 374.450 416.678, 367.025 410.529, 364 408.313 C 360.975 406.097, 356.629 402.758, 354.342 400.892 C 352.056 399.026, 346.881 394.898, 342.842 391.718 C 338.804 388.538, 329.708 381.338, 322.630 375.718 C 315.551 370.098, 307.226 363.549, 304.130 361.165 C 301.033 358.781, 296.700 355.159, 294.500 353.116 C 289.072 348.076, 276.401 338.028, 271.478 334.861 C 269.266 333.438, 262.741 328.252, 256.978 323.336 C 251.215 318.420, 244.025 312.532, 241 310.251 C 188.739 270.849, 174.140 228.322, 208.377 215.220 C 226.709 208.205, 232.197 215.551, 219.050 229.507 C 206.434 242.901, 206.729 248.008, 221.167 266.178 C 229.005 276.043, 235.390 282.137, 246.658 290.513 C 250.971 293.719, 257.200 298.856, 260.500 301.928 C 263.800 304.999, 270.295 310.435, 274.933 314.006 C 279.572 317.578, 285.650 322.525, 288.442 325 C 291.233 327.475, 298.419 333.100, 304.411 337.500 C 310.403 341.900, 317.600 347.554, 320.403 350.065 C 329.586 358.288, 362.801 384.755, 372 391.178 C 374.475 392.906, 379.223 396.835, 382.552 399.910 C 385.880 402.984, 392.117 408.200, 396.412 411.500 C 400.707 414.800, 406.984 419.753, 410.361 422.507 C 421.356 431.473, 431.380 438.759, 437.500 442.233 C 440.800 444.106, 444.453 446.241, 445.618 446.977 C 451.704 450.824, 451.705 446.376, 445.621 434.331 C 443.630 430.388, 442 426.733, 442 426.209 C 442 425.685, 439.759 421.824, 437.021 417.629 C 434.282 413.434, 431.079 408.089, 429.902 405.751 C 428.726 403.413, 425.766 398.800, 423.326 395.500 C 418.921 389.544, 415.107 383.880, 405.500 369.026 C 402.750 364.774, 399.241 359.819, 397.702 358.014 C 396.163 356.210, 394.031 353.021, 392.963 350.928 C 390.510 346.118, 375.284 323.293, 374 322.500 C 371.755 321.113, 358.051 303.076, 355.698 298.412 C 354.286 295.614, 351.616 291.339, 349.765 288.912 C 347.913 286.485, 344.143 281.125, 341.387 277 C 307.183 225.815, 282.795 196.761, 266.091 187.297 C 241.717 173.487, 237.971 170.847, 231.093 162.634 C 219.943 149.320, 219.965 149.398, 219.013 120.500 C 218.228 96.677, 217.672 93.597, 213.679 90.946 C 211.164 89.277, 134.599 88.490, 125.564 90.040 M 667.792 90.340 C 644.915 96.799, 638.900 119.363, 643.938 179.821 C 645.405 197.419, 656.462 203.930, 662.408 190.695 C 668.101 178.021, 683.409 172.172, 702.191 175.494 C 722.234 179.039, 723.214 177.936, 723.795 151.190 C 724.256 129.961, 724.160 129.583, 716.315 121.958 C 713.228 118.956, 708.357 112.890, 705.491 108.477 C 694.950 92.244, 682.412 86.212, 667.792 90.340 M 1108.096 90.215 C 1103.727 92.551, 1101.739 96.665, 1098.924 109.198 C 1097.404 115.964, 1095.217 124.650, 1094.065 128.500 C 1092.913 132.350, 1091.288 141.575, 1090.453 149 C 1089.619 156.425, 1088.019 167.434, 1086.897 173.464 C 1083.571 191.346, 1086.630 196.225, 1104.820 202.052 C 1135.897 212.007, 1135.544 212.586, 1135.354 151.910 C 1135.158 89.220, 1135.293 89.745, 1119.171 89.215 C 1113.510 89.028, 1109.666 89.376, 1108.096 90.215 M 135.481 115.341 C 123.270 120.874, 123.508 132.170, 135.970 138.485 C 142.986 142.040, 146.459 146.627, 149.384 156.198 C 157.448 182.591, 169.273 183.744, 176.054 158.798 C 179.600 145.750, 180.865 144.046, 189.279 140.978 C 200.417 136.917, 204.037 130.905, 199.966 123.230 C 194.758 113.412, 188.464 112.032, 176.123 118 C 165.972 122.909, 163.846 122.946, 153.753 118.388 C 144.513 114.216, 139.726 113.418, 135.481 115.341 M 913.500 209.026 C 889.522 209.973, 876.459 213.153, 891.145 214.468 C 900.245 215.283, 962.326 213.535, 964.142 212.412 C 966.197 211.142, 947.647 208.131, 938.500 208.250 C 934.100 208.307, 922.850 208.656, 913.500 209.026 M 187.785 372.250 C 184.780 377.511, 186.060 459.410, 189.242 465.500 C 195.233 476.963, 223.919 482.745, 232.531 474.226 C 242.423 464.439, 238.399 436.126, 224.468 417.500 C 223.233 415.850, 220.996 412.025, 219.494 409 C 217.993 405.975, 215.338 401.475, 213.594 399 C 211.851 396.525, 208.918 392.025, 207.079 389 C 198.843 375.459, 190.226 367.978, 187.785 372.250 M 636.757 457.191 C 627.347 459.716, 623.661 472.286, 628.396 485.706 C 632.681 497.849, 664.048 533.880, 680.278 545.301 C 695.580 556.070, 705.759 563.412, 709.184 566.152 C 711.008 567.610, 715.366 570.001, 718.870 571.465 C 722.373 572.929, 727.008 575.242, 729.169 576.606 C 733.922 579.607, 736.456 580.630, 745.329 583.128 C 749.084 584.185, 754.733 586.351, 757.881 587.940 C 765.310 591.690, 771.634 593.425, 787.341 596.020 C 794.403 597.187, 806.553 599.787, 814.341 601.799 C 838.852 608.130, 893.724 607.107, 913.113 599.958 C 917.805 598.228, 926.795 596.146, 934.812 594.932 C 942.340 593.793, 951.650 591.736, 955.500 590.361 C 966.859 586.307, 972.990 584.282, 982.022 581.603 C 993.175 578.294, 1022.039 560.815, 1034.605 549.760 C 1037.297 547.391, 1041.300 544.143, 1043.500 542.541 C 1045.700 540.939, 1051.842 535.655, 1057.149 530.797 C 1071.741 517.442, 1077.502 516.971, 1082.580 528.715 C 1087.632 540.401, 1089.435 543.166, 1095.978 549.270 C 1122.049 573.590, 1144.650 570.127, 1154.863 540.246 C 1164.567 511.851, 1134.041 467.017, 1099 458.199 C 1091.207 456.238, 643.945 455.263, 636.757 457.191 M 661.235 476.053 C 651.344 478.020, 650.748 484.404, 659.263 497.156 C 665.971 507.201, 691.895 532.574, 702.500 539.473 C 707.450 542.693, 712.850 546.451, 714.500 547.824 C 716.150 549.197, 720.650 551.820, 724.500 553.652 C 728.350 555.484, 733.587 558.494, 736.139 560.340 C 739.272 562.607, 742.842 564.087, 747.139 564.900 C 757.368 566.835, 763.938 568.892, 773 572.995 C 780.293 576.297, 783.985 577.209, 799 579.417 C 808.625 580.832, 820.550 583.134, 825.500 584.531 C 844.347 589.852, 880.904 588.914, 905.699 582.473 C 910.759 581.159, 920.209 579.368, 926.699 578.494 C 940.894 576.583, 947.108 574.916, 956.952 570.378 C 961.051 568.489, 967.738 566.089, 971.813 565.045 C 975.888 564.002, 981.759 561.592, 984.861 559.692 C 987.962 557.791, 993.425 554.772, 997 552.983 C 1000.575 551.194, 1006.200 547.823, 1009.500 545.491 C 1012.800 543.159, 1016.850 540.565, 1018.500 539.727 C 1043.871 526.834, 1075.048 482.983, 1063.182 476.880 C 1060.083 475.285, 669.137 474.481, 661.235 476.053 M 1101.096 484.265 C 1094.771 487.515, 1091.925 499.461, 1095.323 508.500 C 1103.552 530.395, 1106.538 535.473, 1113.625 539.626 C 1124.856 546.208, 1130.884 545.847, 1134.561 538.373 C 1144.164 518.850, 1117.546 475.811, 1101.096 484.265 M 234.500 494.489 C 227.007 496.216, 215.025 496.355, 204.195 494.842 C 189.348 492.767, 189.152 493.003, 176.773 528 C 169.117 549.644, 176.464 557.935, 208.634 563.953 C 246.894 571.110, 255.018 563.571, 254.924 521 C 254.867 495.244, 251.302 490.617, 234.500 494.489" stroke="none" fill="#6a6a6a" fill-rule="evenodd"/><path d="M 38.500 29.501 C 33.675 31.210, 30.453 34.706, 29.052 39.752 C 28.343 42.304, 28.009 126.198, 28.006 302.750 C 27.999 595.015, 25.636 566.477, 49.238 559.109 C 54.332 557.519, 59.625 555.914, 61 555.542 C 62.375 555.171, 80.600 554.303, 101.500 553.614 C 150.218 552.007, 150.695 551.762, 158.415 524.301 C 159.805 519.360, 162.316 512.254, 163.996 508.509 C 169.217 496.872, 170.249 471.504, 167.982 410.500 C 167.471 396.750, 166.743 372.261, 166.364 356.081 C 165.636 324.983, 163.882 318.534, 150.978 299.500 C 149.486 297.300, 146.801 292.575, 145.011 289 C 143.221 285.425, 140.291 280.475, 138.500 278 C 136.709 275.525, 133.818 270.661, 132.077 267.190 C 130.336 263.720, 127.410 258.770, 125.575 256.190 C 123.741 253.611, 121.229 249.475, 119.994 247 C 118.759 244.525, 116.263 240.459, 114.447 237.965 C 112.631 235.471, 109.609 230.059, 107.731 225.938 C 105.853 221.817, 102.719 216.208, 100.766 213.473 C 85.435 192.001, 79.516 144.014, 88.928 117.500 C 90.685 112.550, 93.011 104.450, 94.098 99.500 C 100.080 72.245, 101.141 71.813, 164 71.065 C 239.339 70.169, 235.216 67.811, 236.910 112.761 C 238.091 144.107, 240.919 150.651, 257.166 159.628 C 271.725 167.672, 278.639 172.430, 286.500 179.814 C 290.900 183.948, 297.200 189.573, 300.500 192.316 C 309.281 199.614, 320.566 212.210, 323.486 217.972 C 324.885 220.734, 329.511 227.962, 333.765 234.035 C 338.019 240.107, 342.922 247.421, 344.661 250.288 C 348.684 256.923, 359.158 271.624, 365.039 278.891 C 367.535 281.976, 370.672 286.075, 372.009 288 C 373.347 289.925, 376.366 293.879, 378.719 296.787 C 381.072 299.695, 383.951 303.970, 385.117 306.287 C 386.283 308.604, 389.218 313.200, 391.640 316.500 C 408.733 339.792, 419.360 354.983, 422.273 360.287 C 423.718 362.920, 426.742 367.645, 428.993 370.787 C 436.406 381.135, 441.938 389.427, 444.739 394.391 C 446.258 397.081, 449.396 402.124, 451.714 405.598 C 454.031 409.072, 457.349 414.746, 459.085 418.207 C 460.822 421.668, 463.752 426.569, 465.595 429.098 C 467.439 431.627, 470.296 436.703, 471.945 440.377 C 473.593 444.051, 476.091 448.563, 477.494 450.404 C 478.898 452.244, 481.780 457.806, 483.899 462.765 C 486.019 467.723, 489.097 473.742, 490.740 476.140 C 492.382 478.538, 494.750 482.525, 496.001 485 C 499.718 492.353, 515.374 510.347, 522.929 515.948 C 543.231 530.998, 547.313 541.029, 538.522 554.269 C 533.295 562.142, 532.873 567.199, 536.494 578.571 C 543.881 601.770, 532.824 609.191, 504.500 600.043 C 494.776 596.903, 489.540 595.877, 476.889 594.634 C 462.293 593.199, 446.409 589.912, 430.311 584.994 C 414.632 580.203, 411.645 577.067, 387.453 540 C 385.120 536.425, 381.859 530.800, 380.208 527.500 C 378.556 524.200, 375.764 519.700, 374.004 517.500 C 372.245 515.300, 369.627 511.475, 368.188 509 C 344.479 468.227, 337.355 463.420, 331.989 484.570 C 325.259 511.091, 312.430 516.946, 293.019 502.355 C 279.337 492.070, 274.020 495.288, 273.967 513.885 C 273.767 584.930, 259.619 595.516, 188.500 577.836 C 156.262 569.822, 79.371 569.270, 57.559 576.896 C 52.446 578.683, 45.596 580.254, 41.559 580.564 C 26.228 581.741, 27.886 575.747, 28.213 628.802 C 28.535 681.175, 28.364 679.958, 36.035 684.465 C 41.519 687.686, 1230.481 687.686, 1235.965 684.465 C 1244.357 679.534, 1243.500 716.731, 1243.500 357.500 C 1243.500 -1.731, 1244.357 35.466, 1235.965 30.535 C 1231.398 27.853, 46.044 26.829, 38.500 29.501 M 662.500 71.871 C 657.462 73.205, 652.896 75.994, 643.500 83.478 C 627.426 96.281, 626.255 100.678, 626.059 149 C 625.986 166.875, 625.535 186.391, 625.056 192.369 C 622.777 220.828, 630.970 232.148, 657 236.506 C 662.225 237.381, 670.775 239.010, 676 240.125 C 692.508 243.650, 701.356 243.643, 717.769 240.093 C 732.037 237.007, 732.037 237.007, 918.769 236.034 C 1157.056 234.793, 1140.947 235.305, 1147.728 228.764 C 1154.445 222.285, 1154.399 222.890, 1153.664 151.005 C 1152.777 64.368, 1155.631 70.582, 1117 71.172 C 1086.509 71.637, 1086.234 71.877, 1081.539 102.088 C 1080.719 107.362, 1078.735 116.812, 1077.130 123.088 C 1075.525 129.365, 1073.455 141.250, 1072.531 149.500 C 1068.261 187.616, 1061.502 194.043, 1030.500 189.458 C 1025 188.644, 1007.450 187.554, 991.500 187.034 C 975.550 186.515, 956.875 185.823, 950 185.496 C 932.316 184.655, 873.721 187.688, 844.099 190.978 C 834.419 192.052, 816.375 193.399, 804 193.971 C 791.625 194.542, 776.269 195.518, 769.876 196.140 C 744.719 198.586, 742.887 196.347, 741.948 162 C 741.238 136.069, 741.053 135.197, 734.619 127.381 C 731.291 123.339, 729.871 120.372, 728.143 113.852 C 720.313 84.315, 689.626 64.690, 662.500 71.871 M 125.564 90.040 C 116.508 91.594, 114.752 94.090, 109.412 113 C 107.936 118.225, 106.081 124.750, 105.290 127.500 C 101.734 139.863, 103.035 170.316, 107.620 182 C 109.885 187.775, 112.289 194.847, 112.961 197.715 C 113.678 200.774, 115.902 205.320, 118.341 208.712 C 122.893 215.041, 128.715 224.757, 136.005 238.190 C 138.598 242.969, 141.940 248.329, 143.431 250.100 C 144.922 251.872, 148.154 257.187, 150.614 261.911 C 155.390 271.083, 163.189 283.568, 169.153 291.590 C 171.162 294.292, 173.903 298.977, 175.245 302.001 C 176.587 305.026, 178.826 308.850, 180.220 310.500 C 183.052 313.851, 195.751 334.601, 199.508 342.015 C 200.845 344.655, 204.091 349.734, 206.720 353.302 C 209.349 356.870, 214.200 364.112, 217.500 369.395 C 220.800 374.679, 225.902 382.688, 228.837 387.194 C 231.772 391.701, 235.215 398.257, 236.488 401.765 C 237.762 405.272, 240.407 410.740, 242.367 413.916 C 244.327 417.092, 247.125 423, 248.585 427.047 C 250.044 431.093, 252.315 436.029, 253.630 438.017 C 254.945 440.004, 258.154 445.874, 260.760 451.062 C 270.938 471.317, 300.977 488.937, 310.343 480.146 C 314.002 476.711, 315.117 470.318, 314.817 454.494 C 314.457 435.463, 318.081 429, 329.117 429 C 337.957 429, 341.728 431.728, 348.417 442.967 C 350.663 446.741, 354.255 452.454, 356.401 455.664 C 366.924 471.409, 371.008 477.878, 373.025 482 C 374.237 484.475, 376.962 488.773, 379.082 491.550 C 381.201 494.328, 383.675 498.378, 384.579 500.550 C 386.085 504.167, 389.997 510.478, 400.587 526.374 C 402.739 529.604, 406.410 535.519, 408.745 539.517 C 413.654 547.925, 423.693 559.492, 428.904 562.745 C 437.325 568.001, 463.412 575.492, 478.500 576.986 C 484.550 577.585, 493.170 578.752, 497.655 579.580 C 514.546 582.698, 517.655 577.632, 509.634 560.063 C 507.232 554.804, 504.504 548.387, 503.571 545.803 C 502.639 543.220, 499.842 538.045, 497.357 534.303 C 494.871 530.562, 491.815 525.250, 490.565 522.500 C 485.100 510.476, 469.620 493.747, 454 482.986 C 450.975 480.902, 443.727 474.765, 437.894 469.348 C 422.889 455.415, 406.460 441.787, 396.500 435.013 C 393.750 433.143, 386.550 427.277, 380.500 421.977 C 374.450 416.678, 367.025 410.529, 364 408.313 C 360.975 406.097, 356.629 402.758, 354.342 400.892 C 352.056 399.026, 346.881 394.898, 342.842 391.718 C 338.804 388.538, 329.708 381.338, 322.630 375.718 C 315.551 370.098, 307.226 363.549, 304.130 361.165 C 301.033 358.781, 296.700 355.159, 294.500 353.116 C 289.072 348.076, 276.401 338.028, 271.478 334.861 C 269.266 333.438, 262.741 328.252, 256.978 323.336 C 251.215 318.420, 244.025 312.532, 241 310.251 C 188.739 270.849, 174.140 228.322, 208.377 215.220 C 226.709 208.205, 232.197 215.551, 219.050 229.507 C 206.434 242.901, 206.729 248.008, 221.167 266.178 C 229.005 276.043, 235.390 282.137, 246.658 290.513 C 250.971 293.719, 257.200 298.856, 260.500 301.928 C 263.800 304.999, 270.295 310.435, 274.933 314.006 C 279.572 317.578, 285.650 322.525, 288.442 325 C 291.233 327.475, 298.419 333.100, 304.411 337.500 C 310.403 341.900, 317.600 347.554, 320.403 350.065 C 329.586 358.288, 362.801 384.755, 372 391.178 C 374.475 392.906, 379.223 396.835, 382.552 399.910 C 385.880 402.984, 392.117 408.200, 396.412 411.500 C 400.707 414.800, 406.984 419.753, 410.361 422.507 C 421.356 431.473, 431.380 438.759, 437.500 442.233 C 440.800 444.106, 444.453 446.241, 445.618 446.977 C 451.704 450.824, 451.705 446.376, 445.621 434.331 C 443.630 430.388, 442 426.733, 442 426.209 C 442 425.685, 439.759 421.824, 437.021 417.629 C 434.282 413.434, 431.079 408.089, 429.902 405.751 C 428.726 403.413, 425.766 398.800, 423.326 395.500 C 418.921 389.544, 415.107 383.880, 405.500 369.026 C 402.750 364.774, 399.241 359.819, 397.702 358.014 C 396.163 356.210, 394.031 353.021, 392.963 350.928 C 390.510 346.118, 375.284 323.293, 374 322.500 C 371.755 321.113, 358.051 303.076, 355.698 298.412 C 354.286 295.614, 351.616 291.339, 349.765 288.912 C 347.913 286.485, 344.143 281.125, 341.387 277 C 307.183 225.815, 282.795 196.761, 266.091 187.297 C 241.717 173.487, 237.971 170.847, 231.093 162.634 C 219.943 149.320, 219.965 149.398, 219.013 120.500 C 218.228 96.677, 217.672 93.597, 213.679 90.946 C 211.164 89.277, 134.599 88.490, 125.564 90.040 M 667.792 90.340 C 644.915 96.799, 638.900 119.363, 643.938 179.821 C 645.405 197.419, 656.462 203.930, 662.408 190.695 C 668.101 178.021, 683.409 172.172, 702.191 175.494 C 722.234 179.039, 723.214 177.936, 723.795 151.190 C 724.256 129.961, 724.160 129.583, 716.315 121.958 C 713.228 118.956, 708.357 112.890, 705.491 108.477 C 694.950 92.244, 682.412 86.212, 667.792 90.340 M 1108.096 90.215 C 1103.727 92.551, 1101.739 96.665, 1098.924 109.198 C 1097.404 115.964, 1095.217 124.650, 1094.065 128.500 C 1092.913 132.350, 1091.288 141.575, 1090.453 149 C 1089.619 156.425, 1088.019 167.434, 1086.897 173.464 C 1083.571 191.346, 1086.630 196.225, 1104.820 202.052 C 1135.897 212.007, 1135.544 212.586, 1135.354 151.910 C 1135.158 89.220, 1135.293 89.745, 1119.171 89.215 C 1113.510 89.028, 1109.666 89.376, 1108.096 90.215 M 135.481 115.341 C 123.270 120.874, 123.508 132.170, 135.970 138.485 C 142.986 142.040, 146.459 146.627, 149.384 156.198 C 157.448 182.591, 169.273 183.744, 176.054 158.798 C 179.600 145.750, 180.865 144.046, 189.279 140.978 C 200.417 136.917, 204.037 130.905, 199.966 123.230 C 194.758 113.412, 188.464 112.032, 176.123 118 C 165.972 122.909, 163.846 122.946, 153.753 118.388 C 144.513 114.216, 139.726 113.418, 135.481 115.341 M 913.500 209.026 C 889.522 209.973, 876.459 213.153, 891.145 214.468 C 900.245 215.283, 962.326 213.535, 964.142 212.412 C 966.197 211.142, 947.647 208.131, 938.500 208.250 C 934.100 208.307, 922.850 208.656, 913.500 209.026 M 187.785 372.250 C 184.780 377.511, 186.060 459.410, 189.242 465.500 C 195.233 476.963, 223.919 482.745, 232.531 474.226 C 242.423 464.439, 238.399 436.126, 224.468 417.500 C 223.233 415.850, 220.996 412.025, 219.494 409 C 217.993 405.975, 215.338 401.475, 213.594 399 C 211.851 396.525, 208.918 392.025, 207.079 389 C 198.843 375.459, 190.226 367.978, 187.785 372.250 M 636.757 457.191 C 627.347 459.716, 623.661 472.286, 628.396 485.706 C 632.681 497.849, 664.048 533.880, 680.278 545.301 C 695.580 556.070, 705.759 563.412, 709.184 566.152 C 711.008 567.610, 715.366 570.001, 718.870 571.465 C 722.373 572.929, 727.008 575.242, 729.169 576.606 C 733.922 579.607, 736.456 580.630, 745.329 583.128 C 749.084 584.185, 754.733 586.351, 757.881 587.940 C 765.310 591.690, 771.634 593.425, 787.341 596.020 C 794.403 597.187, 806.553 599.787, 814.341 601.799 C 838.852 608.130, 893.724 607.107, 913.113 599.958 C 917.805 598.228, 926.795 596.146, 934.812 594.932 C 942.340 593.793, 951.650 591.736, 955.500 590.361 C 966.859 586.307, 972.990 584.282, 982.022 581.603 C 993.175 578.294, 1022.039 560.815, 1034.605 549.760 C 1037.297 547.391, 1041.300 544.143, 1043.500 542.541 C 1045.700 540.939, 1051.842 535.655, 1057.149 530.797 C 1071.741 517.442, 1077.502 516.971, 1082.580 528.715 C 1087.632 540.401, 1089.435 543.166, 1095.978 549.270 C 1122.049 573.590, 1144.650 570.127, 1154.863 540.246 C 1164.567 511.851, 1134.041 467.017, 1099 458.199 C 1091.207 456.238, 643.945 455.263, 636.757 457.191 M 661.235 476.053 C 651.344 478.020, 650.748 484.404, 659.263 497.156 C 665.971 507.201, 691.895 532.574, 702.500 539.473 C 707.450 542.693, 712.850 546.451, 714.500 547.824 C 716.150 549.197, 720.650 551.820, 724.500 553.652 C 728.350 555.484, 733.587 558.494, 736.139 560.340 C 739.272 562.607, 742.842 564.087, 747.139 564.900 C 757.368 566.835, 763.938 568.892, 773 572.995 C 780.293 576.297, 783.985 577.209, 799 579.417 C 808.625 580.832, 820.550 583.134, 825.500 584.531 C 844.347 589.852, 880.904 588.914, 905.699 582.473 C 910.759 581.159, 920.209 579.368, 926.699 578.494 C 940.894 576.583, 947.108 574.916, 956.952 570.378 C 961.051 568.489, 967.738 566.089, 971.813 565.045 C 975.888 564.002, 981.759 561.592, 984.861 559.692 C 987.962 557.791, 993.425 554.772, 997 552.983 C 1000.575 551.194, 1006.200 547.823, 1009.500 545.491 C 1012.800 543.159, 1016.850 540.565, 1018.500 539.727 C 1043.871 526.834, 1075.048 482.983, 1063.182 476.880 C 1060.083 475.285, 669.137 474.481, 661.235 476.053 M 1101.096 484.265 C 1094.771 487.515, 1091.925 499.461, 1095.323 508.500 C 1103.552 530.395, 1106.538 535.473, 1113.625 539.626 C 1124.856 546.208, 1130.884 545.847, 1134.561 538.373 C 1144.164 518.850, 1117.546 475.811, 1101.096 484.265 M 234.500 494.489 C 227.007 496.216, 215.025 496.355, 204.195 494.842 C 189.348 492.767, 189.152 493.003, 176.773 528 C 169.117 549.644, 176.464 557.935, 208.634 563.953 C 246.894 571.110, 255.018 563.571, 254.924 521 C 254.867 495.244, 251.302 490.617, 234.500 494.489" stroke="none" fill="#efefef" fill-rule="evenodd"/></svg>