<svg xmlns="http://www.w3.org/2000/svg" width="1023" height="1272" viewBox="0 0 1023 1272" version="1.1"><path d="M 66 232.009 C 54.525 237.375, 48.372 248.958, 51.969 258.419 C 52.503 259.822, 54.086 265.279, 55.487 270.547 C 58.592 282.216, 59.808 284.162, 66.921 288.844 C 71.389 291.785, 73.199 293.845, 76.013 299.191 C 80.167 307.084, 82.712 309.965, 89.219 314.141 C 92.714 316.383, 95.139 319.101, 97.969 323.947 C 100.489 328.262, 104.558 333.045, 109.387 337.366 C 113.512 341.058, 118.542 346.332, 120.562 349.085 C 122.583 351.838, 127.783 356.790, 132.118 360.090 C 136.453 363.390, 140 366.439, 140 366.866 C 140 369.021, 149.713 377.334, 155.832 380.415 C 159.709 382.368, 163.818 385.311, 165.137 387.080 C 171.526 395.649, 175.389 398.731, 182.490 400.924 C 190.802 403.492, 192.523 404.541, 198.005 410.391 C 203.754 416.524, 213.932 421.643, 225.217 424.075 C 238.191 426.872, 237.516 426.545, 243.720 433.060 C 250.535 440.218, 259.164 444.177, 273.132 446.553 C 285.545 448.665, 297.862 453.023, 305.521 458.014 C 314.100 463.603, 329.450 467.414, 349.500 468.933 C 371.700 470.615, 375.016 471.407, 387.500 478.016 C 407.919 488.825, 427.297 490.954, 512.198 491.717 C 603.855 492.539, 639.200 489.965, 650.077 481.673 C 657.500 476.014, 660.023 475.167, 672.740 474.063 C 679.368 473.487, 687.876 472.385, 691.646 471.614 C 695.416 470.842, 701.650 469.910, 705.500 469.542 C 730.847 467.122, 733.995 466.231, 748.877 457.258 C 758.618 451.385, 766.823 448, 771.317 448 C 783.887 448, 804.365 440.919, 809.198 434.901 C 813.236 429.872, 816.306 428.269, 830.913 423.561 C 845.854 418.746, 847.228 417.960, 852 411.500 C 856.325 405.645, 858.897 403.902, 866 402.012 C 874.549 399.737, 884.018 393.890, 891.958 385.981 C 896.154 381.802, 902.124 376.932, 905.225 375.157 C 910.783 371.978, 912.979 369.781, 919.294 361.087 C 921.484 358.073, 924.849 355.379, 929.910 352.587 C 936.472 348.967, 937.697 347.814, 940.620 342.500 C 944.336 335.743, 947.479 332.689, 954.655 328.861 C 959.051 326.517, 960.140 325.210, 964.430 317.132 C 970.742 305.247, 982.840 297.693, 989.235 301.645 C 994.702 305.024, 995 303.150, 995 265.438 C 995 229.915, 995 229.915, 977.750 230.645 C 954.150 231.645, 89.624 231.699, 79 230.702 C 71.441 229.993, 70.002 230.138, 66 232.009 M 110.500 264.323 C 102.423 267.492, 99.716 271.616, 102.359 276.727 C 106.641 285.008, 115.713 296.526, 121.590 301.145 C 125.942 304.565, 129.401 308.476, 132.566 313.554 C 136.283 319.517, 138.338 321.668, 143.059 324.536 C 146.292 326.500, 152.097 331.610, 155.978 335.908 C 161.139 341.623, 165.901 345.533, 173.763 350.508 C 179.668 354.245, 187.425 360.149, 191 363.626 C 196.435 368.914, 198.717 370.363, 204.926 372.475 C 214.624 375.773, 216.156 376.868, 220.936 383.905 C 225.512 390.644, 227.453 391.545, 252.330 398.478 C 256.922 399.757, 259.503 401.351, 264.478 405.979 C 271.851 412.838, 277.990 415.180, 295 417.624 C 313.913 420.341, 325.851 424.101, 334.634 430.109 C 343.734 436.333, 353.643 438.401, 396.711 443.060 C 414.658 445.002, 430.389 448.635, 443.886 453.955 C 457.488 459.317, 467.591 460.312, 512.981 460.764 C 580.772 461.438, 597.416 459.982, 617.779 451.593 C 631.472 445.952, 647.621 442.569, 670.500 440.551 C 697.019 438.211, 708.709 435.421, 723.219 427.969 C 739.127 419.799, 741.226 419.159, 757.831 417.415 C 775.562 415.553, 778.861 414.320, 783.680 407.755 C 788.122 401.703, 791.174 400.224, 808 395.965 C 822.560 392.280, 824.143 391.446, 829.542 384.615 C 833.690 379.367, 834.322 378.966, 849.219 372.125 C 856.081 368.975, 859.736 366.429, 866.377 360.173 C 873.382 353.575, 875.908 351.861, 881.248 350.084 C 888.232 347.760, 891.596 344.863, 894.846 338.376 C 897.187 333.703, 900.548 330.696, 907.765 326.819 C 911.683 324.713, 913.243 323.102, 915.027 319.319 C 918.635 311.667, 921.501 308.472, 927.190 305.758 C 933.755 302.627, 936.057 300.088, 938.938 292.799 C 940.619 288.548, 942.820 285.583, 947.596 281.133 C 956.261 273.061, 955.681 269.556, 944.972 265.284 C 939.335 263.035, 116.197 262.088, 110.500 264.323 M 516.325 746.601 C 511.465 748.247, 506.597 753.717, 502.621 762 C 498.562 770.453, 497.475 1175.552, 501.499 1179.999 C 510.206 1189.621, 527.760 1190.607, 531.488 1181.684 C 534.974 1173.338, 535.092 1165.547, 534.794 963 C 534.500 763.500, 534.500 763.500, 532.172 757.734 C 527.840 747.004, 523.708 744.101, 516.325 746.601" stroke="none" fill="#6c6c6c" fill-rule="evenodd"/><path d="M 38.500 29.501 C 33.630 31.226, 30.412 34.755, 29.031 39.885 C 26.703 48.530, 28.192 1231.975, 30.535 1235.965 C 31.655 1237.870, 34.130 1240.345, 36.035 1241.465 C 41.518 1244.685, 981.482 1244.685, 986.965 1241.465 C 988.870 1240.345, 991.345 1237.870, 992.465 1235.965 C 999.776 1223.520, 995.126 301.285, 987.754 301.617 C 974.217 302.226, 971.324 304.151, 964.430 317.132 C 960.140 325.210, 959.051 326.517, 954.655 328.861 C 947.479 332.689, 944.336 335.743, 940.620 342.500 C 937.697 347.814, 936.472 348.967, 929.910 352.587 C 924.849 355.379, 921.484 358.073, 919.294 361.087 C 912.979 369.781, 910.783 371.978, 905.225 375.157 C 902.124 376.932, 896.154 381.802, 891.958 385.981 C 884.018 393.890, 874.549 399.737, 866 402.012 C 858.897 403.902, 856.325 405.645, 852 411.500 C 847.228 417.960, 845.854 418.746, 830.913 423.561 C 816.306 428.269, 813.236 429.872, 809.198 434.901 C 804.365 440.919, 783.887 448, 771.317 448 C 766.823 448, 758.618 451.385, 748.877 457.258 C 733.995 466.231, 730.847 467.122, 705.500 469.542 C 701.650 469.910, 695.416 470.842, 691.646 471.614 C 687.876 472.385, 679.368 473.487, 672.740 474.063 C 660.023 475.167, 657.500 476.014, 650.077 481.673 C 639.200 489.965, 603.855 492.539, 512.198 491.717 C 427.297 490.954, 407.919 488.825, 387.500 478.016 C 375.016 471.407, 371.700 470.615, 349.500 468.933 C 329.450 467.414, 314.100 463.603, 305.521 458.014 C 297.862 453.023, 285.545 448.665, 273.132 446.553 C 259.164 444.177, 250.535 440.218, 243.720 433.060 C 237.516 426.545, 238.191 426.872, 225.217 424.075 C 213.932 421.643, 203.754 416.524, 198.005 410.391 C 192.523 404.541, 190.802 403.492, 182.490 400.924 C 175.389 398.731, 171.526 395.649, 165.137 387.080 C 163.818 385.311, 159.709 382.368, 155.832 380.415 C 149.713 377.334, 140 369.021, 140 366.866 C 140 366.439, 136.453 363.390, 132.118 360.090 C 127.783 356.790, 122.583 351.838, 120.562 349.085 C 118.542 346.332, 113.512 341.058, 109.387 337.366 C 104.558 333.045, 100.489 328.262, 97.969 323.947 C 95.139 319.101, 92.714 316.383, 89.219 314.141 C 82.712 309.965, 80.167 307.084, 76.013 299.191 C 73.199 293.845, 71.389 291.785, 66.921 288.844 C 59.808 284.162, 58.592 282.216, 55.487 270.547 C 54.086 265.279, 52.503 259.822, 51.969 258.419 C 46.444 243.886, 61.481 228.666, 79.434 230.622 C 89.113 231.676, 952.968 231.701, 977.500 230.648 C 997.242 229.801, 1006.133 41.797, 986.965 30.535 C 982.396 27.852, 46.037 26.830, 38.500 29.501 M 110.500 264.323 C 102.423 267.492, 99.716 271.616, 102.359 276.727 C 106.641 285.008, 115.713 296.526, 121.590 301.145 C 125.942 304.565, 129.401 308.476, 132.566 313.554 C 136.283 319.517, 138.338 321.668, 143.059 324.536 C 146.292 326.500, 152.097 331.610, 155.978 335.908 C 161.139 341.623, 165.901 345.533, 173.763 350.508 C 179.668 354.245, 187.425 360.149, 191 363.626 C 196.435 368.914, 198.717 370.363, 204.926 372.475 C 214.624 375.773, 216.156 376.868, 220.936 383.905 C 225.512 390.644, 227.453 391.545, 252.330 398.478 C 256.922 399.757, 259.503 401.351, 264.478 405.979 C 271.851 412.838, 277.990 415.180, 295 417.624 C 313.913 420.341, 325.851 424.101, 334.634 430.109 C 343.734 436.333, 353.643 438.401, 396.711 443.060 C 414.658 445.002, 430.389 448.635, 443.886 453.955 C 457.488 459.317, 467.591 460.312, 512.981 460.764 C 580.772 461.438, 597.416 459.982, 617.779 451.593 C 631.472 445.952, 647.621 442.569, 670.500 440.551 C 697.019 438.211, 708.709 435.421, 723.219 427.969 C 739.127 419.799, 741.226 419.159, 757.831 417.415 C 775.562 415.553, 778.861 414.320, 783.680 407.755 C 788.122 401.703, 791.174 400.224, 808 395.965 C 822.560 392.280, 824.143 391.446, 829.542 384.615 C 833.690 379.367, 834.322 378.966, 849.219 372.125 C 856.081 368.975, 859.736 366.429, 866.377 360.173 C 873.382 353.575, 875.908 351.861, 881.248 350.084 C 888.232 347.760, 891.596 344.863, 894.846 338.376 C 897.187 333.703, 900.548 330.696, 907.765 326.819 C 911.683 324.713, 913.243 323.102, 915.027 319.319 C 918.635 311.667, 921.501 308.472, 927.190 305.758 C 933.755 302.627, 936.057 300.088, 938.938 292.799 C 940.619 288.548, 942.820 285.583, 947.596 281.133 C 956.261 273.061, 955.681 269.556, 944.972 265.284 C 939.335 263.035, 116.197 262.088, 110.500 264.323 M 516.325 746.601 C 511.465 748.247, 506.597 753.717, 502.621 762 C 498.562 770.453, 497.475 1175.552, 501.499 1179.999 C 510.206 1189.621, 527.760 1190.607, 531.488 1181.684 C 534.974 1173.338, 535.092 1165.547, 534.794 963 C 534.500 763.500, 534.500 763.500, 532.172 757.734 C 527.840 747.004, 523.708 744.101, 516.325 746.601" stroke="none" fill="#f7f7f7" fill-rule="evenodd"/></svg>