<svg xmlns="http://www.w3.org/2000/svg" width="1272" height="523" viewBox="0 0 1272 523" version="1.1"><path d="M 523.479 65.801 C 517.793 67.768, 513.767 70.432, 506.357 77.135 C 503.529 79.693, 498.102 83.604, 494.299 85.826 C 481.419 93.348, 481.783 99.517, 495.582 107.585 C 507.506 114.556, 508.872 117.920, 509.965 143 C 510.869 163.726, 511.592 166.589, 519.365 180.215 C 527.362 194.235, 574.649 290.276, 579.369 302.086 C 586.584 320.136, 584.833 333.144, 570.500 368 C 567.899 374.325, 563.372 385.499, 560.442 392.832 C 551.683 414.743, 550.073 415.982, 530.282 416.033 C 507.202 416.092, 499 418.312, 499 424.500 C 499 427.457, 503.031 430.984, 507.653 432.073 C 516.682 434.200, 637.201 433.447, 642.208 431.232 C 650.528 427.552, 650.079 421.273, 641.213 417.286 C 629.311 411.935, 629.276 409.409, 640.743 383.500 C 647.985 367.136, 649.670 358.252, 647.913 345.692 C 645.827 330.780, 647.077 329.658, 667 328.569 C 728.420 325.210, 750.535 304.342, 719.591 278.944 C 707.223 268.794, 691.044 247.009, 677.771 222.638 C 668.807 206.178, 665.162 201.257, 651.141 186.684 C 644.146 179.414, 635.362 169.076, 631.620 163.709 C 626.713 156.670, 622.128 151.635, 615.159 145.631 C 597.443 130.368, 595.681 127.683, 592.847 111.613 C 586.936 78.103, 552.903 55.627, 523.479 65.801 M 813.643 65.031 C 804.562 67.744, 802.434 75.801, 798.063 124 C 796.941 136.375, 795.346 150.550, 794.518 155.500 C 793.690 160.450, 792.092 174.850, 790.966 187.500 C 789.841 200.150, 787.619 219.500, 786.028 230.500 C 776.813 294.240, 777.574 299.633, 797.831 314.122 C 810.252 323.007, 816.422 328.679, 830.870 344.500 C 850.023 365.472, 849.130 362.703, 847.778 396.941 C 846.830 420.963, 846.830 420.963, 849.165 425.132 C 857.512 440.035, 877.038 432.805, 877.382 414.684 C 877.560 405.339, 875.863 356.610, 875.330 355.735 C 875.073 355.314, 874.449 339.339, 873.943 320.235 C 872.937 282.251, 870.546 222.263, 868.973 195.500 C 868.423 186.150, 867.522 168.600, 866.970 156.500 C 865.023 113.816, 859.340 94.198, 844.764 79.847 C 832.567 67.838, 821.646 62.639, 813.643 65.031 M 536.635 82.073 C 535.117 83.267, 534 85.146, 534 86.507 C 534 92.787, 532.417 94.282, 526.546 93.549 C 516.984 92.354, 515.018 96.307, 519.968 106.771 C 524.941 117.283, 525.999 122.305, 526.008 135.432 C 526.021 156.134, 529.197 167.171, 540.061 184.267 C 542.939 188.795, 547.090 195.313, 549.286 198.750 C 555.263 208.107, 556.485 207.169, 552.870 196 C 547.212 178.521, 551.455 161.890, 563.086 155.956 C 575.415 149.666, 583.764 158.943, 574.640 168.793 C 566.595 177.478, 565.893 182.689, 571.364 193.099 C 573.215 196.620, 575.492 201.835, 576.425 204.689 C 582.756 224.065, 596.998 229.506, 597.002 212.550 C 597.003 202.735, 598.693 198.874, 605 194.268 C 624.431 180.080, 624.058 177.586, 598.844 153.077 C 580.845 135.580, 579.258 133.115, 575.947 117.500 C 570.351 91.106, 549.285 72.122, 536.635 82.073 M 821.080 89.145 C 818.291 92.139, 816.522 103.338, 812.969 140.500 C 812.391 146.550, 811.278 155.550, 810.498 160.500 C 809.717 165.450, 807.698 183, 806.012 199.500 C 804.326 216, 802.084 235.575, 801.031 243 C 795.045 285.183, 795.692 290.698, 807.718 300.051 C 811.448 302.952, 820.125 310.800, 827 317.490 C 858.794 348.429, 858.708 348.478, 856.988 300.500 C 856.054 274.431, 855.492 261.251, 852.982 206.500 C 852.453 194.950, 851.559 174.475, 850.996 161 C 849.835 133.188, 848.712 123.087, 845.830 114.500 C 839.048 94.296, 827.399 82.362, 821.080 89.145 M 1059.667 161.434 C 1048.526 164.428, 1035.137 184.714, 1021.675 219 C 1016.717 231.626, 1010.505 243.939, 1002.503 257 C 999.639 261.675, 995.388 269.100, 993.057 273.500 C 980.281 297.607, 975.453 301.728, 956.691 304.546 C 934.594 307.865, 925.545 313.227, 925.545 323 C 925.545 333.952, 935.459 337.586, 954.417 333.585 C 960.539 332.293, 964.782 332.069, 973.131 332.597 C 991.854 333.782, 998.222 330.080, 1007.908 312.382 C 1010.883 306.947, 1020.423 291.895, 1029.109 278.934 C 1040.064 262.585, 1048.004 249.339, 1055.032 235.683 C 1066.956 212.516, 1069.201 210.224, 1075.284 215.008 C 1081.286 219.730, 1092.686 244.538, 1096.118 260.346 C 1097.210 265.381, 1099.431 273.378, 1101.052 278.119 C 1107.556 297.135, 1104.977 303.329, 1088.831 307.471 C 1052.991 316.665, 1055.247 338.023, 1091.780 335.392 C 1098.226 334.928, 1108.900 334.696, 1115.500 334.877 C 1138.323 335.503, 1144.910 328.869, 1140.200 310 C 1139.033 305.325, 1137.810 298.125, 1137.482 294 C 1135.845 273.392, 1129.538 243.746, 1124.292 232 C 1122.941 228.975, 1120.975 224.231, 1119.924 221.459 C 1104.662 181.208, 1079.468 156.112, 1059.667 161.434 M 625.827 200.895 C 616.448 206.843, 615.455 209.292, 615.806 225.617 C 616.419 254.163, 605.717 259.418, 583.500 241.479 C 566 227.349, 565.025 230.559, 578.366 258.384 C 599.165 301.765, 630.594 316.877, 685.210 309.761 C 713.594 306.062, 716.697 302.099, 702.841 287.246 C 691.059 274.617, 684.616 265.547, 669.543 240.371 C 645.346 199.956, 637.904 193.236, 625.827 200.895 M 195.500 203.016 C 174.392 204.527, 138.373 210.748, 124.151 215.339 C 118.293 217.229, 110.369 219.754, 106.543 220.949 C 43.327 240.694, 56.354 265.659, 139.444 284.004 C 183.172 293.658, 272.166 296.790, 312.173 290.083 C 318.403 289.038, 329.125 287.419, 336 286.485 C 342.875 285.550, 351.991 283.688, 356.259 282.347 C 360.526 281.005, 368.111 279.014, 373.114 277.922 C 382.734 275.823, 387.101 274.164, 406.448 265.263 C 428.746 255.005, 433.155 247.490, 422.411 238.056 C 415.879 232.321, 395.313 223.213, 379 218.832 C 372.675 217.134, 364.575 214.954, 361 213.988 C 353.331 211.917, 319.738 205.425, 309 203.938 C 299.363 202.604, 211.252 201.888, 195.500 203.016 M 209 219.025 C 198.275 219.406, 185.675 220.444, 181 221.331 C 176.325 222.217, 164.625 224.105, 155 225.525 C 92.134 234.800, 76.219 252.939, 122.500 262.567 C 126.350 263.368, 134 265.360, 139.500 266.994 C 171.443 276.484, 258.341 280.388, 305 274.431 C 311.325 273.623, 321.735 272.296, 328.134 271.483 C 334.532 270.669, 343.982 268.876, 349.134 267.498 C 354.285 266.121, 364.080 263.636, 370.900 261.976 C 449.043 242.962, 341.115 214.329, 209 219.025 M 602.595 319.250 C 601.797 320.488, 600.642 324.425, 600.027 328 C 597.958 340.024, 591.880 359.382, 584.798 376.500 C 569.160 414.300, 569.542 416.358, 592.082 415.791 C 610.304 415.333, 631.084 383.671, 631.324 356 C 631.503 335.420, 609.948 307.847, 602.595 319.250" stroke="none" fill="#888888" fill-rule="evenodd"/><path d="M 38.500 29.501 C 33.624 31.228, 30.412 34.756, 29.025 39.906 C 28.312 42.553, 28.064 113.362, 28.241 263.640 C 28.533 511.761, 27.709 487.573, 36.035 492.465 C 41.519 495.686, 1230.481 495.686, 1235.965 492.465 C 1244.301 487.567, 1243.500 512.105, 1243.500 261.500 C 1243.500 10.895, 1244.301 35.433, 1235.965 30.535 C 1231.398 27.853, 46.044 26.829, 38.500 29.501 M 523.479 65.801 C 517.793 67.768, 513.767 70.432, 506.357 77.135 C 503.529 79.693, 498.102 83.604, 494.299 85.826 C 481.419 93.348, 481.783 99.517, 495.582 107.585 C 507.506 114.556, 508.872 117.920, 509.965 143 C 510.869 163.726, 511.592 166.589, 519.365 180.215 C 527.362 194.235, 574.649 290.276, 579.369 302.086 C 586.584 320.136, 584.833 333.144, 570.500 368 C 567.899 374.325, 563.372 385.499, 560.442 392.832 C 551.683 414.743, 550.073 415.982, 530.282 416.033 C 507.202 416.092, 499 418.312, 499 424.500 C 499 427.457, 503.031 430.984, 507.653 432.073 C 516.682 434.200, 637.201 433.447, 642.208 431.232 C 650.528 427.552, 650.079 421.273, 641.213 417.286 C 629.311 411.935, 629.276 409.409, 640.743 383.500 C 647.985 367.136, 649.670 358.252, 647.913 345.692 C 645.827 330.780, 647.077 329.658, 667 328.569 C 728.420 325.210, 750.535 304.342, 719.591 278.944 C 707.223 268.794, 691.044 247.009, 677.771 222.638 C 668.807 206.178, 665.162 201.257, 651.141 186.684 C 644.146 179.414, 635.362 169.076, 631.620 163.709 C 626.713 156.670, 622.128 151.635, 615.159 145.631 C 597.443 130.368, 595.681 127.683, 592.847 111.613 C 586.936 78.103, 552.903 55.627, 523.479 65.801 M 813.643 65.031 C 804.562 67.744, 802.434 75.801, 798.063 124 C 796.941 136.375, 795.346 150.550, 794.518 155.500 C 793.690 160.450, 792.092 174.850, 790.966 187.500 C 789.841 200.150, 787.619 219.500, 786.028 230.500 C 776.813 294.240, 777.574 299.633, 797.831 314.122 C 810.252 323.007, 816.422 328.679, 830.870 344.500 C 850.023 365.472, 849.130 362.703, 847.778 396.941 C 846.830 420.963, 846.830 420.963, 849.165 425.132 C 857.512 440.035, 877.038 432.805, 877.382 414.684 C 877.560 405.339, 875.863 356.610, 875.330 355.735 C 875.073 355.314, 874.449 339.339, 873.943 320.235 C 872.937 282.251, 870.546 222.263, 868.973 195.500 C 868.423 186.150, 867.522 168.600, 866.970 156.500 C 865.023 113.816, 859.340 94.198, 844.764 79.847 C 832.567 67.838, 821.646 62.639, 813.643 65.031 M 536.635 82.073 C 535.117 83.267, 534 85.146, 534 86.507 C 534 92.787, 532.417 94.282, 526.546 93.549 C 516.984 92.354, 515.018 96.307, 519.968 106.771 C 524.941 117.283, 525.999 122.305, 526.008 135.432 C 526.021 156.134, 529.197 167.171, 540.061 184.267 C 542.939 188.795, 547.090 195.313, 549.286 198.750 C 555.263 208.107, 556.485 207.169, 552.870 196 C 547.212 178.521, 551.455 161.890, 563.086 155.956 C 575.415 149.666, 583.764 158.943, 574.640 168.793 C 566.595 177.478, 565.893 182.689, 571.364 193.099 C 573.215 196.620, 575.492 201.835, 576.425 204.689 C 582.756 224.065, 596.998 229.506, 597.002 212.550 C 597.003 202.735, 598.693 198.874, 605 194.268 C 624.431 180.080, 624.058 177.586, 598.844 153.077 C 580.845 135.580, 579.258 133.115, 575.947 117.500 C 570.351 91.106, 549.285 72.122, 536.635 82.073 M 821.080 89.145 C 818.291 92.139, 816.522 103.338, 812.969 140.500 C 812.391 146.550, 811.278 155.550, 810.498 160.500 C 809.717 165.450, 807.698 183, 806.012 199.500 C 804.326 216, 802.084 235.575, 801.031 243 C 795.045 285.183, 795.692 290.698, 807.718 300.051 C 811.448 302.952, 820.125 310.800, 827 317.490 C 858.794 348.429, 858.708 348.478, 856.988 300.500 C 856.054 274.431, 855.492 261.251, 852.982 206.500 C 852.453 194.950, 851.559 174.475, 850.996 161 C 849.835 133.188, 848.712 123.087, 845.830 114.500 C 839.048 94.296, 827.399 82.362, 821.080 89.145 M 1059.667 161.434 C 1048.526 164.428, 1035.137 184.714, 1021.675 219 C 1016.717 231.626, 1010.505 243.939, 1002.503 257 C 999.639 261.675, 995.388 269.100, 993.057 273.500 C 980.281 297.607, 975.453 301.728, 956.691 304.546 C 934.594 307.865, 925.545 313.227, 925.545 323 C 925.545 333.952, 935.459 337.586, 954.417 333.585 C 960.539 332.293, 964.782 332.069, 973.131 332.597 C 991.854 333.782, 998.222 330.080, 1007.908 312.382 C 1010.883 306.947, 1020.423 291.895, 1029.109 278.934 C 1040.064 262.585, 1048.004 249.339, 1055.032 235.683 C 1066.956 212.516, 1069.201 210.224, 1075.284 215.008 C 1081.286 219.730, 1092.686 244.538, 1096.118 260.346 C 1097.210 265.381, 1099.431 273.378, 1101.052 278.119 C 1107.556 297.135, 1104.977 303.329, 1088.831 307.471 C 1052.991 316.665, 1055.247 338.023, 1091.780 335.392 C 1098.226 334.928, 1108.900 334.696, 1115.500 334.877 C 1138.323 335.503, 1144.910 328.869, 1140.200 310 C 1139.033 305.325, 1137.810 298.125, 1137.482 294 C 1135.845 273.392, 1129.538 243.746, 1124.292 232 C 1122.941 228.975, 1120.975 224.231, 1119.924 221.459 C 1104.662 181.208, 1079.468 156.112, 1059.667 161.434 M 625.827 200.895 C 616.448 206.843, 615.455 209.292, 615.806 225.617 C 616.419 254.163, 605.717 259.418, 583.500 241.479 C 566 227.349, 565.025 230.559, 578.366 258.384 C 599.165 301.765, 630.594 316.877, 685.210 309.761 C 713.594 306.062, 716.697 302.099, 702.841 287.246 C 691.059 274.617, 684.616 265.547, 669.543 240.371 C 645.346 199.956, 637.904 193.236, 625.827 200.895 M 195.500 203.016 C 174.392 204.527, 138.373 210.748, 124.151 215.339 C 118.293 217.229, 110.369 219.754, 106.543 220.949 C 43.327 240.694, 56.354 265.659, 139.444 284.004 C 183.172 293.658, 272.166 296.790, 312.173 290.083 C 318.403 289.038, 329.125 287.419, 336 286.485 C 342.875 285.550, 351.991 283.688, 356.259 282.347 C 360.526 281.005, 368.111 279.014, 373.114 277.922 C 382.734 275.823, 387.101 274.164, 406.448 265.263 C 428.746 255.005, 433.155 247.490, 422.411 238.056 C 415.879 232.321, 395.313 223.213, 379 218.832 C 372.675 217.134, 364.575 214.954, 361 213.988 C 353.331 211.917, 319.738 205.425, 309 203.938 C 299.363 202.604, 211.252 201.888, 195.500 203.016 M 209 219.025 C 198.275 219.406, 185.675 220.444, 181 221.331 C 176.325 222.217, 164.625 224.105, 155 225.525 C 92.134 234.800, 76.219 252.939, 122.500 262.567 C 126.350 263.368, 134 265.360, 139.500 266.994 C 171.443 276.484, 258.341 280.388, 305 274.431 C 311.325 273.623, 321.735 272.296, 328.134 271.483 C 334.532 270.669, 343.982 268.876, 349.134 267.498 C 354.285 266.121, 364.080 263.636, 370.900 261.976 C 449.043 242.962, 341.115 214.329, 209 219.025 M 602.595 319.250 C 601.797 320.488, 600.642 324.425, 600.027 328 C 597.958 340.024, 591.880 359.382, 584.798 376.500 C 569.160 414.300, 569.542 416.358, 592.082 415.791 C 610.304 415.333, 631.084 383.671, 631.324 356 C 631.503 335.420, 609.948 307.847, 602.595 319.250" stroke="none" fill="#f5f5f5" fill-rule="evenodd"/></svg>