<svg xmlns="http://www.w3.org/2000/svg" width="1272" height="833" viewBox="0 0 1272 833" version="1.1"><path d="M 211 94.010 C 202.512 95.757, 184.436 105.870, 176.126 113.521 C 145.454 141.759, 134.210 148.481, 115.924 149.518 C 97.679 150.553, 90 153.780, 90 160.412 C 90 168.229, 97.187 170.946, 118 170.995 C 142.804 171.054, 151.084 172.206, 168 177.948 C 175.975 180.656, 185.875 183.743, 190 184.809 C 194.125 185.875, 202.962 188.352, 209.637 190.314 C 216.312 192.276, 226.303 194.556, 231.840 195.380 C 249.627 198.030, 252.017 202.240, 242.841 214.762 C 235.040 225.407, 205.471 257.545, 185.158 277.454 C 168.866 293.423, 157.160 307.711, 151.548 318.478 C 149.643 322.131, 146.319 327.231, 144.160 329.810 C 129.615 347.187, 129.056 395.924, 143.169 416.115 C 145.624 419.627, 149.078 425.506, 150.845 429.181 C 152.612 432.855, 156.632 438.719, 159.779 442.212 C 162.925 445.705, 167.043 450.573, 168.928 453.031 C 172.252 457.364, 183.119 466.945, 194.800 475.841 C 197.935 478.229, 203.445 482.954, 207.044 486.341 C 210.643 489.729, 215.368 494.088, 217.544 496.029 C 219.720 497.969, 228.475 506.946, 237 515.978 C 245.525 525.009, 255.106 534.865, 258.291 537.880 C 261.476 540.895, 266.106 546.197, 268.578 549.662 C 271.051 553.127, 276.770 559.060, 281.287 562.846 C 285.804 566.631, 290.400 570.756, 291.500 572.012 C 292.600 573.268, 296.759 576.719, 300.741 579.681 C 309.273 586.025, 309.618 586.615, 315.004 604.059 C 322.178 627.296, 319.328 648.097, 305.727 671.759 C 302.963 676.567, 299.412 683.617, 297.835 687.427 C 290.141 706.014, 292.516 705.387, 227.500 706 C 181.163 706.437, 174.045 706.707, 170.881 708.144 C 161.343 712.478, 162.080 721.574, 172.285 725.471 C 179.976 728.408, 298.553 727.239, 309.853 724.115 C 318.938 721.603, 321.423 721.705, 330.325 724.951 C 338.572 727.958, 451.238 727.729, 459.106 724.690 C 467.188 721.567, 469.579 718.084, 469.068 710.178 C 468.069 694.717, 468.558 685.620, 470.756 678.781 C 474.627 666.737, 477.101 651.188, 477.641 635.500 C 478.424 612.783, 478.145 613.111, 497.623 611.993 C 510.169 611.273, 511.380 611.015, 519.029 607.425 C 528.526 602.968, 532.890 602.688, 543.505 605.851 C 560.075 610.789, 580.968 611.349, 605 607.500 C 622.718 604.662, 629.039 604.454, 637.500 606.432 C 640.800 607.203, 648.856 608.788, 655.402 609.953 C 663.951 611.474, 669.444 613.100, 674.898 615.724 C 689.483 622.739, 704.539 620.283, 702.547 611.214 C 700.657 602.610, 690.678 595.442, 674.948 591.390 C 661.677 587.971, 659.736 587.119, 652.651 581.594 C 648.276 578.182, 644.547 576.356, 637.848 574.346 C 620.025 568.997, 608.051 555.438, 615.321 548.838 C 615.420 548.749, 625.027 548.411, 636.672 548.088 C 660.230 547.434, 663 546.571, 663 539.891 C 663 529.898, 652.671 522.053, 633.572 517.540 C 622.819 514.999, 616.930 512.562, 611.431 508.375 C 609.743 507.090, 605.243 504.635, 601.431 502.919 C 597.619 501.203, 592.025 497.664, 589 495.054 C 585.975 492.444, 580.209 488.446, 576.186 486.169 C 572.163 483.892, 566.988 480.514, 564.686 478.663 C 562.384 476.812, 558.194 474.065, 555.375 472.558 C 552.557 471.051, 544.822 464.572, 538.186 458.159 C 521.448 441.982, 511.181 432.717, 504.338 427.614 C 501.127 425.219, 496.925 421.582, 495 419.530 C 493.075 417.478, 488.800 413.969, 485.500 411.732 C 482.200 409.495, 478.198 406.590, 476.607 405.277 C 475.017 403.964, 471.549 401.792, 468.901 400.450 C 466.254 399.108, 461.394 395.607, 458.102 392.670 C 453.771 388.805, 449.819 386.434, 443.808 384.092 C 439.239 382.313, 433.700 379.601, 431.500 378.066 C 425.331 373.763, 421.425 372.002, 412.099 369.319 C 407.370 367.959, 401.250 365.349, 398.500 363.519 C 392.366 359.437, 386.816 357.651, 372.171 355.048 C 358.196 352.564, 354.799 351.660, 345.587 347.971 C 337.845 344.871, 321.516 341.860, 299.500 339.473 C 292.350 338.698, 283.350 337.107, 279.500 335.936 C 275.650 334.766, 265.975 332.077, 258 329.959 C 236.821 324.337, 236.369 324.181, 233.044 321.383 C 220.271 310.636, 220.369 296.402, 233.331 279.500 C 244.733 264.632, 248.071 260.583, 250.944 258.127 C 252.634 256.682, 255.926 252.954, 258.259 249.841 C 260.591 246.729, 264.203 242.004, 266.284 239.341 C 286.910 212.954, 287.841 210.249, 288.267 175.500 C 288.587 149.436, 287.446 145.242, 273.169 120 C 268.541 111.818, 268.081 111.351, 260.848 107.500 C 256.715 105.300, 251.017 101.996, 248.186 100.158 C 239.263 94.365, 222.631 91.615, 211 94.010 M 1034.407 94.031 C 1028.931 95.116, 1023.915 97.282, 1018.761 100.785 C 1016.417 102.379, 1011.878 104.869, 1008.674 106.320 C 1001.758 109.453, 990.628 119.754, 984.712 128.500 C 982.479 131.800, 978.819 136.562, 976.576 139.083 C 974.334 141.603, 971.424 146.328, 970.109 149.583 C 968.794 152.837, 965.489 159.414, 962.765 164.198 C 959.970 169.106, 956.618 176.950, 955.074 182.198 C 953.568 187.314, 950.859 194.324, 949.053 197.776 C 944.676 206.144, 944.976 212.903, 950.239 224.500 C 952.235 228.900, 954.406 235.650, 955.063 239.500 C 957.201 252.029, 958.005 252.922, 974.239 260.790 C 982.083 264.591, 991.650 269.231, 995.500 271.101 C 1020.859 283.416, 1028.206 300.737, 1020.053 328.992 C 1017.754 336.962, 1014.839 348.674, 1013.577 355.017 C 1012.246 361.704, 1009.735 370.112, 1007.601 375.025 C 1003.833 383.703, 1000.124 397.062, 998.029 409.500 C 997.261 414.059, 995.138 419.987, 991.941 426.500 C 987.611 435.323, 986.802 438.030, 985.068 449.500 C 977.535 499.322, 968.729 521.938, 960.610 512.313 C 958.900 510.286, 955.316 506.573, 952.646 504.063 C 949.976 501.553, 946.946 497.844, 945.912 495.821 C 944.878 493.798, 941.864 489.523, 939.213 486.321 C 936.563 483.119, 933.007 478.467, 931.310 475.983 C 929.613 473.499, 926.223 469.224, 923.777 466.483 C 921.331 463.742, 918.039 459.250, 916.462 456.500 C 912.765 450.053, 897.221 433.480, 889.500 427.755 C 886.200 425.308, 882.600 422.289, 881.500 421.046 C 876.352 415.231, 849.317 406.337, 841.731 407.964 C 809.250 414.930, 800.181 450.831, 816.715 507 C 818.092 511.675, 820.729 521.261, 822.576 528.303 C 824.422 535.345, 827.569 545.020, 829.569 549.803 C 835.736 564.558, 836.742 568.098, 838.318 580.618 C 839.382 589.065, 841.108 596.485, 844.016 605.118 C 853.309 632.708, 845.388 655.078, 815.381 685.987 C 796.108 705.839, 793.001 716.114, 804.190 722.990 C 811.097 727.235, 811.329 727.243, 918 726.997 C 1124.129 726.522, 1123.004 726.575, 1128.141 716.998 C 1132.169 709.487, 1127.007 690.101, 1117.429 676.768 C 1109.355 665.530, 1108.869 658.606, 1114.283 632 C 1118.847 609.575, 1119.584 604.055, 1121.497 578 C 1122.989 557.684, 1126.955 532.091, 1130.530 519.716 C 1131.290 517.085, 1132.828 505.835, 1133.948 494.716 C 1137.230 462.112, 1137.709 459.172, 1140.524 454.370 C 1141.932 451.966, 1143.459 450, 1143.917 450 C 1145.797 450, 1158.250 436.456, 1160.778 431.662 C 1167.822 418.305, 1164.051 263.772, 1156.126 241 C 1153.781 234.263, 1152.935 229.493, 1152.048 218 C 1150.203 194.089, 1148.662 186.879, 1143.040 175.848 C 1140.129 170.135, 1137.283 162.663, 1136.066 157.542 C 1133.668 147.443, 1132.971 145.962, 1127.883 140.152 C 1125.788 137.760, 1122.853 133.710, 1121.360 131.152 C 1116.763 123.277, 1103.152 109.284, 1096.403 105.496 C 1093.049 103.613, 1089.773 101.431, 1089.121 100.646 C 1084.285 94.818, 1050.833 90.774, 1034.407 94.031 M 216.286 116.109 C 208.448 118.375, 197.857 131.152, 200.240 135.466 C 200.933 136.721, 202.331 139.217, 203.347 141.013 C 205.869 145.468, 204.461 148.226, 197.991 151.505 C 186.532 157.311, 191.517 161.378, 218.001 167.831 C 224.875 169.506, 234.100 171.162, 238.500 171.512 C 242.900 171.862, 249.051 172.793, 252.168 173.580 C 267.171 177.371, 270.691 159.751, 258.577 141.500 C 256.752 138.750, 254.064 134.376, 252.604 131.780 C 247 121.811, 226.765 113.080, 216.286 116.109 M 1035.385 116.914 C 1007.296 127.029, 999.672 142.352, 1016.452 154.964 C 1030.232 165.321, 1032.946 166.317, 1048 166.540 C 1067.369 166.827, 1069.165 167.643, 1078.446 180.365 C 1087.079 192.198, 1088.304 200.410, 1082.698 208.881 C 1081.364 210.896, 1079.264 214.560, 1078.032 217.022 C 1076.799 219.485, 1073.801 224.065, 1071.369 227.199 C 1062.302 238.885, 1060.973 247.016, 1059.962 297 C 1059.523 318.725, 1058.623 340.775, 1057.962 346 C 1053.880 378.294, 1056.488 408.470, 1063.305 407.809 C 1068.952 407.261, 1070.400 399.431, 1071.502 363.500 C 1072.464 332.113, 1074.504 323.531, 1082.440 317.478 C 1108.255 297.788, 1136.299 330.582, 1128.500 371.338 C 1124.467 392.416, 1126.774 419, 1132.637 419 C 1139.384 419, 1139.483 418.394, 1139.636 376.040 C 1139.710 355.393, 1140.201 334.900, 1140.726 330.500 C 1142.007 319.758, 1140.589 292.941, 1138.105 280.949 C 1137.017 275.696, 1135.629 266.471, 1135.021 260.449 C 1134.412 254.427, 1133.477 246.350, 1132.943 242.500 C 1132.408 238.650, 1131.326 227.468, 1130.538 217.651 C 1129.106 199.803, 1129.106 199.803, 1124.100 189.151 C 1121.347 183.293, 1118.105 174.514, 1116.897 169.642 C 1114.694 160.759, 1114.124 159.721, 1104.118 146.354 C 1084.648 120.343, 1057.799 108.843, 1035.385 116.914 M 997.500 184.433 C 994.750 186.398, 990.250 188.733, 987.500 189.623 C 975.822 193.403, 972.023 200.496, 974.479 213.935 C 975.441 219.196, 976.644 225.796, 977.154 228.601 C 978.169 234.191, 980.380 236.829, 988 241.542 C 990.475 243.073, 994.102 245.609, 996.059 247.177 C 998.017 248.745, 1002.995 251.328, 1007.122 252.918 C 1011.249 254.507, 1016.823 257.200, 1019.509 258.904 C 1031.572 266.554, 1037.752 261.527, 1041.977 240.628 C 1044.857 226.384, 1046.249 222.658, 1050.988 216.515 C 1057.843 207.630, 1059.442 201.386, 1056.602 194.590 C 1054.586 189.765, 1053.756 189.502, 1040.500 189.480 C 1028.821 189.461, 1028.259 189.357, 1019.500 185.609 C 1006.732 180.144, 1003.728 179.984, 997.500 184.433 M 470 194.568 C 450.315 196.349, 450.340 196.342, 441.130 202.272 C 436.664 205.147, 430.342 209.018, 427.082 210.874 C 413.124 218.818, 391.887 249.313, 388.138 266.792 C 382.926 291.095, 387.002 302.800, 402.921 309.242 C 411.807 312.838, 571.079 312.792, 577.825 309.191 C 585.469 305.111, 587.543 297.701, 583.922 287.407 C 582.780 284.158, 580.768 276.400, 579.452 270.167 C 577.859 262.618, 575.996 256.941, 573.873 253.167 C 572.121 250.050, 568.753 243.900, 566.390 239.500 C 549.209 207.513, 513.079 190.671, 470 194.568 M 468.164 216.482 C 449.443 220.700, 426.184 237.135, 420.019 250.500 C 409.397 273.529, 410.005 281.911, 422.563 285.561 C 431.059 288.031, 547.139 287.243, 551.829 284.684 C 559.173 280.676, 559.615 271.355, 552.949 261.043 C 550.776 257.680, 547.811 252.586, 546.360 249.723 C 542.334 241.779, 532.110 231.778, 524.172 228.019 C 520.502 226.281, 515.925 223.610, 514 222.084 C 506.463 216.108, 504.603 215.605, 489 215.319 C 479.168 215.139, 472.460 215.514, 468.164 216.482 M 181.004 316.763 C 174.375 323.621, 166.182 335.459, 159.353 348.048 C 151.664 362.223, 153.909 395.612, 163.371 407.801 C 165.805 410.935, 168.967 415.847, 170.398 418.716 C 171.829 421.585, 174.912 426.100, 177.250 428.748 C 179.587 431.397, 182.563 435.133, 183.862 437.052 C 185.161 438.970, 188.086 441.859, 190.362 443.472 C 194.502 446.405, 202.298 453.027, 212.871 462.592 C 215.967 465.392, 221.011 469.513, 224.080 471.748 C 229.758 475.883, 251.005 497.807, 259.457 508.250 C 262.016 511.413, 264.478 514, 264.928 514 C 265.379 514, 271.226 519.962, 277.923 527.250 C 296.092 547.020, 305.784 555.390, 316.499 560.564 C 321.450 562.954, 328.269 566.654, 331.652 568.786 C 335.745 571.365, 341.269 573.589, 348.152 575.430 C 353.844 576.951, 361.650 579.552, 365.500 581.210 C 385.682 589.897, 411.986 590.495, 428.535 582.641 C 444.747 574.948, 455.716 574.979, 470.145 582.757 C 488.140 592.458, 498.054 592.110, 510.168 581.351 C 522.281 570.593, 529.834 570.678, 546.817 581.763 C 560.868 590.934, 595.024 590.554, 594.990 581.227 C 594.925 563.034, 565.987 542.811, 538.003 541.401 C 531.676 541.083, 522.928 540.180, 518.562 539.396 C 514.197 538.612, 502.497 537.533, 492.562 536.998 C 458.386 535.157, 440.650 532.597, 426.435 527.451 C 418.670 524.641, 413.606 523.622, 399.423 522.019 C 378.419 519.645, 371.945 518.067, 362.045 512.906 C 355.999 509.754, 352.121 508.572, 342.531 506.960 C 334.309 505.578, 328.049 503.837, 322.531 501.396 C 318.114 499.441, 311.296 496.762, 307.381 495.442 C 296.775 491.865, 291.162 489.307, 284.500 485.013 C 281.200 482.887, 275.350 479.910, 271.500 478.399 C 244.612 467.845, 230.855 439.278, 239.335 411.602 C 245.114 392.741, 265.764 397.356, 261.253 416.500 C 259.375 424.467, 259.232 435.814, 260.968 439 C 264.550 445.571, 274.634 455.194, 282 459.070 C 286.125 461.240, 291.623 464.543, 294.219 466.411 C 297.651 468.881, 301.468 470.386, 308.219 471.933 C 313.511 473.146, 322.013 476.180, 328 478.993 C 336.178 482.835, 341.375 484.491, 351.500 486.484 C 369.755 490.076, 378.196 492.529, 384.452 496.060 C 388.716 498.466, 391.845 499.331, 399.183 500.131 C 417.328 502.109, 442.263 506.196, 450.327 508.513 C 466.559 513.177, 499.821 516.498, 550.500 518.515 C 570.993 519.331, 577.452 515.322, 566.982 508.285 C 564.702 506.753, 559.387 502.775, 555.169 499.445 C 550.951 496.115, 545.475 491.996, 543 490.291 C 540.525 488.586, 536.925 485.530, 535 483.500 C 533.075 481.470, 529.700 478.551, 527.500 477.014 C 525.300 475.476, 518.100 468.951, 511.500 462.514 C 504.900 456.076, 497.700 449.657, 495.500 448.249 C 493.300 446.842, 489.250 443.795, 486.500 441.480 C 483.750 439.165, 479.555 436.059, 477.179 434.578 C 474.802 433.097, 470.302 429.536, 467.179 426.666 C 464.055 423.795, 458.575 419.688, 455 417.538 C 451.425 415.389, 447.097 412.580, 445.382 411.297 C 443.667 410.013, 437.858 407.198, 432.475 405.040 C 427.091 402.882, 420.289 399.465, 417.358 397.447 C 414.427 395.428, 407.217 392.030, 401.336 389.895 C 395.454 387.760, 386.742 384.049, 381.976 381.649 C 373.467 377.364, 371.360 376.808, 351 373.476 C 345.775 372.621, 334.917 369.700, 326.871 366.985 C 313.493 362.471, 310.808 361.917, 295.488 360.514 C 275.778 358.708, 263.213 356.257, 252.368 352.101 C 248.040 350.443, 240.046 347.938, 234.602 346.533 C 219.725 342.696, 217.304 340.763, 204.190 322.268 C 192.721 306.093, 191.580 305.822, 181.004 316.763 M 1096.552 358.836 C 1096.232 359.846, 1095.089 372.333, 1094.013 386.586 C 1091.073 425.513, 1089.176 429.301, 1067.748 439.028 C 1055.017 444.807, 1037.738 434.344, 1030.979 416.764 C 1025.013 401.248, 1023.520 402.091, 1017.989 424.097 C 1015.996 432.028, 1013.503 439.024, 1011.074 443.500 C 1006.486 451.957, 1005.616 455.612, 1002.981 477.500 C 1000.735 496.170, 999.976 499.701, 996.358 508.321 C 995.015 511.522, 992.843 519.397, 991.532 525.821 C 987.268 546.723, 984.480 550.125, 971.613 550.125 C 962.848 550.125, 948.238 538.715, 942.002 527 C 941.271 525.625, 938.120 521.800, 935.001 518.500 C 931.882 515.200, 927.711 509.800, 925.732 506.500 C 923.753 503.200, 920.129 498.160, 917.680 495.300 C 915.230 492.441, 912.196 488.391, 910.938 486.300 C 909.679 484.210, 906.591 480.191, 904.075 477.370 C 901.559 474.548, 895.675 467.843, 891 462.469 C 869.583 437.851, 861.717 432, 850.034 432 C 831.775 432, 825.864 448.608, 834.433 475.832 C 836.395 482.064, 838 487.934, 838 488.877 C 838 489.819, 839.118 494.892, 840.484 500.149 C 841.851 505.407, 843.675 514.836, 844.538 521.104 C 845.849 530.622, 846.859 534.116, 850.668 542.309 C 854.640 550.850, 855.601 554.317, 858.111 569.148 C 860.273 581.926, 861.961 588.591, 864.872 595.839 C 872.949 615.947, 873.445 637.927, 866.140 652 C 856.891 669.817, 853.294 675.943, 849.874 679.700 C 834.025 697.112, 833.985 703.558, 849.715 705.120 C 864.340 706.573, 1090.914 704.637, 1094.215 703.032 C 1099.579 700.422, 1099.478 692.549, 1093.970 683.957 C 1085.914 671.391, 1086.111 640.471, 1094.431 611.500 C 1097.842 599.620, 1098.611 593.952, 1102.025 555.500 C 1104.900 523.124, 1105.584 518.448, 1111.143 493.126 C 1117.164 465.700, 1116.500 452.003, 1108.348 435.496 C 1102.618 423.890, 1102.618 423.890, 1101.912 393.195 C 1101.245 364.162, 1100.489 357, 1098.092 357 C 1097.566 357, 1096.873 357.826, 1096.552 358.836 M 361.232 609.160 C 357.990 610.821, 355.389 615.589, 353.993 622.432 C 351.230 635.977, 343.641 653.970, 336.588 663.698 C 335.312 665.457, 332.995 669.957, 331.438 673.698 C 329.881 677.439, 326.395 683.716, 323.692 687.646 C 317.943 696.006, 316.571 702.170, 319.473 706.599 C 321.338 709.446, 322.972 709.499, 334 707.076 C 336.597 706.505, 358.494 706.069, 385.782 706.044 C 446.372 705.988, 440.930 708.242, 446.013 681.094 C 449.796 660.887, 449.759 658.251, 445.479 642.636 C 441.173 626.925, 441.302 627.171, 432.690 618.267 C 424.408 609.703, 425.977 610.115, 399.500 609.567 C 388.500 609.339, 375.900 608.893, 371.500 608.576 C 366.294 608.200, 362.708 608.404, 361.232 609.160" stroke="none" fill="#6c6c6c" fill-rule="evenodd"/><path d="M 38.500 29.501 C 33.628 31.227, 30.412 34.755, 29.029 39.892 C 26.707 48.517, 28.188 792.969, 30.535 796.965 C 31.655 798.870, 34.130 801.345, 36.035 802.465 C 41.519 805.686, 1230.481 805.686, 1235.965 802.465 C 1244.376 797.523, 1243.500 842.400, 1243.500 416.500 C 1243.500 -9.400, 1244.376 35.477, 1235.965 30.535 C 1231.398 27.853, 46.044 26.829, 38.500 29.501 M 211 94.010 C 202.512 95.757, 184.436 105.870, 176.126 113.521 C 145.454 141.759, 134.210 148.481, 115.924 149.518 C 97.679 150.553, 90 153.780, 90 160.412 C 90 168.229, 97.187 170.946, 118 170.995 C 142.804 171.054, 151.084 172.206, 168 177.948 C 175.975 180.656, 185.875 183.743, 190 184.809 C 194.125 185.875, 202.962 188.352, 209.637 190.314 C 216.312 192.276, 226.303 194.556, 231.840 195.380 C 249.627 198.030, 252.017 202.240, 242.841 214.762 C 235.040 225.407, 205.471 257.545, 185.158 277.454 C 168.866 293.423, 157.160 307.711, 151.548 318.478 C 149.643 322.131, 146.319 327.231, 144.160 329.810 C 129.615 347.187, 129.056 395.924, 143.169 416.115 C 145.624 419.627, 149.078 425.506, 150.845 429.181 C 152.612 432.855, 156.632 438.719, 159.779 442.212 C 162.925 445.705, 167.043 450.573, 168.928 453.031 C 172.252 457.364, 183.119 466.945, 194.800 475.841 C 197.935 478.229, 203.445 482.954, 207.044 486.341 C 210.643 489.729, 215.368 494.088, 217.544 496.029 C 219.720 497.969, 228.475 506.946, 237 515.978 C 245.525 525.009, 255.106 534.865, 258.291 537.880 C 261.476 540.895, 266.106 546.197, 268.578 549.662 C 271.051 553.127, 276.770 559.060, 281.287 562.846 C 285.804 566.631, 290.400 570.756, 291.500 572.012 C 292.600 573.268, 296.759 576.719, 300.741 579.681 C 309.273 586.025, 309.618 586.615, 315.004 604.059 C 322.178 627.296, 319.328 648.097, 305.727 671.759 C 302.963 676.567, 299.412 683.617, 297.835 687.427 C 290.141 706.014, 292.516 705.387, 227.500 706 C 181.163 706.437, 174.045 706.707, 170.881 708.144 C 161.343 712.478, 162.080 721.574, 172.285 725.471 C 179.976 728.408, 298.553 727.239, 309.853 724.115 C 318.938 721.603, 321.423 721.705, 330.325 724.951 C 338.572 727.958, 451.238 727.729, 459.106 724.690 C 467.188 721.567, 469.579 718.084, 469.068 710.178 C 468.069 694.717, 468.558 685.620, 470.756 678.781 C 474.627 666.737, 477.101 651.188, 477.641 635.500 C 478.424 612.783, 478.145 613.111, 497.623 611.993 C 510.169 611.273, 511.380 611.015, 519.029 607.425 C 528.526 602.968, 532.890 602.688, 543.505 605.851 C 560.075 610.789, 580.968 611.349, 605 607.500 C 622.718 604.662, 629.039 604.454, 637.500 606.432 C 640.800 607.203, 648.856 608.788, 655.402 609.953 C 663.951 611.474, 669.444 613.100, 674.898 615.724 C 689.483 622.739, 704.539 620.283, 702.547 611.214 C 700.657 602.610, 690.678 595.442, 674.948 591.390 C 661.677 587.971, 659.736 587.119, 652.651 581.594 C 648.276 578.182, 644.547 576.356, 637.848 574.346 C 620.025 568.997, 608.051 555.438, 615.321 548.838 C 615.420 548.749, 625.027 548.411, 636.672 548.088 C 660.230 547.434, 663 546.571, 663 539.891 C 663 529.898, 652.671 522.053, 633.572 517.540 C 622.819 514.999, 616.930 512.562, 611.431 508.375 C 609.743 507.090, 605.243 504.635, 601.431 502.919 C 597.619 501.203, 592.025 497.664, 589 495.054 C 585.975 492.444, 580.209 488.446, 576.186 486.169 C 572.163 483.892, 566.988 480.514, 564.686 478.663 C 562.384 476.812, 558.194 474.065, 555.375 472.558 C 552.557 471.051, 544.822 464.572, 538.186 458.159 C 521.448 441.982, 511.181 432.717, 504.338 427.614 C 501.127 425.219, 496.925 421.582, 495 419.530 C 493.075 417.478, 488.800 413.969, 485.500 411.732 C 482.200 409.495, 478.198 406.590, 476.607 405.277 C 475.017 403.964, 471.549 401.792, 468.901 400.450 C 466.254 399.108, 461.394 395.607, 458.102 392.670 C 453.771 388.805, 449.819 386.434, 443.808 384.092 C 439.239 382.313, 433.700 379.601, 431.500 378.066 C 425.331 373.763, 421.425 372.002, 412.099 369.319 C 407.370 367.959, 401.250 365.349, 398.500 363.519 C 392.366 359.437, 386.816 357.651, 372.171 355.048 C 358.196 352.564, 354.799 351.660, 345.587 347.971 C 337.845 344.871, 321.516 341.860, 299.500 339.473 C 292.350 338.698, 283.350 337.107, 279.500 335.936 C 275.650 334.766, 265.975 332.077, 258 329.959 C 236.821 324.337, 236.369 324.181, 233.044 321.383 C 220.271 310.636, 220.369 296.402, 233.331 279.500 C 244.733 264.632, 248.071 260.583, 250.944 258.127 C 252.634 256.682, 255.926 252.954, 258.259 249.841 C 260.591 246.729, 264.203 242.004, 266.284 239.341 C 286.910 212.954, 287.841 210.249, 288.267 175.500 C 288.587 149.436, 287.446 145.242, 273.169 120 C 268.541 111.818, 268.081 111.351, 260.848 107.500 C 256.715 105.300, 251.017 101.996, 248.186 100.158 C 239.263 94.365, 222.631 91.615, 211 94.010 M 1034.407 94.031 C 1028.931 95.116, 1023.915 97.282, 1018.761 100.785 C 1016.417 102.379, 1011.878 104.869, 1008.674 106.320 C 1001.758 109.453, 990.628 119.754, 984.712 128.500 C 982.479 131.800, 978.819 136.562, 976.576 139.083 C 974.334 141.603, 971.424 146.328, 970.109 149.583 C 968.794 152.837, 965.489 159.414, 962.765 164.198 C 959.970 169.106, 956.618 176.950, 955.074 182.198 C 953.568 187.314, 950.859 194.324, 949.053 197.776 C 944.676 206.144, 944.976 212.903, 950.239 224.500 C 952.235 228.900, 954.406 235.650, 955.063 239.500 C 957.201 252.029, 958.005 252.922, 974.239 260.790 C 982.083 264.591, 991.650 269.231, 995.500 271.101 C 1020.859 283.416, 1028.206 300.737, 1020.053 328.992 C 1017.754 336.962, 1014.839 348.674, 1013.577 355.017 C 1012.246 361.704, 1009.735 370.112, 1007.601 375.025 C 1003.833 383.703, 1000.124 397.062, 998.029 409.500 C 997.261 414.059, 995.138 419.987, 991.941 426.500 C 987.611 435.323, 986.802 438.030, 985.068 449.500 C 977.535 499.322, 968.729 521.938, 960.610 512.313 C 958.900 510.286, 955.316 506.573, 952.646 504.063 C 949.976 501.553, 946.946 497.844, 945.912 495.821 C 944.878 493.798, 941.864 489.523, 939.213 486.321 C 936.563 483.119, 933.007 478.467, 931.310 475.983 C 929.613 473.499, 926.223 469.224, 923.777 466.483 C 921.331 463.742, 918.039 459.250, 916.462 456.500 C 912.765 450.053, 897.221 433.480, 889.500 427.755 C 886.200 425.308, 882.600 422.289, 881.500 421.046 C 876.352 415.231, 849.317 406.337, 841.731 407.964 C 809.250 414.930, 800.181 450.831, 816.715 507 C 818.092 511.675, 820.729 521.261, 822.576 528.303 C 824.422 535.345, 827.569 545.020, 829.569 549.803 C 835.736 564.558, 836.742 568.098, 838.318 580.618 C 839.382 589.065, 841.108 596.485, 844.016 605.118 C 853.309 632.708, 845.388 655.078, 815.381 685.987 C 796.108 705.839, 793.001 716.114, 804.190 722.990 C 811.097 727.235, 811.329 727.243, 918 726.997 C 1124.129 726.522, 1123.004 726.575, 1128.141 716.998 C 1132.169 709.487, 1127.007 690.101, 1117.429 676.768 C 1109.355 665.530, 1108.869 658.606, 1114.283 632 C 1118.847 609.575, 1119.584 604.055, 1121.497 578 C 1122.989 557.684, 1126.955 532.091, 1130.530 519.716 C 1131.290 517.085, 1132.828 505.835, 1133.948 494.716 C 1137.230 462.112, 1137.709 459.172, 1140.524 454.370 C 1141.932 451.966, 1143.459 450, 1143.917 450 C 1145.797 450, 1158.250 436.456, 1160.778 431.662 C 1167.822 418.305, 1164.051 263.772, 1156.126 241 C 1153.781 234.263, 1152.935 229.493, 1152.048 218 C 1150.203 194.089, 1148.662 186.879, 1143.040 175.848 C 1140.129 170.135, 1137.283 162.663, 1136.066 157.542 C 1133.668 147.443, 1132.971 145.962, 1127.883 140.152 C 1125.788 137.760, 1122.853 133.710, 1121.360 131.152 C 1116.763 123.277, 1103.152 109.284, 1096.403 105.496 C 1093.049 103.613, 1089.773 101.431, 1089.121 100.646 C 1084.285 94.818, 1050.833 90.774, 1034.407 94.031 M 216.286 116.109 C 208.448 118.375, 197.857 131.152, 200.240 135.466 C 200.933 136.721, 202.331 139.217, 203.347 141.013 C 205.869 145.468, 204.461 148.226, 197.991 151.505 C 186.532 157.311, 191.517 161.378, 218.001 167.831 C 224.875 169.506, 234.100 171.162, 238.500 171.512 C 242.900 171.862, 249.051 172.793, 252.168 173.580 C 267.171 177.371, 270.691 159.751, 258.577 141.500 C 256.752 138.750, 254.064 134.376, 252.604 131.780 C 247 121.811, 226.765 113.080, 216.286 116.109 M 1035.385 116.914 C 1007.296 127.029, 999.672 142.352, 1016.452 154.964 C 1030.232 165.321, 1032.946 166.317, 1048 166.540 C 1067.369 166.827, 1069.165 167.643, 1078.446 180.365 C 1087.079 192.198, 1088.304 200.410, 1082.698 208.881 C 1081.364 210.896, 1079.264 214.560, 1078.032 217.022 C 1076.799 219.485, 1073.801 224.065, 1071.369 227.199 C 1062.302 238.885, 1060.973 247.016, 1059.962 297 C 1059.523 318.725, 1058.623 340.775, 1057.962 346 C 1053.880 378.294, 1056.488 408.470, 1063.305 407.809 C 1068.952 407.261, 1070.400 399.431, 1071.502 363.500 C 1072.464 332.113, 1074.504 323.531, 1082.440 317.478 C 1108.255 297.788, 1136.299 330.582, 1128.500 371.338 C 1124.467 392.416, 1126.774 419, 1132.637 419 C 1139.384 419, 1139.483 418.394, 1139.636 376.040 C 1139.710 355.393, 1140.201 334.900, 1140.726 330.500 C 1142.007 319.758, 1140.589 292.941, 1138.105 280.949 C 1137.017 275.696, 1135.629 266.471, 1135.021 260.449 C 1134.412 254.427, 1133.477 246.350, 1132.943 242.500 C 1132.408 238.650, 1131.326 227.468, 1130.538 217.651 C 1129.106 199.803, 1129.106 199.803, 1124.100 189.151 C 1121.347 183.293, 1118.105 174.514, 1116.897 169.642 C 1114.694 160.759, 1114.124 159.721, 1104.118 146.354 C 1084.648 120.343, 1057.799 108.843, 1035.385 116.914 M 997.500 184.433 C 994.750 186.398, 990.250 188.733, 987.500 189.623 C 975.822 193.403, 972.023 200.496, 974.479 213.935 C 975.441 219.196, 976.644 225.796, 977.154 228.601 C 978.169 234.191, 980.380 236.829, 988 241.542 C 990.475 243.073, 994.102 245.609, 996.059 247.177 C 998.017 248.745, 1002.995 251.328, 1007.122 252.918 C 1011.249 254.507, 1016.823 257.200, 1019.509 258.904 C 1031.572 266.554, 1037.752 261.527, 1041.977 240.628 C 1044.857 226.384, 1046.249 222.658, 1050.988 216.515 C 1057.843 207.630, 1059.442 201.386, 1056.602 194.590 C 1054.586 189.765, 1053.756 189.502, 1040.500 189.480 C 1028.821 189.461, 1028.259 189.357, 1019.500 185.609 C 1006.732 180.144, 1003.728 179.984, 997.500 184.433 M 470 194.568 C 450.315 196.349, 450.340 196.342, 441.130 202.272 C 436.664 205.147, 430.342 209.018, 427.082 210.874 C 413.124 218.818, 391.887 249.313, 388.138 266.792 C 382.926 291.095, 387.002 302.800, 402.921 309.242 C 411.807 312.838, 571.079 312.792, 577.825 309.191 C 585.469 305.111, 587.543 297.701, 583.922 287.407 C 582.780 284.158, 580.768 276.400, 579.452 270.167 C 577.859 262.618, 575.996 256.941, 573.873 253.167 C 572.121 250.050, 568.753 243.900, 566.390 239.500 C 549.209 207.513, 513.079 190.671, 470 194.568 M 468.164 216.482 C 449.443 220.700, 426.184 237.135, 420.019 250.500 C 409.397 273.529, 410.005 281.911, 422.563 285.561 C 431.059 288.031, 547.139 287.243, 551.829 284.684 C 559.173 280.676, 559.615 271.355, 552.949 261.043 C 550.776 257.680, 547.811 252.586, 546.360 249.723 C 542.334 241.779, 532.110 231.778, 524.172 228.019 C 520.502 226.281, 515.925 223.610, 514 222.084 C 506.463 216.108, 504.603 215.605, 489 215.319 C 479.168 215.139, 472.460 215.514, 468.164 216.482 M 181.004 316.763 C 174.375 323.621, 166.182 335.459, 159.353 348.048 C 151.664 362.223, 153.909 395.612, 163.371 407.801 C 165.805 410.935, 168.967 415.847, 170.398 418.716 C 171.829 421.585, 174.912 426.100, 177.250 428.748 C 179.587 431.397, 182.563 435.133, 183.862 437.052 C 185.161 438.970, 188.086 441.859, 190.362 443.472 C 194.502 446.405, 202.298 453.027, 212.871 462.592 C 215.967 465.392, 221.011 469.513, 224.080 471.748 C 229.758 475.883, 251.005 497.807, 259.457 508.250 C 262.016 511.413, 264.478 514, 264.928 514 C 265.379 514, 271.226 519.962, 277.923 527.250 C 296.092 547.020, 305.784 555.390, 316.499 560.564 C 321.450 562.954, 328.269 566.654, 331.652 568.786 C 335.745 571.365, 341.269 573.589, 348.152 575.430 C 353.844 576.951, 361.650 579.552, 365.500 581.210 C 385.682 589.897, 411.986 590.495, 428.535 582.641 C 444.747 574.948, 455.716 574.979, 470.145 582.757 C 488.140 592.458, 498.054 592.110, 510.168 581.351 C 522.281 570.593, 529.834 570.678, 546.817 581.763 C 560.868 590.934, 595.024 590.554, 594.990 581.227 C 594.925 563.034, 565.987 542.811, 538.003 541.401 C 531.676 541.083, 522.928 540.180, 518.562 539.396 C 514.197 538.612, 502.497 537.533, 492.562 536.998 C 458.386 535.157, 440.650 532.597, 426.435 527.451 C 418.670 524.641, 413.606 523.622, 399.423 522.019 C 378.419 519.645, 371.945 518.067, 362.045 512.906 C 355.999 509.754, 352.121 508.572, 342.531 506.960 C 334.309 505.578, 328.049 503.837, 322.531 501.396 C 318.114 499.441, 311.296 496.762, 307.381 495.442 C 296.775 491.865, 291.162 489.307, 284.500 485.013 C 281.200 482.887, 275.350 479.910, 271.500 478.399 C 244.612 467.845, 230.855 439.278, 239.335 411.602 C 245.114 392.741, 265.764 397.356, 261.253 416.500 C 259.375 424.467, 259.232 435.814, 260.968 439 C 264.550 445.571, 274.634 455.194, 282 459.070 C 286.125 461.240, 291.623 464.543, 294.219 466.411 C 297.651 468.881, 301.468 470.386, 308.219 471.933 C 313.511 473.146, 322.013 476.180, 328 478.993 C 336.178 482.835, 341.375 484.491, 351.500 486.484 C 369.755 490.076, 378.196 492.529, 384.452 496.060 C 388.716 498.466, 391.845 499.331, 399.183 500.131 C 417.328 502.109, 442.263 506.196, 450.327 508.513 C 466.559 513.177, 499.821 516.498, 550.500 518.515 C 570.993 519.331, 577.452 515.322, 566.982 508.285 C 564.702 506.753, 559.387 502.775, 555.169 499.445 C 550.951 496.115, 545.475 491.996, 543 490.291 C 540.525 488.586, 536.925 485.530, 535 483.500 C 533.075 481.470, 529.700 478.551, 527.500 477.014 C 525.300 475.476, 518.100 468.951, 511.500 462.514 C 504.900 456.076, 497.700 449.657, 495.500 448.249 C 493.300 446.842, 489.250 443.795, 486.500 441.480 C 483.750 439.165, 479.555 436.059, 477.179 434.578 C 474.802 433.097, 470.302 429.536, 467.179 426.666 C 464.055 423.795, 458.575 419.688, 455 417.538 C 451.425 415.389, 447.097 412.580, 445.382 411.297 C 443.667 410.013, 437.858 407.198, 432.475 405.040 C 427.091 402.882, 420.289 399.465, 417.358 397.447 C 414.427 395.428, 407.217 392.030, 401.336 389.895 C 395.454 387.760, 386.742 384.049, 381.976 381.649 C 373.467 377.364, 371.360 376.808, 351 373.476 C 345.775 372.621, 334.917 369.700, 326.871 366.985 C 313.493 362.471, 310.808 361.917, 295.488 360.514 C 275.778 358.708, 263.213 356.257, 252.368 352.101 C 248.040 350.443, 240.046 347.938, 234.602 346.533 C 219.725 342.696, 217.304 340.763, 204.190 322.268 C 192.721 306.093, 191.580 305.822, 181.004 316.763 M 1096.552 358.836 C 1096.232 359.846, 1095.089 372.333, 1094.013 386.586 C 1091.073 425.513, 1089.176 429.301, 1067.748 439.028 C 1055.017 444.807, 1037.738 434.344, 1030.979 416.764 C 1025.013 401.248, 1023.520 402.091, 1017.989 424.097 C 1015.996 432.028, 1013.503 439.024, 1011.074 443.500 C 1006.486 451.957, 1005.616 455.612, 1002.981 477.500 C 1000.735 496.170, 999.976 499.701, 996.358 508.321 C 995.015 511.522, 992.843 519.397, 991.532 525.821 C 987.268 546.723, 984.480 550.125, 971.613 550.125 C 962.848 550.125, 948.238 538.715, 942.002 527 C 941.271 525.625, 938.120 521.800, 935.001 518.500 C 931.882 515.200, 927.711 509.800, 925.732 506.500 C 923.753 503.200, 920.129 498.160, 917.680 495.300 C 915.230 492.441, 912.196 488.391, 910.938 486.300 C 909.679 484.210, 906.591 480.191, 904.075 477.370 C 901.559 474.548, 895.675 467.843, 891 462.469 C 869.583 437.851, 861.717 432, 850.034 432 C 831.775 432, 825.864 448.608, 834.433 475.832 C 836.395 482.064, 838 487.934, 838 488.877 C 838 489.819, 839.118 494.892, 840.484 500.149 C 841.851 505.407, 843.675 514.836, 844.538 521.104 C 845.849 530.622, 846.859 534.116, 850.668 542.309 C 854.640 550.850, 855.601 554.317, 858.111 569.148 C 860.273 581.926, 861.961 588.591, 864.872 595.839 C 872.949 615.947, 873.445 637.927, 866.140 652 C 856.891 669.817, 853.294 675.943, 849.874 679.700 C 834.025 697.112, 833.985 703.558, 849.715 705.120 C 864.340 706.573, 1090.914 704.637, 1094.215 703.032 C 1099.579 700.422, 1099.478 692.549, 1093.970 683.957 C 1085.914 671.391, 1086.111 640.471, 1094.431 611.500 C 1097.842 599.620, 1098.611 593.952, 1102.025 555.500 C 1104.900 523.124, 1105.584 518.448, 1111.143 493.126 C 1117.164 465.700, 1116.500 452.003, 1108.348 435.496 C 1102.618 423.890, 1102.618 423.890, 1101.912 393.195 C 1101.245 364.162, 1100.489 357, 1098.092 357 C 1097.566 357, 1096.873 357.826, 1096.552 358.836 M 361.232 609.160 C 357.990 610.821, 355.389 615.589, 353.993 622.432 C 351.230 635.977, 343.641 653.970, 336.588 663.698 C 335.312 665.457, 332.995 669.957, 331.438 673.698 C 329.881 677.439, 326.395 683.716, 323.692 687.646 C 317.943 696.006, 316.571 702.170, 319.473 706.599 C 321.338 709.446, 322.972 709.499, 334 707.076 C 336.597 706.505, 358.494 706.069, 385.782 706.044 C 446.372 705.988, 440.930 708.242, 446.013 681.094 C 449.796 660.887, 449.759 658.251, 445.479 642.636 C 441.173 626.925, 441.302 627.171, 432.690 618.267 C 424.408 609.703, 425.977 610.115, 399.500 609.567 C 388.500 609.339, 375.900 608.893, 371.500 608.576 C 366.294 608.200, 362.708 608.404, 361.232 609.160" stroke="none" fill="#f1f1f1" fill-rule="evenodd"/></svg>