<svg xmlns="http://www.w3.org/2000/svg" width="1272" height="803" viewBox="0 0 1272 803" version="1.1"><path d="M 1038.275 100.971 C 1025.683 103.963, 1026.578 95.838, 1026 212.500 C 1025.366 340.577, 1028.153 332.664, 995.500 299.102 C 980.518 283.703, 969.430 279.055, 963.913 285.861 C 959.302 291.551, 962.860 296.984, 985.896 319.424 C 1009.357 342.279, 1010.435 344.269, 1004.130 353.087 C 997.130 362.879, 990.784 376.800, 990.266 383.499 C 989.416 394.483, 999.431 413.924, 1010.500 422.776 C 1020.756 430.979, 1020.159 432.158, 991.120 461 C 963.604 488.329, 958.698 495.789, 964.455 501.545 C 970.342 507.432, 977.675 503.391, 998.981 482.518 C 1027.781 454.305, 1025.365 445.990, 1026 575.500 C 1026.527 682.949, 1026.349 679.231, 1031.158 683.654 C 1036.210 688.301, 1095.746 690.486, 1105.961 686.399 C 1115.437 682.607, 1114.500 714.703, 1114.500 394 C 1114.500 74.856, 1115.337 105.760, 1106.583 101.606 C 1102.913 99.865, 1045.191 99.328, 1038.275 100.971 M 128 102.372 C 119.124 104.314, 108.251 114.668, 104.310 124.930 C 102.108 130.665, 100.835 657.850, 103 667.762 C 105.605 679.694, 113.440 682.699, 118.293 673.627 C 120.500 669.500, 120.500 669.500, 120.686 407.500 C 120.789 263.400, 121.168 143.494, 121.529 141.043 C 124.027 124.066, 139.272 116.440, 159.421 122.089 C 164.910 123.628, 168.206 127.359, 171.346 135.587 C 174.185 143.026, 177.181 146.610, 183 149.525 C 184.925 150.490, 186.831 151.779, 187.235 152.390 C 187.639 153, 187.976 226.895, 187.985 316.601 C 187.996 433.355, 188.315 480.605, 189.108 482.881 C 191.121 488.655, 197.940 490.553, 203.810 486.974 C 210.404 482.954, 210 493.613, 210 323.714 C 210 145.696, 211.002 162.765, 199.914 151.916 C 196.111 148.195, 192.998 144.780, 192.996 144.326 C 192.832 110.721, 166.754 93.889, 128 102.372 M 540.810 101.989 C 531.615 103.135, 524.333 105.395, 519 108.756 C 516.525 110.316, 511.508 113.256, 507.851 115.289 C 504.194 117.322, 498.794 120.936, 495.851 123.321 C 492.908 125.706, 487.961 129.273, 484.857 131.248 C 479.089 134.918, 470.533 144.505, 463.810 154.832 C 461.781 157.949, 457.638 164.325, 454.605 169 C 450.519 175.296, 448.450 179.833, 446.622 186.500 C 445.265 191.450, 442.712 199.550, 440.949 204.500 C 434.919 221.424, 435.710 242.295, 443.374 268.500 C 448.854 287.237, 449.993 289.949, 455.058 296.311 C 457.305 299.132, 460.646 304.693, 462.482 308.668 C 467.467 319.458, 483.834 334.910, 497.606 341.831 C 499.865 342.965, 504.099 345.931, 507.015 348.420 C 510.216 351.153, 515.128 354.007, 519.409 355.623 C 523.309 357.095, 529.552 359.820, 533.283 361.679 C 552.618 371.312, 592.988 371.469, 613.571 361.992 C 617.382 360.237, 624.564 357.511, 629.532 355.933 C 636.168 353.827, 640.469 351.664, 645.743 347.783 C 657.620 339.042, 669.823 331.806, 678.397 328.418 C 691.478 323.248, 692.341 322.065, 691.474 310.497 C 690.758 300.939, 690.758 300.939, 694.257 295.668 C 696.182 292.769, 698.679 288.589, 699.807 286.379 C 700.934 284.169, 703.635 280.111, 705.810 277.360 C 713.251 267.946, 713.049 269.001, 713.283 238.230 C 713.515 207.582, 713.504 207.507, 706.978 196.339 C 704.247 191.665, 702.386 186.519, 700.509 178.446 C 697.443 165.262, 693.239 157.779, 684.283 149.563 C 681.247 146.778, 676.004 141.746, 672.632 138.379 C 669.259 135.013, 664.700 131.207, 662.500 129.922 C 660.300 128.637, 655.873 125.416, 652.662 122.763 C 649.451 120.110, 644.094 116.562, 640.757 114.878 C 637.421 113.193, 632.398 110.300, 629.595 108.448 C 619.964 102.083, 569.505 98.413, 540.810 101.989 M 1056.014 118.969 C 1050.798 120.278, 1047.286 124.800, 1046.536 131.175 C 1045.136 143.071, 1046.424 659.352, 1047.860 662.140 C 1054.192 674.427, 1092.890 669.184, 1094.465 655.825 C 1095.984 642.939, 1094.563 128.622, 1093 125.590 C 1089.580 118.954, 1070.023 115.453, 1056.014 118.969 M 554 120.484 C 537.782 122.106, 535.378 122.850, 525.647 129.270 C 521.166 132.226, 516.241 135.424, 514.702 136.376 C 508.177 140.417, 506.030 148.663, 510.706 151.727 C 514.878 154.461, 635.121 154.461, 639.294 151.727 C 645.203 147.856, 642.059 141.116, 631.313 134.619 C 627.016 132.021, 621.387 128.394, 618.805 126.560 C 609.703 120.094, 582.975 117.588, 554 120.484 M 486.217 176.095 C 469.967 178.857, 461.310 194.341, 472.277 201.027 C 478.052 204.549, 671.633 204.022, 675.850 200.473 C 683.768 193.810, 679.320 181.220, 667.656 177.280 C 661.847 175.318, 497.115 174.242, 486.217 176.095 M 471.604 228.029 C 460.339 231.437, 458.137 245.758, 468 251.472 C 473.045 254.395, 675.320 254.694, 680.631 251.786 C 691.422 245.878, 691.931 235.215, 681.684 229.737 C 677.247 227.365, 479.123 225.754, 471.604 228.029 M 478.465 275.952 C 470.343 279.244, 478.437 297.631, 490.649 303.627 C 497.715 307.096, 642.280 308.805, 653.473 305.551 C 669.741 300.822, 680.577 281.064, 669.452 276.415 C 665.613 274.811, 482.376 274.366, 478.465 275.952 M 540 328.926 C 523.686 330.196, 522.231 333.294, 535.500 338.508 C 539.900 340.237, 545.375 342.620, 547.667 343.804 C 560.521 350.443, 587.183 349.120, 607.216 340.850 C 619.632 335.723, 621.703 332.650, 614.423 330.156 C 609.856 328.592, 555.786 327.698, 540 328.926 M 542.500 546.616 C 516.329 547.635, 483.779 550.358, 476.641 552.125 C 472.319 553.195, 458.616 555.184, 446.192 556.545 C 424.544 558.916, 422.931 559.245, 407.547 564.439 C 397.226 567.924, 388.281 570.266, 382.497 570.996 C 369.919 572.585, 363.529 574.528, 355.943 579.070 C 352.336 581.230, 345.554 584.292, 340.871 585.875 C 336.188 587.458, 329.014 590.551, 324.928 592.749 C 320.843 594.947, 314.882 597.799, 311.682 599.085 C 292.660 606.733, 288.156 623.978, 303.191 631.597 C 306.086 633.064, 310.489 635.954, 312.977 638.020 C 318.762 642.823, 321.778 644.295, 331 646.812 C 335.125 647.939, 341.650 650.682, 345.500 652.909 C 350.296 655.683, 356.144 657.883, 364.072 659.896 C 370.436 661.512, 380.017 664.472, 385.363 666.474 C 390.709 668.476, 398.551 670.800, 402.791 671.637 C 407.031 672.475, 416.423 674.474, 423.662 676.080 C 430.902 677.686, 437.877 679.004, 439.162 679.008 C 440.448 679.012, 446.900 680.154, 453.500 681.544 C 500.939 691.539, 691.286 689.662, 722 678.897 C 727.105 677.108, 736.092 675.131, 744.500 673.949 C 764.666 671.113, 768.570 670.209, 777.500 666.307 C 781.900 664.385, 790.616 661.749, 796.869 660.449 C 804.951 658.770, 811.311 656.649, 818.869 653.114 C 824.716 650.379, 832.650 647.223, 836.500 646.100 C 840.350 644.978, 845.975 642.507, 849 640.609 C 852.025 638.711, 857.951 635.034, 862.169 632.437 C 879.344 621.862, 875.053 610.035, 849.127 596.484 C 836.956 590.123, 832.324 588.230, 818.582 583.996 C 814.777 582.824, 809.710 580.520, 807.321 578.877 C 800.703 574.323, 797.026 573.116, 783.611 571.093 C 774.195 569.674, 769.312 568.350, 763.036 565.516 C 752.168 560.609, 740.710 558.394, 716.500 556.518 C 701.826 555.381, 693.304 554.180, 684.500 552.009 C 667.125 547.724, 589.621 544.780, 542.500 546.616 M 564.500 568.032 C 559.550 568.422, 547.625 569.256, 538 569.886 C 517.150 571.251, 473.941 574.771, 469 575.506 C 467.075 575.793, 457.546 576.686, 447.824 577.490 C 435.494 578.510, 428.689 579.537, 425.324 580.887 C 422.671 581.952, 417.800 583.943, 414.500 585.313 C 411.200 586.682, 403.775 588.541, 398 589.443 C 392.225 590.345, 384.406 591.565, 380.625 592.153 C 376.174 592.846, 371.236 594.553, 366.625 596.994 C 362.706 599.069, 354.928 602.175, 349.340 603.898 C 329.833 609.912, 325.767 620.361, 340.341 627.023 C 343.729 628.572, 348.750 631.459, 351.500 633.441 C 357.272 637.600, 361.999 639.174, 377.397 642.063 C 383.743 643.255, 392.784 645.870, 398.500 648.169 C 406.942 651.564, 410.914 652.493, 424 654.135 C 441.883 656.378, 457.596 658.955, 475.015 662.503 C 516.107 670.872, 658.990 669.377, 706.171 660.084 C 720.102 657.340, 736.724 654.431, 743.108 653.619 C 753.997 652.235, 757.718 651.207, 775.570 644.652 C 779.459 643.224, 787.254 641.363, 792.893 640.516 C 803.342 638.947, 807.410 637.463, 812.186 633.477 C 813.664 632.245, 818.320 629.533, 822.534 627.451 C 837.562 620.025, 833.681 610.648, 812.335 602.812 C 789.481 594.421, 784.455 592.911, 771.329 590.486 C 753.982 587.283, 753.864 587.252, 745.100 583.809 C 734.284 579.559, 727.570 578.267, 707.500 576.572 C 697.600 575.736, 684.775 574.373, 679 573.544 C 673.225 572.715, 665.131 572.028, 661.014 572.018 C 656.896 572.008, 646.096 571.351, 637.014 570.558 C 618.511 568.942, 582.360 566.891, 577 567.153 C 575.075 567.247, 569.450 567.642, 564.500 568.032" stroke="none" fill="#6c6c6c" fill-rule="evenodd"/><path d="M 38.500 29.501 C 33.628 31.227, 30.412 34.755, 29.029 39.893 C 26.707 48.515, 28.188 762.968, 30.535 766.965 C 31.655 768.870, 34.130 771.345, 36.035 772.465 C 41.519 775.686, 1230.481 775.686, 1235.965 772.465 C 1244.372 767.526, 1243.500 810.450, 1243.500 401.500 C 1243.500 -7.450, 1244.372 35.474, 1235.965 30.535 C 1231.398 27.853, 46.044 26.829, 38.500 29.501 M 1038.275 100.971 C 1025.683 103.963, 1026.578 95.838, 1026 212.500 C 1025.366 340.577, 1028.153 332.664, 995.500 299.102 C 980.518 283.703, 969.430 279.055, 963.913 285.861 C 959.302 291.551, 962.860 296.984, 985.896 319.424 C 1009.357 342.279, 1010.435 344.269, 1004.130 353.087 C 997.130 362.879, 990.784 376.800, 990.266 383.499 C 989.416 394.483, 999.431 413.924, 1010.500 422.776 C 1020.756 430.979, 1020.159 432.158, 991.120 461 C 963.604 488.329, 958.698 495.789, 964.455 501.545 C 970.342 507.432, 977.675 503.391, 998.981 482.518 C 1027.781 454.305, 1025.365 445.990, 1026 575.500 C 1026.527 682.949, 1026.349 679.231, 1031.158 683.654 C 1036.210 688.301, 1095.746 690.486, 1105.961 686.399 C 1115.437 682.607, 1114.500 714.703, 1114.500 394 C 1114.500 74.856, 1115.337 105.760, 1106.583 101.606 C 1102.913 99.865, 1045.191 99.328, 1038.275 100.971 M 128 102.372 C 119.124 104.314, 108.251 114.668, 104.310 124.930 C 102.108 130.665, 100.835 657.850, 103 667.762 C 105.605 679.694, 113.440 682.699, 118.293 673.627 C 120.500 669.500, 120.500 669.500, 120.686 407.500 C 120.789 263.400, 121.168 143.494, 121.529 141.043 C 124.027 124.066, 139.272 116.440, 159.421 122.089 C 164.910 123.628, 168.206 127.359, 171.346 135.587 C 174.185 143.026, 177.181 146.610, 183 149.525 C 184.925 150.490, 186.831 151.779, 187.235 152.390 C 187.639 153, 187.976 226.895, 187.985 316.601 C 187.996 433.355, 188.315 480.605, 189.108 482.881 C 191.121 488.655, 197.940 490.553, 203.810 486.974 C 210.404 482.954, 210 493.613, 210 323.714 C 210 145.696, 211.002 162.765, 199.914 151.916 C 196.111 148.195, 192.998 144.780, 192.996 144.326 C 192.832 110.721, 166.754 93.889, 128 102.372 M 540.810 101.989 C 531.615 103.135, 524.333 105.395, 519 108.756 C 516.525 110.316, 511.508 113.256, 507.851 115.289 C 504.194 117.322, 498.794 120.936, 495.851 123.321 C 492.908 125.706, 487.961 129.273, 484.857 131.248 C 479.089 134.918, 470.533 144.505, 463.810 154.832 C 461.781 157.949, 457.638 164.325, 454.605 169 C 450.519 175.296, 448.450 179.833, 446.622 186.500 C 445.265 191.450, 442.712 199.550, 440.949 204.500 C 434.919 221.424, 435.710 242.295, 443.374 268.500 C 448.854 287.237, 449.993 289.949, 455.058 296.311 C 457.305 299.132, 460.646 304.693, 462.482 308.668 C 467.467 319.458, 483.834 334.910, 497.606 341.831 C 499.865 342.965, 504.099 345.931, 507.015 348.420 C 510.216 351.153, 515.128 354.007, 519.409 355.623 C 523.309 357.095, 529.552 359.820, 533.283 361.679 C 552.618 371.312, 592.988 371.469, 613.571 361.992 C 617.382 360.237, 624.564 357.511, 629.532 355.933 C 636.168 353.827, 640.469 351.664, 645.743 347.783 C 657.620 339.042, 669.823 331.806, 678.397 328.418 C 691.478 323.248, 692.341 322.065, 691.474 310.497 C 690.758 300.939, 690.758 300.939, 694.257 295.668 C 696.182 292.769, 698.679 288.589, 699.807 286.379 C 700.934 284.169, 703.635 280.111, 705.810 277.360 C 713.251 267.946, 713.049 269.001, 713.283 238.230 C 713.515 207.582, 713.504 207.507, 706.978 196.339 C 704.247 191.665, 702.386 186.519, 700.509 178.446 C 697.443 165.262, 693.239 157.779, 684.283 149.563 C 681.247 146.778, 676.004 141.746, 672.632 138.379 C 669.259 135.013, 664.700 131.207, 662.500 129.922 C 660.300 128.637, 655.873 125.416, 652.662 122.763 C 649.451 120.110, 644.094 116.562, 640.757 114.878 C 637.421 113.193, 632.398 110.300, 629.595 108.448 C 619.964 102.083, 569.505 98.413, 540.810 101.989 M 1056.014 118.969 C 1050.798 120.278, 1047.286 124.800, 1046.536 131.175 C 1045.136 143.071, 1046.424 659.352, 1047.860 662.140 C 1054.192 674.427, 1092.890 669.184, 1094.465 655.825 C 1095.984 642.939, 1094.563 128.622, 1093 125.590 C 1089.580 118.954, 1070.023 115.453, 1056.014 118.969 M 554 120.484 C 537.782 122.106, 535.378 122.850, 525.647 129.270 C 521.166 132.226, 516.241 135.424, 514.702 136.376 C 508.177 140.417, 506.030 148.663, 510.706 151.727 C 514.878 154.461, 635.121 154.461, 639.294 151.727 C 645.203 147.856, 642.059 141.116, 631.313 134.619 C 627.016 132.021, 621.387 128.394, 618.805 126.560 C 609.703 120.094, 582.975 117.588, 554 120.484 M 486.217 176.095 C 469.967 178.857, 461.310 194.341, 472.277 201.027 C 478.052 204.549, 671.633 204.022, 675.850 200.473 C 683.768 193.810, 679.320 181.220, 667.656 177.280 C 661.847 175.318, 497.115 174.242, 486.217 176.095 M 471.604 228.029 C 460.339 231.437, 458.137 245.758, 468 251.472 C 473.045 254.395, 675.320 254.694, 680.631 251.786 C 691.422 245.878, 691.931 235.215, 681.684 229.737 C 677.247 227.365, 479.123 225.754, 471.604 228.029 M 478.465 275.952 C 470.343 279.244, 478.437 297.631, 490.649 303.627 C 497.715 307.096, 642.280 308.805, 653.473 305.551 C 669.741 300.822, 680.577 281.064, 669.452 276.415 C 665.613 274.811, 482.376 274.366, 478.465 275.952 M 540 328.926 C 523.686 330.196, 522.231 333.294, 535.500 338.508 C 539.900 340.237, 545.375 342.620, 547.667 343.804 C 560.521 350.443, 587.183 349.120, 607.216 340.850 C 619.632 335.723, 621.703 332.650, 614.423 330.156 C 609.856 328.592, 555.786 327.698, 540 328.926 M 542.500 546.616 C 516.329 547.635, 483.779 550.358, 476.641 552.125 C 472.319 553.195, 458.616 555.184, 446.192 556.545 C 424.544 558.916, 422.931 559.245, 407.547 564.439 C 397.226 567.924, 388.281 570.266, 382.497 570.996 C 369.919 572.585, 363.529 574.528, 355.943 579.070 C 352.336 581.230, 345.554 584.292, 340.871 585.875 C 336.188 587.458, 329.014 590.551, 324.928 592.749 C 320.843 594.947, 314.882 597.799, 311.682 599.085 C 292.660 606.733, 288.156 623.978, 303.191 631.597 C 306.086 633.064, 310.489 635.954, 312.977 638.020 C 318.762 642.823, 321.778 644.295, 331 646.812 C 335.125 647.939, 341.650 650.682, 345.500 652.909 C 350.296 655.683, 356.144 657.883, 364.072 659.896 C 370.436 661.512, 380.017 664.472, 385.363 666.474 C 390.709 668.476, 398.551 670.800, 402.791 671.637 C 407.031 672.475, 416.423 674.474, 423.662 676.080 C 430.902 677.686, 437.877 679.004, 439.162 679.008 C 440.448 679.012, 446.900 680.154, 453.500 681.544 C 500.939 691.539, 691.286 689.662, 722 678.897 C 727.105 677.108, 736.092 675.131, 744.500 673.949 C 764.666 671.113, 768.570 670.209, 777.500 666.307 C 781.900 664.385, 790.616 661.749, 796.869 660.449 C 804.951 658.770, 811.311 656.649, 818.869 653.114 C 824.716 650.379, 832.650 647.223, 836.500 646.100 C 840.350 644.978, 845.975 642.507, 849 640.609 C 852.025 638.711, 857.951 635.034, 862.169 632.437 C 879.344 621.862, 875.053 610.035, 849.127 596.484 C 836.956 590.123, 832.324 588.230, 818.582 583.996 C 814.777 582.824, 809.710 580.520, 807.321 578.877 C 800.703 574.323, 797.026 573.116, 783.611 571.093 C 774.195 569.674, 769.312 568.350, 763.036 565.516 C 752.168 560.609, 740.710 558.394, 716.500 556.518 C 701.826 555.381, 693.304 554.180, 684.500 552.009 C 667.125 547.724, 589.621 544.780, 542.500 546.616 M 564.500 568.032 C 559.550 568.422, 547.625 569.256, 538 569.886 C 517.150 571.251, 473.941 574.771, 469 575.506 C 467.075 575.793, 457.546 576.686, 447.824 577.490 C 435.494 578.510, 428.689 579.537, 425.324 580.887 C 422.671 581.952, 417.800 583.943, 414.500 585.313 C 411.200 586.682, 403.775 588.541, 398 589.443 C 392.225 590.345, 384.406 591.565, 380.625 592.153 C 376.174 592.846, 371.236 594.553, 366.625 596.994 C 362.706 599.069, 354.928 602.175, 349.340 603.898 C 329.833 609.912, 325.767 620.361, 340.341 627.023 C 343.729 628.572, 348.750 631.459, 351.500 633.441 C 357.272 637.600, 361.999 639.174, 377.397 642.063 C 383.743 643.255, 392.784 645.870, 398.500 648.169 C 406.942 651.564, 410.914 652.493, 424 654.135 C 441.883 656.378, 457.596 658.955, 475.015 662.503 C 516.107 670.872, 658.990 669.377, 706.171 660.084 C 720.102 657.340, 736.724 654.431, 743.108 653.619 C 753.997 652.235, 757.718 651.207, 775.570 644.652 C 779.459 643.224, 787.254 641.363, 792.893 640.516 C 803.342 638.947, 807.410 637.463, 812.186 633.477 C 813.664 632.245, 818.320 629.533, 822.534 627.451 C 837.562 620.025, 833.681 610.648, 812.335 602.812 C 789.481 594.421, 784.455 592.911, 771.329 590.486 C 753.982 587.283, 753.864 587.252, 745.100 583.809 C 734.284 579.559, 727.570 578.267, 707.500 576.572 C 697.600 575.736, 684.775 574.373, 679 573.544 C 673.225 572.715, 665.131 572.028, 661.014 572.018 C 656.896 572.008, 646.096 571.351, 637.014 570.558 C 618.511 568.942, 582.360 566.891, 577 567.153 C 575.075 567.247, 569.450 567.642, 564.500 568.032" stroke="none" fill="#f3f3f3" fill-rule="evenodd"/></svg>