<svg xmlns="http://www.w3.org/2000/svg" width="1272" height="1132" viewBox="0 0 1272 1132" version="1.1"><path d="M 1035.031 154.104 C 1020.991 155.646, 1016.339 159.064, 1013.823 169.685 C 1013.010 173.120, 1012.513 217.922, 1012.091 326 C 1011.546 465.645, 1011.367 477.793, 1009.801 481.250 C 1007.516 486.294, 1004.611 486.234, 999.536 481.036 C 997.407 478.857, 992.434 475.477, 988.486 473.525 C 982.387 470.512, 980.917 469.264, 978.723 465.239 C 975.706 459.702, 972.258 456.327, 965.950 452.738 C 962.805 450.949, 960.587 448.659, 958.770 445.325 C 955.342 439.034, 951.650 435.612, 945.500 433.027 C 942.383 431.717, 938.579 428.869, 935.398 425.463 C 925.570 414.939, 918.467 418.680, 918.547 434.336 C 918.605 445.603, 919.821 448.206, 927.943 454.456 C 931.220 456.977, 935.715 461.619, 937.932 464.770 C 940.150 467.922, 944.289 472.075, 947.132 474 C 949.974 475.925, 954.712 480.519, 957.660 484.208 C 960.607 487.898, 964.927 492.238, 967.259 493.852 C 983.134 504.840, 989.609 525.127, 979.767 533.040 C 974.117 537.583, 963.006 551.259, 959.463 558.030 C 954.046 568.387, 956.763 587.007, 964.870 595.069 C 968.942 599.120, 971.140 602.362, 972.813 606.786 C 975.376 613.566, 979.411 617.773, 986.585 621.145 C 1000.457 627.666, 999.133 648.871, 984.311 657.558 C 981.427 659.248, 978.993 661.890, 976.742 665.774 C 974.190 670.177, 971.838 672.552, 966.564 676.052 C 961.735 679.257, 958.913 681.988, 957.027 685.280 C 953.358 691.687, 951.566 693.489, 945.415 696.961 C 941.596 699.117, 939.349 701.290, 937.389 704.727 C 933.760 711.091, 931.225 713.823, 926.876 716.053 C 917.930 720.642, 915.688 728.491, 920.419 738.654 C 923.718 745.738, 927.252 746.447, 933.239 741.226 C 934.196 740.392, 938.696 737.862, 943.239 735.605 C 950.658 731.918, 951.905 730.874, 955.470 725.360 C 958.321 720.950, 961.068 718.202, 965.213 715.611 C 968.388 713.626, 972.313 710.089, 973.935 707.751 C 979.781 699.326, 981.464 697.685, 986.581 695.422 C 990.045 693.890, 993.377 691.272, 996.572 687.571 C 1002.085 681.185, 1004.147 680.211, 1007.499 682.408 C 1012.016 685.367, 1011.989 684.411, 1011.992 839 C 1011.997 1012.183, 1011.706 1007.673, 1023.228 1013.318 C 1035.654 1019.405, 1119.592 1018.087, 1129.209 1011.654 C 1138.540 1005.413, 1138.002 1031.573, 1137.984 584.789 C 1137.966 142.925, 1138.329 163.538, 1130.462 158.383 C 1123.680 153.939, 1061.794 151.164, 1035.031 154.104 M 338 154.691 C 321.326 155.957, 314.916 158.256, 304.243 166.799 C 300.801 169.554, 295.885 172.639, 293.318 173.654 C 282.139 178.075, 278.539 180.443, 274.820 185.820 C 272.796 188.746, 268.746 192.809, 265.820 194.849 C 260.485 198.568, 259.602 199.871, 254.203 212 C 252.611 215.575, 248.803 221.982, 245.739 226.237 C 236.751 238.723, 234.796 247.920, 234.989 276.830 C 235.654 376.438, 233.383 565.922, 231.500 568.034 C 227.230 572.821, 225.562 573, 185.138 573 C 122.070 573, 117.456 574.151, 114.999 590.500 C 112.371 607.993, 114.250 994.800, 117 1002.483 C 122.308 1017.309, 114.629 1016.500, 250 1016.500 C 389.507 1016.500, 376.339 1019.406, 379.046 988.019 C 380.651 969.409, 379.875 589.807, 378.222 584.943 C 374.580 574.228, 372.763 573.865, 318.500 573.010 C 269.905 572.243, 267.201 571.972, 262.926 567.421 C 260.500 564.840, 260.500 564.840, 259.997 434.170 C 259.525 311.553, 259.379 302.974, 257.632 294.961 C 255.771 286.423, 255.771 286.423, 258.456 270.461 C 262.026 249.247, 262.465 247.969, 268.625 240.855 C 272.105 236.837, 274.850 232.319, 276.612 227.707 C 280.307 218.036, 298.470 199.333, 306.877 196.541 C 310.493 195.340, 314.095 192.981, 318.326 189.043 C 326.443 181.489, 327.287 181.115, 338.729 180.002 C 366.484 177.302, 380.202 179.090, 391.500 186.880 C 395.804 189.848, 401.774 192.783, 407 194.503 C 425.980 200.745, 426.638 201.304, 435.286 218.500 C 439.330 226.539, 442.155 230.750, 445.784 234.144 C 451.427 239.422, 452.269 241.921, 453.995 258.500 C 455.837 276.193, 459.645 282.824, 470.124 286.592 C 477.562 289.265, 477.140 277.518, 476.801 472.500 C 476.443 678.380, 478.545 659.937, 455.174 662.232 C 444.519 663.278, 443.206 663.809, 430.964 672.031 C 422.124 677.968, 419.996 680.738, 420.005 686.297 C 420.010 689.449, 420.523 690.457, 426.500 699.048 C 430.336 704.563, 430.652 712.535, 427.262 718.280 C 420.906 729.054, 420.046 744.286, 425.398 751.298 C 430.087 757.442, 430.648 758.655, 432.452 766.562 C 435.918 781.761, 442.714 790.878, 453.619 794.960 C 478.927 804.433, 526.129 800.320, 532.453 788.091 C 542.198 769.246, 542.953 753.418, 534.190 751.675 C 526.694 750.184, 520.748 754.024, 515.526 763.730 C 510.645 772.802, 505.433 775, 488.805 775 C 471.199 775, 461.938 772.238, 459.312 766.205 C 458.425 764.167, 455.700 758.187, 453.256 752.916 C 448.814 743.332, 448.814 743.332, 454.044 722.422 C 461.592 692.242, 457.878 694.784, 494.965 694.415 C 531.925 694.046, 532.094 694.107, 537.356 709.574 C 538.652 713.383, 540.902 718.848, 542.356 721.717 C 544.604 726.152, 545 728.219, 545 735.516 C 545 748.757, 548.786 753.108, 560.399 753.213 C 573.041 753.326, 577.876 738.683, 572.520 716.500 C 570.566 708.407, 570.648 705.337, 573 698.500 C 577.252 686.140, 575.291 679.233, 565.469 671.977 C 553.332 663.011, 553.445 643.196, 565.685 634.002 C 568.247 632.078, 571.794 628.234, 573.568 625.461 C 575.342 622.687, 578.673 618.861, 580.969 616.959 C 585.896 612.876, 592.276 606.711, 596.594 601.859 C 598.623 599.579, 601.895 597.579, 606.094 596.050 C 611.152 594.209, 613.763 592.416, 618.500 587.530 C 624.266 581.582, 624.850 581.253, 633.500 579.063 C 649.993 574.887, 651.999 574.017, 658.142 568.370 C 661.354 565.416, 664.415 563, 664.944 563 C 667.513 563, 671.059 565.604, 672.432 568.499 C 676.265 576.576, 676.318 578.901, 675.146 688.500 C 672.027 980.303, 672.127 990.782, 678.140 1003.575 C 685.477 1019.183, 709.991 1012.890, 716.694 993.678 C 718.761 987.751, 718.883 865.204, 716.960 725.500 C 714.473 544.822, 714.446 545.280, 727.678 537.813 C 733.998 534.246, 736.599 531.203, 738.101 525.619 C 739.633 519.928, 741.507 516.552, 745.729 511.878 C 752.404 504.489, 750.933 492.819, 741.679 479.759 C 739.240 476.317, 735.804 470.926, 734.043 467.779 C 731.892 463.935, 728.742 460.408, 724.441 457.028 C 713.417 448.364, 713.749 449.841, 712.699 404.941 C 711.550 355.846, 714.193 344.927, 728.801 338.425 C 743.817 331.740, 754.026 318, 758.463 298.500 C 761.194 286.500, 761.194 286.500, 768.636 279.476 C 775.607 272.897, 776.232 271.952, 778.517 264.546 C 779.859 260.197, 782.646 254.133, 784.712 251.069 C 790.497 242.488, 790.816 230.884, 785.544 220.820 C 783.530 216.975, 780.998 210.967, 779.917 207.468 C 777.332 199.097, 773.860 195.714, 764.889 192.825 C 759.672 191.145, 756.270 189.197, 751.823 185.347 C 747.686 181.764, 742.707 178.815, 735.860 175.891 C 726.020 171.689, 723.080 169.375, 717.699 161.593 C 709.583 149.856, 681.968 151.665, 671.946 164.591 C 668.146 169.492, 665.840 171.283, 658.432 175.087 C 653.519 177.610, 646.658 181.522, 643.184 183.780 C 639.710 186.038, 634.760 188.631, 632.184 189.542 C 618.721 194.304, 616.482 196.229, 612.864 206.153 C 611.375 210.236, 609.041 213.925, 605.824 217.281 C 595.983 227.545, 596.186 243.739, 606.296 254.985 C 608.692 257.649, 611.196 261.738, 611.909 264.148 C 614.086 271.513, 617.098 275.779, 623.090 279.982 C 629.699 284.618, 630.985 287.262, 633.531 301.444 C 635.488 312.342, 635.741 312.848, 643.382 321.135 C 646.747 324.784, 651.376 329.989, 653.669 332.702 C 656.091 335.568, 660.337 338.967, 663.802 340.814 C 677.814 348.282, 680.694 364.237, 678.154 420.304 C 676.768 450.899, 676.066 452.040, 657.454 453.987 C 641.946 455.608, 639.388 456.564, 632 463.502 C 627.096 468.106, 623.534 470.412, 617.500 472.886 C 603.054 478.811, 600.934 480.087, 597.431 484.964 C 594.112 489.583, 593.083 490.275, 581.822 495.462 C 577.305 497.542, 575.401 499.195, 572.514 503.544 C 570.235 506.979, 566.881 510.294, 563.496 512.459 C 557.961 516, 556.323 517.944, 552 526.108 C 550.574 528.802, 547.144 532.712, 544.014 535.213 C 539.495 538.825, 537.996 540.867, 535.514 546.795 C 530.979 557.623, 523.197 563.543, 509.339 566.706 C 503.264 568.092, 503.003 562.385, 502.978 427.526 C 502.957 312.696, 502.889 308.352, 501.054 304.310 C 498.460 298.596, 491.551 291.328, 485.431 287.874 C 480.359 285.012, 480.359 285.012, 479.148 263.756 C 477.314 231.548, 475.297 224.316, 466.291 217.641 C 462.376 214.739, 460.661 212.627, 459.391 209.140 C 455.391 198.156, 454.144 196.084, 449.860 193.295 C 447.500 191.758, 442.853 187.705, 439.534 184.289 C 434.704 179.318, 432.003 177.479, 426 175.075 C 420.058 172.695, 417.462 170.941, 413.500 166.627 C 404.267 156.575, 374.720 151.903, 338 154.691 M 1043.763 180.521 C 1042.257 181.362, 1040.344 183.367, 1039.513 184.976 C 1036.867 190.092, 1037.272 966.390, 1039.926 977.482 C 1043.275 991.482, 1047.425 992.959, 1079.589 991.600 C 1104.951 990.529, 1107.799 989.222, 1110.587 977.374 C 1112.819 967.887, 1112.668 190.193, 1110.434 185.872 C 1107.211 179.640, 1053.107 175.297, 1043.763 180.521 M 687.750 192.080 C 680.688 196.193, 681.654 212.289, 689.119 214.892 C 704.702 220.324, 715.405 208.963, 706.559 196.380 C 703.384 191.864, 692.424 189.358, 687.750 192.080 M 639.922 218.274 C 624.553 228.631, 629.277 255, 646.500 255 C 657.576 255, 662.308 246.230, 658.641 232.500 C 654.809 218.156, 647.895 212.901, 639.922 218.274 M 739.094 219.534 C 731.582 226.321, 726.373 242.662, 730.179 247.501 C 739.851 259.797, 752.896 258.036, 755.900 244.030 C 760.188 224.039, 750.208 209.493, 739.094 219.534 M 692 265.891 C 666.516 279.140, 661.840 283.595, 661.791 294.669 C 661.724 309.941, 673.215 317.500, 696.500 317.500 C 727.206 317.500, 742.291 294.419, 721.923 278.601 C 718.729 276.121, 714.393 271.484, 712.287 268.296 C 707.150 260.520, 703.226 260.055, 692 265.891 M 657.942 480.948 C 654.015 482.140, 651.074 483.846, 644 489.036 C 636.564 494.492, 632.924 496.282, 624.536 498.611 C 619.921 499.892, 617.320 501.444, 613.036 505.471 C 609.991 508.334, 605.295 512.167, 602.600 513.990 C 593.975 519.821, 584.656 528.540, 579 536.070 C 575.975 540.097, 570.254 546.807, 566.286 550.981 C 560.477 557.092, 558.572 559.925, 556.501 565.534 C 554.429 571.148, 552.788 573.586, 548.048 578.099 C 535.968 589.600, 533.924 613, 545 613 C 549.252 613, 550.674 611.692, 554.308 604.437 C 557.349 598.366, 558.437 597.379, 566.367 593.500 C 571.382 591.047, 573.200 589.434, 576.342 584.653 C 579.542 579.782, 581.129 578.397, 585.842 576.362 C 596.396 571.805, 599.489 569.970, 606 564.402 C 613.506 557.983, 617.647 555.662, 626.435 552.947 C 630.868 551.578, 634.744 549.362, 639.445 545.509 C 644.941 541.004, 647.694 539.562, 654.820 537.458 C 673.766 531.865, 675.009 530.351, 676.075 511.563 C 677.619 484.368, 672.904 476.408, 657.942 480.948 M 995.056 558.113 C 981.009 570.764, 982.428 583.806, 998.692 591.524 C 1011.136 597.429, 1018.516 566.096, 1007.869 552.561 C 1005.096 549.035, 1005.171 549.002, 995.056 558.113 M 148.016 600.024 C 143.464 601.094, 140.277 604.922, 139.517 610.231 C 137.959 621.110, 139.501 972.355, 141.129 977.546 C 145.823 992.513, 143.134 992.188, 259.012 991.788 C 351.820 991.468, 346.966 991.840, 350.280 984.794 C 353.919 977.057, 354 972.808, 354 789.284 C 354 589.612, 354.468 603.347, 347.568 600.464 C 343.630 598.819, 154.912 598.402, 148.016 600.024 M 225.015 635.959 C 218.842 638.089, 215.840 641.207, 214.038 647.359 C 213.371 649.636, 211.290 654.273, 209.413 657.662 C 205.286 665.115, 205.285 665.125, 208.879 672 C 210.460 675.025, 212.521 680.169, 213.457 683.430 C 216.728 694.817, 224.328 698.706, 241.545 697.802 C 253.070 697.197, 255.571 695.490, 264.500 682.134 C 265.600 680.488, 267.850 677.230, 269.500 674.894 C 275.340 666.624, 271.544 652.138, 260.582 640.867 C 253.718 633.809, 237.662 631.593, 225.015 635.959 M 225.431 793.898 C 215.582 796.386, 208 809.398, 208 823.814 C 208 827.060, 217.061 846.105, 220.347 849.768 C 227.584 857.833, 252.994 856.584, 259.029 847.867 C 260.311 846.015, 263.255 842.433, 265.573 839.907 C 276.126 828.403, 275.557 821.831, 262.440 803.765 C 255.563 794.293, 240.144 790.183, 225.431 793.898" stroke="none" fill="#555555" fill-rule="evenodd"/><path d="M 38.500 29.501 C 33.630 31.226, 30.412 34.755, 29.030 39.887 C 26.704 48.527, 28.191 1091.974, 30.535 1095.965 C 31.655 1097.870, 34.130 1100.345, 36.035 1101.465 C 41.519 1104.686, 1230.481 1104.686, 1235.965 1101.465 C 1237.870 1100.345, 1240.345 1097.870, 1241.465 1095.965 C 1244.686 1090.482, 1244.686 41.518, 1241.465 36.035 C 1240.345 34.130, 1237.870 31.655, 1235.965 30.535 C 1231.398 27.853, 46.044 26.829, 38.500 29.501 M 1035.031 154.104 C 1020.991 155.646, 1016.339 159.064, 1013.823 169.685 C 1013.010 173.120, 1012.513 217.922, 1012.091 326 C 1011.546 465.645, 1011.367 477.793, 1009.801 481.250 C 1007.516 486.294, 1004.611 486.234, 999.536 481.036 C 997.407 478.857, 992.434 475.477, 988.486 473.525 C 982.387 470.512, 980.917 469.264, 978.723 465.239 C 975.706 459.702, 972.258 456.327, 965.950 452.738 C 962.805 450.949, 960.587 448.659, 958.770 445.325 C 955.342 439.034, 951.650 435.612, 945.500 433.027 C 942.383 431.717, 938.579 428.869, 935.398 425.463 C 925.570 414.939, 918.467 418.680, 918.547 434.336 C 918.605 445.603, 919.821 448.206, 927.943 454.456 C 931.220 456.977, 935.715 461.619, 937.932 464.770 C 940.150 467.922, 944.289 472.075, 947.132 474 C 949.974 475.925, 954.712 480.519, 957.660 484.208 C 960.607 487.898, 964.927 492.238, 967.259 493.852 C 983.134 504.840, 989.609 525.127, 979.767 533.040 C 974.117 537.583, 963.006 551.259, 959.463 558.030 C 954.046 568.387, 956.763 587.007, 964.870 595.069 C 968.942 599.120, 971.140 602.362, 972.813 606.786 C 975.376 613.566, 979.411 617.773, 986.585 621.145 C 1000.457 627.666, 999.133 648.871, 984.311 657.558 C 981.427 659.248, 978.993 661.890, 976.742 665.774 C 974.190 670.177, 971.838 672.552, 966.564 676.052 C 961.735 679.257, 958.913 681.988, 957.027 685.280 C 953.358 691.687, 951.566 693.489, 945.415 696.961 C 941.596 699.117, 939.349 701.290, 937.389 704.727 C 933.760 711.091, 931.225 713.823, 926.876 716.053 C 917.930 720.642, 915.688 728.491, 920.419 738.654 C 923.718 745.738, 927.252 746.447, 933.239 741.226 C 934.196 740.392, 938.696 737.862, 943.239 735.605 C 950.658 731.918, 951.905 730.874, 955.470 725.360 C 958.321 720.950, 961.068 718.202, 965.213 715.611 C 968.388 713.626, 972.313 710.089, 973.935 707.751 C 979.781 699.326, 981.464 697.685, 986.581 695.422 C 990.045 693.890, 993.377 691.272, 996.572 687.571 C 1002.085 681.185, 1004.147 680.211, 1007.499 682.408 C 1012.016 685.367, 1011.989 684.411, 1011.992 839 C 1011.997 1012.183, 1011.706 1007.673, 1023.228 1013.318 C 1035.654 1019.405, 1119.592 1018.087, 1129.209 1011.654 C 1138.540 1005.413, 1138.002 1031.573, 1137.984 584.789 C 1137.966 142.925, 1138.329 163.538, 1130.462 158.383 C 1123.680 153.939, 1061.794 151.164, 1035.031 154.104 M 338 154.691 C 321.326 155.957, 314.916 158.256, 304.243 166.799 C 300.801 169.554, 295.885 172.639, 293.318 173.654 C 282.139 178.075, 278.539 180.443, 274.820 185.820 C 272.796 188.746, 268.746 192.809, 265.820 194.849 C 260.485 198.568, 259.602 199.871, 254.203 212 C 252.611 215.575, 248.803 221.982, 245.739 226.237 C 236.751 238.723, 234.796 247.920, 234.989 276.830 C 235.654 376.438, 233.383 565.922, 231.500 568.034 C 227.230 572.821, 225.562 573, 185.138 573 C 122.070 573, 117.456 574.151, 114.999 590.500 C 112.371 607.993, 114.250 994.800, 117 1002.483 C 122.308 1017.309, 114.629 1016.500, 250 1016.500 C 389.507 1016.500, 376.339 1019.406, 379.046 988.019 C 380.651 969.409, 379.875 589.807, 378.222 584.943 C 374.580 574.228, 372.763 573.865, 318.500 573.010 C 269.905 572.243, 267.201 571.972, 262.926 567.421 C 260.500 564.840, 260.500 564.840, 259.997 434.170 C 259.525 311.553, 259.379 302.974, 257.632 294.961 C 255.771 286.423, 255.771 286.423, 258.456 270.461 C 262.026 249.247, 262.465 247.969, 268.625 240.855 C 272.105 236.837, 274.850 232.319, 276.612 227.707 C 280.307 218.036, 298.470 199.333, 306.877 196.541 C 310.493 195.340, 314.095 192.981, 318.326 189.043 C 326.443 181.489, 327.287 181.115, 338.729 180.002 C 366.484 177.302, 380.202 179.090, 391.500 186.880 C 395.804 189.848, 401.774 192.783, 407 194.503 C 425.980 200.745, 426.638 201.304, 435.286 218.500 C 439.330 226.539, 442.155 230.750, 445.784 234.144 C 451.427 239.422, 452.269 241.921, 453.995 258.500 C 455.837 276.193, 459.645 282.824, 470.124 286.592 C 477.562 289.265, 477.140 277.518, 476.801 472.500 C 476.443 678.380, 478.545 659.937, 455.174 662.232 C 444.519 663.278, 443.206 663.809, 430.964 672.031 C 422.124 677.968, 419.996 680.738, 420.005 686.297 C 420.010 689.449, 420.523 690.457, 426.500 699.048 C 430.336 704.563, 430.652 712.535, 427.262 718.280 C 420.906 729.054, 420.046 744.286, 425.398 751.298 C 430.087 757.442, 430.648 758.655, 432.452 766.562 C 435.918 781.761, 442.714 790.878, 453.619 794.960 C 478.927 804.433, 526.129 800.320, 532.453 788.091 C 542.198 769.246, 542.953 753.418, 534.190 751.675 C 526.694 750.184, 520.748 754.024, 515.526 763.730 C 510.645 772.802, 505.433 775, 488.805 775 C 471.199 775, 461.938 772.238, 459.312 766.205 C 458.425 764.167, 455.700 758.187, 453.256 752.916 C 448.814 743.332, 448.814 743.332, 454.044 722.422 C 461.592 692.242, 457.878 694.784, 494.965 694.415 C 531.925 694.046, 532.094 694.107, 537.356 709.574 C 538.652 713.383, 540.902 718.848, 542.356 721.717 C 544.604 726.152, 545 728.219, 545 735.516 C 545 748.757, 548.786 753.108, 560.399 753.213 C 573.041 753.326, 577.876 738.683, 572.520 716.500 C 570.566 708.407, 570.648 705.337, 573 698.500 C 577.252 686.140, 575.291 679.233, 565.469 671.977 C 553.332 663.011, 553.445 643.196, 565.685 634.002 C 568.247 632.078, 571.794 628.234, 573.568 625.461 C 575.342 622.687, 578.673 618.861, 580.969 616.959 C 585.896 612.876, 592.276 606.711, 596.594 601.859 C 598.623 599.579, 601.895 597.579, 606.094 596.050 C 611.152 594.209, 613.763 592.416, 618.500 587.530 C 624.266 581.582, 624.850 581.253, 633.500 579.063 C 649.993 574.887, 651.999 574.017, 658.142 568.370 C 661.354 565.416, 664.415 563, 664.944 563 C 667.513 563, 671.059 565.604, 672.432 568.499 C 676.265 576.576, 676.318 578.901, 675.146 688.500 C 672.027 980.303, 672.127 990.782, 678.140 1003.575 C 685.477 1019.183, 709.991 1012.890, 716.694 993.678 C 718.761 987.751, 718.883 865.204, 716.960 725.500 C 714.473 544.822, 714.446 545.280, 727.678 537.813 C 733.998 534.246, 736.599 531.203, 738.101 525.619 C 739.633 519.928, 741.507 516.552, 745.729 511.878 C 752.404 504.489, 750.933 492.819, 741.679 479.759 C 739.240 476.317, 735.804 470.926, 734.043 467.779 C 731.892 463.935, 728.742 460.408, 724.441 457.028 C 713.417 448.364, 713.749 449.841, 712.699 404.941 C 711.550 355.846, 714.193 344.927, 728.801 338.425 C 743.817 331.740, 754.026 318, 758.463 298.500 C 761.194 286.500, 761.194 286.500, 768.636 279.476 C 775.607 272.897, 776.232 271.952, 778.517 264.546 C 779.859 260.197, 782.646 254.133, 784.712 251.069 C 790.497 242.488, 790.816 230.884, 785.544 220.820 C 783.530 216.975, 780.998 210.967, 779.917 207.468 C 777.332 199.097, 773.860 195.714, 764.889 192.825 C 759.672 191.145, 756.270 189.197, 751.823 185.347 C 747.686 181.764, 742.707 178.815, 735.860 175.891 C 726.020 171.689, 723.080 169.375, 717.699 161.593 C 709.583 149.856, 681.968 151.665, 671.946 164.591 C 668.146 169.492, 665.840 171.283, 658.432 175.087 C 653.519 177.610, 646.658 181.522, 643.184 183.780 C 639.710 186.038, 634.760 188.631, 632.184 189.542 C 618.721 194.304, 616.482 196.229, 612.864 206.153 C 611.375 210.236, 609.041 213.925, 605.824 217.281 C 595.983 227.545, 596.186 243.739, 606.296 254.985 C 608.692 257.649, 611.196 261.738, 611.909 264.148 C 614.086 271.513, 617.098 275.779, 623.090 279.982 C 629.699 284.618, 630.985 287.262, 633.531 301.444 C 635.488 312.342, 635.741 312.848, 643.382 321.135 C 646.747 324.784, 651.376 329.989, 653.669 332.702 C 656.091 335.568, 660.337 338.967, 663.802 340.814 C 677.814 348.282, 680.694 364.237, 678.154 420.304 C 676.768 450.899, 676.066 452.040, 657.454 453.987 C 641.946 455.608, 639.388 456.564, 632 463.502 C 627.096 468.106, 623.534 470.412, 617.500 472.886 C 603.054 478.811, 600.934 480.087, 597.431 484.964 C 594.112 489.583, 593.083 490.275, 581.822 495.462 C 577.305 497.542, 575.401 499.195, 572.514 503.544 C 570.235 506.979, 566.881 510.294, 563.496 512.459 C 557.961 516, 556.323 517.944, 552 526.108 C 550.574 528.802, 547.144 532.712, 544.014 535.213 C 539.495 538.825, 537.996 540.867, 535.514 546.795 C 530.979 557.623, 523.197 563.543, 509.339 566.706 C 503.264 568.092, 503.003 562.385, 502.978 427.526 C 502.957 312.696, 502.889 308.352, 501.054 304.310 C 498.460 298.596, 491.551 291.328, 485.431 287.874 C 480.359 285.012, 480.359 285.012, 479.148 263.756 C 477.314 231.548, 475.297 224.316, 466.291 217.641 C 462.376 214.739, 460.661 212.627, 459.391 209.140 C 455.391 198.156, 454.144 196.084, 449.860 193.295 C 447.500 191.758, 442.853 187.705, 439.534 184.289 C 434.704 179.318, 432.003 177.479, 426 175.075 C 420.058 172.695, 417.462 170.941, 413.500 166.627 C 404.267 156.575, 374.720 151.903, 338 154.691 M 1043.763 180.521 C 1042.257 181.362, 1040.344 183.367, 1039.513 184.976 C 1036.867 190.092, 1037.272 966.390, 1039.926 977.482 C 1043.275 991.482, 1047.425 992.959, 1079.589 991.600 C 1104.951 990.529, 1107.799 989.222, 1110.587 977.374 C 1112.819 967.887, 1112.668 190.193, 1110.434 185.872 C 1107.211 179.640, 1053.107 175.297, 1043.763 180.521 M 687.750 192.080 C 680.688 196.193, 681.654 212.289, 689.119 214.892 C 704.702 220.324, 715.405 208.963, 706.559 196.380 C 703.384 191.864, 692.424 189.358, 687.750 192.080 M 639.922 218.274 C 624.553 228.631, 629.277 255, 646.500 255 C 657.576 255, 662.308 246.230, 658.641 232.500 C 654.809 218.156, 647.895 212.901, 639.922 218.274 M 739.094 219.534 C 731.582 226.321, 726.373 242.662, 730.179 247.501 C 739.851 259.797, 752.896 258.036, 755.900 244.030 C 760.188 224.039, 750.208 209.493, 739.094 219.534 M 692 265.891 C 666.516 279.140, 661.840 283.595, 661.791 294.669 C 661.724 309.941, 673.215 317.500, 696.500 317.500 C 727.206 317.500, 742.291 294.419, 721.923 278.601 C 718.729 276.121, 714.393 271.484, 712.287 268.296 C 707.150 260.520, 703.226 260.055, 692 265.891 M 657.942 480.948 C 654.015 482.140, 651.074 483.846, 644 489.036 C 636.564 494.492, 632.924 496.282, 624.536 498.611 C 619.921 499.892, 617.320 501.444, 613.036 505.471 C 609.991 508.334, 605.295 512.167, 602.600 513.990 C 593.975 519.821, 584.656 528.540, 579 536.070 C 575.975 540.097, 570.254 546.807, 566.286 550.981 C 560.477 557.092, 558.572 559.925, 556.501 565.534 C 554.429 571.148, 552.788 573.586, 548.048 578.099 C 535.968 589.600, 533.924 613, 545 613 C 549.252 613, 550.674 611.692, 554.308 604.437 C 557.349 598.366, 558.437 597.379, 566.367 593.500 C 571.382 591.047, 573.200 589.434, 576.342 584.653 C 579.542 579.782, 581.129 578.397, 585.842 576.362 C 596.396 571.805, 599.489 569.970, 606 564.402 C 613.506 557.983, 617.647 555.662, 626.435 552.947 C 630.868 551.578, 634.744 549.362, 639.445 545.509 C 644.941 541.004, 647.694 539.562, 654.820 537.458 C 673.766 531.865, 675.009 530.351, 676.075 511.563 C 677.619 484.368, 672.904 476.408, 657.942 480.948 M 995.056 558.113 C 981.009 570.764, 982.428 583.806, 998.692 591.524 C 1011.136 597.429, 1018.516 566.096, 1007.869 552.561 C 1005.096 549.035, 1005.171 549.002, 995.056 558.113 M 148.016 600.024 C 143.464 601.094, 140.277 604.922, 139.517 610.231 C 137.959 621.110, 139.501 972.355, 141.129 977.546 C 145.823 992.513, 143.134 992.188, 259.012 991.788 C 351.820 991.468, 346.966 991.840, 350.280 984.794 C 353.919 977.057, 354 972.808, 354 789.284 C 354 589.612, 354.468 603.347, 347.568 600.464 C 343.630 598.819, 154.912 598.402, 148.016 600.024 M 225.015 635.959 C 218.842 638.089, 215.840 641.207, 214.038 647.359 C 213.371 649.636, 211.290 654.273, 209.413 657.662 C 205.286 665.115, 205.285 665.125, 208.879 672 C 210.460 675.025, 212.521 680.169, 213.457 683.430 C 216.728 694.817, 224.328 698.706, 241.545 697.802 C 253.070 697.197, 255.571 695.490, 264.500 682.134 C 265.600 680.488, 267.850 677.230, 269.500 674.894 C 275.340 666.624, 271.544 652.138, 260.582 640.867 C 253.718 633.809, 237.662 631.593, 225.015 635.959 M 225.431 793.898 C 215.582 796.386, 208 809.398, 208 823.814 C 208 827.060, 217.061 846.105, 220.347 849.768 C 227.584 857.833, 252.994 856.584, 259.029 847.867 C 260.311 846.015, 263.255 842.433, 265.573 839.907 C 276.126 828.403, 275.557 821.831, 262.440 803.765 C 255.563 794.293, 240.144 790.183, 225.431 793.898" stroke="none" fill="#f0f0f0" fill-rule="evenodd"/></svg>