<svg xmlns="http://www.w3.org/2000/svg" width="1272" height="888" viewBox="0 0 1272 888" version="1.1"><path d="M 255.536 112.113 C 241.767 114.119, 212.434 128.078, 206.839 135.288 C 205.042 137.605, 200.731 142.604, 197.261 146.398 C 190.977 153.268, 180.106 173.138, 176.963 183.500 C 174.708 190.935, 173.841 223.146, 173.169 324.545 C 172.420 437.725, 173.001 429.832, 165.254 431.938 C 163.189 432.499, 147.325 433.132, 130 433.344 C 90.044 433.834, 85.516 435.011, 81.776 445.886 C 80.081 450.812, 79.371 748.121, 81.030 758.089 C 84.111 776.603, 77.305 775.444, 184.881 775.776 C 286.821 776.091, 280.492 776.603, 285.283 767.645 C 288.420 761.781, 288.842 452.977, 285.725 444.901 C 281.569 434.134, 280.041 433.729, 241 433.058 C 190.069 432.182, 196 446.013, 196 328.122 C 196 258.012, 195.684 232.158, 194.755 226.322 C 190.035 196.658, 209.806 153.585, 231.568 146.121 C 235.381 144.813, 242.747 141.490, 247.938 138.735 C 263.951 130.239, 277.258 130.271, 295.213 138.852 C 300.871 141.555, 308.599 145.021, 312.387 146.554 C 319.306 149.354, 320.922 150.724, 329.432 161 C 337.792 171.096, 338.910 173.270, 342.050 185.542 C 345.507 199.052, 347.826 203.602, 354.457 209.879 C 364.251 219.152, 364 215.787, 363.913 336.500 C 363.824 460.624, 363.212 486.871, 360.279 492.500 C 356.397 499.950, 352.733 502.212, 342.510 503.468 C 326.347 505.454, 318.256 515.798, 321.559 530.257 C 323.310 537.924, 323.316 538.737, 321.689 548.392 C 319.390 562.037, 319.483 563.464, 323.413 574.886 C 327.749 587.489, 328.230 588.371, 334.371 595 C 353.759 615.927, 396.688 617.551, 406.602 597.732 C 412.032 586.877, 419.372 578.439, 426.765 574.554 C 437.489 568.919, 437.474 568.965, 437.638 541.021 C 437.792 514.915, 437.839 515.172, 431.296 506.843 C 423.481 496.896, 423.754 491.617, 432.584 481.944 C 448.803 464.180, 458.449 455.291, 464.030 452.966 C 467.038 451.713, 472.650 448.413, 476.500 445.632 C 489.330 436.366, 507.624 431.557, 513.240 435.974 C 518.214 439.887, 518.516 464.845, 514.952 577.500 C 509.712 743.100, 512.620 772.500, 534.236 772.500 C 553.076 772.500, 556.980 746.707, 552.094 654.500 C 550.852 631.060, 548.500 500.515, 548.500 455 C 548.500 417.005, 548.587 416.688, 562 405.500 C 578.863 391.435, 580.577 373.705, 566.595 357.953 C 544.317 332.856, 546.550 339.080, 546.521 302 C 546.494 267.278, 548.038 263.413, 567.138 250.368 C 571.307 247.521, 572.523 245.622, 580.523 229.483 C 587.607 215.189, 590.461 210.512, 595.165 205.483 C 615.659 183.575, 609.951 153.030, 582.730 138.943 C 572.921 133.866, 565.468 128.892, 558 122.436 C 549.466 115.059, 543.218 112.586, 533 112.539 C 521.421 112.486, 520.019 113.037, 511.399 121.030 C 507.264 124.863, 503.345 128.011, 502.691 128.024 C 499.575 128.086, 488.898 133.481, 480.062 139.458 C 457.070 155.011, 453.545 186.382, 472.476 206.974 C 476.195 211.019, 478.498 214.774, 480.511 220.072 C 482.062 224.158, 484.383 229.075, 485.667 231 C 495.713 246.056, 497.882 248.721, 502.519 251.706 C 521.941 264.208, 525.493 276.694, 521.596 318.769 C 519.944 336.610, 518.297 338.779, 504 341.947 C 493.972 344.170, 488.949 346.156, 484.211 349.772 C 481.633 351.740, 476.279 354.849, 472.313 356.682 C 468.347 358.514, 461.816 362.626, 457.801 365.820 C 453.785 369.013, 448.397 372.834, 445.826 374.311 C 440.075 377.614, 424.606 392.722, 420.035 399.500 C 418.181 402.250, 414.931 406.412, 412.813 408.748 C 410.695 411.085, 406.928 416.141, 404.442 419.984 C 399.125 428.202, 396.876 429.804, 393.634 427.680 C 388.603 424.383, 388.650 425.259, 388.055 323.500 C 387.437 217.639, 388.142 226.384, 379.719 220.161 C 372.687 214.967, 372.112 214.138, 370.846 207.362 C 370.244 204.138, 368.469 197, 366.903 191.500 C 365.336 186, 363.311 178.125, 362.404 174 C 360.373 164.773, 358.057 160.074, 352.599 154.108 C 350.280 151.574, 346.687 147.143, 344.615 144.262 C 338.638 135.953, 330.586 129.399, 322.571 126.320 C 318.682 124.826, 313.572 122.311, 311.217 120.731 C 299.194 112.667, 276.182 109.105, 255.536 112.113 M 993.316 112.032 C 976.867 114.990, 961.561 124.961, 955.762 136.496 C 954.102 139.798, 951.183 144.237, 949.275 146.360 C 944.991 151.127, 943.499 154.608, 939.926 168.164 C 938.380 174.029, 935.742 181.550, 934.062 184.876 C 932.383 188.203, 929.660 194.320, 928.012 198.470 C 926.363 202.620, 923.211 209.602, 921.007 213.986 C 914.564 226.801, 915.352 230.493, 926.542 239.903 C 934.606 246.686, 936.783 249.653, 939.989 258.233 C 941.167 261.386, 943.738 266.302, 945.701 269.156 C 949.880 275.232, 949.661 276.002, 942.425 280.690 C 939.716 282.444, 935.025 285.650, 932 287.813 C 928.975 289.977, 923.800 293.111, 920.500 294.778 C 914.040 298.043, 897.651 313.816, 894.672 319.635 C 893.789 321.360, 891.111 324.510, 888.720 326.635 C 886.330 328.761, 882.545 332.975, 880.309 336 C 878.074 339.025, 875.013 342.625, 873.508 344 C 872.002 345.375, 868.624 349.650, 866.001 353.500 C 849.938 377.075, 833.504 381.921, 820.630 366.881 C 818.824 364.771, 815.131 361.386, 812.423 359.358 C 809.716 357.330, 804.550 352.932, 800.945 349.585 C 797.340 346.238, 789.951 339.675, 784.526 335 C 762.940 316.398, 764.484 318.585, 761.032 301.712 C 758.742 290.517, 758.216 289.331, 752.521 282.500 C 750.228 279.750, 747.107 275.324, 745.584 272.664 C 744.014 269.922, 740.836 266.459, 738.244 264.664 C 735.729 262.924, 731.716 259.832, 729.326 257.794 C 712.469 243.419, 693.468 260.623, 704.342 280.417 C 709.061 289.008, 709.822 291.930, 710.910 305.629 C 712.009 319.478, 713.391 323.636, 718.036 327.069 C 724.990 332.210, 753.181 361.539, 758.819 369.500 C 760.377 371.700, 763.322 374.773, 765.364 376.330 C 767.405 377.886, 770.255 381.036, 771.697 383.330 C 774.186 387.289, 778.771 392.676, 792.574 407.863 C 795.915 411.539, 800.292 417.461, 802.300 421.023 C 806.907 429.193, 809.092 431.710, 816.290 437.136 C 836.717 452.533, 840.076 452.977, 858.308 442.690 C 873.847 433.923, 874.057 433.719, 899 403.211 C 902.025 399.512, 906.525 394.438, 909 391.936 C 911.475 389.435, 914.900 385.726, 916.610 383.694 C 926.248 372.246, 937.950 389.952, 940.937 420.500 C 942.699 438.525, 946.975 460.813, 950.587 470.801 C 962.116 502.683, 952.065 575.984, 936.161 576.003 C 932.843 576.007, 921.208 564.047, 916.051 555.330 C 913.045 550.249, 908.940 545.624, 894.256 530.779 C 881.770 518.155, 875.596 512.821, 870.413 510.181 C 867.161 508.525, 862.030 505.312, 859.011 503.041 C 855.991 500.770, 851.266 498.144, 848.511 497.206 C 843.286 495.427, 833.735 490.746, 823.500 484.948 C 812.119 478.501, 797.214 480.795, 789.984 490.106 C 788.108 492.523, 784.284 496.750, 781.486 499.500 C 769.650 511.135, 769.425 544.495, 780.965 577 C 785.101 588.650, 785.529 590.552, 786.938 603.500 C 788.201 615.109, 791.471 633.662, 794.632 647.156 C 798.195 662.368, 795.477 669.972, 783.017 679.648 C 779.668 682.249, 775.563 686.630, 773.853 689.430 C 772.149 692.218, 768.625 696.767, 766.022 699.538 C 762.190 703.616, 760.844 706.069, 758.964 712.402 C 755.490 724.106, 752.231 726.228, 719 738.430 C 699.676 745.525, 698.500 746.649, 698.500 758.007 C 698.500 778.105, 726.709 783.079, 758 768.500 C 773.405 761.322, 779.400 760.769, 802 764.442 C 812.856 766.206, 826.602 766.406, 842.500 765.032 C 853.240 764.103, 874.472 762.999, 920 761.001 C 932.375 760.458, 949.814 759.286, 958.753 758.396 C 996.814 754.605, 1057.041 759.395, 1073.969 767.559 C 1098.460 779.370, 1148.536 779.533, 1154.593 767.820 C 1160.710 755.992, 1149.656 744.557, 1129.156 741.508 C 1117.834 739.824, 1117.487 739.689, 1108.270 733.379 C 1104.779 730.989, 1099.352 728.326, 1096.211 727.462 C 1071.677 720.715, 1066.142 709.015, 1076.120 685 C 1082.547 669.530, 1082.723 644.519, 1076.541 625 C 1070.627 606.326, 1071.149 541.937, 1077.422 516.383 C 1078.787 510.818, 1080.381 501.368, 1080.963 495.383 C 1083.391 470.429, 1086.023 467.718, 1104.135 471.528 C 1108.589 472.465, 1114.544 474.770, 1119.519 477.482 C 1123.983 479.915, 1131.205 482.871, 1135.568 484.049 C 1139.931 485.228, 1148.329 488.590, 1154.231 491.521 C 1193.893 511.218, 1225.458 478.555, 1199.618 444.555 C 1195.888 439.647, 1194.191 435.735, 1192.427 427.977 C 1190.339 418.797, 1188.783 415.005, 1184.028 407.500 C 1181.937 404.200, 1178.796 397.135, 1177.047 391.800 C 1175.299 386.466, 1172.778 380.616, 1171.446 378.800 C 1164.922 369.915, 1163.168 366.489, 1161.065 358.528 C 1159.594 352.962, 1157.591 348.242, 1155.410 345.204 C 1153.553 342.617, 1149.808 335.938, 1147.088 330.362 C 1143.935 323.898, 1140.458 318.490, 1137.490 315.436 C 1134.931 312.803, 1131.302 308.249, 1129.426 305.316 C 1127.217 301.864, 1124.090 298.753, 1120.552 296.490 C 1117.547 294.568, 1113.087 290.965, 1110.641 288.484 C 1105.245 283.011, 1099.929 280.551, 1087.761 277.895 C 1065.846 273.112, 1060.542 263.795, 1072.868 251.733 C 1087.087 237.819, 1096.451 194.436, 1089.589 174.261 C 1088.262 170.361, 1086.658 164.545, 1086.024 161.335 C 1082.916 145.609, 1074.073 134.104, 1059.389 126.684 C 1055.600 124.769, 1051.375 121.989, 1050 120.506 C 1043.061 113.023, 1012.890 108.513, 993.316 112.032 M 999.147 133.075 C 990.755 134.725, 976.946 145.328, 975.467 151.257 C 972.011 165.118, 985.226 172.391, 1018.278 174.816 C 1032.064 175.827, 1033.910 176.952, 1038.474 187.122 C 1042.280 195.601, 1042.535 198.760, 1040.178 208.206 C 1036.674 222.250, 1036.910 228.689, 1041.104 233.465 C 1050.356 244.003, 1062.937 234.668, 1065.529 215.344 C 1069.284 187.341, 1067.776 169.826, 1060.549 157.493 C 1052.018 142.936, 1017.933 129.381, 999.147 133.075 M 566.655 163.133 C 561.978 165.852, 559.316 179.150, 562.529 183.739 C 566.700 189.692, 580.231 188.247, 583.430 181.507 C 588.899 169.982, 577.102 157.061, 566.655 163.133 M 488.070 165.776 C 483.374 170.472, 483.149 182.192, 487.660 187.176 C 491.607 191.538, 503.660 188.073, 506.798 181.674 C 511.859 171.355, 495.975 157.871, 488.070 165.776 M 532.791 195.363 C 518.265 201.632, 507.604 218.600, 512.411 227.800 C 524.012 250.006, 561.578 238.360, 555.569 214.420 C 553.872 207.658, 537.003 193.545, 532.791 195.363 M 986 197.709 C 983.445 198.649, 980.907 201.279, 976.952 207.087 C 971.631 214.899, 968.941 216.468, 961.188 216.278 C 939.303 215.741, 952.642 245.114, 975.597 248.006 C 1005.698 251.799, 995.513 290.406, 962 299.542 C 953.727 301.797, 950.492 303.424, 945.388 307.897 C 943.127 309.879, 938.235 313.073, 934.518 314.996 C 925.657 319.580, 918.033 327.753, 914.854 336.078 C 912.632 341.898, 912.214 342.364, 908.135 343.568 C 903.293 344.998, 899.876 347.769, 896.505 353 C 895.265 354.925, 892.828 357.975, 891.090 359.778 C 885.993 365.064, 883.892 374.008, 887.750 373.993 C 893.392 373.972, 910.337 356.375, 912.030 348.777 C 913.208 343.493, 913.582 342.965, 916.903 341.896 C 918.881 341.258, 922.975 339.447, 926 337.871 C 944.540 328.208, 954.019 350.472, 962.895 424.529 C 963.491 429.495, 965.335 437.574, 966.994 442.482 C 978.972 477.917, 980.261 534.211, 969.950 571.564 C 964.837 590.084, 969.803 594.545, 990.547 590.067 C 995.471 589.004, 1003.039 587.652, 1007.364 587.061 C 1043.700 582.103, 1049.904 575.913, 1051.028 543.500 C 1051.595 527.137, 1052.327 519.629, 1054.344 509.500 C 1064.029 460.853, 1063.988 459.570, 1052.547 453.113 C 1049.479 451.382, 1044.099 448.001, 1040.593 445.600 C 1037.086 443.200, 1031.287 440.260, 1027.706 439.069 C 1013.344 434.289, 1008.560 428.907, 1001.508 409.596 C 999.133 403.093, 994.342 397.978, 985.409 392.411 C 974.180 385.412, 969.577 373.520, 974.450 364.097 C 980.002 353.360, 1004.942 355.067, 1019.262 367.165 C 1022.736 370.099, 1027.223 373.617, 1029.234 374.982 C 1032.799 377.402, 1033.719 378.643, 1040.320 389.946 C 1049.751 406.097, 1063.551 406.994, 1068.556 391.781 C 1070.053 387.230, 1076.220 373.405, 1081.786 362.123 C 1083.502 358.645, 1096.767 347.800, 1101.512 345.995 C 1105.577 344.450, 1108.562 344.790, 1115.104 347.544 C 1128.166 353.041, 1129.435 340.523, 1117.265 326.235 C 1100.782 306.883, 1095.216 303.093, 1077.915 299.445 C 1034.957 290.384, 1024.548 280.481, 1016.499 241.011 C 1008.274 200.677, 1002.032 191.815, 986 197.709 M 497.954 369.469 C 494.954 371.377, 488.355 374.555, 483.288 376.532 C 477.136 378.932, 472.486 381.535, 469.288 384.368 C 466.655 386.702, 462.925 389.676, 461 390.978 C 456.131 394.271, 439.196 410.940, 437.490 414.119 C 436.716 415.560, 434.013 419.160, 431.482 422.119 C 428.951 425.079, 424.570 431.775, 421.747 437 C 418.925 442.225, 415.352 448.501, 413.808 450.946 C 407.329 461.205, 411.445 467.109, 419.294 458.815 C 422.157 455.789, 426.525 452.154, 429 450.737 C 431.475 449.319, 435.525 446.063, 438 443.501 C 440.475 440.939, 445.650 437.025, 449.500 434.802 C 453.350 432.579, 459.290 428.976, 462.700 426.795 C 466.109 424.615, 473.077 421.277, 478.184 419.379 C 483.955 417.233, 489.556 414.289, 492.984 411.598 C 496.018 409.218, 501.650 405.679, 505.500 403.736 C 516.786 398.039, 519 394.570, 519 382.584 C 519 366.414, 510.795 361.301, 497.954 369.469 M 876.045 379.752 C 873.962 380.806, 871.382 383.508, 869.545 386.558 C 860.405 401.738, 846.346 412.029, 836.721 410.585 C 828.217 409.310, 826.471 414.367, 834.075 418.248 C 842.003 422.296, 857.955 417.346, 862.616 409.392 C 864.037 406.968, 867.568 402.961, 870.463 400.488 C 876.358 395.451, 882 385.975, 882 381.110 C 882 377.520, 880.934 377.277, 876.045 379.752 M 1099.409 382.355 C 1088.132 396.487, 1088.754 411.318, 1100.880 417.425 C 1121.385 427.751, 1131.626 414.945, 1117.592 396.528 C 1116.322 394.863, 1114.044 391.025, 1112.528 388 C 1107.458 377.881, 1104.123 376.446, 1099.409 382.355 M 1162.332 426.577 C 1161.999 427.444, 1162.007 431.162, 1162.348 434.839 C 1163.161 443.581, 1161.970 447.484, 1156.551 453.831 C 1151.056 460.269, 1151.314 461.059, 1160.356 465.520 C 1178.998 474.718, 1185.466 468.580, 1176.712 450 C 1174.768 445.875, 1172.430 439.575, 1171.515 436 C 1169.006 426.189, 1164.324 421.385, 1162.332 426.577 M 110.374 456.141 C 101.703 458.090, 102.539 443.452, 102.194 599.355 C 101.837 760.852, 101.099 751.018, 113.779 753.710 C 122.629 755.589, 256.382 754.635, 259.378 752.672 C 265.892 748.404, 265.500 757.866, 265.500 605 C 265.500 448.840, 266.105 460.801, 258 456.752 C 254.048 454.777, 118.929 454.219, 110.374 456.141 M 165.401 481.905 C 152.476 487.775, 148.682 507.203, 157.438 522.679 C 164.805 535.699, 195.542 532.824, 202.119 518.500 C 212.249 496.440, 187.566 471.839, 165.401 481.905 M 837.239 522.613 C 827.596 527.485, 825.707 534.817, 831.585 544.559 C 836.024 551.916, 837.478 555.352, 840.449 565.500 C 841.737 569.900, 843.700 575.975, 844.811 579 C 846.996 584.953, 849.626 602.113, 850.557 616.500 C 851.808 635.820, 854.762 638.382, 871.829 634.944 C 884.854 632.320, 887.025 631.450, 894.770 625.748 C 899.650 622.156, 902.732 620.796, 910.146 618.964 C 926.283 614.977, 928.883 605.817, 917.512 593.013 C 915.103 590.301, 912 586.152, 910.616 583.791 C 909.232 581.431, 906.009 577.754, 903.454 575.621 C 900.900 573.487, 897.331 569.437, 895.525 566.621 C 891.163 559.822, 863.573 532.361, 858.500 529.770 C 856.300 528.646, 852.609 526.431, 850.297 524.848 C 844.907 521.156, 841.333 520.544, 837.239 522.613 M 358 528.990 C 348.936 530.646, 344.259 541.385, 343.769 561.668 C 342.960 595.108, 388.137 598.169, 409.829 566.143 C 419.609 551.703, 413.651 531.894, 398.840 529.609 C 393.426 528.774, 361.808 528.295, 358 528.990 M 806.260 562.250 C 802.140 567.481, 808.797 615.643, 814.159 619.399 C 825.276 627.185, 827.045 602.801, 817.553 572.620 C 814.228 562.047, 809.697 557.886, 806.260 562.250 M 165.500 603.496 C 149.290 609.204, 149.449 643.697, 165.718 650.629 C 185.717 659.150, 210.168 637.139, 200.972 618.891 C 193.508 604.081, 180.219 598.313, 165.500 603.496 M 1023 606.559 C 1019.425 607.285, 1012.225 608.359, 1007 608.945 C 998.991 609.845, 996.088 610.710, 988.500 614.460 C 983.550 616.907, 975.750 619.848, 971.168 620.996 C 957.811 624.344, 946.981 627.994, 940 631.503 C 936.425 633.300, 929.450 636.196, 924.500 637.939 C 919.550 639.682, 912.218 642.906, 908.206 645.104 C 903.654 647.598, 896.513 650.248, 889.206 652.155 C 875.528 655.726, 874.993 655.972, 868.720 661.583 C 864.119 665.699, 861.264 666.968, 848.782 670.445 C 838.232 673.383, 821 686.473, 821 691.549 C 821 707.859, 843.488 713.965, 866.856 704 C 893.525 692.628, 964.103 692.300, 987.675 703.440 C 1015.123 716.410, 1040.549 711.838, 1049.154 692.384 C 1058.642 670.936, 1059.682 655.370, 1053.379 629.185 C 1047.356 604.164, 1044.664 602.159, 1023 606.559 M 791.121 709.717 C 783.046 713.678, 782.310 719.654, 788.577 730.361 C 795.399 742.015, 810.389 746.678, 820.997 740.446 C 826.750 737.066, 826.236 735.777, 814.349 723.796 C 798.823 708.145, 796.812 706.927, 791.121 709.717 M 913 718.471 C 886.886 721.079, 846 732.075, 846 736.490 C 846 740.844, 857.618 742.197, 884.543 740.980 C 949.197 738.057, 952.664 737.542, 959.623 729.847 C 969.248 719.203, 950.785 714.699, 913 718.471" stroke="none" fill="#676767" fill-rule="evenodd"/><path d="M 38.500 29.501 C 33.628 31.227, 30.412 34.755, 29.029 39.891 C 26.706 48.519, 28.189 846.970, 30.535 850.965 C 31.655 852.870, 34.130 855.345, 36.035 856.465 C 41.519 859.686, 1230.481 859.686, 1235.965 856.465 C 1237.870 855.345, 1240.345 852.870, 1241.465 850.965 C 1244.685 845.483, 1244.685 41.517, 1241.465 36.035 C 1240.345 34.130, 1237.870 31.655, 1235.965 30.535 C 1231.398 27.853, 46.044 26.829, 38.500 29.501 M 255.536 112.113 C 241.767 114.119, 212.434 128.078, 206.839 135.288 C 205.042 137.605, 200.731 142.604, 197.261 146.398 C 190.977 153.268, 180.106 173.138, 176.963 183.500 C 174.708 190.935, 173.841 223.146, 173.169 324.545 C 172.420 437.725, 173.001 429.832, 165.254 431.938 C 163.189 432.499, 147.325 433.132, 130 433.344 C 90.044 433.834, 85.516 435.011, 81.776 445.886 C 80.081 450.812, 79.371 748.121, 81.030 758.089 C 84.111 776.603, 77.305 775.444, 184.881 775.776 C 286.821 776.091, 280.492 776.603, 285.283 767.645 C 288.420 761.781, 288.842 452.977, 285.725 444.901 C 281.569 434.134, 280.041 433.729, 241 433.058 C 190.069 432.182, 196 446.013, 196 328.122 C 196 258.012, 195.684 232.158, 194.755 226.322 C 190.035 196.658, 209.806 153.585, 231.568 146.121 C 235.381 144.813, 242.747 141.490, 247.938 138.735 C 263.951 130.239, 277.258 130.271, 295.213 138.852 C 300.871 141.555, 308.599 145.021, 312.387 146.554 C 319.306 149.354, 320.922 150.724, 329.432 161 C 337.792 171.096, 338.910 173.270, 342.050 185.542 C 345.507 199.052, 347.826 203.602, 354.457 209.879 C 364.251 219.152, 364 215.787, 363.913 336.500 C 363.824 460.624, 363.212 486.871, 360.279 492.500 C 356.397 499.950, 352.733 502.212, 342.510 503.468 C 326.347 505.454, 318.256 515.798, 321.559 530.257 C 323.310 537.924, 323.316 538.737, 321.689 548.392 C 319.390 562.037, 319.483 563.464, 323.413 574.886 C 327.749 587.489, 328.230 588.371, 334.371 595 C 353.759 615.927, 396.688 617.551, 406.602 597.732 C 412.032 586.877, 419.372 578.439, 426.765 574.554 C 437.489 568.919, 437.474 568.965, 437.638 541.021 C 437.792 514.915, 437.839 515.172, 431.296 506.843 C 423.481 496.896, 423.754 491.617, 432.584 481.944 C 448.803 464.180, 458.449 455.291, 464.030 452.966 C 467.038 451.713, 472.650 448.413, 476.500 445.632 C 489.330 436.366, 507.624 431.557, 513.240 435.974 C 518.214 439.887, 518.516 464.845, 514.952 577.500 C 509.712 743.100, 512.620 772.500, 534.236 772.500 C 553.076 772.500, 556.980 746.707, 552.094 654.500 C 550.852 631.060, 548.500 500.515, 548.500 455 C 548.500 417.005, 548.587 416.688, 562 405.500 C 578.863 391.435, 580.577 373.705, 566.595 357.953 C 544.317 332.856, 546.550 339.080, 546.521 302 C 546.494 267.278, 548.038 263.413, 567.138 250.368 C 571.307 247.521, 572.523 245.622, 580.523 229.483 C 587.607 215.189, 590.461 210.512, 595.165 205.483 C 615.659 183.575, 609.951 153.030, 582.730 138.943 C 572.921 133.866, 565.468 128.892, 558 122.436 C 549.466 115.059, 543.218 112.586, 533 112.539 C 521.421 112.486, 520.019 113.037, 511.399 121.030 C 507.264 124.863, 503.345 128.011, 502.691 128.024 C 499.575 128.086, 488.898 133.481, 480.062 139.458 C 457.070 155.011, 453.545 186.382, 472.476 206.974 C 476.195 211.019, 478.498 214.774, 480.511 220.072 C 482.062 224.158, 484.383 229.075, 485.667 231 C 495.713 246.056, 497.882 248.721, 502.519 251.706 C 521.941 264.208, 525.493 276.694, 521.596 318.769 C 519.944 336.610, 518.297 338.779, 504 341.947 C 493.972 344.170, 488.949 346.156, 484.211 349.772 C 481.633 351.740, 476.279 354.849, 472.313 356.682 C 468.347 358.514, 461.816 362.626, 457.801 365.820 C 453.785 369.013, 448.397 372.834, 445.826 374.311 C 440.075 377.614, 424.606 392.722, 420.035 399.500 C 418.181 402.250, 414.931 406.412, 412.813 408.748 C 410.695 411.085, 406.928 416.141, 404.442 419.984 C 399.125 428.202, 396.876 429.804, 393.634 427.680 C 388.603 424.383, 388.650 425.259, 388.055 323.500 C 387.437 217.639, 388.142 226.384, 379.719 220.161 C 372.687 214.967, 372.112 214.138, 370.846 207.362 C 370.244 204.138, 368.469 197, 366.903 191.500 C 365.336 186, 363.311 178.125, 362.404 174 C 360.373 164.773, 358.057 160.074, 352.599 154.108 C 350.280 151.574, 346.687 147.143, 344.615 144.262 C 338.638 135.953, 330.586 129.399, 322.571 126.320 C 318.682 124.826, 313.572 122.311, 311.217 120.731 C 299.194 112.667, 276.182 109.105, 255.536 112.113 M 993.316 112.032 C 976.867 114.990, 961.561 124.961, 955.762 136.496 C 954.102 139.798, 951.183 144.237, 949.275 146.360 C 944.991 151.127, 943.499 154.608, 939.926 168.164 C 938.380 174.029, 935.742 181.550, 934.062 184.876 C 932.383 188.203, 929.660 194.320, 928.012 198.470 C 926.363 202.620, 923.211 209.602, 921.007 213.986 C 914.564 226.801, 915.352 230.493, 926.542 239.903 C 934.606 246.686, 936.783 249.653, 939.989 258.233 C 941.167 261.386, 943.738 266.302, 945.701 269.156 C 949.880 275.232, 949.661 276.002, 942.425 280.690 C 939.716 282.444, 935.025 285.650, 932 287.813 C 928.975 289.977, 923.800 293.111, 920.500 294.778 C 914.040 298.043, 897.651 313.816, 894.672 319.635 C 893.789 321.360, 891.111 324.510, 888.720 326.635 C 886.330 328.761, 882.545 332.975, 880.309 336 C 878.074 339.025, 875.013 342.625, 873.508 344 C 872.002 345.375, 868.624 349.650, 866.001 353.500 C 849.938 377.075, 833.504 381.921, 820.630 366.881 C 818.824 364.771, 815.131 361.386, 812.423 359.358 C 809.716 357.330, 804.550 352.932, 800.945 349.585 C 797.340 346.238, 789.951 339.675, 784.526 335 C 762.940 316.398, 764.484 318.585, 761.032 301.712 C 758.742 290.517, 758.216 289.331, 752.521 282.500 C 750.228 279.750, 747.107 275.324, 745.584 272.664 C 744.014 269.922, 740.836 266.459, 738.244 264.664 C 735.729 262.924, 731.716 259.832, 729.326 257.794 C 712.469 243.419, 693.468 260.623, 704.342 280.417 C 709.061 289.008, 709.822 291.930, 710.910 305.629 C 712.009 319.478, 713.391 323.636, 718.036 327.069 C 724.990 332.210, 753.181 361.539, 758.819 369.500 C 760.377 371.700, 763.322 374.773, 765.364 376.330 C 767.405 377.886, 770.255 381.036, 771.697 383.330 C 774.186 387.289, 778.771 392.676, 792.574 407.863 C 795.915 411.539, 800.292 417.461, 802.300 421.023 C 806.907 429.193, 809.092 431.710, 816.290 437.136 C 836.717 452.533, 840.076 452.977, 858.308 442.690 C 873.847 433.923, 874.057 433.719, 899 403.211 C 902.025 399.512, 906.525 394.438, 909 391.936 C 911.475 389.435, 914.900 385.726, 916.610 383.694 C 926.248 372.246, 937.950 389.952, 940.937 420.500 C 942.699 438.525, 946.975 460.813, 950.587 470.801 C 962.116 502.683, 952.065 575.984, 936.161 576.003 C 932.843 576.007, 921.208 564.047, 916.051 555.330 C 913.045 550.249, 908.940 545.624, 894.256 530.779 C 881.770 518.155, 875.596 512.821, 870.413 510.181 C 867.161 508.525, 862.030 505.312, 859.011 503.041 C 855.991 500.770, 851.266 498.144, 848.511 497.206 C 843.286 495.427, 833.735 490.746, 823.500 484.948 C 812.119 478.501, 797.214 480.795, 789.984 490.106 C 788.108 492.523, 784.284 496.750, 781.486 499.500 C 769.650 511.135, 769.425 544.495, 780.965 577 C 785.101 588.650, 785.529 590.552, 786.938 603.500 C 788.201 615.109, 791.471 633.662, 794.632 647.156 C 798.195 662.368, 795.477 669.972, 783.017 679.648 C 779.668 682.249, 775.563 686.630, 773.853 689.430 C 772.149 692.218, 768.625 696.767, 766.022 699.538 C 762.190 703.616, 760.844 706.069, 758.964 712.402 C 755.490 724.106, 752.231 726.228, 719 738.430 C 699.676 745.525, 698.500 746.649, 698.500 758.007 C 698.500 778.105, 726.709 783.079, 758 768.500 C 773.405 761.322, 779.400 760.769, 802 764.442 C 812.856 766.206, 826.602 766.406, 842.500 765.032 C 853.240 764.103, 874.472 762.999, 920 761.001 C 932.375 760.458, 949.814 759.286, 958.753 758.396 C 996.814 754.605, 1057.041 759.395, 1073.969 767.559 C 1098.460 779.370, 1148.536 779.533, 1154.593 767.820 C 1160.710 755.992, 1149.656 744.557, 1129.156 741.508 C 1117.834 739.824, 1117.487 739.689, 1108.270 733.379 C 1104.779 730.989, 1099.352 728.326, 1096.211 727.462 C 1071.677 720.715, 1066.142 709.015, 1076.120 685 C 1082.547 669.530, 1082.723 644.519, 1076.541 625 C 1070.627 606.326, 1071.149 541.937, 1077.422 516.383 C 1078.787 510.818, 1080.381 501.368, 1080.963 495.383 C 1083.391 470.429, 1086.023 467.718, 1104.135 471.528 C 1108.589 472.465, 1114.544 474.770, 1119.519 477.482 C 1123.983 479.915, 1131.205 482.871, 1135.568 484.049 C 1139.931 485.228, 1148.329 488.590, 1154.231 491.521 C 1193.893 511.218, 1225.458 478.555, 1199.618 444.555 C 1195.888 439.647, 1194.191 435.735, 1192.427 427.977 C 1190.339 418.797, 1188.783 415.005, 1184.028 407.500 C 1181.937 404.200, 1178.796 397.135, 1177.047 391.800 C 1175.299 386.466, 1172.778 380.616, 1171.446 378.800 C 1164.922 369.915, 1163.168 366.489, 1161.065 358.528 C 1159.594 352.962, 1157.591 348.242, 1155.410 345.204 C 1153.553 342.617, 1149.808 335.938, 1147.088 330.362 C 1143.935 323.898, 1140.458 318.490, 1137.490 315.436 C 1134.931 312.803, 1131.302 308.249, 1129.426 305.316 C 1127.217 301.864, 1124.090 298.753, 1120.552 296.490 C 1117.547 294.568, 1113.087 290.965, 1110.641 288.484 C 1105.245 283.011, 1099.929 280.551, 1087.761 277.895 C 1065.846 273.112, 1060.542 263.795, 1072.868 251.733 C 1087.087 237.819, 1096.451 194.436, 1089.589 174.261 C 1088.262 170.361, 1086.658 164.545, 1086.024 161.335 C 1082.916 145.609, 1074.073 134.104, 1059.389 126.684 C 1055.600 124.769, 1051.375 121.989, 1050 120.506 C 1043.061 113.023, 1012.890 108.513, 993.316 112.032 M 999.147 133.075 C 990.755 134.725, 976.946 145.328, 975.467 151.257 C 972.011 165.118, 985.226 172.391, 1018.278 174.816 C 1032.064 175.827, 1033.910 176.952, 1038.474 187.122 C 1042.280 195.601, 1042.535 198.760, 1040.178 208.206 C 1036.674 222.250, 1036.910 228.689, 1041.104 233.465 C 1050.356 244.003, 1062.937 234.668, 1065.529 215.344 C 1069.284 187.341, 1067.776 169.826, 1060.549 157.493 C 1052.018 142.936, 1017.933 129.381, 999.147 133.075 M 566.655 163.133 C 561.978 165.852, 559.316 179.150, 562.529 183.739 C 566.700 189.692, 580.231 188.247, 583.430 181.507 C 588.899 169.982, 577.102 157.061, 566.655 163.133 M 488.070 165.776 C 483.374 170.472, 483.149 182.192, 487.660 187.176 C 491.607 191.538, 503.660 188.073, 506.798 181.674 C 511.859 171.355, 495.975 157.871, 488.070 165.776 M 532.791 195.363 C 518.265 201.632, 507.604 218.600, 512.411 227.800 C 524.012 250.006, 561.578 238.360, 555.569 214.420 C 553.872 207.658, 537.003 193.545, 532.791 195.363 M 986 197.709 C 983.445 198.649, 980.907 201.279, 976.952 207.087 C 971.631 214.899, 968.941 216.468, 961.188 216.278 C 939.303 215.741, 952.642 245.114, 975.597 248.006 C 1005.698 251.799, 995.513 290.406, 962 299.542 C 953.727 301.797, 950.492 303.424, 945.388 307.897 C 943.127 309.879, 938.235 313.073, 934.518 314.996 C 925.657 319.580, 918.033 327.753, 914.854 336.078 C 912.632 341.898, 912.214 342.364, 908.135 343.568 C 903.293 344.998, 899.876 347.769, 896.505 353 C 895.265 354.925, 892.828 357.975, 891.090 359.778 C 885.993 365.064, 883.892 374.008, 887.750 373.993 C 893.392 373.972, 910.337 356.375, 912.030 348.777 C 913.208 343.493, 913.582 342.965, 916.903 341.896 C 918.881 341.258, 922.975 339.447, 926 337.871 C 944.540 328.208, 954.019 350.472, 962.895 424.529 C 963.491 429.495, 965.335 437.574, 966.994 442.482 C 978.972 477.917, 980.261 534.211, 969.950 571.564 C 964.837 590.084, 969.803 594.545, 990.547 590.067 C 995.471 589.004, 1003.039 587.652, 1007.364 587.061 C 1043.700 582.103, 1049.904 575.913, 1051.028 543.500 C 1051.595 527.137, 1052.327 519.629, 1054.344 509.500 C 1064.029 460.853, 1063.988 459.570, 1052.547 453.113 C 1049.479 451.382, 1044.099 448.001, 1040.593 445.600 C 1037.086 443.200, 1031.287 440.260, 1027.706 439.069 C 1013.344 434.289, 1008.560 428.907, 1001.508 409.596 C 999.133 403.093, 994.342 397.978, 985.409 392.411 C 974.180 385.412, 969.577 373.520, 974.450 364.097 C 980.002 353.360, 1004.942 355.067, 1019.262 367.165 C 1022.736 370.099, 1027.223 373.617, 1029.234 374.982 C 1032.799 377.402, 1033.719 378.643, 1040.320 389.946 C 1049.751 406.097, 1063.551 406.994, 1068.556 391.781 C 1070.053 387.230, 1076.220 373.405, 1081.786 362.123 C 1083.502 358.645, 1096.767 347.800, 1101.512 345.995 C 1105.577 344.450, 1108.562 344.790, 1115.104 347.544 C 1128.166 353.041, 1129.435 340.523, 1117.265 326.235 C 1100.782 306.883, 1095.216 303.093, 1077.915 299.445 C 1034.957 290.384, 1024.548 280.481, 1016.499 241.011 C 1008.274 200.677, 1002.032 191.815, 986 197.709 M 497.954 369.469 C 494.954 371.377, 488.355 374.555, 483.288 376.532 C 477.136 378.932, 472.486 381.535, 469.288 384.368 C 466.655 386.702, 462.925 389.676, 461 390.978 C 456.131 394.271, 439.196 410.940, 437.490 414.119 C 436.716 415.560, 434.013 419.160, 431.482 422.119 C 428.951 425.079, 424.570 431.775, 421.747 437 C 418.925 442.225, 415.352 448.501, 413.808 450.946 C 407.329 461.205, 411.445 467.109, 419.294 458.815 C 422.157 455.789, 426.525 452.154, 429 450.737 C 431.475 449.319, 435.525 446.063, 438 443.501 C 440.475 440.939, 445.650 437.025, 449.500 434.802 C 453.350 432.579, 459.290 428.976, 462.700 426.795 C 466.109 424.615, 473.077 421.277, 478.184 419.379 C 483.955 417.233, 489.556 414.289, 492.984 411.598 C 496.018 409.218, 501.650 405.679, 505.500 403.736 C 516.786 398.039, 519 394.570, 519 382.584 C 519 366.414, 510.795 361.301, 497.954 369.469 M 876.045 379.752 C 873.962 380.806, 871.382 383.508, 869.545 386.558 C 860.405 401.738, 846.346 412.029, 836.721 410.585 C 828.217 409.310, 826.471 414.367, 834.075 418.248 C 842.003 422.296, 857.955 417.346, 862.616 409.392 C 864.037 406.968, 867.568 402.961, 870.463 400.488 C 876.358 395.451, 882 385.975, 882 381.110 C 882 377.520, 880.934 377.277, 876.045 379.752 M 1099.409 382.355 C 1088.132 396.487, 1088.754 411.318, 1100.880 417.425 C 1121.385 427.751, 1131.626 414.945, 1117.592 396.528 C 1116.322 394.863, 1114.044 391.025, 1112.528 388 C 1107.458 377.881, 1104.123 376.446, 1099.409 382.355 M 1162.332 426.577 C 1161.999 427.444, 1162.007 431.162, 1162.348 434.839 C 1163.161 443.581, 1161.970 447.484, 1156.551 453.831 C 1151.056 460.269, 1151.314 461.059, 1160.356 465.520 C 1178.998 474.718, 1185.466 468.580, 1176.712 450 C 1174.768 445.875, 1172.430 439.575, 1171.515 436 C 1169.006 426.189, 1164.324 421.385, 1162.332 426.577 M 110.374 456.141 C 101.703 458.090, 102.539 443.452, 102.194 599.355 C 101.837 760.852, 101.099 751.018, 113.779 753.710 C 122.629 755.589, 256.382 754.635, 259.378 752.672 C 265.892 748.404, 265.500 757.866, 265.500 605 C 265.500 448.840, 266.105 460.801, 258 456.752 C 254.048 454.777, 118.929 454.219, 110.374 456.141 M 165.401 481.905 C 152.476 487.775, 148.682 507.203, 157.438 522.679 C 164.805 535.699, 195.542 532.824, 202.119 518.500 C 212.249 496.440, 187.566 471.839, 165.401 481.905 M 837.239 522.613 C 827.596 527.485, 825.707 534.817, 831.585 544.559 C 836.024 551.916, 837.478 555.352, 840.449 565.500 C 841.737 569.900, 843.700 575.975, 844.811 579 C 846.996 584.953, 849.626 602.113, 850.557 616.500 C 851.808 635.820, 854.762 638.382, 871.829 634.944 C 884.854 632.320, 887.025 631.450, 894.770 625.748 C 899.650 622.156, 902.732 620.796, 910.146 618.964 C 926.283 614.977, 928.883 605.817, 917.512 593.013 C 915.103 590.301, 912 586.152, 910.616 583.791 C 909.232 581.431, 906.009 577.754, 903.454 575.621 C 900.900 573.487, 897.331 569.437, 895.525 566.621 C 891.163 559.822, 863.573 532.361, 858.500 529.770 C 856.300 528.646, 852.609 526.431, 850.297 524.848 C 844.907 521.156, 841.333 520.544, 837.239 522.613 M 358 528.990 C 348.936 530.646, 344.259 541.385, 343.769 561.668 C 342.960 595.108, 388.137 598.169, 409.829 566.143 C 419.609 551.703, 413.651 531.894, 398.840 529.609 C 393.426 528.774, 361.808 528.295, 358 528.990 M 806.260 562.250 C 802.140 567.481, 808.797 615.643, 814.159 619.399 C 825.276 627.185, 827.045 602.801, 817.553 572.620 C 814.228 562.047, 809.697 557.886, 806.260 562.250 M 165.500 603.496 C 149.290 609.204, 149.449 643.697, 165.718 650.629 C 185.717 659.150, 210.168 637.139, 200.972 618.891 C 193.508 604.081, 180.219 598.313, 165.500 603.496 M 1023 606.559 C 1019.425 607.285, 1012.225 608.359, 1007 608.945 C 998.991 609.845, 996.088 610.710, 988.500 614.460 C 983.550 616.907, 975.750 619.848, 971.168 620.996 C 957.811 624.344, 946.981 627.994, 940 631.503 C 936.425 633.300, 929.450 636.196, 924.500 637.939 C 919.550 639.682, 912.218 642.906, 908.206 645.104 C 903.654 647.598, 896.513 650.248, 889.206 652.155 C 875.528 655.726, 874.993 655.972, 868.720 661.583 C 864.119 665.699, 861.264 666.968, 848.782 670.445 C 838.232 673.383, 821 686.473, 821 691.549 C 821 707.859, 843.488 713.965, 866.856 704 C 893.525 692.628, 964.103 692.300, 987.675 703.440 C 1015.123 716.410, 1040.549 711.838, 1049.154 692.384 C 1058.642 670.936, 1059.682 655.370, 1053.379 629.185 C 1047.356 604.164, 1044.664 602.159, 1023 606.559 M 791.121 709.717 C 783.046 713.678, 782.310 719.654, 788.577 730.361 C 795.399 742.015, 810.389 746.678, 820.997 740.446 C 826.750 737.066, 826.236 735.777, 814.349 723.796 C 798.823 708.145, 796.812 706.927, 791.121 709.717 M 913 718.471 C 886.886 721.079, 846 732.075, 846 736.490 C 846 740.844, 857.618 742.197, 884.543 740.980 C 949.197 738.057, 952.664 737.542, 959.623 729.847 C 969.248 719.203, 950.785 714.699, 913 718.471" stroke="none" fill="#eeeeee" fill-rule="evenodd"/></svg>