<svg xmlns="http://www.w3.org/2000/svg" width="1272" height="929" viewBox="0 0 1272 929" version="1.1"><path d="M 411 131.111 C 407.425 131.493, 401.409 132.975, 397.631 134.403 C 388.881 137.711, 383.964 137.690, 377 134.315 C 362.537 127.306, 339.207 134.543, 319.170 152.254 C 307.691 162.400, 320.453 161.430, 191 162 C 86.559 162.460, 77.252 162.636, 74.391 164.203 C 66.666 168.434, 66.576 183.831, 74.250 188.215 C 76.032 189.233, 100.202 189.604, 190.500 190 C 319.820 190.567, 306.534 189.550, 318.735 199.818 C 342.085 219.467, 364.023 226.776, 377.991 219.559 C 387.183 214.810, 388.240 214.730, 398.273 218.037 C 418.148 224.587, 429.182 223.914, 440.500 215.464 C 442.150 214.232, 445.829 212.058, 448.676 210.632 C 451.523 209.207, 455.348 206.164, 457.176 203.869 C 468.795 189.287, 456.081 190.628, 588.500 190.017 C 719.692 189.411, 714.741 190.020, 712.695 174.760 C 710.969 161.898, 717.647 162.581, 588 162 C 459.574 161.424, 469.601 162.265, 460.244 151.286 C 456.794 147.239, 453.765 144.924, 449.137 142.799 C 445.637 141.192, 440.575 138.365, 437.888 136.517 C 430.138 131.186, 423.247 129.800, 411 131.111 M 1093.500 130.687 C 1064.330 133.247, 1040.752 142.221, 1031.588 154.252 C 1028.552 158.239, 1024.955 162.533, 1023.595 163.796 C 1018.990 168.072, 1002.191 194.381, 999.529 201.488 C 998.089 205.331, 994.924 211.663, 992.495 215.559 C 980.323 235.089, 975.919 256.448, 981.467 269.051 C 983.512 273.698, 985.827 280.845, 986.611 284.934 C 988.865 296.685, 1003.526 309.344, 1024.825 317.929 C 1030.031 320.028, 1035.086 323.118, 1040.124 327.282 C 1044.263 330.702, 1049.673 334.896, 1052.146 336.603 C 1064.043 344.815, 1065.452 368.962, 1055.345 391.457 C 1053.358 395.881, 1049.993 406.133, 1047.868 414.241 C 1045.743 422.348, 1041.778 434.995, 1039.057 442.346 C 1036.134 450.241, 1032.850 461.807, 1031.032 470.606 C 1029.340 478.798, 1026.393 490.225, 1024.483 496 C 1020.082 509.310, 1017.667 520.499, 1014.993 539.961 C 1010.172 575.056, 998.917 586.825, 986.620 569.629 C 984.210 566.258, 981.230 562.600, 979.999 561.500 C 978.768 560.400, 976.195 557.025, 974.282 554 C 972.369 550.975, 968.435 546.025, 965.540 543 C 962.645 539.975, 958.883 535.421, 957.180 532.881 C 955.477 530.340, 952.002 525.840, 949.457 522.881 C 946.912 519.921, 943.766 515.422, 942.465 512.882 C 941.164 510.342, 938.615 506.967, 936.800 505.382 C 934.985 503.797, 930.350 499.302, 926.500 495.393 C 922.650 491.485, 917.392 486.871, 914.816 485.141 C 912.240 483.411, 909.155 480.621, 907.959 478.942 C 897.791 464.663, 857.032 461.970, 844.804 474.769 C 839.042 480.801, 832.133 490.862, 831.032 494.824 C 828.136 505.250, 831.721 539.645, 837.410 556.017 C 840.076 563.690, 841.491 570.324, 842.993 582.188 C 845.071 598.594, 847.099 606.252, 851.922 615.899 C 855.807 623.670, 857.565 629.492, 860.480 644.225 C 861.974 651.779, 864.665 661.089, 867.102 667.134 C 878.545 695.515, 872.267 726.340, 850.500 748.645 C 829.859 769.797, 825.172 775.068, 821.750 780.978 C 815.160 792.359, 817.600 797.570, 832.142 803.176 C 837.474 805.231, 838.003 805.238, 940 804.563 C 1180.296 802.975, 1163.777 803.342, 1169.706 799.457 C 1178.558 793.657, 1178.130 773.713, 1168.920 762.790 C 1159.277 751.354, 1156.430 738.876, 1158.877 718.761 C 1159.496 713.667, 1160.679 699.375, 1161.505 687 C 1162.398 673.617, 1163.774 661.259, 1164.900 656.500 C 1165.942 652.100, 1167.105 646.475, 1167.484 644 C 1167.864 641.525, 1169.022 636.102, 1170.058 631.948 C 1172.096 623.775, 1174.193 606.583, 1176.516 579 C 1177.979 561.625, 1180.104 544.009, 1182.125 532.500 C 1184.096 521.275, 1190.104 511.944, 1200 504.737 C 1209.365 497.917, 1209.976 493.355, 1210.010 430 C 1210.064 328.526, 1206.599 275.924, 1198.521 255.607 C 1195.636 248.350, 1194.434 242.975, 1193.560 233.423 C 1192.364 220.349, 1188.676 208.383, 1181.611 194.651 C 1177.975 187.583, 1175 181.268, 1175 180.617 C 1175 173.791, 1144.184 145.148, 1129.040 137.898 C 1114.030 130.711, 1107.749 129.437, 1093.500 130.687 M 1084.500 157.935 C 1061.065 162.086, 1051.569 167.214, 1042.340 180.701 C 1035.578 190.584, 1064.828 208.075, 1089.563 208.939 C 1101.551 209.358, 1106.152 209.881, 1107.697 211 C 1124.917 223.477, 1128.332 228.511, 1128.389 241.500 C 1128.428 250.597, 1128.120 251.358, 1118.467 266 C 1111.767 276.163, 1103.790 293.697, 1101.406 303.500 C 1100.054 309.059, 1098.961 352.042, 1097.695 449.500 C 1097.480 466.027, 1098.727 470.467, 1103.398 469.800 C 1107.507 469.213, 1109.060 463.489, 1110.054 445.277 C 1110.899 429.792, 1112.808 409.372, 1114.972 392.684 C 1117.316 374.608, 1138.201 358.284, 1151.784 363.911 C 1170.519 371.671, 1175.086 385.703, 1174.760 434.500 C 1174.484 475.845, 1174.650 477.545, 1179.236 480.394 C 1185.297 484.159, 1185.472 482.510, 1185.789 418.723 C 1186.240 328.170, 1185.294 306.496, 1180.240 291.500 C 1178.015 284.900, 1175.894 277.025, 1175.526 274 C 1174.293 263.860, 1168.916 230.544, 1167.859 226.500 C 1167.285 224.300, 1164.635 218.900, 1161.972 214.500 C 1159.308 210.100, 1156.368 203.800, 1155.437 200.500 C 1147.024 170.650, 1116.413 152.282, 1084.500 157.935 M 355.691 159.451 C 333.572 165.759, 330.011 181.880, 348.769 190.788 C 365.099 198.543, 375.636 193.826, 376.749 178.262 C 377.849 162.896, 369.564 155.495, 355.691 159.451 M 413.500 159.659 C 389.520 172.278, 407.280 204.069, 431.500 191.880 C 440.064 187.570, 442.655 181.257, 439.788 171.688 C 436.767 161.604, 422.344 155.004, 413.500 159.659 M 1038.217 222.673 C 1037.511 222.957, 1035.598 225.835, 1033.965 229.070 C 1030.380 236.171, 1027.353 238, 1019.185 238 C 1001.255 238, 1002.952 268.458, 1021.838 285.621 C 1031.285 294.206, 1033.971 296.051, 1041.211 298.930 C 1044.352 300.179, 1049.695 303.426, 1053.084 306.146 C 1070.409 320.050, 1074.609 318.781, 1077.566 298.748 C 1079.668 284.509, 1081.762 277.605, 1085.469 272.705 C 1089.435 267.461, 1099 248.037, 1099 245.228 C 1099 240.364, 1094.635 238.265, 1081.038 236.591 C 1070.941 235.348, 1068.893 234.702, 1055.775 228.615 C 1041.526 222.004, 1040.634 221.702, 1038.217 222.673 M 1137.681 466.267 C 1136.771 466.945, 1134.900 470.827, 1133.524 474.894 C 1121.426 510.638, 1090.571 513.235, 1072.568 480.024 C 1062.715 461.848, 1057.921 464.700, 1052.054 492.226 C 1050.328 500.325, 1046.944 512.700, 1044.534 519.726 C 1040.338 531.962, 1037.790 543.702, 1034.584 565.566 C 1033.194 575.043, 1025.081 602.075, 1021.615 608.778 C 1014.944 621.677, 994.640 620.966, 985 607.495 C 983.075 604.805, 979.418 600.537, 976.872 598.011 C 974.327 595.484, 971.077 591.112, 969.649 588.294 C 968.221 585.477, 964.643 580.545, 961.697 577.336 C 958.751 574.126, 954.472 568.725, 952.189 565.332 C 949.906 561.940, 946.280 557.135, 944.133 554.653 C 941.985 552.172, 938.845 547.725, 937.155 544.771 C 935.465 541.818, 932.239 537.920, 929.986 536.109 C 927.733 534.299, 924.677 530.883, 923.195 528.518 C 919.908 523.274, 906.052 508.870, 895.605 499.838 C 878.449 485.004, 860.767 488.865, 857.149 508.234 C 856.304 512.757, 857.425 522.769, 861.941 551 C 863.041 557.875, 864.670 569.575, 865.563 577 C 867.346 591.838, 867.917 593.655, 873.930 603.625 C 878.658 611.465, 879.347 613.687, 881.452 627.900 C 882.610 635.718, 883.985 640.455, 886.994 646.986 C 899.407 673.934, 899.267 723.687, 886.739 737.622 C 884.822 739.755, 881.598 744.798, 879.574 748.829 C 877.551 752.860, 874.174 758.035, 872.071 760.329 C 851.020 783.288, 844.584 782.304, 1009 781.281 C 1161.962 780.329, 1152.187 782.646, 1133.768 751.714 C 1129.063 743.812, 1128.760 733.330, 1132.899 721.628 C 1135.076 715.475, 1137.150 700.356, 1139.503 673.500 C 1140.275 664.700, 1141.388 652.110, 1141.977 645.521 C 1143.165 632.239, 1146.016 614.964, 1149.161 602 C 1151.247 593.398, 1153.131 577.601, 1155.004 553 C 1155.569 545.575, 1156.475 535.096, 1157.016 529.714 C 1158.743 512.537, 1156.384 499.040, 1149.025 484 C 1147.544 480.975, 1145.313 475.930, 1144.066 472.789 C 1141.349 465.942, 1139.985 464.550, 1137.681 466.267 M 375.500 632.716 C 373.850 632.945, 367.671 634.233, 361.768 635.579 C 355.865 636.924, 345.351 639.156, 338.404 640.539 C 324.149 643.375, 323.144 643.784, 317.277 649.138 C 314.954 651.258, 309.329 654.734, 304.777 656.863 C 300.224 658.992, 293.632 663.064, 290.127 665.912 C 286.622 668.760, 281.672 672.151, 279.127 673.446 C 273.895 676.110, 271.457 678.530, 267.485 685 C 265.965 687.475, 262.719 691.661, 260.271 694.303 C 257.741 697.033, 254.067 702.859, 251.757 707.803 C 249.521 712.586, 246.243 718.300, 244.471 720.500 C 239.538 726.625, 238.025 730.304, 235.900 741.340 C 234.824 746.928, 232.756 756.880, 231.304 763.455 C 226.612 784.698, 232.670 801.038, 246.679 804.928 C 255.073 807.259, 528.057 806.325, 534.421 803.944 C 545.090 799.952, 547.227 794.062, 542.071 782.862 C 539.701 777.715, 538.940 774.209, 538.084 764.500 C 536.897 751.030, 535.042 742.862, 531.500 735.500 C 525.969 724.006, 516.671 708.260, 513.482 704.988 C 511.599 703.056, 508.660 698.588, 506.950 695.059 C 503.016 686.937, 492.662 676.077, 484 670.987 C 480.425 668.886, 475.925 665.514, 474 663.493 C 472.075 661.472, 467.889 658.491, 464.697 656.868 C 461.505 655.245, 456.206 651.939, 452.921 649.521 C 445.069 643.740, 439.527 641.803, 421.500 638.538 C 413.250 637.044, 402.450 634.968, 397.500 633.926 C 388.998 632.136, 382.323 631.769, 375.500 632.716 M 366.500 659.649 C 364.850 659.842, 359.225 660.487, 354 661.084 C 338.587 662.844, 335.522 663.777, 328.746 668.774 C 325.311 671.308, 318.900 675.583, 314.500 678.273 C 310.100 680.964, 305.150 684.413, 303.500 685.938 C 301.850 687.462, 298.315 690.180, 295.644 691.976 C 292.974 693.772, 289.374 697.292, 287.644 699.797 C 285.915 702.303, 282.591 706.535, 280.258 709.201 C 277.924 711.868, 275.062 715.951, 273.897 718.275 C 272.732 720.599, 269.080 726.243, 265.781 730.818 C 258.946 740.297, 257.661 744.156, 255.922 760.430 C 254.517 773.582, 255.650 777.657, 261.478 780.423 C 265.945 782.542, 504.779 782.831, 509 780.721 C 517.320 776.564, 516.928 759.776, 508.171 745.282 C 505.877 741.487, 502.900 735.573, 501.555 732.141 C 500.050 728.299, 497.194 723.805, 494.128 720.449 C 491.388 717.451, 487.684 712.411, 485.898 709.249 C 481.190 700.916, 479.632 699.139, 472.122 693.539 C 468.405 690.768, 462.920 686.559, 459.932 684.187 C 456.944 681.816, 451.545 678.630, 447.933 677.108 C 444.321 675.586, 438.824 672.422, 435.717 670.076 C 424.607 661.688, 391.629 656.720, 366.500 659.649" stroke="none" fill="#6f6f6f" fill-rule="evenodd"/><path d="M 38.500 29.501 C 33.629 31.227, 30.412 34.755, 29.030 39.890 C 26.706 48.521, 28.189 888.971, 30.535 892.965 C 31.655 894.870, 34.130 897.345, 36.035 898.465 C 41.519 901.686, 1230.481 901.686, 1235.965 898.465 C 1237.870 897.345, 1240.345 894.870, 1241.465 892.965 C 1244.685 887.482, 1244.685 41.518, 1241.465 36.035 C 1240.345 34.130, 1237.870 31.655, 1235.965 30.535 C 1231.398 27.853, 46.044 26.829, 38.500 29.501 M 411 131.111 C 407.425 131.493, 401.409 132.975, 397.631 134.403 C 388.881 137.711, 383.964 137.690, 377 134.315 C 362.537 127.306, 339.207 134.543, 319.170 152.254 C 307.691 162.400, 320.453 161.430, 191 162 C 86.559 162.460, 77.252 162.636, 74.391 164.203 C 66.666 168.434, 66.576 183.831, 74.250 188.215 C 76.032 189.233, 100.202 189.604, 190.500 190 C 319.820 190.567, 306.534 189.550, 318.735 199.818 C 342.085 219.467, 364.023 226.776, 377.991 219.559 C 387.183 214.810, 388.240 214.730, 398.273 218.037 C 418.148 224.587, 429.182 223.914, 440.500 215.464 C 442.150 214.232, 445.829 212.058, 448.676 210.632 C 451.523 209.207, 455.348 206.164, 457.176 203.869 C 468.795 189.287, 456.081 190.628, 588.500 190.017 C 719.692 189.411, 714.741 190.020, 712.695 174.760 C 710.969 161.898, 717.647 162.581, 588 162 C 459.574 161.424, 469.601 162.265, 460.244 151.286 C 456.794 147.239, 453.765 144.924, 449.137 142.799 C 445.637 141.192, 440.575 138.365, 437.888 136.517 C 430.138 131.186, 423.247 129.800, 411 131.111 M 1093.500 130.687 C 1064.330 133.247, 1040.752 142.221, 1031.588 154.252 C 1028.552 158.239, 1024.955 162.533, 1023.595 163.796 C 1018.990 168.072, 1002.191 194.381, 999.529 201.488 C 998.089 205.331, 994.924 211.663, 992.495 215.559 C 980.323 235.089, 975.919 256.448, 981.467 269.051 C 983.512 273.698, 985.827 280.845, 986.611 284.934 C 988.865 296.685, 1003.526 309.344, 1024.825 317.929 C 1030.031 320.028, 1035.086 323.118, 1040.124 327.282 C 1044.263 330.702, 1049.673 334.896, 1052.146 336.603 C 1064.043 344.815, 1065.452 368.962, 1055.345 391.457 C 1053.358 395.881, 1049.993 406.133, 1047.868 414.241 C 1045.743 422.348, 1041.778 434.995, 1039.057 442.346 C 1036.134 450.241, 1032.850 461.807, 1031.032 470.606 C 1029.340 478.798, 1026.393 490.225, 1024.483 496 C 1020.082 509.310, 1017.667 520.499, 1014.993 539.961 C 1010.172 575.056, 998.917 586.825, 986.620 569.629 C 984.210 566.258, 981.230 562.600, 979.999 561.500 C 978.768 560.400, 976.195 557.025, 974.282 554 C 972.369 550.975, 968.435 546.025, 965.540 543 C 962.645 539.975, 958.883 535.421, 957.180 532.881 C 955.477 530.340, 952.002 525.840, 949.457 522.881 C 946.912 519.921, 943.766 515.422, 942.465 512.882 C 941.164 510.342, 938.615 506.967, 936.800 505.382 C 934.985 503.797, 930.350 499.302, 926.500 495.393 C 922.650 491.485, 917.392 486.871, 914.816 485.141 C 912.240 483.411, 909.155 480.621, 907.959 478.942 C 897.791 464.663, 857.032 461.970, 844.804 474.769 C 839.042 480.801, 832.133 490.862, 831.032 494.824 C 828.136 505.250, 831.721 539.645, 837.410 556.017 C 840.076 563.690, 841.491 570.324, 842.993 582.188 C 845.071 598.594, 847.099 606.252, 851.922 615.899 C 855.807 623.670, 857.565 629.492, 860.480 644.225 C 861.974 651.779, 864.665 661.089, 867.102 667.134 C 878.545 695.515, 872.267 726.340, 850.500 748.645 C 829.859 769.797, 825.172 775.068, 821.750 780.978 C 815.160 792.359, 817.600 797.570, 832.142 803.176 C 837.474 805.231, 838.003 805.238, 940 804.563 C 1180.296 802.975, 1163.777 803.342, 1169.706 799.457 C 1178.558 793.657, 1178.130 773.713, 1168.920 762.790 C 1159.277 751.354, 1156.430 738.876, 1158.877 718.761 C 1159.496 713.667, 1160.679 699.375, 1161.505 687 C 1162.398 673.617, 1163.774 661.259, 1164.900 656.500 C 1165.942 652.100, 1167.105 646.475, 1167.484 644 C 1167.864 641.525, 1169.022 636.102, 1170.058 631.948 C 1172.096 623.775, 1174.193 606.583, 1176.516 579 C 1177.979 561.625, 1180.104 544.009, 1182.125 532.500 C 1184.096 521.275, 1190.104 511.944, 1200 504.737 C 1209.365 497.917, 1209.976 493.355, 1210.010 430 C 1210.064 328.526, 1206.599 275.924, 1198.521 255.607 C 1195.636 248.350, 1194.434 242.975, 1193.560 233.423 C 1192.364 220.349, 1188.676 208.383, 1181.611 194.651 C 1177.975 187.583, 1175 181.268, 1175 180.617 C 1175 173.791, 1144.184 145.148, 1129.040 137.898 C 1114.030 130.711, 1107.749 129.437, 1093.500 130.687 M 1084.500 157.935 C 1061.065 162.086, 1051.569 167.214, 1042.340 180.701 C 1035.578 190.584, 1064.828 208.075, 1089.563 208.939 C 1101.551 209.358, 1106.152 209.881, 1107.697 211 C 1124.917 223.477, 1128.332 228.511, 1128.389 241.500 C 1128.428 250.597, 1128.120 251.358, 1118.467 266 C 1111.767 276.163, 1103.790 293.697, 1101.406 303.500 C 1100.054 309.059, 1098.961 352.042, 1097.695 449.500 C 1097.480 466.027, 1098.727 470.467, 1103.398 469.800 C 1107.507 469.213, 1109.060 463.489, 1110.054 445.277 C 1110.899 429.792, 1112.808 409.372, 1114.972 392.684 C 1117.316 374.608, 1138.201 358.284, 1151.784 363.911 C 1170.519 371.671, 1175.086 385.703, 1174.760 434.500 C 1174.484 475.845, 1174.650 477.545, 1179.236 480.394 C 1185.297 484.159, 1185.472 482.510, 1185.789 418.723 C 1186.240 328.170, 1185.294 306.496, 1180.240 291.500 C 1178.015 284.900, 1175.894 277.025, 1175.526 274 C 1174.293 263.860, 1168.916 230.544, 1167.859 226.500 C 1167.285 224.300, 1164.635 218.900, 1161.972 214.500 C 1159.308 210.100, 1156.368 203.800, 1155.437 200.500 C 1147.024 170.650, 1116.413 152.282, 1084.500 157.935 M 355.691 159.451 C 333.572 165.759, 330.011 181.880, 348.769 190.788 C 365.099 198.543, 375.636 193.826, 376.749 178.262 C 377.849 162.896, 369.564 155.495, 355.691 159.451 M 413.500 159.659 C 389.520 172.278, 407.280 204.069, 431.500 191.880 C 440.064 187.570, 442.655 181.257, 439.788 171.688 C 436.767 161.604, 422.344 155.004, 413.500 159.659 M 1038.217 222.673 C 1037.511 222.957, 1035.598 225.835, 1033.965 229.070 C 1030.380 236.171, 1027.353 238, 1019.185 238 C 1001.255 238, 1002.952 268.458, 1021.838 285.621 C 1031.285 294.206, 1033.971 296.051, 1041.211 298.930 C 1044.352 300.179, 1049.695 303.426, 1053.084 306.146 C 1070.409 320.050, 1074.609 318.781, 1077.566 298.748 C 1079.668 284.509, 1081.762 277.605, 1085.469 272.705 C 1089.435 267.461, 1099 248.037, 1099 245.228 C 1099 240.364, 1094.635 238.265, 1081.038 236.591 C 1070.941 235.348, 1068.893 234.702, 1055.775 228.615 C 1041.526 222.004, 1040.634 221.702, 1038.217 222.673 M 1137.681 466.267 C 1136.771 466.945, 1134.900 470.827, 1133.524 474.894 C 1121.426 510.638, 1090.571 513.235, 1072.568 480.024 C 1062.715 461.848, 1057.921 464.700, 1052.054 492.226 C 1050.328 500.325, 1046.944 512.700, 1044.534 519.726 C 1040.338 531.962, 1037.790 543.702, 1034.584 565.566 C 1033.194 575.043, 1025.081 602.075, 1021.615 608.778 C 1014.944 621.677, 994.640 620.966, 985 607.495 C 983.075 604.805, 979.418 600.537, 976.872 598.011 C 974.327 595.484, 971.077 591.112, 969.649 588.294 C 968.221 585.477, 964.643 580.545, 961.697 577.336 C 958.751 574.126, 954.472 568.725, 952.189 565.332 C 949.906 561.940, 946.280 557.135, 944.133 554.653 C 941.985 552.172, 938.845 547.725, 937.155 544.771 C 935.465 541.818, 932.239 537.920, 929.986 536.109 C 927.733 534.299, 924.677 530.883, 923.195 528.518 C 919.908 523.274, 906.052 508.870, 895.605 499.838 C 878.449 485.004, 860.767 488.865, 857.149 508.234 C 856.304 512.757, 857.425 522.769, 861.941 551 C 863.041 557.875, 864.670 569.575, 865.563 577 C 867.346 591.838, 867.917 593.655, 873.930 603.625 C 878.658 611.465, 879.347 613.687, 881.452 627.900 C 882.610 635.718, 883.985 640.455, 886.994 646.986 C 899.407 673.934, 899.267 723.687, 886.739 737.622 C 884.822 739.755, 881.598 744.798, 879.574 748.829 C 877.551 752.860, 874.174 758.035, 872.071 760.329 C 851.020 783.288, 844.584 782.304, 1009 781.281 C 1161.962 780.329, 1152.187 782.646, 1133.768 751.714 C 1129.063 743.812, 1128.760 733.330, 1132.899 721.628 C 1135.076 715.475, 1137.150 700.356, 1139.503 673.500 C 1140.275 664.700, 1141.388 652.110, 1141.977 645.521 C 1143.165 632.239, 1146.016 614.964, 1149.161 602 C 1151.247 593.398, 1153.131 577.601, 1155.004 553 C 1155.569 545.575, 1156.475 535.096, 1157.016 529.714 C 1158.743 512.537, 1156.384 499.040, 1149.025 484 C 1147.544 480.975, 1145.313 475.930, 1144.066 472.789 C 1141.349 465.942, 1139.985 464.550, 1137.681 466.267 M 375.500 632.716 C 373.850 632.945, 367.671 634.233, 361.768 635.579 C 355.865 636.924, 345.351 639.156, 338.404 640.539 C 324.149 643.375, 323.144 643.784, 317.277 649.138 C 314.954 651.258, 309.329 654.734, 304.777 656.863 C 300.224 658.992, 293.632 663.064, 290.127 665.912 C 286.622 668.760, 281.672 672.151, 279.127 673.446 C 273.895 676.110, 271.457 678.530, 267.485 685 C 265.965 687.475, 262.719 691.661, 260.271 694.303 C 257.741 697.033, 254.067 702.859, 251.757 707.803 C 249.521 712.586, 246.243 718.300, 244.471 720.500 C 239.538 726.625, 238.025 730.304, 235.900 741.340 C 234.824 746.928, 232.756 756.880, 231.304 763.455 C 226.612 784.698, 232.670 801.038, 246.679 804.928 C 255.073 807.259, 528.057 806.325, 534.421 803.944 C 545.090 799.952, 547.227 794.062, 542.071 782.862 C 539.701 777.715, 538.940 774.209, 538.084 764.500 C 536.897 751.030, 535.042 742.862, 531.500 735.500 C 525.969 724.006, 516.671 708.260, 513.482 704.988 C 511.599 703.056, 508.660 698.588, 506.950 695.059 C 503.016 686.937, 492.662 676.077, 484 670.987 C 480.425 668.886, 475.925 665.514, 474 663.493 C 472.075 661.472, 467.889 658.491, 464.697 656.868 C 461.505 655.245, 456.206 651.939, 452.921 649.521 C 445.069 643.740, 439.527 641.803, 421.500 638.538 C 413.250 637.044, 402.450 634.968, 397.500 633.926 C 388.998 632.136, 382.323 631.769, 375.500 632.716 M 366.500 659.649 C 364.850 659.842, 359.225 660.487, 354 661.084 C 338.587 662.844, 335.522 663.777, 328.746 668.774 C 325.311 671.308, 318.900 675.583, 314.500 678.273 C 310.100 680.964, 305.150 684.413, 303.500 685.938 C 301.850 687.462, 298.315 690.180, 295.644 691.976 C 292.974 693.772, 289.374 697.292, 287.644 699.797 C 285.915 702.303, 282.591 706.535, 280.258 709.201 C 277.924 711.868, 275.062 715.951, 273.897 718.275 C 272.732 720.599, 269.080 726.243, 265.781 730.818 C 258.946 740.297, 257.661 744.156, 255.922 760.430 C 254.517 773.582, 255.650 777.657, 261.478 780.423 C 265.945 782.542, 504.779 782.831, 509 780.721 C 517.320 776.564, 516.928 759.776, 508.171 745.282 C 505.877 741.487, 502.900 735.573, 501.555 732.141 C 500.050 728.299, 497.194 723.805, 494.128 720.449 C 491.388 717.451, 487.684 712.411, 485.898 709.249 C 481.190 700.916, 479.632 699.139, 472.122 693.539 C 468.405 690.768, 462.920 686.559, 459.932 684.187 C 456.944 681.816, 451.545 678.630, 447.933 677.108 C 444.321 675.586, 438.824 672.422, 435.717 670.076 C 424.607 661.688, 391.629 656.720, 366.500 659.649" stroke="none" fill="#f4f4f4" fill-rule="evenodd"/></svg>