<svg xmlns="http://www.w3.org/2000/svg" width="1272" height="594" viewBox="0 0 1272 594" version="1.1"><path d="M 639.836 92.940 C 627.370 95.380, 624.465 101.929, 625.956 124.228 C 626.518 132.628, 627.437 152.550, 627.999 168.500 C 629.266 204.456, 631.937 245.607, 635.953 291.032 C 643.733 379.035, 639.208 415.083, 617.406 438.776 C 608.536 448.416, 579.542 466.070, 564.500 470.990 C 560.650 472.249, 555.011 474.524, 551.969 476.044 C 548.927 477.564, 542.325 479.935, 537.298 481.312 C 532.270 482.690, 524.587 485.429, 520.225 487.399 C 515.862 489.368, 508.064 491.874, 502.896 492.967 C 497.728 494.060, 489.796 496.072, 485.268 497.439 C 480.661 498.830, 470.549 500.635, 462.303 501.538 C 440.006 503.982, 433 508.420, 433 520.102 C 433 544.614, 461.295 548.602, 524.500 532.998 C 548.768 527.007, 609.690 527.797, 632.630 534.400 C 684.223 549.252, 707.980 535.739, 700.042 496.058 C 698.893 490.314, 697.272 476.364, 696.438 465.058 C 695.605 453.751, 694.485 438.875, 693.950 432 C 691.359 398.737, 690.924 386.953, 691.510 366 C 691.856 353.625, 692.559 316.950, 693.071 284.500 C 693.583 252.050, 694.440 213.125, 694.974 198 C 698.599 95.389, 698.760 97.914, 688.327 93.936 C 685.483 92.852, 644.579 92.012, 639.836 92.940 M 126.369 94.493 C 117.432 96.436, 107.734 102.009, 96 111.944 C 92.975 114.505, 88.025 118.088, 85 119.906 C 69.530 129.205, 69.688 135.387, 85.601 143.330 C 102.573 151.803, 105.135 157.557, 105.948 189.036 C 106.623 215.132, 107.289 217.336, 123.462 247 C 124.811 249.475, 127.440 254.650, 129.304 258.500 C 135.369 271.028, 162.593 324.377, 165.306 329.050 C 166.759 331.553, 168.648 335.584, 169.503 338.008 C 170.358 340.432, 172.362 344.459, 173.957 346.957 C 175.552 349.456, 177.801 353.975, 178.954 357 C 180.107 360.025, 182.819 366.100, 184.980 370.500 C 194.287 389.450, 196.496 403.794, 192.678 420.500 C 191.295 426.550, 189.627 434.200, 188.971 437.500 C 188.315 440.800, 185.852 447.775, 183.498 453 C 181.143 458.225, 178.431 464.975, 177.470 468 C 176.509 471.025, 174.723 475.525, 173.501 478 C 172.278 480.475, 170.250 485.650, 168.993 489.500 C 158.121 522.806, 154.389 525.699, 121.500 526.319 C 99.276 526.738, 96.153 527.310, 93.433 531.461 C 90.177 536.431, 94.528 541.843, 103 543.359 C 107.995 544.253, 252.532 544.384, 258.277 543.500 C 271.854 541.411, 274.455 530.844, 262.226 527.455 C 245.250 522.750, 244.759 520.134, 256.225 495.500 C 269.990 465.927, 272.144 454.764, 268.577 431.500 C 266.269 416.449, 267.211 415.718, 291 414.114 C 368.611 408.883, 395.159 387.151, 359.527 358.019 C 347.537 348.216, 333.805 333.151, 330.138 325.778 C 328.328 322.138, 323.700 314.325, 319.854 308.416 C 316.007 302.507, 311.365 294.709, 309.536 291.086 C 299.527 271.251, 292.410 261.550, 273.524 242 C 266.351 234.575, 255.792 222.268, 250.059 214.652 C 240.136 201.468, 236.310 197.541, 219 182.784 C 210.232 175.309, 206.761 169.654, 204.400 159 C 203.487 154.875, 201.640 148.575, 200.297 145 C 198.954 141.425, 196.750 135.035, 195.400 130.800 C 192.121 120.517, 178.680 106.234, 164.293 97.745 C 156.537 93.169, 139.264 91.688, 126.369 94.493 M 850.458 96.863 C 848.785 97.883, 845.410 101.078, 842.958 103.963 C 835.127 113.178, 833.313 114.883, 830.628 115.557 C 826.046 116.707, 823.330 115.188, 817.337 108.126 C 800.033 87.730, 791.281 91.097, 773.283 125.077 C 759.937 150.274, 772.905 155.547, 789.076 131.500 C 797.608 118.814, 800.550 118.740, 812.155 130.922 C 825.124 144.537, 831.334 144.587, 842.565 131.168 C 854.846 116.494, 859.447 116.362, 870.878 130.351 C 882.760 144.891, 889.669 144.832, 902.995 130.074 C 915.030 116.745, 920.467 116.962, 930.106 131.157 C 939.396 144.837, 949.241 144.852, 959.695 131.202 C 971.261 116.102, 974.663 116.151, 989.500 131.633 C 1002.260 144.947, 1009.399 144.819, 1019.236 131.099 C 1029.244 117.140, 1035.919 116.991, 1046.937 130.481 C 1058.919 145.150, 1068.495 144.723, 1079.924 129.009 C 1089.852 115.360, 1094.429 116.064, 1107.481 133.247 C 1116.437 145.037, 1125.113 144.135, 1137.818 130.090 C 1148.182 118.633, 1152.604 119.002, 1160.490 131.984 C 1173.029 152.626, 1188.515 150.037, 1178.426 128.986 C 1161.444 93.549, 1151.592 88.295, 1134.972 105.808 C 1122.294 119.167, 1120.792 119.146, 1107.500 105.420 C 1094.973 92.485, 1087.616 91.515, 1079.297 101.702 C 1065.189 118.977, 1060.052 119.597, 1049.595 105.284 C 1039.437 91.379, 1027.180 91.603, 1017.167 105.878 C 1007.320 119.915, 1002.064 119.661, 990.054 104.568 C 979.403 91.182, 970.583 91.418, 959.018 105.400 C 947.853 118.898, 944.546 118.910, 931.569 105.499 C 918.566 92.062, 911.834 91.424, 902.287 102.724 C 887.820 119.849, 883.957 120.206, 873.389 105.396 C 866.404 95.608, 857.779 92.398, 850.458 96.863 M 652.500 107.651 C 645.471 109.560, 642.539 117.085, 643.420 130.953 C 643.754 136.204, 644.475 153.325, 645.023 169 C 645.571 184.675, 646.672 205.600, 647.470 215.500 C 663.312 412.056, 660.346 430.039, 605.851 467.787 C 588.362 479.901, 583.347 482.594, 569.992 487.043 C 563.183 489.311, 555 492.486, 551.806 494.098 C 548.613 495.710, 543 497.725, 539.333 498.575 C 531.781 500.326, 529.697 501.296, 520.006 507.565 C 508.719 514.866, 509.624 515.548, 528.387 513.871 C 567.884 510.343, 618.827 512.636, 639.016 518.851 C 674.888 529.893, 687.316 523.345, 682.642 495.864 C 681.766 490.714, 680.599 479.975, 680.049 472 C 678.861 454.785, 677.429 437.990, 675.401 417.500 C 673.004 393.290, 673.954 273.093, 676.937 223 C 680.066 170.472, 680.680 119.855, 678.248 115.034 C 675.295 109.179, 661.470 105.215, 652.500 107.651 M 132.328 110.875 C 126.907 113.418, 124.597 116.891, 125.523 121.105 C 126.182 124.106, 126.085 124.249, 123.861 123.565 C 118.499 121.915, 116.840 121.824, 113.958 123.017 C 105.612 126.474, 105.253 131.632, 112.533 143.500 C 120.732 156.868, 121.993 161.893, 122.033 181.355 C 122.077 203.433, 123.028 209.837, 127.539 218.464 C 129.563 222.334, 132.083 227.689, 133.140 230.364 C 134.196 233.039, 136.446 237.241, 138.139 239.703 C 139.833 242.164, 142.282 246.891, 143.582 250.209 C 144.882 253.526, 147.274 258.323, 148.897 260.870 C 150.521 263.416, 152.766 267.931, 153.886 270.902 C 155.007 273.873, 157.678 278.823, 159.822 281.902 C 161.967 284.981, 164.299 289.300, 165.006 291.500 C 166.345 295.670, 168.941 301.119, 180.726 324.500 C 198.377 359.519, 206.852 370.527, 221.491 377.452 C 224.749 378.994, 229.695 381.769, 232.482 383.620 C 235.270 385.471, 241.590 388.292, 246.525 389.888 C 251.461 391.485, 258.076 393.739, 261.225 394.896 C 277.711 400.955, 345.442 393.345, 351.457 384.759 C 354.758 380.045, 353.580 377.106, 345.154 369.025 C 330.675 355.139, 312.649 332.034, 305.763 318.534 C 304.631 316.315, 301.598 311.350, 299.024 307.500 C 296.449 303.650, 291.678 295.644, 288.422 289.708 C 271.313 258.528, 258.688 249.252, 244.007 257.077 C 232.345 263.292, 227.722 272.254, 229.936 284.346 C 234.440 308.941, 226.777 324.140, 211.968 319.987 C 200.392 316.739, 170.098 286.605, 167.935 276.185 C 167.298 273.121, 164.800 266.763, 162.382 262.057 C 147.886 233.842, 154.328 206.308, 175.909 204.235 C 186.831 203.185, 188.384 209.664, 179.466 219.080 C 170.026 229.049, 170.020 235.517, 179.434 256 C 181.836 261.225, 184.534 267.793, 185.429 270.595 C 189.601 283.646, 207.373 297.777, 211.028 290.948 C 211.772 289.557, 211.899 284.724, 211.421 275.927 C 210.457 258.201, 210.997 257.060, 224.682 247.878 C 245.069 234.200, 244.247 230.833, 213.007 200 C 192.378 179.641, 191.723 178.718, 188.986 166.178 C 180.027 125.130, 154.681 100.390, 132.328 110.875 M 948.756 269.040 C 884.118 285.113, 868.302 363.753, 920.640 408.838 C 931.178 417.915, 932.022 414.152, 909.088 460.322 C 883.854 511.124, 882.381 517.975, 895.262 524.636 C 908.515 531.489, 914.152 523.377, 935.657 466.500 C 937.529 461.550, 940.582 453.900, 942.441 449.500 C 944.300 445.100, 946.620 438.907, 947.597 435.739 C 950.517 426.265, 956.253 423.145, 962.078 427.862 C 964.360 429.710, 964.368 429.802, 963.217 440.612 C 961.017 461.275, 960.496 528.803, 962.499 533.754 C 969.273 550.497, 987.223 544.311, 988.705 524.723 C 989.640 512.352, 987.078 444.311, 985.401 437 C 983.592 429.108, 984.127 426.503, 987.965 424.518 C 995.554 420.594, 998.768 422.951, 1001.575 434.500 C 1002.511 438.350, 1004.840 444.875, 1006.751 449 C 1008.662 453.125, 1011.925 461.225, 1014.003 467 C 1034.533 524.057, 1047.824 539.250, 1060.102 519.696 C 1065.082 511.764, 1036.220 444.144, 1019.043 423.500 C 1011.980 415.011, 1012.166 413.506, 1021.386 404.619 C 1049.757 377.273, 1057.139 333.333, 1037.870 306.500 C 1036.290 304.300, 1032.752 299.324, 1030.007 295.442 C 1024.587 287.778, 1010.805 276.428, 1003.500 273.614 C 983.782 266.017, 966.664 264.587, 948.756 269.040 M 951.921 285.866 C 888.897 303.918, 891.017 384.667, 955.065 405.616 C 976.036 412.475, 1012.798 396.780, 1023.260 376.500 C 1049.157 326.302, 1005.295 270.577, 951.921 285.866 M 216.072 400.928 C 214.990 402.010, 213.861 404.970, 213.499 407.678 C 212.195 417.420, 204.842 444.060, 200.612 454.365 C 198.776 458.839, 196.474 464.975, 195.497 468 C 194.520 471.025, 192.271 476.425, 190.500 480 C 188.729 483.575, 186.480 488.975, 185.503 492 C 184.526 495.025, 182.213 501.187, 180.363 505.693 C 173.378 522.710, 176.643 526.015, 200.399 525.978 C 220.901 525.946, 225.507 523.564, 231.086 510.108 C 232.820 505.923, 235.320 500.645, 236.640 498.377 C 237.960 496.110, 240.330 490.485, 241.907 485.877 C 243.483 481.270, 246.159 474.604, 247.854 471.065 C 257.683 450.536, 254.919 430.082, 240.040 413.253 C 228.453 400.145, 220.793 396.207, 216.072 400.928" stroke="none" fill="#747474" fill-rule="evenodd"/><path d="M 38.500 29.501 C 33.626 31.228, 30.412 34.756, 29.027 39.901 C 28.314 42.549, 28.066 124.247, 28.242 298.635 C 28.533 586.368, 27.682 557.557, 36.035 562.465 C 41.519 565.686, 1230.481 565.686, 1235.965 562.465 C 1244.326 557.552, 1243.500 586.710, 1243.500 296.500 C 1243.500 6.290, 1244.326 35.448, 1235.965 30.535 C 1231.398 27.853, 46.044 26.829, 38.500 29.501 M 639.836 92.940 C 627.370 95.380, 624.465 101.929, 625.956 124.228 C 626.518 132.628, 627.437 152.550, 627.999 168.500 C 629.266 204.456, 631.937 245.607, 635.953 291.032 C 643.733 379.035, 639.208 415.083, 617.406 438.776 C 608.536 448.416, 579.542 466.070, 564.500 470.990 C 560.650 472.249, 555.011 474.524, 551.969 476.044 C 548.927 477.564, 542.325 479.935, 537.298 481.312 C 532.270 482.690, 524.587 485.429, 520.225 487.399 C 515.862 489.368, 508.064 491.874, 502.896 492.967 C 497.728 494.060, 489.796 496.072, 485.268 497.439 C 480.661 498.830, 470.549 500.635, 462.303 501.538 C 440.006 503.982, 433 508.420, 433 520.102 C 433 544.614, 461.295 548.602, 524.500 532.998 C 548.768 527.007, 609.690 527.797, 632.630 534.400 C 684.223 549.252, 707.980 535.739, 700.042 496.058 C 698.893 490.314, 697.272 476.364, 696.438 465.058 C 695.605 453.751, 694.485 438.875, 693.950 432 C 691.359 398.737, 690.924 386.953, 691.510 366 C 691.856 353.625, 692.559 316.950, 693.071 284.500 C 693.583 252.050, 694.440 213.125, 694.974 198 C 698.599 95.389, 698.760 97.914, 688.327 93.936 C 685.483 92.852, 644.579 92.012, 639.836 92.940 M 126.369 94.493 C 117.432 96.436, 107.734 102.009, 96 111.944 C 92.975 114.505, 88.025 118.088, 85 119.906 C 69.530 129.205, 69.688 135.387, 85.601 143.330 C 102.573 151.803, 105.135 157.557, 105.948 189.036 C 106.623 215.132, 107.289 217.336, 123.462 247 C 124.811 249.475, 127.440 254.650, 129.304 258.500 C 135.369 271.028, 162.593 324.377, 165.306 329.050 C 166.759 331.553, 168.648 335.584, 169.503 338.008 C 170.358 340.432, 172.362 344.459, 173.957 346.957 C 175.552 349.456, 177.801 353.975, 178.954 357 C 180.107 360.025, 182.819 366.100, 184.980 370.500 C 194.287 389.450, 196.496 403.794, 192.678 420.500 C 191.295 426.550, 189.627 434.200, 188.971 437.500 C 188.315 440.800, 185.852 447.775, 183.498 453 C 181.143 458.225, 178.431 464.975, 177.470 468 C 176.509 471.025, 174.723 475.525, 173.501 478 C 172.278 480.475, 170.250 485.650, 168.993 489.500 C 158.121 522.806, 154.389 525.699, 121.500 526.319 C 99.276 526.738, 96.153 527.310, 93.433 531.461 C 90.177 536.431, 94.528 541.843, 103 543.359 C 107.995 544.253, 252.532 544.384, 258.277 543.500 C 271.854 541.411, 274.455 530.844, 262.226 527.455 C 245.250 522.750, 244.759 520.134, 256.225 495.500 C 269.990 465.927, 272.144 454.764, 268.577 431.500 C 266.269 416.449, 267.211 415.718, 291 414.114 C 368.611 408.883, 395.159 387.151, 359.527 358.019 C 347.537 348.216, 333.805 333.151, 330.138 325.778 C 328.328 322.138, 323.700 314.325, 319.854 308.416 C 316.007 302.507, 311.365 294.709, 309.536 291.086 C 299.527 271.251, 292.410 261.550, 273.524 242 C 266.351 234.575, 255.792 222.268, 250.059 214.652 C 240.136 201.468, 236.310 197.541, 219 182.784 C 210.232 175.309, 206.761 169.654, 204.400 159 C 203.487 154.875, 201.640 148.575, 200.297 145 C 198.954 141.425, 196.750 135.035, 195.400 130.800 C 192.121 120.517, 178.680 106.234, 164.293 97.745 C 156.537 93.169, 139.264 91.688, 126.369 94.493 M 850.458 96.863 C 848.785 97.883, 845.410 101.078, 842.958 103.963 C 835.127 113.178, 833.313 114.883, 830.628 115.557 C 826.046 116.707, 823.330 115.188, 817.337 108.126 C 800.033 87.730, 791.281 91.097, 773.283 125.077 C 759.937 150.274, 772.905 155.547, 789.076 131.500 C 797.608 118.814, 800.550 118.740, 812.155 130.922 C 825.124 144.537, 831.334 144.587, 842.565 131.168 C 854.846 116.494, 859.447 116.362, 870.878 130.351 C 882.760 144.891, 889.669 144.832, 902.995 130.074 C 915.030 116.745, 920.467 116.962, 930.106 131.157 C 939.396 144.837, 949.241 144.852, 959.695 131.202 C 971.261 116.102, 974.663 116.151, 989.500 131.633 C 1002.260 144.947, 1009.399 144.819, 1019.236 131.099 C 1029.244 117.140, 1035.919 116.991, 1046.937 130.481 C 1058.919 145.150, 1068.495 144.723, 1079.924 129.009 C 1089.852 115.360, 1094.429 116.064, 1107.481 133.247 C 1116.437 145.037, 1125.113 144.135, 1137.818 130.090 C 1148.182 118.633, 1152.604 119.002, 1160.490 131.984 C 1173.029 152.626, 1188.515 150.037, 1178.426 128.986 C 1161.444 93.549, 1151.592 88.295, 1134.972 105.808 C 1122.294 119.167, 1120.792 119.146, 1107.500 105.420 C 1094.973 92.485, 1087.616 91.515, 1079.297 101.702 C 1065.189 118.977, 1060.052 119.597, 1049.595 105.284 C 1039.437 91.379, 1027.180 91.603, 1017.167 105.878 C 1007.320 119.915, 1002.064 119.661, 990.054 104.568 C 979.403 91.182, 970.583 91.418, 959.018 105.400 C 947.853 118.898, 944.546 118.910, 931.569 105.499 C 918.566 92.062, 911.834 91.424, 902.287 102.724 C 887.820 119.849, 883.957 120.206, 873.389 105.396 C 866.404 95.608, 857.779 92.398, 850.458 96.863 M 652.500 107.651 C 645.471 109.560, 642.539 117.085, 643.420 130.953 C 643.754 136.204, 644.475 153.325, 645.023 169 C 645.571 184.675, 646.672 205.600, 647.470 215.500 C 663.312 412.056, 660.346 430.039, 605.851 467.787 C 588.362 479.901, 583.347 482.594, 569.992 487.043 C 563.183 489.311, 555 492.486, 551.806 494.098 C 548.613 495.710, 543 497.725, 539.333 498.575 C 531.781 500.326, 529.697 501.296, 520.006 507.565 C 508.719 514.866, 509.624 515.548, 528.387 513.871 C 567.884 510.343, 618.827 512.636, 639.016 518.851 C 674.888 529.893, 687.316 523.345, 682.642 495.864 C 681.766 490.714, 680.599 479.975, 680.049 472 C 678.861 454.785, 677.429 437.990, 675.401 417.500 C 673.004 393.290, 673.954 273.093, 676.937 223 C 680.066 170.472, 680.680 119.855, 678.248 115.034 C 675.295 109.179, 661.470 105.215, 652.500 107.651 M 132.328 110.875 C 126.907 113.418, 124.597 116.891, 125.523 121.105 C 126.182 124.106, 126.085 124.249, 123.861 123.565 C 118.499 121.915, 116.840 121.824, 113.958 123.017 C 105.612 126.474, 105.253 131.632, 112.533 143.500 C 120.732 156.868, 121.993 161.893, 122.033 181.355 C 122.077 203.433, 123.028 209.837, 127.539 218.464 C 129.563 222.334, 132.083 227.689, 133.140 230.364 C 134.196 233.039, 136.446 237.241, 138.139 239.703 C 139.833 242.164, 142.282 246.891, 143.582 250.209 C 144.882 253.526, 147.274 258.323, 148.897 260.870 C 150.521 263.416, 152.766 267.931, 153.886 270.902 C 155.007 273.873, 157.678 278.823, 159.822 281.902 C 161.967 284.981, 164.299 289.300, 165.006 291.500 C 166.345 295.670, 168.941 301.119, 180.726 324.500 C 198.377 359.519, 206.852 370.527, 221.491 377.452 C 224.749 378.994, 229.695 381.769, 232.482 383.620 C 235.270 385.471, 241.590 388.292, 246.525 389.888 C 251.461 391.485, 258.076 393.739, 261.225 394.896 C 277.711 400.955, 345.442 393.345, 351.457 384.759 C 354.758 380.045, 353.580 377.106, 345.154 369.025 C 330.675 355.139, 312.649 332.034, 305.763 318.534 C 304.631 316.315, 301.598 311.350, 299.024 307.500 C 296.449 303.650, 291.678 295.644, 288.422 289.708 C 271.313 258.528, 258.688 249.252, 244.007 257.077 C 232.345 263.292, 227.722 272.254, 229.936 284.346 C 234.440 308.941, 226.777 324.140, 211.968 319.987 C 200.392 316.739, 170.098 286.605, 167.935 276.185 C 167.298 273.121, 164.800 266.763, 162.382 262.057 C 147.886 233.842, 154.328 206.308, 175.909 204.235 C 186.831 203.185, 188.384 209.664, 179.466 219.080 C 170.026 229.049, 170.020 235.517, 179.434 256 C 181.836 261.225, 184.534 267.793, 185.429 270.595 C 189.601 283.646, 207.373 297.777, 211.028 290.948 C 211.772 289.557, 211.899 284.724, 211.421 275.927 C 210.457 258.201, 210.997 257.060, 224.682 247.878 C 245.069 234.200, 244.247 230.833, 213.007 200 C 192.378 179.641, 191.723 178.718, 188.986 166.178 C 180.027 125.130, 154.681 100.390, 132.328 110.875 M 948.756 269.040 C 884.118 285.113, 868.302 363.753, 920.640 408.838 C 931.178 417.915, 932.022 414.152, 909.088 460.322 C 883.854 511.124, 882.381 517.975, 895.262 524.636 C 908.515 531.489, 914.152 523.377, 935.657 466.500 C 937.529 461.550, 940.582 453.900, 942.441 449.500 C 944.300 445.100, 946.620 438.907, 947.597 435.739 C 950.517 426.265, 956.253 423.145, 962.078 427.862 C 964.360 429.710, 964.368 429.802, 963.217 440.612 C 961.017 461.275, 960.496 528.803, 962.499 533.754 C 969.273 550.497, 987.223 544.311, 988.705 524.723 C 989.640 512.352, 987.078 444.311, 985.401 437 C 983.592 429.108, 984.127 426.503, 987.965 424.518 C 995.554 420.594, 998.768 422.951, 1001.575 434.500 C 1002.511 438.350, 1004.840 444.875, 1006.751 449 C 1008.662 453.125, 1011.925 461.225, 1014.003 467 C 1034.533 524.057, 1047.824 539.250, 1060.102 519.696 C 1065.082 511.764, 1036.220 444.144, 1019.043 423.500 C 1011.980 415.011, 1012.166 413.506, 1021.386 404.619 C 1049.757 377.273, 1057.139 333.333, 1037.870 306.500 C 1036.290 304.300, 1032.752 299.324, 1030.007 295.442 C 1024.587 287.778, 1010.805 276.428, 1003.500 273.614 C 983.782 266.017, 966.664 264.587, 948.756 269.040 M 951.921 285.866 C 888.897 303.918, 891.017 384.667, 955.065 405.616 C 976.036 412.475, 1012.798 396.780, 1023.260 376.500 C 1049.157 326.302, 1005.295 270.577, 951.921 285.866 M 216.072 400.928 C 214.990 402.010, 213.861 404.970, 213.499 407.678 C 212.195 417.420, 204.842 444.060, 200.612 454.365 C 198.776 458.839, 196.474 464.975, 195.497 468 C 194.520 471.025, 192.271 476.425, 190.500 480 C 188.729 483.575, 186.480 488.975, 185.503 492 C 184.526 495.025, 182.213 501.187, 180.363 505.693 C 173.378 522.710, 176.643 526.015, 200.399 525.978 C 220.901 525.946, 225.507 523.564, 231.086 510.108 C 232.820 505.923, 235.320 500.645, 236.640 498.377 C 237.960 496.110, 240.330 490.485, 241.907 485.877 C 243.483 481.270, 246.159 474.604, 247.854 471.065 C 257.683 450.536, 254.919 430.082, 240.040 413.253 C 228.453 400.145, 220.793 396.207, 216.072 400.928" stroke="none" fill="#f1f1f1" fill-rule="evenodd"/></svg>