<svg xmlns="http://www.w3.org/2000/svg" width="1272" height="1109" viewBox="0 0 1272 1109" version="1.1"><path d="M 410 130.224 L 404.500 131.018 398.500 133.966 L 392.500 136.915 388.749 140.031 L 384.998 143.147 382.524 147.369 L 380.050 151.591 379.112 158.212 L 378.175 164.833 378.589 170.666 L 379.003 176.500 380.457 202 L 381.912 227.500 382.495 238.519 L 383.078 249.537 384.539 259.019 L 385.999 268.500 387.015 289 L 388.030 309.500 389.522 321 L 391.013 332.500 392.478 375 L 393.943 417.500 395.002 443 L 396.061 468.500 397.526 493 L 398.991 517.500 400.009 537.142 L 401.028 556.783 402.066 564.142 L 403.104 571.500 403.658 606.500 L 404.211 641.500 403.145 654 L 402.080 666.500 398.973 681 L 395.867 695.500 393.061 701.500 L 390.255 707.500 382.396 718.500 L 374.537 729.500 363.890 740.117 L 353.244 750.733 336.533 761.889 L 319.822 773.044 305.661 780.178 L 291.500 787.311 286 790.015 L 280.500 792.720 272 795.505 L 263.500 798.290 251.068 803.691 L 238.635 809.091 224.568 813.424 L 210.500 817.757 200.500 821.758 L 190.500 825.759 172 831.490 L 153.500 837.220 147.406 838.995 L 141.312 840.770 128.906 842.855 L 116.500 844.939 93.896 847.480 L 71.292 850.021 66.053 851.577 L 60.815 853.132 56.538 857.409 L 52.261 861.686 49.979 867.593 L 47.697 873.500 47.225 882.843 L 46.753 892.185 48.482 898.572 L 50.211 904.958 54.235 909.530 L 58.260 914.103 63.880 916.911 L 69.500 919.720 76.500 922.110 L 83.500 924.500 99.500 924.500 L 115.500 924.500 126.642 921.236 L 137.785 917.972 157.142 914.958 L 176.500 911.943 191 909.482 L 205.500 907.021 215.550 904.574 L 225.600 902.128 234.050 901.085 L 242.500 900.042 263.500 898.979 L 284.500 897.917 300.500 897.319 L 316.500 896.721 327 897.930 L 337.500 899.140 346 900.996 L 354.500 902.852 368.772 904.917 L 383.043 906.983 394.272 909.523 L 405.500 912.064 418 914.059 L 430.500 916.055 439.892 918.598 L 449.285 921.140 455.997 921.703 L 462.708 922.266 470.604 920.543 L 478.500 918.820 485.500 915.456 L 492.500 912.092 498.097 907.652 L 503.693 903.211 507.837 897.006 L 511.981 890.800 514.092 884.150 L 516.202 877.500 516.735 868.283 L 517.269 859.066 516.087 844.783 L 514.906 830.500 512.928 814 L 510.950 797.500 510.037 790.500 L 509.125 783.500 505.561 761 L 501.998 738.500 501.023 726.500 L 500.048 714.500 498.924 686.500 L 497.800 658.500 498.909 530.500 L 500.019 402.500 500.946 386 L 501.872 369.500 502.932 347.500 L 503.992 325.500 505.498 311 L 507.003 296.500 508.508 257 L 510.013 217.500 511.002 201.500 L 511.991 185.500 511.995 171.432 L 512 157.363 510.433 152.087 L 508.866 146.810 504.723 142.316 L 500.580 137.821 495.799 135.398 L 491.018 132.975 484.759 131.573 L 478.500 130.170 447 129.801 L 415.500 129.431 410 130.224 M 732.500 132.934 L 724.500 134.812 716.247 137.837 L 707.994 140.863 703.747 143.749 L 699.500 146.636 688 155.051 L 676.500 163.466 668.709 170.141 L 660.918 176.815 650.972 181.012 L 641.026 185.209 637.066 189.052 L 633.105 192.896 631.992 197.032 L 630.878 201.167 631.530 204.334 L 632.183 207.500 634.449 211.014 L 636.716 214.527 641.608 217.171 L 646.500 219.815 654.896 223.037 L 663.292 226.258 671.238 233.850 L 679.185 241.442 681.097 245.190 L 683.010 248.939 684.554 254.720 L 686.099 260.500 687.507 298 L 688.914 335.500 690.468 341.845 L 692.021 348.191 696.919 358.845 L 701.816 369.500 705.308 377.175 L 708.800 384.849 711.766 389.175 L 714.731 393.500 717.243 398.500 L 719.756 403.500 722.748 411.002 L 725.741 418.504 730.471 426.502 L 735.201 434.500 739.137 444 L 743.073 453.500 748.520 462.539 L 753.967 471.578 758.064 481.039 L 762.162 490.500 767.061 499 L 771.960 507.500 776.853 518.569 L 781.746 529.637 784.284 533.658 L 786.822 537.678 792.540 549.089 L 798.259 560.500 803.069 568.005 L 807.879 575.511 811.447 584.860 L 815.014 594.209 820.555 603.355 L 826.096 612.500 829.181 622.500 L 832.266 632.500 838.549 645 L 844.831 657.500 846.166 663 L 847.500 668.500 847.411 683 L 847.323 697.500 845.667 704.288 L 844.011 711.075 839.884 720.772 L 835.757 730.469 831.944 745.723 L 828.131 760.977 822.135 773.739 L 816.138 786.500 812.543 798.155 L 808.948 809.809 803.622 820.662 L 798.295 831.515 794.594 842.983 L 790.892 854.450 785.403 865.015 L 779.913 875.580 776.207 880.482 L 772.500 885.384 767.530 887.942 L 762.561 890.500 722.530 891.116 L 682.500 891.732 678.500 892.953 L 674.500 894.175 670.431 896.524 L 666.361 898.873 664.544 902.902 L 662.727 906.931 663.337 910.692 L 663.948 914.453 665.776 916.977 L 667.604 919.500 672.052 921.732 L 676.500 923.963 682 925.012 L 687.500 926.061 825 926.184 L 962.500 926.306 967.500 925.100 L 972.500 923.894 975.765 921.697 L 979.030 919.500 981.123 915.212 L 983.216 910.923 982.547 906.466 L 981.879 902.010 979.320 898.969 L 976.762 895.928 973.812 894.403 L 970.862 892.877 963.181 891.420 L 955.500 889.963 952.397 888.953 L 949.294 887.942 947.107 885.614 L 944.921 883.287 944.334 879.673 L 943.748 876.058 948.511 860.779 L 953.275 845.500 960.440 831.500 L 967.606 817.500 970.309 807.744 L 973.011 797.988 977.367 788.244 L 981.722 778.500 983.077 773 L 984.431 767.500 984.342 755 L 984.253 742.500 982.607 733.818 L 980.961 725.136 978.480 717.537 L 976 709.938 976 707.604 L 976 705.270 977.974 702.760 L 979.948 700.250 984.417 699.125 L 988.886 698 1003.193 698.005 L 1017.500 698.011 1039.500 696.497 L 1061.500 694.983 1077.568 693.461 L 1093.636 691.939 1101.568 690.041 L 1109.500 688.144 1121.720 683.646 L 1133.940 679.149 1140.054 675.890 L 1146.168 672.632 1151.138 667.066 L 1156.108 661.500 1159.249 655.134 L 1162.389 648.767 1162.805 643.019 L 1163.221 637.271 1161.653 631.879 L 1160.086 626.486 1152.229 614.493 L 1144.373 602.500 1140.818 599.500 L 1137.262 596.500 1129.560 591 L 1121.858 585.500 1110.192 572 L 1098.526 558.500 1091.599 548.002 L 1084.673 537.504 1080.253 530.002 L 1075.834 522.500 1069.732 514.077 L 1063.630 505.653 1059.196 496.597 L 1054.763 487.541 1051.015 482.020 L 1047.266 476.500 1041.705 465.500 L 1036.144 454.500 1028.163 443.096 L 1020.182 431.691 1011.351 421.596 L 1002.520 411.500 983.494 392 L 964.467 372.500 959.845 367 L 955.223 361.500 949.663 352.209 L 944.104 342.918 937.662 335.209 L 931.221 327.500 916.360 312.961 L 901.500 298.422 892 290.627 L 882.500 282.831 880.187 280.166 L 877.873 277.500 874.458 272.265 L 871.044 267.029 868.152 261.265 L 865.261 255.500 863.687 249 L 862.114 242.500 860.473 231.083 L 858.832 219.667 856.932 213.583 L 855.032 207.500 848.641 196 L 842.250 184.500 837.875 177.655 L 833.500 170.810 826 163.642 L 818.500 156.474 812.162 151.207 L 805.824 145.940 799.957 142.978 L 794.090 140.017 779.795 135.879 L 765.500 131.740 753 131.398 L 740.500 131.056 732.500 132.934 M 435 162.636 L 431.500 163.089 426.813 164.604 L 422.125 166.119 418.619 170 L 415.113 173.881 414.421 177.569 L 413.729 181.258 414.289 191.879 L 414.849 202.500 415.921 218 L 416.993 233.500 418.541 255 L 420.089 276.500 421.033 299.500 L 421.977 322.500 422.982 350 L 423.986 377.500 425.034 404 L 426.082 430.500 427.556 449.500 L 429.030 468.500 431.550 494.500 L 434.069 520.500 435.021 538.500 L 435.972 556.500 436.970 568.500 L 437.968 580.500 437.968 620 L 437.968 659.500 437.010 671 L 436.052 682.500 434.421 688 L 432.791 693.500 426.265 707.500 L 419.738 721.500 410.119 735.908 L 400.500 750.316 393.208 758.664 L 385.915 767.013 378.595 773.257 L 371.274 779.500 361.387 784.907 L 351.500 790.314 346 794.382 L 340.500 798.450 330.242 803.693 L 319.984 808.937 314.242 812.828 L 308.500 816.718 304.500 818.751 L 300.500 820.784 291.500 823.465 L 282.500 826.145 269.970 832.086 L 257.440 838.028 245.470 840.967 L 233.500 843.907 229.008 845.495 L 224.516 847.082 213.508 853.896 L 202.500 860.709 197.692 863.431 L 192.884 866.152 193.287 867.326 L 193.690 868.500 215.095 868.248 L 236.500 867.996 253.861 866.998 L 271.222 866 296.026 866 L 320.831 866 347.665 867.981 L 374.500 869.963 380.500 871.049 L 386.500 872.134 401.331 877.111 L 416.163 882.088 430.661 884.544 L 445.159 887 452.369 887 L 459.580 887 465.540 885.456 L 471.500 883.912 475.152 881.507 L 478.803 879.102 481.492 873.605 L 484.182 868.108 484.720 860.249 L 485.259 852.391 484.079 839.039 L 482.898 825.688 479.515 812.488 L 476.131 799.287 474.541 790.901 L 472.950 782.516 471.007 762.324 L 469.064 742.133 468.522 730.316 L 467.980 718.500 466.968 682 L 465.956 645.500 466.989 517 L 468.021 388.500 468.938 358.500 L 469.855 328.500 471.442 300.500 L 473.029 272.500 474.519 241.500 L 476.008 210.500 477.172 197 L 478.336 183.500 477.644 179.862 L 476.951 176.224 474.702 172.886 L 472.452 169.548 469.094 167.284 L 465.735 165.021 462.118 164.003 L 458.500 162.985 448.500 162.585 L 438.500 162.184 435 162.636 M 742.544 165.589 L 738.589 167.038 736.294 169.193 L 734 171.349 734 172.471 L 734 173.594 738.082 177.547 L 742.165 181.500 743.666 184.361 L 745.167 187.223 745.167 191.519 L 745.167 195.816 743.435 198.459 L 741.703 201.102 738.901 202.551 L 736.099 204 733.518 204 L 730.936 204 727.522 202.573 L 724.108 201.147 717.579 195.073 L 711.050 189 708.493 189 L 705.936 189 702.490 190.440 L 699.044 191.880 697.026 195.190 L 695.007 198.500 695.004 203.539 L 695 208.577 696.781 212.039 L 698.563 215.500 705.161 224.120 L 711.759 232.741 713.968 238.620 L 716.176 244.500 717.505 251.500 L 718.834 258.500 719.959 283 L 721.085 307.500 722.131 316.929 L 723.177 326.359 727.660 340.429 L 732.143 354.500 744.255 379 L 756.367 403.500 761.123 410.321 L 765.879 417.142 768.588 424.321 L 771.296 431.500 773.778 436.500 L 776.260 441.500 781.547 448.762 L 786.834 456.023 789.568 463.262 L 792.302 470.500 797.593 480.500 L 802.885 490.500 805.555 498 L 808.226 505.500 813.593 515.028 L 818.960 524.557 821.567 531.028 L 824.174 537.500 827.165 543.433 L 830.155 549.365 833.255 553.871 L 836.355 558.376 841.171 569.909 L 845.987 581.442 854.743 594.336 L 863.500 607.230 873.251 616.523 L 883.003 625.816 893.251 631.047 L 903.500 636.279 910 640.049 L 916.500 643.819 928 647.990 L 939.500 652.162 950.500 657.621 L 961.501 663.080 969.500 664.505 L 977.500 665.930 995.500 665.955 L 1013.500 665.981 1037 664.501 L 1060.500 663.022 1071 661.424 L 1081.500 659.826 1087.500 658.444 L 1093.500 657.062 1100.500 654.665 L 1107.500 652.268 1112.238 650.030 L 1116.977 647.791 1119.988 644.361 L 1123 640.930 1123 637.030 L 1123 633.130 1122.114 630.799 L 1121.227 628.468 1097.819 604.984 L 1074.410 581.500 1068.556 572 L 1062.703 562.500 1058.239 556.680 L 1053.776 550.861 1048.574 541.680 L 1043.371 532.500 1038.578 526 L 1033.784 519.500 1030.771 513.500 L 1027.757 507.500 1022.340 499.156 L 1016.923 490.813 1011.566 480.156 L 1006.210 469.500 1002.980 465.500 L 999.751 461.500 994.244 453 L 988.737 444.500 982.358 436.840 L 975.978 429.181 970.239 423.927 L 964.500 418.672 959.065 416.178 L 953.630 413.684 949.065 414.883 L 944.500 416.083 936.645 420.791 L 928.791 425.500 922.288 432.383 L 915.785 439.265 913.402 444.383 L 911.020 449.500 911.013 454 L 911.006 458.500 912.467 467 L 913.927 475.500 914.914 485.500 L 915.901 495.500 914.999 502.583 L 914.097 509.666 911.905 515.524 L 909.713 521.382 905.048 526.048 L 900.382 530.713 894.653 532.857 L 888.925 535 883.078 535 L 877.232 535 869.366 531.056 L 861.500 527.112 852.500 518.925 L 843.500 510.737 828.756 496.235 L 814.012 481.732 806.940 471.344 L 799.869 460.955 797.430 455.628 L 794.991 450.301 792.963 439.038 L 790.935 427.775 789.338 424.638 L 787.741 421.500 784.263 416.719 L 780.784 411.938 778.879 406.923 L 776.973 401.907 775.972 389.704 L 774.970 377.500 775.569 370 L 776.168 362.500 777.645 357.136 L 779.122 351.773 781.742 347.814 L 784.362 343.855 794.357 337.265 L 804.352 330.674 809.426 328.708 L 814.500 326.742 820 326.670 L 825.500 326.598 828.794 328.348 L 832.088 330.097 834.040 333.299 L 835.993 336.500 835.991 338.500 L 835.989 340.500 834.940 344.277 L 833.891 348.055 830.770 351.609 L 827.649 355.164 822 359 L 816.351 362.836 813.230 366.391 L 810.109 369.945 809.060 373.723 L 808.011 377.500 808.017 381 L 808.024 384.500 809.406 389.500 L 810.788 394.500 815.283 404 L 819.779 413.500 823.595 426.485 L 827.411 439.469 836.047 452.485 L 844.683 465.500 855.222 475.622 L 865.762 485.744 870.489 487.549 L 875.215 489.354 876.858 488.329 L 878.500 487.304 879.805 484.902 L 881.109 482.500 880.583 475.500 L 880.058 468.500 877.456 460 L 874.855 451.500 874.299 443.448 L 873.743 435.396 875.444 429.546 L 877.144 423.696 882.822 418.098 L 888.500 412.500 899.500 405.580 L 910.500 398.661 914.885 395.153 L 919.269 391.645 921.257 387.152 L 923.245 382.659 922.677 377.162 L 922.110 371.666 919.104 365.583 L 916.097 359.500 907.516 349.816 L 898.935 340.133 885.776 328.816 L 872.616 317.500 865.830 311.720 L 859.045 305.941 853.151 298.199 L 847.258 290.457 842.185 282.686 L 837.112 274.915 835.107 269.558 L 833.103 264.201 832.040 255.850 L 830.977 247.500 829.537 236.388 L 828.097 225.276 826.233 220.370 L 824.369 215.464 817.447 205.482 L 810.526 195.500 800.326 185.336 L 790.127 175.172 782.813 171.585 L 775.500 167.999 767.590 165.999 L 759.680 164 753.090 164.070 L 746.500 164.141 742.544 165.589 M 884.831 668.035 L 883.162 669.009 881.610 673.254 L 880.059 677.500 878.981 689.500 L 877.903 701.500 875.924 713.941 L 873.945 726.383 871.943 734.223 L 869.941 742.062 866.387 751.781 L 862.832 761.500 859.335 771.500 L 855.839 781.500 850.534 791.500 L 845.229 801.500 841.089 814.374 L 836.949 827.247 832.364 837.874 L 827.780 848.500 823.890 859.953 L 820 871.406 820 876.568 L 820 881.730 822.088 884.385 L 824.177 887.040 827.338 888.770 L 830.500 890.500 857.500 890.500 L 884.500 890.500 889.497 889.051 L 894.493 887.602 899.026 883.051 L 903.558 878.500 905.394 873.500 L 907.229 868.500 913.258 857 L 919.286 845.500 923.741 835 L 928.195 824.500 933.040 812.833 L 937.884 801.167 944.190 782.833 L 950.496 764.500 950.409 753.500 L 950.323 742.500 946.566 732.018 L 942.810 721.536 939.996 715.331 L 937.182 709.125 934.175 704.754 L 931.168 700.383 924.667 692.734 L 918.167 685.085 914.833 682.211 L 911.500 679.336 904.292 674.716 L 897.085 670.095 894.092 668.548 L 891.099 667 888.800 667.030 L 886.500 667.061 884.831 668.035" stroke="none" fill="#828282" fill-rule="evenodd"/><path d="M 0 554.501 L 0 1109.002 636.250 1108.751 L 1272.500 1108.500 1272.751 554.250 L 1273.002 -0 636.501 -0 L 0 0 0 554.501 M 0.496 555 L 0.496 1109.500 0.750 832.250 L 1.004 555 0.750 277.750 L 0.496 0.500 0.496 555 M 410 130.224 L 404.500 131.018 398.500 133.966 L 392.500 136.915 388.749 140.031 L 384.998 143.147 382.524 147.369 L 380.050 151.591 379.112 158.212 L 378.175 164.833 378.589 170.666 L 379.003 176.500 380.457 202 L 381.912 227.500 382.495 238.519 L 383.078 249.537 384.539 259.019 L 385.999 268.500 387.015 289 L 388.030 309.500 389.522 321 L 391.013 332.500 392.478 375 L 393.943 417.500 395.002 443 L 396.061 468.500 397.526 493 L 398.991 517.500 400.009 537.142 L 401.028 556.783 402.066 564.142 L 403.104 571.500 403.658 606.500 L 404.211 641.500 403.145 654 L 402.080 666.500 398.973 681 L 395.867 695.500 393.061 701.500 L 390.255 707.500 382.396 718.500 L 374.537 729.500 363.890 740.117 L 353.244 750.733 336.533 761.889 L 319.822 773.044 305.661 780.178 L 291.500 787.311 286 790.015 L 280.500 792.720 272 795.505 L 263.500 798.290 251.068 803.691 L 238.635 809.091 224.568 813.424 L 210.500 817.757 200.500 821.758 L 190.500 825.759 172 831.490 L 153.500 837.220 147.406 838.995 L 141.312 840.770 128.906 842.855 L 116.500 844.939 93.896 847.480 L 71.292 850.021 66.053 851.577 L 60.815 853.132 56.538 857.409 L 52.261 861.686 49.979 867.593 L 47.697 873.500 47.225 882.843 L 46.753 892.185 48.482 898.572 L 50.211 904.958 54.235 909.530 L 58.260 914.103 63.880 916.911 L 69.500 919.720 76.500 922.110 L 83.500 924.500 99.500 924.500 L 115.500 924.500 126.642 921.236 L 137.785 917.972 157.142 914.958 L 176.500 911.943 191 909.482 L 205.500 907.021 215.550 904.574 L 225.600 902.128 234.050 901.085 L 242.500 900.042 263.500 898.979 L 284.500 897.917 300.500 897.319 L 316.500 896.721 327 897.930 L 337.500 899.140 346 900.996 L 354.500 902.852 368.772 904.917 L 383.043 906.983 394.272 909.523 L 405.500 912.064 418 914.059 L 430.500 916.055 439.892 918.598 L 449.285 921.140 455.997 921.703 L 462.708 922.266 470.604 920.543 L 478.500 918.820 485.500 915.456 L 492.500 912.092 498.097 907.652 L 503.693 903.211 507.837 897.006 L 511.981 890.800 514.092 884.150 L 516.202 877.500 516.735 868.283 L 517.269 859.066 516.087 844.783 L 514.906 830.500 512.928 814 L 510.950 797.500 510.037 790.500 L 509.125 783.500 505.561 761 L 501.998 738.500 501.023 726.500 L 500.048 714.500 498.924 686.500 L 497.800 658.500 498.909 530.500 L 500.019 402.500 500.946 386 L 501.872 369.500 502.932 347.500 L 503.992 325.500 505.498 311 L 507.003 296.500 508.508 257 L 510.013 217.500 511.002 201.500 L 511.991 185.500 511.995 171.432 L 512 157.363 510.433 152.087 L 508.866 146.810 504.723 142.316 L 500.580 137.821 495.799 135.398 L 491.018 132.975 484.759 131.573 L 478.500 130.170 447 129.801 L 415.500 129.431 410 130.224 M 732.500 132.934 L 724.500 134.812 716.247 137.837 L 707.994 140.863 703.747 143.749 L 699.500 146.636 688 155.051 L 676.500 163.466 668.709 170.141 L 660.918 176.815 650.972 181.012 L 641.026 185.209 637.066 189.052 L 633.105 192.896 631.992 197.032 L 630.878 201.167 631.530 204.334 L 632.183 207.500 634.449 211.014 L 636.716 214.527 641.608 217.171 L 646.500 219.815 654.896 223.037 L 663.292 226.258 671.238 233.850 L 679.185 241.442 681.097 245.190 L 683.010 248.939 684.554 254.720 L 686.099 260.500 687.507 298 L 688.914 335.500 690.468 341.845 L 692.021 348.191 696.919 358.845 L 701.816 369.500 705.308 377.175 L 708.800 384.849 711.766 389.175 L 714.731 393.500 717.243 398.500 L 719.756 403.500 722.748 411.002 L 725.741 418.504 730.471 426.502 L 735.201 434.500 739.137 444 L 743.073 453.500 748.520 462.539 L 753.967 471.578 758.064 481.039 L 762.162 490.500 767.061 499 L 771.960 507.500 776.853 518.569 L 781.746 529.637 784.284 533.658 L 786.822 537.678 792.540 549.089 L 798.259 560.500 803.069 568.005 L 807.879 575.511 811.447 584.860 L 815.014 594.209 820.555 603.355 L 826.096 612.500 829.181 622.500 L 832.266 632.500 838.549 645 L 844.831 657.500 846.166 663 L 847.500 668.500 847.411 683 L 847.323 697.500 845.667 704.288 L 844.011 711.075 839.884 720.772 L 835.757 730.469 831.944 745.723 L 828.131 760.977 822.135 773.739 L 816.138 786.500 812.543 798.155 L 808.948 809.809 803.622 820.662 L 798.295 831.515 794.594 842.983 L 790.892 854.450 785.403 865.015 L 779.913 875.580 776.207 880.482 L 772.500 885.384 767.530 887.942 L 762.561 890.500 722.530 891.116 L 682.500 891.732 678.500 892.953 L 674.500 894.175 670.431 896.524 L 666.361 898.873 664.544 902.902 L 662.727 906.931 663.337 910.692 L 663.948 914.453 665.776 916.977 L 667.604 919.500 672.052 921.732 L 676.500 923.963 682 925.012 L 687.500 926.061 825 926.184 L 962.500 926.306 967.500 925.100 L 972.500 923.894 975.765 921.697 L 979.030 919.500 981.123 915.212 L 983.216 910.923 982.547 906.466 L 981.879 902.010 979.320 898.969 L 976.762 895.928 973.812 894.403 L 970.862 892.877 963.181 891.420 L 955.500 889.963 952.397 888.953 L 949.294 887.942 947.107 885.614 L 944.921 883.287 944.334 879.673 L 943.748 876.058 948.511 860.779 L 953.275 845.500 960.440 831.500 L 967.606 817.500 970.309 807.744 L 973.011 797.988 977.367 788.244 L 981.722 778.500 983.077 773 L 984.431 767.500 984.342 755 L 984.253 742.500 982.607 733.818 L 980.961 725.136 978.480 717.537 L 976 709.938 976 707.604 L 976 705.270 977.974 702.760 L 979.948 700.250 984.417 699.125 L 988.886 698 1003.193 698.005 L 1017.500 698.011 1039.500 696.497 L 1061.500 694.983 1077.568 693.461 L 1093.636 691.939 1101.568 690.041 L 1109.500 688.144 1121.720 683.646 L 1133.940 679.149 1140.054 675.890 L 1146.168 672.632 1151.138 667.066 L 1156.108 661.500 1159.249 655.134 L 1162.389 648.767 1162.805 643.019 L 1163.221 637.271 1161.653 631.879 L 1160.086 626.486 1152.229 614.493 L 1144.373 602.500 1140.818 599.500 L 1137.262 596.500 1129.560 591 L 1121.858 585.500 1110.192 572 L 1098.526 558.500 1091.599 548.002 L 1084.673 537.504 1080.253 530.002 L 1075.834 522.500 1069.732 514.077 L 1063.630 505.653 1059.196 496.597 L 1054.763 487.541 1051.015 482.020 L 1047.266 476.500 1041.705 465.500 L 1036.144 454.500 1028.163 443.096 L 1020.182 431.691 1011.351 421.596 L 1002.520 411.500 983.494 392 L 964.467 372.500 959.845 367 L 955.223 361.500 949.663 352.209 L 944.104 342.918 937.662 335.209 L 931.221 327.500 916.360 312.961 L 901.500 298.422 892 290.627 L 882.500 282.831 880.187 280.166 L 877.873 277.500 874.458 272.265 L 871.044 267.029 868.152 261.265 L 865.261 255.500 863.687 249 L 862.114 242.500 860.473 231.083 L 858.832 219.667 856.932 213.583 L 855.032 207.500 848.641 196 L 842.250 184.500 837.875 177.655 L 833.500 170.810 826 163.642 L 818.500 156.474 812.162 151.207 L 805.824 145.940 799.957 142.978 L 794.090 140.017 779.795 135.879 L 765.500 131.740 753 131.398 L 740.500 131.056 732.500 132.934 M 435 162.636 L 431.500 163.089 426.813 164.604 L 422.125 166.119 418.619 170 L 415.113 173.881 414.421 177.569 L 413.729 181.258 414.289 191.879 L 414.849 202.500 415.921 218 L 416.993 233.500 418.541 255 L 420.089 276.500 421.033 299.500 L 421.977 322.500 422.982 350 L 423.986 377.500 425.034 404 L 426.082 430.500 427.556 449.500 L 429.030 468.500 431.550 494.500 L 434.069 520.500 435.021 538.500 L 435.972 556.500 436.970 568.500 L 437.968 580.500 437.968 620 L 437.968 659.500 437.010 671 L 436.052 682.500 434.421 688 L 432.791 693.500 426.265 707.500 L 419.738 721.500 410.119 735.908 L 400.500 750.316 393.208 758.664 L 385.915 767.013 378.595 773.257 L 371.274 779.500 361.387 784.907 L 351.500 790.314 346 794.382 L 340.500 798.450 330.242 803.693 L 319.984 808.937 314.242 812.828 L 308.500 816.718 304.500 818.751 L 300.500 820.784 291.500 823.465 L 282.500 826.145 269.970 832.086 L 257.440 838.028 245.470 840.967 L 233.500 843.907 229.008 845.495 L 224.516 847.082 213.508 853.896 L 202.500 860.709 197.692 863.431 L 192.884 866.152 193.287 867.326 L 193.690 868.500 215.095 868.248 L 236.500 867.996 253.861 866.998 L 271.222 866 296.026 866 L 320.831 866 347.665 867.981 L 374.500 869.963 380.500 871.049 L 386.500 872.134 401.331 877.111 L 416.163 882.088 430.661 884.544 L 445.159 887 452.369 887 L 459.580 887 465.540 885.456 L 471.500 883.912 475.152 881.507 L 478.803 879.102 481.492 873.605 L 484.182 868.108 484.720 860.249 L 485.259 852.391 484.079 839.039 L 482.898 825.688 479.515 812.488 L 476.131 799.287 474.541 790.901 L 472.950 782.516 471.007 762.324 L 469.064 742.133 468.522 730.316 L 467.980 718.500 466.968 682 L 465.956 645.500 466.989 517 L 468.021 388.500 468.938 358.500 L 469.855 328.500 471.442 300.500 L 473.029 272.500 474.519 241.500 L 476.008 210.500 477.172 197 L 478.336 183.500 477.644 179.862 L 476.951 176.224 474.702 172.886 L 472.452 169.548 469.094 167.284 L 465.735 165.021 462.118 164.003 L 458.500 162.985 448.500 162.585 L 438.500 162.184 435 162.636 M 742.544 165.589 L 738.589 167.038 736.294 169.193 L 734 171.349 734 172.471 L 734 173.594 738.082 177.547 L 742.165 181.500 743.666 184.361 L 745.167 187.223 745.167 191.519 L 745.167 195.816 743.435 198.459 L 741.703 201.102 738.901 202.551 L 736.099 204 733.518 204 L 730.936 204 727.522 202.573 L 724.108 201.147 717.579 195.073 L 711.050 189 708.493 189 L 705.936 189 702.490 190.440 L 699.044 191.880 697.026 195.190 L 695.007 198.500 695.004 203.539 L 695 208.577 696.781 212.039 L 698.563 215.500 705.161 224.120 L 711.759 232.741 713.968 238.620 L 716.176 244.500 717.505 251.500 L 718.834 258.500 719.959 283 L 721.085 307.500 722.131 316.929 L 723.177 326.359 727.660 340.429 L 732.143 354.500 744.255 379 L 756.367 403.500 761.123 410.321 L 765.879 417.142 768.588 424.321 L 771.296 431.500 773.778 436.500 L 776.260 441.500 781.547 448.762 L 786.834 456.023 789.568 463.262 L 792.302 470.500 797.593 480.500 L 802.885 490.500 805.555 498 L 808.226 505.500 813.593 515.028 L 818.960 524.557 821.567 531.028 L 824.174 537.500 827.165 543.433 L 830.155 549.365 833.255 553.871 L 836.355 558.376 841.171 569.909 L 845.987 581.442 854.743 594.336 L 863.500 607.230 873.251 616.523 L 883.003 625.816 893.251 631.047 L 903.500 636.279 910 640.049 L 916.500 643.819 928 647.990 L 939.500 652.162 950.500 657.621 L 961.501 663.080 969.500 664.505 L 977.500 665.930 995.500 665.955 L 1013.500 665.981 1037 664.501 L 1060.500 663.022 1071 661.424 L 1081.500 659.826 1087.500 658.444 L 1093.500 657.062 1100.500 654.665 L 1107.500 652.268 1112.238 650.030 L 1116.977 647.791 1119.988 644.361 L 1123 640.930 1123 637.030 L 1123 633.130 1122.114 630.799 L 1121.227 628.468 1097.819 604.984 L 1074.410 581.500 1068.556 572 L 1062.703 562.500 1058.239 556.680 L 1053.776 550.861 1048.574 541.680 L 1043.371 532.500 1038.578 526 L 1033.784 519.500 1030.771 513.500 L 1027.757 507.500 1022.340 499.156 L 1016.923 490.813 1011.566 480.156 L 1006.210 469.500 1002.980 465.500 L 999.751 461.500 994.244 453 L 988.737 444.500 982.358 436.840 L 975.978 429.181 970.239 423.927 L 964.500 418.672 959.065 416.178 L 953.630 413.684 949.065 414.883 L 944.500 416.083 936.645 420.791 L 928.791 425.500 922.288 432.383 L 915.785 439.265 913.402 444.383 L 911.020 449.500 911.013 454 L 911.006 458.500 912.467 467 L 913.927 475.500 914.914 485.500 L 915.901 495.500 914.999 502.583 L 914.097 509.666 911.905 515.524 L 909.713 521.382 905.048 526.048 L 900.382 530.713 894.653 532.857 L 888.925 535 883.078 535 L 877.232 535 869.366 531.056 L 861.500 527.112 852.500 518.925 L 843.500 510.737 828.756 496.235 L 814.012 481.732 806.940 471.344 L 799.869 460.955 797.430 455.628 L 794.991 450.301 792.963 439.038 L 790.935 427.775 789.338 424.638 L 787.741 421.500 784.263 416.719 L 780.784 411.938 778.879 406.923 L 776.973 401.907 775.972 389.704 L 774.970 377.500 775.569 370 L 776.168 362.500 777.645 357.136 L 779.122 351.773 781.742 347.814 L 784.362 343.855 794.357 337.265 L 804.352 330.674 809.426 328.708 L 814.500 326.742 820 326.670 L 825.500 326.598 828.794 328.348 L 832.088 330.097 834.040 333.299 L 835.993 336.500 835.991 338.500 L 835.989 340.500 834.940 344.277 L 833.891 348.055 830.770 351.609 L 827.649 355.164 822 359 L 816.351 362.836 813.230 366.391 L 810.109 369.945 809.060 373.723 L 808.011 377.500 808.017 381 L 808.024 384.500 809.406 389.500 L 810.788 394.500 815.283 404 L 819.779 413.500 823.595 426.485 L 827.411 439.469 836.047 452.485 L 844.683 465.500 855.222 475.622 L 865.762 485.744 870.489 487.549 L 875.215 489.354 876.858 488.329 L 878.500 487.304 879.805 484.902 L 881.109 482.500 880.583 475.500 L 880.058 468.500 877.456 460 L 874.855 451.500 874.299 443.448 L 873.743 435.396 875.444 429.546 L 877.144 423.696 882.822 418.098 L 888.500 412.500 899.500 405.580 L 910.500 398.661 914.885 395.153 L 919.269 391.645 921.257 387.152 L 923.245 382.659 922.677 377.162 L 922.110 371.666 919.104 365.583 L 916.097 359.500 907.516 349.816 L 898.935 340.133 885.776 328.816 L 872.616 317.500 865.830 311.720 L 859.045 305.941 853.151 298.199 L 847.258 290.457 842.185 282.686 L 837.112 274.915 835.107 269.558 L 833.103 264.201 832.040 255.850 L 830.977 247.500 829.537 236.388 L 828.097 225.276 826.233 220.370 L 824.369 215.464 817.447 205.482 L 810.526 195.500 800.326 185.336 L 790.127 175.172 782.813 171.585 L 775.500 167.999 767.590 165.999 L 759.680 164 753.090 164.070 L 746.500 164.141 742.544 165.589 M 884.831 668.035 L 883.162 669.009 881.610 673.254 L 880.059 677.500 878.981 689.500 L 877.903 701.500 875.924 713.941 L 873.945 726.383 871.943 734.223 L 869.941 742.062 866.387 751.781 L 862.832 761.500 859.335 771.500 L 855.839 781.500 850.534 791.500 L 845.229 801.500 841.089 814.374 L 836.949 827.247 832.364 837.874 L 827.780 848.500 823.890 859.953 L 820 871.406 820 876.568 L 820 881.730 822.088 884.385 L 824.177 887.040 827.338 888.770 L 830.500 890.500 857.500 890.500 L 884.500 890.500 889.497 889.051 L 894.493 887.602 899.026 883.051 L 903.558 878.500 905.394 873.500 L 907.229 868.500 913.258 857 L 919.286 845.500 923.741 835 L 928.195 824.500 933.040 812.833 L 937.884 801.167 944.190 782.833 L 950.496 764.500 950.409 753.500 L 950.323 742.500 946.566 732.018 L 942.810 721.536 939.996 715.331 L 937.182 709.125 934.175 704.754 L 931.168 700.383 924.667 692.734 L 918.167 685.085 914.833 682.211 L 911.500 679.336 904.292 674.716 L 897.085 670.095 894.092 668.548 L 891.099 667 888.800 667.030 L 886.500 667.061 884.831 668.035" stroke="none" fill="#f5f5f5" fill-rule="evenodd"/></svg>