<svg xmlns="http://www.w3.org/2000/svg" width="146" height="150" viewBox="0 0 146 150" version="1.1"><path d="M 14.343 11.492 C 10.716 13.144, 7 17.871, 7 20.832 C 7 24.425, 11.597 27, 18.012 27 C 26.127 27, 26.815 28.095, 24.600 37.492 C 22.698 45.558, 23.156 47.746, 27.318 50.473 C 29.192 51.700, 34.727 51.916, 60.533 51.767 C 87.824 51.609, 92.117 51.798, 96.693 53.355 C 103.959 55.829, 106.527 58.180, 109.162 64.773 C 111.284 70.080, 111.453 72.003, 111.476 91 C 111.500 111.372, 111.517 111.535, 114.281 117.161 C 117.563 123.843, 124.603 130.797, 126.334 129.066 C 127.162 128.238, 127.136 127.495, 126.235 126.222 C 125.564 125.275, 123.568 121.800, 121.800 118.500 C 118.892 113.075, 118.586 111.685, 118.608 104 C 118.622 99.021, 119.587 90.996, 120.939 84.628 C 123.609 72.048, 123.281 65.478, 119.578 57.389 C 116.055 49.694, 111.056 44.791, 102.780 40.912 L 95.500 37.500 80 37.666 C 70.897 37.763, 61.405 38.452, 57 39.334 C 41.010 42.537, 35.588 42.930, 33.643 41.025 C 33.167 40.559, 33.334 37.114, 34.019 33.283 C 35.074 27.380, 35.021 25.585, 33.657 20.894 C 31.561 13.681, 28.452 10.808, 22.283 10.383 C 19.549 10.195, 16.148 10.669, 14.343 11.492 M 15.137 13.752 C 13.287 14.713, 11.060 16.715, 10.186 18.199 C 8.712 20.706, 8.731 21.045, 10.454 22.949 C 11.922 24.571, 13.532 25, 18.155 25 C 27.501 25, 29.423 28.068, 26.636 38.533 C 25.262 43.694, 25.781 47.099, 28.180 48.648 C 28.906 49.116, 43.900 49.500, 61.500 49.500 C 92.414 49.500, 93.690 49.577, 99.085 51.760 C 105.875 54.508, 108.412 57.075, 111.292 64.110 C 113.320 69.064, 113.498 71.158, 113.499 90 C 113.500 110.380, 113.516 110.533, 116.273 116.147 C 117.798 119.252, 119.772 122.396, 120.659 123.132 C 121.713 124.007, 121.336 122.623, 119.570 119.138 C 115.624 111.351, 115.191 103.108, 117.989 89.056 C 123.081 63.485, 118.100 49.821, 101 42.451 C 96.070 40.326, 93.998 40.077, 81 40.046 C 73.025 40.027, 63.800 40.481, 60.500 41.056 C 57.200 41.630, 51.575 42.610, 48 43.233 C 38.777 44.841, 34.262 44.691, 32.281 42.710 C 30.777 41.206, 30.720 40.256, 31.770 34.133 C 34.568 17.818, 26.449 7.870, 15.137 13.752 M 26.371 105.347 C 25.339 105.915, 25.030 106.985, 25.435 108.597 C 26.032 110.974, 25.957 111, 18.558 111 C 12.151 111, 10.785 111.314, 9.039 113.189 C 6.443 115.975, 6.426 120.426, 9 123 C 11.083 125.083, 15 125.736, 15 124 C 15 123.450, 14.116 123, 13.035 123 C 9.428 123, 7.780 117.363, 10.571 114.571 C 11.907 113.236, 15.515 113, 34.571 113 C 48.857 113, 57 112.637, 57 112 C 57 111.383, 51.857 111, 43.571 111 C 32.119 111, 29.884 110.743, 28.385 109.250 C 26.711 107.583, 27.295 107.459, 40.726 106.641 L 54.824 105.782 67.193 109.391 C 76.671 112.156, 81.367 113, 87.281 113 L 95 113 95 118.333 L 95 123.665 89.250 122.857 C 83.703 122.077, 74.220 123.087, 71.692 124.727 C 71.036 125.152, 58.387 125.725, 43.582 126 C 23.298 126.377, 16.561 126.808, 16.248 127.750 C 15.924 128.727, 21.032 129, 39.603 129 C 60.789 129, 64.195 128.769, 70.936 126.877 C 77.009 125.173, 80.308 124.849, 87.674 125.234 L 96.847 125.713 97.174 118.769 C 97.353 114.950, 97.313 111.639, 97.083 111.412 C 96.854 111.186, 92.974 111, 88.460 111 C 81.907 111, 77.866 110.276, 68.406 107.409 C 56.798 103.890, 56.271 103.824, 42.235 104.159 C 34.357 104.346, 27.218 104.881, 26.371 105.347" stroke="none" fill="#202020" fill-rule="evenodd"/><path d="M 0 75.006 L 0 150.013 73.250 149.756 L 146.500 149.500 146.756 74.750 L 147.013 0 73.506 0 L 0 0 0 75.006 M 0.475 75.500 C 0.475 116.750, 0.598 133.771, 0.750 113.324 C 0.901 92.877, 0.901 59.127, 0.750 38.324 C 0.599 17.521, 0.475 34.250, 0.475 75.500 M 14.343 11.492 C 10.716 13.144, 7 17.871, 7 20.832 C 7 24.425, 11.597 27, 18.012 27 C 26.127 27, 26.815 28.095, 24.600 37.492 C 22.698 45.558, 23.156 47.746, 27.318 50.473 C 29.192 51.700, 34.727 51.916, 60.533 51.767 C 87.824 51.609, 92.117 51.798, 96.693 53.355 C 103.959 55.829, 106.527 58.180, 109.162 64.773 C 111.284 70.080, 111.453 72.003, 111.476 91 C 111.500 111.372, 111.517 111.535, 114.281 117.161 C 117.563 123.843, 124.603 130.797, 126.334 129.066 C 127.162 128.238, 127.136 127.495, 126.235 126.222 C 125.564 125.275, 123.568 121.800, 121.800 118.500 C 118.892 113.075, 118.586 111.685, 118.608 104 C 118.622 99.021, 119.587 90.996, 120.939 84.628 C 123.609 72.048, 123.281 65.478, 119.578 57.389 C 116.055 49.694, 111.056 44.791, 102.780 40.912 L 95.500 37.500 80 37.666 C 70.897 37.763, 61.405 38.452, 57 39.334 C 41.010 42.537, 35.588 42.930, 33.643 41.025 C 33.167 40.559, 33.334 37.114, 34.019 33.283 C 35.074 27.380, 35.021 25.585, 33.657 20.894 C 31.561 13.681, 28.452 10.808, 22.283 10.383 C 19.549 10.195, 16.148 10.669, 14.343 11.492 M 15.137 13.752 C 13.287 14.713, 11.060 16.715, 10.186 18.199 C 8.712 20.706, 8.731 21.045, 10.454 22.949 C 11.922 24.571, 13.532 25, 18.155 25 C 27.501 25, 29.423 28.068, 26.636 38.533 C 25.262 43.694, 25.781 47.099, 28.180 48.648 C 28.906 49.116, 43.900 49.500, 61.500 49.500 C 92.414 49.500, 93.690 49.577, 99.085 51.760 C 105.875 54.508, 108.412 57.075, 111.292 64.110 C 113.320 69.064, 113.498 71.158, 113.499 90 C 113.500 110.380, 113.516 110.533, 116.273 116.147 C 117.798 119.252, 119.772 122.396, 120.659 123.132 C 121.713 124.007, 121.336 122.623, 119.570 119.138 C 115.624 111.351, 115.191 103.108, 117.989 89.056 C 123.081 63.485, 118.100 49.821, 101 42.451 C 96.070 40.326, 93.998 40.077, 81 40.046 C 73.025 40.027, 63.800 40.481, 60.500 41.056 C 57.200 41.630, 51.575 42.610, 48 43.233 C 38.777 44.841, 34.262 44.691, 32.281 42.710 C 30.777 41.206, 30.720 40.256, 31.770 34.133 C 34.568 17.818, 26.449 7.870, 15.137 13.752 M 26.371 105.347 C 25.339 105.915, 25.030 106.985, 25.435 108.597 C 26.032 110.974, 25.957 111, 18.558 111 C 12.151 111, 10.785 111.314, 9.039 113.189 C 6.443 115.975, 6.426 120.426, 9 123 C 11.083 125.083, 15 125.736, 15 124 C 15 123.450, 14.116 123, 13.035 123 C 9.428 123, 7.780 117.363, 10.571 114.571 C 11.907 113.236, 15.515 113, 34.571 113 C 48.857 113, 57 112.637, 57 112 C 57 111.383, 51.857 111, 43.571 111 C 32.119 111, 29.884 110.743, 28.385 109.250 C 26.711 107.583, 27.295 107.459, 40.726 106.641 L 54.824 105.782 67.193 109.391 C 76.671 112.156, 81.367 113, 87.281 113 L 95 113 95 118.333 L 95 123.665 89.250 122.857 C 83.703 122.077, 74.220 123.087, 71.692 124.727 C 71.036 125.152, 58.387 125.725, 43.582 126 C 23.298 126.377, 16.561 126.808, 16.248 127.750 C 15.924 128.727, 21.032 129, 39.603 129 C 60.789 129, 64.195 128.769, 70.936 126.877 C 77.009 125.173, 80.308 124.849, 87.674 125.234 L 96.847 125.713 97.174 118.769 C 97.353 114.950, 97.313 111.639, 97.083 111.412 C 96.854 111.186, 92.974 111, 88.460 111 C 81.907 111, 77.866 110.276, 68.406 107.409 C 56.798 103.890, 56.271 103.824, 42.235 104.159 C 34.357 104.346, 27.218 104.881, 26.371 105.347" stroke="none" fill="#fafafa" fill-rule="evenodd"/></svg>