<svg xmlns="http://www.w3.org/2000/svg" width="1272" height="898" viewBox="0 0 1272 898" version="1.1"><path d="M 212.500 138.642 L 205.500 140.122 198.282 143.664 L 191.063 147.207 184.566 153.160 L 178.069 159.114 174.999 165.351 L 171.928 171.588 169.977 181.044 L 168.026 190.500 168.013 199.101 L 168 207.702 171.001 225.344 L 174.003 242.985 175.939 248.081 L 177.875 253.176 183.073 262.338 L 188.272 271.500 195.073 282.096 L 201.875 292.692 203.937 298.814 L 206 304.937 206 311.500 L 206 318.063 203.914 324.282 L 201.829 330.500 196.908 339.046 L 191.987 347.592 188.511 355.833 L 185.036 364.074 183.409 370.287 L 181.783 376.500 182.302 389 L 182.821 401.500 186.976 415 L 191.132 428.500 196.475 438.500 L 201.818 448.500 203.497 454.309 L 205.176 460.119 205.176 466.875 L 205.176 473.631 203.996 478.014 L 202.816 482.398 196.140 495.449 L 189.464 508.500 186.234 518.155 L 183.005 527.811 181.955 537.655 L 180.905 547.500 181.549 554.500 L 182.192 561.500 185.004 574.500 L 187.815 587.500 189.432 595 L 191.048 602.500 194.381 610.500 L 197.713 618.500 204.060 633 L 210.408 647.500 210.822 653.781 L 211.237 660.063 208.516 667.781 L 205.795 675.500 202.605 682 L 199.415 688.500 192.239 699.645 L 185.062 710.790 177.366 724.645 L 169.669 738.500 166.639 742.964 L 163.610 747.427 155.305 763.738 L 147 780.048 147 785.570 L 147 791.091 149.455 793.545 L 151.909 796 155.305 796 L 158.700 796 162.710 793.095 L 166.720 790.190 171.242 783.345 L 175.763 776.500 178.509 771 L 181.256 765.500 189.277 751 L 197.298 736.500 202.484 728 L 207.670 719.500 212.061 711 L 216.453 702.500 221.023 697.905 L 225.594 693.311 228.047 692.886 L 230.500 692.462 232.905 692.821 L 235.310 693.180 240.427 698.340 L 245.544 703.500 249.417 711 L 253.289 718.500 259.489 729 L 265.688 739.500 275.594 757.819 L 285.500 776.138 291.760 784.494 L 298.021 792.850 301.378 794.925 L 304.736 797 307.434 797 L 310.131 797 311.986 796.008 L 313.840 795.015 314.919 791.747 L 315.997 788.478 315.068 785.238 L 314.139 781.998 310.164 774.749 L 306.188 767.500 303.498 761.052 L 300.808 754.603 297.239 749.052 L 293.671 743.500 288.503 734 L 283.334 724.500 278.571 716.500 L 273.809 708.500 266.366 695.261 L 258.924 682.021 254.712 671.761 L 250.500 661.500 250.551 653 L 250.602 644.500 254.787 634.264 L 258.973 624.028 264.406 613.264 L 269.839 602.500 271.874 594.500 L 273.910 586.500 276.581 572 L 279.253 557.500 278.698 546 L 278.144 534.500 275.135 522.728 L 272.126 510.955 269.601 505.728 L 267.076 500.500 262.993 494 L 258.911 487.500 256.851 480.726 L 254.790 473.951 255.145 466.223 L 255.500 458.494 258.094 453.497 L 260.689 448.500 266.250 437.797 L 271.811 427.093 274.395 416.072 L 276.980 405.050 278.168 395.375 L 279.357 385.701 278.170 377.600 L 276.982 369.500 275.086 363.500 L 273.190 357.500 271.108 352.246 L 269.026 346.993 265.067 340.723 L 261.107 334.454 257.967 327.742 L 254.826 321.031 253.748 314.738 L 252.670 308.445 254.793 301.456 L 256.916 294.467 263.603 284.535 L 270.291 274.603 278.146 258.552 L 286.001 242.500 288.630 232.500 L 291.258 222.500 291.236 208.500 L 291.213 194.500 289.687 183.500 L 288.162 172.500 285.984 166.683 L 283.806 160.866 277.972 154.629 L 272.137 148.392 266.819 145.805 L 261.500 143.218 254 141.594 L 246.500 139.969 236.500 138.490 L 226.500 137.012 223 137.087 L 219.500 137.163 212.500 138.642 M 472.790 143.918 L 468.188 146.837 464.228 152.168 L 460.268 157.500 455.996 165 L 451.723 172.500 447.277 179.719 L 442.831 186.939 440.916 191.980 L 439 197.021 439 201.576 L 439 206.131 440.163 208.316 L 441.327 210.500 442.913 211.718 L 444.500 212.936 446.800 212.968 L 449.099 213 452.077 211.460 L 455.054 209.921 462.474 198.637 L 469.894 187.353 474.425 183.176 L 478.955 179 483.017 179 L 487.080 179 490.953 180.976 L 494.827 182.952 498.604 187.726 L 502.381 192.500 507.440 197.829 L 512.500 203.159 516.500 205.264 L 520.500 207.370 525.500 207.377 L 530.500 207.385 534.244 205.581 L 537.988 203.778 541.773 200.104 L 545.559 196.430 551.418 188.116 L 557.277 179.802 560.389 177.904 L 563.500 176.006 566.717 175.398 L 569.934 174.790 574.449 176.975 L 578.965 179.161 588.441 190.831 L 597.917 202.500 601.599 204.975 L 605.281 207.451 612.113 207.837 L 618.945 208.223 623.382 205.622 L 627.819 203.022 635.818 192.435 L 643.817 181.848 647.087 179.436 L 650.356 177.024 653.721 176.393 L 657.086 175.761 661.549 177.466 L 666.013 179.170 671.256 185.222 L 676.500 191.274 681.875 197.108 L 687.249 202.942 691.440 204.971 L 695.631 207 700.856 207 L 706.080 207 709.855 205.074 L 713.630 203.148 716.608 200.324 L 719.585 197.500 725.206 190.411 L 730.828 183.323 733.945 180.700 L 737.062 178.077 740.531 177.119 L 744 176.161 747.605 177.157 L 751.209 178.152 755.736 182.325 L 760.263 186.497 764.085 192.125 L 767.907 197.753 771.181 201.027 L 774.456 204.302 778.478 206.129 L 782.500 207.956 786.782 207.978 L 791.064 208 794.282 206.648 L 797.500 205.297 808.408 193.588 L 819.317 181.879 823.119 179.939 L 826.920 178 831 178 L 835.080 178 838.932 179.965 L 842.785 181.931 852.062 191.961 L 861.340 201.990 866.366 204.495 L 871.393 207 875.446 206.978 L 879.500 206.956 883.500 205.130 L 887.500 203.304 898.401 191.599 L 909.302 179.895 912.314 178.337 L 915.327 176.779 920.705 177.225 L 926.083 177.671 928.791 179.683 L 931.500 181.695 939.500 191.546 L 947.500 201.397 952.864 204.198 L 958.228 207 962.864 206.991 L 967.500 206.981 972.578 204.069 L 977.656 201.156 980.578 197.766 L 983.500 194.375 988.315 188.103 L 993.130 181.830 997.563 179.869 L 1001.995 177.908 1005.506 178.567 L 1009.017 179.226 1011.570 181.234 L 1014.122 183.241 1022.188 195.371 L 1030.254 207.500 1033.305 210.731 L 1036.356 213.962 1039.617 215.039 L 1042.878 216.115 1045.830 214.588 L 1048.783 213.061 1049.892 209.881 L 1051 206.702 1050.967 204.101 L 1050.935 201.500 1049.199 196.500 L 1047.464 191.500 1036.982 174.692 L 1026.500 157.884 1023 153.282 L 1019.500 148.679 1015.713 145.635 L 1011.926 142.590 1005.630 142.189 L 999.335 141.788 995.418 143.807 L 991.500 145.825 988.409 149.162 L 985.317 152.500 980.562 158.800 L 975.806 165.100 972.043 167.590 L 968.280 170.080 964.696 170.662 L 961.112 171.244 957.534 170.572 L 953.957 169.901 950.449 166.821 L 946.940 163.740 941.879 156.420 L 936.819 149.099 933.409 146.498 L 929.999 143.898 926.532 142.449 L 923.064 141 917.738 141 L 912.412 141 907.003 144.250 L 901.594 147.500 897.240 153 L 892.885 158.500 888.272 163.872 L 883.659 169.244 880.362 170.622 L 877.064 172 873.918 172 L 870.772 172 866.852 169.797 L 862.932 167.594 854.455 157.304 L 845.978 147.014 841.850 144.282 L 837.721 141.550 831.111 141.235 L 824.500 140.921 820.500 143.238 L 816.500 145.556 808.404 156.308 L 800.307 167.060 796.959 169.530 L 793.611 172 788.756 172 L 783.901 172 781.168 170.587 L 778.436 169.174 768.201 158.168 L 757.967 147.162 752.787 144.581 L 747.607 142 743.054 142.022 L 738.500 142.044 734.160 144.013 L 729.821 145.982 724.660 151.652 L 719.500 157.321 714 163.055 L 708.500 168.788 704.250 170.052 L 700 171.317 695.778 170.051 L 691.555 168.786 679.961 156.919 L 668.367 145.051 664.716 143.526 L 661.064 142 656.500 142 L 651.936 142 648.718 143.355 L 645.500 144.709 640.835 149.605 L 636.169 154.500 631.540 159.992 L 626.911 165.485 622.805 168.242 L 618.699 171 613.489 171 L 608.279 171 604.632 168.525 L 600.986 166.051 589.743 154.620 L 578.500 143.189 572.995 141.990 L 567.489 140.791 563.468 141.874 L 559.447 142.957 555.974 145.479 L 552.500 148.001 546.478 155.716 L 540.457 163.431 536.204 166.675 L 531.951 169.918 528.476 170.571 L 525 171.223 521.479 170.562 L 517.957 169.901 514.449 166.821 L 510.940 163.740 505.879 156.420 L 500.819 149.099 497.409 146.498 L 493.999 143.898 490.532 142.449 L 487.064 141 482.228 141 L 477.392 141 472.790 143.918 M 219.373 160.856 L 211.246 163.685 207.693 165.881 L 204.140 168.077 200.923 171.741 L 197.705 175.405 194.872 181.460 L 192.038 187.515 191.147 194.007 L 190.256 200.500 191.112 207.340 L 191.968 214.180 193.918 222.393 L 195.869 230.606 198.298 237.053 L 200.728 243.500 206.878 255.763 L 213.028 268.025 216.538 271.910 L 220.047 275.794 223.425 277.397 L 226.802 279 230.433 279 L 234.064 279 237.282 277.619 L 240.500 276.238 243.701 272.869 L 246.903 269.500 254.979 255 L 263.055 240.500 264.946 234.409 L 266.837 228.317 268.058 222.109 L 269.280 215.900 268.732 202.700 L 268.185 189.500 265.989 182.544 L 263.793 175.589 261.471 172.172 L 259.149 168.755 254.416 165.390 L 249.684 162.025 244.304 160.013 L 238.925 158 233.212 158.013 L 227.500 158.027 219.373 160.856 M 222.984 341.834 L 219.500 343.668 216.265 348.425 L 213.030 353.182 210.596 360.885 L 208.163 368.588 206.965 375.044 L 205.767 381.500 205.800 389.500 L 205.834 397.500 208.020 407.475 L 210.206 417.449 212.106 422.269 L 214.006 427.089 216.253 430.142 L 218.500 433.195 222.588 435.598 L 226.676 438 230.106 438 L 233.536 438 237.348 435.409 L 241.161 432.819 244.914 427.012 L 248.667 421.204 251.349 413.092 L 254.030 404.980 255.207 397.408 L 256.384 389.836 255.199 380.451 L 254.013 371.065 251.024 361.732 L 248.034 352.400 244.410 348.165 L 240.785 343.931 236.932 341.966 L 233.080 340 229.774 340 L 226.469 340 222.984 341.834 M 226.383 499.074 L 223.265 499.988 219.023 504.591 L 214.780 509.193 211.512 516.347 L 208.243 523.500 206.594 530 L 204.945 536.500 204.334 546.044 L 203.723 555.588 204.923 562.544 L 206.122 569.500 208.956 581.098 L 211.790 592.696 214.511 598.254 L 217.232 603.811 221.417 607.918 L 225.602 612.025 228.551 612.839 L 231.500 613.653 233.757 613.076 L 236.014 612.500 239.267 609.899 L 242.520 607.298 245.349 602.100 L 248.178 596.903 251.518 583.643 L 254.857 570.384 255.990 560.090 L 257.123 549.796 256.067 541.148 L 255.011 532.500 253.072 525.734 L 251.132 518.968 248.510 513.234 L 245.887 507.500 243.193 504.661 L 240.500 501.821 238 500.531 L 235.500 499.241 232.500 498.700 L 229.500 498.160 226.383 499.074 M 1008.270 595.020 L 1004.039 595.889 999.770 597.778 L 995.500 599.666 992.248 603.370 L 988.996 607.074 987.667 610.287 L 986.338 613.500 985.202 618.064 L 984.065 622.629 982.113 638.564 L 980.162 654.500 977.097 666 L 974.033 677.500 970.510 700.500 L 966.988 723.500 965.405 729 L 963.822 734.500 961.353 737.759 L 958.884 741.018 954.692 743.200 L 950.500 745.381 941 745.797 L 931.500 746.212 918 744.602 L 904.500 742.991 890.500 742 L 876.500 741.009 828.500 740.367 L 780.500 739.725 766.500 740.861 L 752.500 741.998 732.500 743.038 L 712.500 744.079 693 746.002 L 673.500 747.926 657 748.914 L 640.500 749.902 628 750.495 L 615.500 751.089 601 752.657 L 586.500 754.225 578.980 753.791 L 571.460 753.357 565.865 750.796 L 560.270 748.234 552.086 742.499 L 543.901 736.764 537.168 733.936 L 530.436 731.107 520.483 728.521 L 510.530 725.935 503.435 725.335 L 496.341 724.735 489.425 725.940 L 482.510 727.144 476.601 730.293 L 470.692 733.443 467.981 737.185 L 465.271 740.926 462.512 746.566 L 459.752 752.206 456.408 753.603 L 453.064 755 443 755 L 432.936 755 429.232 756.548 L 425.527 758.095 423.166 760.298 L 420.805 762.500 418.903 766.210 L 417 769.920 417.022 773.210 L 417.044 776.500 418.906 780.601 L 420.769 784.702 424.337 788.271 L 427.906 791.839 432.535 795.024 L 437.164 798.209 442.704 800.156 L 448.244 802.103 470.872 806.572 L 493.500 811.040 502 811.644 L 510.500 812.248 518 811.095 L 525.500 809.942 537.500 806.496 L 549.500 803.051 557.500 801.949 L 565.500 800.847 757.500 800.312 L 949.500 799.776 985.500 800.844 L 1021.500 801.913 1037.209 801.094 L 1052.919 800.274 1058.468 797.560 L 1064.017 794.845 1066.582 791.481 L 1069.147 788.118 1071.199 782.809 L 1073.250 777.500 1073.076 696 L 1072.902 614.500 1071.954 610.904 L 1071.006 607.308 1068.093 603.287 L 1065.180 599.265 1060.340 596.883 L 1055.500 594.500 1034 594.325 L 1012.500 594.151 1008.270 595.020 M 1020.431 617.882 L 1017.361 618.674 1014.085 620.587 L 1010.810 622.500 1008.927 626.167 L 1007.044 629.834 1004.545 645.167 L 1002.045 660.500 998.977 671.857 L 995.908 683.213 992.847 702.857 L 989.786 722.500 989.271 731.241 L 988.756 739.981 991.403 745.391 L 994.049 750.800 997.639 753.538 L 1001.228 756.276 1008.115 758.606 L 1015.002 760.936 1023.578 762.543 L 1032.154 764.150 1035.911 763.515 L 1039.668 762.880 1042.902 760.914 L 1046.136 758.947 1048.318 754.223 L 1050.500 749.500 1050.809 699.114 L 1051.119 648.728 1050.069 640.147 L 1049.019 631.566 1046.254 627.033 L 1043.489 622.500 1038.834 620.187 L 1034.179 617.874 1028.839 617.482 L 1023.500 617.090 1020.431 617.882" stroke="none" fill="#656565" fill-rule="evenodd"/><path d="M 0 449.001 L 0 898.002 636.250 897.751 L 1272.500 897.500 1272.751 448.750 L 1273.002 0 636.501 0 L 0 0 0 449.001 M 0.496 449.500 L 0.496 898.500 0.750 673.668 L 1.004 448.837 0.750 224.668 L 0.496 0.500 0.496 449.500 M 212.500 138.642 L 205.500 140.122 198.282 143.664 L 191.063 147.207 184.566 153.160 L 178.069 159.114 174.999 165.351 L 171.928 171.588 169.977 181.044 L 168.026 190.500 168.013 199.101 L 168 207.702 171.001 225.344 L 174.003 242.985 175.939 248.081 L 177.875 253.176 183.073 262.338 L 188.272 271.500 195.073 282.096 L 201.875 292.692 203.937 298.814 L 206 304.937 206 311.500 L 206 318.063 203.914 324.282 L 201.829 330.500 196.908 339.046 L 191.987 347.592 188.511 355.833 L 185.036 364.074 183.409 370.287 L 181.783 376.500 182.302 389 L 182.821 401.500 186.976 415 L 191.132 428.500 196.475 438.500 L 201.818 448.500 203.497 454.309 L 205.176 460.119 205.176 466.875 L 205.176 473.631 203.996 478.014 L 202.816 482.398 196.140 495.449 L 189.464 508.500 186.234 518.155 L 183.005 527.811 181.955 537.655 L 180.905 547.500 181.549 554.500 L 182.192 561.500 185.004 574.500 L 187.815 587.500 189.432 595 L 191.048 602.500 194.381 610.500 L 197.713 618.500 204.060 633 L 210.408 647.500 210.822 653.781 L 211.237 660.063 208.516 667.781 L 205.795 675.500 202.605 682 L 199.415 688.500 192.239 699.645 L 185.062 710.790 177.366 724.645 L 169.669 738.500 166.639 742.964 L 163.610 747.427 155.305 763.738 L 147 780.048 147 785.570 L 147 791.091 149.455 793.545 L 151.909 796 155.305 796 L 158.700 796 162.710 793.095 L 166.720 790.190 171.242 783.345 L 175.763 776.500 178.509 771 L 181.256 765.500 189.277 751 L 197.298 736.500 202.484 728 L 207.670 719.500 212.061 711 L 216.453 702.500 221.023 697.905 L 225.594 693.311 228.047 692.886 L 230.500 692.462 232.905 692.821 L 235.310 693.180 240.427 698.340 L 245.544 703.500 249.417 711 L 253.289 718.500 259.489 729 L 265.688 739.500 275.594 757.819 L 285.500 776.138 291.760 784.494 L 298.021 792.850 301.378 794.925 L 304.736 797 307.434 797 L 310.131 797 311.986 796.008 L 313.840 795.015 314.919 791.747 L 315.997 788.478 315.068 785.238 L 314.139 781.998 310.164 774.749 L 306.188 767.500 303.498 761.052 L 300.808 754.603 297.239 749.052 L 293.671 743.500 288.503 734 L 283.334 724.500 278.571 716.500 L 273.809 708.500 266.366 695.261 L 258.924 682.021 254.712 671.761 L 250.500 661.500 250.551 653 L 250.602 644.500 254.787 634.264 L 258.973 624.028 264.406 613.264 L 269.839 602.500 271.874 594.500 L 273.910 586.500 276.581 572 L 279.253 557.500 278.698 546 L 278.144 534.500 275.135 522.728 L 272.126 510.955 269.601 505.728 L 267.076 500.500 262.993 494 L 258.911 487.500 256.851 480.726 L 254.790 473.951 255.145 466.223 L 255.500 458.494 258.094 453.497 L 260.689 448.500 266.250 437.797 L 271.811 427.093 274.395 416.072 L 276.980 405.050 278.168 395.375 L 279.357 385.701 278.170 377.600 L 276.982 369.500 275.086 363.500 L 273.190 357.500 271.108 352.246 L 269.026 346.993 265.067 340.723 L 261.107 334.454 257.967 327.742 L 254.826 321.031 253.748 314.738 L 252.670 308.445 254.793 301.456 L 256.916 294.467 263.603 284.535 L 270.291 274.603 278.146 258.552 L 286.001 242.500 288.630 232.500 L 291.258 222.500 291.236 208.500 L 291.213 194.500 289.687 183.500 L 288.162 172.500 285.984 166.683 L 283.806 160.866 277.972 154.629 L 272.137 148.392 266.819 145.805 L 261.500 143.218 254 141.594 L 246.500 139.969 236.500 138.490 L 226.500 137.012 223 137.087 L 219.500 137.163 212.500 138.642 M 472.790 143.918 L 468.188 146.837 464.228 152.168 L 460.268 157.500 455.996 165 L 451.723 172.500 447.277 179.719 L 442.831 186.939 440.916 191.980 L 439 197.021 439 201.576 L 439 206.131 440.163 208.316 L 441.327 210.500 442.913 211.718 L 444.500 212.936 446.800 212.968 L 449.099 213 452.077 211.460 L 455.054 209.921 462.474 198.637 L 469.894 187.353 474.425 183.176 L 478.955 179 483.017 179 L 487.080 179 490.953 180.976 L 494.827 182.952 498.604 187.726 L 502.381 192.500 507.440 197.829 L 512.500 203.159 516.500 205.264 L 520.500 207.370 525.500 207.377 L 530.500 207.385 534.244 205.581 L 537.988 203.778 541.773 200.104 L 545.559 196.430 551.418 188.116 L 557.277 179.802 560.389 177.904 L 563.500 176.006 566.717 175.398 L 569.934 174.790 574.449 176.975 L 578.965 179.161 588.441 190.831 L 597.917 202.500 601.599 204.975 L 605.281 207.451 612.113 207.837 L 618.945 208.223 623.382 205.622 L 627.819 203.022 635.818 192.435 L 643.817 181.848 647.087 179.436 L 650.356 177.024 653.721 176.393 L 657.086 175.761 661.549 177.466 L 666.013 179.170 671.256 185.222 L 676.500 191.274 681.875 197.108 L 687.249 202.942 691.440 204.971 L 695.631 207 700.856 207 L 706.080 207 709.855 205.074 L 713.630 203.148 716.608 200.324 L 719.585 197.500 725.206 190.411 L 730.828 183.323 733.945 180.700 L 737.062 178.077 740.531 177.119 L 744 176.161 747.605 177.157 L 751.209 178.152 755.736 182.325 L 760.263 186.497 764.085 192.125 L 767.907 197.753 771.181 201.027 L 774.456 204.302 778.478 206.129 L 782.500 207.956 786.782 207.978 L 791.064 208 794.282 206.648 L 797.500 205.297 808.408 193.588 L 819.317 181.879 823.119 179.939 L 826.920 178 831 178 L 835.080 178 838.932 179.965 L 842.785 181.931 852.062 191.961 L 861.340 201.990 866.366 204.495 L 871.393 207 875.446 206.978 L 879.500 206.956 883.500 205.130 L 887.500 203.304 898.401 191.599 L 909.302 179.895 912.314 178.337 L 915.327 176.779 920.705 177.225 L 926.083 177.671 928.791 179.683 L 931.500 181.695 939.500 191.546 L 947.500 201.397 952.864 204.198 L 958.228 207 962.864 206.991 L 967.500 206.981 972.578 204.069 L 977.656 201.156 980.578 197.766 L 983.500 194.375 988.315 188.103 L 993.130 181.830 997.563 179.869 L 1001.995 177.908 1005.506 178.567 L 1009.017 179.226 1011.570 181.234 L 1014.122 183.241 1022.188 195.371 L 1030.254 207.500 1033.305 210.731 L 1036.356 213.962 1039.617 215.039 L 1042.878 216.115 1045.830 214.588 L 1048.783 213.061 1049.892 209.881 L 1051 206.702 1050.967 204.101 L 1050.935 201.500 1049.199 196.500 L 1047.464 191.500 1036.982 174.692 L 1026.500 157.884 1023 153.282 L 1019.500 148.679 1015.713 145.635 L 1011.926 142.590 1005.630 142.189 L 999.335 141.788 995.418 143.807 L 991.500 145.825 988.409 149.162 L 985.317 152.500 980.562 158.800 L 975.806 165.100 972.043 167.590 L 968.280 170.080 964.696 170.662 L 961.112 171.244 957.534 170.572 L 953.957 169.901 950.449 166.821 L 946.940 163.740 941.879 156.420 L 936.819 149.099 933.409 146.498 L 929.999 143.898 926.532 142.449 L 923.064 141 917.738 141 L 912.412 141 907.003 144.250 L 901.594 147.500 897.240 153 L 892.885 158.500 888.272 163.872 L 883.659 169.244 880.362 170.622 L 877.064 172 873.918 172 L 870.772 172 866.852 169.797 L 862.932 167.594 854.455 157.304 L 845.978 147.014 841.850 144.282 L 837.721 141.550 831.111 141.235 L 824.500 140.921 820.500 143.238 L 816.500 145.556 808.404 156.308 L 800.307 167.060 796.959 169.530 L 793.611 172 788.756 172 L 783.901 172 781.168 170.587 L 778.436 169.174 768.201 158.168 L 757.967 147.162 752.787 144.581 L 747.607 142 743.054 142.022 L 738.500 142.044 734.160 144.013 L 729.821 145.982 724.660 151.652 L 719.500 157.321 714 163.055 L 708.500 168.788 704.250 170.052 L 700 171.317 695.778 170.051 L 691.555 168.786 679.961 156.919 L 668.367 145.051 664.716 143.526 L 661.064 142 656.500 142 L 651.936 142 648.718 143.355 L 645.500 144.709 640.835 149.605 L 636.169 154.500 631.540 159.992 L 626.911 165.485 622.805 168.242 L 618.699 171 613.489 171 L 608.279 171 604.632 168.525 L 600.986 166.051 589.743 154.620 L 578.500 143.189 572.995 141.990 L 567.489 140.791 563.468 141.874 L 559.447 142.957 555.974 145.479 L 552.500 148.001 546.478 155.716 L 540.457 163.431 536.204 166.675 L 531.951 169.918 528.476 170.571 L 525 171.223 521.479 170.562 L 517.957 169.901 514.449 166.821 L 510.940 163.740 505.879 156.420 L 500.819 149.099 497.409 146.498 L 493.999 143.898 490.532 142.449 L 487.064 141 482.228 141 L 477.392 141 472.790 143.918 M 219.373 160.856 L 211.246 163.685 207.693 165.881 L 204.140 168.077 200.923 171.741 L 197.705 175.405 194.872 181.460 L 192.038 187.515 191.147 194.007 L 190.256 200.500 191.112 207.340 L 191.968 214.180 193.918 222.393 L 195.869 230.606 198.298 237.053 L 200.728 243.500 206.878 255.763 L 213.028 268.025 216.538 271.910 L 220.047 275.794 223.425 277.397 L 226.802 279 230.433 279 L 234.064 279 237.282 277.619 L 240.500 276.238 243.701 272.869 L 246.903 269.500 254.979 255 L 263.055 240.500 264.946 234.409 L 266.837 228.317 268.058 222.109 L 269.280 215.900 268.732 202.700 L 268.185 189.500 265.989 182.544 L 263.793 175.589 261.471 172.172 L 259.149 168.755 254.416 165.390 L 249.684 162.025 244.304 160.013 L 238.925 158 233.212 158.013 L 227.500 158.027 219.373 160.856 M 222.984 341.834 L 219.500 343.668 216.265 348.425 L 213.030 353.182 210.596 360.885 L 208.163 368.588 206.965 375.044 L 205.767 381.500 205.800 389.500 L 205.834 397.500 208.020 407.475 L 210.206 417.449 212.106 422.269 L 214.006 427.089 216.253 430.142 L 218.500 433.195 222.588 435.598 L 226.676 438 230.106 438 L 233.536 438 237.348 435.409 L 241.161 432.819 244.914 427.012 L 248.667 421.204 251.349 413.092 L 254.030 404.980 255.207 397.408 L 256.384 389.836 255.199 380.451 L 254.013 371.065 251.024 361.732 L 248.034 352.400 244.410 348.165 L 240.785 343.931 236.932 341.966 L 233.080 340 229.774 340 L 226.469 340 222.984 341.834 M 226.383 499.074 L 223.265 499.988 219.023 504.591 L 214.780 509.193 211.512 516.347 L 208.243 523.500 206.594 530 L 204.945 536.500 204.334 546.044 L 203.723 555.588 204.923 562.544 L 206.122 569.500 208.956 581.098 L 211.790 592.696 214.511 598.254 L 217.232 603.811 221.417 607.918 L 225.602 612.025 228.551 612.839 L 231.500 613.653 233.757 613.076 L 236.014 612.500 239.267 609.899 L 242.520 607.298 245.349 602.100 L 248.178 596.903 251.518 583.643 L 254.857 570.384 255.990 560.090 L 257.123 549.796 256.067 541.148 L 255.011 532.500 253.072 525.734 L 251.132 518.968 248.510 513.234 L 245.887 507.500 243.193 504.661 L 240.500 501.821 238 500.531 L 235.500 499.241 232.500 498.700 L 229.500 498.160 226.383 499.074 M 1008.270 595.020 L 1004.039 595.889 999.770 597.778 L 995.500 599.666 992.248 603.370 L 988.996 607.074 987.667 610.287 L 986.338 613.500 985.202 618.064 L 984.065 622.629 982.113 638.564 L 980.162 654.500 977.097 666 L 974.033 677.500 970.510 700.500 L 966.988 723.500 965.405 729 L 963.822 734.500 961.353 737.759 L 958.884 741.018 954.692 743.200 L 950.500 745.381 941 745.797 L 931.500 746.212 918 744.602 L 904.500 742.991 890.500 742 L 876.500 741.009 828.500 740.367 L 780.500 739.725 766.500 740.861 L 752.500 741.998 732.500 743.038 L 712.500 744.079 693 746.002 L 673.500 747.926 657 748.914 L 640.500 749.902 628 750.495 L 615.500 751.089 601 752.657 L 586.500 754.225 578.980 753.791 L 571.460 753.357 565.865 750.796 L 560.270 748.234 552.086 742.499 L 543.901 736.764 537.168 733.936 L 530.436 731.107 520.483 728.521 L 510.530 725.935 503.435 725.335 L 496.341 724.735 489.425 725.940 L 482.510 727.144 476.601 730.293 L 470.692 733.443 467.981 737.185 L 465.271 740.926 462.512 746.566 L 459.752 752.206 456.408 753.603 L 453.064 755 443 755 L 432.936 755 429.232 756.548 L 425.527 758.095 423.166 760.298 L 420.805 762.500 418.903 766.210 L 417 769.920 417.022 773.210 L 417.044 776.500 418.906 780.601 L 420.769 784.702 424.337 788.271 L 427.906 791.839 432.535 795.024 L 437.164 798.209 442.704 800.156 L 448.244 802.103 470.872 806.572 L 493.500 811.040 502 811.644 L 510.500 812.248 518 811.095 L 525.500 809.942 537.500 806.496 L 549.500 803.051 557.500 801.949 L 565.500 800.847 757.500 800.312 L 949.500 799.776 985.500 800.844 L 1021.500 801.913 1037.209 801.094 L 1052.919 800.274 1058.468 797.560 L 1064.017 794.845 1066.582 791.481 L 1069.147 788.118 1071.199 782.809 L 1073.250 777.500 1073.076 696 L 1072.902 614.500 1071.954 610.904 L 1071.006 607.308 1068.093 603.287 L 1065.180 599.265 1060.340 596.883 L 1055.500 594.500 1034 594.325 L 1012.500 594.151 1008.270 595.020 M 1020.431 617.882 L 1017.361 618.674 1014.085 620.587 L 1010.810 622.500 1008.927 626.167 L 1007.044 629.834 1004.545 645.167 L 1002.045 660.500 998.977 671.857 L 995.908 683.213 992.847 702.857 L 989.786 722.500 989.271 731.241 L 988.756 739.981 991.403 745.391 L 994.049 750.800 997.639 753.538 L 1001.228 756.276 1008.115 758.606 L 1015.002 760.936 1023.578 762.543 L 1032.154 764.150 1035.911 763.515 L 1039.668 762.880 1042.902 760.914 L 1046.136 758.947 1048.318 754.223 L 1050.500 749.500 1050.809 699.114 L 1051.119 648.728 1050.069 640.147 L 1049.019 631.566 1046.254 627.033 L 1043.489 622.500 1038.834 620.187 L 1034.179 617.874 1028.839 617.482 L 1023.500 617.090 1020.431 617.882" stroke="none" fill="#f2f2f2" fill-rule="evenodd"/></svg>