<svg xmlns="http://www.w3.org/2000/svg" width="810" height="1272" viewBox="0 0 810 1272" version="1.1"><path d="M 329 128.609 C 296.385 132.969, 259.640 145.271, 238.577 158.883 C 231.935 163.175, 223.125 168.759, 219 171.291 C 214.875 173.823, 207.900 179.106, 203.500 183.030 C 199.100 186.954, 192.003 192.855, 187.729 196.143 C 179.866 202.193, 176.307 206.235, 164.523 222.500 C 151.591 240.350, 149.799 243.242, 145.125 253.816 C 142.515 259.720, 138.453 267.388, 136.097 270.857 C 124.100 288.524, 120.993 305.424, 121.009 352.924 C 121.031 417.119, 123.368 432.095, 136.257 450.624 C 139.270 454.956, 143.561 462.427, 145.792 467.227 C 148.024 472.028, 152.537 479.678, 155.821 484.227 C 159.106 488.777, 164.110 497.144, 166.941 502.821 C 173.220 515.408, 177.800 520.537, 188.572 527.044 C 193.125 529.793, 200.146 534.599, 204.175 537.723 C 208.204 540.848, 216.450 546.523, 222.500 550.335 C 228.550 554.148, 236.200 559.175, 239.500 561.508 C 247.588 567.225, 249.906 568.325, 266.870 574.504 C 274.916 577.434, 284.225 580.963, 287.556 582.345 C 320.658 596.082, 386.515 596.080, 416.500 582.341 C 422 579.820, 432.350 575.644, 439.500 573.060 C 454.532 567.627, 454.554 567.616, 466.690 559.795 C 471.745 556.537, 480.802 551.696, 486.817 549.037 C 492.832 546.378, 502.150 541.404, 507.525 537.984 C 517.205 531.824, 526.996 526.902, 540.480 521.418 C 554.290 515.802, 557.886 510.531, 559.112 494.113 C 560.683 473.055, 566.998 457.960, 581.959 439.500 C 589.113 430.672, 590.327 428.669, 592.259 422.500 L 593.825 417.500 594.412 371 L 594.999 324.500 593.506 317.529 C 591.990 310.456, 588.644 302.941, 580.579 288.500 C 577.011 282.111, 575.317 277.248, 572.167 264.349 C 566.302 240.334, 560.243 229.764, 545.729 218.229 C 541.765 215.078, 534.016 208.183, 528.510 202.907 C 513.901 188.907, 498.752 177.117, 487.755 171.189 C 482.442 168.325, 474.787 163.320, 470.742 160.066 C 461.106 152.314, 456.166 149.785, 442.142 145.422 C 435.739 143.430, 425.775 139.861, 420 137.490 C 396.064 127.662, 361.394 124.279, 329 128.609 M 346.500 165.997 C 301.692 171.078, 257.462 187.679, 240.862 205.645 C 234.686 212.330, 238.158 218.530, 249.534 221.134 C 258.009 223.074, 453.334 223.157, 459.705 221.224 C 481.842 214.504, 460.843 188.133, 427.259 180.477 C 414.189 177.498, 393.238 172.303, 379.500 168.636 C 369.117 165.865, 356.538 164.859, 346.500 165.997 M 209 264.658 C 172.768 268.453, 150.129 299.102, 177.655 307.094 L 182.500 308.500 354.027 308.500 L 525.553 308.500 530.409 306 C 549.086 296.383, 537.737 274.370, 510 266.413 L 503.500 264.549 358 264.420 C 277.975 264.349, 210.925 264.456, 209 264.658 M 171.620 349.225 C 153.351 354.098, 151.952 387.800, 169.733 394.661 L 174.500 396.500 351.500 396.500 L 528.500 396.500 534 394.790 C 558.382 387.211, 560.837 359.417, 537.931 350.270 L 533.500 348.500 354.500 348.345 C 233.821 348.241, 174.236 348.528, 171.620 349.225 M 191.704 435.415 C 170.058 441.277, 184.324 468.619, 214 478.145 C 231.310 483.701, 471.804 483.683, 493.154 478.124 C 523.128 470.319, 540.673 442.828, 520.171 435.790 C 514.680 433.906, 198.612 433.545, 191.704 435.415 M 294.291 522.999 C 260.827 525.896, 272.719 535.795, 327.439 550.590 C 350.724 556.885, 379.181 554.274, 410.957 542.925 C 436.806 533.694, 440.575 527.757, 423 523.957 C 416.458 522.543, 308.815 521.742, 294.291 522.999 M 326.500 877.021 C 318.122 877.918, 289.619 883.328, 278.704 886.092 C 268.241 888.742, 261.956 891.642, 251.377 898.702 C 246.495 901.961, 238.450 906.791, 233.500 909.435 C 228.550 912.079, 220.450 917.029, 215.500 920.435 C 210.550 923.841, 202.675 928.828, 198 931.517 C 185.798 938.537, 177.859 946.897, 170.478 960.500 C 167.195 966.550, 161.771 975.100, 158.424 979.500 C 155.077 983.900, 149.830 992, 146.764 997.500 C 143.699 1003, 139.114 1011.100, 136.577 1015.500 C 119.603 1044.936, 116.182 1104.863, 130.563 1120.858 C 141.082 1132.559, 126.583 1131.875, 367.541 1132.045 L 575.500 1132.191 581.079 1130.088 C 597.742 1123.805, 601.945 1113.094, 595.539 1093.232 C 593.636 1087.329, 590.545 1077.325, 588.671 1071 C 586.798 1064.675, 583.614 1055.581, 581.596 1050.791 C 579.578 1046.001, 576.413 1036.238, 574.562 1029.095 C 570.294 1012.625, 567.789 1007.369, 559.599 997.696 C 555.965 993.404, 550.865 986.204, 548.266 981.696 C 545.667 977.188, 540.732 970.049, 537.299 965.830 C 533.867 961.612, 528.621 954.412, 525.641 949.830 C 518.788 939.293, 514.577 935.329, 504.163 929.614 C 499.578 927.097, 491.736 921.776, 486.736 917.790 C 481.737 913.803, 472.438 907.801, 466.073 904.452 C 459.708 901.104, 451.498 896.499, 447.830 894.220 C 432.942 884.969, 406.537 880.023, 356 877.020 C 337.152 875.900, 336.973 875.900, 326.500 877.021 M 306.743 918.489 C 282.573 922.560, 279.627 923.533, 270.372 930.499 C 266.339 933.535, 258.642 938.556, 253.269 941.657 C 247.896 944.758, 240.125 949.861, 236 952.998 C 231.875 956.134, 225.246 960.785, 221.268 963.332 C 211.511 969.581, 207.522 973.814, 200.837 985.013 C 197.723 990.231, 192.441 998.274, 189.100 1002.887 C 185.758 1007.500, 180.720 1015.549, 177.903 1020.775 C 175.086 1026, 170.858 1033.251, 168.507 1036.888 C 153.394 1060.264, 154.316 1087.750, 170.373 1092.518 L 175.363 1094 349.632 1094 C 474.744 1094, 525.396 1093.683, 529.201 1092.877 C 544.808 1089.569, 550.161 1081.665, 546.289 1067.645 C 537.048 1034.182, 532.471 1022.216, 525.006 1012 C 522.393 1008.425, 517.752 1001.450, 514.691 996.500 C 510.887 990.347, 505.863 984.270, 498.813 977.291 C 488.559 967.140, 482.635 962.642, 453 942.506 C 444.475 936.714, 435.384 930.379, 432.799 928.429 C 420.401 919.077, 392.922 914.980, 343.500 915.115 L 326.500 915.161 306.743 918.489" stroke="none" fill="#777777" fill-rule="evenodd"/><path d="M 0 636.001 L 0 1272.002 405.250 1271.751 L 810.500 1271.500 810.751 635.750 L 811.002 0 405.501 0 L 0 0 0 636.001 M 0.497 636.500 C 0.497 986.300, 0.611 1129.251, 0.750 954.168 C 0.889 779.085, 0.889 492.885, 0.750 318.168 C 0.611 143.451, 0.497 286.700, 0.497 636.500 M 329 128.609 C 296.385 132.969, 259.640 145.271, 238.577 158.883 C 231.935 163.175, 223.125 168.759, 219 171.291 C 214.875 173.823, 207.900 179.106, 203.500 183.030 C 199.100 186.954, 192.003 192.855, 187.729 196.143 C 179.866 202.193, 176.307 206.235, 164.523 222.500 C 151.591 240.350, 149.799 243.242, 145.125 253.816 C 142.515 259.720, 138.453 267.388, 136.097 270.857 C 124.100 288.524, 120.993 305.424, 121.009 352.924 C 121.031 417.119, 123.368 432.095, 136.257 450.624 C 139.270 454.956, 143.561 462.427, 145.792 467.227 C 148.024 472.028, 152.537 479.678, 155.821 484.227 C 159.106 488.777, 164.110 497.144, 166.941 502.821 C 173.220 515.408, 177.800 520.537, 188.572 527.044 C 193.125 529.793, 200.146 534.599, 204.175 537.723 C 208.204 540.848, 216.450 546.523, 222.500 550.335 C 228.550 554.148, 236.200 559.175, 239.500 561.508 C 247.588 567.225, 249.906 568.325, 266.870 574.504 C 274.916 577.434, 284.225 580.963, 287.556 582.345 C 320.658 596.082, 386.515 596.080, 416.500 582.341 C 422 579.820, 432.350 575.644, 439.500 573.060 C 454.532 567.627, 454.554 567.616, 466.690 559.795 C 471.745 556.537, 480.802 551.696, 486.817 549.037 C 492.832 546.378, 502.150 541.404, 507.525 537.984 C 517.205 531.824, 526.996 526.902, 540.480 521.418 C 554.290 515.802, 557.886 510.531, 559.112 494.113 C 560.683 473.055, 566.998 457.960, 581.959 439.500 C 589.113 430.672, 590.327 428.669, 592.259 422.500 L 593.825 417.500 594.412 371 L 594.999 324.500 593.506 317.529 C 591.990 310.456, 588.644 302.941, 580.579 288.500 C 577.011 282.111, 575.317 277.248, 572.167 264.349 C 566.302 240.334, 560.243 229.764, 545.729 218.229 C 541.765 215.078, 534.016 208.183, 528.510 202.907 C 513.901 188.907, 498.752 177.117, 487.755 171.189 C 482.442 168.325, 474.787 163.320, 470.742 160.066 C 461.106 152.314, 456.166 149.785, 442.142 145.422 C 435.739 143.430, 425.775 139.861, 420 137.490 C 396.064 127.662, 361.394 124.279, 329 128.609 M 346.500 165.997 C 301.692 171.078, 257.462 187.679, 240.862 205.645 C 234.686 212.330, 238.158 218.530, 249.534 221.134 C 258.009 223.074, 453.334 223.157, 459.705 221.224 C 481.842 214.504, 460.843 188.133, 427.259 180.477 C 414.189 177.498, 393.238 172.303, 379.500 168.636 C 369.117 165.865, 356.538 164.859, 346.500 165.997 M 209 264.658 C 172.768 268.453, 150.129 299.102, 177.655 307.094 L 182.500 308.500 354.027 308.500 L 525.553 308.500 530.409 306 C 549.086 296.383, 537.737 274.370, 510 266.413 L 503.500 264.549 358 264.420 C 277.975 264.349, 210.925 264.456, 209 264.658 M 171.620 349.225 C 153.351 354.098, 151.952 387.800, 169.733 394.661 L 174.500 396.500 351.500 396.500 L 528.500 396.500 534 394.790 C 558.382 387.211, 560.837 359.417, 537.931 350.270 L 533.500 348.500 354.500 348.345 C 233.821 348.241, 174.236 348.528, 171.620 349.225 M 191.704 435.415 C 170.058 441.277, 184.324 468.619, 214 478.145 C 231.310 483.701, 471.804 483.683, 493.154 478.124 C 523.128 470.319, 540.673 442.828, 520.171 435.790 C 514.680 433.906, 198.612 433.545, 191.704 435.415 M 294.291 522.999 C 260.827 525.896, 272.719 535.795, 327.439 550.590 C 350.724 556.885, 379.181 554.274, 410.957 542.925 C 436.806 533.694, 440.575 527.757, 423 523.957 C 416.458 522.543, 308.815 521.742, 294.291 522.999 M 326.500 877.021 C 318.122 877.918, 289.619 883.328, 278.704 886.092 C 268.241 888.742, 261.956 891.642, 251.377 898.702 C 246.495 901.961, 238.450 906.791, 233.500 909.435 C 228.550 912.079, 220.450 917.029, 215.500 920.435 C 210.550 923.841, 202.675 928.828, 198 931.517 C 185.798 938.537, 177.859 946.897, 170.478 960.500 C 167.195 966.550, 161.771 975.100, 158.424 979.500 C 155.077 983.900, 149.830 992, 146.764 997.500 C 143.699 1003, 139.114 1011.100, 136.577 1015.500 C 119.603 1044.936, 116.182 1104.863, 130.563 1120.858 C 141.082 1132.559, 126.583 1131.875, 367.541 1132.045 L 575.500 1132.191 581.079 1130.088 C 597.742 1123.805, 601.945 1113.094, 595.539 1093.232 C 593.636 1087.329, 590.545 1077.325, 588.671 1071 C 586.798 1064.675, 583.614 1055.581, 581.596 1050.791 C 579.578 1046.001, 576.413 1036.238, 574.562 1029.095 C 570.294 1012.625, 567.789 1007.369, 559.599 997.696 C 555.965 993.404, 550.865 986.204, 548.266 981.696 C 545.667 977.188, 540.732 970.049, 537.299 965.830 C 533.867 961.612, 528.621 954.412, 525.641 949.830 C 518.788 939.293, 514.577 935.329, 504.163 929.614 C 499.578 927.097, 491.736 921.776, 486.736 917.790 C 481.737 913.803, 472.438 907.801, 466.073 904.452 C 459.708 901.104, 451.498 896.499, 447.830 894.220 C 432.942 884.969, 406.537 880.023, 356 877.020 C 337.152 875.900, 336.973 875.900, 326.500 877.021 M 306.743 918.489 C 282.573 922.560, 279.627 923.533, 270.372 930.499 C 266.339 933.535, 258.642 938.556, 253.269 941.657 C 247.896 944.758, 240.125 949.861, 236 952.998 C 231.875 956.134, 225.246 960.785, 221.268 963.332 C 211.511 969.581, 207.522 973.814, 200.837 985.013 C 197.723 990.231, 192.441 998.274, 189.100 1002.887 C 185.758 1007.500, 180.720 1015.549, 177.903 1020.775 C 175.086 1026, 170.858 1033.251, 168.507 1036.888 C 153.394 1060.264, 154.316 1087.750, 170.373 1092.518 L 175.363 1094 349.632 1094 C 474.744 1094, 525.396 1093.683, 529.201 1092.877 C 544.808 1089.569, 550.161 1081.665, 546.289 1067.645 C 537.048 1034.182, 532.471 1022.216, 525.006 1012 C 522.393 1008.425, 517.752 1001.450, 514.691 996.500 C 510.887 990.347, 505.863 984.270, 498.813 977.291 C 488.559 967.140, 482.635 962.642, 453 942.506 C 444.475 936.714, 435.384 930.379, 432.799 928.429 C 420.401 919.077, 392.922 914.980, 343.500 915.115 L 326.500 915.161 306.743 918.489" stroke="none" fill="#f2f2f2" fill-rule="evenodd"/></svg>