<svg xmlns="http://www.w3.org/2000/svg" width="1272" height="1109" viewBox="0 0 1272 1109" version="1.1"><path d="M 525.500 141.097 C 507.113 143.808, 491.735 161.001, 487.572 183.500 C 486.758 187.900, 484.510 199.600, 482.576 209.500 C 472.205 262.589, 476.895 312.098, 495.139 342.128 C 497.936 346.733, 502.233 355.434, 504.688 361.464 C 507.142 367.494, 512.204 377.169, 515.935 382.964 C 519.667 388.759, 525.270 397.472, 528.387 402.326 C 531.504 407.180, 535.836 414.696, 538.014 419.028 C 540.193 423.361, 544.881 431.162, 548.433 436.365 C 551.985 441.568, 557.001 450.026, 559.580 455.162 C 562.159 460.298, 566.104 467.200, 568.348 470.500 C 578.734 485.772, 589.224 503.995, 591.087 510 L 593.103 516.500 593.527 553.500 C 593.760 573.850, 594.402 610.975, 594.954 636 C 597.729 761.832, 596.564 781.137, 584.640 806.924 C 581.696 813.291, 578.294 821.512, 577.081 825.192 C 569.997 846.685, 559.085 850.916, 510.500 851.007 C 436.009 851.146, 405.021 859.269, 405.004 878.661 C 404.995 887.847, 412.745 890.401, 430.500 887.064 C 452.599 882.911, 459.816 882.116, 485.089 881.055 C 520.515 879.568, 554.065 879.735, 569 881.472 C 575.875 882.272, 587.407 883.420, 594.627 884.023 C 601.847 884.627, 611.747 885.968, 616.627 887.004 C 701.387 905.002, 714.908 904.941, 734.861 886.468 C 748.710 873.647, 751.720 861.262, 752.842 812.500 L 753.533 782.500 755.605 778.500 C 759.853 770.300, 766.732 770.521, 785.962 779.477 C 816.944 793.905, 831.372 787.309, 838.404 755.500 C 841.597 741.057, 843.888 735.165, 847.299 732.622 L 850.098 730.537 853.756 732.518 C 859.823 735.804, 876.165 758.706, 887.071 779.206 C 890.789 786.194, 894.933 793.394, 896.280 795.206 C 897.626 797.018, 900.643 801.875, 902.983 806 C 908.119 815.054, 919.763 834.880, 925.594 844.500 C 929.954 851.694, 953.837 880.898, 962.071 889.104 C 971.600 898.601, 1008.571 909.572, 1042.500 912.971 C 1072.266 915.954, 1073.198 916.143, 1103 925.236 C 1128.168 932.916, 1145.674 922.911, 1145.409 901 L 1145.318 893.500 1141.542 884.082 C 1135.385 868.731, 1135.643 864.781, 1143.493 854.116 C 1156.318 836.695, 1154.568 826.935, 1135.513 809.607 C 1101.657 778.820, 1085.907 760.979, 1076.506 742.766 C 1073.307 736.570, 1069.823 730.254, 1068.763 728.730 C 1067.703 727.207, 1060.545 713.482, 1052.856 698.230 C 1045.168 682.979, 1035.940 666, 1032.351 660.500 C 1028.761 655, 1023.462 646.225, 1020.575 641 C 1010.650 623.032, 988.619 588.650, 978.715 575.670 C 975.230 571.103, 969.800 562.671, 966.648 556.933 C 963.495 551.195, 956.669 540.650, 951.477 533.500 C 946.286 526.350, 937.746 514.200, 932.501 506.500 C 922.650 492.039, 915.033 481.580, 894.573 454.421 C 888.014 445.713, 880.460 435.063, 877.788 430.754 C 873.419 423.711, 865.994 413.324, 850.441 392.500 C 847.565 388.650, 842.845 381.225, 839.951 376 C 821.874 343.363, 782.970 301.692, 755.463 285.504 C 705.381 256.029, 703.419 252.361, 699.020 179.956 C 697.507 155.057, 693.515 146.414, 681.500 142.022 L 677.500 140.560 604.500 140.387 C 564.350 140.291, 528.800 140.611, 525.500 141.097 M 150.032 143.309 C 139.466 146.676, 134.057 157.187, 131.021 180.249 C 126.446 215.007, 122.011 255.888, 120.524 277 C 118.857 300.672, 117.979 308.085, 113 340.500 C 111.311 351.500, 109.293 364.775, 108.517 370 C 107.166 379.095, 104.809 405.073, 101.531 447 C 100.692 457.725, 99.328 470.325, 98.499 475 C 97.670 479.675, 96.103 490.997, 95.017 500.159 C 93.931 509.321, 92.347 520.796, 91.497 525.659 C 87.216 550.163, 83.385 613.899, 85.133 631.544 C 86.510 645.443, 89.534 650.412, 102 659.258 C 122.709 673.953, 146.762 695.753, 194.302 742.912 L 221.104 769.500 224.085 775.539 C 229.040 785.575, 229.341 790.558, 227.846 837.867 C 227.106 861.315, 226.512 887.025, 226.526 895 L 226.553 909.500 228.918 914.794 C 238.415 936.046, 271.439 934.782, 281.601 912.777 L 284.500 906.500 284.463 892 C 284.443 884.025, 283.880 870.602, 283.213 862.170 C 282.546 853.739, 281.992 832.814, 281.982 815.670 C 281.972 798.527, 281.526 780.450, 280.991 775.500 C 279.398 760.782, 278.086 726.691, 277.007 672 C 276.448 643.675, 275.557 611.050, 275.027 599.500 C 274.498 587.950, 273.590 564.325, 273.011 547 C 272.433 529.675, 271.519 508.975, 270.981 501 C 270.443 493.025, 269.310 470.752, 268.463 451.504 C 267.616 432.256, 266.267 408.750, 265.467 399.270 C 264.666 389.789, 263.332 361.212, 262.502 335.766 C 260.001 259.080, 259.709 257.139, 245.358 221.650 C 234.709 195.314, 232.257 191.518, 213.073 171.661 C 189.821 147.594, 167.744 137.665, 150.032 143.309 M 583.500 169.064 C 518.580 170.349, 519.411 169.773, 511.352 219.100 L 507.692 241.500 507.677 262.500 L 507.661 283.500 509.925 296.500 C 513.033 314.343, 515.684 322.038, 522.707 333.599 C 526.017 339.046, 530.422 346.877, 532.496 351.001 C 534.571 355.125, 537.703 360.750, 539.457 363.500 C 541.211 366.250, 545.252 373.225, 548.437 379 C 551.621 384.775, 556.375 392.425, 559 396 C 561.625 399.575, 566.447 407.450, 569.715 413.500 C 572.983 419.550, 577.907 428.100, 580.658 432.500 C 588.872 445.638, 598.042 460.986, 602.764 469.500 C 605.204 473.900, 609.797 481.100, 612.969 485.500 C 618.954 493.800, 629.836 510.657, 638.144 524.500 C 640.785 528.900, 645.928 537.450, 649.572 543.500 C 664.585 568.422, 670.160 577.847, 673.735 584.351 C 675.806 588.120, 680.365 595.545, 683.868 600.851 C 687.370 606.158, 692.701 615.225, 695.715 621 C 698.730 626.775, 703.150 634.650, 705.538 638.500 C 707.927 642.350, 711.937 650.415, 714.451 656.422 C 716.964 662.430, 720.532 670.080, 722.379 673.422 C 724.227 676.765, 727.674 683.952, 730.041 689.393 C 735.884 702.828, 740.596 709.548, 752.976 722.097 L 763.500 732.766 777.500 739.525 C 806.848 753.693, 811.929 749.109, 811.980 708.417 C 812.011 683.429, 815.033 674.322, 825 669.177 L 829.500 666.854 836 667.279 C 850.765 668.244, 864.574 681.961, 878.005 709 C 880.328 713.675, 883.734 719.614, 885.574 722.198 C 887.415 724.781, 891.265 731.081, 894.129 736.198 C 896.994 741.314, 901.399 748.408, 903.919 751.963 C 906.438 755.518, 911.686 763.618, 915.580 769.963 C 934.909 801.461, 953.086 829.976, 958.949 838 C 961.561 841.575, 965.544 847.254, 967.799 850.620 C 980.316 869.307, 1007.355 880.300, 1051 884.447 C 1059.525 885.256, 1071.826 886.836, 1078.335 887.957 C 1084.845 889.078, 1091.370 889.708, 1092.835 889.357 C 1106.884 885.994, 1107.631 874.863, 1095.243 853.500 C 1092.053 848, 1088.193 840.575, 1086.664 837 C 1085.135 833.425, 1082.910 828.250, 1081.720 825.500 C 1078.693 818.503, 1065.666 796.582, 1060.668 790.072 C 1055.448 783.274, 1008.409 738.924, 998.076 731.058 C 993.854 727.844, 984.896 720.127, 978.168 713.909 C 971.440 707.691, 961.504 699.206, 956.087 695.052 C 950.671 690.898, 938.648 681.388, 929.370 673.917 C 920.091 666.447, 910.256 658.814, 907.512 656.956 C 904.769 655.097, 896.219 648.139, 888.512 641.493 C 880.806 634.847, 870.675 626.524, 866 622.998 C 861.325 619.471, 854.350 614.015, 850.500 610.874 C 836.321 599.305, 827.272 592.192, 818 585.331 C 812.775 581.464, 803.325 573.834, 797 568.376 C 790.675 562.917, 781 555.040, 775.500 550.871 C 770 546.701, 761.895 540.187, 757.489 536.395 C 753.082 532.603, 742.282 523.968, 733.489 517.206 C 655.378 457.143, 624.252 417.006, 630.911 384.931 C 636.543 357.799, 676.348 333.910, 684.846 352.561 C 687.810 359.067, 685.731 363.395, 673.588 376 C 653.677 396.667, 657.412 408.335, 696.498 447.570 L 714.500 465.640 729.568 476.212 C 737.856 482.026, 749.030 490.633, 754.401 495.337 C 759.771 500.041, 770.990 509.200, 779.332 515.689 C 787.675 522.179, 797.650 530.470, 801.500 534.115 C 805.350 537.759, 815.051 545.862, 823.059 552.120 C 849.714 572.955, 875.279 593.412, 884.441 601.237 C 889.424 605.493, 900.925 614.680, 910 621.653 C 919.075 628.627, 928.975 636.441, 932 639.018 C 938.187 644.289, 947.871 651.873, 965.500 665.253 C 972.100 670.262, 979.750 676.243, 982.500 678.545 C 988.897 683.898, 994.501 687.365, 999.313 688.945 L 1003.125 690.196 1005.153 688.362 C 1009.739 684.212, 991.903 648.074, 969.382 615.887 C 966.452 611.700, 961.664 603.825, 958.741 598.387 C 955.819 592.949, 947.504 580.567, 940.265 570.871 C 933.026 561.175, 924.969 549.700, 922.360 545.371 C 919.751 541.042, 911.664 529.751, 904.389 520.280 C 897.113 510.809, 888.816 498.884, 885.950 493.780 C 880.508 484.089, 874.818 475.616, 861.919 458 C 857.690 452.225, 851.786 443.450, 848.799 438.500 C 845.812 433.550, 839.214 423.875, 834.136 417 C 819.152 396.712, 804.084 376.135, 797.157 366.500 C 779.733 342.264, 744.656 311.135, 716.966 295.333 C 693.821 282.125, 680.642 265.242, 672.990 239 L 670.803 231.500 670.072 208.345 L 669.342 185.190 666.421 179.360 L 663.500 173.530 658.531 171.015 L 653.562 168.500 639.031 168.376 C 631.039 168.308, 606.050 168.618, 583.500 169.064 M 169.458 183.880 C 159.019 188.622, 153.377 217.733, 148.504 292 C 147.726 303.857, 143.799 337.063, 140.521 359.500 C 139.155 368.850, 137.351 382.800, 136.512 390.500 C 135.673 398.200, 134.560 407.875, 134.038 412 C 133.516 416.125, 132.374 429.400, 131.499 441.500 C 130.624 453.600, 129.256 468.225, 128.460 474 C 127.663 479.775, 126.332 491.025, 125.503 499 C 124.674 506.975, 122.888 519.575, 121.535 527 C 117.469 549.315, 113.754 587.209, 113.644 607.500 L 113.573 620.500 115.631 625.594 C 120.273 637.083, 126.661 644.060, 141.783 654.153 C 163.655 668.752, 170.417 674.988, 211.214 718.185 C 250.778 760.074, 253.060 751.349, 245.007 589 C 244.475 578.275, 243.574 558.250, 243.004 544.500 C 242.434 530.750, 241.313 509.825, 240.512 498 C 239.711 486.175, 238.568 463.900, 237.972 448.500 C 237.376 433.100, 236.263 410.600, 235.500 398.500 C 234.736 386.400, 233.843 365.025, 233.515 351 C 231.508 265.241, 230.867 260.481, 217.208 229.768 C 200.893 193.085, 184.300 177.138, 169.458 183.880 M 619 201.963 C 617.625 202.398, 612.258 204.834, 607.073 207.377 C 594.729 213.430, 591.107 213.505, 578.799 207.963 C 541.652 191.237, 518.017 226.266, 554.110 244.556 C 567.754 251.470, 570.424 254.859, 574.564 270.527 C 582.904 302.085, 599.882 302.911, 610.960 272.298 C 617.917 253.070, 620.267 250.084, 634.109 242.882 C 644.210 237.628, 649.371 232.872, 651.039 227.283 L 652.297 223.066 650.509 218.283 C 645.987 206.185, 630.694 198.264, 619 201.963 M 628.579 586.250 C 620.909 598.012, 623.217 710.618, 631.378 722.829 C 645.518 743.986, 689.576 743.963, 699.097 722.794 L 701.478 717.500 701.420 706 C 701.356 693.007, 700.266 689.346, 692.898 677.366 C 690.575 673.590, 687.134 667.184, 685.252 663.130 C 683.369 659.077, 679.175 651.316, 675.930 645.883 C 672.686 640.451, 668.674 633.316, 667.014 630.027 C 652.382 601.042, 633.189 579.181, 628.579 586.250 M 694.500 766.682 L 685.500 769.149 672.500 768.582 C 665.350 768.270, 655.675 767.738, 651 767.398 C 632.801 766.078, 626.439 771.171, 620.500 791.814 C 619.051 796.850, 615.681 806.490, 613.012 813.235 C 599.943 846.258, 605.745 854.030, 651.280 864.499 C 708.201 877.585, 722.165 868.902, 723.647 819.500 C 725.174 768.596, 720.226 759.630, 694.500 766.682" stroke="none" fill="#757575" fill-rule="evenodd"/><path d="M 0 554.501 L 0 1109.002 636.250 1108.751 L 1272.500 1108.500 1272.751 554.250 L 1273.002 -0 636.501 -0 L 0 0 0 554.501 M 0.496 555 C 0.496 859.975, 0.611 984.737, 0.750 832.250 C 0.889 679.762, 0.889 430.237, 0.750 277.750 C 0.611 125.262, 0.496 250.025, 0.496 555 M 525.500 141.097 C 507.113 143.808, 491.735 161.001, 487.572 183.500 C 486.758 187.900, 484.510 199.600, 482.576 209.500 C 472.205 262.589, 476.895 312.098, 495.139 342.128 C 497.936 346.733, 502.233 355.434, 504.688 361.464 C 507.142 367.494, 512.204 377.169, 515.935 382.964 C 519.667 388.759, 525.270 397.472, 528.387 402.326 C 531.504 407.180, 535.836 414.696, 538.014 419.028 C 540.193 423.361, 544.881 431.162, 548.433 436.365 C 551.985 441.568, 557.001 450.026, 559.580 455.162 C 562.159 460.298, 566.104 467.200, 568.348 470.500 C 578.734 485.772, 589.224 503.995, 591.087 510 L 593.103 516.500 593.527 553.500 C 593.760 573.850, 594.402 610.975, 594.954 636 C 597.729 761.832, 596.564 781.137, 584.640 806.924 C 581.696 813.291, 578.294 821.512, 577.081 825.192 C 569.997 846.685, 559.085 850.916, 510.500 851.007 C 436.009 851.146, 405.021 859.269, 405.004 878.661 C 404.995 887.847, 412.745 890.401, 430.500 887.064 C 452.599 882.911, 459.816 882.116, 485.089 881.055 C 520.515 879.568, 554.065 879.735, 569 881.472 C 575.875 882.272, 587.407 883.420, 594.627 884.023 C 601.847 884.627, 611.747 885.968, 616.627 887.004 C 701.387 905.002, 714.908 904.941, 734.861 886.468 C 748.710 873.647, 751.720 861.262, 752.842 812.500 L 753.533 782.500 755.605 778.500 C 759.853 770.300, 766.732 770.521, 785.962 779.477 C 816.944 793.905, 831.372 787.309, 838.404 755.500 C 841.597 741.057, 843.888 735.165, 847.299 732.622 L 850.098 730.537 853.756 732.518 C 859.823 735.804, 876.165 758.706, 887.071 779.206 C 890.789 786.194, 894.933 793.394, 896.280 795.206 C 897.626 797.018, 900.643 801.875, 902.983 806 C 908.119 815.054, 919.763 834.880, 925.594 844.500 C 929.954 851.694, 953.837 880.898, 962.071 889.104 C 971.600 898.601, 1008.571 909.572, 1042.500 912.971 C 1072.266 915.954, 1073.198 916.143, 1103 925.236 C 1128.168 932.916, 1145.674 922.911, 1145.409 901 L 1145.318 893.500 1141.542 884.082 C 1135.385 868.731, 1135.643 864.781, 1143.493 854.116 C 1156.318 836.695, 1154.568 826.935, 1135.513 809.607 C 1101.657 778.820, 1085.907 760.979, 1076.506 742.766 C 1073.307 736.570, 1069.823 730.254, 1068.763 728.730 C 1067.703 727.207, 1060.545 713.482, 1052.856 698.230 C 1045.168 682.979, 1035.940 666, 1032.351 660.500 C 1028.761 655, 1023.462 646.225, 1020.575 641 C 1010.650 623.032, 988.619 588.650, 978.715 575.670 C 975.230 571.103, 969.800 562.671, 966.648 556.933 C 963.495 551.195, 956.669 540.650, 951.477 533.500 C 946.286 526.350, 937.746 514.200, 932.501 506.500 C 922.650 492.039, 915.033 481.580, 894.573 454.421 C 888.014 445.713, 880.460 435.063, 877.788 430.754 C 873.419 423.711, 865.994 413.324, 850.441 392.500 C 847.565 388.650, 842.845 381.225, 839.951 376 C 821.874 343.363, 782.970 301.692, 755.463 285.504 C 705.381 256.029, 703.419 252.361, 699.020 179.956 C 697.507 155.057, 693.515 146.414, 681.500 142.022 L 677.500 140.560 604.500 140.387 C 564.350 140.291, 528.800 140.611, 525.500 141.097 M 150.032 143.309 C 139.466 146.676, 134.057 157.187, 131.021 180.249 C 126.446 215.007, 122.011 255.888, 120.524 277 C 118.857 300.672, 117.979 308.085, 113 340.500 C 111.311 351.500, 109.293 364.775, 108.517 370 C 107.166 379.095, 104.809 405.073, 101.531 447 C 100.692 457.725, 99.328 470.325, 98.499 475 C 97.670 479.675, 96.103 490.997, 95.017 500.159 C 93.931 509.321, 92.347 520.796, 91.497 525.659 C 87.216 550.163, 83.385 613.899, 85.133 631.544 C 86.510 645.443, 89.534 650.412, 102 659.258 C 122.709 673.953, 146.762 695.753, 194.302 742.912 L 221.104 769.500 224.085 775.539 C 229.040 785.575, 229.341 790.558, 227.846 837.867 C 227.106 861.315, 226.512 887.025, 226.526 895 L 226.553 909.500 228.918 914.794 C 238.415 936.046, 271.439 934.782, 281.601 912.777 L 284.500 906.500 284.463 892 C 284.443 884.025, 283.880 870.602, 283.213 862.170 C 282.546 853.739, 281.992 832.814, 281.982 815.670 C 281.972 798.527, 281.526 780.450, 280.991 775.500 C 279.398 760.782, 278.086 726.691, 277.007 672 C 276.448 643.675, 275.557 611.050, 275.027 599.500 C 274.498 587.950, 273.590 564.325, 273.011 547 C 272.433 529.675, 271.519 508.975, 270.981 501 C 270.443 493.025, 269.310 470.752, 268.463 451.504 C 267.616 432.256, 266.267 408.750, 265.467 399.270 C 264.666 389.789, 263.332 361.212, 262.502 335.766 C 260.001 259.080, 259.709 257.139, 245.358 221.650 C 234.709 195.314, 232.257 191.518, 213.073 171.661 C 189.821 147.594, 167.744 137.665, 150.032 143.309 M 583.500 169.064 C 518.580 170.349, 519.411 169.773, 511.352 219.100 L 507.692 241.500 507.677 262.500 L 507.661 283.500 509.925 296.500 C 513.033 314.343, 515.684 322.038, 522.707 333.599 C 526.017 339.046, 530.422 346.877, 532.496 351.001 C 534.571 355.125, 537.703 360.750, 539.457 363.500 C 541.211 366.250, 545.252 373.225, 548.437 379 C 551.621 384.775, 556.375 392.425, 559 396 C 561.625 399.575, 566.447 407.450, 569.715 413.500 C 572.983 419.550, 577.907 428.100, 580.658 432.500 C 588.872 445.638, 598.042 460.986, 602.764 469.500 C 605.204 473.900, 609.797 481.100, 612.969 485.500 C 618.954 493.800, 629.836 510.657, 638.144 524.500 C 640.785 528.900, 645.928 537.450, 649.572 543.500 C 664.585 568.422, 670.160 577.847, 673.735 584.351 C 675.806 588.120, 680.365 595.545, 683.868 600.851 C 687.370 606.158, 692.701 615.225, 695.715 621 C 698.730 626.775, 703.150 634.650, 705.538 638.500 C 707.927 642.350, 711.937 650.415, 714.451 656.422 C 716.964 662.430, 720.532 670.080, 722.379 673.422 C 724.227 676.765, 727.674 683.952, 730.041 689.393 C 735.884 702.828, 740.596 709.548, 752.976 722.097 L 763.500 732.766 777.500 739.525 C 806.848 753.693, 811.929 749.109, 811.980 708.417 C 812.011 683.429, 815.033 674.322, 825 669.177 L 829.500 666.854 836 667.279 C 850.765 668.244, 864.574 681.961, 878.005 709 C 880.328 713.675, 883.734 719.614, 885.574 722.198 C 887.415 724.781, 891.265 731.081, 894.129 736.198 C 896.994 741.314, 901.399 748.408, 903.919 751.963 C 906.438 755.518, 911.686 763.618, 915.580 769.963 C 934.909 801.461, 953.086 829.976, 958.949 838 C 961.561 841.575, 965.544 847.254, 967.799 850.620 C 980.316 869.307, 1007.355 880.300, 1051 884.447 C 1059.525 885.256, 1071.826 886.836, 1078.335 887.957 C 1084.845 889.078, 1091.370 889.708, 1092.835 889.357 C 1106.884 885.994, 1107.631 874.863, 1095.243 853.500 C 1092.053 848, 1088.193 840.575, 1086.664 837 C 1085.135 833.425, 1082.910 828.250, 1081.720 825.500 C 1078.693 818.503, 1065.666 796.582, 1060.668 790.072 C 1055.448 783.274, 1008.409 738.924, 998.076 731.058 C 993.854 727.844, 984.896 720.127, 978.168 713.909 C 971.440 707.691, 961.504 699.206, 956.087 695.052 C 950.671 690.898, 938.648 681.388, 929.370 673.917 C 920.091 666.447, 910.256 658.814, 907.512 656.956 C 904.769 655.097, 896.219 648.139, 888.512 641.493 C 880.806 634.847, 870.675 626.524, 866 622.998 C 861.325 619.471, 854.350 614.015, 850.500 610.874 C 836.321 599.305, 827.272 592.192, 818 585.331 C 812.775 581.464, 803.325 573.834, 797 568.376 C 790.675 562.917, 781 555.040, 775.500 550.871 C 770 546.701, 761.895 540.187, 757.489 536.395 C 753.082 532.603, 742.282 523.968, 733.489 517.206 C 655.378 457.143, 624.252 417.006, 630.911 384.931 C 636.543 357.799, 676.348 333.910, 684.846 352.561 C 687.810 359.067, 685.731 363.395, 673.588 376 C 653.677 396.667, 657.412 408.335, 696.498 447.570 L 714.500 465.640 729.568 476.212 C 737.856 482.026, 749.030 490.633, 754.401 495.337 C 759.771 500.041, 770.990 509.200, 779.332 515.689 C 787.675 522.179, 797.650 530.470, 801.500 534.115 C 805.350 537.759, 815.051 545.862, 823.059 552.120 C 849.714 572.955, 875.279 593.412, 884.441 601.237 C 889.424 605.493, 900.925 614.680, 910 621.653 C 919.075 628.627, 928.975 636.441, 932 639.018 C 938.187 644.289, 947.871 651.873, 965.500 665.253 C 972.100 670.262, 979.750 676.243, 982.500 678.545 C 988.897 683.898, 994.501 687.365, 999.313 688.945 L 1003.125 690.196 1005.153 688.362 C 1009.739 684.212, 991.903 648.074, 969.382 615.887 C 966.452 611.700, 961.664 603.825, 958.741 598.387 C 955.819 592.949, 947.504 580.567, 940.265 570.871 C 933.026 561.175, 924.969 549.700, 922.360 545.371 C 919.751 541.042, 911.664 529.751, 904.389 520.280 C 897.113 510.809, 888.816 498.884, 885.950 493.780 C 880.508 484.089, 874.818 475.616, 861.919 458 C 857.690 452.225, 851.786 443.450, 848.799 438.500 C 845.812 433.550, 839.214 423.875, 834.136 417 C 819.152 396.712, 804.084 376.135, 797.157 366.500 C 779.733 342.264, 744.656 311.135, 716.966 295.333 C 693.821 282.125, 680.642 265.242, 672.990 239 L 670.803 231.500 670.072 208.345 L 669.342 185.190 666.421 179.360 L 663.500 173.530 658.531 171.015 L 653.562 168.500 639.031 168.376 C 631.039 168.308, 606.050 168.618, 583.500 169.064 M 169.458 183.880 C 159.019 188.622, 153.377 217.733, 148.504 292 C 147.726 303.857, 143.799 337.063, 140.521 359.500 C 139.155 368.850, 137.351 382.800, 136.512 390.500 C 135.673 398.200, 134.560 407.875, 134.038 412 C 133.516 416.125, 132.374 429.400, 131.499 441.500 C 130.624 453.600, 129.256 468.225, 128.460 474 C 127.663 479.775, 126.332 491.025, 125.503 499 C 124.674 506.975, 122.888 519.575, 121.535 527 C 117.469 549.315, 113.754 587.209, 113.644 607.500 L 113.573 620.500 115.631 625.594 C 120.273 637.083, 126.661 644.060, 141.783 654.153 C 163.655 668.752, 170.417 674.988, 211.214 718.185 C 250.778 760.074, 253.060 751.349, 245.007 589 C 244.475 578.275, 243.574 558.250, 243.004 544.500 C 242.434 530.750, 241.313 509.825, 240.512 498 C 239.711 486.175, 238.568 463.900, 237.972 448.500 C 237.376 433.100, 236.263 410.600, 235.500 398.500 C 234.736 386.400, 233.843 365.025, 233.515 351 C 231.508 265.241, 230.867 260.481, 217.208 229.768 C 200.893 193.085, 184.300 177.138, 169.458 183.880 M 619 201.963 C 617.625 202.398, 612.258 204.834, 607.073 207.377 C 594.729 213.430, 591.107 213.505, 578.799 207.963 C 541.652 191.237, 518.017 226.266, 554.110 244.556 C 567.754 251.470, 570.424 254.859, 574.564 270.527 C 582.904 302.085, 599.882 302.911, 610.960 272.298 C 617.917 253.070, 620.267 250.084, 634.109 242.882 C 644.210 237.628, 649.371 232.872, 651.039 227.283 L 652.297 223.066 650.509 218.283 C 645.987 206.185, 630.694 198.264, 619 201.963 M 628.579 586.250 C 620.909 598.012, 623.217 710.618, 631.378 722.829 C 645.518 743.986, 689.576 743.963, 699.097 722.794 L 701.478 717.500 701.420 706 C 701.356 693.007, 700.266 689.346, 692.898 677.366 C 690.575 673.590, 687.134 667.184, 685.252 663.130 C 683.369 659.077, 679.175 651.316, 675.930 645.883 C 672.686 640.451, 668.674 633.316, 667.014 630.027 C 652.382 601.042, 633.189 579.181, 628.579 586.250 M 694.500 766.682 L 685.500 769.149 672.500 768.582 C 665.350 768.270, 655.675 767.738, 651 767.398 C 632.801 766.078, 626.439 771.171, 620.500 791.814 C 619.051 796.850, 615.681 806.490, 613.012 813.235 C 599.943 846.258, 605.745 854.030, 651.280 864.499 C 708.201 877.585, 722.165 868.902, 723.647 819.500 C 725.174 768.596, 720.226 759.630, 694.500 766.682" stroke="none" fill="#f1f1f1" fill-rule="evenodd"/></svg>