<svg xmlns="http://www.w3.org/2000/svg" width="1187" height="1272" viewBox="0 0 1187 1272" version="1.1"><path d="M 611.500 168.457 C 594.612 171.536, 577.877 177.390, 566 184.373 C 557.713 189.245, 541.823 202.152, 529.500 214.022 C 521.106 222.107, 515.825 225.300, 504.903 228.892 C 487.035 234.768, 481.954 244.953, 489.745 259.277 C 493.202 265.632, 498.281 269.345, 511.130 274.908 C 519.010 278.320, 522.623 280.587, 527.596 285.239 C 544.239 300.807, 548.908 316.455, 549.010 357 C 549.069 380.686, 550.376 399.804, 552.497 407.987 C 554.850 417.069, 568.676 453.767, 571.706 458.974 C 573.155 461.463, 576.442 466.505, 579.010 470.179 C 581.578 473.852, 585.849 481.719, 588.502 487.660 C 591.154 493.602, 595.791 502.522, 598.806 507.482 C 601.822 512.442, 606.465 521.780, 609.124 528.234 C 611.784 534.687, 615.936 543.237, 618.351 547.234 C 624.152 556.834, 626.465 561.487, 631.526 573.731 C 633.852 579.358, 638.292 588.154, 641.392 593.278 C 644.492 598.403, 649.266 607.953, 652 614.500 C 654.734 621.047, 659.430 630.476, 662.435 635.452 C 667.783 644.306, 669.247 647.310, 676.064 663.416 C 677.907 667.769, 681.191 674.069, 683.362 677.416 C 687.572 683.904, 691.924 692.767, 696.973 705.133 C 698.687 709.331, 701.687 715.406, 703.640 718.633 C 709.863 728.915, 712.660 735.200, 716.486 747.500 C 718.724 754.692, 722.999 764.909, 727.157 773 C 735.498 789.230, 736.972 795.330, 736.948 813.500 C 736.927 829.253, 735.432 838.184, 730.504 852 C 724.374 869.190, 720.200 883.628, 716.916 899 C 713.055 917.077, 711.580 921.278, 705.191 932.388 C 701.665 938.521, 698.482 946.273, 694.926 957.388 C 691.752 967.309, 686.962 979.264, 682.461 988.500 C 677.409 998.865, 674.327 1006.745, 672.486 1014 C 671.022 1019.775, 668.940 1026.521, 667.861 1028.991 C 663.442 1039.108, 651.571 1055.703, 646.258 1059.192 C 638.486 1064.296, 638.322 1064.312, 589.500 1065.031 C 549.681 1065.617, 542.765 1065.943, 538.028 1067.459 C 530.910 1069.736, 525 1075.417, 525 1079.981 C 525 1087.123, 530.179 1093.260, 539.069 1096.651 C 542.905 1098.115, 550.956 1098.480, 599 1099.365 C 629.525 1099.927, 663.950 1100.189, 675.500 1099.945 C 700.437 1099.421, 768.806 1099.408, 806 1099.922 C 820.575 1100.124, 841.998 1099.852, 853.607 1099.319 C 872.845 1098.435, 875.148 1098.135, 879.606 1095.925 C 887.002 1092.258, 891.285 1084.257, 889.551 1077.348 C 888.581 1073.481, 882.994 1068.343, 878.440 1067.130 C 876.273 1066.552, 870.225 1065.570, 865 1064.947 C 848.295 1062.955, 842.014 1058.629, 841.251 1048.592 C 840.909 1044.087, 841.404 1042.463, 845.549 1034.500 C 848.125 1029.550, 852.673 1018.098, 855.655 1009.051 C 859.124 998.526, 862.835 989.523, 865.959 984.051 C 871.475 974.391, 874.993 965.905, 882.151 945 C 889.411 923.795, 890.987 916.385, 890.978 903.500 C 890.970 891.213, 889.725 884.766, 884.222 868.500 C 881.203 859.579, 880.500 856.048, 880.500 849.816 C 880.500 842.762, 880.730 841.891, 883.300 839.209 C 884.840 837.602, 887.924 835.740, 890.154 835.072 C 892.604 834.338, 906.335 833.508, 924.854 832.975 C 987.421 831.173, 1017.752 827.245, 1053 816.379 C 1068.917 811.472, 1077.763 807.065, 1082.913 801.478 C 1088.366 795.563, 1093.632 784.438, 1095.639 774.593 C 1097.587 765.042, 1096.558 756.411, 1091.956 743.691 C 1087.383 731.054, 1083.312 725.926, 1071.087 717.405 C 1056.545 707.269, 1034.936 685.636, 1026.233 672.500 C 1022.589 667, 1018.355 660.872, 1016.824 658.882 C 1015.293 656.892, 1010.947 650.345, 1007.166 644.333 C 1003.385 638.322, 997.479 629.611, 994.042 624.975 C 990.605 620.340, 985.768 612.487, 983.293 607.524 C 980.817 602.561, 976.200 594.900, 973.033 590.500 C 966.685 581.683, 964.774 578.197, 960.061 566.830 C 958.311 562.612, 955.035 556.537, 952.780 553.330 C 950.524 550.124, 945.649 542.693, 941.945 536.818 C 938.241 530.943, 932.546 523.039, 929.288 519.255 C 926.031 515.470, 920.506 508.198, 917.011 503.095 C 913.181 497.504, 907.680 491.171, 903.167 487.158 C 885.370 471.335, 881.914 468.141, 871.214 457.637 C 860.480 447.100, 859.638 445.968, 854.017 434.529 C 846.384 418.994, 831.582 400.359, 813.470 383.486 C 785.448 357.380, 757.851 327.259, 753.915 318.484 C 751.384 312.841, 750.262 307.234, 748.517 291.489 C 746.196 270.561, 743.899 263.173, 735.858 250.785 C 733.461 247.091, 729.118 239.628, 726.207 234.200 C 722.149 226.634, 718.192 221.318, 709.249 211.416 C 686.472 186.196, 684.544 184.822, 658.187 175.009 C 636.425 166.906, 627.146 165.604, 611.500 168.457 M 195.939 173.306 C 190.480 174.849, 186.604 177.482, 181.539 183.089 C 175.966 189.257, 173.287 196.107, 170.994 210.042 C 169.867 216.894, 168.286 225.875, 167.480 230 C 165.330 241.004, 162.062 271.083, 160.961 290 C 160.433 299.075, 159.335 313.475, 158.522 322 C 157.708 330.525, 156.590 343.713, 156.037 351.307 C 155.484 358.901, 153.919 370.601, 152.558 377.307 C 151.198 384.013, 149.619 394.675, 149.050 401 C 148.481 407.325, 147.131 417.450, 146.049 423.500 C 143.430 438.150, 140.308 468.118, 138.972 491.437 C 138.375 501.853, 137.718 510.648, 137.511 510.981 C 137.305 511.315, 136.407 521.694, 135.516 534.044 C 134.330 550.475, 132.990 560.953, 130.523 573.098 C 122.187 614.139, 116.063 681.912, 116.017 733.645 C 116.003 749.949, 116.295 753.743, 117.985 759.217 C 121.960 772.086, 130.703 782.282, 145.727 791.569 C 169.771 806.432, 178.430 813.663, 207.501 843.153 C 222.900 858.775, 238.835 875.369, 242.912 880.028 C 246.989 884.688, 254.902 893, 260.497 898.500 C 272.064 909.870, 280.233 920.421, 282.563 927 C 283.524 929.713, 284.373 936.465, 284.702 944 C 285.320 958.159, 283.447 1007.893, 281.897 1018.500 C 280.055 1031.105, 278.228 1064.552, 279.085 1069.976 C 279.536 1072.829, 281.014 1077.054, 282.368 1079.366 C 285.867 1085.335, 294.118 1092.707, 300.647 1095.696 C 305.412 1097.877, 307.226 1098.181, 313.016 1097.767 C 325.757 1096.855, 338.534 1088.739, 343.633 1078.319 C 346.980 1071.477, 347.027 1069.838, 345.197 1023.500 C 343.908 990.849, 342.775 946.842, 341.027 861.500 C 340.531 837.300, 339.671 808.275, 339.116 797 C 338.560 785.725, 337.831 763.675, 337.495 748 C 337.159 732.325, 336.447 711.625, 335.913 702 C 335.378 692.375, 334.517 673.475, 333.999 660 C 333.480 646.525, 332.573 631.225, 331.983 626 C 331.393 620.775, 330.507 601.875, 330.014 584 C 329.516 565.906, 328.213 542.413, 327.076 531 C 325.953 519.725, 324.586 497, 324.038 480.500 C 321.844 414.367, 321.026 387.365, 320.478 363 C 319.486 318.898, 317.324 304.881, 307.735 280.384 C 304.746 272.748, 301.059 262.454, 299.542 257.508 C 295.949 245.791, 292.342 238.871, 285.987 231.500 C 283.142 228.200, 278.209 222.125, 275.025 218 C 271.842 213.875, 263.654 205.041, 256.829 198.368 C 245.714 187.500, 243.436 185.765, 234.961 181.717 C 217.883 173.558, 204.926 170.765, 195.939 173.306 M 612.824 202.923 C 602.138 206.340, 588.590 214.609, 579.500 223.262 C 577.300 225.356, 571.383 229.065, 566.351 231.503 C 555.204 236.905, 552.667 240.138, 552.667 248.934 C 552.667 256.595, 556.164 263.934, 563.864 272.430 C 571.532 280.893, 575.306 288.726, 577.866 301.500 C 580.856 316.418, 582.076 331.293, 582.995 364 C 583.898 396.174, 584.242 398.420, 590.503 413 C 592.510 417.675, 596.083 426.675, 598.443 433 C 600.927 439.660, 605.489 449.019, 609.281 455.237 C 612.882 461.142, 616.832 469.017, 618.059 472.737 C 621.636 483.581, 624.636 489.720, 629.890 496.944 C 635.858 505.149, 638.028 509.359, 641.001 518.500 C 643.940 527.537, 646.752 533.081, 652.159 540.500 C 658.897 549.746, 659.489 550.850, 663.431 561.519 C 665.459 567.009, 669.283 575.100, 671.928 579.500 C 678.579 590.564, 680.304 594.216, 683.500 604 C 686.747 613.942, 688.910 618.473, 694.002 626 C 698.734 632.994, 702.244 640.016, 704.500 647 C 706.946 654.571, 710.317 661.059, 716.485 670.065 C 719.369 674.277, 722.536 679.922, 723.522 682.611 C 729.958 700.156, 731.626 703.673, 736.877 710.774 C 740.019 715.023, 744.119 720.732, 745.988 723.461 C 747.857 726.189, 750.952 730.155, 752.866 732.273 C 757.860 737.801, 780.885 753.890, 791.842 759.508 C 796.980 762.142, 803.730 766.171, 806.842 768.461 C 816.222 775.364, 820.965 777.704, 833 781.364 C 847.811 785.869, 850.557 786.902, 862 792.279 C 878.627 800.091, 881.256 800.494, 915.500 800.483 C 943.592 800.475, 946.454 800.304, 960.500 797.801 C 968.750 796.330, 982.656 794.403, 991.401 793.518 C 1014.799 791.150, 1035.292 786.167, 1047.960 779.765 C 1055.925 775.739, 1058.189 772.768, 1058.787 765.553 C 1059.425 757.858, 1055.932 750.862, 1048.226 744.401 C 1033.439 732.003, 1025.191 723.836, 1018.394 714.860 C 1014.332 709.497, 1009.408 703.888, 1007.451 702.395 C 1003.871 699.664, 987.235 679.518, 981.386 670.829 C 979.656 668.260, 976.506 661.970, 974.384 656.852 C 971.941 650.958, 968.178 644.422, 964.119 639.023 C 960.594 634.335, 955.519 625.896, 952.841 620.269 C 950.164 614.641, 945.433 606.316, 942.329 601.769 C 937.066 594.057, 935.175 590.438, 927.134 572.689 C 925.436 568.942, 921.414 562.192, 918.195 557.689 C 914.976 553.185, 910.699 546.755, 908.691 543.401 C 901.177 530.853, 872.501 501.950, 863.514 497.867 C 855.276 494.125, 849.280 496.149, 832.084 508.481 C 817.265 519.107, 812.872 523.508, 808.757 531.852 C 804.802 539.874, 804.736 545.603, 808.399 563.238 C 813.181 586.258, 812.757 604.117, 807.070 619.147 C 801.440 634.027, 786.210 642.533, 769.902 639.907 C 757.614 637.928, 754.797 635.835, 725.656 607.032 C 701.003 582.666, 698.072 579.398, 689.751 567 C 678.442 550.150, 676.605 546.008, 673.487 530.335 C 670.737 516.518, 668.979 511.850, 662.897 502.220 C 655.711 490.842, 653.306 480.956, 652.342 458.842 C 651.269 434.218, 653.609 427.130, 667.214 413.789 C 678.211 403.005, 685.670 398.971, 695.979 398.234 C 704.879 397.597, 711.274 399.341, 715.486 403.553 C 723.689 411.756, 719.366 423.742, 705.717 430.635 C 695.608 435.740, 692.296 438.649, 689.074 445.257 C 682.720 458.285, 683.885 470.099, 693.111 486.197 C 698.829 496.176, 700.989 501.964, 706.472 522 C 707.986 527.533, 710.523 533.797, 712.546 537 C 714.457 540.025, 718.828 547.179, 722.260 552.898 C 727.654 561.886, 730.187 564.854, 740.934 574.778 C 749.495 582.683, 755.257 587.153, 759.434 589.129 C 766.623 592.530, 768.867 592.679, 772.293 589.984 C 778.519 585.087, 778.478 573.160, 772.166 553.840 C 763.083 526.032, 766.097 514.362, 785.237 503.241 C 789.526 500.749, 796.290 495.951, 800.267 492.579 C 804.245 489.208, 810.311 484.257, 813.748 481.579 C 822.746 474.565, 825.406 468.823, 824.797 457.735 C 824.239 447.581, 821.452 441.239, 813.225 431.405 C 810.048 427.607, 804.909 421.350, 801.804 417.500 C 794.998 409.060, 774.707 390.436, 763 381.884 C 749.059 371.700, 736.158 357.048, 727.500 341.566 C 720.776 329.543, 719.010 322.277, 716.456 296.123 C 714.542 276.530, 712.578 269.619, 706.471 260.996 C 703.940 257.423, 699.433 250.377, 696.454 245.337 C 690.985 236.085, 682.734 227.535, 671.214 219.178 C 665.084 214.732, 641.837 203.522, 635.807 202.104 C 628.982 200.498, 619.329 200.842, 612.824 202.923 M 213.481 218.394 C 209.193 220.262, 204.534 225.956, 202.210 232.169 C 199.287 239.981, 194.168 274.121, 192.999 293.598 C 192.441 302.894, 191.557 314.100, 191.034 318.500 C 190.511 322.900, 189.596 335.500, 189.002 346.500 C 187.544 373.484, 184.313 405.524, 181.942 416.500 C 177.699 436.141, 172.941 467.277, 172.010 481.500 C 171.470 489.750, 170.363 503.925, 169.551 513 C 168.739 522.075, 167.595 537.416, 167.011 547.090 C 166.426 556.765, 165.506 567.340, 164.967 570.590 C 164.428 573.841, 163.341 583.700, 162.553 592.500 C 161.764 601.300, 160.206 612.393, 159.091 617.152 C 155.495 632.499, 151.900 658.072, 150.958 675 C 150.453 684.075, 149.303 697.575, 148.401 705 C 145.788 726.520, 147.622 741.230, 154.090 750.631 C 155.675 752.934, 160.240 757.183, 164.236 760.074 C 168.231 762.964, 175.325 768.596, 180 772.590 C 184.675 776.583, 191.955 782.697, 196.178 786.175 C 221.197 806.785, 243.252 827.925, 253.821 841.426 C 263.088 853.264, 281.621 872.719, 288.360 877.683 C 297.556 884.457, 302.788 883.225, 306.127 873.500 C 307.721 868.855, 307.668 823.533, 306.025 787 C 305.494 775.175, 304.569 752, 303.971 735.500 C 303.373 719, 301.816 694.475, 300.512 681 C 297.289 647.707, 297.119 644.540, 295.954 596.107 C 295.393 572.791, 294.279 544.216, 293.477 532.607 C 292.676 520.998, 291.337 484.725, 290.502 452 C 287.001 314.747, 287.684 323.423, 278.601 300.795 C 275.666 293.483, 271.567 282.325, 269.492 276 C 264.709 261.415, 262.471 256.992, 255.263 247.872 C 252.058 243.818, 248.342 238.925, 247.006 237 C 236.194 221.422, 223.149 214.181, 213.481 218.394 M 591.513 228.507 C 586.657 230.237, 585 232.331, 585 236.741 C 585 246.596, 597.001 254.727, 606.028 250.988 C 609.793 249.429, 612 245.400, 612 240.084 C 612 235.021, 607.507 229.513, 602.168 228.030 C 597.486 226.730, 596.365 226.780, 591.513 228.507 M 776.514 799.168 C 772.196 802.564, 771.156 806.513, 769 827.700 C 766.166 855.545, 764.682 862.673, 759.045 875.500 C 756.386 881.550, 753.435 889.875, 752.486 894 C 746.512 919.972, 745.616 922.713, 737.437 940 C 733.924 947.425, 729.691 958.088, 728.031 963.697 C 723.858 977.794, 721.704 983.024, 715.547 994 C 711.588 1001.059, 708.494 1008.891, 703.506 1024.482 C 695.503 1049.495, 695.366 1052.153, 701.775 1058.131 C 707.980 1063.919, 710.337 1064.309, 741.796 1064.746 C 780.885 1065.290, 789.757 1063.627, 798.052 1054.204 C 804.717 1046.632, 816.551 1021.834, 823.074 1001.772 C 827.411 988.434, 830.477 981.069, 835.364 972.250 C 838.945 965.788, 842.772 957.575, 843.867 954 C 858.219 907.145, 858.101 908.071, 852.585 885.448 C 847.524 864.690, 844.275 854.261, 841.230 849 C 839.798 846.525, 834.035 838.401, 828.423 830.947 C 817.785 816.817, 817.521 816.583, 799 804.851 C 785.255 796.145, 781.548 795.208, 776.514 799.168" stroke="none" fill="#6e6e6e" fill-rule="evenodd"/><path d="M 0 636.001 L 0 1272.002 593.750 1271.751 L 1187.500 1271.500 1187.751 635.750 L 1188.002 0 594.001 0 L 0 0 0 636.001 M 0.497 636.500 C 0.497 986.300, 0.611 1129.251, 0.750 954.168 C 0.889 779.085, 0.889 492.885, 0.750 318.168 C 0.611 143.451, 0.497 286.700, 0.497 636.500 M 611.500 168.457 C 594.612 171.536, 577.877 177.390, 566 184.373 C 557.713 189.245, 541.823 202.152, 529.500 214.022 C 521.106 222.107, 515.825 225.300, 504.903 228.892 C 487.035 234.768, 481.954 244.953, 489.745 259.277 C 493.202 265.632, 498.281 269.345, 511.130 274.908 C 519.010 278.320, 522.623 280.587, 527.596 285.239 C 544.239 300.807, 548.908 316.455, 549.010 357 C 549.069 380.686, 550.376 399.804, 552.497 407.987 C 554.850 417.069, 568.676 453.767, 571.706 458.974 C 573.155 461.463, 576.442 466.505, 579.010 470.179 C 581.578 473.852, 585.849 481.719, 588.502 487.660 C 591.154 493.602, 595.791 502.522, 598.806 507.482 C 601.822 512.442, 606.465 521.780, 609.124 528.234 C 611.784 534.687, 615.936 543.237, 618.351 547.234 C 624.152 556.834, 626.465 561.487, 631.526 573.731 C 633.852 579.358, 638.292 588.154, 641.392 593.278 C 644.492 598.403, 649.266 607.953, 652 614.500 C 654.734 621.047, 659.430 630.476, 662.435 635.452 C 667.783 644.306, 669.247 647.310, 676.064 663.416 C 677.907 667.769, 681.191 674.069, 683.362 677.416 C 687.572 683.904, 691.924 692.767, 696.973 705.133 C 698.687 709.331, 701.687 715.406, 703.640 718.633 C 709.863 728.915, 712.660 735.200, 716.486 747.500 C 718.724 754.692, 722.999 764.909, 727.157 773 C 735.498 789.230, 736.972 795.330, 736.948 813.500 C 736.927 829.253, 735.432 838.184, 730.504 852 C 724.374 869.190, 720.200 883.628, 716.916 899 C 713.055 917.077, 711.580 921.278, 705.191 932.388 C 701.665 938.521, 698.482 946.273, 694.926 957.388 C 691.752 967.309, 686.962 979.264, 682.461 988.500 C 677.409 998.865, 674.327 1006.745, 672.486 1014 C 671.022 1019.775, 668.940 1026.521, 667.861 1028.991 C 663.442 1039.108, 651.571 1055.703, 646.258 1059.192 C 638.486 1064.296, 638.322 1064.312, 589.500 1065.031 C 549.681 1065.617, 542.765 1065.943, 538.028 1067.459 C 530.910 1069.736, 525 1075.417, 525 1079.981 C 525 1087.123, 530.179 1093.260, 539.069 1096.651 C 542.905 1098.115, 550.956 1098.480, 599 1099.365 C 629.525 1099.927, 663.950 1100.189, 675.500 1099.945 C 700.437 1099.421, 768.806 1099.408, 806 1099.922 C 820.575 1100.124, 841.998 1099.852, 853.607 1099.319 C 872.845 1098.435, 875.148 1098.135, 879.606 1095.925 C 887.002 1092.258, 891.285 1084.257, 889.551 1077.348 C 888.581 1073.481, 882.994 1068.343, 878.440 1067.130 C 876.273 1066.552, 870.225 1065.570, 865 1064.947 C 848.295 1062.955, 842.014 1058.629, 841.251 1048.592 C 840.909 1044.087, 841.404 1042.463, 845.549 1034.500 C 848.125 1029.550, 852.673 1018.098, 855.655 1009.051 C 859.124 998.526, 862.835 989.523, 865.959 984.051 C 871.475 974.391, 874.993 965.905, 882.151 945 C 889.411 923.795, 890.987 916.385, 890.978 903.500 C 890.970 891.213, 889.725 884.766, 884.222 868.500 C 881.203 859.579, 880.500 856.048, 880.500 849.816 C 880.500 842.762, 880.730 841.891, 883.300 839.209 C 884.840 837.602, 887.924 835.740, 890.154 835.072 C 892.604 834.338, 906.335 833.508, 924.854 832.975 C 987.421 831.173, 1017.752 827.245, 1053 816.379 C 1068.917 811.472, 1077.763 807.065, 1082.913 801.478 C 1088.366 795.563, 1093.632 784.438, 1095.639 774.593 C 1097.587 765.042, 1096.558 756.411, 1091.956 743.691 C 1087.383 731.054, 1083.312 725.926, 1071.087 717.405 C 1056.545 707.269, 1034.936 685.636, 1026.233 672.500 C 1022.589 667, 1018.355 660.872, 1016.824 658.882 C 1015.293 656.892, 1010.947 650.345, 1007.166 644.333 C 1003.385 638.322, 997.479 629.611, 994.042 624.975 C 990.605 620.340, 985.768 612.487, 983.293 607.524 C 980.817 602.561, 976.200 594.900, 973.033 590.500 C 966.685 581.683, 964.774 578.197, 960.061 566.830 C 958.311 562.612, 955.035 556.537, 952.780 553.330 C 950.524 550.124, 945.649 542.693, 941.945 536.818 C 938.241 530.943, 932.546 523.039, 929.288 519.255 C 926.031 515.470, 920.506 508.198, 917.011 503.095 C 913.181 497.504, 907.680 491.171, 903.167 487.158 C 885.370 471.335, 881.914 468.141, 871.214 457.637 C 860.480 447.100, 859.638 445.968, 854.017 434.529 C 846.384 418.994, 831.582 400.359, 813.470 383.486 C 785.448 357.380, 757.851 327.259, 753.915 318.484 C 751.384 312.841, 750.262 307.234, 748.517 291.489 C 746.196 270.561, 743.899 263.173, 735.858 250.785 C 733.461 247.091, 729.118 239.628, 726.207 234.200 C 722.149 226.634, 718.192 221.318, 709.249 211.416 C 686.472 186.196, 684.544 184.822, 658.187 175.009 C 636.425 166.906, 627.146 165.604, 611.500 168.457 M 195.939 173.306 C 190.480 174.849, 186.604 177.482, 181.539 183.089 C 175.966 189.257, 173.287 196.107, 170.994 210.042 C 169.867 216.894, 168.286 225.875, 167.480 230 C 165.330 241.004, 162.062 271.083, 160.961 290 C 160.433 299.075, 159.335 313.475, 158.522 322 C 157.708 330.525, 156.590 343.713, 156.037 351.307 C 155.484 358.901, 153.919 370.601, 152.558 377.307 C 151.198 384.013, 149.619 394.675, 149.050 401 C 148.481 407.325, 147.131 417.450, 146.049 423.500 C 143.430 438.150, 140.308 468.118, 138.972 491.437 C 138.375 501.853, 137.718 510.648, 137.511 510.981 C 137.305 511.315, 136.407 521.694, 135.516 534.044 C 134.330 550.475, 132.990 560.953, 130.523 573.098 C 122.187 614.139, 116.063 681.912, 116.017 733.645 C 116.003 749.949, 116.295 753.743, 117.985 759.217 C 121.960 772.086, 130.703 782.282, 145.727 791.569 C 169.771 806.432, 178.430 813.663, 207.501 843.153 C 222.900 858.775, 238.835 875.369, 242.912 880.028 C 246.989 884.688, 254.902 893, 260.497 898.500 C 272.064 909.870, 280.233 920.421, 282.563 927 C 283.524 929.713, 284.373 936.465, 284.702 944 C 285.320 958.159, 283.447 1007.893, 281.897 1018.500 C 280.055 1031.105, 278.228 1064.552, 279.085 1069.976 C 279.536 1072.829, 281.014 1077.054, 282.368 1079.366 C 285.867 1085.335, 294.118 1092.707, 300.647 1095.696 C 305.412 1097.877, 307.226 1098.181, 313.016 1097.767 C 325.757 1096.855, 338.534 1088.739, 343.633 1078.319 C 346.980 1071.477, 347.027 1069.838, 345.197 1023.500 C 343.908 990.849, 342.775 946.842, 341.027 861.500 C 340.531 837.300, 339.671 808.275, 339.116 797 C 338.560 785.725, 337.831 763.675, 337.495 748 C 337.159 732.325, 336.447 711.625, 335.913 702 C 335.378 692.375, 334.517 673.475, 333.999 660 C 333.480 646.525, 332.573 631.225, 331.983 626 C 331.393 620.775, 330.507 601.875, 330.014 584 C 329.516 565.906, 328.213 542.413, 327.076 531 C 325.953 519.725, 324.586 497, 324.038 480.500 C 321.844 414.367, 321.026 387.365, 320.478 363 C 319.486 318.898, 317.324 304.881, 307.735 280.384 C 304.746 272.748, 301.059 262.454, 299.542 257.508 C 295.949 245.791, 292.342 238.871, 285.987 231.500 C 283.142 228.200, 278.209 222.125, 275.025 218 C 271.842 213.875, 263.654 205.041, 256.829 198.368 C 245.714 187.500, 243.436 185.765, 234.961 181.717 C 217.883 173.558, 204.926 170.765, 195.939 173.306 M 612.824 202.923 C 602.138 206.340, 588.590 214.609, 579.500 223.262 C 577.300 225.356, 571.383 229.065, 566.351 231.503 C 555.204 236.905, 552.667 240.138, 552.667 248.934 C 552.667 256.595, 556.164 263.934, 563.864 272.430 C 571.532 280.893, 575.306 288.726, 577.866 301.500 C 580.856 316.418, 582.076 331.293, 582.995 364 C 583.898 396.174, 584.242 398.420, 590.503 413 C 592.510 417.675, 596.083 426.675, 598.443 433 C 600.927 439.660, 605.489 449.019, 609.281 455.237 C 612.882 461.142, 616.832 469.017, 618.059 472.737 C 621.636 483.581, 624.636 489.720, 629.890 496.944 C 635.858 505.149, 638.028 509.359, 641.001 518.500 C 643.940 527.537, 646.752 533.081, 652.159 540.500 C 658.897 549.746, 659.489 550.850, 663.431 561.519 C 665.459 567.009, 669.283 575.100, 671.928 579.500 C 678.579 590.564, 680.304 594.216, 683.500 604 C 686.747 613.942, 688.910 618.473, 694.002 626 C 698.734 632.994, 702.244 640.016, 704.500 647 C 706.946 654.571, 710.317 661.059, 716.485 670.065 C 719.369 674.277, 722.536 679.922, 723.522 682.611 C 729.958 700.156, 731.626 703.673, 736.877 710.774 C 740.019 715.023, 744.119 720.732, 745.988 723.461 C 747.857 726.189, 750.952 730.155, 752.866 732.273 C 757.860 737.801, 780.885 753.890, 791.842 759.508 C 796.980 762.142, 803.730 766.171, 806.842 768.461 C 816.222 775.364, 820.965 777.704, 833 781.364 C 847.811 785.869, 850.557 786.902, 862 792.279 C 878.627 800.091, 881.256 800.494, 915.500 800.483 C 943.592 800.475, 946.454 800.304, 960.500 797.801 C 968.750 796.330, 982.656 794.403, 991.401 793.518 C 1014.799 791.150, 1035.292 786.167, 1047.960 779.765 C 1055.925 775.739, 1058.189 772.768, 1058.787 765.553 C 1059.425 757.858, 1055.932 750.862, 1048.226 744.401 C 1033.439 732.003, 1025.191 723.836, 1018.394 714.860 C 1014.332 709.497, 1009.408 703.888, 1007.451 702.395 C 1003.871 699.664, 987.235 679.518, 981.386 670.829 C 979.656 668.260, 976.506 661.970, 974.384 656.852 C 971.941 650.958, 968.178 644.422, 964.119 639.023 C 960.594 634.335, 955.519 625.896, 952.841 620.269 C 950.164 614.641, 945.433 606.316, 942.329 601.769 C 937.066 594.057, 935.175 590.438, 927.134 572.689 C 925.436 568.942, 921.414 562.192, 918.195 557.689 C 914.976 553.185, 910.699 546.755, 908.691 543.401 C 901.177 530.853, 872.501 501.950, 863.514 497.867 C 855.276 494.125, 849.280 496.149, 832.084 508.481 C 817.265 519.107, 812.872 523.508, 808.757 531.852 C 804.802 539.874, 804.736 545.603, 808.399 563.238 C 813.181 586.258, 812.757 604.117, 807.070 619.147 C 801.440 634.027, 786.210 642.533, 769.902 639.907 C 757.614 637.928, 754.797 635.835, 725.656 607.032 C 701.003 582.666, 698.072 579.398, 689.751 567 C 678.442 550.150, 676.605 546.008, 673.487 530.335 C 670.737 516.518, 668.979 511.850, 662.897 502.220 C 655.711 490.842, 653.306 480.956, 652.342 458.842 C 651.269 434.218, 653.609 427.130, 667.214 413.789 C 678.211 403.005, 685.670 398.971, 695.979 398.234 C 704.879 397.597, 711.274 399.341, 715.486 403.553 C 723.689 411.756, 719.366 423.742, 705.717 430.635 C 695.608 435.740, 692.296 438.649, 689.074 445.257 C 682.720 458.285, 683.885 470.099, 693.111 486.197 C 698.829 496.176, 700.989 501.964, 706.472 522 C 707.986 527.533, 710.523 533.797, 712.546 537 C 714.457 540.025, 718.828 547.179, 722.260 552.898 C 727.654 561.886, 730.187 564.854, 740.934 574.778 C 749.495 582.683, 755.257 587.153, 759.434 589.129 C 766.623 592.530, 768.867 592.679, 772.293 589.984 C 778.519 585.087, 778.478 573.160, 772.166 553.840 C 763.083 526.032, 766.097 514.362, 785.237 503.241 C 789.526 500.749, 796.290 495.951, 800.267 492.579 C 804.245 489.208, 810.311 484.257, 813.748 481.579 C 822.746 474.565, 825.406 468.823, 824.797 457.735 C 824.239 447.581, 821.452 441.239, 813.225 431.405 C 810.048 427.607, 804.909 421.350, 801.804 417.500 C 794.998 409.060, 774.707 390.436, 763 381.884 C 749.059 371.700, 736.158 357.048, 727.500 341.566 C 720.776 329.543, 719.010 322.277, 716.456 296.123 C 714.542 276.530, 712.578 269.619, 706.471 260.996 C 703.940 257.423, 699.433 250.377, 696.454 245.337 C 690.985 236.085, 682.734 227.535, 671.214 219.178 C 665.084 214.732, 641.837 203.522, 635.807 202.104 C 628.982 200.498, 619.329 200.842, 612.824 202.923 M 213.481 218.394 C 209.193 220.262, 204.534 225.956, 202.210 232.169 C 199.287 239.981, 194.168 274.121, 192.999 293.598 C 192.441 302.894, 191.557 314.100, 191.034 318.500 C 190.511 322.900, 189.596 335.500, 189.002 346.500 C 187.544 373.484, 184.313 405.524, 181.942 416.500 C 177.699 436.141, 172.941 467.277, 172.010 481.500 C 171.470 489.750, 170.363 503.925, 169.551 513 C 168.739 522.075, 167.595 537.416, 167.011 547.090 C 166.426 556.765, 165.506 567.340, 164.967 570.590 C 164.428 573.841, 163.341 583.700, 162.553 592.500 C 161.764 601.300, 160.206 612.393, 159.091 617.152 C 155.495 632.499, 151.900 658.072, 150.958 675 C 150.453 684.075, 149.303 697.575, 148.401 705 C 145.788 726.520, 147.622 741.230, 154.090 750.631 C 155.675 752.934, 160.240 757.183, 164.236 760.074 C 168.231 762.964, 175.325 768.596, 180 772.590 C 184.675 776.583, 191.955 782.697, 196.178 786.175 C 221.197 806.785, 243.252 827.925, 253.821 841.426 C 263.088 853.264, 281.621 872.719, 288.360 877.683 C 297.556 884.457, 302.788 883.225, 306.127 873.500 C 307.721 868.855, 307.668 823.533, 306.025 787 C 305.494 775.175, 304.569 752, 303.971 735.500 C 303.373 719, 301.816 694.475, 300.512 681 C 297.289 647.707, 297.119 644.540, 295.954 596.107 C 295.393 572.791, 294.279 544.216, 293.477 532.607 C 292.676 520.998, 291.337 484.725, 290.502 452 C 287.001 314.747, 287.684 323.423, 278.601 300.795 C 275.666 293.483, 271.567 282.325, 269.492 276 C 264.709 261.415, 262.471 256.992, 255.263 247.872 C 252.058 243.818, 248.342 238.925, 247.006 237 C 236.194 221.422, 223.149 214.181, 213.481 218.394 M 591.513 228.507 C 586.657 230.237, 585 232.331, 585 236.741 C 585 246.596, 597.001 254.727, 606.028 250.988 C 609.793 249.429, 612 245.400, 612 240.084 C 612 235.021, 607.507 229.513, 602.168 228.030 C 597.486 226.730, 596.365 226.780, 591.513 228.507 M 776.514 799.168 C 772.196 802.564, 771.156 806.513, 769 827.700 C 766.166 855.545, 764.682 862.673, 759.045 875.500 C 756.386 881.550, 753.435 889.875, 752.486 894 C 746.512 919.972, 745.616 922.713, 737.437 940 C 733.924 947.425, 729.691 958.088, 728.031 963.697 C 723.858 977.794, 721.704 983.024, 715.547 994 C 711.588 1001.059, 708.494 1008.891, 703.506 1024.482 C 695.503 1049.495, 695.366 1052.153, 701.775 1058.131 C 707.980 1063.919, 710.337 1064.309, 741.796 1064.746 C 780.885 1065.290, 789.757 1063.627, 798.052 1054.204 C 804.717 1046.632, 816.551 1021.834, 823.074 1001.772 C 827.411 988.434, 830.477 981.069, 835.364 972.250 C 838.945 965.788, 842.772 957.575, 843.867 954 C 858.219 907.145, 858.101 908.071, 852.585 885.448 C 847.524 864.690, 844.275 854.261, 841.230 849 C 839.798 846.525, 834.035 838.401, 828.423 830.947 C 817.785 816.817, 817.521 816.583, 799 804.851 C 785.255 796.145, 781.548 795.208, 776.514 799.168" stroke="none" fill="#f0f0f0" fill-rule="evenodd"/></svg>