<svg xmlns="http://www.w3.org/2000/svg" width="140" height="140" viewBox="0 0 140 140" version="1.1"><path d="M 9.521 6.966 C 8.435 8.724, 12.830 15.670, 18.817 21.657 C 40.325 43.165, 80.759 43.132, 102.606 21.589 L 108.780 15.500 110.449 20.301 C 111.605 23.624, 113.100 25.700, 115.309 27.047 C 119.569 29.644, 121.624 29.504, 123.606 26.479 C 127.159 21.056, 122.574 10.391, 115.400 7.394 C 112.696 6.264, 102.414 6, 61.091 6 C 29.395 6, 9.892 6.365, 9.521 6.966 M 12 8.566 C 12 9.763, 14.450 13.671, 17.703 17.661 C 25.032 26.651, 37.829 32.930, 53.156 35.056 C 71.548 37.607, 91.370 30.951, 102.919 18.347 C 113.168 7.162, 116.603 8, 60.500 8 C 33.825 8, 12 8.255, 12 8.566 M 111.667 9.667 C 110.422 10.912, 111.037 16.485, 112.863 20.500 C 116.114 27.647, 123 28.855, 123 22.279 C 123 15.608, 114.824 6.509, 111.667 9.667 M 56.463 98.530 C 47.470 101.859, 40.138 111.735, 39.704 121.105 L 39.500 125.500 66.750 125.766 C 84.712 125.941, 94 125.686, 94 125.016 C 94 124.457, 93.640 124, 93.200 124 C 92.760 124, 91.846 121.316, 91.168 118.036 C 89.673 110.797, 85.326 104.714, 78.734 100.639 C 72.984 97.084, 62.940 96.133, 56.463 98.530 M 57.885 100.319 C 49.259 103.547, 43.439 110.460, 42.073 119.101 L 41.299 124 65.695 124 L 90.091 124 89.405 120.250 C 87.853 111.756, 84.278 106.419, 77.467 102.428 C 72.066 99.263, 63.245 98.313, 57.885 100.319" stroke="none" fill="#1e1e1e" fill-rule="evenodd"/><path d="M 0 70.007 L 0 140.014 70.250 139.757 L 140.500 139.500 140.757 69.750 L 141.014 -0 70.507 -0 L 0 0 0 70.007 M 0.473 70.500 C 0.474 109, 0.598 124.605, 0.750 105.177 C 0.902 85.749, 0.901 54.249, 0.749 35.177 C 0.598 16.105, 0.473 32, 0.473 70.500 M 9.521 6.966 C 8.435 8.724, 12.830 15.670, 18.817 21.657 C 40.325 43.165, 80.759 43.132, 102.606 21.589 L 108.780 15.500 110.449 20.301 C 111.605 23.624, 113.100 25.700, 115.309 27.047 C 119.569 29.644, 121.624 29.504, 123.606 26.479 C 127.159 21.056, 122.574 10.391, 115.400 7.394 C 112.696 6.264, 102.414 6, 61.091 6 C 29.395 6, 9.892 6.365, 9.521 6.966 M 12 8.566 C 12 9.763, 14.450 13.671, 17.703 17.661 C 25.032 26.651, 37.829 32.930, 53.156 35.056 C 71.548 37.607, 91.370 30.951, 102.919 18.347 C 113.168 7.162, 116.603 8, 60.500 8 C 33.825 8, 12 8.255, 12 8.566 M 111.667 9.667 C 110.422 10.912, 111.037 16.485, 112.863 20.500 C 116.114 27.647, 123 28.855, 123 22.279 C 123 15.608, 114.824 6.509, 111.667 9.667 M 56.463 98.530 C 47.470 101.859, 40.138 111.735, 39.704 121.105 L 39.500 125.500 66.750 125.766 C 84.712 125.941, 94 125.686, 94 125.016 C 94 124.457, 93.640 124, 93.200 124 C 92.760 124, 91.846 121.316, 91.168 118.036 C 89.673 110.797, 85.326 104.714, 78.734 100.639 C 72.984 97.084, 62.940 96.133, 56.463 98.530 M 57.885 100.319 C 49.259 103.547, 43.439 110.460, 42.073 119.101 L 41.299 124 65.695 124 L 90.091 124 89.405 120.250 C 87.853 111.756, 84.278 106.419, 77.467 102.428 C 72.066 99.263, 63.245 98.313, 57.885 100.319" stroke="none" fill="#fafafa" fill-rule="evenodd"/></svg>