<svg xmlns="http://www.w3.org/2000/svg" width="1272" height="765" viewBox="0 0 1272 765" version="1.1"><path d="M 792.821 59.395 C 782.678 62.126, 776.645 70.329, 774.954 83.688 C 774.411 87.984, 772.830 102.750, 771.443 116.500 C 766.341 167.055, 762.419 200.228, 757.433 235 C 755.750 246.739, 751.923 283.147, 749.496 310.500 C 748.617 320.400, 746.596 337.950, 745.004 349.500 C 743.412 361.050, 741.185 379.205, 740.055 389.844 C 735.449 433.201, 737.219 438.864, 761.447 458.294 C 785.250 477.384, 825.908 519.189, 837.587 536.583 C 845.353 548.150, 846.124 556.693, 843.851 606 C 842.798 628.854, 842.845 632.071, 844.304 637 C 851.357 660.833, 884.672 660.940, 891.634 637.151 C 893.029 632.383, 893.075 626.844, 892.057 586.151 C 891.429 561.043, 890.263 533.525, 889.466 525 C 888.670 516.475, 887.571 496, 887.025 479.500 C 884.608 406.500, 883.923 388.590, 883.004 374.500 C 882.466 366.250, 881.550 342.437, 880.968 321.582 C 880.386 300.727, 879.734 283.379, 879.520 283.032 C 879.305 282.684, 878.421 260.372, 877.554 233.450 C 875.370 165.535, 874.584 157.714, 866.959 128 C 863.034 112.707, 857.933 102.638, 848.213 91 C 832.565 72.263, 820.485 62.924, 807.535 59.551 C 800.549 57.732, 799.057 57.716, 792.821 59.395 M 1023 58.921 C 1012.308 61.097, 1005.957 67.999, 1003.143 80.500 C 1001.732 86.765, 996.494 137.156, 995.034 158.500 C 994.432 167.300, 992.610 185.075, 990.985 198 C 989.359 210.925, 987.338 228.925, 986.492 238 C 983.465 270.500, 979.956 301.846, 977.035 322.500 C 975.401 334.050, 973.364 350.925, 972.508 360 C 971.652 369.075, 970.019 385.275, 968.878 396 C 964.916 433.262, 967.449 440.954, 989.109 457.430 C 999.880 465.624, 1023.674 487.125, 1034.381 498.340 C 1050.143 514.848, 1065.386 532.821, 1067.973 537.946 C 1073.012 547.928, 1073.380 552.430, 1072.712 595.902 C 1072.226 627.541, 1072.371 636.254, 1073.435 639.252 C 1076.814 648.778, 1084.676 654.164, 1096.173 654.830 C 1107.608 655.493, 1115.792 650.364, 1120.719 639.446 C 1122.353 635.826, 1122.476 631.993, 1122.207 593 C 1122.037 568.298, 1121.313 542.752, 1120.478 532 C 1119.689 521.825, 1118.359 496.850, 1117.524 476.500 C 1116.689 456.150, 1115.776 437.250, 1115.496 434.500 C 1115.215 431.750, 1114.523 418.475, 1113.958 405 C 1113.393 391.525, 1112.279 372.400, 1111.482 362.500 C 1110.685 352.600, 1109.566 332.800, 1108.996 318.500 C 1108.425 304.200, 1107.539 283.500, 1107.028 272.500 C 1106.516 261.500, 1105.821 238.325, 1105.484 221 C 1104.714 181.545, 1103.905 172.473, 1098.886 147.063 C 1094.192 123.299, 1091.190 113.020, 1086.307 104 C 1071.205 76.101, 1041.726 55.110, 1023 58.921 M 805.607 102.095 C 798.196 107.924, 797.355 112.982, 789.483 199 C 788.602 208.625, 787.033 222.350, 785.996 229.500 C 784.959 236.650, 783.402 250.150, 782.537 259.500 C 781.672 268.850, 780.529 281, 779.997 286.500 C 779.465 292, 778.328 304.375, 777.471 314 C 776.615 323.625, 774.380 341.625, 772.505 354 C 765.999 396.950, 765.387 416.135, 770.224 425.534 C 773.676 432.242, 778.279 436.816, 792.550 447.724 C 808.285 459.749, 815.984 467.013, 828.302 481.457 C 840.089 495.276, 845.707 500, 850.355 500 C 856.821 500, 859.039 496.473, 860.542 483.800 C 861.198 478.269, 859.844 430.128, 857.947 391.500 C 857.434 381.050, 856.562 358.775, 856.011 342 C 855.459 325.225, 854.549 301.375, 853.990 289 C 853.430 276.625, 852.525 252.775, 851.978 236 C 850.431 188.546, 849.225 170.507, 846.969 161.090 C 845.063 153.138, 833.531 120.972, 830.265 114.500 C 827.866 109.746, 822.102 103.104, 818.970 101.484 C 814.795 99.326, 808.778 99.600, 805.607 102.095 M 1033.207 102.479 C 1028.861 106.136, 1027.561 111.378, 1025.016 135.500 C 1020.688 176.539, 1019.847 183.796, 1018.009 196 C 1014.712 217.888, 1013.122 231.604, 1009.486 269.500 C 1007.533 289.850, 1004.846 315.050, 1003.515 325.500 C 999.819 354.508, 996.559 392.079, 996.528 406.021 C 996.501 418.230, 996.584 418.712, 999.851 425.349 C 1003.708 433.184, 1010.818 440.817, 1022.500 449.662 C 1026.900 452.994, 1038.375 463.581, 1048 473.190 C 1065.451 490.611, 1072.672 496, 1078.561 496 C 1081.865 496, 1085.812 492.336, 1086.960 488.205 C 1088.277 483.464, 1088.298 458.599, 1087.009 430.500 C 1086.454 418.400, 1085.534 397.700, 1084.965 384.500 C 1084.395 371.300, 1083.518 351.050, 1083.016 339.500 C 1082.127 319.069, 1080.973 282.574, 1078.982 212 C 1077.946 175.251, 1076.816 164.403, 1072.065 145.592 C 1068.358 130.913, 1064.080 120.948, 1058.035 112.909 C 1052.256 105.224, 1046.266 100.897, 1040.506 100.248 C 1037.122 99.866, 1035.850 100.255, 1033.207 102.479 M 558 269.079 C 552.225 269.500, 447.110 269.859, 324.410 269.876 C 102.222 269.908, 101.299 269.916, 95.859 271.952 C 84.077 276.360, 79.149 286.227, 82.397 298.904 C 84.762 308.137, 89.012 315.633, 100.723 331.232 C 113.065 347.671, 127.025 362.543, 138.500 371.475 C 152.971 382.739, 177.389 399.719, 183.500 402.767 C 202.164 412.078, 255.629 430.911, 275 434.998 C 287.179 437.568, 314.226 440.902, 329 441.656 C 351.717 442.814, 403.674 436.776, 426 430.384 C 435.380 427.698, 481.968 409.070, 492.500 403.794 C 505.564 397.250, 515.010 390.878, 534.500 375.464 C 556.142 358.348, 561.332 355, 566.221 355 C 568.372 355, 571.114 355.521, 572.316 356.157 C 573.517 356.793, 580.800 363.734, 588.500 371.581 C 603.780 387.153, 611.396 392.725, 621.130 395.456 C 655.440 405.083, 675.016 359.070, 654.295 317.502 C 649.539 307.961, 645.270 302.383, 636.344 294.048 C 621.049 279.763, 605.141 271.456, 588.471 269.047 C 580.744 267.930, 573.654 267.938, 558 269.079 M 139.965 296.991 C 130.825 297.883, 126.454 299.980, 124.294 304.511 C 121.197 311.004, 124.676 317.292, 141.474 335.556 C 157.432 352.908, 187.874 375.584, 208.500 385.484 C 227.107 394.414, 263.538 404.169, 297 409.181 C 325.601 413.464, 344.946 413.585, 375.500 409.671 C 401.147 406.385, 410.951 404.615, 420.892 401.474 C 425.097 400.146, 435.354 397.270, 443.685 395.083 C 461.779 390.333, 469.040 386.866, 492.258 371.891 C 512.042 359.131, 520.282 352.599, 532.151 340.265 C 555.556 315.943, 558.860 303.166, 543.134 297.787 C 540.292 296.815, 496.802 296.512, 343.500 296.400 C 235.700 296.320, 144.109 296.586, 139.965 296.991 M 605.251 314.537 C 599.510 318.558, 600.427 333.687, 607.250 347.500 C 610.925 354.940, 617.658 360, 623.883 360 C 627.938 360, 632.723 355.741, 634.001 350.997 C 636.578 341.426, 627.164 322.865, 616.210 315.918 C 611.026 312.630, 608.438 312.304, 605.251 314.537" stroke="none" fill="#8d8d8d" fill-rule="evenodd"/><path d="M 0 382.501 L 0 765.002 636.250 764.751 L 1272.500 764.500 1272.751 382.250 L 1273.003 -0 636.501 -0 L 0 0 0 382.501 M 0.495 383 C 0.495 593.375, 0.610 679.437, 0.750 574.250 C 0.890 469.062, 0.890 296.937, 0.750 191.750 C 0.610 86.562, 0.495 172.625, 0.495 383 M 792.821 59.395 C 782.678 62.126, 776.645 70.329, 774.954 83.688 C 774.411 87.984, 772.830 102.750, 771.443 116.500 C 766.341 167.055, 762.419 200.228, 757.433 235 C 755.750 246.739, 751.923 283.147, 749.496 310.500 C 748.617 320.400, 746.596 337.950, 745.004 349.500 C 743.412 361.050, 741.185 379.205, 740.055 389.844 C 735.449 433.201, 737.219 438.864, 761.447 458.294 C 785.250 477.384, 825.908 519.189, 837.587 536.583 C 845.353 548.150, 846.124 556.693, 843.851 606 C 842.798 628.854, 842.845 632.071, 844.304 637 C 851.357 660.833, 884.672 660.940, 891.634 637.151 C 893.029 632.383, 893.075 626.844, 892.057 586.151 C 891.429 561.043, 890.263 533.525, 889.466 525 C 888.670 516.475, 887.571 496, 887.025 479.500 C 884.608 406.500, 883.923 388.590, 883.004 374.500 C 882.466 366.250, 881.550 342.437, 880.968 321.582 C 880.386 300.727, 879.734 283.379, 879.520 283.032 C 879.305 282.684, 878.421 260.372, 877.554 233.450 C 875.370 165.535, 874.584 157.714, 866.959 128 C 863.034 112.707, 857.933 102.638, 848.213 91 C 832.565 72.263, 820.485 62.924, 807.535 59.551 C 800.549 57.732, 799.057 57.716, 792.821 59.395 M 1023 58.921 C 1012.308 61.097, 1005.957 67.999, 1003.143 80.500 C 1001.732 86.765, 996.494 137.156, 995.034 158.500 C 994.432 167.300, 992.610 185.075, 990.985 198 C 989.359 210.925, 987.338 228.925, 986.492 238 C 983.465 270.500, 979.956 301.846, 977.035 322.500 C 975.401 334.050, 973.364 350.925, 972.508 360 C 971.652 369.075, 970.019 385.275, 968.878 396 C 964.916 433.262, 967.449 440.954, 989.109 457.430 C 999.880 465.624, 1023.674 487.125, 1034.381 498.340 C 1050.143 514.848, 1065.386 532.821, 1067.973 537.946 C 1073.012 547.928, 1073.380 552.430, 1072.712 595.902 C 1072.226 627.541, 1072.371 636.254, 1073.435 639.252 C 1076.814 648.778, 1084.676 654.164, 1096.173 654.830 C 1107.608 655.493, 1115.792 650.364, 1120.719 639.446 C 1122.353 635.826, 1122.476 631.993, 1122.207 593 C 1122.037 568.298, 1121.313 542.752, 1120.478 532 C 1119.689 521.825, 1118.359 496.850, 1117.524 476.500 C 1116.689 456.150, 1115.776 437.250, 1115.496 434.500 C 1115.215 431.750, 1114.523 418.475, 1113.958 405 C 1113.393 391.525, 1112.279 372.400, 1111.482 362.500 C 1110.685 352.600, 1109.566 332.800, 1108.996 318.500 C 1108.425 304.200, 1107.539 283.500, 1107.028 272.500 C 1106.516 261.500, 1105.821 238.325, 1105.484 221 C 1104.714 181.545, 1103.905 172.473, 1098.886 147.063 C 1094.192 123.299, 1091.190 113.020, 1086.307 104 C 1071.205 76.101, 1041.726 55.110, 1023 58.921 M 805.607 102.095 C 798.196 107.924, 797.355 112.982, 789.483 199 C 788.602 208.625, 787.033 222.350, 785.996 229.500 C 784.959 236.650, 783.402 250.150, 782.537 259.500 C 781.672 268.850, 780.529 281, 779.997 286.500 C 779.465 292, 778.328 304.375, 777.471 314 C 776.615 323.625, 774.380 341.625, 772.505 354 C 765.999 396.950, 765.387 416.135, 770.224 425.534 C 773.676 432.242, 778.279 436.816, 792.550 447.724 C 808.285 459.749, 815.984 467.013, 828.302 481.457 C 840.089 495.276, 845.707 500, 850.355 500 C 856.821 500, 859.039 496.473, 860.542 483.800 C 861.198 478.269, 859.844 430.128, 857.947 391.500 C 857.434 381.050, 856.562 358.775, 856.011 342 C 855.459 325.225, 854.549 301.375, 853.990 289 C 853.430 276.625, 852.525 252.775, 851.978 236 C 850.431 188.546, 849.225 170.507, 846.969 161.090 C 845.063 153.138, 833.531 120.972, 830.265 114.500 C 827.866 109.746, 822.102 103.104, 818.970 101.484 C 814.795 99.326, 808.778 99.600, 805.607 102.095 M 1033.207 102.479 C 1028.861 106.136, 1027.561 111.378, 1025.016 135.500 C 1020.688 176.539, 1019.847 183.796, 1018.009 196 C 1014.712 217.888, 1013.122 231.604, 1009.486 269.500 C 1007.533 289.850, 1004.846 315.050, 1003.515 325.500 C 999.819 354.508, 996.559 392.079, 996.528 406.021 C 996.501 418.230, 996.584 418.712, 999.851 425.349 C 1003.708 433.184, 1010.818 440.817, 1022.500 449.662 C 1026.900 452.994, 1038.375 463.581, 1048 473.190 C 1065.451 490.611, 1072.672 496, 1078.561 496 C 1081.865 496, 1085.812 492.336, 1086.960 488.205 C 1088.277 483.464, 1088.298 458.599, 1087.009 430.500 C 1086.454 418.400, 1085.534 397.700, 1084.965 384.500 C 1084.395 371.300, 1083.518 351.050, 1083.016 339.500 C 1082.127 319.069, 1080.973 282.574, 1078.982 212 C 1077.946 175.251, 1076.816 164.403, 1072.065 145.592 C 1068.358 130.913, 1064.080 120.948, 1058.035 112.909 C 1052.256 105.224, 1046.266 100.897, 1040.506 100.248 C 1037.122 99.866, 1035.850 100.255, 1033.207 102.479 M 558 269.079 C 552.225 269.500, 447.110 269.859, 324.410 269.876 C 102.222 269.908, 101.299 269.916, 95.859 271.952 C 84.077 276.360, 79.149 286.227, 82.397 298.904 C 84.762 308.137, 89.012 315.633, 100.723 331.232 C 113.065 347.671, 127.025 362.543, 138.500 371.475 C 152.971 382.739, 177.389 399.719, 183.500 402.767 C 202.164 412.078, 255.629 430.911, 275 434.998 C 287.179 437.568, 314.226 440.902, 329 441.656 C 351.717 442.814, 403.674 436.776, 426 430.384 C 435.380 427.698, 481.968 409.070, 492.500 403.794 C 505.564 397.250, 515.010 390.878, 534.500 375.464 C 556.142 358.348, 561.332 355, 566.221 355 C 568.372 355, 571.114 355.521, 572.316 356.157 C 573.517 356.793, 580.800 363.734, 588.500 371.581 C 603.780 387.153, 611.396 392.725, 621.130 395.456 C 655.440 405.083, 675.016 359.070, 654.295 317.502 C 649.539 307.961, 645.270 302.383, 636.344 294.048 C 621.049 279.763, 605.141 271.456, 588.471 269.047 C 580.744 267.930, 573.654 267.938, 558 269.079 M 139.965 296.991 C 130.825 297.883, 126.454 299.980, 124.294 304.511 C 121.197 311.004, 124.676 317.292, 141.474 335.556 C 157.432 352.908, 187.874 375.584, 208.500 385.484 C 227.107 394.414, 263.538 404.169, 297 409.181 C 325.601 413.464, 344.946 413.585, 375.500 409.671 C 401.147 406.385, 410.951 404.615, 420.892 401.474 C 425.097 400.146, 435.354 397.270, 443.685 395.083 C 461.779 390.333, 469.040 386.866, 492.258 371.891 C 512.042 359.131, 520.282 352.599, 532.151 340.265 C 555.556 315.943, 558.860 303.166, 543.134 297.787 C 540.292 296.815, 496.802 296.512, 343.500 296.400 C 235.700 296.320, 144.109 296.586, 139.965 296.991 M 605.251 314.537 C 599.510 318.558, 600.427 333.687, 607.250 347.500 C 610.925 354.940, 617.658 360, 623.883 360 C 627.938 360, 632.723 355.741, 634.001 350.997 C 636.578 341.426, 627.164 322.865, 616.210 315.918 C 611.026 312.630, 608.438 312.304, 605.251 314.537" stroke="none" fill="#f4f4f4" fill-rule="evenodd"/></svg>