<svg xmlns="http://www.w3.org/2000/svg" width="1248" height="1272" viewBox="0 0 1248 1272" version="1.1"><path d="M 354 122 C 284.136 122.765, 286.832 122.542, 274.901 128.519 C 268.254 131.848, 263 135.712, 263 137.272 C 263 137.915, 260.569 140.930, 257.597 143.971 C 249.385 152.374, 240.883 170.259, 239.453 182.141 C 239.098 185.088, 237.300 193.125, 235.457 200 C 226.012 235.244, 224.809 244.221, 224.263 283.500 C 223.742 321.034, 224.337 325.684, 231.931 343.457 C 236.093 353.199, 238.455 360.809, 239.550 368 C 240.564 374.670, 244.229 383.758, 249.266 392.100 C 251.723 396.170, 254.532 401.075, 255.507 403 C 256.481 404.925, 257.674 406.756, 258.157 407.070 C 258.639 407.383, 260.283 410.533, 261.808 414.070 C 265.223 421.985, 268.841 428.659, 273.968 436.500 C 280.507 446.500, 284.696 454.237, 286.420 459.500 C 287.320 462.250, 289.247 466.750, 290.700 469.500 C 294.155 476.037, 304.953 492, 305.920 492 C 306.334 492, 307.923 494.587, 309.450 497.750 C 315.085 509.417, 317.091 512.886, 320.012 516.012 C 321.655 517.772, 323 519.580, 323 520.030 C 323 520.479, 325.362 524.724, 328.250 529.461 C 331.137 534.198, 334.625 540.228, 336 542.860 C 337.375 545.491, 341.762 552.196, 345.750 557.759 C 349.738 563.322, 353 568.351, 353 568.936 C 353 569.521, 353.395 570, 353.877 570 C 354.790 570, 359 579.032, 359 580.991 C 359 581.608, 360.989 586.699, 363.420 592.306 C 370.717 609.135, 370.993 610.860, 372.012 646 C 372.515 663.325, 373.378 686.950, 373.930 698.500 C 377.853 780.533, 379.042 820.584, 379.115 873.069 C 379.179 919.154, 379.072 922.171, 377.015 932.069 C 374.037 946.407, 369.051 963.571, 365.561 971.500 C 363.689 975.754, 360.490 986.300, 358.586 994.500 C 357.691 998.350, 354.775 1006, 352.105 1011.500 C 345.670 1024.756, 338.129 1032.413, 328.282 1035.692 C 325.652 1036.567, 323.050 1037.618, 322.500 1038.027 C 320.028 1039.866, 304.968 1041.082, 273 1042.025 C 237.503 1043.072, 201.584 1045.200, 187.500 1047.089 C 177.654 1048.410, 162.611 1053.018, 154.182 1057.295 C 147.038 1060.919, 138.139 1070.150, 135.970 1076.186 C 132.902 1084.721, 139.673 1093.162, 151.220 1095.195 C 157.831 1096.360, 165.211 1095.699, 187.630 1091.932 C 193.752 1090.904, 207.027 1089.387, 217.130 1088.560 C 227.234 1087.734, 239.775 1086.592, 245 1086.024 C 271.556 1083.133, 329.920 1083.083, 340.905 1085.942 C 342.882 1086.456, 351.700 1087.389, 360.500 1088.014 C 379.396 1089.357, 393.453 1091.643, 412.361 1096.447 C 419.968 1098.379, 431.211 1100.454, 437.346 1101.056 C 450.490 1102.347, 468.714 1105.255, 482 1108.181 C 505.880 1113.440, 509.380 1113.180, 534.218 1104.298 C 545.335 1100.322, 547.687 1099.070, 552.911 1094.342 C 559.247 1088.609, 566.770 1078.791, 571.206 1070.468 C 577.698 1058.286, 581.274 1030.891, 582.883 981 C 583.590 959.054, 583.673 958.399, 586.217 954.407 C 591.083 946.775, 597.826 946.223, 610.529 952.417 C 614.570 954.388, 618.467 956.002, 619.188 956.004 C 619.910 956.006, 621.924 956.876, 623.665 957.937 C 629.581 961.544, 640.025 964.162, 649 964.286 C 656.615 964.392, 658.124 964.088, 663.500 961.363 C 673.355 956.368, 678.642 948.127, 685.544 927 C 689.404 915.182, 694.376 905.939, 697.881 904.064 C 702.828 901.416, 712.029 904.680, 717.309 910.955 C 720.338 914.555, 743 948.636, 743 949.591 C 743 949.991, 744.758 952.647, 746.907 955.493 C 749.056 958.339, 753.180 965.130, 756.071 970.584 C 758.963 976.038, 761.612 980.725, 761.959 981 C 763.146 981.941, 767 989.113, 767 990.379 C 767 991.075, 769.245 994.903, 771.989 998.886 C 774.733 1002.869, 778.855 1009.587, 781.149 1013.814 C 783.442 1018.041, 785.615 1021.725, 785.977 1022 C 786.339 1022.275, 789.016 1026.550, 791.927 1031.500 C 800.055 1045.326, 803.446 1050.622, 808.798 1057.850 C 811.507 1061.507, 814.473 1065.964, 815.389 1067.753 C 817.579 1072.030, 839.247 1093.940, 845 1097.695 C 847.475 1099.310, 851.750 1101.469, 854.500 1102.493 C 857.250 1103.517, 862.701 1106.081, 866.613 1108.190 C 875.102 1112.768, 885.249 1116.335, 897.500 1119.047 C 902.450 1120.143, 907.850 1121.457, 909.500 1121.967 C 913.961 1123.344, 928.529 1125.817, 936.500 1126.549 C 947.145 1127.528, 984.150 1132.975, 985.400 1133.747 C 986.460 1134.403, 993.196 1136.311, 1020 1143.550 C 1036.406 1147.981, 1046.626 1148.223, 1056.078 1144.406 C 1064.832 1140.871, 1068.044 1138.212, 1072.405 1130.892 C 1079.271 1119.366, 1079.661 1102.063, 1073.441 1084.927 C 1067.777 1069.323, 1067.332 1059.909, 1071.979 1054 C 1078.868 1045.238, 1084 1032.652, 1084 1024.519 C 1084 1018.800, 1080.203 1006.476, 1077.133 1002.227 C 1073.090 996.633, 1056.413 980.424, 1049 974.884 C 1045.697 972.415, 1031.075 959.059, 1024.496 952.500 C 1017.940 945.964, 1010.692 937.274, 1008.232 933 C 1006.807 930.525, 1004.230 926.250, 1002.505 923.500 C 1000.779 920.750, 997.055 914.787, 994.228 910.248 C 991.401 905.710, 987.190 897.231, 984.870 891.407 C 982.550 885.582, 979.452 878.946, 977.986 876.659 C 964.839 856.146, 961.618 850.212, 958.960 841.605 C 957.885 838.124, 956.182 834.201, 955.177 832.888 C 954.172 831.575, 951.840 827.800, 949.996 824.500 C 948.151 821.200, 944.486 815.278, 941.851 811.340 C 939.216 807.401, 936.210 801.943, 935.172 799.209 C 934.133 796.476, 930.580 790.248, 927.276 785.370 C 918.252 772.046, 915.259 767.193, 912.936 762.113 C 908.052 751.438, 906.654 749.152, 896.323 734.956 C 892.903 730.256, 889.234 724.406, 888.170 721.956 C 887.105 719.505, 883.964 714.445, 881.189 710.711 C 878.415 706.978, 874.914 701.803, 873.409 699.211 C 871.904 696.620, 870.343 694.275, 869.939 694 C 869.535 693.725, 867.172 689.450, 864.688 684.500 C 859.259 673.681, 851.990 662.584, 846.437 656.638 C 845.852 656.012, 842.945 651.522, 839.977 646.660 C 837.009 641.798, 833.847 637.298, 832.951 636.660 C 832.055 636.022, 829.357 632.350, 826.956 628.500 C 824.555 624.650, 822.276 621.275, 821.894 621 C 821.511 620.725, 818.869 616, 816.022 610.500 C 810.598 600.018, 804.336 590.368, 799.834 585.553 C 798.367 583.984, 795.217 579.557, 792.834 575.715 C 790.450 571.873, 786.911 566.878, 784.968 564.615 C 783.025 562.352, 779.769 558.025, 777.732 555 C 775.695 551.975, 773.263 548.375, 772.328 547 C 771.393 545.625, 768.847 541.824, 766.672 538.553 C 764.496 535.282, 761.635 531.457, 760.315 530.053 C 758.995 528.649, 756.266 525.025, 754.251 522 C 752.236 518.975, 749.500 515.637, 748.172 514.582 C 746.844 513.527, 745.089 511.052, 744.273 509.082 C 742.254 504.212, 734.915 493.847, 725.247 482.212 C 724.007 480.720, 721.584 476.670, 719.862 473.212 C 718.139 469.754, 715.986 466.379, 715.076 465.712 C 713.667 464.680, 699.435 444.330, 696.536 439.204 C 695.590 437.530, 690.677 429.851, 679.773 413 C 676.748 408.325, 673.131 402.250, 671.736 399.500 C 670.341 396.750, 668.142 393.553, 666.849 392.396 C 665.557 391.238, 660.900 386.063, 656.500 380.896 C 652.100 375.728, 645.519 368.575, 641.875 365 C 638.231 361.425, 632.383 355.350, 628.880 351.500 C 625.376 347.650, 618.907 341.682, 614.505 338.237 C 610.102 334.793, 603.996 329.718, 600.936 326.961 C 597.875 324.204, 594.275 321.210, 592.936 320.307 C 586.470 315.949, 575.978 307.787, 575.282 306.573 C 574.434 305.095, 561.665 296.565, 556 293.692 C 545.433 288.333, 530.175 274.673, 524.509 265.500 C 516.378 252.337, 515.506 246.789, 513.984 198.500 C 513.412 180.350, 512.504 162.621, 511.966 159.103 C 510.549 149.838, 503.417 135.266, 498.415 131.417 C 486.499 122.246, 484.357 121.826, 448 121.532 C 431.775 121.401, 389.475 121.612, 354 122 M 401 164.052 C 388.075 164.427, 366.025 164.801, 352 164.884 C 321.771 165.063, 310.818 166.063, 299.735 169.658 C 290.497 172.654, 288.732 174.230, 284.132 183.585 C 280.267 191.446, 278.533 198.495, 276.527 214.500 C 274.730 228.836, 272.558 240.284, 270.462 246.465 C 267.543 255.071, 266.546 265.682, 266.608 287.500 C 266.683 314.180, 267.362 318.219, 276.182 344.500 C 279.958 355.750, 284.065 364.989, 291.076 378 C 292.706 381.025, 295.881 387.325, 298.132 392 C 310.652 418.004, 311.739 419.991, 318.722 429.656 C 328.461 443.135, 330.223 445.947, 334.608 455 C 337.139 460.225, 340.182 465.850, 341.370 467.500 C 342.558 469.150, 345.538 474.550, 347.993 479.500 C 350.448 484.450, 353.896 490.403, 355.655 492.730 C 357.413 495.056, 359.170 497.981, 359.558 499.230 C 360.334 501.728, 368.033 513.295, 369.285 513.845 C 369.717 514.035, 371.637 517.185, 373.551 520.845 C 375.466 524.505, 380.149 532.900, 383.958 539.500 C 387.767 546.100, 392.098 553.746, 393.581 556.491 C 395.065 559.237, 398.648 564.688, 401.545 568.604 C 404.442 572.521, 407.642 577.341, 408.656 579.315 C 409.670 581.290, 411.988 584.614, 413.806 586.702 C 417.374 590.801, 427.793 607.890, 432.984 618.157 C 434.747 621.646, 436.767 625.175, 437.472 626 C 438.177 626.825, 439.715 629.525, 440.890 632 C 442.065 634.475, 443.808 637.818, 444.763 639.428 C 445.719 641.038, 448.621 645.988, 451.213 650.428 C 455.763 658.219, 459.397 663.824, 461.513 666.310 C 463.046 668.111, 465.340 671.861, 468.969 678.500 C 470.773 681.800, 473.033 685.400, 473.992 686.500 C 474.951 687.600, 477.976 693.226, 480.716 699.002 C 483.456 704.778, 486.441 710.121, 487.349 710.874 C 488.257 711.628, 489 712.674, 489 713.198 C 489 714.373, 496.628 727.523, 498.868 730.210 C 499.765 731.287, 501.288 733.099, 502.250 734.237 C 503.212 735.375, 504 736.678, 504 737.134 C 504 737.589, 505.584 740.437, 507.520 743.464 C 516.861 758.066, 534.316 793.292, 540.489 810 C 543.029 816.875, 546.379 825.200, 547.932 828.500 C 556.882 847.512, 559.302 852.218, 562.638 857.101 C 569.207 866.713, 579.206 877.037, 586.942 882.193 C 591.099 884.963, 596.750 888.936, 599.500 891.021 C 602.250 893.106, 608.242 896.717, 612.815 899.044 C 619.439 902.415, 622.491 903.370, 627.815 903.737 C 634.088 904.170, 634.767 904.003, 638.837 901.030 C 641.553 899.045, 643.974 896.113, 645.316 893.181 C 647.304 888.839, 647.497 886.397, 647.980 859.500 L 648.500 830.500 651.908 824.215 C 663.934 802.036, 692.515 799.918, 711.702 819.783 C 714.564 822.745, 718.333 827.719, 720.078 830.835 C 721.824 833.951, 724.676 838.525, 726.416 841 C 728.157 843.475, 730.150 846.643, 730.846 848.039 C 731.542 849.435, 734.145 853.260, 736.629 856.539 C 739.114 859.818, 742.472 865.261, 744.092 868.635 C 745.711 872.010, 748.400 876.486, 750.065 878.582 C 751.731 880.679, 754.715 885.118, 756.696 888.447 C 758.676 891.776, 761.805 896.826, 763.648 899.669 C 765.492 902.513, 767 905.213, 767 905.669 C 766.999 906.611, 773.207 919.233, 774.048 920 C 774.349 920.275, 775.889 922.750, 777.470 925.500 C 779.051 928.250, 782.165 932.975, 784.391 936 C 786.617 939.025, 790.127 944.942, 792.190 949.150 C 794.254 953.357, 796.537 957.407, 797.264 958.150 C 797.991 958.892, 800.264 962.516, 802.316 966.203 C 804.367 969.890, 807.698 975.065, 809.717 977.703 C 811.736 980.341, 814.834 985.425, 816.601 989 C 818.368 992.575, 820.540 996.400, 821.428 997.500 C 824.533 1001.347, 840 1025.230, 840 1026.177 C 840 1026.984, 844.364 1033.400, 846 1035 C 846.281 1035.275, 847.846 1037.300, 849.477 1039.500 C 853.624 1045.092, 864.536 1056.677, 870.495 1061.814 C 873.248 1064.187, 878.875 1067.688, 883 1069.595 C 887.125 1071.501, 891.224 1073.462, 892.109 1073.951 C 893.637 1074.796, 924.015 1081.211, 932.500 1082.480 C 934.700 1082.809, 943.925 1083.718, 953 1084.500 C 962.075 1085.282, 973.100 1086.661, 977.500 1087.564 C 981.900 1088.468, 990.225 1089.410, 996 1089.659 C 1005.260 1090.057, 1006.877 1089.873, 1009.696 1088.103 C 1014.751 1084.927, 1016.382 1081.617, 1016.327 1074.639 C 1016.279 1068.530, 1014.825 1063.848, 1009.441 1052.467 C 1008.099 1049.629, 1006.999 1046.900, 1006.998 1046.404 C 1006.996 1045.907, 1004.852 1041.675, 1002.233 1037 C 999.614 1032.325, 995.971 1024.675, 994.137 1020 C 992.304 1015.325, 989.092 1007.900, 987 1003.500 C 984.907 999.100, 982.490 993.925, 981.628 992 C 980.767 990.075, 976.898 984, 973.032 978.500 C 969.166 973, 964.433 966.250, 962.515 963.500 C 960.597 960.750, 955.069 954.900, 950.232 950.500 C 945.394 946.100, 939.245 939.913, 936.568 936.750 C 933.891 933.588, 931.093 931, 930.351 931 C 929.608 931, 929 930.633, 929 930.184 C 929 928.861, 907.046 909.096, 897.139 901.500 C 892.118 897.650, 888.008 894.160, 888.005 893.743 C 888 892.916, 887.084 892.094, 876 882.973 C 871.875 879.579, 866.475 874.843, 864 872.449 C 858.804 867.423, 849.179 859.598, 843.757 855.990 C 841.698 854.621, 840.011 853.211, 840.007 852.857 C 840.003 852.503, 835.654 848.453, 830.343 843.857 C 825.032 839.261, 818.351 833.475, 815.497 831 C 805.017 821.911, 799.682 817.465, 797.499 816 C 796.269 815.175, 793.517 813.016, 791.382 811.203 C 789.247 809.390, 783.900 804.978, 779.500 801.400 C 775.100 797.821, 770.150 793.626, 768.500 792.077 C 766.850 790.528, 761.450 786.536, 756.500 783.206 C 751.550 779.876, 746.600 776.202, 745.500 775.042 C 741.248 770.558, 730.280 760.980, 725.500 757.577 C 723.300 756.011, 720.150 753.300, 718.500 751.553 C 716.850 749.806, 712.125 745.934, 708 742.947 C 703.875 739.961, 700.050 737.179, 699.500 736.766 C 695.289 733.600, 676.609 717.462, 671.991 713 C 669.998 711.075, 664.857 706.575, 660.565 703 C 656.274 699.425, 650.678 694.639, 648.131 692.364 C 645.584 690.090, 640.424 686.129, 636.665 683.563 C 632.906 680.997, 628.385 677.458, 626.619 675.699 C 621.448 670.550, 613.360 664.032, 607.195 660.048 C 604.043 658.011, 600.123 655.097, 598.482 653.573 C 596.842 652.049, 591.072 647.493, 585.660 643.449 C 580.249 639.405, 572.168 632.812, 567.703 628.798 C 559.606 621.519, 556.322 618.626, 538.988 603.500 C 533.946 599.100, 528.473 593.813, 526.826 591.750 C 525.179 589.688, 523.307 587.998, 522.666 587.995 C 522.025 587.993, 519.812 586.440, 517.749 584.546 C 515.687 582.651, 512.312 579.858, 510.249 578.338 C 508.187 576.819, 504.475 573.740, 502 571.496 C 499.525 569.252, 494.956 565.733, 491.847 563.676 C 488.738 561.618, 484.272 557.812, 481.922 555.217 C 479.573 552.623, 473.210 545.848, 467.782 540.162 C 462.354 534.476, 456.793 528.048, 455.423 525.878 C 452.670 521.518, 445.508 514, 444.106 514 C 443.058 514, 432.006 499.801, 431.987 498.431 C 431.980 497.919, 430.179 493.983, 427.984 489.685 C 420.306 474.647, 416.551 455.400, 418.973 443.500 C 422.093 428.169, 431.130 412.937, 441.493 405.543 C 450.924 398.812, 458.921 395.368, 468.383 393.960 C 475.730 392.867, 477.276 392.927, 482.082 394.489 C 488.781 396.667, 491.366 398.942, 492.879 403.989 C 494.763 410.279, 492.895 415.410, 485.681 423.762 C 468.986 443.089, 466.982 446.354, 466.255 455.406 C 465.598 463.598, 469.068 474.415, 475.883 485.412 C 480.907 493.519, 499.203 514, 501.421 514 C 502.110 514, 504.476 515.913, 506.678 518.250 C 511.259 523.113, 535.206 544.953, 545.250 553.429 C 548.962 556.562, 552 559.536, 552 560.039 C 552 560.541, 553.553 561.750, 555.452 562.726 C 557.350 563.702, 564.028 569.331, 570.290 575.235 C 576.553 581.140, 583.437 587.155, 585.589 588.604 C 587.740 590.052, 590.175 591.855, 591 592.609 C 591.825 593.364, 595.425 596.211, 599 598.936 C 602.575 601.661, 607.750 605.654, 610.500 607.810 C 613.250 609.965, 616.621 612.314, 617.992 613.029 C 619.362 613.744, 622.737 616.631, 625.492 619.445 C 630.641 624.705, 636.947 630.115, 645.222 636.373 C 647.819 638.337, 650.744 640.650, 651.722 641.513 C 652.700 642.377, 656.333 645.370, 659.796 648.167 C 663.259 650.963, 668 655.107, 670.332 657.375 C 672.664 659.644, 675.906 662.583, 677.536 663.906 C 680.651 666.434, 685.809 671.012, 695.388 679.750 C 698.553 682.638, 701.740 685, 702.469 685 C 703.884 685, 710.771 690.338, 719.901 698.512 C 727.250 705.091, 733.642 710, 734.861 710 C 735.399 710, 738.238 712.149, 741.169 714.775 C 744.101 717.401, 748.300 720.874, 750.500 722.494 C 752.700 724.114, 755.400 726.296, 756.500 727.343 C 757.600 728.389, 760.862 730.779, 763.750 732.654 C 766.638 734.528, 769 736.477, 769 736.985 C 769 737.493, 771.035 739.462, 773.522 741.361 C 776.009 743.260, 781.521 747.989, 785.772 751.870 C 790.022 755.751, 797.325 761.872, 802 765.472 C 806.675 769.072, 812.656 773.926, 815.292 776.259 C 817.927 778.591, 821.521 781.288, 823.277 782.250 C 825.033 783.213, 830.752 787.963, 835.985 792.806 C 845.046 801.191, 853.883 808, 855.703 808 C 856.166 808, 858.942 809.578, 861.870 811.506 C 868.013 815.552, 879.983 821.007, 882.668 820.985 C 886.490 820.953, 887.278 819.503, 886.808 813.362 C 886.474 809.002, 885.006 804.604, 881.077 796.197 C 875.526 784.318, 859.376 753.904, 858.149 753.017 C 857.755 752.733, 855.648 748.911, 853.467 744.524 C 851.285 740.137, 847.700 733.997, 845.500 730.880 C 843.300 727.764, 840.265 723.028, 838.755 720.357 C 837.245 717.686, 833.870 712.725, 831.255 709.334 C 824.169 700.144, 817.906 691.228, 814.182 685.026 C 812.357 681.986, 810.444 679.350, 809.932 679.167 C 809.419 678.983, 809 678.460, 809 678.005 C 809 676.591, 800.761 662.762, 796.784 657.500 C 794.705 654.750, 792.359 651.150, 791.570 649.500 C 790.781 647.850, 788.868 645.062, 787.318 643.305 C 779.816 634.799, 769.707 621.298, 767.203 616.438 C 766.087 614.272, 764.347 611.600, 763.335 610.500 C 762.324 609.400, 758.912 604.199, 755.754 598.942 C 752.595 593.686, 748.658 588.089, 747.005 586.505 C 745.352 584.922, 744 583.065, 744 582.379 C 744 581.693, 741.862 578.399, 739.250 575.059 C 736.638 571.719, 732.925 566.706, 731 563.920 C 729.075 561.133, 726.217 557.199, 724.649 555.177 C 723.081 553.155, 720.737 549.414, 719.441 546.865 C 718.144 544.316, 715.489 540.541, 713.542 538.475 C 711.594 536.410, 710 534.316, 710 533.822 C 710 532.648, 698.360 515.341, 697.009 514.505 C 696.437 514.152, 695.358 512.399, 694.610 510.609 C 693.862 508.819, 691.926 505.812, 690.308 503.927 C 688.691 502.042, 686.323 498.773, 685.048 496.663 C 683.772 494.552, 681.978 492.077, 681.059 491.163 C 677.790 487.907, 673.223 481.425, 670.728 476.500 C 669.335 473.750, 667 470.150, 665.539 468.500 C 664.078 466.850, 662.179 464.178, 661.319 462.563 C 660.459 460.947, 657.203 455.772, 654.085 451.063 C 650.966 446.353, 647.083 440.417, 645.457 437.872 C 639.094 427.913, 634.893 421.998, 630.936 417.426 C 628.666 414.803, 625.716 410.926, 624.380 408.809 C 623.043 406.693, 616.899 399.865, 610.725 393.637 C 604.551 387.408, 597.888 380.529, 595.919 378.348 C 593.949 376.168, 588.999 371.533, 584.919 368.048 C 580.838 364.562, 576.242 360.216, 574.705 358.389 C 573.167 356.562, 568.217 352.685, 563.705 349.774 C 553.391 343.121, 552.331 342.471, 547.783 340.007 C 545.739 338.900, 539.889 335.467, 534.783 332.380 C 529.678 329.292, 523.502 325.631, 521.060 324.244 C 518.618 322.858, 514.544 320.232, 512.007 318.409 C 507.038 314.840, 484.578 289.952, 482.159 285.334 C 480.193 281.581, 474.351 262.885, 471.275 250.500 C 468.902 240.945, 468.828 239.743, 469.624 223.500 C 470.082 214.150, 470.438 200.875, 470.415 194 C 470.377 182.806, 470.118 180.989, 467.936 176.614 C 464.517 169.756, 457.196 165.358, 446.996 164.034 C 439.008 162.998, 437.326 162.999, 401 164.052 M 411.500 202.604 C 408.139 203.428, 401.983 206.057, 391.181 211.282 L 380.862 216.273 372.681 215.742 C 365.657 215.286, 363.157 214.572, 355 210.692 C 345.002 205.937, 335.428 203, 329.921 203 C 328.112 203, 323.996 203.739, 320.775 204.643 C 315.834 206.030, 313.815 207.379, 307.848 213.287 C 300.159 220.901, 298 224.773, 298 230.948 C 298 237.322, 300.657 242.398, 307.123 248.373 C 312.501 253.343, 315.811 255.814, 329.696 265.225 C 335.790 269.355, 342.260 279.829, 347.858 294.625 C 356.579 317.675, 364.041 326, 375.983 326 C 380.541 326, 381.500 325.581, 385.612 321.790 C 391.198 316.641, 393.651 311.867, 398.348 297 C 400.347 290.675, 403.673 282.125, 405.741 278 L 409.500 270.500 419.621 265.408 C 445.593 252.340, 455.680 238.062, 448.880 223.988 C 446.222 218.486, 436.877 208.600, 431.175 205.257 C 427.965 203.376, 425.130 202.644, 420.175 202.418 C 416.504 202.251, 412.600 202.335, 411.500 202.604 M 426.961 713.461 C 419.274 717.643, 418.273 731.025, 419.852 808.500 C 421.071 868.319, 421.217 869.271, 431.185 882.150 C 434.552 886.500, 443.119 889.922, 458.360 893.005 C 476.540 896.683, 487.874 895.220, 497.992 887.891 C 505.424 882.507, 510.798 866.666, 508.981 855.500 C 507.973 849.305, 503.141 834.343, 499.777 827 C 498.391 823.975, 495.921 818.575, 494.288 815 C 492.656 811.425, 488.829 804.194, 485.785 798.931 C 482.740 793.668, 479.911 788.296, 479.498 786.993 C 479.084 785.691, 476.328 779.518, 473.373 773.276 C 470.418 767.035, 468 761.807, 468 761.658 C 468 761.510, 465.075 756.472, 461.500 750.462 C 457.925 744.452, 455 738.992, 455 738.328 C 455 737.665, 453.313 735.143, 451.250 732.725 C 449.188 730.307, 446.071 726.264, 444.325 723.741 C 441.695 719.942, 431.855 711.896, 430.013 712.040 C 429.731 712.062, 428.357 712.702, 426.961 713.461 M 438.975 938.091 C 432.099 938.835, 429.676 940.111, 424 945.978 C 417.636 952.557, 415.549 957.039, 407.921 980.500 C 405.060 989.300, 402.383 996.950, 401.971 997.500 C 400.241 999.810, 396.772 1016.909, 396.708 1023.437 C 396.614 1033.010, 399.493 1039.497, 406.676 1045.899 C 409.639 1048.540, 413.737 1051.202, 415.782 1051.814 C 435.236 1057.640, 460.388 1062.536, 489.451 1066.157 C 504.398 1068.018, 518.176 1063.806, 526.594 1054.802 C 536.681 1044.013, 540.982 1024.641, 540.983 990 C 540.984 963.884, 538.204 952.239, 530.228 944.943 C 523.377 938.676, 517.658 937.725, 495.500 939.168 C 481.980 940.049, 475.020 939.991, 461.500 938.885 C 452.150 938.120, 442.014 937.763, 438.975 938.091" stroke="none" fill="#828282" fill-rule="evenodd"/><path d="M -0 636.001 L -0 1272.002 624.250 1271.751 L 1248.500 1271.500 1248.751 635.750 L 1249.002 0 624.501 0 L 0 0 -0 636.001 M 0.497 636.500 C 0.497 986.300, 0.611 1129.251, 0.750 954.168 C 0.889 779.085, 0.889 492.885, 0.750 318.168 C 0.611 143.451, 0.497 286.700, 0.497 636.500 M 354 122 C 284.136 122.765, 286.832 122.542, 274.901 128.519 C 268.254 131.848, 263 135.712, 263 137.272 C 263 137.915, 260.569 140.930, 257.597 143.971 C 249.385 152.374, 240.883 170.259, 239.453 182.141 C 239.098 185.088, 237.300 193.125, 235.457 200 C 226.012 235.244, 224.809 244.221, 224.263 283.500 C 223.742 321.034, 224.337 325.684, 231.931 343.457 C 236.093 353.199, 238.455 360.809, 239.550 368 C 240.564 374.670, 244.229 383.758, 249.266 392.100 C 251.723 396.170, 254.532 401.075, 255.507 403 C 256.481 404.925, 257.674 406.756, 258.157 407.070 C 258.639 407.383, 260.283 410.533, 261.808 414.070 C 265.223 421.985, 268.841 428.659, 273.968 436.500 C 280.507 446.500, 284.696 454.237, 286.420 459.500 C 287.320 462.250, 289.247 466.750, 290.700 469.500 C 294.155 476.037, 304.953 492, 305.920 492 C 306.334 492, 307.923 494.587, 309.450 497.750 C 315.085 509.417, 317.091 512.886, 320.012 516.012 C 321.655 517.772, 323 519.580, 323 520.030 C 323 520.479, 325.362 524.724, 328.250 529.461 C 331.137 534.198, 334.625 540.228, 336 542.860 C 337.375 545.491, 341.762 552.196, 345.750 557.759 C 349.738 563.322, 353 568.351, 353 568.936 C 353 569.521, 353.395 570, 353.877 570 C 354.790 570, 359 579.032, 359 580.991 C 359 581.608, 360.989 586.699, 363.420 592.306 C 370.717 609.135, 370.993 610.860, 372.012 646 C 372.515 663.325, 373.378 686.950, 373.930 698.500 C 377.853 780.533, 379.042 820.584, 379.115 873.069 C 379.179 919.154, 379.072 922.171, 377.015 932.069 C 374.037 946.407, 369.051 963.571, 365.561 971.500 C 363.689 975.754, 360.490 986.300, 358.586 994.500 C 357.691 998.350, 354.775 1006, 352.105 1011.500 C 345.670 1024.756, 338.129 1032.413, 328.282 1035.692 C 325.652 1036.567, 323.050 1037.618, 322.500 1038.027 C 320.028 1039.866, 304.968 1041.082, 273 1042.025 C 237.503 1043.072, 201.584 1045.200, 187.500 1047.089 C 177.654 1048.410, 162.611 1053.018, 154.182 1057.295 C 147.038 1060.919, 138.139 1070.150, 135.970 1076.186 C 132.902 1084.721, 139.673 1093.162, 151.220 1095.195 C 157.831 1096.360, 165.211 1095.699, 187.630 1091.932 C 193.752 1090.904, 207.027 1089.387, 217.130 1088.560 C 227.234 1087.734, 239.775 1086.592, 245 1086.024 C 271.556 1083.133, 329.920 1083.083, 340.905 1085.942 C 342.882 1086.456, 351.700 1087.389, 360.500 1088.014 C 379.396 1089.357, 393.453 1091.643, 412.361 1096.447 C 419.968 1098.379, 431.211 1100.454, 437.346 1101.056 C 450.490 1102.347, 468.714 1105.255, 482 1108.181 C 505.880 1113.440, 509.380 1113.180, 534.218 1104.298 C 545.335 1100.322, 547.687 1099.070, 552.911 1094.342 C 559.247 1088.609, 566.770 1078.791, 571.206 1070.468 C 577.698 1058.286, 581.274 1030.891, 582.883 981 C 583.590 959.054, 583.673 958.399, 586.217 954.407 C 591.083 946.775, 597.826 946.223, 610.529 952.417 C 614.570 954.388, 618.467 956.002, 619.188 956.004 C 619.910 956.006, 621.924 956.876, 623.665 957.937 C 629.581 961.544, 640.025 964.162, 649 964.286 C 656.615 964.392, 658.124 964.088, 663.500 961.363 C 673.355 956.368, 678.642 948.127, 685.544 927 C 689.404 915.182, 694.376 905.939, 697.881 904.064 C 702.828 901.416, 712.029 904.680, 717.309 910.955 C 720.338 914.555, 743 948.636, 743 949.591 C 743 949.991, 744.758 952.647, 746.907 955.493 C 749.056 958.339, 753.180 965.130, 756.071 970.584 C 758.963 976.038, 761.612 980.725, 761.959 981 C 763.146 981.941, 767 989.113, 767 990.379 C 767 991.075, 769.245 994.903, 771.989 998.886 C 774.733 1002.869, 778.855 1009.587, 781.149 1013.814 C 783.442 1018.041, 785.615 1021.725, 785.977 1022 C 786.339 1022.275, 789.016 1026.550, 791.927 1031.500 C 800.055 1045.326, 803.446 1050.622, 808.798 1057.850 C 811.507 1061.507, 814.473 1065.964, 815.389 1067.753 C 817.579 1072.030, 839.247 1093.940, 845 1097.695 C 847.475 1099.310, 851.750 1101.469, 854.500 1102.493 C 857.250 1103.517, 862.701 1106.081, 866.613 1108.190 C 875.102 1112.768, 885.249 1116.335, 897.500 1119.047 C 902.450 1120.143, 907.850 1121.457, 909.500 1121.967 C 913.961 1123.344, 928.529 1125.817, 936.500 1126.549 C 947.145 1127.528, 984.150 1132.975, 985.400 1133.747 C 986.460 1134.403, 993.196 1136.311, 1020 1143.550 C 1036.406 1147.981, 1046.626 1148.223, 1056.078 1144.406 C 1064.832 1140.871, 1068.044 1138.212, 1072.405 1130.892 C 1079.271 1119.366, 1079.661 1102.063, 1073.441 1084.927 C 1067.777 1069.323, 1067.332 1059.909, 1071.979 1054 C 1078.868 1045.238, 1084 1032.652, 1084 1024.519 C 1084 1018.800, 1080.203 1006.476, 1077.133 1002.227 C 1073.090 996.633, 1056.413 980.424, 1049 974.884 C 1045.697 972.415, 1031.075 959.059, 1024.496 952.500 C 1017.940 945.964, 1010.692 937.274, 1008.232 933 C 1006.807 930.525, 1004.230 926.250, 1002.505 923.500 C 1000.779 920.750, 997.055 914.787, 994.228 910.248 C 991.401 905.710, 987.190 897.231, 984.870 891.407 C 982.550 885.582, 979.452 878.946, 977.986 876.659 C 964.839 856.146, 961.618 850.212, 958.960 841.605 C 957.885 838.124, 956.182 834.201, 955.177 832.888 C 954.172 831.575, 951.840 827.800, 949.996 824.500 C 948.151 821.200, 944.486 815.278, 941.851 811.340 C 939.216 807.401, 936.210 801.943, 935.172 799.209 C 934.133 796.476, 930.580 790.248, 927.276 785.370 C 918.252 772.046, 915.259 767.193, 912.936 762.113 C 908.052 751.438, 906.654 749.152, 896.323 734.956 C 892.903 730.256, 889.234 724.406, 888.170 721.956 C 887.105 719.505, 883.964 714.445, 881.189 710.711 C 878.415 706.978, 874.914 701.803, 873.409 699.211 C 871.904 696.620, 870.343 694.275, 869.939 694 C 869.535 693.725, 867.172 689.450, 864.688 684.500 C 859.259 673.681, 851.990 662.584, 846.437 656.638 C 845.852 656.012, 842.945 651.522, 839.977 646.660 C 837.009 641.798, 833.847 637.298, 832.951 636.660 C 832.055 636.022, 829.357 632.350, 826.956 628.500 C 824.555 624.650, 822.276 621.275, 821.894 621 C 821.511 620.725, 818.869 616, 816.022 610.500 C 810.598 600.018, 804.336 590.368, 799.834 585.553 C 798.367 583.984, 795.217 579.557, 792.834 575.715 C 790.450 571.873, 786.911 566.878, 784.968 564.615 C 783.025 562.352, 779.769 558.025, 777.732 555 C 775.695 551.975, 773.263 548.375, 772.328 547 C 771.393 545.625, 768.847 541.824, 766.672 538.553 C 764.496 535.282, 761.635 531.457, 760.315 530.053 C 758.995 528.649, 756.266 525.025, 754.251 522 C 752.236 518.975, 749.500 515.637, 748.172 514.582 C 746.844 513.527, 745.089 511.052, 744.273 509.082 C 742.254 504.212, 734.915 493.847, 725.247 482.212 C 724.007 480.720, 721.584 476.670, 719.862 473.212 C 718.139 469.754, 715.986 466.379, 715.076 465.712 C 713.667 464.680, 699.435 444.330, 696.536 439.204 C 695.590 437.530, 690.677 429.851, 679.773 413 C 676.748 408.325, 673.131 402.250, 671.736 399.500 C 670.341 396.750, 668.142 393.553, 666.849 392.396 C 665.557 391.238, 660.900 386.063, 656.500 380.896 C 652.100 375.728, 645.519 368.575, 641.875 365 C 638.231 361.425, 632.383 355.350, 628.880 351.500 C 625.376 347.650, 618.907 341.682, 614.505 338.237 C 610.102 334.793, 603.996 329.718, 600.936 326.961 C 597.875 324.204, 594.275 321.210, 592.936 320.307 C 586.470 315.949, 575.978 307.787, 575.282 306.573 C 574.434 305.095, 561.665 296.565, 556 293.692 C 545.433 288.333, 530.175 274.673, 524.509 265.500 C 516.378 252.337, 515.506 246.789, 513.984 198.500 C 513.412 180.350, 512.504 162.621, 511.966 159.103 C 510.549 149.838, 503.417 135.266, 498.415 131.417 C 486.499 122.246, 484.357 121.826, 448 121.532 C 431.775 121.401, 389.475 121.612, 354 122 M 401 164.052 C 388.075 164.427, 366.025 164.801, 352 164.884 C 321.771 165.063, 310.818 166.063, 299.735 169.658 C 290.497 172.654, 288.732 174.230, 284.132 183.585 C 280.267 191.446, 278.533 198.495, 276.527 214.500 C 274.730 228.836, 272.558 240.284, 270.462 246.465 C 267.543 255.071, 266.546 265.682, 266.608 287.500 C 266.683 314.180, 267.362 318.219, 276.182 344.500 C 279.958 355.750, 284.065 364.989, 291.076 378 C 292.706 381.025, 295.881 387.325, 298.132 392 C 310.652 418.004, 311.739 419.991, 318.722 429.656 C 328.461 443.135, 330.223 445.947, 334.608 455 C 337.139 460.225, 340.182 465.850, 341.370 467.500 C 342.558 469.150, 345.538 474.550, 347.993 479.500 C 350.448 484.450, 353.896 490.403, 355.655 492.730 C 357.413 495.056, 359.170 497.981, 359.558 499.230 C 360.334 501.728, 368.033 513.295, 369.285 513.845 C 369.717 514.035, 371.637 517.185, 373.551 520.845 C 375.466 524.505, 380.149 532.900, 383.958 539.500 C 387.767 546.100, 392.098 553.746, 393.581 556.491 C 395.065 559.237, 398.648 564.688, 401.545 568.604 C 404.442 572.521, 407.642 577.341, 408.656 579.315 C 409.670 581.290, 411.988 584.614, 413.806 586.702 C 417.374 590.801, 427.793 607.890, 432.984 618.157 C 434.747 621.646, 436.767 625.175, 437.472 626 C 438.177 626.825, 439.715 629.525, 440.890 632 C 442.065 634.475, 443.808 637.818, 444.763 639.428 C 445.719 641.038, 448.621 645.988, 451.213 650.428 C 455.763 658.219, 459.397 663.824, 461.513 666.310 C 463.046 668.111, 465.340 671.861, 468.969 678.500 C 470.773 681.800, 473.033 685.400, 473.992 686.500 C 474.951 687.600, 477.976 693.226, 480.716 699.002 C 483.456 704.778, 486.441 710.121, 487.349 710.874 C 488.257 711.628, 489 712.674, 489 713.198 C 489 714.373, 496.628 727.523, 498.868 730.210 C 499.765 731.287, 501.288 733.099, 502.250 734.237 C 503.212 735.375, 504 736.678, 504 737.134 C 504 737.589, 505.584 740.437, 507.520 743.464 C 516.861 758.066, 534.316 793.292, 540.489 810 C 543.029 816.875, 546.379 825.200, 547.932 828.500 C 556.882 847.512, 559.302 852.218, 562.638 857.101 C 569.207 866.713, 579.206 877.037, 586.942 882.193 C 591.099 884.963, 596.750 888.936, 599.500 891.021 C 602.250 893.106, 608.242 896.717, 612.815 899.044 C 619.439 902.415, 622.491 903.370, 627.815 903.737 C 634.088 904.170, 634.767 904.003, 638.837 901.030 C 641.553 899.045, 643.974 896.113, 645.316 893.181 C 647.304 888.839, 647.497 886.397, 647.980 859.500 L 648.500 830.500 651.908 824.215 C 663.934 802.036, 692.515 799.918, 711.702 819.783 C 714.564 822.745, 718.333 827.719, 720.078 830.835 C 721.824 833.951, 724.676 838.525, 726.416 841 C 728.157 843.475, 730.150 846.643, 730.846 848.039 C 731.542 849.435, 734.145 853.260, 736.629 856.539 C 739.114 859.818, 742.472 865.261, 744.092 868.635 C 745.711 872.010, 748.400 876.486, 750.065 878.582 C 751.731 880.679, 754.715 885.118, 756.696 888.447 C 758.676 891.776, 761.805 896.826, 763.648 899.669 C 765.492 902.513, 767 905.213, 767 905.669 C 766.999 906.611, 773.207 919.233, 774.048 920 C 774.349 920.275, 775.889 922.750, 777.470 925.500 C 779.051 928.250, 782.165 932.975, 784.391 936 C 786.617 939.025, 790.127 944.942, 792.190 949.150 C 794.254 953.357, 796.537 957.407, 797.264 958.150 C 797.991 958.892, 800.264 962.516, 802.316 966.203 C 804.367 969.890, 807.698 975.065, 809.717 977.703 C 811.736 980.341, 814.834 985.425, 816.601 989 C 818.368 992.575, 820.540 996.400, 821.428 997.500 C 824.533 1001.347, 840 1025.230, 840 1026.177 C 840 1026.984, 844.364 1033.400, 846 1035 C 846.281 1035.275, 847.846 1037.300, 849.477 1039.500 C 853.624 1045.092, 864.536 1056.677, 870.495 1061.814 C 873.248 1064.187, 878.875 1067.688, 883 1069.595 C 887.125 1071.501, 891.224 1073.462, 892.109 1073.951 C 893.637 1074.796, 924.015 1081.211, 932.500 1082.480 C 934.700 1082.809, 943.925 1083.718, 953 1084.500 C 962.075 1085.282, 973.100 1086.661, 977.500 1087.564 C 981.900 1088.468, 990.225 1089.410, 996 1089.659 C 1005.260 1090.057, 1006.877 1089.873, 1009.696 1088.103 C 1014.751 1084.927, 1016.382 1081.617, 1016.327 1074.639 C 1016.279 1068.530, 1014.825 1063.848, 1009.441 1052.467 C 1008.099 1049.629, 1006.999 1046.900, 1006.998 1046.404 C 1006.996 1045.907, 1004.852 1041.675, 1002.233 1037 C 999.614 1032.325, 995.971 1024.675, 994.137 1020 C 992.304 1015.325, 989.092 1007.900, 987 1003.500 C 984.907 999.100, 982.490 993.925, 981.628 992 C 980.767 990.075, 976.898 984, 973.032 978.500 C 969.166 973, 964.433 966.250, 962.515 963.500 C 960.597 960.750, 955.069 954.900, 950.232 950.500 C 945.394 946.100, 939.245 939.913, 936.568 936.750 C 933.891 933.588, 931.093 931, 930.351 931 C 929.608 931, 929 930.633, 929 930.184 C 929 928.861, 907.046 909.096, 897.139 901.500 C 892.118 897.650, 888.008 894.160, 888.005 893.743 C 888 892.916, 887.084 892.094, 876 882.973 C 871.875 879.579, 866.475 874.843, 864 872.449 C 858.804 867.423, 849.179 859.598, 843.757 855.990 C 841.698 854.621, 840.011 853.211, 840.007 852.857 C 840.003 852.503, 835.654 848.453, 830.343 843.857 C 825.032 839.261, 818.351 833.475, 815.497 831 C 805.017 821.911, 799.682 817.465, 797.499 816 C 796.269 815.175, 793.517 813.016, 791.382 811.203 C 789.247 809.390, 783.900 804.978, 779.500 801.400 C 775.100 797.821, 770.150 793.626, 768.500 792.077 C 766.850 790.528, 761.450 786.536, 756.500 783.206 C 751.550 779.876, 746.600 776.202, 745.500 775.042 C 741.248 770.558, 730.280 760.980, 725.500 757.577 C 723.300 756.011, 720.150 753.300, 718.500 751.553 C 716.850 749.806, 712.125 745.934, 708 742.947 C 703.875 739.961, 700.050 737.179, 699.500 736.766 C 695.289 733.600, 676.609 717.462, 671.991 713 C 669.998 711.075, 664.857 706.575, 660.565 703 C 656.274 699.425, 650.678 694.639, 648.131 692.364 C 645.584 690.090, 640.424 686.129, 636.665 683.563 C 632.906 680.997, 628.385 677.458, 626.619 675.699 C 621.448 670.550, 613.360 664.032, 607.195 660.048 C 604.043 658.011, 600.123 655.097, 598.482 653.573 C 596.842 652.049, 591.072 647.493, 585.660 643.449 C 580.249 639.405, 572.168 632.812, 567.703 628.798 C 559.606 621.519, 556.322 618.626, 538.988 603.500 C 533.946 599.100, 528.473 593.813, 526.826 591.750 C 525.179 589.688, 523.307 587.998, 522.666 587.995 C 522.025 587.993, 519.812 586.440, 517.749 584.546 C 515.687 582.651, 512.312 579.858, 510.249 578.338 C 508.187 576.819, 504.475 573.740, 502 571.496 C 499.525 569.252, 494.956 565.733, 491.847 563.676 C 488.738 561.618, 484.272 557.812, 481.922 555.217 C 479.573 552.623, 473.210 545.848, 467.782 540.162 C 462.354 534.476, 456.793 528.048, 455.423 525.878 C 452.670 521.518, 445.508 514, 444.106 514 C 443.058 514, 432.006 499.801, 431.987 498.431 C 431.980 497.919, 430.179 493.983, 427.984 489.685 C 420.306 474.647, 416.551 455.400, 418.973 443.500 C 422.093 428.169, 431.130 412.937, 441.493 405.543 C 450.924 398.812, 458.921 395.368, 468.383 393.960 C 475.730 392.867, 477.276 392.927, 482.082 394.489 C 488.781 396.667, 491.366 398.942, 492.879 403.989 C 494.763 410.279, 492.895 415.410, 485.681 423.762 C 468.986 443.089, 466.982 446.354, 466.255 455.406 C 465.598 463.598, 469.068 474.415, 475.883 485.412 C 480.907 493.519, 499.203 514, 501.421 514 C 502.110 514, 504.476 515.913, 506.678 518.250 C 511.259 523.113, 535.206 544.953, 545.250 553.429 C 548.962 556.562, 552 559.536, 552 560.039 C 552 560.541, 553.553 561.750, 555.452 562.726 C 557.350 563.702, 564.028 569.331, 570.290 575.235 C 576.553 581.140, 583.437 587.155, 585.589 588.604 C 587.740 590.052, 590.175 591.855, 591 592.609 C 591.825 593.364, 595.425 596.211, 599 598.936 C 602.575 601.661, 607.750 605.654, 610.500 607.810 C 613.250 609.965, 616.621 612.314, 617.992 613.029 C 619.362 613.744, 622.737 616.631, 625.492 619.445 C 630.641 624.705, 636.947 630.115, 645.222 636.373 C 647.819 638.337, 650.744 640.650, 651.722 641.513 C 652.700 642.377, 656.333 645.370, 659.796 648.167 C 663.259 650.963, 668 655.107, 670.332 657.375 C 672.664 659.644, 675.906 662.583, 677.536 663.906 C 680.651 666.434, 685.809 671.012, 695.388 679.750 C 698.553 682.638, 701.740 685, 702.469 685 C 703.884 685, 710.771 690.338, 719.901 698.512 C 727.250 705.091, 733.642 710, 734.861 710 C 735.399 710, 738.238 712.149, 741.169 714.775 C 744.101 717.401, 748.300 720.874, 750.500 722.494 C 752.700 724.114, 755.400 726.296, 756.500 727.343 C 757.600 728.389, 760.862 730.779, 763.750 732.654 C 766.638 734.528, 769 736.477, 769 736.985 C 769 737.493, 771.035 739.462, 773.522 741.361 C 776.009 743.260, 781.521 747.989, 785.772 751.870 C 790.022 755.751, 797.325 761.872, 802 765.472 C 806.675 769.072, 812.656 773.926, 815.292 776.259 C 817.927 778.591, 821.521 781.288, 823.277 782.250 C 825.033 783.213, 830.752 787.963, 835.985 792.806 C 845.046 801.191, 853.883 808, 855.703 808 C 856.166 808, 858.942 809.578, 861.870 811.506 C 868.013 815.552, 879.983 821.007, 882.668 820.985 C 886.490 820.953, 887.278 819.503, 886.808 813.362 C 886.474 809.002, 885.006 804.604, 881.077 796.197 C 875.526 784.318, 859.376 753.904, 858.149 753.017 C 857.755 752.733, 855.648 748.911, 853.467 744.524 C 851.285 740.137, 847.700 733.997, 845.500 730.880 C 843.300 727.764, 840.265 723.028, 838.755 720.357 C 837.245 717.686, 833.870 712.725, 831.255 709.334 C 824.169 700.144, 817.906 691.228, 814.182 685.026 C 812.357 681.986, 810.444 679.350, 809.932 679.167 C 809.419 678.983, 809 678.460, 809 678.005 C 809 676.591, 800.761 662.762, 796.784 657.500 C 794.705 654.750, 792.359 651.150, 791.570 649.500 C 790.781 647.850, 788.868 645.062, 787.318 643.305 C 779.816 634.799, 769.707 621.298, 767.203 616.438 C 766.087 614.272, 764.347 611.600, 763.335 610.500 C 762.324 609.400, 758.912 604.199, 755.754 598.942 C 752.595 593.686, 748.658 588.089, 747.005 586.505 C 745.352 584.922, 744 583.065, 744 582.379 C 744 581.693, 741.862 578.399, 739.250 575.059 C 736.638 571.719, 732.925 566.706, 731 563.920 C 729.075 561.133, 726.217 557.199, 724.649 555.177 C 723.081 553.155, 720.737 549.414, 719.441 546.865 C 718.144 544.316, 715.489 540.541, 713.542 538.475 C 711.594 536.410, 710 534.316, 710 533.822 C 710 532.648, 698.360 515.341, 697.009 514.505 C 696.437 514.152, 695.358 512.399, 694.610 510.609 C 693.862 508.819, 691.926 505.812, 690.308 503.927 C 688.691 502.042, 686.323 498.773, 685.048 496.663 C 683.772 494.552, 681.978 492.077, 681.059 491.163 C 677.790 487.907, 673.223 481.425, 670.728 476.500 C 669.335 473.750, 667 470.150, 665.539 468.500 C 664.078 466.850, 662.179 464.178, 661.319 462.563 C 660.459 460.947, 657.203 455.772, 654.085 451.063 C 650.966 446.353, 647.083 440.417, 645.457 437.872 C 639.094 427.913, 634.893 421.998, 630.936 417.426 C 628.666 414.803, 625.716 410.926, 624.380 408.809 C 623.043 406.693, 616.899 399.865, 610.725 393.637 C 604.551 387.408, 597.888 380.529, 595.919 378.348 C 593.949 376.168, 588.999 371.533, 584.919 368.048 C 580.838 364.562, 576.242 360.216, 574.705 358.389 C 573.167 356.562, 568.217 352.685, 563.705 349.774 C 553.391 343.121, 552.331 342.471, 547.783 340.007 C 545.739 338.900, 539.889 335.467, 534.783 332.380 C 529.678 329.292, 523.502 325.631, 521.060 324.244 C 518.618 322.858, 514.544 320.232, 512.007 318.409 C 507.038 314.840, 484.578 289.952, 482.159 285.334 C 480.193 281.581, 474.351 262.885, 471.275 250.500 C 468.902 240.945, 468.828 239.743, 469.624 223.500 C 470.082 214.150, 470.438 200.875, 470.415 194 C 470.377 182.806, 470.118 180.989, 467.936 176.614 C 464.517 169.756, 457.196 165.358, 446.996 164.034 C 439.008 162.998, 437.326 162.999, 401 164.052 M 411.500 202.604 C 408.139 203.428, 401.983 206.057, 391.181 211.282 L 380.862 216.273 372.681 215.742 C 365.657 215.286, 363.157 214.572, 355 210.692 C 345.002 205.937, 335.428 203, 329.921 203 C 328.112 203, 323.996 203.739, 320.775 204.643 C 315.834 206.030, 313.815 207.379, 307.848 213.287 C 300.159 220.901, 298 224.773, 298 230.948 C 298 237.322, 300.657 242.398, 307.123 248.373 C 312.501 253.343, 315.811 255.814, 329.696 265.225 C 335.790 269.355, 342.260 279.829, 347.858 294.625 C 356.579 317.675, 364.041 326, 375.983 326 C 380.541 326, 381.500 325.581, 385.612 321.790 C 391.198 316.641, 393.651 311.867, 398.348 297 C 400.347 290.675, 403.673 282.125, 405.741 278 L 409.500 270.500 419.621 265.408 C 445.593 252.340, 455.680 238.062, 448.880 223.988 C 446.222 218.486, 436.877 208.600, 431.175 205.257 C 427.965 203.376, 425.130 202.644, 420.175 202.418 C 416.504 202.251, 412.600 202.335, 411.500 202.604 M 426.961 713.461 C 419.274 717.643, 418.273 731.025, 419.852 808.500 C 421.071 868.319, 421.217 869.271, 431.185 882.150 C 434.552 886.500, 443.119 889.922, 458.360 893.005 C 476.540 896.683, 487.874 895.220, 497.992 887.891 C 505.424 882.507, 510.798 866.666, 508.981 855.500 C 507.973 849.305, 503.141 834.343, 499.777 827 C 498.391 823.975, 495.921 818.575, 494.288 815 C 492.656 811.425, 488.829 804.194, 485.785 798.931 C 482.740 793.668, 479.911 788.296, 479.498 786.993 C 479.084 785.691, 476.328 779.518, 473.373 773.276 C 470.418 767.035, 468 761.807, 468 761.658 C 468 761.510, 465.075 756.472, 461.500 750.462 C 457.925 744.452, 455 738.992, 455 738.328 C 455 737.665, 453.313 735.143, 451.250 732.725 C 449.188 730.307, 446.071 726.264, 444.325 723.741 C 441.695 719.942, 431.855 711.896, 430.013 712.040 C 429.731 712.062, 428.357 712.702, 426.961 713.461 M 438.975 938.091 C 432.099 938.835, 429.676 940.111, 424 945.978 C 417.636 952.557, 415.549 957.039, 407.921 980.500 C 405.060 989.300, 402.383 996.950, 401.971 997.500 C 400.241 999.810, 396.772 1016.909, 396.708 1023.437 C 396.614 1033.010, 399.493 1039.497, 406.676 1045.899 C 409.639 1048.540, 413.737 1051.202, 415.782 1051.814 C 435.236 1057.640, 460.388 1062.536, 489.451 1066.157 C 504.398 1068.018, 518.176 1063.806, 526.594 1054.802 C 536.681 1044.013, 540.982 1024.641, 540.983 990 C 540.984 963.884, 538.204 952.239, 530.228 944.943 C 523.377 938.676, 517.658 937.725, 495.500 939.168 C 481.980 940.049, 475.020 939.991, 461.500 938.885 C 452.150 938.120, 442.014 937.763, 438.975 938.091" stroke="none" fill="#f3f3f3" fill-rule="evenodd"/></svg>