<svg xmlns="http://www.w3.org/2000/svg" width="1272" height="762" viewBox="0 0 1272 762" version="1.1"><path d="M 295.698 391.383 C 286.779 394.707, 277.369 403.781, 262.197 423.687 C 252.271 436.712, 246.037 441.981, 237.525 444.543 C 233.930 445.625, 231.754 445.742, 229.003 445.001 C 220.427 442.692, 206.887 429.584, 195.690 412.751 C 191.395 406.294, 186.420 399.897, 184.635 398.535 C 175.792 391.790, 163.088 389.379, 152.546 392.444 C 144.742 394.712, 137.917 401.235, 131.740 412.328 C 129.146 416.986, 123.399 425.680, 118.969 431.649 C 114.491 437.682, 107.981 448.272, 104.308 455.500 C 100.675 462.650, 95.930 471.120, 93.764 474.322 C 81.935 491.816, 79.704 507.552, 87.705 517.061 C 91.227 521.247, 95.079 523, 100.755 523 C 107.577 523, 113.486 519.020, 119.538 510.349 C 122.167 506.582, 127.330 499.450, 131.011 494.500 C 134.692 489.550, 140.422 481.426, 143.745 476.448 C 150.801 465.875, 155.393 461.510, 161.071 459.981 C 169.417 457.734, 175.086 460.692, 184.685 472.303 C 196.610 486.729, 211.842 502.649, 217.250 506.341 C 227.124 513.081, 236.150 513.117, 249.705 506.469 C 259.084 501.869, 266.305 495.156, 274.074 483.812 C 287.641 464.004, 297.458 454.991, 305.446 455.009 C 314.187 455.030, 325.007 464.133, 337.096 481.639 C 345.951 494.462, 352.856 500.812, 363.926 506.313 C 371.348 510.001, 373.136 510.491, 378.926 510.425 C 386.899 510.334, 391.102 508.381, 402.633 499.405 C 411.209 492.729, 417.715 485.737, 427.767 472.392 C 437.308 459.724, 443.036 455.684, 451.620 455.569 C 455.594 455.515, 457.555 456.079, 460.376 458.085 C 465.698 461.868, 480.148 478.094, 487.769 488.844 C 496.826 501.620, 503.304 506.661, 514.500 509.644 C 531.043 514.052, 540.767 509.286, 557.573 488.530 C 572.383 470.241, 581.581 459.851, 584.708 457.880 C 586.937 456.474, 589.619 455.857, 593.502 455.857 C 602.516 455.857, 607.786 459.464, 617.953 472.588 C 628.427 486.109, 647.071 505.027, 652.747 507.893 C 661.924 512.527, 670.963 511.443, 682.759 504.293 C 691.511 498.989, 697.817 493.310, 706.177 483.205 C 715.184 472.318, 727.259 460.579, 731.543 458.547 C 742.054 453.559, 752.727 460.691, 770.656 484.680 C 776.746 492.829, 780.846 497.216, 785.423 500.482 C 799.059 510.213, 811.969 513.319, 821.414 509.141 C 831.445 504.704, 843.272 493.518, 857.718 474.805 C 869.438 459.623, 877.926 454.872, 887.675 458.037 C 892.240 459.519, 908.504 474.983, 919.715 488.500 C 933.132 504.676, 941.068 509.240, 956 509.366 C 969.538 509.479, 976.836 505.035, 987.800 490 C 994.808 480.390, 1009.416 465.415, 1014.210 462.926 C 1016.251 461.867, 1019.306 461, 1021 461 C 1028.548 461, 1039.579 470.486, 1047.248 483.573 C 1057.098 500.381, 1058.737 502.679, 1066.500 510.557 C 1079.644 523.897, 1090.198 527.739, 1099.994 522.750 C 1107.535 518.910, 1110.726 509.753, 1107.974 499.848 C 1107.416 497.839, 1104.645 492.664, 1101.816 488.348 C 1097.205 481.314, 1094.252 475.495, 1085.191 455.588 C 1083.711 452.337, 1079.575 445.503, 1076 440.401 C 1072.425 435.299, 1066.811 426.935, 1063.524 421.813 C 1051.710 403.404, 1038 393.040, 1024.304 392.168 C 1012.477 391.415, 1006.489 395.356, 989.615 415 C 985.127 420.225, 978.805 428.020, 975.566 432.322 C 968.235 442.061, 962.114 445.977, 954.200 445.991 C 951.286 445.996, 947.686 445.362, 946.200 444.582 C 943.021 442.913, 937.768 437.480, 932.587 430.500 C 930.545 427.750, 922.783 418.874, 915.337 410.774 C 900.670 394.820, 895.952 391.492, 886.399 390.361 C 880.241 389.632, 871.048 391.452, 864.706 394.656 C 858.808 397.636, 853.482 402.879, 839.975 419 C 820.357 442.415, 817.382 445.019, 810.300 444.978 C 801.724 444.928, 793.150 438.430, 781.959 423.500 C 773.391 412.069, 757.858 397.001, 750.881 393.352 C 746.302 390.958, 744.307 390.536, 737.500 390.519 C 730.726 390.503, 728.620 390.932, 723.760 393.319 C 715.017 397.612, 703.066 409.502, 694.495 422.434 C 683.339 439.267, 675.122 446, 665.736 446 C 657.437 446, 645.552 435.397, 630.989 415 C 620.265 399.981, 618.797 398.506, 610.479 394.393 C 597.981 388.214, 584.101 388.798, 574.276 395.915 C 572.023 397.547, 567.347 402.622, 563.885 407.191 C 551.830 423.104, 538.870 437.898, 534.381 440.871 C 529.006 444.431, 521.769 446.190, 516.965 445.102 C 510.659 443.674, 507.038 441.017, 500.941 433.345 C 493.611 424.122, 480.951 409.972, 471.500 400.441 C 463.269 392.140, 459.218 390.554, 447.813 391.169 C 439.122 391.638, 431.401 394.839, 424.976 400.635 C 422.620 402.761, 416.760 409.675, 411.953 416 C 400.622 430.909, 389.213 442.576, 383.487 445.109 C 379.798 446.740, 378.360 446.905, 375.202 446.055 C 366.651 443.752, 358.837 436.657, 348.160 421.500 C 340.408 410.496, 327.840 398.259, 319.995 394.078 C 312.476 390.070, 302.261 388.937, 295.698 391.383" stroke="none" fill="#7e7e7e" fill-rule="evenodd"/><path d="M 0 381.001 L 0 762.002 636.250 761.751 L 1272.500 761.500 1272.751 380.750 L 1273.003 0 636.501 0 L 0 0 0 381.001 M 0.495 381.500 C 0.495 591.050, 0.610 676.626, 0.750 571.669 C 0.890 466.711, 0.890 295.261, 0.750 190.669 C 0.610 86.076, 0.495 171.950, 0.495 381.500 M 295.698 391.383 C 286.779 394.707, 277.369 403.781, 262.197 423.687 C 252.271 436.712, 246.037 441.981, 237.525 444.543 C 233.930 445.625, 231.754 445.742, 229.003 445.001 C 220.427 442.692, 206.887 429.584, 195.690 412.751 C 191.395 406.294, 186.420 399.897, 184.635 398.535 C 175.792 391.790, 163.088 389.379, 152.546 392.444 C 144.742 394.712, 137.917 401.235, 131.740 412.328 C 129.146 416.986, 123.399 425.680, 118.969 431.649 C 114.491 437.682, 107.981 448.272, 104.308 455.500 C 100.675 462.650, 95.930 471.120, 93.764 474.322 C 81.935 491.816, 79.704 507.552, 87.705 517.061 C 91.227 521.247, 95.079 523, 100.755 523 C 107.577 523, 113.486 519.020, 119.538 510.349 C 122.167 506.582, 127.330 499.450, 131.011 494.500 C 134.692 489.550, 140.422 481.426, 143.745 476.448 C 150.801 465.875, 155.393 461.510, 161.071 459.981 C 169.417 457.734, 175.086 460.692, 184.685 472.303 C 196.610 486.729, 211.842 502.649, 217.250 506.341 C 227.124 513.081, 236.150 513.117, 249.705 506.469 C 259.084 501.869, 266.305 495.156, 274.074 483.812 C 287.641 464.004, 297.458 454.991, 305.446 455.009 C 314.187 455.030, 325.007 464.133, 337.096 481.639 C 345.951 494.462, 352.856 500.812, 363.926 506.313 C 371.348 510.001, 373.136 510.491, 378.926 510.425 C 386.899 510.334, 391.102 508.381, 402.633 499.405 C 411.209 492.729, 417.715 485.737, 427.767 472.392 C 437.308 459.724, 443.036 455.684, 451.620 455.569 C 455.594 455.515, 457.555 456.079, 460.376 458.085 C 465.698 461.868, 480.148 478.094, 487.769 488.844 C 496.826 501.620, 503.304 506.661, 514.500 509.644 C 531.043 514.052, 540.767 509.286, 557.573 488.530 C 572.383 470.241, 581.581 459.851, 584.708 457.880 C 586.937 456.474, 589.619 455.857, 593.502 455.857 C 602.516 455.857, 607.786 459.464, 617.953 472.588 C 628.427 486.109, 647.071 505.027, 652.747 507.893 C 661.924 512.527, 670.963 511.443, 682.759 504.293 C 691.511 498.989, 697.817 493.310, 706.177 483.205 C 715.184 472.318, 727.259 460.579, 731.543 458.547 C 742.054 453.559, 752.727 460.691, 770.656 484.680 C 776.746 492.829, 780.846 497.216, 785.423 500.482 C 799.059 510.213, 811.969 513.319, 821.414 509.141 C 831.445 504.704, 843.272 493.518, 857.718 474.805 C 869.438 459.623, 877.926 454.872, 887.675 458.037 C 892.240 459.519, 908.504 474.983, 919.715 488.500 C 933.132 504.676, 941.068 509.240, 956 509.366 C 969.538 509.479, 976.836 505.035, 987.800 490 C 994.808 480.390, 1009.416 465.415, 1014.210 462.926 C 1016.251 461.867, 1019.306 461, 1021 461 C 1028.548 461, 1039.579 470.486, 1047.248 483.573 C 1057.098 500.381, 1058.737 502.679, 1066.500 510.557 C 1079.644 523.897, 1090.198 527.739, 1099.994 522.750 C 1107.535 518.910, 1110.726 509.753, 1107.974 499.848 C 1107.416 497.839, 1104.645 492.664, 1101.816 488.348 C 1097.205 481.314, 1094.252 475.495, 1085.191 455.588 C 1083.711 452.337, 1079.575 445.503, 1076 440.401 C 1072.425 435.299, 1066.811 426.935, 1063.524 421.813 C 1051.710 403.404, 1038 393.040, 1024.304 392.168 C 1012.477 391.415, 1006.489 395.356, 989.615 415 C 985.127 420.225, 978.805 428.020, 975.566 432.322 C 968.235 442.061, 962.114 445.977, 954.200 445.991 C 951.286 445.996, 947.686 445.362, 946.200 444.582 C 943.021 442.913, 937.768 437.480, 932.587 430.500 C 930.545 427.750, 922.783 418.874, 915.337 410.774 C 900.670 394.820, 895.952 391.492, 886.399 390.361 C 880.241 389.632, 871.048 391.452, 864.706 394.656 C 858.808 397.636, 853.482 402.879, 839.975 419 C 820.357 442.415, 817.382 445.019, 810.300 444.978 C 801.724 444.928, 793.150 438.430, 781.959 423.500 C 773.391 412.069, 757.858 397.001, 750.881 393.352 C 746.302 390.958, 744.307 390.536, 737.500 390.519 C 730.726 390.503, 728.620 390.932, 723.760 393.319 C 715.017 397.612, 703.066 409.502, 694.495 422.434 C 683.339 439.267, 675.122 446, 665.736 446 C 657.437 446, 645.552 435.397, 630.989 415 C 620.265 399.981, 618.797 398.506, 610.479 394.393 C 597.981 388.214, 584.101 388.798, 574.276 395.915 C 572.023 397.547, 567.347 402.622, 563.885 407.191 C 551.830 423.104, 538.870 437.898, 534.381 440.871 C 529.006 444.431, 521.769 446.190, 516.965 445.102 C 510.659 443.674, 507.038 441.017, 500.941 433.345 C 493.611 424.122, 480.951 409.972, 471.500 400.441 C 463.269 392.140, 459.218 390.554, 447.813 391.169 C 439.122 391.638, 431.401 394.839, 424.976 400.635 C 422.620 402.761, 416.760 409.675, 411.953 416 C 400.622 430.909, 389.213 442.576, 383.487 445.109 C 379.798 446.740, 378.360 446.905, 375.202 446.055 C 366.651 443.752, 358.837 436.657, 348.160 421.500 C 340.408 410.496, 327.840 398.259, 319.995 394.078 C 312.476 390.070, 302.261 388.937, 295.698 391.383" stroke="none" fill="#f8f8f8" fill-rule="evenodd"/></svg>