<svg xmlns="http://www.w3.org/2000/svg" width="1224" height="1212" viewBox="0 0 1224 1212" version="1.1"><path d="M 438.161 93.199 C 429.925 94.108, 423.643 96.243, 416.379 100.605 C 409.068 104.994, 405.529 108.301, 402.324 113.736 C 396.231 124.070, 396.596 113.970, 396.239 282 C 396.014 387.528, 396.248 438.156, 396.988 444 C 399.024 460.072, 406.526 470.358, 421.393 477.455 C 425.302 479.322, 431.170 481.333, 434.434 481.924 C 438.462 482.655, 479.886 482.994, 563.434 482.983 C 698.799 482.964, 694.298 483.156, 706.784 476.844 C 718.451 470.945, 725.861 461.529, 728.018 449.863 C 728.689 446.233, 728.944 389.317, 728.768 282.907 L 728.500 121.457 725.250 114.856 C 723.412 111.123, 720.081 106.486, 717.584 104.184 C 712.490 99.488, 703.144 94.494, 697.438 93.419 C 692.415 92.472, 446.640 92.264, 438.161 93.199 M 468.871 133.017 C 458.102 134.837, 449.403 141.608, 446.804 150.193 C 445.760 153.640, 445.500 180.953, 445.500 287 L 445.500 419.500 448.186 425.232 C 451.282 431.837, 456.741 435.960, 465.312 438.165 C 472.847 440.104, 655.111 440.126, 662.500 438.189 C 669.975 436.230, 674.557 432.601, 677.739 426.121 L 680.500 420.500 680.785 291 C 680.989 198.161, 680.750 159.581, 679.940 154.720 C 677.828 142.056, 670.697 135.155, 657.485 132.992 C 650.348 131.823, 475.798 131.847, 468.871 133.017 M 691.994 947.875 C 684.004 950.495, 669.565 963.165, 658.233 977.500 C 649.478 988.575, 645.854 992.071, 640.500 994.610 C 629.596 999.780, 624.179 997.353, 608.230 980.151 C 588.748 959.139, 585.434 956.098, 578.465 952.837 C 569.638 948.706, 562.252 948.121, 553.292 950.843 C 544.537 953.502, 537.010 959.667, 520.712 977.527 C 506.469 993.134, 502.607 996, 495.810 996 C 488.815 996, 484.191 993.212, 476.362 984.273 C 465.628 972.017, 448.300 955.604, 442.176 951.893 C 437.029 948.774, 435.929 948.502, 428.539 948.521 C 421.498 948.539, 419.749 948.932, 414.448 951.685 C 404.843 956.674, 398.663 962.209, 388.663 974.777 C 374.877 992.103, 368.688 997.031, 360.782 996.978 C 352.579 996.923, 342.766 989.133, 330.429 972.883 C 321.818 961.540, 317.332 957.492, 307.659 952.336 C 301.089 948.834, 299.842 948.519, 292.500 948.510 C 286.060 948.502, 283.548 948.969, 279.617 950.904 C 274.451 953.446, 260.048 967.123, 246.704 982.156 C 235.056 995.278, 226.643 998.506, 216.732 993.657 C 211.413 991.055, 204.610 984.497, 186.406 964.425 C 176.381 953.371, 171.604 950.694, 161 950.185 C 147.193 949.522, 137.572 954.969, 127.566 969.112 C 124.302 973.726, 118.304 981.901, 114.236 987.279 C 110.168 992.658, 103.993 1002.146, 100.513 1008.363 C 97.034 1014.581, 92.632 1022.106, 90.730 1025.084 C 84.293 1035.170, 81.754 1041.191, 81.240 1047.593 C 80.571 1055.938, 82.908 1062.781, 88 1067.381 C 92.970 1071.871, 97.595 1072.787, 103.793 1070.509 C 110.102 1068.189, 128.188 1049.927, 136.978 1037 C 148.111 1020.628, 154.631 1015.076, 162.790 1015.022 C 169.691 1014.976, 174.800 1019.344, 198.852 1045.857 C 209.746 1057.866, 212.796 1059.486, 224.500 1059.484 C 232.416 1059.483, 234.222 1059.130, 239.500 1056.555 C 246.412 1053.182, 253.456 1046.864, 262.982 1035.495 C 272.144 1024.562, 281.456 1015.486, 285.466 1013.583 C 294.033 1009.518, 302.468 1013.245, 314.270 1026.311 C 328.049 1041.567, 333.571 1046.760, 341.549 1051.968 C 352.222 1058.936, 359.888 1060.633, 368.101 1057.847 C 377.666 1054.601, 393.059 1041.581, 408.133 1023.985 C 415.756 1015.086, 420.768 1011.767, 427.414 1011.216 C 431.082 1010.911, 433.816 1011.294, 436.256 1012.451 C 440.787 1014.601, 450.947 1025.002, 459.853 1036.607 C 469.907 1049.707, 478.442 1055.465, 491.590 1058.016 C 499.332 1059.518, 507.788 1057.576, 515.330 1052.566 C 520.581 1049.077, 535.851 1033.899, 546.188 1021.893 C 552.574 1014.476, 557.445 1011.660, 563.725 1011.755 C 571.670 1011.875, 575.861 1014.985, 595.247 1035.148 C 610.491 1051.003, 614.502 1054.614, 619.723 1057.185 C 625.455 1060.006, 626.607 1060.222, 633.734 1059.809 C 647.550 1059.007, 655.679 1053.569, 668.295 1036.688 C 676.743 1025.385, 684.800 1017.217, 690.437 1014.241 C 692.122 1013.351, 695.794 1012.612, 698.598 1012.598 C 705.650 1012.561, 713.328 1017.311, 721.880 1027 C 733.616 1040.296, 742.532 1048.739, 749.596 1053.246 C 759.334 1059.460, 761.883 1060.289, 769.857 1059.838 C 775.761 1059.505, 777.522 1058.932, 782.125 1055.848 C 789.518 1050.895, 798.988 1041.460, 809.076 1029 C 818.315 1017.588, 824.999 1012.573, 832.461 1011.454 C 840.969 1010.178, 847.713 1015.046, 864.635 1034.677 C 877.336 1049.413, 879.887 1051.657, 888.542 1055.710 C 893.678 1058.115, 895.741 1058.500, 903.500 1058.500 C 916.245 1058.500, 919.271 1056.621, 937.641 1037.301 C 945.675 1028.852, 954.208 1020.790, 956.604 1019.386 C 961.299 1016.635, 967.423 1016.051, 972.242 1017.895 C 977.172 1019.782, 984.126 1027.289, 991.689 1038.887 C 1000.503 1052.406, 1013.925 1066.408, 1021.983 1070.491 C 1026.343 1072.701, 1028.341 1073.136, 1032.523 1072.790 C 1042.634 1071.951, 1048.313 1064.401, 1048.234 1051.900 C 1048.185 1044.023, 1045.294 1036.740, 1037.883 1025.828 C 1035.524 1022.354, 1030.793 1014.433, 1027.369 1008.225 C 1021.711 997.965, 1015.798 989.095, 1001.702 969.723 C 992.455 957.015, 982.362 950.927, 969.352 950.209 C 955.066 949.421, 951.015 952.248, 925.795 980.603 C 919.086 988.145, 912.668 994.404, 910.669 995.353 C 905.677 997.721, 898.341 997.444, 893.501 994.703 C 891.218 993.409, 885.783 987.948, 880.829 981.969 C 869.927 968.809, 854.653 954.234, 847.772 950.421 C 843.106 947.836, 841.523 947.500, 834 947.500 C 826.744 947.500, 824.678 947.904, 819.879 950.261 C 811.804 954.226, 805.881 959.870, 798.260 970.859 C 786.178 988.279, 775.990 997.015, 767.783 996.990 C 759.525 996.966, 747.930 988.302, 737.014 974 C 729.339 963.943, 719.213 954.641, 711.952 950.976 C 705.649 947.794, 696.551 946.381, 691.994 947.875" stroke="none" fill="#898989" fill-rule="evenodd"/><path d="M -0 606.001 L -0 1212.002 612.250 1211.751 L 1224.500 1211.500 1224.751 605.750 L 1225.002 0 612.501 0 L 0 0 -0 606.001 M 0.497 606.500 C 0.497 939.800, 0.611 1076.001, 0.750 909.168 C 0.889 742.335, 0.889 469.635, 0.750 303.168 C 0.611 136.701, 0.497 273.200, 0.497 606.500 M 438.161 93.199 C 429.925 94.108, 423.643 96.243, 416.379 100.605 C 409.068 104.994, 405.529 108.301, 402.324 113.736 C 396.231 124.070, 396.596 113.970, 396.239 282 C 396.014 387.528, 396.248 438.156, 396.988 444 C 399.024 460.072, 406.526 470.358, 421.393 477.455 C 425.302 479.322, 431.170 481.333, 434.434 481.924 C 438.462 482.655, 479.886 482.994, 563.434 482.983 C 698.799 482.964, 694.298 483.156, 706.784 476.844 C 718.451 470.945, 725.861 461.529, 728.018 449.863 C 728.689 446.233, 728.944 389.317, 728.768 282.907 L 728.500 121.457 725.250 114.856 C 723.412 111.123, 720.081 106.486, 717.584 104.184 C 712.490 99.488, 703.144 94.494, 697.438 93.419 C 692.415 92.472, 446.640 92.264, 438.161 93.199 M 468.871 133.017 C 458.102 134.837, 449.403 141.608, 446.804 150.193 C 445.760 153.640, 445.500 180.953, 445.500 287 L 445.500 419.500 448.186 425.232 C 451.282 431.837, 456.741 435.960, 465.312 438.165 C 472.847 440.104, 655.111 440.126, 662.500 438.189 C 669.975 436.230, 674.557 432.601, 677.739 426.121 L 680.500 420.500 680.785 291 C 680.989 198.161, 680.750 159.581, 679.940 154.720 C 677.828 142.056, 670.697 135.155, 657.485 132.992 C 650.348 131.823, 475.798 131.847, 468.871 133.017 M 691.994 947.875 C 684.004 950.495, 669.565 963.165, 658.233 977.500 C 649.478 988.575, 645.854 992.071, 640.500 994.610 C 629.596 999.780, 624.179 997.353, 608.230 980.151 C 588.748 959.139, 585.434 956.098, 578.465 952.837 C 569.638 948.706, 562.252 948.121, 553.292 950.843 C 544.537 953.502, 537.010 959.667, 520.712 977.527 C 506.469 993.134, 502.607 996, 495.810 996 C 488.815 996, 484.191 993.212, 476.362 984.273 C 465.628 972.017, 448.300 955.604, 442.176 951.893 C 437.029 948.774, 435.929 948.502, 428.539 948.521 C 421.498 948.539, 419.749 948.932, 414.448 951.685 C 404.843 956.674, 398.663 962.209, 388.663 974.777 C 374.877 992.103, 368.688 997.031, 360.782 996.978 C 352.579 996.923, 342.766 989.133, 330.429 972.883 C 321.818 961.540, 317.332 957.492, 307.659 952.336 C 301.089 948.834, 299.842 948.519, 292.500 948.510 C 286.060 948.502, 283.548 948.969, 279.617 950.904 C 274.451 953.446, 260.048 967.123, 246.704 982.156 C 235.056 995.278, 226.643 998.506, 216.732 993.657 C 211.413 991.055, 204.610 984.497, 186.406 964.425 C 176.381 953.371, 171.604 950.694, 161 950.185 C 147.193 949.522, 137.572 954.969, 127.566 969.112 C 124.302 973.726, 118.304 981.901, 114.236 987.279 C 110.168 992.658, 103.993 1002.146, 100.513 1008.363 C 97.034 1014.581, 92.632 1022.106, 90.730 1025.084 C 84.293 1035.170, 81.754 1041.191, 81.240 1047.593 C 80.571 1055.938, 82.908 1062.781, 88 1067.381 C 92.970 1071.871, 97.595 1072.787, 103.793 1070.509 C 110.102 1068.189, 128.188 1049.927, 136.978 1037 C 148.111 1020.628, 154.631 1015.076, 162.790 1015.022 C 169.691 1014.976, 174.800 1019.344, 198.852 1045.857 C 209.746 1057.866, 212.796 1059.486, 224.500 1059.484 C 232.416 1059.483, 234.222 1059.130, 239.500 1056.555 C 246.412 1053.182, 253.456 1046.864, 262.982 1035.495 C 272.144 1024.562, 281.456 1015.486, 285.466 1013.583 C 294.033 1009.518, 302.468 1013.245, 314.270 1026.311 C 328.049 1041.567, 333.571 1046.760, 341.549 1051.968 C 352.222 1058.936, 359.888 1060.633, 368.101 1057.847 C 377.666 1054.601, 393.059 1041.581, 408.133 1023.985 C 415.756 1015.086, 420.768 1011.767, 427.414 1011.216 C 431.082 1010.911, 433.816 1011.294, 436.256 1012.451 C 440.787 1014.601, 450.947 1025.002, 459.853 1036.607 C 469.907 1049.707, 478.442 1055.465, 491.590 1058.016 C 499.332 1059.518, 507.788 1057.576, 515.330 1052.566 C 520.581 1049.077, 535.851 1033.899, 546.188 1021.893 C 552.574 1014.476, 557.445 1011.660, 563.725 1011.755 C 571.670 1011.875, 575.861 1014.985, 595.247 1035.148 C 610.491 1051.003, 614.502 1054.614, 619.723 1057.185 C 625.455 1060.006, 626.607 1060.222, 633.734 1059.809 C 647.550 1059.007, 655.679 1053.569, 668.295 1036.688 C 676.743 1025.385, 684.800 1017.217, 690.437 1014.241 C 692.122 1013.351, 695.794 1012.612, 698.598 1012.598 C 705.650 1012.561, 713.328 1017.311, 721.880 1027 C 733.616 1040.296, 742.532 1048.739, 749.596 1053.246 C 759.334 1059.460, 761.883 1060.289, 769.857 1059.838 C 775.761 1059.505, 777.522 1058.932, 782.125 1055.848 C 789.518 1050.895, 798.988 1041.460, 809.076 1029 C 818.315 1017.588, 824.999 1012.573, 832.461 1011.454 C 840.969 1010.178, 847.713 1015.046, 864.635 1034.677 C 877.336 1049.413, 879.887 1051.657, 888.542 1055.710 C 893.678 1058.115, 895.741 1058.500, 903.500 1058.500 C 916.245 1058.500, 919.271 1056.621, 937.641 1037.301 C 945.675 1028.852, 954.208 1020.790, 956.604 1019.386 C 961.299 1016.635, 967.423 1016.051, 972.242 1017.895 C 977.172 1019.782, 984.126 1027.289, 991.689 1038.887 C 1000.503 1052.406, 1013.925 1066.408, 1021.983 1070.491 C 1026.343 1072.701, 1028.341 1073.136, 1032.523 1072.790 C 1042.634 1071.951, 1048.313 1064.401, 1048.234 1051.900 C 1048.185 1044.023, 1045.294 1036.740, 1037.883 1025.828 C 1035.524 1022.354, 1030.793 1014.433, 1027.369 1008.225 C 1021.711 997.965, 1015.798 989.095, 1001.702 969.723 C 992.455 957.015, 982.362 950.927, 969.352 950.209 C 955.066 949.421, 951.015 952.248, 925.795 980.603 C 919.086 988.145, 912.668 994.404, 910.669 995.353 C 905.677 997.721, 898.341 997.444, 893.501 994.703 C 891.218 993.409, 885.783 987.948, 880.829 981.969 C 869.927 968.809, 854.653 954.234, 847.772 950.421 C 843.106 947.836, 841.523 947.500, 834 947.500 C 826.744 947.500, 824.678 947.904, 819.879 950.261 C 811.804 954.226, 805.881 959.870, 798.260 970.859 C 786.178 988.279, 775.990 997.015, 767.783 996.990 C 759.525 996.966, 747.930 988.302, 737.014 974 C 729.339 963.943, 719.213 954.641, 711.952 950.976 C 705.649 947.794, 696.551 946.381, 691.994 947.875" stroke="none" fill="#f8f8f8" fill-rule="evenodd"/></svg>