<svg xmlns="http://www.w3.org/2000/svg" width="1080" height="1272" viewBox="0 0 1080 1272" version="1.1"><path d="M 169.889 102.038 C 154.366 103.435, 144.189 106.965, 138.086 113.067 C 134.117 117.037, 132.440 120.289, 130.281 128.200 C 128.689 134.035, 128.539 148.746, 128.241 327.500 C 128.017 461.745, 128.246 522.479, 128.993 527 C 131.241 540.610, 138.160 550.090, 150.706 556.751 C 163.778 563.691, 158.978 563.375, 257 563.743 C 317.196 563.968, 347.736 563.728, 352.492 562.991 C 366.586 560.806, 373.045 553.846, 373.721 540.117 C 374.044 533.555, 373.776 531.950, 371.783 528.530 C 369.239 524.163, 364.685 520.670, 359.118 518.816 C 356.475 517.936, 333.932 517.461, 275.500 517.055 C 195.624 516.501, 195.491 516.497, 189.533 514.250 C 182.103 511.447, 177.198 507.571, 174.128 502.076 C 172.193 498.611, 171.584 495.501, 170.819 485.165 C 170.270 477.745, 170.037 407.892, 170.255 316.500 C 170.553 192.106, 170.891 159.692, 171.927 156.512 C 174.736 147.886, 182.905 143.531, 199.240 141.950 C 211.831 140.732, 891.806 140.752, 903.395 141.971 C 919.286 143.643, 927.394 149.649, 930.194 161.823 C 931.240 166.370, 931.500 200.133, 931.500 331.500 L 931.500 495.500 929.162 500.247 C 926.247 506.167, 920.341 511.305, 913.079 514.238 L 907.500 516.491 828.500 517.045 C 776.057 517.412, 748.472 517.960, 746.442 518.674 C 734.810 522.767, 730 529.150, 730 540.490 C 730 553.484, 736.700 560.610, 751.117 562.949 C 755.163 563.606, 789.049 563.988, 843.662 563.992 C 938.414 564.001, 939.544 563.938, 951.665 557.986 C 964.198 551.831, 971.762 542.334, 974.529 529.280 C 976.732 518.883, 976.707 151.318, 974.503 138.676 C 972.380 126.504, 969.615 119.817, 964.552 114.607 C 959.361 109.266, 954.398 106.607, 944.169 103.688 L 936.500 101.500 557.500 101.382 C 349.050 101.317, 174.625 101.612, 169.889 102.038 M 531.047 663.255 C 526.229 664.861, 520.355 671.069, 518.803 676.197 C 517.750 679.674, 517.500 721.191, 517.500 892.500 L 517.500 1104.500 519.718 1111.500 C 523.949 1124.854, 529.810 1130.015, 540.710 1129.984 C 551.249 1129.954, 557.725 1123.945, 561.710 1110.500 C 563.385 1104.847, 563.505 1092.425, 563.777 896 C 563.985 745.778, 563.754 685.623, 562.948 680.783 C 561.614 672.768, 558.003 667.198, 552.366 664.461 C 547.761 662.225, 536.115 661.566, 531.047 663.255" stroke="none" fill="#818181" fill-rule="evenodd"/><path d="M 0 636.001 L 0 1272.002 540.250 1271.751 L 1080.500 1271.500 1080.751 635.750 L 1081.002 0 540.501 0 L 0 0 0 636.001 M 0.497 636.500 C 0.497 986.300, 0.611 1129.251, 0.750 954.168 C 0.889 779.085, 0.889 492.885, 0.750 318.168 C 0.611 143.451, 0.497 286.700, 0.497 636.500 M 169.889 102.038 C 154.366 103.435, 144.189 106.965, 138.086 113.067 C 134.117 117.037, 132.440 120.289, 130.281 128.200 C 128.689 134.035, 128.539 148.746, 128.241 327.500 C 128.017 461.745, 128.246 522.479, 128.993 527 C 131.241 540.610, 138.160 550.090, 150.706 556.751 C 163.778 563.691, 158.978 563.375, 257 563.743 C 317.196 563.968, 347.736 563.728, 352.492 562.991 C 366.586 560.806, 373.045 553.846, 373.721 540.117 C 374.044 533.555, 373.776 531.950, 371.783 528.530 C 369.239 524.163, 364.685 520.670, 359.118 518.816 C 356.475 517.936, 333.932 517.461, 275.500 517.055 C 195.624 516.501, 195.491 516.497, 189.533 514.250 C 182.103 511.447, 177.198 507.571, 174.128 502.076 C 172.193 498.611, 171.584 495.501, 170.819 485.165 C 170.270 477.745, 170.037 407.892, 170.255 316.500 C 170.553 192.106, 170.891 159.692, 171.927 156.512 C 174.736 147.886, 182.905 143.531, 199.240 141.950 C 211.831 140.732, 891.806 140.752, 903.395 141.971 C 919.286 143.643, 927.394 149.649, 930.194 161.823 C 931.240 166.370, 931.500 200.133, 931.500 331.500 L 931.500 495.500 929.162 500.247 C 926.247 506.167, 920.341 511.305, 913.079 514.238 L 907.500 516.491 828.500 517.045 C 776.057 517.412, 748.472 517.960, 746.442 518.674 C 734.810 522.767, 730 529.150, 730 540.490 C 730 553.484, 736.700 560.610, 751.117 562.949 C 755.163 563.606, 789.049 563.988, 843.662 563.992 C 938.414 564.001, 939.544 563.938, 951.665 557.986 C 964.198 551.831, 971.762 542.334, 974.529 529.280 C 976.732 518.883, 976.707 151.318, 974.503 138.676 C 972.380 126.504, 969.615 119.817, 964.552 114.607 C 959.361 109.266, 954.398 106.607, 944.169 103.688 L 936.500 101.500 557.500 101.382 C 349.050 101.317, 174.625 101.612, 169.889 102.038 M 531.047 663.255 C 526.229 664.861, 520.355 671.069, 518.803 676.197 C 517.750 679.674, 517.500 721.191, 517.500 892.500 L 517.500 1104.500 519.718 1111.500 C 523.949 1124.854, 529.810 1130.015, 540.710 1129.984 C 551.249 1129.954, 557.725 1123.945, 561.710 1110.500 C 563.385 1104.847, 563.505 1092.425, 563.777 896 C 563.985 745.778, 563.754 685.623, 562.948 680.783 C 561.614 672.768, 558.003 667.198, 552.366 664.461 C 547.761 662.225, 536.115 661.566, 531.047 663.255" stroke="none" fill="#f8f8f8" fill-rule="evenodd"/></svg>