<svg xmlns="http://www.w3.org/2000/svg" width="1272" height="819" viewBox="0 0 1272 819" version="1.1"><path d="M 359.500 97.096 C 323.130 98.705, 301.201 100.065, 289 101.469 C 282.125 102.260, 268.400 103.620, 258.500 104.490 C 234.424 106.608, 224.443 108.285, 211.188 112.441 C 205.070 114.359, 193.862 117.092, 186.282 118.515 C 171.333 121.319, 162.070 123.992, 154.944 127.558 C 152.438 128.811, 143.694 132.158, 135.513 134.995 C 127.332 137.832, 118.132 141.406, 115.069 142.937 C 112.006 144.467, 105.120 147.629, 99.766 149.962 C 84.799 156.484, 78.820 163.903, 80.582 173.765 C 82.026 181.845, 97.052 192.248, 118.500 200.016 C 123.450 201.809, 131.775 205.407, 137 208.011 C 148.175 213.581, 156.261 216.576, 176.113 222.500 C 196.780 228.668, 256.897 240.320, 281.500 242.927 C 297.853 244.660, 381.648 246.202, 422.500 245.521 C 491.650 244.369, 506.789 243.160, 535 236.536 C 540.775 235.180, 551.800 232.928, 559.500 231.530 C 567.200 230.133, 577.163 228.320, 581.641 227.502 C 590.963 225.799, 628.199 213.757, 638.222 209.204 C 641.919 207.525, 650.687 204.270, 657.706 201.972 C 683.833 193.416, 696.520 184.435, 697.738 173.635 C 698.918 163.167, 690.355 154.504, 672.271 147.871 C 669.097 146.707, 660.875 143.155, 654 139.979 C 637.312 132.269, 614.890 124.663, 599.262 121.411 C 592.243 119.950, 580.200 116.770, 572.500 114.344 C 554.515 108.677, 538.056 105.422, 520.500 104.059 C 512.800 103.462, 500.425 102.323, 493 101.529 C 485.575 100.735, 469.825 99.576, 458 98.954 C 446.175 98.331, 429.975 97.439, 422 96.971 C 404.808 95.961, 384.208 96.003, 359.500 97.096 M 956.100 99.480 C 945.761 101.831, 934.639 105.846, 929.390 109.123 C 926.700 110.802, 920.450 116.168, 915.500 121.047 C 910.550 125.927, 904.827 130.612, 902.782 131.459 C 897.830 133.511, 892.071 133.378, 883 131 C 872.756 128.315, 866.187 128.393, 861.990 131.250 C 854.815 136.133, 852.429 143.486, 854.114 155.523 C 854.651 159.361, 855.427 171.050, 855.839 181.500 C 856.551 199.570, 856.725 200.769, 859.378 206 C 864.909 216.902, 873.389 224.742, 882.879 227.727 C 885.420 228.526, 894.251 229.537, 902.503 229.973 C 918.647 230.827, 923.374 232.070, 928.250 236.740 C 930.318 238.721, 931 240.329, 931 243.227 C 931 247.593, 929.690 250.399, 921.068 264.500 C 911.202 280.634, 904.999 299.132, 905.001 312.410 C 905.002 316.553, 906.043 323.796, 907.506 329.834 C 908.883 335.518, 910.490 344.476, 911.077 349.741 C 912.702 364.314, 911.146 371.969, 904.379 382.689 C 898.989 391.226, 897 395.728, 897 399.389 C 897 403.660, 899.184 406, 903.170 406 C 909.809 406, 915.824 400.976, 929.647 383.883 C 936.295 375.663, 943.524 371, 949.620 371 C 956.424 371, 962.937 380.030, 962.978 389.522 C 962.990 392.284, 961.658 399.745, 960.018 406.104 C 958.379 412.462, 955.910 424.211, 954.533 432.213 C 953.155 440.215, 950.677 452.297, 949.025 459.062 C 947.276 466.225, 944.973 480.580, 943.511 493.431 C 940.099 523.421, 938.711 528.988, 933.783 532.439 C 927.722 536.685, 922.212 533.004, 907.464 514.861 C 894.167 498.504, 875.403 479.429, 868 474.744 C 859.683 469.480, 842.331 462.279, 834.833 460.979 C 818.900 458.217, 803.156 466.528, 796.402 481.266 C 793.792 486.960, 793.550 488.454, 793.604 498.500 C 793.668 510.551, 795.786 518.689, 802.124 531.245 C 803.833 534.632, 806.712 541.491, 808.521 546.487 C 810.329 551.484, 814.264 561.405, 817.265 568.536 C 822.690 581.425, 832.472 610.037, 835.374 621.500 C 837.990 631.834, 840.284 651.049, 840.269 662.500 C 840.254 674.391, 838.723 683.157, 833.954 698.649 C 832.329 703.927, 831 709.624, 831 711.307 C 831 715.546, 834.603 722.581, 838.020 725.014 C 845.531 730.363, 841.570 730.183, 948.432 730.030 C 1034.482 729.907, 1049.544 730.107, 1064.108 731.569 C 1073.614 732.523, 1083.157 732.961, 1086.182 732.583 C 1096.632 731.277, 1104.021 724.642, 1103.978 716.602 C 1103.947 710.766, 1101.358 705.780, 1093.019 695.500 C 1083.224 683.425, 1080.644 677.761, 1080.170 667.300 C 1079.966 662.790, 1080.289 655.365, 1080.889 650.800 C 1081.488 646.235, 1083.108 630.350, 1084.488 615.500 C 1086.838 590.217, 1086.997 584.717, 1086.991 529 C 1086.988 496.275, 1086.542 465.675, 1086.001 461 C 1085.460 456.325, 1084.551 445.525, 1083.982 437 C 1083.412 428.475, 1082.493 418.800, 1081.939 415.500 C 1081.386 412.200, 1080.524 400.271, 1080.024 388.991 C 1079.272 372.001, 1078.504 365.395, 1075.552 350.491 C 1073.592 340.596, 1070.625 328, 1068.957 322.500 C 1065.393 310.742, 1061 284.865, 1061 275.625 C 1061 269.617, 1061.243 268.899, 1064.321 265.821 C 1066.147 263.995, 1069.575 260.967, 1071.939 259.094 C 1076.762 255.272, 1079.961 249.240, 1079.945 244 C 1079.910 232.400, 1066.826 212.429, 1053.120 203.054 C 1046.299 198.389, 1042.492 194.464, 1041.028 190.590 C 1040.423 188.990, 1039.482 181.826, 1038.938 174.672 C 1037.297 153.106, 1032.782 135.543, 1026.487 126.235 C 1017.712 113.259, 1005.875 105.161, 989.500 100.932 C 978.995 98.219, 964.431 97.586, 956.100 99.480 M 379.500 115.640 C 308.456 118.230, 303.355 118.619, 270 123.995 C 256.525 126.166, 238.525 128.605, 230 129.414 C 217.584 130.592, 212.349 131.593, 203.691 134.443 C 197.746 136.400, 186.496 139.593, 178.691 141.539 C 163.451 145.339, 142.002 153.840, 133.356 159.508 C 129.386 162.110, 127.813 163.922, 126.470 167.440 C 124.829 171.736, 124.826 172.256, 126.417 176.421 C 128.285 181.313, 134.682 187.781, 140.651 190.814 C 142.768 191.889, 149.900 194.199, 156.500 195.947 C 163.100 197.694, 173.321 200.643, 179.213 202.498 C 189.137 205.624, 207.928 209.617, 231 213.504 C 236.225 214.385, 246.125 216.415, 253 218.015 C 268.338 221.587, 279.498 222.579, 320.500 224.015 C 338.100 224.632, 360.150 225.537, 369.500 226.026 C 379.523 226.550, 395.939 226.542, 409.500 226.007 C 422.150 225.507, 445.325 224.636, 461 224.071 C 511.861 222.236, 519.101 221.420, 545.471 214.550 C 554.837 212.110, 567.900 208.957, 574.500 207.543 C 581.100 206.129, 592.575 203.196, 600 201.026 C 607.425 198.856, 617.775 196.105, 623 194.913 C 634.253 192.345, 640.562 189.367, 646.667 183.739 C 652.139 178.695, 654.001 175.281, 653.996 170.300 C 653.991 165.101, 651.137 160.853, 645.896 158.245 C 634.927 152.784, 607.603 142.990, 596.500 140.540 C 589.900 139.084, 580 136.586, 574.500 134.989 C 558.518 130.351, 552.481 129.191, 535.591 127.515 C 526.841 126.646, 514.016 124.848, 507.091 123.518 C 490.053 120.248, 480.247 119, 471.580 119 C 467.578 119, 455.123 118.354, 443.902 117.563 C 422.239 116.038, 392.744 115.157, 379.500 115.640 M 956.447 119.355 C 944.961 123.089, 931.322 133.136, 926.543 141.383 C 922.698 148.018, 920.817 156.223, 920.827 166.319 C 920.837 177.278, 922.495 182.835, 928.492 192 C 935.484 202.685, 945.121 210.333, 957.288 214.851 C 968.213 218.908, 977.955 217.240, 992.822 208.767 C 1004.256 202.250, 1009.323 197.171, 1014.191 187.348 C 1017.957 179.746, 1018.434 177.963, 1018.812 170.047 C 1019.819 148.994, 1008.980 134.007, 984.191 122.174 C 977.579 119.018, 975.378 118.470, 968.500 118.270 C 963.936 118.138, 958.759 118.604, 956.447 119.355 M 988 235.623 C 961.200 238.850, 949.603 247.695, 957.265 259.065 C 961.152 264.833, 966.563 267.754, 979.444 271.040 C 996.879 275.487, 1006.783 281.672, 1012.766 291.849 C 1015.249 296.072, 1015.493 297.373, 1015.420 306 C 1015.377 311.225, 1014.994 319.550, 1014.569 324.500 C 1013.823 333.210, 1013.892 333.677, 1016.693 338.985 C 1020.675 346.528, 1027.024 350.500, 1035.098 350.500 C 1039.351 350.500, 1041.574 349.962, 1043.615 348.438 C 1052.437 341.852, 1052.684 335.459, 1045.113 309.733 C 1038.667 287.834, 1038.660 287.817, 1029.832 273.325 C 1025.870 266.821, 1020.069 256.550, 1016.940 250.500 C 1012.975 242.833, 1010.365 238.978, 1008.327 237.776 C 1005.317 236, 994.436 234.848, 988 235.623 M 952.333 292.500 C 937.976 295.621, 930 304.062, 930 316.134 C 930 328.214, 935.479 337.646, 945.276 342.429 C 958.480 348.875, 973.332 345.718, 985.178 333.946 C 993.968 325.212, 995.917 315.778, 990.952 306 C 987.347 298.899, 980.503 294.091, 971.201 292.122 C 964.548 290.713, 960.144 290.802, 952.333 292.500 M 1028.898 381.263 C 1027.029 382.508, 1024.600 385.320, 1023.500 387.513 C 1021.627 391.246, 1021.519 393.156, 1021.802 417.500 C 1022.074 440.950, 1021.927 443.843, 1020.302 446.999 C 1019.311 448.923, 1017.263 451.085, 1015.750 451.803 C 1009.236 454.896, 1003.996 447.815, 1002.018 433.247 C 1000.199 419.854, 997.089 407.430, 994.643 403.787 C 993.058 401.426, 991.544 400.413, 989.272 400.191 C 986.561 399.926, 985.746 400.428, 983.592 403.691 C 980.902 407.765, 980.935 407.649, 972.591 442.500 C 963.428 480.768, 962.332 490.145, 961.025 541.500 C 960.550 560.155, 959.703 576.080, 959.077 578.134 C 956.647 586.109, 950.579 590.551, 943.243 589.724 C 936.001 588.908, 931.522 584.800, 921.361 569.660 C 916.335 562.171, 910.441 553.896, 908.263 551.271 C 906.086 548.647, 900.749 541.366, 896.402 535.091 C 882.132 514.488, 851.988 486.034, 841.281 483.061 C 829.473 479.782, 819.563 485.482, 817.100 496.970 C 815.695 503.521, 815.730 505.060, 817.466 513.254 C 818.937 520.197, 821.545 526.435, 833.954 552.695 C 839.301 564.010, 841.901 571.031, 844.140 580.195 C 845.793 586.963, 848.932 598.125, 851.115 605 C 853.298 611.875, 856.276 623.125, 857.732 630 C 860.209 641.694, 860.383 644.241, 860.440 669.500 C 860.499 696.008, 860.543 696.569, 862.837 700.259 C 864.122 702.326, 867.272 705.251, 869.837 706.759 L 874.500 709.500 961 709.500 L 1047.500 709.500 1051.834 707.187 C 1055.097 705.445, 1056.673 703.733, 1058.210 700.258 C 1060.123 695.933, 1060.177 694.979, 1059.074 685.072 C 1058.427 679.257, 1057.763 673.190, 1057.598 671.590 C 1056.800 663.817, 1059.176 640.946, 1062.494 624.458 C 1067.530 599.442, 1068.256 584.730, 1067.732 518.351 C 1067.298 463.395, 1067.241 462.083, 1064.167 436.500 C 1062.449 422.200, 1060.526 408.250, 1059.895 405.500 C 1055.376 385.828, 1040.043 373.840, 1028.898 381.263 M 654.500 528.970 C 636.119 529.987, 631.793 531.171, 625.661 536.864 C 619.937 542.178, 618.469 546.726, 616.486 565.293 C 615.676 572.879, 613.911 583.904, 612.564 589.793 C 611.217 595.682, 609.400 604.775, 608.525 610 C 605.150 630.159, 600.722 650.703, 598.765 655.288 C 595.903 661.992, 589.292 667.567, 582.367 669.117 C 577.867 670.124, 573.210 670.036, 556.197 668.622 C 544.813 667.676, 520.875 666.496, 503 665.998 C 485.125 665.501, 465.325 664.828, 459 664.504 C 446.849 663.881, 399.404 665.295, 372.500 667.081 C 363.700 667.666, 348.263 669.231, 338.196 670.559 C 328.129 671.888, 310.129 673.442, 298.196 674.014 C 286.263 674.585, 272 675.475, 266.500 675.991 C 261 676.507, 250.578 676.945, 243.339 676.964 C 227.119 677.008, 222.503 675.728, 208.045 667.175 C 188.192 655.430, 168.444 649.390, 152.607 650.219 C 137.956 650.985, 131.019 655.134, 121.972 668.542 C 116.222 677.063, 113.790 678.422, 101.687 679.881 C 90.752 681.199, 85.780 683.758, 83 689.500 C 78.210 699.396, 82.739 708.251, 97.303 717.460 C 109.033 724.877, 120.352 727.756, 146.778 730.044 C 167.890 731.872, 179.274 730.977, 199 725.940 C 215.383 721.757, 215.677 721.721, 240.500 720.870 C 254.250 720.399, 332.775 719.737, 415 719.399 C 561.302 718.797, 592.454 719.171, 633 722.013 C 649.945 723.202, 672.097 721.832, 681.147 719.036 C 689.357 716.501, 695.008 711.726, 698.004 704.794 L 700.292 699.500 700.094 623.500 C 699.957 571.377, 699.547 546.319, 698.787 543.742 C 698.177 541.676, 696.186 538.241, 694.362 536.110 C 688.156 528.860, 680.682 527.521, 654.500 528.970 M 652.211 551.129 C 647.577 552.465, 641.446 559.191, 639.068 565.548 C 636.511 572.381, 632.874 586.853, 629.558 603.381 C 626.546 618.396, 620.997 653.637, 621.006 657.704 C 621.030 670.102, 631.414 679.438, 652.355 685.888 C 663.922 689.451, 669.931 688.436, 675.342 682.005 C 676.762 680.318, 678.388 677.264, 678.956 675.219 C 679.603 672.890, 679.991 652.780, 679.994 621.409 C 680 567.016, 679.862 565.441, 674.451 558.347 C 671.373 554.311, 662.995 549.979, 658.500 550.100 C 656.850 550.144, 654.020 550.607, 652.211 551.129" stroke="none" fill="#6a6a6a" fill-rule="evenodd"/><path d="M 0 409.501 L 0 819.002 636.250 818.751 L 1272.500 818.500 1272.751 409.250 L 1273.002 0 636.501 0 L 0 0 0 409.501 M 0.495 410 C 0.495 635.225, 0.610 727.363, 0.750 614.750 C 0.890 502.138, 0.890 317.863, 0.750 205.250 C 0.610 92.638, 0.495 184.775, 0.495 410 M 359.500 97.096 C 323.130 98.705, 301.201 100.065, 289 101.469 C 282.125 102.260, 268.400 103.620, 258.500 104.490 C 234.424 106.608, 224.443 108.285, 211.188 112.441 C 205.070 114.359, 193.862 117.092, 186.282 118.515 C 171.333 121.319, 162.070 123.992, 154.944 127.558 C 152.438 128.811, 143.694 132.158, 135.513 134.995 C 127.332 137.832, 118.132 141.406, 115.069 142.937 C 112.006 144.467, 105.120 147.629, 99.766 149.962 C 84.799 156.484, 78.820 163.903, 80.582 173.765 C 82.026 181.845, 97.052 192.248, 118.500 200.016 C 123.450 201.809, 131.775 205.407, 137 208.011 C 148.175 213.581, 156.261 216.576, 176.113 222.500 C 196.780 228.668, 256.897 240.320, 281.500 242.927 C 297.853 244.660, 381.648 246.202, 422.500 245.521 C 491.650 244.369, 506.789 243.160, 535 236.536 C 540.775 235.180, 551.800 232.928, 559.500 231.530 C 567.200 230.133, 577.163 228.320, 581.641 227.502 C 590.963 225.799, 628.199 213.757, 638.222 209.204 C 641.919 207.525, 650.687 204.270, 657.706 201.972 C 683.833 193.416, 696.520 184.435, 697.738 173.635 C 698.918 163.167, 690.355 154.504, 672.271 147.871 C 669.097 146.707, 660.875 143.155, 654 139.979 C 637.312 132.269, 614.890 124.663, 599.262 121.411 C 592.243 119.950, 580.200 116.770, 572.500 114.344 C 554.515 108.677, 538.056 105.422, 520.500 104.059 C 512.800 103.462, 500.425 102.323, 493 101.529 C 485.575 100.735, 469.825 99.576, 458 98.954 C 446.175 98.331, 429.975 97.439, 422 96.971 C 404.808 95.961, 384.208 96.003, 359.500 97.096 M 956.100 99.480 C 945.761 101.831, 934.639 105.846, 929.390 109.123 C 926.700 110.802, 920.450 116.168, 915.500 121.047 C 910.550 125.927, 904.827 130.612, 902.782 131.459 C 897.830 133.511, 892.071 133.378, 883 131 C 872.756 128.315, 866.187 128.393, 861.990 131.250 C 854.815 136.133, 852.429 143.486, 854.114 155.523 C 854.651 159.361, 855.427 171.050, 855.839 181.500 C 856.551 199.570, 856.725 200.769, 859.378 206 C 864.909 216.902, 873.389 224.742, 882.879 227.727 C 885.420 228.526, 894.251 229.537, 902.503 229.973 C 918.647 230.827, 923.374 232.070, 928.250 236.740 C 930.318 238.721, 931 240.329, 931 243.227 C 931 247.593, 929.690 250.399, 921.068 264.500 C 911.202 280.634, 904.999 299.132, 905.001 312.410 C 905.002 316.553, 906.043 323.796, 907.506 329.834 C 908.883 335.518, 910.490 344.476, 911.077 349.741 C 912.702 364.314, 911.146 371.969, 904.379 382.689 C 898.989 391.226, 897 395.728, 897 399.389 C 897 403.660, 899.184 406, 903.170 406 C 909.809 406, 915.824 400.976, 929.647 383.883 C 936.295 375.663, 943.524 371, 949.620 371 C 956.424 371, 962.937 380.030, 962.978 389.522 C 962.990 392.284, 961.658 399.745, 960.018 406.104 C 958.379 412.462, 955.910 424.211, 954.533 432.213 C 953.155 440.215, 950.677 452.297, 949.025 459.062 C 947.276 466.225, 944.973 480.580, 943.511 493.431 C 940.099 523.421, 938.711 528.988, 933.783 532.439 C 927.722 536.685, 922.212 533.004, 907.464 514.861 C 894.167 498.504, 875.403 479.429, 868 474.744 C 859.683 469.480, 842.331 462.279, 834.833 460.979 C 818.900 458.217, 803.156 466.528, 796.402 481.266 C 793.792 486.960, 793.550 488.454, 793.604 498.500 C 793.668 510.551, 795.786 518.689, 802.124 531.245 C 803.833 534.632, 806.712 541.491, 808.521 546.487 C 810.329 551.484, 814.264 561.405, 817.265 568.536 C 822.690 581.425, 832.472 610.037, 835.374 621.500 C 837.990 631.834, 840.284 651.049, 840.269 662.500 C 840.254 674.391, 838.723 683.157, 833.954 698.649 C 832.329 703.927, 831 709.624, 831 711.307 C 831 715.546, 834.603 722.581, 838.020 725.014 C 845.531 730.363, 841.570 730.183, 948.432 730.030 C 1034.482 729.907, 1049.544 730.107, 1064.108 731.569 C 1073.614 732.523, 1083.157 732.961, 1086.182 732.583 C 1096.632 731.277, 1104.021 724.642, 1103.978 716.602 C 1103.947 710.766, 1101.358 705.780, 1093.019 695.500 C 1083.224 683.425, 1080.644 677.761, 1080.170 667.300 C 1079.966 662.790, 1080.289 655.365, 1080.889 650.800 C 1081.488 646.235, 1083.108 630.350, 1084.488 615.500 C 1086.838 590.217, 1086.997 584.717, 1086.991 529 C 1086.988 496.275, 1086.542 465.675, 1086.001 461 C 1085.460 456.325, 1084.551 445.525, 1083.982 437 C 1083.412 428.475, 1082.493 418.800, 1081.939 415.500 C 1081.386 412.200, 1080.524 400.271, 1080.024 388.991 C 1079.272 372.001, 1078.504 365.395, 1075.552 350.491 C 1073.592 340.596, 1070.625 328, 1068.957 322.500 C 1065.393 310.742, 1061 284.865, 1061 275.625 C 1061 269.617, 1061.243 268.899, 1064.321 265.821 C 1066.147 263.995, 1069.575 260.967, 1071.939 259.094 C 1076.762 255.272, 1079.961 249.240, 1079.945 244 C 1079.910 232.400, 1066.826 212.429, 1053.120 203.054 C 1046.299 198.389, 1042.492 194.464, 1041.028 190.590 C 1040.423 188.990, 1039.482 181.826, 1038.938 174.672 C 1037.297 153.106, 1032.782 135.543, 1026.487 126.235 C 1017.712 113.259, 1005.875 105.161, 989.500 100.932 C 978.995 98.219, 964.431 97.586, 956.100 99.480 M 379.500 115.640 C 308.456 118.230, 303.355 118.619, 270 123.995 C 256.525 126.166, 238.525 128.605, 230 129.414 C 217.584 130.592, 212.349 131.593, 203.691 134.443 C 197.746 136.400, 186.496 139.593, 178.691 141.539 C 163.451 145.339, 142.002 153.840, 133.356 159.508 C 129.386 162.110, 127.813 163.922, 126.470 167.440 C 124.829 171.736, 124.826 172.256, 126.417 176.421 C 128.285 181.313, 134.682 187.781, 140.651 190.814 C 142.768 191.889, 149.900 194.199, 156.500 195.947 C 163.100 197.694, 173.321 200.643, 179.213 202.498 C 189.137 205.624, 207.928 209.617, 231 213.504 C 236.225 214.385, 246.125 216.415, 253 218.015 C 268.338 221.587, 279.498 222.579, 320.500 224.015 C 338.100 224.632, 360.150 225.537, 369.500 226.026 C 379.523 226.550, 395.939 226.542, 409.500 226.007 C 422.150 225.507, 445.325 224.636, 461 224.071 C 511.861 222.236, 519.101 221.420, 545.471 214.550 C 554.837 212.110, 567.900 208.957, 574.500 207.543 C 581.100 206.129, 592.575 203.196, 600 201.026 C 607.425 198.856, 617.775 196.105, 623 194.913 C 634.253 192.345, 640.562 189.367, 646.667 183.739 C 652.139 178.695, 654.001 175.281, 653.996 170.300 C 653.991 165.101, 651.137 160.853, 645.896 158.245 C 634.927 152.784, 607.603 142.990, 596.500 140.540 C 589.900 139.084, 580 136.586, 574.500 134.989 C 558.518 130.351, 552.481 129.191, 535.591 127.515 C 526.841 126.646, 514.016 124.848, 507.091 123.518 C 490.053 120.248, 480.247 119, 471.580 119 C 467.578 119, 455.123 118.354, 443.902 117.563 C 422.239 116.038, 392.744 115.157, 379.500 115.640 M 956.447 119.355 C 944.961 123.089, 931.322 133.136, 926.543 141.383 C 922.698 148.018, 920.817 156.223, 920.827 166.319 C 920.837 177.278, 922.495 182.835, 928.492 192 C 935.484 202.685, 945.121 210.333, 957.288 214.851 C 968.213 218.908, 977.955 217.240, 992.822 208.767 C 1004.256 202.250, 1009.323 197.171, 1014.191 187.348 C 1017.957 179.746, 1018.434 177.963, 1018.812 170.047 C 1019.819 148.994, 1008.980 134.007, 984.191 122.174 C 977.579 119.018, 975.378 118.470, 968.500 118.270 C 963.936 118.138, 958.759 118.604, 956.447 119.355 M 988 235.623 C 961.200 238.850, 949.603 247.695, 957.265 259.065 C 961.152 264.833, 966.563 267.754, 979.444 271.040 C 996.879 275.487, 1006.783 281.672, 1012.766 291.849 C 1015.249 296.072, 1015.493 297.373, 1015.420 306 C 1015.377 311.225, 1014.994 319.550, 1014.569 324.500 C 1013.823 333.210, 1013.892 333.677, 1016.693 338.985 C 1020.675 346.528, 1027.024 350.500, 1035.098 350.500 C 1039.351 350.500, 1041.574 349.962, 1043.615 348.438 C 1052.437 341.852, 1052.684 335.459, 1045.113 309.733 C 1038.667 287.834, 1038.660 287.817, 1029.832 273.325 C 1025.870 266.821, 1020.069 256.550, 1016.940 250.500 C 1012.975 242.833, 1010.365 238.978, 1008.327 237.776 C 1005.317 236, 994.436 234.848, 988 235.623 M 952.333 292.500 C 937.976 295.621, 930 304.062, 930 316.134 C 930 328.214, 935.479 337.646, 945.276 342.429 C 958.480 348.875, 973.332 345.718, 985.178 333.946 C 993.968 325.212, 995.917 315.778, 990.952 306 C 987.347 298.899, 980.503 294.091, 971.201 292.122 C 964.548 290.713, 960.144 290.802, 952.333 292.500 M 1028.898 381.263 C 1027.029 382.508, 1024.600 385.320, 1023.500 387.513 C 1021.627 391.246, 1021.519 393.156, 1021.802 417.500 C 1022.074 440.950, 1021.927 443.843, 1020.302 446.999 C 1019.311 448.923, 1017.263 451.085, 1015.750 451.803 C 1009.236 454.896, 1003.996 447.815, 1002.018 433.247 C 1000.199 419.854, 997.089 407.430, 994.643 403.787 C 993.058 401.426, 991.544 400.413, 989.272 400.191 C 986.561 399.926, 985.746 400.428, 983.592 403.691 C 980.902 407.765, 980.935 407.649, 972.591 442.500 C 963.428 480.768, 962.332 490.145, 961.025 541.500 C 960.550 560.155, 959.703 576.080, 959.077 578.134 C 956.647 586.109, 950.579 590.551, 943.243 589.724 C 936.001 588.908, 931.522 584.800, 921.361 569.660 C 916.335 562.171, 910.441 553.896, 908.263 551.271 C 906.086 548.647, 900.749 541.366, 896.402 535.091 C 882.132 514.488, 851.988 486.034, 841.281 483.061 C 829.473 479.782, 819.563 485.482, 817.100 496.970 C 815.695 503.521, 815.730 505.060, 817.466 513.254 C 818.937 520.197, 821.545 526.435, 833.954 552.695 C 839.301 564.010, 841.901 571.031, 844.140 580.195 C 845.793 586.963, 848.932 598.125, 851.115 605 C 853.298 611.875, 856.276 623.125, 857.732 630 C 860.209 641.694, 860.383 644.241, 860.440 669.500 C 860.499 696.008, 860.543 696.569, 862.837 700.259 C 864.122 702.326, 867.272 705.251, 869.837 706.759 L 874.500 709.500 961 709.500 L 1047.500 709.500 1051.834 707.187 C 1055.097 705.445, 1056.673 703.733, 1058.210 700.258 C 1060.123 695.933, 1060.177 694.979, 1059.074 685.072 C 1058.427 679.257, 1057.763 673.190, 1057.598 671.590 C 1056.800 663.817, 1059.176 640.946, 1062.494 624.458 C 1067.530 599.442, 1068.256 584.730, 1067.732 518.351 C 1067.298 463.395, 1067.241 462.083, 1064.167 436.500 C 1062.449 422.200, 1060.526 408.250, 1059.895 405.500 C 1055.376 385.828, 1040.043 373.840, 1028.898 381.263 M 654.500 528.970 C 636.119 529.987, 631.793 531.171, 625.661 536.864 C 619.937 542.178, 618.469 546.726, 616.486 565.293 C 615.676 572.879, 613.911 583.904, 612.564 589.793 C 611.217 595.682, 609.400 604.775, 608.525 610 C 605.150 630.159, 600.722 650.703, 598.765 655.288 C 595.903 661.992, 589.292 667.567, 582.367 669.117 C 577.867 670.124, 573.210 670.036, 556.197 668.622 C 544.813 667.676, 520.875 666.496, 503 665.998 C 485.125 665.501, 465.325 664.828, 459 664.504 C 446.849 663.881, 399.404 665.295, 372.500 667.081 C 363.700 667.666, 348.263 669.231, 338.196 670.559 C 328.129 671.888, 310.129 673.442, 298.196 674.014 C 286.263 674.585, 272 675.475, 266.500 675.991 C 261 676.507, 250.578 676.945, 243.339 676.964 C 227.119 677.008, 222.503 675.728, 208.045 667.175 C 188.192 655.430, 168.444 649.390, 152.607 650.219 C 137.956 650.985, 131.019 655.134, 121.972 668.542 C 116.222 677.063, 113.790 678.422, 101.687 679.881 C 90.752 681.199, 85.780 683.758, 83 689.500 C 78.210 699.396, 82.739 708.251, 97.303 717.460 C 109.033 724.877, 120.352 727.756, 146.778 730.044 C 167.890 731.872, 179.274 730.977, 199 725.940 C 215.383 721.757, 215.677 721.721, 240.500 720.870 C 254.250 720.399, 332.775 719.737, 415 719.399 C 561.302 718.797, 592.454 719.171, 633 722.013 C 649.945 723.202, 672.097 721.832, 681.147 719.036 C 689.357 716.501, 695.008 711.726, 698.004 704.794 L 700.292 699.500 700.094 623.500 C 699.957 571.377, 699.547 546.319, 698.787 543.742 C 698.177 541.676, 696.186 538.241, 694.362 536.110 C 688.156 528.860, 680.682 527.521, 654.500 528.970 M 652.211 551.129 C 647.577 552.465, 641.446 559.191, 639.068 565.548 C 636.511 572.381, 632.874 586.853, 629.558 603.381 C 626.546 618.396, 620.997 653.637, 621.006 657.704 C 621.030 670.102, 631.414 679.438, 652.355 685.888 C 663.922 689.451, 669.931 688.436, 675.342 682.005 C 676.762 680.318, 678.388 677.264, 678.956 675.219 C 679.603 672.890, 679.991 652.780, 679.994 621.409 C 680 567.016, 679.862 565.441, 674.451 558.347 C 671.373 554.311, 662.995 549.979, 658.500 550.100 C 656.850 550.144, 654.020 550.607, 652.211 551.129" stroke="none" fill="#eeeeee" fill-rule="evenodd"/></svg>