<svg xmlns="http://www.w3.org/2000/svg" width="1272" height="1207" viewBox="0 0 1272 1207" version="1.1"><path d="M 496 112.047 C 420.738 113.100, 405.789 114.324, 368.500 122.484 C 357.500 124.891, 334.775 129.378, 318 132.455 C 282.072 139.045, 273.691 141.193, 240.500 152.318 C 218.344 159.744, 203.413 165.533, 164.935 181.616 C 127.223 197.378, 112.238 214.945, 118.800 235.703 C 121.197 243.285, 126.533 250.763, 132.799 255.321 C 138.741 259.644, 141.197 260.882, 154.846 266.437 C 160.952 268.923, 170.542 273.261, 176.157 276.079 C 181.771 278.896, 192.533 283.598, 200.072 286.528 C 207.611 289.458, 218.891 294.071, 225.139 296.781 C 240.436 303.414, 245.682 305.038, 272.500 311.438 C 285.150 314.456, 301.534 318.523, 308.909 320.474 C 325.323 324.816, 337.897 327.285, 357.500 330.013 C 365.750 331.161, 377.312 332.990, 383.192 334.077 C 410.593 339.143, 435.730 342.081, 460 343.054 C 473.475 343.595, 495.750 344.723, 509.500 345.563 C 569.014 349.195, 596.905 349.185, 698.774 345.498 C 747.089 343.749, 753.184 343.175, 778.766 337.967 C 789.362 335.811, 806.237 333.134, 816.266 332.019 C 850.991 328.159, 859.469 326.530, 888.883 318.067 C 898.443 315.317, 916.639 310.764, 929.319 307.951 C 942.124 305.109, 957.735 300.908, 964.436 298.501 C 1001.146 285.313, 1009.491 281.942, 1030.500 271.807 C 1062.257 256.487, 1066.620 253.378, 1072.738 241.713 C 1075.093 237.223, 1075.472 235.321, 1075.474 228 C 1075.476 220.982, 1075.063 218.722, 1073.109 215.038 C 1066.908 203.344, 1048.896 191.675, 1010.274 174.328 C 982.729 161.957, 976.312 159.526, 958.178 154.592 C 948.651 152, 936.501 148.537, 931.178 146.896 C 918.090 142.861, 901.279 138.661, 883.378 134.954 C 875.195 133.260, 862.216 130.297, 854.536 128.370 C 846.856 126.443, 836.443 124.017, 831.395 122.978 C 819.138 120.456, 773.613 114.319, 758 113.083 C 741.191 111.753, 566.394 111.062, 496 112.047 M 520.500 155.118 C 479.015 156.196, 434.665 158.659, 423 160.533 C 417.775 161.373, 406.975 163.385, 399 165.004 C 391.025 166.623, 372.878 169.992, 358.674 172.490 C 334.351 176.768, 307.006 183.148, 283.041 190.137 C 277.243 191.828, 264.175 195.160, 254 197.541 C 243.825 199.923, 233.561 202.565, 231.191 203.412 C 219.135 207.723, 205.618 216.971, 202.466 223.065 C 199.317 229.154, 201.757 235.825, 208.849 240.519 C 219.334 247.457, 252.967 259.131, 281 265.562 C 292.275 268.149, 309.832 272.638, 320.015 275.537 C 340.987 281.509, 355.959 284.228, 380.500 286.521 C 389.850 287.394, 406.050 289.416, 416.500 291.014 C 440.340 294.659, 451.425 295.677, 481.500 296.983 C 494.700 297.556, 517.875 298.762, 533 299.662 C 570.152 301.875, 612.636 301.722, 672.500 299.161 C 744.985 296.060, 747.931 295.841, 776 291.466 C 784.525 290.138, 801.809 287.900, 814.408 286.495 C 841.187 283.507, 849.981 281.736, 871.021 275.092 C 886.136 270.319, 892.250 268.865, 919.791 263.495 C 934.394 260.648, 947.439 256.431, 965 248.880 C 984.365 240.552, 992.153 233.525, 990.476 225.890 C 989.409 221.034, 982.256 214.655, 972.855 210.177 C 956.281 202.283, 897.425 183.783, 874 179.104 C 868.225 177.951, 854.050 175.654, 842.500 174.001 C 816.902 170.336, 808.735 168.850, 789.793 164.411 C 765.680 158.759, 758.257 157.957, 721 156.976 C 702.025 156.477, 671.875 155.607, 654 155.044 C 617.450 153.892, 566.642 153.920, 520.500 155.118 M 336.383 931.949 C 326.709 934.258, 319.624 939.788, 307.589 954.420 C 295.616 968.977, 288.707 974, 280.654 974 C 273.863 974, 269.929 971.196, 254.004 955.004 C 234.856 935.536, 231.379 933.490, 217.500 933.519 C 209.742 933.536, 207.810 933.901, 203.500 936.165 C 191.934 942.241, 187.109 948.176, 167.458 980.500 C 147.124 1013.947, 142.974 1024.127, 145.080 1035.400 C 146.359 1042.243, 149.326 1046.495, 154.606 1049.052 C 165.065 1054.114, 178.573 1046.960, 191.096 1029.727 C 205.233 1010.273, 207.140 1008.002, 211.466 1005.467 C 216.857 1002.308, 223.089 1002.006, 228.673 1004.634 C 230.778 1005.625, 238.029 1011.721, 244.787 1018.181 C 254.493 1027.460, 258.685 1030.723, 264.741 1033.714 C 271.994 1037.296, 272.923 1037.500, 281.954 1037.500 C 290.850 1037.500, 291.912 1037.276, 297.558 1034.213 C 303.995 1030.720, 310.551 1024.823, 323.500 1010.875 C 332.917 1000.733, 336.446 998.615, 344.014 998.568 C 351.480 998.521, 357.018 1001.891, 365.695 1011.760 C 377.793 1025.520, 387.354 1034.543, 392.500 1037.057 C 396.743 1039.130, 398.939 1039.498, 407 1039.485 C 415.468 1039.472, 417.086 1039.164, 421.891 1036.647 C 427.488 1033.716, 433.999 1027.590, 447.316 1012.729 C 456.835 1002.106, 462.374 998.571, 469.500 998.571 C 476.724 998.571, 481.354 1001.676, 495.188 1015.794 C 512.793 1033.762, 520.599 1038.275, 534.168 1038.326 C 540.837 1038.351, 542.727 1037.924, 548.668 1035.047 C 554.397 1032.274, 557.842 1029.350, 570 1016.942 C 577.975 1008.804, 585.940 1001.437, 587.700 1000.572 C 589.461 999.708, 593.085 999, 595.754 999 C 603.617 999, 609.075 1002.487, 622.500 1016.087 C 640.458 1034.278, 647.212 1038.297, 660 1038.397 C 673.367 1038.502, 683.088 1032.293, 698 1014.127 C 710.251 999.202, 717.307 995.494, 727.702 998.516 C 733.639 1000.242, 734.615 1001.110, 756 1023.690 C 767.052 1035.360, 774.701 1039.444, 785.500 1039.444 C 791.543 1039.444, 793.653 1038.947, 799.077 1036.246 C 806.230 1032.684, 810.212 1029.140, 823.830 1014.216 C 834.244 1002.803, 839.439 999.209, 846.783 998.339 C 855.306 997.330, 860.492 1000.517, 876.621 1016.676 C 888.016 1028.093, 891.753 1031.195, 897.500 1034.011 C 903.777 1037.087, 905.378 1037.444, 913 1037.471 C 924.854 1037.512, 929.678 1034.907, 945.879 1019.722 C 960.434 1006.080, 966.514 1002.460, 973.539 1003.252 C 980.300 1004.014, 985.198 1007.938, 994.797 1020.285 C 1010.996 1041.120, 1017.805 1047.146, 1026.774 1048.580 C 1034.505 1049.816, 1042.926 1043.870, 1045.862 1035.101 C 1047.554 1030.047, 1047.247 1023.670, 1044.988 1016.965 C 1042.822 1010.535, 1020.469 972.417, 1008.881 955.394 C 997.303 938.385, 988.619 932.518, 975 932.507 C 968.586 932.501, 966.486 932.978, 960.500 935.802 C 954.481 938.642, 951.537 941.122, 939.500 953.490 C 921.054 972.444, 915.727 975.154, 904.428 971.334 C 900.293 969.935, 897.076 967.226, 884.447 954.504 C 865.885 935.805, 861.995 933.500, 849 933.500 C 841.756 933.500, 839.687 933.903, 835 936.227 C 827.364 940.013, 820.561 945.855, 810.482 957.285 C 797.199 972.346, 790.827 975.545, 780.243 972.468 C 774.405 970.771, 773.786 970.225, 752.827 948.282 C 741.075 935.978, 734.253 932.489, 722.015 932.525 C 714.352 932.548, 712.859 932.883, 707.091 935.870 C 700.487 939.290, 693.544 945.709, 680.278 960.657 C 672.103 969.868, 666.867 973, 659.644 973 C 652.847 973, 647.561 969.885, 639.500 961.128 C 621.106 941.147, 614.358 936.221, 602.438 934.073 C 588.393 931.541, 578.803 936.221, 560.305 954.634 C 545.740 969.132, 540.946 972.215, 533.060 972.154 C 525.984 972.099, 520.759 968.991, 512.056 959.660 C 497.641 944.203, 493.081 940.165, 486.255 936.808 C 480.148 933.804, 478.699 933.500, 470.492 933.500 C 462.221 933.500, 460.861 933.791, 454.477 936.929 C 448.689 939.773, 445.030 942.850, 433 954.983 C 416.599 971.526, 413.600 973.428, 404.915 972.800 C 396.710 972.207, 391.133 968.105, 378.450 953.334 C 371.827 945.621, 365.812 939.704, 362.016 937.170 C 353.896 931.747, 344.901 929.915, 336.383 931.949" stroke="none" fill="#949494" fill-rule="evenodd"/><path d="M 0 603.501 L 0 1207.002 636.250 1206.751 L 1272.500 1206.500 1272.751 603.250 L 1273.002 0 636.501 0 L 0 0 0 603.501 M 0.497 604 C 0.497 935.925, 0.611 1071.713, 0.750 905.750 C 0.889 739.788, 0.889 468.213, 0.750 302.250 C 0.611 136.288, 0.497 272.075, 0.497 604 M 496 112.047 C 420.738 113.100, 405.789 114.324, 368.500 122.484 C 357.500 124.891, 334.775 129.378, 318 132.455 C 282.072 139.045, 273.691 141.193, 240.500 152.318 C 218.344 159.744, 203.413 165.533, 164.935 181.616 C 127.223 197.378, 112.238 214.945, 118.800 235.703 C 121.197 243.285, 126.533 250.763, 132.799 255.321 C 138.741 259.644, 141.197 260.882, 154.846 266.437 C 160.952 268.923, 170.542 273.261, 176.157 276.079 C 181.771 278.896, 192.533 283.598, 200.072 286.528 C 207.611 289.458, 218.891 294.071, 225.139 296.781 C 240.436 303.414, 245.682 305.038, 272.500 311.438 C 285.150 314.456, 301.534 318.523, 308.909 320.474 C 325.323 324.816, 337.897 327.285, 357.500 330.013 C 365.750 331.161, 377.312 332.990, 383.192 334.077 C 410.593 339.143, 435.730 342.081, 460 343.054 C 473.475 343.595, 495.750 344.723, 509.500 345.563 C 569.014 349.195, 596.905 349.185, 698.774 345.498 C 747.089 343.749, 753.184 343.175, 778.766 337.967 C 789.362 335.811, 806.237 333.134, 816.266 332.019 C 850.991 328.159, 859.469 326.530, 888.883 318.067 C 898.443 315.317, 916.639 310.764, 929.319 307.951 C 942.124 305.109, 957.735 300.908, 964.436 298.501 C 1001.146 285.313, 1009.491 281.942, 1030.500 271.807 C 1062.257 256.487, 1066.620 253.378, 1072.738 241.713 C 1075.093 237.223, 1075.472 235.321, 1075.474 228 C 1075.476 220.982, 1075.063 218.722, 1073.109 215.038 C 1066.908 203.344, 1048.896 191.675, 1010.274 174.328 C 982.729 161.957, 976.312 159.526, 958.178 154.592 C 948.651 152, 936.501 148.537, 931.178 146.896 C 918.090 142.861, 901.279 138.661, 883.378 134.954 C 875.195 133.260, 862.216 130.297, 854.536 128.370 C 846.856 126.443, 836.443 124.017, 831.395 122.978 C 819.138 120.456, 773.613 114.319, 758 113.083 C 741.191 111.753, 566.394 111.062, 496 112.047 M 520.500 155.118 C 479.015 156.196, 434.665 158.659, 423 160.533 C 417.775 161.373, 406.975 163.385, 399 165.004 C 391.025 166.623, 372.878 169.992, 358.674 172.490 C 334.351 176.768, 307.006 183.148, 283.041 190.137 C 277.243 191.828, 264.175 195.160, 254 197.541 C 243.825 199.923, 233.561 202.565, 231.191 203.412 C 219.135 207.723, 205.618 216.971, 202.466 223.065 C 199.317 229.154, 201.757 235.825, 208.849 240.519 C 219.334 247.457, 252.967 259.131, 281 265.562 C 292.275 268.149, 309.832 272.638, 320.015 275.537 C 340.987 281.509, 355.959 284.228, 380.500 286.521 C 389.850 287.394, 406.050 289.416, 416.500 291.014 C 440.340 294.659, 451.425 295.677, 481.500 296.983 C 494.700 297.556, 517.875 298.762, 533 299.662 C 570.152 301.875, 612.636 301.722, 672.500 299.161 C 744.985 296.060, 747.931 295.841, 776 291.466 C 784.525 290.138, 801.809 287.900, 814.408 286.495 C 841.187 283.507, 849.981 281.736, 871.021 275.092 C 886.136 270.319, 892.250 268.865, 919.791 263.495 C 934.394 260.648, 947.439 256.431, 965 248.880 C 984.365 240.552, 992.153 233.525, 990.476 225.890 C 989.409 221.034, 982.256 214.655, 972.855 210.177 C 956.281 202.283, 897.425 183.783, 874 179.104 C 868.225 177.951, 854.050 175.654, 842.500 174.001 C 816.902 170.336, 808.735 168.850, 789.793 164.411 C 765.680 158.759, 758.257 157.957, 721 156.976 C 702.025 156.477, 671.875 155.607, 654 155.044 C 617.450 153.892, 566.642 153.920, 520.500 155.118 M 336.383 931.949 C 326.709 934.258, 319.624 939.788, 307.589 954.420 C 295.616 968.977, 288.707 974, 280.654 974 C 273.863 974, 269.929 971.196, 254.004 955.004 C 234.856 935.536, 231.379 933.490, 217.500 933.519 C 209.742 933.536, 207.810 933.901, 203.500 936.165 C 191.934 942.241, 187.109 948.176, 167.458 980.500 C 147.124 1013.947, 142.974 1024.127, 145.080 1035.400 C 146.359 1042.243, 149.326 1046.495, 154.606 1049.052 C 165.065 1054.114, 178.573 1046.960, 191.096 1029.727 C 205.233 1010.273, 207.140 1008.002, 211.466 1005.467 C 216.857 1002.308, 223.089 1002.006, 228.673 1004.634 C 230.778 1005.625, 238.029 1011.721, 244.787 1018.181 C 254.493 1027.460, 258.685 1030.723, 264.741 1033.714 C 271.994 1037.296, 272.923 1037.500, 281.954 1037.500 C 290.850 1037.500, 291.912 1037.276, 297.558 1034.213 C 303.995 1030.720, 310.551 1024.823, 323.500 1010.875 C 332.917 1000.733, 336.446 998.615, 344.014 998.568 C 351.480 998.521, 357.018 1001.891, 365.695 1011.760 C 377.793 1025.520, 387.354 1034.543, 392.500 1037.057 C 396.743 1039.130, 398.939 1039.498, 407 1039.485 C 415.468 1039.472, 417.086 1039.164, 421.891 1036.647 C 427.488 1033.716, 433.999 1027.590, 447.316 1012.729 C 456.835 1002.106, 462.374 998.571, 469.500 998.571 C 476.724 998.571, 481.354 1001.676, 495.188 1015.794 C 512.793 1033.762, 520.599 1038.275, 534.168 1038.326 C 540.837 1038.351, 542.727 1037.924, 548.668 1035.047 C 554.397 1032.274, 557.842 1029.350, 570 1016.942 C 577.975 1008.804, 585.940 1001.437, 587.700 1000.572 C 589.461 999.708, 593.085 999, 595.754 999 C 603.617 999, 609.075 1002.487, 622.500 1016.087 C 640.458 1034.278, 647.212 1038.297, 660 1038.397 C 673.367 1038.502, 683.088 1032.293, 698 1014.127 C 710.251 999.202, 717.307 995.494, 727.702 998.516 C 733.639 1000.242, 734.615 1001.110, 756 1023.690 C 767.052 1035.360, 774.701 1039.444, 785.500 1039.444 C 791.543 1039.444, 793.653 1038.947, 799.077 1036.246 C 806.230 1032.684, 810.212 1029.140, 823.830 1014.216 C 834.244 1002.803, 839.439 999.209, 846.783 998.339 C 855.306 997.330, 860.492 1000.517, 876.621 1016.676 C 888.016 1028.093, 891.753 1031.195, 897.500 1034.011 C 903.777 1037.087, 905.378 1037.444, 913 1037.471 C 924.854 1037.512, 929.678 1034.907, 945.879 1019.722 C 960.434 1006.080, 966.514 1002.460, 973.539 1003.252 C 980.300 1004.014, 985.198 1007.938, 994.797 1020.285 C 1010.996 1041.120, 1017.805 1047.146, 1026.774 1048.580 C 1034.505 1049.816, 1042.926 1043.870, 1045.862 1035.101 C 1047.554 1030.047, 1047.247 1023.670, 1044.988 1016.965 C 1042.822 1010.535, 1020.469 972.417, 1008.881 955.394 C 997.303 938.385, 988.619 932.518, 975 932.507 C 968.586 932.501, 966.486 932.978, 960.500 935.802 C 954.481 938.642, 951.537 941.122, 939.500 953.490 C 921.054 972.444, 915.727 975.154, 904.428 971.334 C 900.293 969.935, 897.076 967.226, 884.447 954.504 C 865.885 935.805, 861.995 933.500, 849 933.500 C 841.756 933.500, 839.687 933.903, 835 936.227 C 827.364 940.013, 820.561 945.855, 810.482 957.285 C 797.199 972.346, 790.827 975.545, 780.243 972.468 C 774.405 970.771, 773.786 970.225, 752.827 948.282 C 741.075 935.978, 734.253 932.489, 722.015 932.525 C 714.352 932.548, 712.859 932.883, 707.091 935.870 C 700.487 939.290, 693.544 945.709, 680.278 960.657 C 672.103 969.868, 666.867 973, 659.644 973 C 652.847 973, 647.561 969.885, 639.500 961.128 C 621.106 941.147, 614.358 936.221, 602.438 934.073 C 588.393 931.541, 578.803 936.221, 560.305 954.634 C 545.740 969.132, 540.946 972.215, 533.060 972.154 C 525.984 972.099, 520.759 968.991, 512.056 959.660 C 497.641 944.203, 493.081 940.165, 486.255 936.808 C 480.148 933.804, 478.699 933.500, 470.492 933.500 C 462.221 933.500, 460.861 933.791, 454.477 936.929 C 448.689 939.773, 445.030 942.850, 433 954.983 C 416.599 971.526, 413.600 973.428, 404.915 972.800 C 396.710 972.207, 391.133 968.105, 378.450 953.334 C 371.827 945.621, 365.812 939.704, 362.016 937.170 C 353.896 931.747, 344.901 929.915, 336.383 931.949" stroke="none" fill="#f7f7f7" fill-rule="evenodd"/></svg>