<svg xmlns="http://www.w3.org/2000/svg" width="1272" height="960" viewBox="0 0 1272 960" version="1.1"><path d="M 584.500 414.602 C 576.405 415.194, 520.867 417.883, 503.500 418.525 C 480.999 419.356, 459.964 421.488, 435 425.466 C 404.783 430.282, 393.740 431.678, 367.500 433.998 C 332.335 437.106, 326.209 438.363, 297 448.456 C 288.021 451.559, 275.965 454.609, 261 457.563 C 234.516 462.792, 229.687 464.246, 212.671 472.118 C 205.614 475.382, 193.406 480.459, 185.541 483.401 C 177.676 486.342, 166.107 491.655, 159.832 495.206 C 153.557 498.758, 142.815 504.036, 135.962 506.936 C 129.108 509.835, 121.375 513.550, 118.778 515.190 C 100.329 526.842, 96.826 551.759, 111.564 566.497 C 115.654 570.587, 136.372 584.509, 147.034 590.332 C 150.590 592.274, 157.100 595.272, 161.500 596.993 C 165.900 598.715, 177.375 603.900, 187 608.515 C 203.118 616.243, 206.079 617.292, 224.500 621.802 C 237.370 624.952, 249.134 628.576, 257.500 631.966 C 278.408 640.440, 284.584 641.944, 327.500 649.014 C 337.950 650.735, 354.009 653.902, 363.186 656.052 C 407.149 666.349, 441.130 669.649, 517 670.986 C 544.775 671.476, 580.092 672.416, 595.483 673.076 C 618.963 674.083, 630.790 674.017, 668.983 672.664 C 694.017 671.778, 724.625 670.800, 737 670.491 C 799.183 668.938, 839.261 664.825, 869.905 656.852 C 893.429 650.730, 895.420 650.297, 915.178 646.994 C 939.478 642.931, 950.395 640.231, 969.166 633.642 C 977.782 630.618, 992.407 626.483, 1001.666 624.454 C 1023.699 619.626, 1033.027 616.499, 1048.622 608.713 C 1055.705 605.177, 1067.350 599.919, 1074.500 597.030 C 1088.006 591.572, 1119.437 575.097, 1127.482 569.259 C 1133.185 565.121, 1137.572 558.386, 1138.970 551.625 C 1140.213 545.613, 1138.437 537.130, 1134.544 530.486 C 1131.184 524.751, 1122.666 517.052, 1114.246 512.139 C 1098.818 503.138, 1069.963 489.916, 1051.837 483.542 C 1041.572 479.932, 1028.164 474.747, 1022.042 472.019 C 1006.562 465.121, 997.824 462.550, 976.223 458.538 C 961.542 455.810, 953.059 453.537, 936.932 448.008 C 911.951 439.445, 898.883 436.770, 868.500 434.003 C 841.073 431.505, 830.081 429.980, 807.500 425.536 C 788.095 421.717, 775.462 420.345, 752 419.508 C 742.925 419.184, 728.750 418.499, 720.500 417.985 C 692.316 416.229, 595.272 413.815, 584.500 414.602 M 583.500 462.680 C 554.682 465.157, 539.951 466.185, 521.023 467.040 C 492.986 468.305, 463.670 470.504, 441.500 473.004 C 432.150 474.059, 411.450 476.081, 395.500 477.498 C 356.424 480.968, 349.556 482.189, 328 489.500 C 313.749 494.333, 306.136 496.179, 281 500.895 C 256.661 505.462, 250.610 507.314, 232.409 515.769 C 225.309 519.067, 214.910 523.435, 209.299 525.476 C 197.212 529.872, 190.731 533.753, 188.002 538.229 C 182.399 547.418, 188.137 554.534, 211.152 566.943 C 222.574 573.101, 232.270 576.291, 255.500 581.534 C 267.050 584.141, 284.150 588.709, 293.500 591.686 C 313.785 598.145, 317.315 599.003, 340 602.995 C 349.625 604.689, 368.003 608.086, 380.839 610.544 C 447.065 623.227, 474.259 625.906, 538 626.028 C 552.025 626.055, 576.325 626.504, 592 627.026 C 620.286 627.969, 669.488 627.234, 731.500 624.943 C 785.080 622.964, 797.980 621.484, 857.500 610.492 C 870.700 608.055, 889.836 604.715, 900.025 603.071 C 921.368 599.626, 936.697 595.838, 953 589.980 C 963.713 586.130, 974.253 583.344, 998.158 578.041 C 1008.560 575.733, 1018.928 571.157, 1033.463 562.456 C 1043.386 556.517, 1045.711 554.723, 1048.281 551.027 C 1050.563 547.746, 1050.462 541.483, 1048.064 537.603 C 1044.226 531.394, 1039.313 528.779, 1013.500 519.206 C 991.658 511.106, 972.548 505.673, 947.857 500.545 C 938.311 498.563, 917.900 493.589, 902.500 489.494 C 870.362 480.946, 864.101 479.772, 836 477.022 C 824.725 475.918, 809.200 474.115, 801.500 473.015 C 793.800 471.915, 778.500 470.548, 767.500 469.978 C 756.500 469.408, 737.150 468.278, 724.500 467.467 C 702.887 466.082, 688.798 465.399, 632.500 463.010 C 610.432 462.074, 591.999 461.949, 583.500 462.680" stroke="none" fill="#8c8c8c" fill-rule="evenodd"/><path d="M 0 480.001 L 0 960.002 636.250 959.751 L 1272.500 959.500 1272.751 479.750 L 1273.002 0 636.501 0 L 0 0 0 480.001 M 0.496 480.500 C 0.496 744.500, 0.610 852.351, 0.750 720.168 C 0.890 587.986, 0.890 371.986, 0.750 240.168 C 0.610 108.351, 0.496 216.500, 0.496 480.500 M 584.500 414.602 C 576.405 415.194, 520.867 417.883, 503.500 418.525 C 480.999 419.356, 459.964 421.488, 435 425.466 C 404.783 430.282, 393.740 431.678, 367.500 433.998 C 332.335 437.106, 326.209 438.363, 297 448.456 C 288.021 451.559, 275.965 454.609, 261 457.563 C 234.516 462.792, 229.687 464.246, 212.671 472.118 C 205.614 475.382, 193.406 480.459, 185.541 483.401 C 177.676 486.342, 166.107 491.655, 159.832 495.206 C 153.557 498.758, 142.815 504.036, 135.962 506.936 C 129.108 509.835, 121.375 513.550, 118.778 515.190 C 100.329 526.842, 96.826 551.759, 111.564 566.497 C 115.654 570.587, 136.372 584.509, 147.034 590.332 C 150.590 592.274, 157.100 595.272, 161.500 596.993 C 165.900 598.715, 177.375 603.900, 187 608.515 C 203.118 616.243, 206.079 617.292, 224.500 621.802 C 237.370 624.952, 249.134 628.576, 257.500 631.966 C 278.408 640.440, 284.584 641.944, 327.500 649.014 C 337.950 650.735, 354.009 653.902, 363.186 656.052 C 407.149 666.349, 441.130 669.649, 517 670.986 C 544.775 671.476, 580.092 672.416, 595.483 673.076 C 618.963 674.083, 630.790 674.017, 668.983 672.664 C 694.017 671.778, 724.625 670.800, 737 670.491 C 799.183 668.938, 839.261 664.825, 869.905 656.852 C 893.429 650.730, 895.420 650.297, 915.178 646.994 C 939.478 642.931, 950.395 640.231, 969.166 633.642 C 977.782 630.618, 992.407 626.483, 1001.666 624.454 C 1023.699 619.626, 1033.027 616.499, 1048.622 608.713 C 1055.705 605.177, 1067.350 599.919, 1074.500 597.030 C 1088.006 591.572, 1119.437 575.097, 1127.482 569.259 C 1133.185 565.121, 1137.572 558.386, 1138.970 551.625 C 1140.213 545.613, 1138.437 537.130, 1134.544 530.486 C 1131.184 524.751, 1122.666 517.052, 1114.246 512.139 C 1098.818 503.138, 1069.963 489.916, 1051.837 483.542 C 1041.572 479.932, 1028.164 474.747, 1022.042 472.019 C 1006.562 465.121, 997.824 462.550, 976.223 458.538 C 961.542 455.810, 953.059 453.537, 936.932 448.008 C 911.951 439.445, 898.883 436.770, 868.500 434.003 C 841.073 431.505, 830.081 429.980, 807.500 425.536 C 788.095 421.717, 775.462 420.345, 752 419.508 C 742.925 419.184, 728.750 418.499, 720.500 417.985 C 692.316 416.229, 595.272 413.815, 584.500 414.602 M 583.500 462.680 C 554.682 465.157, 539.951 466.185, 521.023 467.040 C 492.986 468.305, 463.670 470.504, 441.500 473.004 C 432.150 474.059, 411.450 476.081, 395.500 477.498 C 356.424 480.968, 349.556 482.189, 328 489.500 C 313.749 494.333, 306.136 496.179, 281 500.895 C 256.661 505.462, 250.610 507.314, 232.409 515.769 C 225.309 519.067, 214.910 523.435, 209.299 525.476 C 197.212 529.872, 190.731 533.753, 188.002 538.229 C 182.399 547.418, 188.137 554.534, 211.152 566.943 C 222.574 573.101, 232.270 576.291, 255.500 581.534 C 267.050 584.141, 284.150 588.709, 293.500 591.686 C 313.785 598.145, 317.315 599.003, 340 602.995 C 349.625 604.689, 368.003 608.086, 380.839 610.544 C 447.065 623.227, 474.259 625.906, 538 626.028 C 552.025 626.055, 576.325 626.504, 592 627.026 C 620.286 627.969, 669.488 627.234, 731.500 624.943 C 785.080 622.964, 797.980 621.484, 857.500 610.492 C 870.700 608.055, 889.836 604.715, 900.025 603.071 C 921.368 599.626, 936.697 595.838, 953 589.980 C 963.713 586.130, 974.253 583.344, 998.158 578.041 C 1008.560 575.733, 1018.928 571.157, 1033.463 562.456 C 1043.386 556.517, 1045.711 554.723, 1048.281 551.027 C 1050.563 547.746, 1050.462 541.483, 1048.064 537.603 C 1044.226 531.394, 1039.313 528.779, 1013.500 519.206 C 991.658 511.106, 972.548 505.673, 947.857 500.545 C 938.311 498.563, 917.900 493.589, 902.500 489.494 C 870.362 480.946, 864.101 479.772, 836 477.022 C 824.725 475.918, 809.200 474.115, 801.500 473.015 C 793.800 471.915, 778.500 470.548, 767.500 469.978 C 756.500 469.408, 737.150 468.278, 724.500 467.467 C 702.887 466.082, 688.798 465.399, 632.500 463.010 C 610.432 462.074, 591.999 461.949, 583.500 462.680" stroke="none" fill="#f8f8f8" fill-rule="evenodd"/></svg>