<?xml version="1.0" encoding="utf-8"?>
<!-- Generator: Adobe Illustrator 26.5.3, SVG Export Plug-In . SVG Version: 6.00 Build 0)  -->
<svg version="1.1" id="Layer_1" xmlns="http://www.w3.org/2000/svg" xmlns:xlink="http://www.w3.org/1999/xlink" x="0px" y="0px"
	 viewBox="0 0 63 70" style="enable-background:new 0 0 63 70;" xml:space="preserve">
<g>
	<g>
		<path d="M35.1,38.9c-0.7,4.7-1.2,9.2-0.5,13.7c0.2,1,0.1,2,0,3c-0.5,3.7-0.5,3.8,2.9,5.3c0.6,0.3,1.3,0.4,1.9,0.5
			c0.6,0.1,1.2,0.4,1.1,1.1c-0.1,0.7-0.7,0.6-1.2,0.6c-1.2,0-2.5,0.3-3.5-0.2c-5.1-2-10.3-1.1-15.5-0.6c-2.3,0.2-4.6,0.7-6.9-0.1
			c-1.4-0.5-2.6,1-4,1c-0.8,0-2,0.7-2.3-0.6c-0.3-1.3,0.8-1.4,1.7-1.6c1.6-0.4,3.1-0.9,3.2-2.9c0-0.2,0.2-0.6,0.4-0.6
			c3.4-1.5,1.9-4.2,1.5-6.6c-0.3-1.8-0.8-3.6-1.1-5.4c-0.3-1.6-0.1-3.1,1.3-4c1.3-0.9,2.4,0.1,3.6,0.7c3.2,1.6,5,4.5,7.2,7.4
			c2.7-6.3,0.5-12-0.6-18.2c-1.9,1.5-2.9,3.4-4.3,5c-1.9,2.1-2.9,2-4.8-0.1c-2.2-2.6-4.1-5.4-6.5-7.9c-0.9-1-1.1-2.8-1.3-4.3
			c-0.1-0.8,0.5-1.2,1.3-0.6c1,0.8,2,1.7,2.3,2.9c0.8,3.3,3.9,4.6,5.8,7c0.5,0.6,0.8,0,1.1-0.3c0.8-1,1.7-2.1,2.5-3.1
			c1.7-2.4,3.9-4.2,7.2-5.2c-3.1-0.7-4.4-3.2-3.4-5.5c0.4-1,0.6-2.1,1-3.1c1.2-3.9,5.5-5.1,8.6-2.4c3.1,2.7,2.5,8.1-1,10.5
			c0,0.6,0.5,0.5,0.9,0.6c3,0.3,5,2,6.3,4.6c1.4,3,2.8,6,4,9.1c0.4,1,0.5,2.2-0.3,3c-0.8,0.8-1.7,0.2-2.5-0.1
			C39.1,40.4,37.3,39.7,35.1,38.9z M34.6,36.9c0,0.2-0.1,0.4-0.1,0.7c2.1,0.8,4.1,1.7,6.2,2.5c0.7,0.3,1.4,1,2,0.3
			c0.6-0.6,0.3-1.6-0.1-2.4c-1.2-2.6-2.4-5.3-3.6-7.9c-1-2-2.2-3.7-4.6-4.2c-2.6-0.6-4.5-2.9-4-5.6c0.3-1.6-0.3-1.9-1.5-2.1
			c-0.9-0.2-1.7-0.7-1.5,0.9c0.1,0.6-0.6,0.8-1.1,0.7c-0.7,0-2-0.4-1.7,0.5c0.3,0.9,0.5,2.4,1.8,2.7c0.7,0.2,1.7-0.5,1.8,0.9
			c0.1,1.3-0.8,1.7-1.7,2.1c-2.1,0.9-3.9,2.1-5.2,4.1c-0.9,1.5-2.2,2.7-3.2,4.1c-0.7,1-1.2,1-1.9,0c-0.8-1.2-1.8-2.1-3.1-2.6
			c0.8,1.4,1.9,2.6,2.8,3.9c1.1,1.6,2.1,1.3,3.2,0.1c1.4-1.7,2.7-3.4,4.1-5c0.4-0.4,0.6-1.1,1.3-1c0.8,0.1,0.6,0.9,0.7,1.4
			c1,5.8,3.1,11.6,1.2,17.7c-0.4,1.3,0.2,1.6,1.4,1.3c5.4-1.2,5.4-1.1,5.8-6.9c0.1-1.1,0.3-2.1,0.4-3.2c0.1-0.6,0.2-1.4-0.4-1.6
			c-2.9-0.6-3.7-3.5-5.7-5.1c-0.4-0.4-0.7-0.8-0.5-1.3c0.2-0.6,0.8-0.5,1.3-0.4c1.6,0.3,2.7,1.1,3.3,2.7c0.4,0.8,1.1,1.4,1.9,1.3
			c0.9-0.1,0.4-1.1,0.6-1.7c0.2-0.7,0.4-1.4,0.8-2.1c1.2-1.7,2.1-1.7,3,0.2c0.8,1.6,1.5,3.2,2.2,4.7c0.2,0.5,0.7,1,0.2,1.6
			c-0.4,0.5-0.9,0-1.4-0.1C37.8,37.7,36.2,37.3,34.6,36.9z M24.1,57.6c2,0,3.7,0.6,5.4,1.1c2.6,0.6,3.5,0,4-2.6
			c0.3-1.8,0.1-3.5-0.2-5.2c-0.2-1.2-0.7-1.5-1.9-1.2c-5.2,1.3-10,3.4-14.7,5.9c-0.6,0.3-2.1,0.3-1.4,1.7c0.5,1.1,1.2,2,2.7,1.3
			C20.1,57.8,22.3,58,24.1,57.6z M17.5,53.8c2.6-0.7,4.7-1.9,7-3.1c-2.1-2.3-3.3-5.2-6-6.8c-0.5-0.3-1-1.3-1.6-0.7
			c-0.7,0.6-1.2,1.5-0.6,2.5C17.7,48.1,17.6,50.8,17.5,53.8z M35.4,61.3c-1.3-0.1-1.4-2.3-3-1.7c-1.3,0.5-2.4,0.2-3.6-0.2
			c-3.3-1.2-6.7-1-10,0.1c-1.7,0.6-3,0.6-4-1.2c-0.2-0.4-0.6-1.1-1.4-0.7c-0.6,0.4-0.9,1-0.8,1.7c0.2,1.4,1.1,2,2.4,2.1
			c1.5,0.1,3,0.1,4.5-0.1C24.7,60.8,30,59.8,35.4,61.3z M34.5,18.8c0.1-3.6-1.6-5.6-4.2-5.7c-1.7,0-3.5,0.5-3.7,2.2
			c-0.2,1.6,1.9,1.8,3,1.8c2.5,0,3.2,0.6,2,2.9c-0.4,0.8-0.2,2,0.9,2.3c1,0.3,1.4-0.6,1.7-1.4C34.4,20,34.4,19.1,34.5,18.8z
			 M15.6,54.8c0.3,0,0.5-0.1,0.8-0.1c0.2-2.5,0.7-5-0.5-7.4c-0.7-1.3-1.2-2.5-0.4-4c0.2-0.4,0.4-0.9-0.1-1.1c-0.5-0.3-1,0-1.3,0.5
			c-0.4,0.6-0.6,1.4-0.5,2.1C14.3,48.1,15,51.4,15.6,54.8z M36.8,31.6c-1.3,1.3-1.8,2.8-1.1,4c0.6,1,2.2,1.1,3.6,1.1
			C38.6,34.9,38.1,33.2,36.8,31.6z"/>
		<path d="M55.4,6.2c-2.2,0.6-4.1,0.3-6,0.3c-3.2,0.1-6.3,0-9.5,0c-1.6,0-3.4-0.3-4.2,1.7c0,0.1-0.1,0.1-0.2,0.2
			c-1.9,1.5-7.6,1.1-9.2-0.9c-0.8-1-1.6-1-2.6-1c-4.7,0-9.3,0-14,0c-0.8,0-1.6,0.3-2.4-0.4c0.6-0.8,1.4-0.5,2.1-0.5
			c4.7,0,9.5,0,14.2,0c0.6,0,1.5,0.2,1.7-0.1c1.7-2.8,4.5-1.9,7-2.3c1.3-0.2,2.5-0.1,3.1,0.9c1,1.5,2.4,1.5,3.9,1.4
			c4.4,0,8.8,0,13.2,0C53.5,5.5,54.4,5.2,55.4,6.2z M30.9,6.2C31,5,30.6,4,29.3,4.1c-1.2,0.1-2.4,0.7-2.3,2.1C27,7.4,28.1,8,29.3,8
			C30.6,8.1,31,7.3,30.9,6.2z M31.9,6.1c-0.1,1,0.1,1.9,1.4,1.9c1.2,0,2.2-0.6,2.3-1.8c0.1-1.3-0.9-2-2.2-2.2
			C32.1,4,31.8,4.9,31.9,6.1z"/>
		<path d="M53.9,62.5c0-7.6,0-15.3,0-22.9c0.2,0,0.3,0,0.5,0c0,7.7,0,15.3,0,23C54.3,62.5,54.1,62.5,53.9,62.5z"/>
	</g>
</g>
</svg>
