<svg xmlns="http://www.w3.org/2000/svg" width="1272" height="860" viewBox="0 0 1272 860" version="1.1"><path d="M 736.500 47.061 C 685.496 47.726, 683.575 47.886, 672.904 52.383 C 663.192 56.475, 653.606 67.824, 648.583 81.178 C 640.331 103.118, 635.234 140.046, 636.231 170.680 C 636.662 183.938, 637.054 186.543, 639.951 195.398 C 643.464 206.136, 652.388 227.860, 657.241 237.485 C 663.368 249.636, 680.964 279.869, 689.443 292.812 C 694.240 300.133, 701.077 311.584, 704.638 318.259 C 708.199 324.933, 714.537 336.208, 718.723 343.314 C 730.795 363.808, 731.140 365.107, 732.077 393.500 C 732.512 406.700, 733.334 428.750, 733.903 442.500 C 736.800 512.476, 736.203 574.372, 732.458 592.586 C 729.288 607.995, 719.921 629.761, 713.309 637.080 C 704.330 647.018, 697.701 648.541, 657 650.016 C 611.267 651.674, 599.332 653.744, 590.136 661.615 C 579.333 670.863, 579.596 682.280, 590.727 687.204 C 594.962 689.077, 596.580 689.209, 607.951 688.605 C 614.853 688.238, 623.425 687.525, 627 687.020 C 638.628 685.378, 704.080 684.598, 719.500 685.918 C 750.942 688.609, 763.552 690.294, 785 694.668 C 818.069 701.414, 831.121 701.026, 848 692.798 C 860.744 686.586, 869.112 674.914, 872.435 658.716 C 873.313 654.435, 874.456 642.399, 874.976 631.971 C 876.042 610.563, 876.974 605.872, 880.953 601.893 C 885.956 596.890, 887.514 596.936, 907.500 602.689 C 913.666 604.463, 922.571 603.770, 927.787 601.109 C 931.995 598.962, 938.946 591.888, 943.787 584.826 C 952.546 572.049, 959.059 572.856, 971.136 588.214 C 980.155 599.684, 982.420 603.183, 992.869 621.796 C 1007.728 648.265, 1025.967 674.266, 1037.555 685.500 C 1050.609 698.155, 1061.744 702.481, 1093 707.042 C 1122.014 711.275, 1130.823 713.176, 1148.946 719.117 C 1163.681 723.947, 1164.811 724.164, 1173.528 723.840 C 1181.631 723.538, 1183.217 723.158, 1187.551 720.476 C 1193.773 716.627, 1197.533 711.193, 1199.577 703.098 C 1200.992 697.496, 1201.042 695.062, 1199.977 683.598 C 1198.684 669.680, 1198.621 670.240, 1203.500 652.016 C 1205.530 644.433, 1205.123 636.478, 1202.400 630.500 C 1199.607 624.369, 1195.014 618.926, 1177.507 601 C 1168.644 591.925, 1160.027 582.700, 1158.358 580.500 C 1154.150 574.953, 1145.245 559.976, 1132.495 537 C 1113.157 502.150, 1088.861 460.829, 1078.990 446 C 1073.681 438.025, 1066.032 425.875, 1061.992 419 C 1051.470 401.097, 1041.867 386.599, 1029.536 370 C 1023.611 362.025, 1010.480 343.125, 1000.356 328 C 990.231 312.875, 978.810 296.225, 974.975 291 C 971.141 285.775, 964.433 275.875, 960.070 269 C 951.499 255.495, 932.839 229.300, 922.761 216.627 C 910.679 201.433, 887.924 181.489, 864.967 165.971 C 836.139 146.486, 831.976 138.815, 830.523 102.500 C 829.647 80.589, 828.461 72.666, 824.988 65.500 C 821.546 58.399, 818.514 54.961, 812.747 51.622 C 803.743 46.409, 800.664 46.225, 736.500 47.061 M 718.500 81.677 C 702.385 83.050, 692.545 86.717, 689.425 92.510 C 687.960 95.230, 687.781 96.424, 688.636 97.765 C 689.834 99.643, 691.406 99.717, 704 98.484 C 710.445 97.853, 712.855 98.119, 721.135 100.375 C 732.707 103.528, 738.059 103.637, 751.064 100.987 C 760.037 99.158, 761.517 99.101, 767.221 100.360 C 770.674 101.123, 776.314 102.816, 779.753 104.123 C 785.525 106.317, 786.216 106.383, 788.722 104.979 C 794.315 101.847, 794.234 92.301, 788.566 86.633 C 783.457 81.523, 779.542 80.979, 749.307 81.168 C 734.563 81.261, 720.700 81.490, 718.500 81.677 M 677.047 134.950 C 668.968 143.598, 668.483 174.353, 676.064 197.314 C 679.018 206.259, 690.573 229.240, 700.544 246 C 705.289 253.975, 712.311 266.321, 716.149 273.436 C 719.986 280.551, 727.074 292.476, 731.900 299.936 C 736.725 307.396, 743.064 317.775, 745.986 323 C 748.907 328.225, 757.541 342.015, 765.171 353.645 C 772.800 365.275, 783.234 382.150, 788.357 391.145 C 805.421 421.110, 820.697 447.411, 825.782 455.581 C 831.737 465.149, 838.905 479.299, 845.495 494.500 C 857.859 523.016, 874.584 545.129, 889.356 552.490 C 898.101 556.848, 905.859 555.154, 909.875 548.009 C 911.553 545.022, 912.313 541.287, 913.072 532.295 C 914.268 518.112, 915.949 511.750, 919.966 506.205 C 924.782 499.558, 930.078 496.617, 938.048 496.167 C 954.347 495.246, 961.980 501.869, 976.926 529.902 C 980.856 537.273, 986.608 547.173, 989.707 551.902 C 992.806 556.631, 1003.588 574.373, 1013.667 591.329 C 1042.497 639.833, 1058.019 660.121, 1071.769 667.273 C 1075.471 669.199, 1080.997 671.486, 1084.050 672.357 C 1093.360 675.012, 1117.908 679.040, 1128.716 679.687 C 1144.866 680.652, 1151 677.224, 1151 667.231 C 1151 661.329, 1148.696 654.833, 1141.093 639.300 C 1129.687 615.997, 1125.452 610.439, 1097.567 582.171 C 1075.966 560.272, 1063.593 549.048, 1040.197 530.127 C 1031.230 522.875, 1020.205 513.751, 1015.697 509.851 C 1011.189 505.951, 999.625 496.569, 990 489.001 C 980.375 481.433, 967.515 470.800, 961.421 465.371 C 950.419 455.568, 948.249 453.835, 930 440.270 C 924.775 436.386, 914.650 427.722, 907.501 421.017 C 900.352 414.312, 888.348 404.119, 880.825 398.366 C 873.303 392.613, 861.603 383.134, 854.824 377.301 C 848.046 371.469, 837.100 362.632, 830.500 357.665 C 815.742 346.557, 807.430 338.677, 790.820 320.045 C 768.820 295.368, 764.060 286.355, 764.021 269.295 C 763.985 253.679, 770.090 241.347, 782.308 232.352 C 795.657 222.525, 810.576 223.124, 814.041 233.625 C 815.794 238.937, 814.671 243.223, 808.864 253.373 C 797.294 273.594, 801.159 283.248, 833.956 316.044 C 847.587 329.674, 856.607 337.671, 868 346.227 C 876.525 352.629, 888.900 362.482, 895.500 368.121 C 902.100 373.760, 915.150 384.447, 924.500 391.869 C 933.850 399.291, 948.700 411.504, 957.500 419.009 C 966.300 426.514, 979.125 437.096, 986 442.524 C 992.875 447.952, 1003.977 457.005, 1010.671 462.641 C 1027.534 476.838, 1034.139 481.534, 1040.698 483.988 C 1048.178 486.787, 1052.067 486.378, 1053.867 482.606 C 1055.065 480.094, 1055.023 478.903, 1053.555 473.606 C 1052.624 470.248, 1050.498 464.800, 1048.830 461.500 C 1046.317 456.527, 990.686 372.524, 968.689 340.486 C 965.285 335.528, 958.901 325.853, 954.502 318.986 C 950.103 312.119, 941.748 300.200, 935.935 292.500 C 930.123 284.800, 921.714 273.045, 917.249 266.377 C 893.175 230.427, 878.183 215.042, 846.500 193.768 C 824.418 178.942, 817.534 172.183, 806.697 154.686 C 798.248 141.045, 794.430 137, 790.007 137 C 786.200 137, 773.260 145.736, 767.767 152.016 C 765.402 154.720, 761.009 161.275, 758.006 166.581 C 744.180 191.015, 729.704 191.342, 717.311 167.500 C 711.159 155.664, 708.158 152.032, 697.321 143.301 C 681.160 130.282, 681.339 130.355, 677.047 134.950 M 429 216.136 C 413.357 217.739, 390.501 224.480, 361.192 236.138 C 337.750 245.462, 316.119 257.794, 293 275.014 C 284.475 281.364, 271.652 290.596, 264.504 295.530 C 256.082 301.342, 247.986 308.038, 241.504 314.550 C 222.419 333.722, 198.328 359.564, 187.946 372 C 158.321 407.487, 131.287 429.339, 94.160 447.809 C 69.068 460.291, 62.616 466.764, 62.568 479.500 C 62.536 487.802, 65.876 493.479, 78.967 507.376 C 84.774 513.540, 92.635 523.195, 96.436 528.832 C 106.841 544.263, 113.783 549.514, 125.325 550.685 C 132.638 551.427, 140.880 548.414, 156 539.474 C 178.428 526.212, 199.425 517.418, 214.500 514.974 C 219.297 514.196, 229.839 514.056, 248 514.530 C 297.010 515.808, 319.367 512, 350.719 497.031 C 367.719 488.915, 377.660 481.433, 396.535 462.546 C 405.904 453.171, 416.763 441.225, 420.666 436 C 431.076 422.064, 444.150 402.205, 448.802 393.264 C 453.456 384.318, 465.971 353.169, 469.007 342.978 C 473.832 326.775, 483.121 274.336, 484.609 254.896 C 487.014 223.467, 470.412 211.895, 429 216.136 M 431 270.717 C 419.997 272.452, 395.482 284.549, 375.500 298.105 C 358.521 309.623, 344.984 321.062, 320.925 344.221 C 303.499 360.994, 294.500 370.578, 284.513 383 C 277.217 392.075, 268.931 402.356, 266.099 405.846 C 253.402 421.500, 253.285 427.874, 265.455 440.887 C 274.177 450.213, 275.668 452.846, 277.609 462.341 C 279.321 470.722, 281.251 473.815, 286.347 476.348 C 295.311 480.803, 309.115 479.013, 327.300 471.035 C 349.625 461.241, 366.997 448.327, 382.392 430.079 C 400.714 408.363, 409.966 395.017, 418.513 377.974 C 431.665 351.749, 445.018 309.789, 446.747 289.252 C 447.821 276.499, 441.503 269.062, 431 270.717 M 194.500 417.894 C 191.750 419.499, 182.075 426.772, 173 434.057 C 163.925 441.342, 149.975 451.670, 142 457.007 C 127.664 466.602, 119.861 473.606, 117.972 478.573 C 114.960 486.496, 118.737 495.997, 126.777 500.723 C 130.758 503.064, 132.600 503.493, 138.500 503.455 C 144.645 503.416, 147.393 502.667, 161 497.324 C 169.525 493.977, 178.975 490.455, 182 489.497 C 193.883 485.734, 205 477.881, 205 473.250 C 205 472.325, 203.372 466.855, 201.383 461.093 C 198.135 451.687, 197.815 449.844, 198.248 443.058 C 198.538 438.527, 199.817 432.416, 201.442 427.799 C 205.859 415.250, 203.878 412.423, 194.500 417.894 M 773.814 454.932 C 768.552 459.070, 767.440 469.883, 768.815 503.500 C 769.669 524.368, 770.088 528.267, 772.020 533.381 C 776.511 545.267, 785.938 551.972, 798.185 551.990 C 805.946 552.002, 809.385 550.914, 813.376 547.186 C 820.030 540.971, 822.037 528.127, 818.106 516.907 C 814.891 507.728, 794.400 466.753, 790.686 462.078 C 787.058 457.510, 780.715 453.014, 777.885 453.005 C 776.997 453.002, 775.164 453.869, 773.814 454.932 M 781.821 590.440 C 776.211 591.896, 770.797 595.828, 767.511 600.831 C 763.265 607.295, 758.722 622.574, 758.223 632.067 C 757.711 641.810, 759.185 646.009, 765.170 651.863 C 776.648 663.088, 812.097 670.331, 825.500 664.189 C 838.977 658.013, 843.902 645.202, 842.680 619.500 C 842.052 606.290, 841.101 601.950, 837.726 596.882 C 833.475 590.499, 830.255 589.718, 807.097 589.457 C 793.439 589.303, 784.924 589.634, 781.821 590.440" stroke="none" fill="#969696" fill-rule="evenodd"/><path d="M 0 430.001 L 0 860.002 636.250 859.751 L 1272.500 859.500 1272.751 429.750 L 1273.002 -0 636.501 -0 L 0 0 0 430.001 M 0.495 430.500 C 0.495 667, 0.610 763.601, 0.750 645.168 C 0.890 526.736, 0.890 333.236, 0.750 215.168 C 0.610 97.101, 0.495 194, 0.495 430.500 M 736.500 47.061 C 685.496 47.726, 683.575 47.886, 672.904 52.383 C 663.192 56.475, 653.606 67.824, 648.583 81.178 C 640.331 103.118, 635.234 140.046, 636.231 170.680 C 636.662 183.938, 637.054 186.543, 639.951 195.398 C 643.464 206.136, 652.388 227.860, 657.241 237.485 C 663.368 249.636, 680.964 279.869, 689.443 292.812 C 694.240 300.133, 701.077 311.584, 704.638 318.259 C 708.199 324.933, 714.537 336.208, 718.723 343.314 C 730.795 363.808, 731.140 365.107, 732.077 393.500 C 732.512 406.700, 733.334 428.750, 733.903 442.500 C 736.800 512.476, 736.203 574.372, 732.458 592.586 C 729.288 607.995, 719.921 629.761, 713.309 637.080 C 704.330 647.018, 697.701 648.541, 657 650.016 C 611.267 651.674, 599.332 653.744, 590.136 661.615 C 579.333 670.863, 579.596 682.280, 590.727 687.204 C 594.962 689.077, 596.580 689.209, 607.951 688.605 C 614.853 688.238, 623.425 687.525, 627 687.020 C 638.628 685.378, 704.080 684.598, 719.500 685.918 C 750.942 688.609, 763.552 690.294, 785 694.668 C 818.069 701.414, 831.121 701.026, 848 692.798 C 860.744 686.586, 869.112 674.914, 872.435 658.716 C 873.313 654.435, 874.456 642.399, 874.976 631.971 C 876.042 610.563, 876.974 605.872, 880.953 601.893 C 885.956 596.890, 887.514 596.936, 907.500 602.689 C 913.666 604.463, 922.571 603.770, 927.787 601.109 C 931.995 598.962, 938.946 591.888, 943.787 584.826 C 952.546 572.049, 959.059 572.856, 971.136 588.214 C 980.155 599.684, 982.420 603.183, 992.869 621.796 C 1007.728 648.265, 1025.967 674.266, 1037.555 685.500 C 1050.609 698.155, 1061.744 702.481, 1093 707.042 C 1122.014 711.275, 1130.823 713.176, 1148.946 719.117 C 1163.681 723.947, 1164.811 724.164, 1173.528 723.840 C 1181.631 723.538, 1183.217 723.158, 1187.551 720.476 C 1193.773 716.627, 1197.533 711.193, 1199.577 703.098 C 1200.992 697.496, 1201.042 695.062, 1199.977 683.598 C 1198.684 669.680, 1198.621 670.240, 1203.500 652.016 C 1205.530 644.433, 1205.123 636.478, 1202.400 630.500 C 1199.607 624.369, 1195.014 618.926, 1177.507 601 C 1168.644 591.925, 1160.027 582.700, 1158.358 580.500 C 1154.150 574.953, 1145.245 559.976, 1132.495 537 C 1113.157 502.150, 1088.861 460.829, 1078.990 446 C 1073.681 438.025, 1066.032 425.875, 1061.992 419 C 1051.470 401.097, 1041.867 386.599, 1029.536 370 C 1023.611 362.025, 1010.480 343.125, 1000.356 328 C 990.231 312.875, 978.810 296.225, 974.975 291 C 971.141 285.775, 964.433 275.875, 960.070 269 C 951.499 255.495, 932.839 229.300, 922.761 216.627 C 910.679 201.433, 887.924 181.489, 864.967 165.971 C 836.139 146.486, 831.976 138.815, 830.523 102.500 C 829.647 80.589, 828.461 72.666, 824.988 65.500 C 821.546 58.399, 818.514 54.961, 812.747 51.622 C 803.743 46.409, 800.664 46.225, 736.500 47.061 M 718.500 81.677 C 702.385 83.050, 692.545 86.717, 689.425 92.510 C 687.960 95.230, 687.781 96.424, 688.636 97.765 C 689.834 99.643, 691.406 99.717, 704 98.484 C 710.445 97.853, 712.855 98.119, 721.135 100.375 C 732.707 103.528, 738.059 103.637, 751.064 100.987 C 760.037 99.158, 761.517 99.101, 767.221 100.360 C 770.674 101.123, 776.314 102.816, 779.753 104.123 C 785.525 106.317, 786.216 106.383, 788.722 104.979 C 794.315 101.847, 794.234 92.301, 788.566 86.633 C 783.457 81.523, 779.542 80.979, 749.307 81.168 C 734.563 81.261, 720.700 81.490, 718.500 81.677 M 677.047 134.950 C 668.968 143.598, 668.483 174.353, 676.064 197.314 C 679.018 206.259, 690.573 229.240, 700.544 246 C 705.289 253.975, 712.311 266.321, 716.149 273.436 C 719.986 280.551, 727.074 292.476, 731.900 299.936 C 736.725 307.396, 743.064 317.775, 745.986 323 C 748.907 328.225, 757.541 342.015, 765.171 353.645 C 772.800 365.275, 783.234 382.150, 788.357 391.145 C 805.421 421.110, 820.697 447.411, 825.782 455.581 C 831.737 465.149, 838.905 479.299, 845.495 494.500 C 857.859 523.016, 874.584 545.129, 889.356 552.490 C 898.101 556.848, 905.859 555.154, 909.875 548.009 C 911.553 545.022, 912.313 541.287, 913.072 532.295 C 914.268 518.112, 915.949 511.750, 919.966 506.205 C 924.782 499.558, 930.078 496.617, 938.048 496.167 C 954.347 495.246, 961.980 501.869, 976.926 529.902 C 980.856 537.273, 986.608 547.173, 989.707 551.902 C 992.806 556.631, 1003.588 574.373, 1013.667 591.329 C 1042.497 639.833, 1058.019 660.121, 1071.769 667.273 C 1075.471 669.199, 1080.997 671.486, 1084.050 672.357 C 1093.360 675.012, 1117.908 679.040, 1128.716 679.687 C 1144.866 680.652, 1151 677.224, 1151 667.231 C 1151 661.329, 1148.696 654.833, 1141.093 639.300 C 1129.687 615.997, 1125.452 610.439, 1097.567 582.171 C 1075.966 560.272, 1063.593 549.048, 1040.197 530.127 C 1031.230 522.875, 1020.205 513.751, 1015.697 509.851 C 1011.189 505.951, 999.625 496.569, 990 489.001 C 980.375 481.433, 967.515 470.800, 961.421 465.371 C 950.419 455.568, 948.249 453.835, 930 440.270 C 924.775 436.386, 914.650 427.722, 907.501 421.017 C 900.352 414.312, 888.348 404.119, 880.825 398.366 C 873.303 392.613, 861.603 383.134, 854.824 377.301 C 848.046 371.469, 837.100 362.632, 830.500 357.665 C 815.742 346.557, 807.430 338.677, 790.820 320.045 C 768.820 295.368, 764.060 286.355, 764.021 269.295 C 763.985 253.679, 770.090 241.347, 782.308 232.352 C 795.657 222.525, 810.576 223.124, 814.041 233.625 C 815.794 238.937, 814.671 243.223, 808.864 253.373 C 797.294 273.594, 801.159 283.248, 833.956 316.044 C 847.587 329.674, 856.607 337.671, 868 346.227 C 876.525 352.629, 888.900 362.482, 895.500 368.121 C 902.100 373.760, 915.150 384.447, 924.500 391.869 C 933.850 399.291, 948.700 411.504, 957.500 419.009 C 966.300 426.514, 979.125 437.096, 986 442.524 C 992.875 447.952, 1003.977 457.005, 1010.671 462.641 C 1027.534 476.838, 1034.139 481.534, 1040.698 483.988 C 1048.178 486.787, 1052.067 486.378, 1053.867 482.606 C 1055.065 480.094, 1055.023 478.903, 1053.555 473.606 C 1052.624 470.248, 1050.498 464.800, 1048.830 461.500 C 1046.317 456.527, 990.686 372.524, 968.689 340.486 C 965.285 335.528, 958.901 325.853, 954.502 318.986 C 950.103 312.119, 941.748 300.200, 935.935 292.500 C 930.123 284.800, 921.714 273.045, 917.249 266.377 C 893.175 230.427, 878.183 215.042, 846.500 193.768 C 824.418 178.942, 817.534 172.183, 806.697 154.686 C 798.248 141.045, 794.430 137, 790.007 137 C 786.200 137, 773.260 145.736, 767.767 152.016 C 765.402 154.720, 761.009 161.275, 758.006 166.581 C 744.180 191.015, 729.704 191.342, 717.311 167.500 C 711.159 155.664, 708.158 152.032, 697.321 143.301 C 681.160 130.282, 681.339 130.355, 677.047 134.950 M 429 216.136 C 413.357 217.739, 390.501 224.480, 361.192 236.138 C 337.750 245.462, 316.119 257.794, 293 275.014 C 284.475 281.364, 271.652 290.596, 264.504 295.530 C 256.082 301.342, 247.986 308.038, 241.504 314.550 C 222.419 333.722, 198.328 359.564, 187.946 372 C 158.321 407.487, 131.287 429.339, 94.160 447.809 C 69.068 460.291, 62.616 466.764, 62.568 479.500 C 62.536 487.802, 65.876 493.479, 78.967 507.376 C 84.774 513.540, 92.635 523.195, 96.436 528.832 C 106.841 544.263, 113.783 549.514, 125.325 550.685 C 132.638 551.427, 140.880 548.414, 156 539.474 C 178.428 526.212, 199.425 517.418, 214.500 514.974 C 219.297 514.196, 229.839 514.056, 248 514.530 C 297.010 515.808, 319.367 512, 350.719 497.031 C 367.719 488.915, 377.660 481.433, 396.535 462.546 C 405.904 453.171, 416.763 441.225, 420.666 436 C 431.076 422.064, 444.150 402.205, 448.802 393.264 C 453.456 384.318, 465.971 353.169, 469.007 342.978 C 473.832 326.775, 483.121 274.336, 484.609 254.896 C 487.014 223.467, 470.412 211.895, 429 216.136 M 431 270.717 C 419.997 272.452, 395.482 284.549, 375.500 298.105 C 358.521 309.623, 344.984 321.062, 320.925 344.221 C 303.499 360.994, 294.500 370.578, 284.513 383 C 277.217 392.075, 268.931 402.356, 266.099 405.846 C 253.402 421.500, 253.285 427.874, 265.455 440.887 C 274.177 450.213, 275.668 452.846, 277.609 462.341 C 279.321 470.722, 281.251 473.815, 286.347 476.348 C 295.311 480.803, 309.115 479.013, 327.300 471.035 C 349.625 461.241, 366.997 448.327, 382.392 430.079 C 400.714 408.363, 409.966 395.017, 418.513 377.974 C 431.665 351.749, 445.018 309.789, 446.747 289.252 C 447.821 276.499, 441.503 269.062, 431 270.717 M 194.500 417.894 C 191.750 419.499, 182.075 426.772, 173 434.057 C 163.925 441.342, 149.975 451.670, 142 457.007 C 127.664 466.602, 119.861 473.606, 117.972 478.573 C 114.960 486.496, 118.737 495.997, 126.777 500.723 C 130.758 503.064, 132.600 503.493, 138.500 503.455 C 144.645 503.416, 147.393 502.667, 161 497.324 C 169.525 493.977, 178.975 490.455, 182 489.497 C 193.883 485.734, 205 477.881, 205 473.250 C 205 472.325, 203.372 466.855, 201.383 461.093 C 198.135 451.687, 197.815 449.844, 198.248 443.058 C 198.538 438.527, 199.817 432.416, 201.442 427.799 C 205.859 415.250, 203.878 412.423, 194.500 417.894 M 773.814 454.932 C 768.552 459.070, 767.440 469.883, 768.815 503.500 C 769.669 524.368, 770.088 528.267, 772.020 533.381 C 776.511 545.267, 785.938 551.972, 798.185 551.990 C 805.946 552.002, 809.385 550.914, 813.376 547.186 C 820.030 540.971, 822.037 528.127, 818.106 516.907 C 814.891 507.728, 794.400 466.753, 790.686 462.078 C 787.058 457.510, 780.715 453.014, 777.885 453.005 C 776.997 453.002, 775.164 453.869, 773.814 454.932 M 781.821 590.440 C 776.211 591.896, 770.797 595.828, 767.511 600.831 C 763.265 607.295, 758.722 622.574, 758.223 632.067 C 757.711 641.810, 759.185 646.009, 765.170 651.863 C 776.648 663.088, 812.097 670.331, 825.500 664.189 C 838.977 658.013, 843.902 645.202, 842.680 619.500 C 842.052 606.290, 841.101 601.950, 837.726 596.882 C 833.475 590.499, 830.255 589.718, 807.097 589.457 C 793.439 589.303, 784.924 589.634, 781.821 590.440" stroke="none" fill="#f4f4f4" fill-rule="evenodd"/></svg>