<svg xmlns="http://www.w3.org/2000/svg" width="138" height="144" viewBox="0 0 138 144" version="1.1"><path d="M 55 11.079 C 45.955 15.168, 39.030 24.987, 39.010 33.750 L 39 38 66.500 38 C 84.167 38, 94 37.642, 94 37 C 94 36.450, 93.582 36, 93.071 36 C 92.560 36, 91.637 33.567, 91.019 30.594 C 87.542 13.841, 69.959 4.315, 55 11.079 M 57.137 12.308 C 49.203 15.323, 41.036 25.929, 41.010 33.250 L 41 36 65 36 L 89 36 88.978 32.750 C 88.932 25.983, 82.790 17.011, 75.689 13.339 C 71.643 11.247, 61.423 10.679, 57.137 12.308 M 31.479 118.029 L 27.652 123.242 25.799 120.699 C 21.769 115.166, 20.281 113.708, 19.291 114.320 C 17.402 115.488, 11.099 126.943, 12.029 127.518 C 12.790 127.988, 17.923 120.989, 19.376 117.500 C 19.605 116.950, 20.557 117.537, 21.491 118.805 C 22.426 120.072, 24.250 122.322, 25.545 123.805 L 27.899 126.500 29.545 124.195 C 30.450 122.928, 32.201 120.715, 33.437 119.278 L 35.684 116.666 39.092 121.294 C 40.967 123.839, 42.823 125.940, 43.218 125.961 C 43.613 125.982, 45.413 123.993, 47.218 121.539 C 49.023 119.085, 50.761 117.060, 51.080 117.039 C 51.400 117.018, 53.115 119.025, 54.893 121.500 C 56.670 123.975, 58.470 126, 58.893 126 C 59.315 126, 61.115 123.975, 62.893 121.500 C 64.670 119.025, 66.449 117, 66.847 117 C 67.244 117, 68.307 118.250, 69.209 119.777 C 70.111 121.304, 71.744 123.363, 72.836 124.352 C 74.774 126.106, 74.906 126.038, 78.162 121.614 C 79.998 119.119, 81.810 117.060, 82.188 117.039 C 82.566 117.018, 84.330 119.025, 86.107 121.500 C 87.885 123.975, 89.685 126, 90.107 126 C 90.530 126, 92.330 123.975, 94.107 121.500 C 97.088 117.350, 98.978 115.905, 99.015 117.750 C 99.023 118.162, 100.572 120.300, 102.457 122.500 L 105.885 126.500 107.537 124.195 C 108.446 122.928, 110.198 120.719, 111.430 119.286 L 113.671 116.681 116.909 122.341 C 118.690 125.453, 120.564 128, 121.073 128 C 122.600 128, 122.190 126.936, 117.851 119.633 C 113.217 111.832, 114.208 111.804, 107.989 119.919 L 105.479 123.195 102.177 118.597 C 100.361 116.069, 98.474 114, 97.984 114 C 97.493 114, 95.528 116.048, 93.616 118.551 L 90.141 123.103 86.820 118.590 C 84.994 116.109, 82.959 114.060, 82.298 114.039 C 81.637 114.018, 79.703 116.025, 78 118.500 C 76.297 120.975, 74.728 123, 74.514 123 C 74.300 123, 72.670 120.975, 70.893 118.500 C 69.115 116.025, 67.175 114.018, 66.580 114.039 C 65.986 114.060, 64.006 116.109, 62.180 118.590 L 58.859 123.103 55.384 118.551 C 53.472 116.048, 51.507 114, 51.016 114 C 50.526 114, 48.644 116.061, 46.836 118.579 L 43.547 123.159 41.655 120.829 C 40.615 119.548, 38.761 117.221, 37.535 115.658 L 35.305 112.816 31.479 118.029" stroke="none" fill="#1c1c1c" fill-rule="evenodd"/><path d="M -0 72.007 L -0 144.014 69.250 143.757 L 138.500 143.500 138.757 71.750 L 139.013 0 69.507 0 L 0 0 -0 72.007 M 0.474 72.500 C 0.474 112.100, 0.598 128.154, 0.750 108.176 C 0.901 88.198, 0.901 55.798, 0.750 36.176 C 0.598 16.554, 0.474 32.900, 0.474 72.500 M 55 11.079 C 45.955 15.168, 39.030 24.987, 39.010 33.750 L 39 38 66.500 38 C 84.167 38, 94 37.642, 94 37 C 94 36.450, 93.582 36, 93.071 36 C 92.560 36, 91.637 33.567, 91.019 30.594 C 87.542 13.841, 69.959 4.315, 55 11.079 M 57.137 12.308 C 49.203 15.323, 41.036 25.929, 41.010 33.250 L 41 36 65 36 L 89 36 88.978 32.750 C 88.932 25.983, 82.790 17.011, 75.689 13.339 C 71.643 11.247, 61.423 10.679, 57.137 12.308 M 31.479 118.029 L 27.652 123.242 25.799 120.699 C 21.769 115.166, 20.281 113.708, 19.291 114.320 C 17.402 115.488, 11.099 126.943, 12.029 127.518 C 12.790 127.988, 17.923 120.989, 19.376 117.500 C 19.605 116.950, 20.557 117.537, 21.491 118.805 C 22.426 120.072, 24.250 122.322, 25.545 123.805 L 27.899 126.500 29.545 124.195 C 30.450 122.928, 32.201 120.715, 33.437 119.278 L 35.684 116.666 39.092 121.294 C 40.967 123.839, 42.823 125.940, 43.218 125.961 C 43.613 125.982, 45.413 123.993, 47.218 121.539 C 49.023 119.085, 50.761 117.060, 51.080 117.039 C 51.400 117.018, 53.115 119.025, 54.893 121.500 C 56.670 123.975, 58.470 126, 58.893 126 C 59.315 126, 61.115 123.975, 62.893 121.500 C 64.670 119.025, 66.449 117, 66.847 117 C 67.244 117, 68.307 118.250, 69.209 119.777 C 70.111 121.304, 71.744 123.363, 72.836 124.352 C 74.774 126.106, 74.906 126.038, 78.162 121.614 C 79.998 119.119, 81.810 117.060, 82.188 117.039 C 82.566 117.018, 84.330 119.025, 86.107 121.500 C 87.885 123.975, 89.685 126, 90.107 126 C 90.530 126, 92.330 123.975, 94.107 121.500 C 97.088 117.350, 98.978 115.905, 99.015 117.750 C 99.023 118.162, 100.572 120.300, 102.457 122.500 L 105.885 126.500 107.537 124.195 C 108.446 122.928, 110.198 120.719, 111.430 119.286 L 113.671 116.681 116.909 122.341 C 118.690 125.453, 120.564 128, 121.073 128 C 122.600 128, 122.190 126.936, 117.851 119.633 C 113.217 111.832, 114.208 111.804, 107.989 119.919 L 105.479 123.195 102.177 118.597 C 100.361 116.069, 98.474 114, 97.984 114 C 97.493 114, 95.528 116.048, 93.616 118.551 L 90.141 123.103 86.820 118.590 C 84.994 116.109, 82.959 114.060, 82.298 114.039 C 81.637 114.018, 79.703 116.025, 78 118.500 C 76.297 120.975, 74.728 123, 74.514 123 C 74.300 123, 72.670 120.975, 70.893 118.500 C 69.115 116.025, 67.175 114.018, 66.580 114.039 C 65.986 114.060, 64.006 116.109, 62.180 118.590 L 58.859 123.103 55.384 118.551 C 53.472 116.048, 51.507 114, 51.016 114 C 50.526 114, 48.644 116.061, 46.836 118.579 L 43.547 123.159 41.655 120.829 C 40.615 119.548, 38.761 117.221, 37.535 115.658 L 35.305 112.816 31.479 118.029" stroke="none" fill="#fbfbfb" fill-rule="evenodd"/></svg>