<svg xmlns="http://www.w3.org/2000/svg" width="1272" height="626" viewBox="0 0 1272 626" version="1.1"><path d="M 167.399 107.032 C 165.144 107.479, 160.202 109.249, 156.418 110.964 C 151.385 113.246, 145.989 114.606, 136.319 116.027 C 109.187 120.014, 105.414 121.627, 89.776 135.921 C 81.163 143.794, 80.026 152.111, 87.160 155.066 C 90.305 156.369, 91.961 156.019, 103.500 151.615 C 109.085 149.483, 145.459 149.329, 150.454 151.416 C 157.508 154.364, 159.370 167.556, 156.011 190.785 C 153.147 210.586, 155.531 236.268, 161.925 254.500 C 167.366 270.014, 175.334 291.425, 178.300 298.500 C 188.540 322.928, 192.730 385.627, 185.751 410 C 183.802 416.806, 182.857 422.902, 182.419 431.500 C 180.383 471.461, 170.672 485.208, 145.570 483.660 C 94.016 480.481, 94.138 480.480, 84.407 484.121 C 76.836 486.953, 72 491.699, 72 496.297 C 72 503.306, 76.652 504.730, 85.275 500.361 C 90.483 497.721, 90.483 497.721, 140.492 499.018 C 167.996 499.732, 196.350 500.061, 203.500 499.750 C 210.650 499.439, 224.600 499.546, 234.500 499.987 C 254.020 500.859, 331.631 499.063, 333.750 497.691 C 341.310 492.798, 326.685 482.303, 313.802 483.377 C 263.785 487.545, 258.517 485.594, 261.545 464.020 C 264.358 443.975, 267.683 441.115, 284.081 444.639 C 297.419 447.505, 303.347 444.540, 306.557 433.398 C 313.345 409.834, 321.925 405.664, 330.012 422 C 331.237 424.475, 335.037 430.325, 338.455 435 C 341.874 439.675, 346.176 445.644, 348.015 448.264 C 349.854 450.884, 354.766 455.671, 358.930 458.901 C 363.093 462.131, 371 469.783, 376.500 475.905 C 382 482.028, 388.300 488.226, 390.500 489.680 C 392.700 491.133, 396.413 493.629, 398.752 495.225 C 421.454 510.720, 441.353 506.338, 445.447 484.942 C 446.233 480.835, 448.081 475.318, 449.554 472.682 C 454.274 464.238, 453.286 460.093, 440.950 436.586 C 421.871 400.230, 420.748 398.277, 411.866 386 C 405.606 377.347, 397.354 364.428, 392.447 355.595 C 389.726 350.698, 385.679 344.623, 383.453 342.095 C 381.227 339.568, 376.663 334.125, 373.310 330 C 369.957 325.875, 365.769 321.150, 364.002 319.500 C 362.235 317.850, 358.944 313.800, 356.689 310.500 C 354.433 307.200, 348.136 299.550, 342.696 293.500 C 337.256 287.450, 327.864 276.993, 321.826 270.263 C 315.789 263.533, 308.905 256.333, 306.530 254.263 C 304.154 252.193, 299.908 247.700, 297.093 244.279 C 294.278 240.857, 289.345 236.272, 286.131 234.089 C 282.917 231.906, 278.327 227.731, 275.932 224.810 C 273.536 221.890, 268.634 216.333, 265.038 212.463 C 255.973 202.706, 251.444 193.383, 249.513 180.500 C 248.688 175, 247.341 168.025, 246.519 165 C 245.652 161.813, 245.019 155.187, 245.012 149.243 C 244.980 122.078, 240.503 109.505, 230 107.085 C 224.724 105.870, 173.481 105.826, 167.399 107.032 M 526.852 108.340 C 507.628 115.475, 505.547 130.589, 521.416 147.829 C 527.231 154.147, 526.945 157.036, 519.714 165.026 C 495.362 191.936, 529.572 214.976, 570.786 199.422 C 586.232 193.593, 584.950 193.644, 723.426 193.297 C 869.283 192.931, 853.777 194.188, 860.526 182.185 C 862.760 178.212, 867.750 171.708, 871.615 167.731 C 881.372 157.689, 883.395 151.114, 879.233 142.961 C 876.545 137.696, 862.230 121.183, 858.658 119.228 C 855.726 117.624, 845.957 117.459, 722 116.922 C 578.327 116.301, 584.563 116.555, 571 110.778 C 562.184 107.023, 534.518 105.495, 526.852 108.340 M 1073.791 107.988 C 1063.100 111.211, 1057.049 123.040, 1057.016 140.782 C 1056.992 153.238, 1049.100 165.353, 1034.158 175.870 C 1030.540 178.416, 1023.485 184.325, 1018.480 189 C 1013.476 193.675, 1006.900 199.348, 1003.869 201.607 C 984.511 216.029, 987.156 236.805, 1010 249.759 C 1012.475 251.162, 1020.125 255.782, 1027 260.025 C 1033.875 264.268, 1040.884 268.443, 1042.575 269.305 C 1050.363 273.270, 1056.080 283.534, 1057.443 296 C 1057.834 299.575, 1061.090 312.625, 1064.680 325 C 1078.522 372.724, 1079.119 386.186, 1067.641 391.814 C 1063.020 394.079, 1051.810 385.890, 1031.455 365.380 C 1009.207 342.961, 990.275 343.553, 979.660 367 C 975.465 376.268, 979.932 405.935, 989.373 431.500 C 994.206 444.588, 992.694 450.134, 979.888 466.288 C 973.428 474.436, 970.197 477.051, 958.222 483.816 C 936.620 496.020, 951.955 513.321, 977 505 C 988.046 501.330, 993.961 501.215, 1004.152 504.469 C 1019.516 509.377, 1045.610 508.681, 1076.301 502.545 C 1119.167 493.975, 1139.224 494.103, 1162.647 503.096 C 1184.702 511.564, 1199 508.593, 1199 495.542 C 1199 490.681, 1194.820 487.541, 1185.625 485.496 C 1157.770 479.298, 1154.682 474.575, 1153.927 437 C 1153.475 414.512, 1153.023 407.656, 1151.785 404.500 C 1145.587 388.701, 1145.715 389.400, 1146.380 375 C 1146.723 367.575, 1147.696 358.350, 1148.542 354.500 C 1149.387 350.650, 1151.192 342.123, 1152.552 335.552 C 1157.577 311.271, 1163.687 309.664, 1173.458 330.053 C 1178.124 339.788, 1179.692 415.675, 1175.484 428.048 C 1168.046 449.917, 1177.903 462.094, 1196.028 453.427 C 1210.316 446.595, 1213.364 440.392, 1209.869 425.254 C 1209.022 421.583, 1209.035 417.241, 1209.920 407.928 C 1210.570 401.093, 1211.531 386.500, 1212.055 375.500 C 1212.580 364.500, 1213.252 354.848, 1213.550 354.051 C 1214.059 352.685, 1212.205 334.856, 1209.965 319.590 C 1209.408 315.790, 1207.643 308.815, 1206.043 304.090 C 1204.443 299.366, 1202.175 291.903, 1201.003 287.507 C 1198.351 277.557, 1194.573 271.219, 1186.661 263.449 C 1183.273 260.120, 1178.717 255.210, 1176.539 252.536 C 1171.996 246.961, 1162.915 242.219, 1151.447 239.434 C 1135.634 235.594, 1133.762 229.527, 1142.756 211.272 C 1147.016 202.625, 1147.330 201.430, 1147.743 192.272 C 1148.227 181.560, 1148.914 183.722, 1139.554 166.500 C 1135.406 158.867, 1136.173 149.441, 1141.840 138.384 C 1151.981 118.600, 1145.874 112, 1117.427 112 C 1102.456 112, 1099.440 111.711, 1091.493 109.512 C 1082.153 106.929, 1078.383 106.604, 1073.791 107.988 M 536.721 121.369 C 522.373 125.382, 524.786 138.010, 539.898 137.994 C 556.968 137.977, 565.294 134.292, 563.592 127.510 C 562.429 122.877, 545.313 118.966, 536.721 121.369 M 196 122.180 C 191.029 123.601, 190.322 124.449, 189.730 129.705 C 188.627 139.487, 177 139.695, 177 129.932 C 177 122.899, 168.182 121.985, 161.250 128.299 C 157.858 131.389, 158.469 133.950, 164.495 141.904 C 173.745 154.113, 174.128 157.532, 171.122 201 C 169.008 231.570, 176.236 260.132, 191.984 283.442 C 194.606 287.324, 198.895 294.325, 201.513 299 C 204.132 303.675, 207.172 308.777, 208.269 310.338 C 209.365 311.900, 213.275 318.875, 216.957 325.838 C 225.348 341.708, 230.556 350.240, 247.579 376 C 255.671 388.247, 258.520 394.098, 259.995 401.500 C 266.098 432.132, 295.651 436.756, 299.088 407.617 C 302.588 377.942, 299.937 364.418, 288.872 355.500 C 285.460 352.750, 279.256 347.543, 275.084 343.929 C 270.913 340.315, 265.359 335.903, 262.742 334.125 C 260.125 332.347, 255.846 328.329, 253.234 325.196 C 250.622 322.063, 244.438 315.694, 239.493 311.041 C 231.407 303.436, 227.445 299.060, 210.676 279.210 C 183.659 247.230, 189.655 226.669, 226 226.659 C 254.323 226.651, 255.560 240.921, 227.377 242.548 C 213.813 243.331, 210.201 244.351, 209.378 247.632 C 207.063 256.855, 216.360 272.183, 240.052 298.206 C 244.205 302.767, 249.129 308.473, 250.992 310.884 C 252.856 313.295, 256.878 316.866, 259.930 318.818 C 262.982 320.770, 267.609 324.361, 270.213 326.796 C 278.542 334.587, 301.482 350.569, 312.911 356.543 C 316.987 358.674, 323.962 363.213, 328.411 366.630 C 332.860 370.046, 343.018 377.040, 350.984 382.171 C 366.759 392.331, 384.184 405.035, 390.500 410.980 C 409.666 429.022, 420.155 421.591, 406.289 399.795 C 404.086 396.333, 401.232 391.700, 399.945 389.500 C 398.659 387.300, 392.589 377.850, 386.456 368.500 C 380.323 359.150, 374.028 349.250, 372.468 346.500 C 370.907 343.750, 367.548 339.250, 365.002 336.500 C 362.457 333.750, 358.610 329.250, 356.454 326.500 C 354.298 323.750, 350.230 318.800, 347.413 315.500 C 344.596 312.200, 340.845 307.475, 339.078 305 C 337.310 302.525, 329.114 293.419, 320.863 284.765 C 312.613 276.110, 303.511 265.985, 300.636 262.265 C 297.761 258.544, 292.789 253.025, 289.586 250 C 286.383 246.975, 282.393 242.475, 280.719 240 C 279.045 237.525, 273.967 231.675, 269.435 227 C 251.059 208.046, 241.802 197.540, 239.600 193.138 C 233.785 181.519, 228.721 159.888, 227.041 139.500 C 225.598 121.978, 215.814 116.519, 196 122.180 M 1101 129.709 C 1090.863 133.437, 1098.654 149.500, 1110.599 149.500 C 1121.893 149.500, 1128.152 135.433, 1118.940 130.752 C 1115.589 129.048, 1104.543 128.407, 1101 129.709 M 596.500 134.664 C 576.849 138.912, 571.550 141.156, 562.750 148.958 C 555.371 155.501, 556.456 158.284, 569.691 166.759 C 585.113 176.635, 582.625 176.464, 716 176.787 C 846.241 177.103, 839.723 177.404, 850 170.597 C 853.575 168.230, 857.775 165.517, 859.334 164.568 C 863.104 162.274, 865 157.389, 865 149.966 C 865 139.996, 863.039 138.223, 849.086 135.576 C 841.203 134.080, 603.175 133.221, 596.500 134.664 M 1099.718 167.037 C 1080.916 171.737, 1086.395 186.125, 1107.597 187.729 C 1113.836 188.201, 1115.905 188.867, 1121.146 192.089 C 1129.862 197.450, 1132.523 195.502, 1132.405 183.848 C 1132.290 172.488, 1114.503 163.341, 1099.718 167.037 M 535.209 172.974 C 525.496 175.307, 523.517 184.538, 531.842 188.679 C 544.502 194.978, 568.993 187.743, 563.482 179.333 C 560.573 174.892, 543.349 171.018, 535.209 172.974 M 1041.500 182.864 C 1039.850 183.885, 1036.805 186.572, 1034.734 188.834 C 1032.663 191.096, 1028.388 194.701, 1025.234 196.845 C 992.139 219.343, 999.095 236.872, 1047.793 253.691 C 1067.992 260.667, 1070.423 264.876, 1072.890 297.151 C 1073.646 307.039, 1074.456 311.299, 1076.597 316.651 C 1078.104 320.418, 1080.349 327.325, 1081.587 332 C 1082.824 336.675, 1084.988 343.650, 1086.397 347.500 C 1088.854 354.216, 1088.959 355.400, 1088.979 376.639 C 1089.007 406.163, 1088.285 405.362, 1112 402.206 C 1131.169 399.656, 1132.133 398.596, 1132.496 379.675 C 1132.855 360.983, 1134.514 346.686, 1137.332 338 C 1138.670 333.875, 1140.070 326.900, 1140.443 322.500 C 1141.091 314.859, 1144.892 293.308, 1147.198 284.202 C 1151.952 265.431, 1166.505 272.615, 1174.134 297.499 C 1178.690 312.360, 1186.177 325.765, 1189.339 324.726 C 1192.598 323.654, 1189.496 299.617, 1184.363 286.170 C 1182.963 282.502, 1180.789 276.800, 1179.533 273.500 C 1175.286 262.344, 1159.797 253.680, 1141.216 252.066 C 1126.309 250.771, 1123.565 248.781, 1117.984 235.216 C 1114.259 226.162, 1108.346 212.493, 1106.715 209.165 C 1103.924 203.469, 1098.840 202.895, 1088.276 207.082 C 1073.954 212.759, 1073.136 217.876, 1085.035 227.367 C 1106.402 244.409, 1082.722 260.783, 1058.659 245.605 C 1055.822 243.815, 1049.900 240.911, 1045.500 239.151 C 1030.749 233.252, 1026.666 230.812, 1024.647 226.693 C 1021.125 219.510, 1021.994 217.981, 1042.721 194.896 C 1051.663 184.936, 1050.865 177.068, 1041.500 182.864 M 207.093 349.750 C 198.643 381.950, 206.239 414.920, 222.531 416.756 C 239.511 418.670, 241.330 393.208, 226.188 365.559 C 215.764 346.523, 209.336 341.202, 207.093 349.750 M 647.878 349.065 C 635.477 351.138, 636.007 347.881, 636.010 422 C 636.013 518, 629.348 508.946, 700.038 508.978 C 769.980 509.010, 762.500 518.607, 762.500 428.836 C 762.500 340.127, 769.649 349.193, 699.378 348.782 C 672.911 348.627, 649.736 348.754, 647.878 349.065 M 662.450 367.407 C 652.877 371.577, 652.817 372.002, 653.194 433 C 653.604 499.326, 648.234 492.500, 700 492.500 C 751.979 492.500, 746.500 499.923, 746.500 429.500 C 746.500 369.942, 746.709 371.658, 738.966 367.752 C 734.391 365.444, 667.648 365.143, 662.450 367.407 M 1015.323 379.250 C 1011.183 383.850, 1012.144 391.109, 1019.631 411.793 C 1026.258 430.098, 1029 431.258, 1046.268 423.053 C 1063.458 414.886, 1062.982 407.778, 1044.120 391.019 C 1028.100 376.784, 1020.382 373.630, 1015.323 379.250 M 334.471 392.672 C 329.173 397.970, 349.836 436.317, 370.819 460.128 C 379.230 469.674, 414.089 490, 422.047 490 C 431.559 490, 431.560 481.333, 422.049 467.938 C 418.754 463.297, 412.581 454.550, 408.330 448.500 C 395.050 429.597, 390.680 424.769, 378.975 416.071 C 350.390 394.827, 338.544 388.599, 334.471 392.672 M 1111.251 418.015 C 1107.814 418.490, 1100.164 420.467, 1094.251 422.409 C 1088.338 424.351, 1079.675 427.036, 1075 428.375 C 1041.815 437.881, 1011 454.824, 1011 463.565 C 1011 470.325, 1014.124 470.619, 1049.500 467.178 C 1069.647 465.219, 1072.974 465.142, 1089 466.269 C 1135.567 469.544, 1141.889 466.341, 1140.805 440.024 C 1139.981 420.033, 1133.199 414.983, 1111.251 418.015 M 205.299 430.960 C 200.287 434.016, 197.627 441.002, 190.794 469.055 C 187.702 481.752, 192.744 484.476, 218.134 483.824 C 239.899 483.265, 243.011 480.969, 245.629 463.537 C 248.794 442.458, 247.632 439.383, 235.659 437.177 C 232.050 436.512, 225.825 434.400, 221.826 432.484 C 213.547 428.516, 209.863 428.176, 205.299 430.960" stroke="none" fill="#97989c" fill-rule="evenodd"/><path d="M 38.500 29.501 C 33.626 31.228, 30.412 34.755, 29.027 39.900 C 26.711 48.500, 28.185 585.964, 30.535 589.965 C 31.655 591.870, 34.130 594.345, 36.035 595.465 C 41.519 598.686, 1230.481 598.686, 1235.965 595.465 C 1244.336 590.547, 1243.500 621.883, 1243.500 313 C 1243.500 4.117, 1244.336 35.453, 1235.965 30.535 C 1231.398 27.853, 46.044 26.829, 38.500 29.501 M 167.399 107.032 C 165.144 107.479, 160.202 109.249, 156.418 110.964 C 151.385 113.246, 145.989 114.606, 136.319 116.027 C 109.187 120.014, 105.414 121.627, 89.776 135.921 C 81.163 143.794, 80.026 152.111, 87.160 155.066 C 90.305 156.369, 91.961 156.019, 103.500 151.615 C 109.085 149.483, 145.459 149.329, 150.454 151.416 C 157.508 154.364, 159.370 167.556, 156.011 190.785 C 153.147 210.586, 155.531 236.268, 161.925 254.500 C 167.366 270.014, 175.334 291.425, 178.300 298.500 C 188.540 322.928, 192.730 385.627, 185.751 410 C 183.802 416.806, 182.857 422.902, 182.419 431.500 C 180.383 471.461, 170.672 485.208, 145.570 483.660 C 94.016 480.481, 94.138 480.480, 84.407 484.121 C 76.836 486.953, 72 491.699, 72 496.297 C 72 503.306, 76.652 504.730, 85.275 500.361 C 90.483 497.721, 90.483 497.721, 140.492 499.018 C 167.996 499.732, 196.350 500.061, 203.500 499.750 C 210.650 499.439, 224.600 499.546, 234.500 499.987 C 254.020 500.859, 331.631 499.063, 333.750 497.691 C 341.310 492.798, 326.685 482.303, 313.802 483.377 C 263.785 487.545, 258.517 485.594, 261.545 464.020 C 264.358 443.975, 267.683 441.115, 284.081 444.639 C 297.419 447.505, 303.347 444.540, 306.557 433.398 C 313.345 409.834, 321.925 405.664, 330.012 422 C 331.237 424.475, 335.037 430.325, 338.455 435 C 341.874 439.675, 346.176 445.644, 348.015 448.264 C 349.854 450.884, 354.766 455.671, 358.930 458.901 C 363.093 462.131, 371 469.783, 376.500 475.905 C 382 482.028, 388.300 488.226, 390.500 489.680 C 392.700 491.133, 396.413 493.629, 398.752 495.225 C 421.454 510.720, 441.353 506.338, 445.447 484.942 C 446.233 480.835, 448.081 475.318, 449.554 472.682 C 454.274 464.238, 453.286 460.093, 440.950 436.586 C 421.871 400.230, 420.748 398.277, 411.866 386 C 405.606 377.347, 397.354 364.428, 392.447 355.595 C 389.726 350.698, 385.679 344.623, 383.453 342.095 C 381.227 339.568, 376.663 334.125, 373.310 330 C 369.957 325.875, 365.769 321.150, 364.002 319.500 C 362.235 317.850, 358.944 313.800, 356.689 310.500 C 354.433 307.200, 348.136 299.550, 342.696 293.500 C 337.256 287.450, 327.864 276.993, 321.826 270.263 C 315.789 263.533, 308.905 256.333, 306.530 254.263 C 304.154 252.193, 299.908 247.700, 297.093 244.279 C 294.278 240.857, 289.345 236.272, 286.131 234.089 C 282.917 231.906, 278.327 227.731, 275.932 224.810 C 273.536 221.890, 268.634 216.333, 265.038 212.463 C 255.973 202.706, 251.444 193.383, 249.513 180.500 C 248.688 175, 247.341 168.025, 246.519 165 C 245.652 161.813, 245.019 155.187, 245.012 149.243 C 244.980 122.078, 240.503 109.505, 230 107.085 C 224.724 105.870, 173.481 105.826, 167.399 107.032 M 526.852 108.340 C 507.628 115.475, 505.547 130.589, 521.416 147.829 C 527.231 154.147, 526.945 157.036, 519.714 165.026 C 495.362 191.936, 529.572 214.976, 570.786 199.422 C 586.232 193.593, 584.950 193.644, 723.426 193.297 C 869.283 192.931, 853.777 194.188, 860.526 182.185 C 862.760 178.212, 867.750 171.708, 871.615 167.731 C 881.372 157.689, 883.395 151.114, 879.233 142.961 C 876.545 137.696, 862.230 121.183, 858.658 119.228 C 855.726 117.624, 845.957 117.459, 722 116.922 C 578.327 116.301, 584.563 116.555, 571 110.778 C 562.184 107.023, 534.518 105.495, 526.852 108.340 M 1073.791 107.988 C 1063.100 111.211, 1057.049 123.040, 1057.016 140.782 C 1056.992 153.238, 1049.100 165.353, 1034.158 175.870 C 1030.540 178.416, 1023.485 184.325, 1018.480 189 C 1013.476 193.675, 1006.900 199.348, 1003.869 201.607 C 984.511 216.029, 987.156 236.805, 1010 249.759 C 1012.475 251.162, 1020.125 255.782, 1027 260.025 C 1033.875 264.268, 1040.884 268.443, 1042.575 269.305 C 1050.363 273.270, 1056.080 283.534, 1057.443 296 C 1057.834 299.575, 1061.090 312.625, 1064.680 325 C 1078.522 372.724, 1079.119 386.186, 1067.641 391.814 C 1063.020 394.079, 1051.810 385.890, 1031.455 365.380 C 1009.207 342.961, 990.275 343.553, 979.660 367 C 975.465 376.268, 979.932 405.935, 989.373 431.500 C 994.206 444.588, 992.694 450.134, 979.888 466.288 C 973.428 474.436, 970.197 477.051, 958.222 483.816 C 936.620 496.020, 951.955 513.321, 977 505 C 988.046 501.330, 993.961 501.215, 1004.152 504.469 C 1019.516 509.377, 1045.610 508.681, 1076.301 502.545 C 1119.167 493.975, 1139.224 494.103, 1162.647 503.096 C 1184.702 511.564, 1199 508.593, 1199 495.542 C 1199 490.681, 1194.820 487.541, 1185.625 485.496 C 1157.770 479.298, 1154.682 474.575, 1153.927 437 C 1153.475 414.512, 1153.023 407.656, 1151.785 404.500 C 1145.587 388.701, 1145.715 389.400, 1146.380 375 C 1146.723 367.575, 1147.696 358.350, 1148.542 354.500 C 1149.387 350.650, 1151.192 342.123, 1152.552 335.552 C 1157.577 311.271, 1163.687 309.664, 1173.458 330.053 C 1178.124 339.788, 1179.692 415.675, 1175.484 428.048 C 1168.046 449.917, 1177.903 462.094, 1196.028 453.427 C 1210.316 446.595, 1213.364 440.392, 1209.869 425.254 C 1209.022 421.583, 1209.035 417.241, 1209.920 407.928 C 1210.570 401.093, 1211.531 386.500, 1212.055 375.500 C 1212.580 364.500, 1213.252 354.848, 1213.550 354.051 C 1214.059 352.685, 1212.205 334.856, 1209.965 319.590 C 1209.408 315.790, 1207.643 308.815, 1206.043 304.090 C 1204.443 299.366, 1202.175 291.903, 1201.003 287.507 C 1198.351 277.557, 1194.573 271.219, 1186.661 263.449 C 1183.273 260.120, 1178.717 255.210, 1176.539 252.536 C 1171.996 246.961, 1162.915 242.219, 1151.447 239.434 C 1135.634 235.594, 1133.762 229.527, 1142.756 211.272 C 1147.016 202.625, 1147.330 201.430, 1147.743 192.272 C 1148.227 181.560, 1148.914 183.722, 1139.554 166.500 C 1135.406 158.867, 1136.173 149.441, 1141.840 138.384 C 1151.981 118.600, 1145.874 112, 1117.427 112 C 1102.456 112, 1099.440 111.711, 1091.493 109.512 C 1082.153 106.929, 1078.383 106.604, 1073.791 107.988 M 536.721 121.369 C 522.373 125.382, 524.786 138.010, 539.898 137.994 C 556.968 137.977, 565.294 134.292, 563.592 127.510 C 562.429 122.877, 545.313 118.966, 536.721 121.369 M 196 122.180 C 191.029 123.601, 190.322 124.449, 189.730 129.705 C 188.627 139.487, 177 139.695, 177 129.932 C 177 122.899, 168.182 121.985, 161.250 128.299 C 157.858 131.389, 158.469 133.950, 164.495 141.904 C 173.745 154.113, 174.128 157.532, 171.122 201 C 169.008 231.570, 176.236 260.132, 191.984 283.442 C 194.606 287.324, 198.895 294.325, 201.513 299 C 204.132 303.675, 207.172 308.777, 208.269 310.338 C 209.365 311.900, 213.275 318.875, 216.957 325.838 C 225.348 341.708, 230.556 350.240, 247.579 376 C 255.671 388.247, 258.520 394.098, 259.995 401.500 C 266.098 432.132, 295.651 436.756, 299.088 407.617 C 302.588 377.942, 299.937 364.418, 288.872 355.500 C 285.460 352.750, 279.256 347.543, 275.084 343.929 C 270.913 340.315, 265.359 335.903, 262.742 334.125 C 260.125 332.347, 255.846 328.329, 253.234 325.196 C 250.622 322.063, 244.438 315.694, 239.493 311.041 C 231.407 303.436, 227.445 299.060, 210.676 279.210 C 183.659 247.230, 189.655 226.669, 226 226.659 C 254.323 226.651, 255.560 240.921, 227.377 242.548 C 213.813 243.331, 210.201 244.351, 209.378 247.632 C 207.063 256.855, 216.360 272.183, 240.052 298.206 C 244.205 302.767, 249.129 308.473, 250.992 310.884 C 252.856 313.295, 256.878 316.866, 259.930 318.818 C 262.982 320.770, 267.609 324.361, 270.213 326.796 C 278.542 334.587, 301.482 350.569, 312.911 356.543 C 316.987 358.674, 323.962 363.213, 328.411 366.630 C 332.860 370.046, 343.018 377.040, 350.984 382.171 C 366.759 392.331, 384.184 405.035, 390.500 410.980 C 409.666 429.022, 420.155 421.591, 406.289 399.795 C 404.086 396.333, 401.232 391.700, 399.945 389.500 C 398.659 387.300, 392.589 377.850, 386.456 368.500 C 380.323 359.150, 374.028 349.250, 372.468 346.500 C 370.907 343.750, 367.548 339.250, 365.002 336.500 C 362.457 333.750, 358.610 329.250, 356.454 326.500 C 354.298 323.750, 350.230 318.800, 347.413 315.500 C 344.596 312.200, 340.845 307.475, 339.078 305 C 337.310 302.525, 329.114 293.419, 320.863 284.765 C 312.613 276.110, 303.511 265.985, 300.636 262.265 C 297.761 258.544, 292.789 253.025, 289.586 250 C 286.383 246.975, 282.393 242.475, 280.719 240 C 279.045 237.525, 273.967 231.675, 269.435 227 C 251.059 208.046, 241.802 197.540, 239.600 193.138 C 233.785 181.519, 228.721 159.888, 227.041 139.500 C 225.598 121.978, 215.814 116.519, 196 122.180 M 1101 129.709 C 1090.863 133.437, 1098.654 149.500, 1110.599 149.500 C 1121.893 149.500, 1128.152 135.433, 1118.940 130.752 C 1115.589 129.048, 1104.543 128.407, 1101 129.709 M 596.500 134.664 C 576.849 138.912, 571.550 141.156, 562.750 148.958 C 555.371 155.501, 556.456 158.284, 569.691 166.759 C 585.113 176.635, 582.625 176.464, 716 176.787 C 846.241 177.103, 839.723 177.404, 850 170.597 C 853.575 168.230, 857.775 165.517, 859.334 164.568 C 863.104 162.274, 865 157.389, 865 149.966 C 865 139.996, 863.039 138.223, 849.086 135.576 C 841.203 134.080, 603.175 133.221, 596.500 134.664 M 1099.718 167.037 C 1080.916 171.737, 1086.395 186.125, 1107.597 187.729 C 1113.836 188.201, 1115.905 188.867, 1121.146 192.089 C 1129.862 197.450, 1132.523 195.502, 1132.405 183.848 C 1132.290 172.488, 1114.503 163.341, 1099.718 167.037 M 535.209 172.974 C 525.496 175.307, 523.517 184.538, 531.842 188.679 C 544.502 194.978, 568.993 187.743, 563.482 179.333 C 560.573 174.892, 543.349 171.018, 535.209 172.974 M 1041.500 182.864 C 1039.850 183.885, 1036.805 186.572, 1034.734 188.834 C 1032.663 191.096, 1028.388 194.701, 1025.234 196.845 C 992.139 219.343, 999.095 236.872, 1047.793 253.691 C 1067.992 260.667, 1070.423 264.876, 1072.890 297.151 C 1073.646 307.039, 1074.456 311.299, 1076.597 316.651 C 1078.104 320.418, 1080.349 327.325, 1081.587 332 C 1082.824 336.675, 1084.988 343.650, 1086.397 347.500 C 1088.854 354.216, 1088.959 355.400, 1088.979 376.639 C 1089.007 406.163, 1088.285 405.362, 1112 402.206 C 1131.169 399.656, 1132.133 398.596, 1132.496 379.675 C 1132.855 360.983, 1134.514 346.686, 1137.332 338 C 1138.670 333.875, 1140.070 326.900, 1140.443 322.500 C 1141.091 314.859, 1144.892 293.308, 1147.198 284.202 C 1151.952 265.431, 1166.505 272.615, 1174.134 297.499 C 1178.690 312.360, 1186.177 325.765, 1189.339 324.726 C 1192.598 323.654, 1189.496 299.617, 1184.363 286.170 C 1182.963 282.502, 1180.789 276.800, 1179.533 273.500 C 1175.286 262.344, 1159.797 253.680, 1141.216 252.066 C 1126.309 250.771, 1123.565 248.781, 1117.984 235.216 C 1114.259 226.162, 1108.346 212.493, 1106.715 209.165 C 1103.924 203.469, 1098.840 202.895, 1088.276 207.082 C 1073.954 212.759, 1073.136 217.876, 1085.035 227.367 C 1106.402 244.409, 1082.722 260.783, 1058.659 245.605 C 1055.822 243.815, 1049.900 240.911, 1045.500 239.151 C 1030.749 233.252, 1026.666 230.812, 1024.647 226.693 C 1021.125 219.510, 1021.994 217.981, 1042.721 194.896 C 1051.663 184.936, 1050.865 177.068, 1041.500 182.864 M 207.093 349.750 C 198.643 381.950, 206.239 414.920, 222.531 416.756 C 239.511 418.670, 241.330 393.208, 226.188 365.559 C 215.764 346.523, 209.336 341.202, 207.093 349.750 M 647.878 349.065 C 635.477 351.138, 636.007 347.881, 636.010 422 C 636.013 518, 629.348 508.946, 700.038 508.978 C 769.980 509.010, 762.500 518.607, 762.500 428.836 C 762.500 340.127, 769.649 349.193, 699.378 348.782 C 672.911 348.627, 649.736 348.754, 647.878 349.065 M 662.450 367.407 C 652.877 371.577, 652.817 372.002, 653.194 433 C 653.604 499.326, 648.234 492.500, 700 492.500 C 751.979 492.500, 746.500 499.923, 746.500 429.500 C 746.500 369.942, 746.709 371.658, 738.966 367.752 C 734.391 365.444, 667.648 365.143, 662.450 367.407 M 1015.323 379.250 C 1011.183 383.850, 1012.144 391.109, 1019.631 411.793 C 1026.258 430.098, 1029 431.258, 1046.268 423.053 C 1063.458 414.886, 1062.982 407.778, 1044.120 391.019 C 1028.100 376.784, 1020.382 373.630, 1015.323 379.250 M 334.471 392.672 C 329.173 397.970, 349.836 436.317, 370.819 460.128 C 379.230 469.674, 414.089 490, 422.047 490 C 431.559 490, 431.560 481.333, 422.049 467.938 C 418.754 463.297, 412.581 454.550, 408.330 448.500 C 395.050 429.597, 390.680 424.769, 378.975 416.071 C 350.390 394.827, 338.544 388.599, 334.471 392.672 M 1111.251 418.015 C 1107.814 418.490, 1100.164 420.467, 1094.251 422.409 C 1088.338 424.351, 1079.675 427.036, 1075 428.375 C 1041.815 437.881, 1011 454.824, 1011 463.565 C 1011 470.325, 1014.124 470.619, 1049.500 467.178 C 1069.647 465.219, 1072.974 465.142, 1089 466.269 C 1135.567 469.544, 1141.889 466.341, 1140.805 440.024 C 1139.981 420.033, 1133.199 414.983, 1111.251 418.015 M 205.299 430.960 C 200.287 434.016, 197.627 441.002, 190.794 469.055 C 187.702 481.752, 192.744 484.476, 218.134 483.824 C 239.899 483.265, 243.011 480.969, 245.629 463.537 C 248.794 442.458, 247.632 439.383, 235.659 437.177 C 232.050 436.512, 225.825 434.400, 221.826 432.484 C 213.547 428.516, 209.863 428.176, 205.299 430.960" stroke="none" fill="#f3f3f3" fill-rule="evenodd"/></svg>