<svg xmlns="http://www.w3.org/2000/svg" width="1272" height="465" viewBox="0 0 1272 465" version="1.1"><path d="M 839.500 99.392 C 822.966 102.070, 820.768 105.788, 816.968 137.500 C 815.402 150.564, 813.213 158.543, 808.937 166.766 C 802.815 178.541, 799.393 197.041, 796.964 231.500 C 794.181 270.968, 789.238 285.943, 773.500 302.580 C 766.906 309.550, 765.099 309.889, 754.289 306.186 C 734.165 299.291, 719.279 297.814, 663 297.130 C 588.070 296.219, 471.895 296.673, 457.500 297.934 C 450.350 298.559, 436.625 299.487, 427 299.994 C 410.032 300.889, 393.287 303.419, 384.016 306.491 C 367.855 311.845, 345.762 314.420, 302.500 315.991 C 286 316.590, 268 317.543, 262.500 318.108 C 227.524 321.700, 216.495 319.800, 211.356 309.295 C 207.537 301.489, 204.887 299.389, 195.141 296.442 C 190.388 295.005, 183.350 291.994, 179.500 289.751 C 163.844 280.630, 162.050 279.856, 153.248 278.428 C 126.253 274.046, 113.927 277.783, 101.638 294.076 C 92.643 306.003, 91.509 308.277, 90.536 316.350 C 89.850 322.042, 89.759 322.185, 87.165 321.629 C 85.699 321.314, 78.875 320.593, 72 320.026 C 65.125 319.460, 58.600 318.795, 57.500 318.549 C 33.469 313.180, 28.500 317.295, 28.500 342.563 C 28.500 367.459, 28.500 367.459, 36.500 367.791 C 48.609 368.293, 51.200 369.267, 56.144 375.172 C 63.121 383.506, 67.395 384.654, 102 387.493 C 112.175 388.328, 123.200 389.461, 126.500 390.011 C 140.530 392.349, 155.109 392.416, 164.062 390.183 C 174.752 387.518, 195.140 384.341, 210 383.025 C 230.766 381.186, 872.351 381.698, 889.500 383.568 C 939.795 389.050, 935.200 403.754, 934.730 238.839 C 934.329 98.293, 934.984 106.072, 923.092 100.657 C 917.287 98.013, 853.928 97.055, 839.500 99.392 M 854.500 126.491 C 852.300 127.304, 850.362 127.977, 850.194 127.985 C 848.542 128.066, 845.965 138.500, 845.002 149 C 842.548 175.783, 840.318 185.570, 832.632 203.289 C 827.449 215.236, 826.625 219.853, 824.471 249 C 823.597 260.825, 821.967 276.575, 820.848 284 C 816.513 312.787, 817.188 314.366, 836.500 320.568 C 840.900 321.981, 848.775 325.539, 854 328.475 C 875.460 340.533, 899.930 341.406, 904.638 330.282 C 906.507 325.867, 906.560 138.419, 904.694 133.094 C 902.070 125.607, 868.745 121.223, 854.500 126.491 M 529.500 326.645 C 478.464 331.017, 481.732 335.627, 539.063 340.135 C 554.747 341.369, 558.211 341.286, 627.500 338.035 C 651.695 336.899, 659.638 333.213, 647.556 328.727 C 642.926 327.008, 545.350 325.287, 529.500 326.645" stroke="none" fill="#7e7f84" fill-rule="evenodd"/><path d="M 38.500 29.501 C 27.337 33.455, 28.012 23.741, 28.006 180.597 C 28 317.693, 28 317.693, 41.750 317.893 C 49.313 318.003, 56.400 318.296, 57.500 318.544 C 58.600 318.793, 65.125 319.460, 72 320.026 C 78.875 320.593, 85.699 321.314, 87.165 321.629 C 89.759 322.185, 89.850 322.042, 90.536 316.350 C 94.405 284.257, 136.617 265.773, 167.248 282.760 C 170.137 284.362, 175.650 287.508, 179.500 289.751 C 183.350 291.994, 190.388 295.005, 195.141 296.442 C 204.887 299.389, 207.537 301.489, 211.356 309.295 C 216.495 319.800, 227.524 321.700, 262.500 318.108 C 268 317.543, 286 316.590, 302.500 315.991 C 345.762 314.420, 367.855 311.845, 384.016 306.491 C 393.287 303.419, 410.032 300.889, 427 299.994 C 436.625 299.487, 450.350 298.559, 457.500 297.934 C 471.895 296.673, 588.070 296.219, 663 297.130 C 719.279 297.814, 734.165 299.291, 754.289 306.186 C 765.099 309.889, 766.906 309.550, 773.500 302.580 C 789.238 285.943, 794.181 270.968, 796.964 231.500 C 799.393 197.041, 802.815 178.541, 808.937 166.766 C 813.213 158.543, 815.402 150.564, 816.968 137.500 C 821.753 97.572, 822.052 97.401, 885.649 98.181 C 940.168 98.850, 934.282 81.983, 934.730 238.839 C 935.200 403.754, 939.795 389.050, 889.500 383.568 C 872.351 381.698, 230.766 381.186, 210 383.025 C 195.140 384.341, 174.752 387.518, 164.062 390.183 C 155.109 392.416, 140.530 392.349, 126.500 390.011 C 123.200 389.461, 112.175 388.328, 102 387.493 C 67.395 384.654, 63.121 383.506, 56.144 375.172 C 51.193 369.258, 48.716 368.338, 36.195 367.756 C 23.816 367.181, 23.673 426.202, 36.035 433.465 C 41.519 436.686, 1230.481 436.686, 1235.965 433.465 C 1244.272 428.584, 1243.500 449.225, 1243.500 232 C 1243.500 14.775, 1244.272 35.416, 1235.965 30.535 C 1231.398 27.853, 46.044 26.829, 38.500 29.501 M 854.500 126.491 C 852.300 127.304, 850.362 127.977, 850.194 127.985 C 848.542 128.066, 845.965 138.500, 845.002 149 C 842.548 175.783, 840.318 185.570, 832.632 203.289 C 827.449 215.236, 826.625 219.853, 824.471 249 C 823.597 260.825, 821.967 276.575, 820.848 284 C 816.513 312.787, 817.188 314.366, 836.500 320.568 C 840.900 321.981, 848.775 325.539, 854 328.475 C 875.460 340.533, 899.930 341.406, 904.638 330.282 C 906.507 325.867, 906.560 138.419, 904.694 133.094 C 902.070 125.607, 868.745 121.223, 854.500 126.491 M 529.500 326.645 C 478.464 331.017, 481.732 335.627, 539.063 340.135 C 554.747 341.369, 558.211 341.286, 627.500 338.035 C 651.695 336.899, 659.638 333.213, 647.556 328.727 C 642.926 327.008, 545.350 325.287, 529.500 326.645" stroke="none" fill="#f4f4f4" fill-rule="evenodd"/></svg>