<svg xmlns="http://www.w3.org/2000/svg" width="1272" height="758" viewBox="0 0 1272 758" version="1.1"><path d="M 96.580 89.023 C 94.973 89.515, 91.823 91.652, 89.580 93.771 C 87.336 95.890, 83.700 98.925, 81.500 100.516 C 79.300 102.106, 75.468 105.453, 72.985 107.954 C 63.768 117.233, 48.783 123.760, 35.750 124.173 C 19.636 124.683, 24.473 155.513, 40.797 156.340 C 59.391 157.281, 61.519 158.130, 73.934 169.562 C 94.056 188.091, 103.601 189.776, 118.224 177.378 C 122.285 173.935, 126.900 171.166, 131.301 169.531 C 135.041 168.142, 141.020 165.245, 144.587 163.094 C 159.218 154.269, 220.577 153.995, 247.210 162.636 C 259.429 166.600, 275.037 169.021, 294.962 170.043 C 305.116 170.563, 314.791 171.219, 316.462 171.501 C 318.133 171.783, 325.800 172.441, 333.500 172.964 C 341.200 173.487, 351.775 174.795, 357 175.871 C 381.496 180.913, 410.470 183.718, 446 184.488 C 450.675 184.590, 462.088 185.042, 471.363 185.494 C 488.849 186.345, 526.698 184.859, 538.616 182.854 C 546.997 181.443, 553.737 177.306, 560.656 169.327 C 563.870 165.620, 569.270 159.868, 572.655 156.544 C 584.243 145.167, 582.904 124.158, 570.050 115.652 C 567.931 114.250, 564.775 111.122, 563.036 108.700 C 548.310 88.193, 473.406 82.420, 400 96.134 C 394.225 97.213, 381.850 98.518, 372.500 99.035 C 338.217 100.929, 318.070 102.937, 299 106.359 C 279.523 109.854, 274.394 110.584, 249 113.469 C 241.575 114.313, 231.900 115.474, 227.500 116.050 C 175.808 122.813, 146.429 119.188, 125.500 103.466 C 121.650 100.574, 117.150 96.770, 115.500 95.014 C 110.348 89.531, 102.761 87.128, 96.580 89.023 M 446.500 111.536 C 441 112.237, 434.092 112.853, 431.149 112.905 C 428.207 112.957, 420.782 113.872, 414.649 114.937 C 408.517 116.002, 396.525 117.350, 388 117.931 C 361.139 119.762, 347.855 121.056, 336 122.994 C 329.675 124.028, 321.350 125.160, 317.500 125.510 C 313.650 125.859, 305.550 126.992, 299.500 128.026 C 293.450 129.061, 283.100 130.400, 276.500 131.002 C 230.142 135.229, 260.048 149.493, 320.500 151.988 C 350.819 153.240, 367.004 154.769, 379.500 157.563 C 417.008 165.950, 508.768 169.596, 533.472 163.681 C 556.596 158.144, 564.527 150.029, 561.999 134.493 C 560.006 122.249, 557.384 120.080, 541.486 117.525 C 535.994 116.643, 528.800 115.220, 525.500 114.364 C 509.433 110.196, 468.509 108.731, 446.500 111.536 M 88.354 117.750 C 67.291 133.525, 65.002 142.291, 79.361 152.185 C 81.088 153.374, 85.274 156.969, 88.663 160.174 C 97.787 168.798, 108.835 168.508, 116.303 159.449 C 117.853 157.569, 121.965 154.440, 125.442 152.495 C 141.377 143.584, 144.739 134.131, 133.244 130.562 C 132.003 130.176, 127.741 127.402, 123.773 124.395 C 110.256 114.155, 96.580 111.589, 88.354 117.750 M 823.788 157.776 C 821.747 158.724, 815.553 163.658, 810.026 168.739 C 804.498 173.821, 797.843 179.089, 795.238 180.446 C 791.173 182.563, 780.825 192.065, 769.377 204.192 C 767.660 206.011, 762.862 210.404, 758.716 213.953 C 754.186 217.830, 749.874 222.620, 747.912 225.953 C 746.117 229.004, 742.981 233.542, 740.943 236.038 C 738.906 238.533, 735.587 243.857, 733.567 247.867 C 731.547 251.877, 728.199 257.035, 726.127 259.329 C 724.054 261.623, 721.378 265.127, 720.180 267.116 C 718.982 269.106, 716.314 271.868, 714.251 273.254 C 706.892 278.201, 697.441 287.191, 693.792 292.716 C 691.752 295.804, 688.535 299.944, 686.643 301.915 C 684.751 303.887, 681.748 308.417, 679.970 311.983 C 678.191 315.548, 675.265 320.392, 673.467 322.747 C 663.616 335.648, 659.693 357.196, 665.409 367 C 674.563 382.698, 691.719 386.351, 705.225 375.478 C 707.576 373.585, 711.914 370.606, 714.865 368.858 C 718.525 366.690, 721.306 363.997, 723.615 360.388 C 725.477 357.477, 729.137 353.632, 731.750 351.842 C 734.362 350.053, 739.739 345.531, 743.698 341.794 C 753.086 332.932, 754.819 332.884, 760.175 341.339 C 761.974 344.177, 765.089 348.607, 767.098 351.182 C 769.106 353.757, 771.568 358.139, 772.569 360.921 C 773.569 363.702, 776.103 368.120, 778.200 370.739 C 780.297 373.358, 783.597 378.814, 785.533 382.865 C 787.470 386.915, 790.633 392.156, 792.562 394.511 C 794.492 396.865, 797.742 401.273, 799.785 404.305 C 801.828 407.338, 805.499 412.378, 807.943 415.506 C 815.268 424.882, 814.501 436.179, 805.025 458.441 C 802.743 463.802, 799.597 473.208, 798.032 479.344 C 796.468 485.480, 793.369 494.252, 791.146 498.838 C 788.924 503.425, 786.602 509.725, 785.987 512.838 C 782.062 532.723, 776.784 542.006, 760.153 558.275 C 746.232 571.893, 743.300 580.368, 750.031 587.533 C 759.452 597.561, 777.594 591.249, 787.160 574.617 C 789.412 570.703, 793.173 565.475, 795.519 563 C 800.349 557.905, 802.346 554.324, 805.194 545.648 C 806.286 542.320, 808.899 536.179, 811 532 C 813.101 527.821, 815.827 521.049, 817.056 516.951 C 818.286 512.853, 821.038 506, 823.171 501.721 C 825.305 497.443, 827.966 490.090, 829.084 485.382 C 831.767 474.087, 832.255 472.922, 837.697 464.811 C 845.970 452.479, 849.178 453.709, 853.041 470.696 C 854.267 476.088, 856.732 483.875, 858.518 488 C 871.125 517.117, 871.182 551.205, 858.646 564.841 C 848.030 576.389, 849.864 589.377, 862.479 591.996 C 876.593 594.926, 888.866 586.350, 896.282 568.378 C 901.351 556.091, 901.420 555.507, 899.156 543.851 C 896.463 529.979, 896.304 528.865, 894.481 511 C 893.611 502.475, 891.385 488.525, 889.534 480 C 881.560 443.270, 881.339 443.574, 915.088 444.908 C 940.979 445.932, 945.924 446.835, 957.862 452.720 C 966.077 456.770, 967.814 456.723, 980.225 452.122 C 997.456 445.735, 1005.468 450.823, 1000.650 465.095 C 999.200 469.393, 997.133 478.301, 996.058 484.891 C 994.983 491.481, 992.968 500.614, 991.580 505.186 C 990.192 509.759, 987.731 519.405, 986.110 526.622 C 981.935 545.214, 976.203 555.276, 965.175 563.372 C 952.532 572.652, 954.878 590.417, 968.925 591.767 C 978.999 592.735, 982.863 589.954, 997.109 571.475 C 1001.035 566.383, 1009.915 546.039, 1014.121 532.500 C 1021.437 508.949, 1029.835 485.905, 1032.262 482.723 C 1033.618 480.945, 1036.378 476.213, 1038.395 472.208 C 1044.707 459.674, 1055.319 460.160, 1064.234 473.392 C 1066.497 476.751, 1070.079 481.486, 1072.194 483.913 C 1077.899 490.461, 1079.305 496.494, 1079.323 514.500 C 1079.351 542.113, 1076.851 549.429, 1062.607 563.420 C 1045.392 580.330, 1047.003 591.063, 1066.873 591.842 C 1081.879 592.430, 1086.454 590.120, 1094.770 577.756 C 1097.371 573.888, 1100.755 568.873, 1102.289 566.611 C 1106.270 560.741, 1107.720 554.630, 1109.374 536.737 C 1111.130 517.747, 1112.090 515.528, 1119.852 512.536 C 1131.697 507.970, 1132.534 505.196, 1130.977 475.629 C 1130.336 463.458, 1129.455 445.625, 1129.019 436 C 1128.295 419.989, 1127.931 417.564, 1124.745 407.500 C 1122.830 401.450, 1120.961 393.575, 1120.591 390 C 1118.713 371.860, 1106.103 353.445, 1080.614 331.617 C 1071.329 323.666, 1053.911 321.936, 1015.052 325.105 C 970.780 328.717, 904.143 323.911, 867.936 314.496 C 862.676 313.128, 853.226 311.588, 846.936 311.073 C 833.203 309.950, 832.927 309.857, 826.106 304.073 C 806.577 287.516, 803.582 279.405, 814.383 272.334 C 817.043 270.593, 824.007 264.518, 829.860 258.834 C 835.712 253.150, 842.525 247.042, 845 245.260 C 851.965 240.246, 862.911 230.466, 865.848 226.632 C 867.307 224.728, 873.318 218.038, 879.207 211.764 C 903.533 185.848, 890.710 169.210, 858.142 184.434 C 843.199 191.419, 840.986 190.335, 841.228 176.154 C 841.519 159.056, 835.252 152.452, 823.788 157.776 M 796.500 198.662 C 794.850 199.531, 792.520 201.136, 791.323 202.227 C 790.126 203.318, 786.318 205.626, 782.860 207.356 C 771.213 213.181, 759.837 233.437, 765.200 238.800 C 767.121 240.721, 769.020 240.224, 773.397 236.652 C 775.654 234.811, 778.693 232.673, 780.151 231.902 C 784.180 229.771, 800.130 212.062, 803.316 206.184 C 807.788 197.931, 804.587 194.398, 796.500 198.662 M 844.500 212.810 C 843.400 213.038, 840.440 214.731, 837.921 216.572 C 835.403 218.413, 829.297 221.230, 824.352 222.833 C 819.406 224.436, 813.367 227.022, 810.930 228.579 C 808.494 230.137, 803.125 232.605, 799 234.065 C 792.260 236.450, 791.145 237.232, 788 241.785 C 771.903 265.088, 760.702 273.188, 742.004 275.049 C 726.181 276.624, 724.263 278.006, 725.493 286.951 C 726.980 297.763, 721.192 305.807, 710.348 308 C 702.597 309.568, 700.742 310.897, 696.713 317.772 C 694.844 320.962, 691.687 325.703, 689.698 328.309 C 685.927 333.248, 684.762 336.366, 682.838 346.664 C 680.099 361.319, 692.631 366.749, 704.462 356.034 C 707.478 353.303, 711.870 350.089, 714.223 348.893 C 718.042 346.950, 727.668 338.778, 746.755 321.276 C 758.828 310.206, 768.331 312.857, 774.507 329.019 C 775.959 332.817, 779.373 338.941, 782.095 342.628 C 785.299 346.969, 787.780 351.759, 789.135 356.217 C 790.423 360.460, 792.879 365.302, 795.535 368.834 C 797.904 371.987, 800.772 377.010, 801.907 379.997 C 804.820 387.665, 818.967 402, 823.621 402 C 827.768 402, 828.157 400.915, 828.999 387 C 829.755 374.499, 833.244 364.458, 843.241 346.010 C 849.030 335.329, 848.585 334.141, 836.719 328.603 C 831.649 326.236, 826.600 323.277, 825.500 322.028 C 824.400 320.779, 820.800 317.926, 817.500 315.688 C 814.200 313.451, 809.025 309.314, 806 306.495 C 802.975 303.677, 798.331 299.632, 795.679 297.507 C 784.968 288.922, 783.911 277.583, 793.213 271.061 C 815.708 255.287, 832.920 239.740, 841.095 227.808 C 843.240 224.678, 845.784 221.528, 846.748 220.808 C 852.685 216.375, 851.289 211.405, 844.500 212.810 M 871.375 340.728 C 849.404 353.187, 842.609 395.435, 859.188 416.512 C 861.144 418.999, 861.278 419.019, 871.881 418.375 C 880.721 417.838, 884.337 418.092, 892.548 419.827 C 909.380 423.384, 914.942 424.127, 931 424.961 C 944.516 425.664, 947.651 426.166, 955.492 428.883 C 977.712 436.585, 1017 424.780, 1017 410.402 C 1017 408.476, 1015.330 403.923, 1013 399.500 C 1006.786 387.702, 1008.209 380.545, 1016.767 380.545 C 1021.883 380.545, 1023.719 382.142, 1027.068 389.500 C 1028.570 392.800, 1031.558 397.525, 1033.708 400 C 1035.857 402.475, 1038.681 406.300, 1039.983 408.500 C 1042.121 412.112, 1044.818 415.356, 1055.576 427.250 C 1065.107 437.788, 1073.384 428.996, 1075.113 406.500 C 1075.620 399.900, 1076.702 390.963, 1077.517 386.640 C 1083.997 352.288, 1071.889 339.506, 1037.142 344.017 C 1011.153 347.391, 950.022 347.065, 925.500 343.422 C 916.067 342.021, 898.847 340.433, 882 339.412 C 876.059 339.051, 873.850 339.325, 871.375 340.728 M 1096.255 405.250 C 1086.001 418.195, 1089.342 465.455, 1100.999 472.340 C 1109.557 477.395, 1110.309 473.390, 1106.982 440.470 C 1103.761 408.587, 1100.942 399.332, 1096.255 405.250 M 77.730 459.089 C 68.266 460.474, 52.833 468.983, 47.876 475.548 C 43.439 481.425, 40.263 483, 32.851 483 C 28 483, 28 483, 28 504 C 28 525, 28 525, 33.532 525 C 40.693 525, 44.469 526.704, 50 532.431 C 57.546 540.245, 67.445 542.348, 104.500 544.011 C 117.150 544.579, 138.525 545.713, 152 546.530 C 211.703 550.153, 242.693 551.422, 310 552.999 C 405.189 555.230, 425 560.266, 425 582.230 C 425 590.008, 427.568 611.285, 429.531 619.771 C 436.188 648.557, 466.138 664.694, 483.483 648.841 C 491.057 641.920, 500.808 641.422, 509.188 647.530 C 518.336 654.196, 520.158 655.212, 523.868 655.709 C 531.196 656.692, 542.828 647.759, 556.332 630.778 C 572.072 610.988, 568.383 582.616, 546.286 553.514 C 544.204 550.772, 541.336 546.447, 539.914 543.904 C 537.337 539.296, 520.868 522, 519.058 522 C 518.534 522, 515.059 519.694, 511.336 516.876 C 507.613 514.058, 501.401 510.257, 497.533 508.430 C 493.665 506.603, 487.981 503.484, 484.902 501.500 C 480.682 498.779, 477.268 497.536, 471.026 496.446 C 460.150 494.547, 439.650 489.677, 429 486.461 C 422.897 484.619, 416.441 483.620, 406.109 482.919 C 398.193 482.382, 391.439 481.772, 391.100 481.562 C 390.760 481.352, 385.086 480.663, 378.491 480.031 C 371.896 479.399, 360.650 478.012, 353.500 476.949 C 325.931 472.851, 297.441 471.625, 192 470.003 C 120.554 468.903, 118.645 468.758, 107.075 463.534 C 100.638 460.627, 87.384 457.537, 84 458.153 C 83.725 458.203, 80.903 458.624, 77.730 459.089 M 85 479.639 C 80.752 480.453, 60.729 486.011, 56.353 487.590 C 45.801 491.399, 48.517 510.937, 60.542 517.714 C 67.128 521.426, 72.442 521.881, 128 523.483 C 157.425 524.331, 191.625 525.690, 204 526.503 C 256.860 529.974, 276.879 531.021, 318 532.466 C 385.591 534.841, 396.831 535.867, 411.500 541 C 418.934 543.602, 428.364 545.633, 441.680 547.502 C 465.397 550.832, 472.894 561.977, 456.861 570.070 C 445.412 575.850, 443.460 582.778, 446.926 605.345 C 452.309 640.395, 474.366 648.174, 481.461 617.524 C 483.286 609.640, 486.013 606, 490.093 606 C 494.697 606, 495.922 606.974, 501.254 614.879 C 519.545 641.995, 539.616 641.768, 547.585 614.356 C 551.540 600.750, 549.873 593.384, 536.209 564.086 C 535.333 562.209, 532.209 558.390, 529.265 555.600 C 526.322 552.810, 522.813 548.651, 521.469 546.357 C 519.957 543.777, 517.019 540.960, 513.763 538.969 C 510.868 537.199, 506.462 533.857, 503.972 531.543 C 501.481 529.229, 497.206 526.541, 494.472 525.571 C 491.737 524.601, 484.927 521.583, 479.337 518.865 C 469.014 513.846, 461.828 512.016, 452.388 512.006 C 446.171 511.999, 427.251 508.227, 413 504.154 C 403.661 501.485, 400.509 501.091, 384.500 500.593 C 374.600 500.286, 359.300 499.385, 350.500 498.592 C 341.700 497.798, 328.425 496.878, 321 496.547 C 313.575 496.216, 301.200 495.504, 293.500 494.965 C 271.243 493.408, 154.952 490.893, 151 491.884 C 149.075 492.366, 145.325 493.715, 142.667 494.881 C 132.640 499.278, 123.714 497.502, 113.701 489.117 C 104.862 481.717, 93.586 477.993, 85 479.639" stroke="none" fill="#8b8c90" fill-rule="evenodd"/><path d="M 39.354 29.090 C 34.861 30.394, 30.379 34.973, 29.106 39.558 C 27.449 45.524, 27.583 123.961, 29.250 124.117 C 44.010 125.500, 62.293 118.737, 72.985 107.940 C 75.468 105.431, 79.975 101.549, 83 99.312 C 86.025 97.075, 89.596 94.060, 90.935 92.611 C 96.911 86.146, 108.206 87.251, 115.500 95.014 C 136.805 117.689, 168.898 123.717, 227.500 116.050 C 231.900 115.474, 241.575 114.313, 249 113.469 C 274.394 110.584, 279.523 109.854, 299 106.359 C 318.070 102.937, 338.217 100.929, 372.500 99.035 C 381.850 98.518, 394.225 97.213, 400 96.134 C 473.406 82.420, 548.310 88.193, 563.036 108.700 C 564.775 111.122, 567.931 114.250, 570.050 115.652 C 582.904 124.158, 584.243 145.167, 572.655 156.544 C 569.270 159.868, 563.870 165.620, 560.656 169.327 C 553.737 177.306, 546.997 181.443, 538.616 182.854 C 526.698 184.859, 488.849 186.345, 471.363 185.494 C 462.088 185.042, 450.675 184.590, 446 184.488 C 410.470 183.718, 381.496 180.913, 357 175.871 C 351.775 174.795, 341.200 173.487, 333.500 172.964 C 325.800 172.441, 318.133 171.783, 316.462 171.501 C 314.791 171.219, 305.116 170.563, 294.962 170.043 C 275.037 169.021, 259.429 166.600, 247.210 162.636 C 220.577 153.995, 159.218 154.269, 144.587 163.094 C 141.020 165.245, 135.041 168.142, 131.301 169.531 C 126.900 171.166, 122.285 173.935, 118.224 177.378 C 103.601 189.776, 94.056 188.091, 73.934 169.562 C 61.519 158.130, 59.391 157.281, 40.797 156.340 C 28 155.692, 28 155.692, 28 319.346 C 28 483, 28 483, 32.851 483 C 40.263 483, 43.439 481.425, 47.876 475.548 C 59.780 459.782, 86.676 454.323, 107.075 463.534 C 118.645 468.758, 120.554 468.903, 192 470.003 C 297.441 471.625, 325.931 472.851, 353.500 476.949 C 360.650 478.012, 371.896 479.399, 378.491 480.031 C 385.086 480.663, 390.760 481.352, 391.100 481.562 C 391.439 481.772, 398.193 482.382, 406.109 482.919 C 416.441 483.620, 422.897 484.619, 429 486.461 C 439.650 489.677, 460.150 494.547, 471.026 496.446 C 477.268 497.536, 480.682 498.779, 484.902 501.500 C 487.981 503.484, 493.665 506.603, 497.533 508.430 C 501.401 510.257, 507.613 514.058, 511.336 516.876 C 515.059 519.694, 518.534 522, 519.058 522 C 520.868 522, 537.337 539.296, 539.914 543.904 C 541.336 546.447, 544.204 550.772, 546.286 553.514 C 568.383 582.616, 572.072 610.988, 556.332 630.778 C 542.828 647.759, 531.196 656.692, 523.868 655.709 C 520.158 655.212, 518.336 654.196, 509.188 647.530 C 500.808 641.422, 491.057 641.920, 483.483 648.841 C 466.138 664.694, 436.188 648.557, 429.531 619.771 C 427.568 611.285, 425 590.008, 425 582.230 C 425 560.266, 405.189 555.230, 310 552.999 C 242.693 551.422, 211.703 550.153, 152 546.530 C 138.525 545.713, 117.150 544.579, 104.500 544.011 C 67.445 542.348, 57.546 540.245, 50 532.431 C 44.466 526.700, 40.693 525, 33.513 525 C 27.961 525, 27.961 525, 28.231 621.750 C 28.532 730.005, 27.987 722.342, 35.726 727.153 C 39.500 729.500, 39.500 729.500, 636 729.500 C 1232.500 729.500, 1232.500 729.500, 1236.274 727.153 C 1238.350 725.863, 1240.825 723.388, 1241.774 721.653 C 1244.453 716.759, 1244.453 41.241, 1241.774 36.347 C 1240.825 34.612, 1238.350 32.137, 1236.274 30.847 C 1232.292 28.370, 47.821 26.632, 39.354 29.090 M 446.500 111.536 C 441 112.237, 434.092 112.853, 431.149 112.905 C 428.207 112.957, 420.782 113.872, 414.649 114.937 C 408.517 116.002, 396.525 117.350, 388 117.931 C 361.139 119.762, 347.855 121.056, 336 122.994 C 329.675 124.028, 321.350 125.160, 317.500 125.510 C 313.650 125.859, 305.550 126.992, 299.500 128.026 C 293.450 129.061, 283.100 130.400, 276.500 131.002 C 230.142 135.229, 260.048 149.493, 320.500 151.988 C 350.819 153.240, 367.004 154.769, 379.500 157.563 C 417.008 165.950, 508.768 169.596, 533.472 163.681 C 556.596 158.144, 564.527 150.029, 561.999 134.493 C 560.006 122.249, 557.384 120.080, 541.486 117.525 C 535.994 116.643, 528.800 115.220, 525.500 114.364 C 509.433 110.196, 468.509 108.731, 446.500 111.536 M 88.354 117.750 C 67.291 133.525, 65.002 142.291, 79.361 152.185 C 81.088 153.374, 85.274 156.969, 88.663 160.174 C 97.787 168.798, 108.835 168.508, 116.303 159.449 C 117.853 157.569, 121.965 154.440, 125.442 152.495 C 141.377 143.584, 144.739 134.131, 133.244 130.562 C 132.003 130.176, 127.741 127.402, 123.773 124.395 C 110.256 114.155, 96.580 111.589, 88.354 117.750 M 823.788 157.776 C 821.747 158.724, 815.553 163.658, 810.026 168.739 C 804.498 173.821, 797.843 179.089, 795.238 180.446 C 791.173 182.563, 780.825 192.065, 769.377 204.192 C 767.660 206.011, 762.862 210.404, 758.716 213.953 C 754.186 217.830, 749.874 222.620, 747.912 225.953 C 746.117 229.004, 742.981 233.542, 740.943 236.038 C 738.906 238.533, 735.587 243.857, 733.567 247.867 C 731.547 251.877, 728.199 257.035, 726.127 259.329 C 724.054 261.623, 721.378 265.127, 720.180 267.116 C 718.982 269.106, 716.314 271.868, 714.251 273.254 C 706.892 278.201, 697.441 287.191, 693.792 292.716 C 691.752 295.804, 688.535 299.944, 686.643 301.915 C 684.751 303.887, 681.748 308.417, 679.970 311.983 C 678.191 315.548, 675.265 320.392, 673.467 322.747 C 663.616 335.648, 659.693 357.196, 665.409 367 C 674.563 382.698, 691.719 386.351, 705.225 375.478 C 707.576 373.585, 711.914 370.606, 714.865 368.858 C 718.525 366.690, 721.306 363.997, 723.615 360.388 C 725.477 357.477, 729.137 353.632, 731.750 351.842 C 734.362 350.053, 739.739 345.531, 743.698 341.794 C 753.086 332.932, 754.819 332.884, 760.175 341.339 C 761.974 344.177, 765.089 348.607, 767.098 351.182 C 769.106 353.757, 771.568 358.139, 772.569 360.921 C 773.569 363.702, 776.103 368.120, 778.200 370.739 C 780.297 373.358, 783.597 378.814, 785.533 382.865 C 787.470 386.915, 790.633 392.156, 792.562 394.511 C 794.492 396.865, 797.742 401.273, 799.785 404.305 C 801.828 407.338, 805.499 412.378, 807.943 415.506 C 815.268 424.882, 814.501 436.179, 805.025 458.441 C 802.743 463.802, 799.597 473.208, 798.032 479.344 C 796.468 485.480, 793.369 494.252, 791.146 498.838 C 788.924 503.425, 786.602 509.725, 785.987 512.838 C 782.062 532.723, 776.784 542.006, 760.153 558.275 C 746.232 571.893, 743.300 580.368, 750.031 587.533 C 759.452 597.561, 777.594 591.249, 787.160 574.617 C 789.412 570.703, 793.173 565.475, 795.519 563 C 800.349 557.905, 802.346 554.324, 805.194 545.648 C 806.286 542.320, 808.899 536.179, 811 532 C 813.101 527.821, 815.827 521.049, 817.056 516.951 C 818.286 512.853, 821.038 506, 823.171 501.721 C 825.305 497.443, 827.966 490.090, 829.084 485.382 C 831.767 474.087, 832.255 472.922, 837.697 464.811 C 845.970 452.479, 849.178 453.709, 853.041 470.696 C 854.267 476.088, 856.732 483.875, 858.518 488 C 871.125 517.117, 871.182 551.205, 858.646 564.841 C 848.030 576.389, 849.864 589.377, 862.479 591.996 C 876.593 594.926, 888.866 586.350, 896.282 568.378 C 901.351 556.091, 901.420 555.507, 899.156 543.851 C 896.463 529.979, 896.304 528.865, 894.481 511 C 893.611 502.475, 891.385 488.525, 889.534 480 C 881.560 443.270, 881.339 443.574, 915.088 444.908 C 940.979 445.932, 945.924 446.835, 957.862 452.720 C 966.077 456.770, 967.814 456.723, 980.225 452.122 C 997.456 445.735, 1005.468 450.823, 1000.650 465.095 C 999.200 469.393, 997.133 478.301, 996.058 484.891 C 994.983 491.481, 992.968 500.614, 991.580 505.186 C 990.192 509.759, 987.731 519.405, 986.110 526.622 C 981.935 545.214, 976.203 555.276, 965.175 563.372 C 952.532 572.652, 954.878 590.417, 968.925 591.767 C 978.999 592.735, 982.863 589.954, 997.109 571.475 C 1001.035 566.383, 1009.915 546.039, 1014.121 532.500 C 1021.437 508.949, 1029.835 485.905, 1032.262 482.723 C 1033.618 480.945, 1036.378 476.213, 1038.395 472.208 C 1044.707 459.674, 1055.319 460.160, 1064.234 473.392 C 1066.497 476.751, 1070.079 481.486, 1072.194 483.913 C 1077.899 490.461, 1079.305 496.494, 1079.323 514.500 C 1079.351 542.113, 1076.851 549.429, 1062.607 563.420 C 1045.392 580.330, 1047.003 591.063, 1066.873 591.842 C 1081.879 592.430, 1086.454 590.120, 1094.770 577.756 C 1097.371 573.888, 1100.755 568.873, 1102.289 566.611 C 1106.270 560.741, 1107.720 554.630, 1109.374 536.737 C 1111.130 517.747, 1112.090 515.528, 1119.852 512.536 C 1131.697 507.970, 1132.534 505.196, 1130.977 475.629 C 1130.336 463.458, 1129.455 445.625, 1129.019 436 C 1128.295 419.989, 1127.931 417.564, 1124.745 407.500 C 1122.830 401.450, 1120.961 393.575, 1120.591 390 C 1118.713 371.860, 1106.103 353.445, 1080.614 331.617 C 1071.329 323.666, 1053.911 321.936, 1015.052 325.105 C 970.780 328.717, 904.143 323.911, 867.936 314.496 C 862.676 313.128, 853.226 311.588, 846.936 311.073 C 833.203 309.950, 832.927 309.857, 826.106 304.073 C 806.577 287.516, 803.582 279.405, 814.383 272.334 C 817.043 270.593, 824.007 264.518, 829.860 258.834 C 835.712 253.150, 842.525 247.042, 845 245.260 C 851.965 240.246, 862.911 230.466, 865.848 226.632 C 867.307 224.728, 873.318 218.038, 879.207 211.764 C 903.533 185.848, 890.710 169.210, 858.142 184.434 C 843.199 191.419, 840.986 190.335, 841.228 176.154 C 841.519 159.056, 835.252 152.452, 823.788 157.776 M 796.500 198.662 C 794.850 199.531, 792.520 201.136, 791.323 202.227 C 790.126 203.318, 786.318 205.626, 782.860 207.356 C 771.213 213.181, 759.837 233.437, 765.200 238.800 C 767.121 240.721, 769.020 240.224, 773.397 236.652 C 775.654 234.811, 778.693 232.673, 780.151 231.902 C 784.180 229.771, 800.130 212.062, 803.316 206.184 C 807.788 197.931, 804.587 194.398, 796.500 198.662 M 844.500 212.810 C 843.400 213.038, 840.440 214.731, 837.921 216.572 C 835.403 218.413, 829.297 221.230, 824.352 222.833 C 819.406 224.436, 813.367 227.022, 810.930 228.579 C 808.494 230.137, 803.125 232.605, 799 234.065 C 792.260 236.450, 791.145 237.232, 788 241.785 C 771.903 265.088, 760.702 273.188, 742.004 275.049 C 726.181 276.624, 724.263 278.006, 725.493 286.951 C 726.980 297.763, 721.192 305.807, 710.348 308 C 702.597 309.568, 700.742 310.897, 696.713 317.772 C 694.844 320.962, 691.687 325.703, 689.698 328.309 C 685.927 333.248, 684.762 336.366, 682.838 346.664 C 680.099 361.319, 692.631 366.749, 704.462 356.034 C 707.478 353.303, 711.870 350.089, 714.223 348.893 C 718.042 346.950, 727.668 338.778, 746.755 321.276 C 758.828 310.206, 768.331 312.857, 774.507 329.019 C 775.959 332.817, 779.373 338.941, 782.095 342.628 C 785.299 346.969, 787.780 351.759, 789.135 356.217 C 790.423 360.460, 792.879 365.302, 795.535 368.834 C 797.904 371.987, 800.772 377.010, 801.907 379.997 C 804.820 387.665, 818.967 402, 823.621 402 C 827.768 402, 828.157 400.915, 828.999 387 C 829.755 374.499, 833.244 364.458, 843.241 346.010 C 849.030 335.329, 848.585 334.141, 836.719 328.603 C 831.649 326.236, 826.600 323.277, 825.500 322.028 C 824.400 320.779, 820.800 317.926, 817.500 315.688 C 814.200 313.451, 809.025 309.314, 806 306.495 C 802.975 303.677, 798.331 299.632, 795.679 297.507 C 784.968 288.922, 783.911 277.583, 793.213 271.061 C 815.708 255.287, 832.920 239.740, 841.095 227.808 C 843.240 224.678, 845.784 221.528, 846.748 220.808 C 852.685 216.375, 851.289 211.405, 844.500 212.810 M 871.375 340.728 C 849.404 353.187, 842.609 395.435, 859.188 416.512 C 861.144 418.999, 861.278 419.019, 871.881 418.375 C 880.721 417.838, 884.337 418.092, 892.548 419.827 C 909.380 423.384, 914.942 424.127, 931 424.961 C 944.516 425.664, 947.651 426.166, 955.492 428.883 C 977.712 436.585, 1017 424.780, 1017 410.402 C 1017 408.476, 1015.330 403.923, 1013 399.500 C 1006.786 387.702, 1008.209 380.545, 1016.767 380.545 C 1021.883 380.545, 1023.719 382.142, 1027.068 389.500 C 1028.570 392.800, 1031.558 397.525, 1033.708 400 C 1035.857 402.475, 1038.681 406.300, 1039.983 408.500 C 1042.121 412.112, 1044.818 415.356, 1055.576 427.250 C 1065.107 437.788, 1073.384 428.996, 1075.113 406.500 C 1075.620 399.900, 1076.702 390.963, 1077.517 386.640 C 1083.997 352.288, 1071.889 339.506, 1037.142 344.017 C 1011.153 347.391, 950.022 347.065, 925.500 343.422 C 916.067 342.021, 898.847 340.433, 882 339.412 C 876.059 339.051, 873.850 339.325, 871.375 340.728 M 1096.255 405.250 C 1086.001 418.195, 1089.342 465.455, 1100.999 472.340 C 1109.557 477.395, 1110.309 473.390, 1106.982 440.470 C 1103.761 408.587, 1100.942 399.332, 1096.255 405.250 M 85 479.639 C 80.752 480.453, 60.729 486.011, 56.353 487.590 C 45.801 491.399, 48.517 510.937, 60.542 517.714 C 67.128 521.426, 72.442 521.881, 128 523.483 C 157.425 524.331, 191.625 525.690, 204 526.503 C 256.860 529.974, 276.879 531.021, 318 532.466 C 385.591 534.841, 396.831 535.867, 411.500 541 C 418.934 543.602, 428.364 545.633, 441.680 547.502 C 465.397 550.832, 472.894 561.977, 456.861 570.070 C 445.412 575.850, 443.460 582.778, 446.926 605.345 C 452.309 640.395, 474.366 648.174, 481.461 617.524 C 483.286 609.640, 486.013 606, 490.093 606 C 494.697 606, 495.922 606.974, 501.254 614.879 C 519.545 641.995, 539.616 641.768, 547.585 614.356 C 551.540 600.750, 549.873 593.384, 536.209 564.086 C 535.333 562.209, 532.209 558.390, 529.265 555.600 C 526.322 552.810, 522.813 548.651, 521.469 546.357 C 519.957 543.777, 517.019 540.960, 513.763 538.969 C 510.868 537.199, 506.462 533.857, 503.972 531.543 C 501.481 529.229, 497.206 526.541, 494.472 525.571 C 491.737 524.601, 484.927 521.583, 479.337 518.865 C 469.014 513.846, 461.828 512.016, 452.388 512.006 C 446.171 511.999, 427.251 508.227, 413 504.154 C 403.661 501.485, 400.509 501.091, 384.500 500.593 C 374.600 500.286, 359.300 499.385, 350.500 498.592 C 341.700 497.798, 328.425 496.878, 321 496.547 C 313.575 496.216, 301.200 495.504, 293.500 494.965 C 271.243 493.408, 154.952 490.893, 151 491.884 C 149.075 492.366, 145.325 493.715, 142.667 494.881 C 132.640 499.278, 123.714 497.502, 113.701 489.117 C 104.862 481.717, 93.586 477.993, 85 479.639" stroke="none" fill="#f4f4f4" fill-rule="evenodd"/></svg>