<svg xmlns="http://www.w3.org/2000/svg" width="1272" height="564" viewBox="0 0 1272 564" version="1.1"><path d="M 1068.346 80.040 C 1061.581 84.404, 1061.811 81.561, 1061.950 158.835 C 1062.108 246.512, 1062.173 246.294, 1041.529 227.008 C 1029.010 215.312, 1027.195 214, 1023.533 214 C 1015.140 214, 1018.183 220.268, 1034.942 237.500 C 1052.455 255.506, 1053.448 259.068, 1043.896 269.615 C 1033.927 280.623, 1034.201 290.576, 1044.795 302.274 C 1059.335 318.329, 1058.162 322.518, 1032.272 347 C 1022.590 356.155, 1019.478 360.785, 1020.438 364.608 C 1021.664 369.494, 1028.592 367.201, 1036 359.456 C 1047.208 347.739, 1055.608 343.698, 1059.595 348.106 C 1061.428 350.133, 1061.505 352.925, 1061.643 422.449 C 1061.826 514.606, 1058.009 505.469, 1096.272 505.363 C 1124.139 505.286, 1124.607 505.175, 1128.288 497.779 C 1130.913 492.504, 1130.978 94.864, 1128.355 89.336 C 1124.488 81.187, 1118.253 79.369, 1091.500 78.589 C 1072.548 78.037, 1071.335 78.113, 1068.346 80.040 M 655.500 80.159 C 652.750 80.674, 645.100 82.843, 638.500 84.979 C 631.170 87.352, 621.830 89.492, 614.500 90.479 C 592.914 93.385, 585.361 96.541, 574.279 107.283 C 557.934 123.126, 562.755 140.071, 580.386 128.750 C 585.759 125.300, 627.884 123.104, 635.216 125.892 C 641.517 128.288, 643.951 139.549, 642.005 157.292 C 638.799 186.508, 641.240 220.338, 647.905 239.062 C 649.557 243.703, 651.640 250.425, 652.533 254 C 653.426 257.575, 656.095 264.550, 658.464 269.500 C 665.830 284.890, 670.598 299.443, 672.389 312 C 673.292 318.325, 674.573 327.100, 675.237 331.500 C 677.649 347.482, 676.217 384.229, 672.488 402.029 C 671.736 405.619, 670.643 413.944, 670.058 420.529 C 669.407 427.875, 668.033 435.501, 666.504 440.269 C 665.134 444.541, 663.513 451.291, 662.902 455.269 C 659.607 476.725, 654.576 478.672, 608 476.515 C 567.078 474.620, 562.421 475.599, 555.403 487.575 C 550.703 495.595, 553.714 498.085, 564.412 495.025 C 574.903 492.025, 623.334 492.618, 652 496.098 C 658.129 496.842, 664.535 496.793, 674.966 495.921 C 685.181 495.068, 695.468 494.971, 709.966 495.593 C 737.619 496.778, 773.547 496.505, 795.751 494.940 C 810.100 493.930, 815.395 493.911, 820.516 494.855 C 830.810 496.752, 833.917 493.343, 828.539 486.052 C 821.187 476.087, 818.432 475.701, 774.943 478.531 C 752.122 480.016, 748.793 476.182, 753.453 453.787 C 757.658 433.579, 760.987 430.884, 774.808 436.500 C 789.490 442.466, 799.748 433.927, 806.456 410.156 C 810.274 396.627, 813.139 396.386, 820.206 409 C 832.063 430.165, 849.309 451.059, 862.154 459.823 C 864.842 461.657, 868.825 465.797, 871.041 469.061 C 874.964 474.837, 883.748 482.954, 890.920 487.431 C 908.309 498.285, 912.776 500.120, 922 500.201 C 935.016 500.314, 943.404 493.629, 945.520 481.453 C 945.898 479.279, 948.015 473.808, 950.225 469.296 C 955.242 459.052, 955.037 453.676, 949.273 444.340 C 945.052 437.503, 936.595 420.563, 933.999 413.744 C 931.835 408.061, 923.764 394.384, 912.633 377.540 C 897.802 355.094, 886.539 337.897, 883.421 332.936 C 878.704 325.431, 871.584 316.912, 866.423 312.598 C 863.860 310.455, 859.392 305.057, 856.493 300.601 C 853.595 296.146, 849.338 290.700, 847.035 288.500 C 844.731 286.300, 841.225 282.250, 839.244 279.500 C 837.262 276.750, 832.234 270.871, 828.070 266.436 C 823.907 262.002, 816.900 254.186, 812.500 249.068 C 799.930 234.446, 790.861 225.035, 786.296 221.876 C 783.983 220.276, 780.079 216.352, 777.620 213.156 C 775.161 209.960, 768.123 202.205, 761.981 195.923 C 741.358 174.830, 737.141 163.660, 735.964 127 C 734.866 92.821, 731.443 83.716, 718.321 80.072 C 713.601 78.762, 662.591 78.832, 655.500 80.159 M 385 83.124 C 370.615 83.754, 355.226 85.213, 338.500 87.535 C 324.750 89.444, 311.066 91.004, 308.090 91.003 C 298.431 90.998, 272.786 93.968, 261 96.457 C 242.900 100.279, 239.439 100.796, 223.664 102.034 C 179.529 105.497, 167.550 103.273, 145.186 87.463 C 139.659 83.557, 138.221 83, 133.658 83 C 128.067 83, 128.623 82.701, 114.893 93.099 C 105.338 100.336, 102.505 101.741, 91.576 104.666 C 65.599 111.618, 63.551 122.363, 86.816 129.635 C 101.210 134.134, 108.312 137.625, 117.834 144.880 C 131.637 155.397, 132.084 155.471, 143 149.061 C 172.120 131.960, 201.718 129.427, 254.500 139.518 C 274.016 143.249, 294.550 146, 302.881 146 C 309.862 146, 343.720 149.372, 357.092 151.400 C 370.095 153.371, 416.281 155.391, 432.957 154.719 C 487.778 152.507, 508.640 113.518, 467.754 89.687 C 455.814 82.727, 433.861 80.986, 385 83.124 M 682.500 96.386 C 678.390 98.177, 677.138 99.938, 676.128 105.346 C 674.047 116.484, 665.866 116.238, 664.086 104.983 C 663.135 98.965, 662.084 98.036, 656.200 98.015 C 643.215 97.969, 640.275 106.404, 650.037 115.698 C 659.382 124.595, 660.815 135.265, 657.802 173.500 C 654.414 216.482, 658.643 234.161, 680.397 267.955 C 685.128 275.307, 689 281.715, 689 282.195 C 689 283.599, 698.015 299.162, 701.120 303.119 C 704.334 307.214, 708.427 314.209, 717.649 331.367 C 721.157 337.894, 726.540 347.119, 729.612 351.867 C 738.674 365.875, 744.670 377.223, 747.991 386.653 C 759.505 419.345, 784.261 430.585, 789.502 405.500 C 797.019 369.517, 793.299 351.388, 775.811 338.776 C 762.389 329.097, 747.776 315.930, 742.902 309.123 C 740.728 306.087, 736.019 301.268, 732.438 298.414 C 721.559 289.746, 714.399 282.532, 707.001 272.790 C 703.121 267.681, 697.027 260.125, 693.459 256 C 667.702 226.228, 682.292 200.245, 721.664 205.770 C 742.380 208.677, 738.209 221.814, 716.173 223.068 C 691.073 224.497, 691.606 239.772, 717.738 267.944 C 722.557 273.139, 727.791 279.214, 729.371 281.444 C 733.579 287.386, 739.695 293.572, 746.500 298.772 C 749.800 301.293, 754.750 305.438, 757.500 307.983 C 760.250 310.528, 765.425 314.569, 769 316.965 C 772.575 319.360, 779.550 324.576, 784.500 328.555 C 789.450 332.535, 798.900 339.060, 805.500 343.055 C 812.100 347.051, 819.525 352.010, 822 354.076 C 826.069 357.472, 844.699 369.639, 857.500 377.259 C 863.956 381.102, 873.757 388.791, 882.182 396.624 C 885.856 400.040, 891.031 404.061, 893.682 405.559 C 896.332 407.058, 901.185 410.038, 904.467 412.183 C 919.001 421.680, 915.603 405.651, 897.856 381.003 C 894.491 376.329, 890.365 370.029, 888.687 367.003 C 873.456 339.529, 856.201 313.972, 849.435 308.863 C 845.911 306.202, 842.008 301.802, 838.565 296.606 C 835.610 292.148, 831.308 286.700, 829.004 284.500 C 826.700 282.300, 823.422 278.475, 821.719 276 C 818.508 271.332, 808.720 260.296, 793.882 244.610 C 789.142 239.600, 783.857 233.475, 782.137 231 C 780.416 228.525, 776.195 224.447, 772.755 221.939 C 769.315 219.430, 764.925 215.035, 763 212.171 C 761.075 209.308, 756.430 204.207, 752.678 200.837 C 736.415 186.232, 722.027 162.959, 721.992 151.201 C 721.987 149.715, 720.625 141.975, 718.965 134 C 717.304 126.025, 715.294 115.498, 714.498 110.607 C 712.164 96.266, 697.613 89.799, 682.500 96.386 M 1086.893 96.443 C 1079.905 100.386, 1080.521 82.273, 1080.318 289.944 C 1080.165 446.003, 1080.359 476.923, 1081.507 479.672 C 1085.467 489.148, 1103.749 489.783, 1110.429 480.677 C 1113.211 476.885, 1113.768 107.960, 1111 102.590 C 1107.554 95.905, 1093.980 92.444, 1086.893 96.443 M 381 99.010 C 371.066 99.722, 340.543 103.668, 338.068 104.560 C 336.496 105.128, 320.235 106.527, 298.500 107.966 C 240.126 111.829, 253.432 126.423, 319.500 130.998 C 335.848 132.130, 357.431 134.488, 373.991 136.951 C 413.433 142.817, 472.233 136.376, 475.925 125.785 C 483.826 103.121, 451.379 93.969, 381 99.010 M 126.500 101.445 C 119.885 104.608, 112 113.985, 112 118.689 C 112 126.530, 124.415 139, 132.221 139 C 139.069 139, 159 124.466, 159 119.473 C 159 110.280, 135.401 97.190, 126.500 101.445 M 695.106 335.372 C 694.397 336.227, 693.596 345.491, 692.980 359.962 C 692.437 372.731, 691.719 384.269, 691.385 385.602 C 688.523 397.007, 699.052 407, 713.931 407 C 726.823 407, 727.872 379.457, 715.828 357.182 C 706.699 340.298, 698.329 331.489, 695.106 335.372 M 450 366.880 C 437.900 369.515, 431.971 382.220, 427.030 416.105 C 423.065 443.301, 419.398 454.415, 412.927 458.847 C 409.214 461.390, 410.486 461.387, 389 458.895 C 360.714 455.614, 276.301 456.834, 240.500 461.042 C 231.700 462.076, 217.525 463.403, 209 463.992 C 162.158 467.225, 164.955 467.382, 156.964 461.066 C 136.699 445.047, 118.576 444.073, 104.930 458.268 C 97.361 466.142, 97.361 466.142, 90.039 467.061 C 76.928 468.708, 71.948 474.339, 75.464 483.544 C 81.711 499.903, 119.130 507.940, 151.740 499.927 C 162.766 497.218, 354.127 495.854, 434.727 497.910 C 498.037 499.525, 491.382 506.568, 491.810 437.500 C 492.204 373.922, 492.117 373.278, 482.487 368.538 C 478.153 366.405, 457.114 365.331, 450 366.880 M 828.067 380.419 C 824.813 384.340, 836.597 410.079, 852.140 433 C 873.221 464.086, 918.243 494.406, 926.927 483.365 C 930.704 478.564, 929.834 475.274, 921.670 463.500 C 920.907 462.400, 917.337 456.937, 913.736 451.360 C 910.136 445.783, 902.984 436.509, 897.845 430.750 C 892.705 424.992, 886.145 417.556, 883.266 414.226 C 879.859 410.284, 874.102 405.577, 866.766 400.736 C 860.570 396.647, 850.956 390.311, 845.401 386.656 C 834.344 379.380, 830.175 377.880, 828.067 380.419 M 459 383.599 C 454.809 385.127, 453.078 386.519, 451.226 389.851 C 448.526 394.706, 444.452 411.719, 442.499 426.290 C 441.630 432.775, 440.075 442.116, 439.043 447.048 C 435.812 462.481, 441.025 468.737, 460.500 472.801 C 474.968 475.821, 475.092 475.429, 474.765 427.772 C 474.459 383.099, 472.837 378.554, 459 383.599 M 693.096 423.201 C 688.302 425.792, 683.919 436.872, 678.300 460.607 C 673.856 479.376, 721.162 487.231, 731.580 469.454 C 741.405 452.689, 740.457 431.180, 729.837 429.899 C 726.181 429.457, 720.586 427.769, 716.611 425.908 C 708.699 422.202, 697.359 420.897, 693.096 423.201" stroke="none" fill="#96989b" fill-rule="evenodd"/><path d="M 38.500 29.501 C 33.625 31.228, 30.412 34.756, 29.026 39.903 C 28.313 42.551, 28.065 119.581, 28.242 283.637 C 28.533 554.393, 27.693 527.564, 36.035 532.465 C 41.519 535.686, 1230.481 535.686, 1235.965 532.465 C 1244.316 527.558, 1243.500 554.736, 1243.500 281.500 C 1243.500 8.264, 1244.316 35.442, 1235.965 30.535 C 1231.398 27.853, 46.044 26.829, 38.500 29.501 M 1068.346 80.040 C 1061.581 84.404, 1061.811 81.561, 1061.950 158.835 C 1062.108 246.512, 1062.173 246.294, 1041.529 227.008 C 1029.010 215.312, 1027.195 214, 1023.533 214 C 1015.140 214, 1018.183 220.268, 1034.942 237.500 C 1052.455 255.506, 1053.448 259.068, 1043.896 269.615 C 1033.927 280.623, 1034.201 290.576, 1044.795 302.274 C 1059.335 318.329, 1058.162 322.518, 1032.272 347 C 1022.590 356.155, 1019.478 360.785, 1020.438 364.608 C 1021.664 369.494, 1028.592 367.201, 1036 359.456 C 1047.208 347.739, 1055.608 343.698, 1059.595 348.106 C 1061.428 350.133, 1061.505 352.925, 1061.643 422.449 C 1061.826 514.606, 1058.009 505.469, 1096.272 505.363 C 1124.139 505.286, 1124.607 505.175, 1128.288 497.779 C 1130.913 492.504, 1130.978 94.864, 1128.355 89.336 C 1124.488 81.187, 1118.253 79.369, 1091.500 78.589 C 1072.548 78.037, 1071.335 78.113, 1068.346 80.040 M 655.500 80.159 C 652.750 80.674, 645.100 82.843, 638.500 84.979 C 631.170 87.352, 621.830 89.492, 614.500 90.479 C 592.914 93.385, 585.361 96.541, 574.279 107.283 C 557.934 123.126, 562.755 140.071, 580.386 128.750 C 585.759 125.300, 627.884 123.104, 635.216 125.892 C 641.517 128.288, 643.951 139.549, 642.005 157.292 C 638.799 186.508, 641.240 220.338, 647.905 239.062 C 649.557 243.703, 651.640 250.425, 652.533 254 C 653.426 257.575, 656.095 264.550, 658.464 269.500 C 665.830 284.890, 670.598 299.443, 672.389 312 C 673.292 318.325, 674.573 327.100, 675.237 331.500 C 677.649 347.482, 676.217 384.229, 672.488 402.029 C 671.736 405.619, 670.643 413.944, 670.058 420.529 C 669.407 427.875, 668.033 435.501, 666.504 440.269 C 665.134 444.541, 663.513 451.291, 662.902 455.269 C 659.607 476.725, 654.576 478.672, 608 476.515 C 567.078 474.620, 562.421 475.599, 555.403 487.575 C 550.703 495.595, 553.714 498.085, 564.412 495.025 C 574.903 492.025, 623.334 492.618, 652 496.098 C 658.129 496.842, 664.535 496.793, 674.966 495.921 C 685.181 495.068, 695.468 494.971, 709.966 495.593 C 737.619 496.778, 773.547 496.505, 795.751 494.940 C 810.100 493.930, 815.395 493.911, 820.516 494.855 C 830.810 496.752, 833.917 493.343, 828.539 486.052 C 821.187 476.087, 818.432 475.701, 774.943 478.531 C 752.122 480.016, 748.793 476.182, 753.453 453.787 C 757.658 433.579, 760.987 430.884, 774.808 436.500 C 789.490 442.466, 799.748 433.927, 806.456 410.156 C 810.274 396.627, 813.139 396.386, 820.206 409 C 832.063 430.165, 849.309 451.059, 862.154 459.823 C 864.842 461.657, 868.825 465.797, 871.041 469.061 C 874.964 474.837, 883.748 482.954, 890.920 487.431 C 908.309 498.285, 912.776 500.120, 922 500.201 C 935.016 500.314, 943.404 493.629, 945.520 481.453 C 945.898 479.279, 948.015 473.808, 950.225 469.296 C 955.242 459.052, 955.037 453.676, 949.273 444.340 C 945.052 437.503, 936.595 420.563, 933.999 413.744 C 931.835 408.061, 923.764 394.384, 912.633 377.540 C 897.802 355.094, 886.539 337.897, 883.421 332.936 C 878.704 325.431, 871.584 316.912, 866.423 312.598 C 863.860 310.455, 859.392 305.057, 856.493 300.601 C 853.595 296.146, 849.338 290.700, 847.035 288.500 C 844.731 286.300, 841.225 282.250, 839.244 279.500 C 837.262 276.750, 832.234 270.871, 828.070 266.436 C 823.907 262.002, 816.900 254.186, 812.500 249.068 C 799.930 234.446, 790.861 225.035, 786.296 221.876 C 783.983 220.276, 780.079 216.352, 777.620 213.156 C 775.161 209.960, 768.123 202.205, 761.981 195.923 C 741.358 174.830, 737.141 163.660, 735.964 127 C 734.866 92.821, 731.443 83.716, 718.321 80.072 C 713.601 78.762, 662.591 78.832, 655.500 80.159 M 385 83.124 C 370.615 83.754, 355.226 85.213, 338.500 87.535 C 324.750 89.444, 311.066 91.004, 308.090 91.003 C 298.431 90.998, 272.786 93.968, 261 96.457 C 242.900 100.279, 239.439 100.796, 223.664 102.034 C 179.529 105.497, 167.550 103.273, 145.186 87.463 C 139.659 83.557, 138.221 83, 133.658 83 C 128.067 83, 128.623 82.701, 114.893 93.099 C 105.338 100.336, 102.505 101.741, 91.576 104.666 C 65.599 111.618, 63.551 122.363, 86.816 129.635 C 101.210 134.134, 108.312 137.625, 117.834 144.880 C 131.637 155.397, 132.084 155.471, 143 149.061 C 172.120 131.960, 201.718 129.427, 254.500 139.518 C 274.016 143.249, 294.550 146, 302.881 146 C 309.862 146, 343.720 149.372, 357.092 151.400 C 370.095 153.371, 416.281 155.391, 432.957 154.719 C 487.778 152.507, 508.640 113.518, 467.754 89.687 C 455.814 82.727, 433.861 80.986, 385 83.124 M 682.500 96.386 C 678.390 98.177, 677.138 99.938, 676.128 105.346 C 674.047 116.484, 665.866 116.238, 664.086 104.983 C 663.135 98.965, 662.084 98.036, 656.200 98.015 C 643.215 97.969, 640.275 106.404, 650.037 115.698 C 659.382 124.595, 660.815 135.265, 657.802 173.500 C 654.414 216.482, 658.643 234.161, 680.397 267.955 C 685.128 275.307, 689 281.715, 689 282.195 C 689 283.599, 698.015 299.162, 701.120 303.119 C 704.334 307.214, 708.427 314.209, 717.649 331.367 C 721.157 337.894, 726.540 347.119, 729.612 351.867 C 738.674 365.875, 744.670 377.223, 747.991 386.653 C 759.505 419.345, 784.261 430.585, 789.502 405.500 C 797.019 369.517, 793.299 351.388, 775.811 338.776 C 762.389 329.097, 747.776 315.930, 742.902 309.123 C 740.728 306.087, 736.019 301.268, 732.438 298.414 C 721.559 289.746, 714.399 282.532, 707.001 272.790 C 703.121 267.681, 697.027 260.125, 693.459 256 C 667.702 226.228, 682.292 200.245, 721.664 205.770 C 742.380 208.677, 738.209 221.814, 716.173 223.068 C 691.073 224.497, 691.606 239.772, 717.738 267.944 C 722.557 273.139, 727.791 279.214, 729.371 281.444 C 733.579 287.386, 739.695 293.572, 746.500 298.772 C 749.800 301.293, 754.750 305.438, 757.500 307.983 C 760.250 310.528, 765.425 314.569, 769 316.965 C 772.575 319.360, 779.550 324.576, 784.500 328.555 C 789.450 332.535, 798.900 339.060, 805.500 343.055 C 812.100 347.051, 819.525 352.010, 822 354.076 C 826.069 357.472, 844.699 369.639, 857.500 377.259 C 863.956 381.102, 873.757 388.791, 882.182 396.624 C 885.856 400.040, 891.031 404.061, 893.682 405.559 C 896.332 407.058, 901.185 410.038, 904.467 412.183 C 919.001 421.680, 915.603 405.651, 897.856 381.003 C 894.491 376.329, 890.365 370.029, 888.687 367.003 C 873.456 339.529, 856.201 313.972, 849.435 308.863 C 845.911 306.202, 842.008 301.802, 838.565 296.606 C 835.610 292.148, 831.308 286.700, 829.004 284.500 C 826.700 282.300, 823.422 278.475, 821.719 276 C 818.508 271.332, 808.720 260.296, 793.882 244.610 C 789.142 239.600, 783.857 233.475, 782.137 231 C 780.416 228.525, 776.195 224.447, 772.755 221.939 C 769.315 219.430, 764.925 215.035, 763 212.171 C 761.075 209.308, 756.430 204.207, 752.678 200.837 C 736.415 186.232, 722.027 162.959, 721.992 151.201 C 721.987 149.715, 720.625 141.975, 718.965 134 C 717.304 126.025, 715.294 115.498, 714.498 110.607 C 712.164 96.266, 697.613 89.799, 682.500 96.386 M 1086.893 96.443 C 1079.905 100.386, 1080.521 82.273, 1080.318 289.944 C 1080.165 446.003, 1080.359 476.923, 1081.507 479.672 C 1085.467 489.148, 1103.749 489.783, 1110.429 480.677 C 1113.211 476.885, 1113.768 107.960, 1111 102.590 C 1107.554 95.905, 1093.980 92.444, 1086.893 96.443 M 381 99.010 C 371.066 99.722, 340.543 103.668, 338.068 104.560 C 336.496 105.128, 320.235 106.527, 298.500 107.966 C 240.126 111.829, 253.432 126.423, 319.500 130.998 C 335.848 132.130, 357.431 134.488, 373.991 136.951 C 413.433 142.817, 472.233 136.376, 475.925 125.785 C 483.826 103.121, 451.379 93.969, 381 99.010 M 126.500 101.445 C 119.885 104.608, 112 113.985, 112 118.689 C 112 126.530, 124.415 139, 132.221 139 C 139.069 139, 159 124.466, 159 119.473 C 159 110.280, 135.401 97.190, 126.500 101.445 M 695.106 335.372 C 694.397 336.227, 693.596 345.491, 692.980 359.962 C 692.437 372.731, 691.719 384.269, 691.385 385.602 C 688.523 397.007, 699.052 407, 713.931 407 C 726.823 407, 727.872 379.457, 715.828 357.182 C 706.699 340.298, 698.329 331.489, 695.106 335.372 M 450 366.880 C 437.900 369.515, 431.971 382.220, 427.030 416.105 C 423.065 443.301, 419.398 454.415, 412.927 458.847 C 409.214 461.390, 410.486 461.387, 389 458.895 C 360.714 455.614, 276.301 456.834, 240.500 461.042 C 231.700 462.076, 217.525 463.403, 209 463.992 C 162.158 467.225, 164.955 467.382, 156.964 461.066 C 136.699 445.047, 118.576 444.073, 104.930 458.268 C 97.361 466.142, 97.361 466.142, 90.039 467.061 C 76.928 468.708, 71.948 474.339, 75.464 483.544 C 81.711 499.903, 119.130 507.940, 151.740 499.927 C 162.766 497.218, 354.127 495.854, 434.727 497.910 C 498.037 499.525, 491.382 506.568, 491.810 437.500 C 492.204 373.922, 492.117 373.278, 482.487 368.538 C 478.153 366.405, 457.114 365.331, 450 366.880 M 828.067 380.419 C 824.813 384.340, 836.597 410.079, 852.140 433 C 873.221 464.086, 918.243 494.406, 926.927 483.365 C 930.704 478.564, 929.834 475.274, 921.670 463.500 C 920.907 462.400, 917.337 456.937, 913.736 451.360 C 910.136 445.783, 902.984 436.509, 897.845 430.750 C 892.705 424.992, 886.145 417.556, 883.266 414.226 C 879.859 410.284, 874.102 405.577, 866.766 400.736 C 860.570 396.647, 850.956 390.311, 845.401 386.656 C 834.344 379.380, 830.175 377.880, 828.067 380.419 M 459 383.599 C 454.809 385.127, 453.078 386.519, 451.226 389.851 C 448.526 394.706, 444.452 411.719, 442.499 426.290 C 441.630 432.775, 440.075 442.116, 439.043 447.048 C 435.812 462.481, 441.025 468.737, 460.500 472.801 C 474.968 475.821, 475.092 475.429, 474.765 427.772 C 474.459 383.099, 472.837 378.554, 459 383.599 M 693.096 423.201 C 688.302 425.792, 683.919 436.872, 678.300 460.607 C 673.856 479.376, 721.162 487.231, 731.580 469.454 C 741.405 452.689, 740.457 431.180, 729.837 429.899 C 726.181 429.457, 720.586 427.769, 716.611 425.908 C 708.699 422.202, 697.359 420.897, 693.096 423.201" stroke="none" fill="#f3f3f3" fill-rule="evenodd"/></svg>