<svg xmlns="http://www.w3.org/2000/svg" width="1272" height="603" viewBox="0 0 1272 603" version="1.1"><path d="M 1019.500 33.802 C 1016.742 34.385, 1005.532 44.365, 1000.584 50.641 C 998.338 53.490, 993.701 57.875, 990.280 60.386 C 982.232 66.293, 979.643 70.396, 976.640 82 C 975.288 87.225, 972.613 95.100, 970.696 99.500 C 964.603 113.482, 964.844 117.158, 972.596 128.480 C 984.241 145.487, 984.060 149.807, 971.302 159.384 C 967.892 161.944, 963.432 166.077, 961.389 168.570 C 959.346 171.063, 954.485 175.853, 950.587 179.214 C 946.689 182.574, 938.393 191.296, 932.151 198.595 C 913.548 220.350, 912.105 220.369, 889.099 199.172 C 869.825 181.415, 867.063 178.365, 863.749 171.186 C 849.700 140.751, 834.301 128.307, 824.262 139.279 C 816.153 148.142, 825.964 173.125, 845.862 194.282 C 851.713 200.504, 863.457 213.448, 871.960 223.047 C 911.735 267.949, 918.236 268.870, 947.988 233.814 C 967.160 211.224, 973.337 213.011, 978.011 242.500 C 979.145 249.650, 981.925 262.925, 984.191 272 C 990.406 296.899, 988.633 327.152, 980.385 336.955 C 974.646 343.775, 970.996 341.761, 948.406 319.312 C 918.255 289.351, 911.836 284.937, 897.976 284.640 C 874.931 284.146, 863.870 307.921, 871.964 340.552 C 873.593 347.123, 875.644 357, 876.520 362.500 C 877.396 368, 878.988 376.529, 880.057 381.453 C 883.374 396.737, 882.673 400.677, 874.979 410 C 872.937 412.475, 869.806 417.288, 868.023 420.695 C 860.343 435.365, 852.598 442.264, 838.975 446.568 C 819.589 452.692, 814.512 468.093, 829.427 475.526 C 836.869 479.234, 842.044 478.841, 857.964 473.358 C 871.442 468.717, 871.442 468.717, 883.471 469.602 C 902.093 470.971, 921.154 470.402, 949.500 467.628 C 999.331 462.752, 1001.625 462.643, 1025.479 463.987 C 1046.531 465.174, 1048.033 465.397, 1059.620 469.058 C 1095.703 480.457, 1120.200 478.558, 1120.200 464.360 C 1120.200 456.816, 1115.611 453.838, 1092.946 446.669 C 1068.037 438.792, 1065.231 435.298, 1069.453 417.427 C 1073.190 401.612, 1073.596 394.448, 1071.463 381.970 C 1068.170 362.711, 1069.362 310.282, 1073.503 292.225 C 1077.286 275.728, 1079.275 275.583, 1117.500 289.005 C 1149.121 300.108, 1165.064 282.971, 1150.531 253.500 C 1148.633 249.650, 1143.656 239.075, 1139.471 230 C 1121.907 191.906, 1115.725 181.536, 1102.630 168.205 C 1095.433 160.878, 1090.960 157.390, 1081.500 151.731 C 1062.737 140.507, 1062.228 139.517, 1069.510 128.431 C 1084.111 106.200, 1083.821 82.749, 1068.742 66.332 C 1065.121 62.390, 1061.603 58.115, 1060.924 56.832 C 1056.543 48.556, 1046.390 41.101, 1037.139 39.367 C 1035.138 38.991, 1032.150 37.933, 1030.500 37.014 C 1026.143 34.589, 1021.790 33.318, 1019.500 33.802 M 1018.500 59.141 C 1005.592 60.778, 1002.738 62.837, 1004.370 69.338 C 1006.031 75.958, 1016.357 82.129, 1028.846 83.967 C 1043.815 86.170, 1048.336 91.790, 1046.169 105.500 C 1043.301 123.635, 1055.429 125.392, 1059.978 107.500 C 1069.385 70.499, 1055.606 54.434, 1018.500 59.141 M 215.756 74.540 C 210.002 76.380, 200.112 85.286, 193.440 94.636 C 186.333 104.596, 181.852 107.731, 146.500 127.483 C 122.196 141.061, 119.342 142.846, 116.184 146.443 C 101.876 162.739, 118.808 173.716, 139.662 161.665 C 192.710 131.009, 211.888 128.742, 193.882 155.254 C 180.869 174.414, 175.082 185.097, 171.450 196.660 C 167.301 209.870, 165.655 211.844, 149.442 223.040 C 128.187 237.718, 116.685 256.755, 122.397 267.801 C 126.392 275.527, 132.811 272.890, 138.661 261.121 C 143.335 251.716, 149.896 244.332, 157.500 239.920 C 166.838 234.501, 169.988 236.545, 176.421 252.197 C 189.479 283.967, 210.741 312.079, 239.105 335.076 C 272.551 362.193, 284.155 400.947, 268.265 432.457 C 266.311 436.331, 263.493 443.100, 262.003 447.500 C 245.964 494.839, 247.387 493.989, 184.114 494.022 C 145.175 494.043, 142.227 494.168, 138.251 495.973 C 130.936 499.293, 130.257 503.862, 136.399 508.450 C 138.917 510.331, 205.488 512.415, 252.500 512.084 C 349.480 511.401, 341.441 513.066, 343.113 493.309 C 343.986 482.991, 350.249 460.971, 358.561 439 C 361.644 430.850, 362.033 424.061, 361.092 394.816 C 360.440 374.583, 369.943 368.755, 391 376.475 C 393.475 377.382, 400.900 379.483, 407.500 381.143 C 414.100 382.803, 422.650 385.451, 426.500 387.028 C 493.739 414.561, 547.389 406.051, 530.665 370.504 C 524.473 357.344, 525.010 357.696, 495.500 347.447 C 473.623 339.849, 463.685 334.780, 449.440 323.955 C 443.848 319.705, 434.391 312.952, 428.423 308.949 C 422.456 304.945, 413.572 298.631, 408.680 294.917 C 403.789 291.203, 397.022 286.712, 393.643 284.936 C 390.264 283.161, 378.500 276.298, 367.500 269.686 C 354.372 261.794, 344.408 256.554, 338.500 254.433 C 333.550 252.656, 326.800 250, 323.500 248.531 C 303.150 239.472, 279.443 232.602, 227.255 220.641 C 188.300 211.712, 191.587 190.673, 238.916 146 C 281.739 105.580, 266.427 58.334, 215.756 74.540 M 228.871 95.685 C 222.822 99.439, 219.840 106.878, 222.411 111.800 C 229.189 124.774, 241.751 122.508, 244.507 107.813 C 246.273 98.401, 236.593 90.893, 228.871 95.685 M 1010.667 104.996 C 1008.069 106.644, 1003.021 108.936, 999.449 110.090 C 985.427 114.620, 986.411 121.245, 1002.258 129 C 1022.896 139.100, 1017.648 153.478, 988 168.063 C 982.225 170.904, 974.279 175.683, 970.342 178.683 C 959.406 187.015, 957.054 194.074, 966.885 189.059 C 974.378 185.236, 987 191.568, 987 199.149 C 987 199.616, 988.748 203.602, 990.884 208.006 C 994.438 215.334, 994.727 216.545, 994.284 222.257 C 993.682 230.013, 996.150 249.109, 999.550 263 C 1004.342 282.585, 1005.328 310.096, 1001.936 329.620 C 997.862 353.077, 1003.256 356.852, 1029.128 348.651 C 1047.130 342.945, 1050.415 339.816, 1052.094 326.773 C 1052.609 322.773, 1053.678 314.550, 1054.469 308.500 C 1059.079 273.255, 1057.410 265.792, 1043.425 259.112 C 1035.361 255.260, 1026.223 246.834, 1020.519 237.989 C 1018.182 234.366, 1012.479 227.991, 1007.660 223.616 C 997.702 214.576, 997.162 212.904, 1002.481 207.586 C 1011.276 198.790, 1022.862 200.787, 1034.765 213.150 C 1052.239 231.298, 1059.224 231.881, 1067.626 215.892 C 1074.381 203.038, 1083.542 196.623, 1094.388 197.153 C 1101.500 197.500, 1101.500 197.500, 1101.431 193.485 C 1101.173 178.442, 1085.806 166.046, 1062.500 162.083 C 1049.658 159.900, 1047.545 159.171, 1043.018 155.361 C 1036.624 149.981, 1028.857 129.494, 1027.420 114.216 C 1026.238 101.654, 1020.723 98.619, 1010.667 104.996 M 558 145.981 C 407.249 146.558, 417.495 146.058, 411.536 153.140 C 402.622 163.733, 408.015 173.007, 436.295 195.713 C 439.482 198.272, 444.526 203.842, 447.503 208.091 C 455.912 220.091, 483.028 235.918, 504.500 241.359 C 572.125 258.494, 643.393 243.642, 670.675 206.729 C 681.643 191.889, 690.152 191.491, 704.765 205.134 C 724.742 223.785, 732.734 224.847, 742.688 210.176 C 752.797 195.278, 749.087 184.257, 726.163 161.094 C 711.115 145.889, 709.276 144.815, 699 145.237 C 695.975 145.361, 632.525 145.696, 558 145.981 M 441 165.706 C 426.142 171.138, 435.621 190.562, 460 204.639 C 466.325 208.292, 474.875 213.244, 479 215.644 C 488.449 221.141, 495.126 223.670, 503.726 225.008 C 507.452 225.587, 514.380 227.164, 519.122 228.512 C 543.823 235.532, 569.359 235.988, 593 229.833 C 597.125 228.759, 605.403 227.040, 611.395 226.013 C 623.396 223.956, 626.764 222.465, 652.825 207.682 C 679.122 192.765, 691.036 173.241, 677.966 166.483 C 675.091 164.996, 445.006 164.242, 441 165.706 M 715.044 175.802 C 707.074 183.772, 712.982 203, 723.402 203 C 731.025 203, 733.040 195.117, 728.387 183.494 C 724.322 173.340, 719.999 170.847, 715.044 175.802 M 195.825 232.976 C 189.388 236.969, 194.373 255.472, 206.786 273.654 C 217.919 289.961, 222.929 289.515, 224.078 272.113 C 224.616 263.951, 225.439 259.745, 227.505 254.580 C 230.652 246.714, 230.264 244.829, 224.613 240.518 C 217.757 235.289, 199.716 230.563, 195.825 232.976 M 247.465 246.952 C 243.509 248.555, 242.982 250.328, 242.925 262.225 C 242.827 283.011, 250.986 296.274, 271.500 308.675 C 308.987 331.336, 334.394 340.539, 370.359 344.483 C 377.981 345.319, 390.581 347.197, 398.359 348.656 C 440.672 356.595, 454.900 350.073, 431.027 333.681 C 428.537 331.971, 419.291 325.096, 410.479 318.403 C 394.752 306.456, 385.968 300.795, 363 287.803 C 343.497 276.771, 340.725 275.333, 333.500 272.500 C 329.650 270.991, 323.800 268.394, 320.500 266.729 C 298.627 255.697, 255.021 243.889, 247.465 246.952 M 912.476 313.341 C 906.242 316.170, 905.726 320.899, 910.553 330.971 C 914.907 340.056, 918.571 353.825, 919.475 364.500 C 921.107 383.773, 924.785 385.466, 946.247 376.825 C 967.496 368.269, 970.019 362.617, 958.981 348.304 C 955.670 344.012, 951.107 337.800, 948.841 334.500 C 937.936 318.624, 921.680 309.165, 912.476 313.341 M 310 355.122 C 310 361.013, 325.253 374, 332.171 374 C 340.110 374, 342.948 365.556, 336.906 359.912 C 330.784 354.194, 310 350.494, 310 355.122 M 1022 368.143 C 1016.775 369.758, 1005.750 373.288, 997.500 375.986 C 989.250 378.685, 980.475 381.405, 978 382.032 C 975.525 382.659, 970.800 384.535, 967.500 386.201 C 964.200 387.867, 957.900 390.548, 953.500 392.160 C 939.646 397.236, 909.306 412.887, 905.983 416.673 C 897.735 426.066, 905.113 432.790, 919.628 429.108 C 955.071 420.117, 994.195 420.105, 1019.552 429.076 C 1042.596 437.229, 1057.494 420.682, 1055.820 388.795 C 1054.703 367.505, 1044.402 361.215, 1022 368.143 M 468.214 373.894 C 461.940 374.992, 459.745 377.510, 462.845 380.051 C 470.786 386.563, 500.091 385.903, 498.808 379.241 C 497.879 374.416, 481.540 371.561, 468.214 373.894 M 305.662 389.051 C 303.862 390.467, 302.404 393.332, 300.956 398.301 C 299.801 402.261, 297.332 408.875, 295.468 413 C 293.603 417.125, 290.531 424.550, 288.639 429.500 C 281.368 448.530, 277.226 458.684, 274.772 463.500 C 262.337 487.896, 268.404 495.503, 298.809 493.643 C 317.439 492.503, 324.687 485.051, 332.991 458.500 C 333.679 456.300, 335.805 450.680, 337.715 446.012 C 348.346 420.025, 345.741 409.619, 324.874 394.730 C 313.916 386.911, 309.895 385.722, 305.662 389.051" stroke="none" fill="#959699" fill-rule="evenodd"/><path d="M 38.500 29.501 C 33.626 31.228, 30.412 34.756, 29.027 39.901 C 28.314 42.548, 28.066 125.802, 28.242 303.635 C 28.533 597.026, 27.679 567.555, 36.035 572.465 C 41.519 575.686, 1230.481 575.686, 1235.965 572.465 C 1244.329 567.551, 1243.500 597.369, 1243.500 301.500 C 1243.500 5.631, 1244.329 35.449, 1235.965 30.535 C 1231.398 27.853, 46.044 26.829, 38.500 29.501 M 1019.500 33.802 C 1016.742 34.385, 1005.532 44.365, 1000.584 50.641 C 998.338 53.490, 993.701 57.875, 990.280 60.386 C 982.232 66.293, 979.643 70.396, 976.640 82 C 975.288 87.225, 972.613 95.100, 970.696 99.500 C 964.603 113.482, 964.844 117.158, 972.596 128.480 C 984.241 145.487, 984.060 149.807, 971.302 159.384 C 967.892 161.944, 963.432 166.077, 961.389 168.570 C 959.346 171.063, 954.485 175.853, 950.587 179.214 C 946.689 182.574, 938.393 191.296, 932.151 198.595 C 913.548 220.350, 912.105 220.369, 889.099 199.172 C 869.825 181.415, 867.063 178.365, 863.749 171.186 C 849.700 140.751, 834.301 128.307, 824.262 139.279 C 816.153 148.142, 825.964 173.125, 845.862 194.282 C 851.713 200.504, 863.457 213.448, 871.960 223.047 C 911.735 267.949, 918.236 268.870, 947.988 233.814 C 967.160 211.224, 973.337 213.011, 978.011 242.500 C 979.145 249.650, 981.925 262.925, 984.191 272 C 990.406 296.899, 988.633 327.152, 980.385 336.955 C 974.646 343.775, 970.996 341.761, 948.406 319.312 C 918.255 289.351, 911.836 284.937, 897.976 284.640 C 874.931 284.146, 863.870 307.921, 871.964 340.552 C 873.593 347.123, 875.644 357, 876.520 362.500 C 877.396 368, 878.988 376.529, 880.057 381.453 C 883.374 396.737, 882.673 400.677, 874.979 410 C 872.937 412.475, 869.806 417.288, 868.023 420.695 C 860.343 435.365, 852.598 442.264, 838.975 446.568 C 819.589 452.692, 814.512 468.093, 829.427 475.526 C 836.869 479.234, 842.044 478.841, 857.964 473.358 C 871.442 468.717, 871.442 468.717, 883.471 469.602 C 902.093 470.971, 921.154 470.402, 949.500 467.628 C 999.331 462.752, 1001.625 462.643, 1025.479 463.987 C 1046.531 465.174, 1048.033 465.397, 1059.620 469.058 C 1095.703 480.457, 1120.200 478.558, 1120.200 464.360 C 1120.200 456.816, 1115.611 453.838, 1092.946 446.669 C 1068.037 438.792, 1065.231 435.298, 1069.453 417.427 C 1073.190 401.612, 1073.596 394.448, 1071.463 381.970 C 1068.170 362.711, 1069.362 310.282, 1073.503 292.225 C 1077.286 275.728, 1079.275 275.583, 1117.500 289.005 C 1149.121 300.108, 1165.064 282.971, 1150.531 253.500 C 1148.633 249.650, 1143.656 239.075, 1139.471 230 C 1121.907 191.906, 1115.725 181.536, 1102.630 168.205 C 1095.433 160.878, 1090.960 157.390, 1081.500 151.731 C 1062.737 140.507, 1062.228 139.517, 1069.510 128.431 C 1084.111 106.200, 1083.821 82.749, 1068.742 66.332 C 1065.121 62.390, 1061.603 58.115, 1060.924 56.832 C 1056.543 48.556, 1046.390 41.101, 1037.139 39.367 C 1035.138 38.991, 1032.150 37.933, 1030.500 37.014 C 1026.143 34.589, 1021.790 33.318, 1019.500 33.802 M 1018.500 59.141 C 1005.592 60.778, 1002.738 62.837, 1004.370 69.338 C 1006.031 75.958, 1016.357 82.129, 1028.846 83.967 C 1043.815 86.170, 1048.336 91.790, 1046.169 105.500 C 1043.301 123.635, 1055.429 125.392, 1059.978 107.500 C 1069.385 70.499, 1055.606 54.434, 1018.500 59.141 M 215.756 74.540 C 210.002 76.380, 200.112 85.286, 193.440 94.636 C 186.333 104.596, 181.852 107.731, 146.500 127.483 C 122.196 141.061, 119.342 142.846, 116.184 146.443 C 101.876 162.739, 118.808 173.716, 139.662 161.665 C 192.710 131.009, 211.888 128.742, 193.882 155.254 C 180.869 174.414, 175.082 185.097, 171.450 196.660 C 167.301 209.870, 165.655 211.844, 149.442 223.040 C 128.187 237.718, 116.685 256.755, 122.397 267.801 C 126.392 275.527, 132.811 272.890, 138.661 261.121 C 143.335 251.716, 149.896 244.332, 157.500 239.920 C 166.838 234.501, 169.988 236.545, 176.421 252.197 C 189.479 283.967, 210.741 312.079, 239.105 335.076 C 272.551 362.193, 284.155 400.947, 268.265 432.457 C 266.311 436.331, 263.493 443.100, 262.003 447.500 C 245.964 494.839, 247.387 493.989, 184.114 494.022 C 145.175 494.043, 142.227 494.168, 138.251 495.973 C 130.936 499.293, 130.257 503.862, 136.399 508.450 C 138.917 510.331, 205.488 512.415, 252.500 512.084 C 349.480 511.401, 341.441 513.066, 343.113 493.309 C 343.986 482.991, 350.249 460.971, 358.561 439 C 361.644 430.850, 362.033 424.061, 361.092 394.816 C 360.440 374.583, 369.943 368.755, 391 376.475 C 393.475 377.382, 400.900 379.483, 407.500 381.143 C 414.100 382.803, 422.650 385.451, 426.500 387.028 C 493.739 414.561, 547.389 406.051, 530.665 370.504 C 524.473 357.344, 525.010 357.696, 495.500 347.447 C 473.623 339.849, 463.685 334.780, 449.440 323.955 C 443.848 319.705, 434.391 312.952, 428.423 308.949 C 422.456 304.945, 413.572 298.631, 408.680 294.917 C 403.789 291.203, 397.022 286.712, 393.643 284.936 C 390.264 283.161, 378.500 276.298, 367.500 269.686 C 354.372 261.794, 344.408 256.554, 338.500 254.433 C 333.550 252.656, 326.800 250, 323.500 248.531 C 303.150 239.472, 279.443 232.602, 227.255 220.641 C 188.300 211.712, 191.587 190.673, 238.916 146 C 281.739 105.580, 266.427 58.334, 215.756 74.540 M 228.871 95.685 C 222.822 99.439, 219.840 106.878, 222.411 111.800 C 229.189 124.774, 241.751 122.508, 244.507 107.813 C 246.273 98.401, 236.593 90.893, 228.871 95.685 M 1010.667 104.996 C 1008.069 106.644, 1003.021 108.936, 999.449 110.090 C 985.427 114.620, 986.411 121.245, 1002.258 129 C 1022.896 139.100, 1017.648 153.478, 988 168.063 C 982.225 170.904, 974.279 175.683, 970.342 178.683 C 959.406 187.015, 957.054 194.074, 966.885 189.059 C 974.378 185.236, 987 191.568, 987 199.149 C 987 199.616, 988.748 203.602, 990.884 208.006 C 994.438 215.334, 994.727 216.545, 994.284 222.257 C 993.682 230.013, 996.150 249.109, 999.550 263 C 1004.342 282.585, 1005.328 310.096, 1001.936 329.620 C 997.862 353.077, 1003.256 356.852, 1029.128 348.651 C 1047.130 342.945, 1050.415 339.816, 1052.094 326.773 C 1052.609 322.773, 1053.678 314.550, 1054.469 308.500 C 1059.079 273.255, 1057.410 265.792, 1043.425 259.112 C 1035.361 255.260, 1026.223 246.834, 1020.519 237.989 C 1018.182 234.366, 1012.479 227.991, 1007.660 223.616 C 997.702 214.576, 997.162 212.904, 1002.481 207.586 C 1011.276 198.790, 1022.862 200.787, 1034.765 213.150 C 1052.239 231.298, 1059.224 231.881, 1067.626 215.892 C 1074.381 203.038, 1083.542 196.623, 1094.388 197.153 C 1101.500 197.500, 1101.500 197.500, 1101.431 193.485 C 1101.173 178.442, 1085.806 166.046, 1062.500 162.083 C 1049.658 159.900, 1047.545 159.171, 1043.018 155.361 C 1036.624 149.981, 1028.857 129.494, 1027.420 114.216 C 1026.238 101.654, 1020.723 98.619, 1010.667 104.996 M 558 145.981 C 407.249 146.558, 417.495 146.058, 411.536 153.140 C 402.622 163.733, 408.015 173.007, 436.295 195.713 C 439.482 198.272, 444.526 203.842, 447.503 208.091 C 455.912 220.091, 483.028 235.918, 504.500 241.359 C 572.125 258.494, 643.393 243.642, 670.675 206.729 C 681.643 191.889, 690.152 191.491, 704.765 205.134 C 724.742 223.785, 732.734 224.847, 742.688 210.176 C 752.797 195.278, 749.087 184.257, 726.163 161.094 C 711.115 145.889, 709.276 144.815, 699 145.237 C 695.975 145.361, 632.525 145.696, 558 145.981 M 441 165.706 C 426.142 171.138, 435.621 190.562, 460 204.639 C 466.325 208.292, 474.875 213.244, 479 215.644 C 488.449 221.141, 495.126 223.670, 503.726 225.008 C 507.452 225.587, 514.380 227.164, 519.122 228.512 C 543.823 235.532, 569.359 235.988, 593 229.833 C 597.125 228.759, 605.403 227.040, 611.395 226.013 C 623.396 223.956, 626.764 222.465, 652.825 207.682 C 679.122 192.765, 691.036 173.241, 677.966 166.483 C 675.091 164.996, 445.006 164.242, 441 165.706 M 715.044 175.802 C 707.074 183.772, 712.982 203, 723.402 203 C 731.025 203, 733.040 195.117, 728.387 183.494 C 724.322 173.340, 719.999 170.847, 715.044 175.802 M 195.825 232.976 C 189.388 236.969, 194.373 255.472, 206.786 273.654 C 217.919 289.961, 222.929 289.515, 224.078 272.113 C 224.616 263.951, 225.439 259.745, 227.505 254.580 C 230.652 246.714, 230.264 244.829, 224.613 240.518 C 217.757 235.289, 199.716 230.563, 195.825 232.976 M 247.465 246.952 C 243.509 248.555, 242.982 250.328, 242.925 262.225 C 242.827 283.011, 250.986 296.274, 271.500 308.675 C 308.987 331.336, 334.394 340.539, 370.359 344.483 C 377.981 345.319, 390.581 347.197, 398.359 348.656 C 440.672 356.595, 454.900 350.073, 431.027 333.681 C 428.537 331.971, 419.291 325.096, 410.479 318.403 C 394.752 306.456, 385.968 300.795, 363 287.803 C 343.497 276.771, 340.725 275.333, 333.500 272.500 C 329.650 270.991, 323.800 268.394, 320.500 266.729 C 298.627 255.697, 255.021 243.889, 247.465 246.952 M 912.476 313.341 C 906.242 316.170, 905.726 320.899, 910.553 330.971 C 914.907 340.056, 918.571 353.825, 919.475 364.500 C 921.107 383.773, 924.785 385.466, 946.247 376.825 C 967.496 368.269, 970.019 362.617, 958.981 348.304 C 955.670 344.012, 951.107 337.800, 948.841 334.500 C 937.936 318.624, 921.680 309.165, 912.476 313.341 M 310 355.122 C 310 361.013, 325.253 374, 332.171 374 C 340.110 374, 342.948 365.556, 336.906 359.912 C 330.784 354.194, 310 350.494, 310 355.122 M 1022 368.143 C 1016.775 369.758, 1005.750 373.288, 997.500 375.986 C 989.250 378.685, 980.475 381.405, 978 382.032 C 975.525 382.659, 970.800 384.535, 967.500 386.201 C 964.200 387.867, 957.900 390.548, 953.500 392.160 C 939.646 397.236, 909.306 412.887, 905.983 416.673 C 897.735 426.066, 905.113 432.790, 919.628 429.108 C 955.071 420.117, 994.195 420.105, 1019.552 429.076 C 1042.596 437.229, 1057.494 420.682, 1055.820 388.795 C 1054.703 367.505, 1044.402 361.215, 1022 368.143 M 468.214 373.894 C 461.940 374.992, 459.745 377.510, 462.845 380.051 C 470.786 386.563, 500.091 385.903, 498.808 379.241 C 497.879 374.416, 481.540 371.561, 468.214 373.894 M 305.662 389.051 C 303.862 390.467, 302.404 393.332, 300.956 398.301 C 299.801 402.261, 297.332 408.875, 295.468 413 C 293.603 417.125, 290.531 424.550, 288.639 429.500 C 281.368 448.530, 277.226 458.684, 274.772 463.500 C 262.337 487.896, 268.404 495.503, 298.809 493.643 C 317.439 492.503, 324.687 485.051, 332.991 458.500 C 333.679 456.300, 335.805 450.680, 337.715 446.012 C 348.346 420.025, 345.741 409.619, 324.874 394.730 C 313.916 386.911, 309.895 385.722, 305.662 389.051" stroke="none" fill="#f3f3f3" fill-rule="evenodd"/></svg>