<svg xmlns="http://www.w3.org/2000/svg" width="1272" height="698" viewBox="0 0 1272 698" version="1.1"><path d="M 316.002 75.100 C 307.181 76.827, 303.002 82.422, 303.005 92.500 C 303.007 99.232, 306.239 149.752, 308.475 178 C 310.571 204.486, 311.805 225.733, 313.007 256 C 313.586 270.575, 314.735 294.650, 315.560 309.500 C 316.991 335.249, 317.511 342.328, 320.079 371 C 322.552 398.606, 319.212 440.239, 313.525 452.708 C 305.962 469.289, 296.575 480.394, 281.932 490.087 C 262.445 502.987, 253.916 507.619, 242 511.776 C 235.675 513.982, 227.184 517.188, 223.131 518.900 C 219.078 520.612, 206.478 524.974, 195.131 528.594 C 175.248 534.936, 171.606 536.251, 158.500 541.813 C 153.157 544.080, 150.583 544.437, 135 545.072 C 86.833 547.036, 65.117 567.441, 88.423 588.839 C 99.727 599.218, 121.486 600.799, 150 593.312 C 165.151 589.334, 166.347 589.130, 190 586.477 C 241.578 580.692, 260.842 580.174, 283 583.978 C 286.025 584.498, 294.067 585.419, 300.871 586.025 C 308.940 586.743, 318.852 588.553, 329.371 591.229 C 357.382 598.355, 364.421 597.193, 379.393 582.972 C 390.804 572.132, 394.704 560.243, 392.833 542 C 392.467 538.425, 391.465 528.677, 390.607 520.337 C 389.749 511.997, 388.578 503.077, 388.003 500.515 C 387.429 497.953, 386.495 488.802, 385.928 480.178 C 385.361 471.555, 384.479 461.575, 383.968 458 C 383.457 454.425, 383.031 446.313, 383.020 439.974 C 383.009 433.634, 382.515 424.634, 381.922 419.974 C 381.144 413.868, 381.153 406.890, 381.954 395 C 382.564 385.925, 383.258 351.725, 383.495 319 C 383.899 263.174, 385.264 208.203, 386.499 198 C 387.353 190.950, 392.450 96.134, 392.300 90.099 C 392.090 81.679, 387.468 76.763, 378.114 75.009 C 371.604 73.790, 322.328 73.861, 316.002 75.100 M 509.500 77.881 C 500.453 82.035, 497.339 90.396, 495.490 115.500 C 493.863 137.592, 492.618 148.177, 489.492 166.500 C 485.170 191.830, 484.470 197.632, 481.971 228.911 C 480.846 242.985, 478.616 263.050, 477.015 273.500 C 473.603 295.773, 471.598 313.297, 469.466 339.500 C 467.676 361.491, 466.768 368.567, 463.886 382.952 C 459.508 404.812, 462.103 411.259, 478.595 419.500 C 484.556 422.479, 491.101 426.724, 494.783 430 C 498.184 433.025, 504.667 437.525, 509.191 440 C 516.555 444.029, 518.437 445.721, 527.181 456.164 C 532.553 462.580, 540.264 470.538, 544.317 473.850 C 559.849 486.542, 563.348 500.656, 560.636 539.678 C 557.681 582.189, 559.108 589.933, 571.018 596.009 C 597.741 609.642, 606.426 575.687, 599.154 486 C 598.552 478.575, 597.582 459.225, 596.999 443 C 596.415 426.775, 594.618 387.625, 593.005 356 C 590.276 302.492, 589.544 284.133, 587.028 206 C 586.095 177.030, 584.812 165.388, 581.529 156.081 C 580.754 153.886, 578.939 146.783, 577.496 140.295 C 570.186 107.452, 528.477 69.166, 509.500 77.881 M 1118.444 80.852 C 1115.894 82.032, 1112.469 85.141, 1109.217 89.227 C 1094.309 107.962, 1089.067 108.418, 1073.634 92.326 C 1056.701 74.670, 1051.518 75.279, 1034.109 96.975 C 1024.929 108.415, 1017.244 107.542, 1007 93.895 C 993.480 75.884, 986.996 75.416, 971.516 91.333 C 954.244 109.092, 951.002 109.177, 936.520 92.253 C 922.149 75.459, 917.026 75.349, 901.521 91.500 C 885.940 107.729, 882.712 107.688, 866.706 91.055 C 851.675 75.436, 845.129 75.782, 831.299 92.930 C 818.726 108.519, 814.378 108.591, 800.471 93.440 C 785.050 76.641, 779.500 76.004, 766.813 89.579 C 763.891 92.706, 759.678 97.198, 757.451 99.562 C 749.729 107.761, 743.219 106.030, 732.344 92.885 C 715.419 72.428, 704.222 75.931, 687.732 106.844 C 685.486 111.055, 682.359 116.408, 680.783 118.739 C 672.830 130.510, 673.540 140.551, 682.310 140.303 C 687.011 140.169, 689.610 138.211, 694.470 131.141 C 713.057 104.100, 714.802 103.387, 728.069 117.415 C 742.955 133.154, 753.195 133.065, 766.500 117.080 C 778.799 102.305, 785.647 102.441, 798 117.708 C 810.460 133.107, 823.172 132.584, 836.414 116.127 C 848.145 101.547, 854.702 102.679, 869.891 121.908 C 879.554 134.141, 890.887 133.314, 901.384 119.609 C 914.980 101.858, 919.822 101.439, 933.727 116.810 C 947.231 131.739, 959.676 133.350, 968.644 121.331 C 981.307 104.360, 988.788 102.543, 999.288 113.889 C 1009.640 125.076, 1011.694 126.727, 1016.764 127.943 C 1025.710 130.089, 1033.853 126.184, 1041.520 116.071 C 1051.984 102.269, 1060.049 102.772, 1072.462 118 C 1085.301 133.750, 1094.706 133.912, 1108.375 118.616 C 1121.729 103.671, 1125.648 104.360, 1138.951 123.988 C 1148.111 137.503, 1151.702 141, 1156.422 141 C 1166.055 141, 1165.663 131.108, 1155.411 115.500 C 1152.160 110.550, 1146.575 101.604, 1143 95.621 C 1134.020 80.591, 1127.493 76.665, 1118.444 80.852 M 336.500 96.326 C 325.283 100.716, 325.216 101.102, 328.383 143.160 C 331.097 179.186, 333.494 220.838, 334.503 249.500 C 335.439 276.087, 336.863 301.145, 339.134 331 C 342.504 375.311, 342.364 424.310, 338.831 437 C 332.871 458.411, 322.587 476.488, 311.525 485 C 308.308 487.475, 301.587 493.345, 296.588 498.043 C 286.931 507.121, 268.330 519.233, 254.090 525.714 C 249.916 527.614, 243.993 530.690, 240.928 532.548 C 237.864 534.407, 230.889 537.356, 225.428 539.102 C 219.968 540.848, 212.350 543.989, 208.500 546.083 C 204.622 548.192, 197.041 551.041, 191.500 552.470 C 158.199 561.063, 171.271 567.982, 211.500 563.057 C 215.900 562.519, 223.325 561.614, 228 561.047 C 246.423 558.811, 279.518 560.817, 301.500 565.501 C 307.550 566.791, 315.200 568.153, 318.500 568.530 C 327.946 569.607, 336.926 571.667, 344.273 574.442 C 358.619 579.860, 371.495 575.093, 375.111 563.025 C 376.092 559.750, 371.233 523.963, 369.383 520.838 C 364.678 512.891, 361.590 436.120, 362.572 351.500 C 363.013 313.550, 363.409 272.375, 363.452 260 C 363.546 233.204, 365.361 178.660, 367.490 138.653 C 369.398 102.784, 368.991 100.819, 358.768 96.548 C 354.369 94.710, 340.972 94.576, 336.500 96.326 M 520.727 107.763 C 517.291 111.350, 516.515 115.467, 513.996 143.500 C 512.860 156.150, 510.404 177.300, 508.538 190.500 C 506.673 203.700, 504.656 220.800, 504.055 228.500 C 501.495 261.346, 499.611 277.837, 495.941 299.524 C 493.705 312.741, 491.392 331.057, 490.512 342.524 C 489.668 353.511, 488.481 367.225, 487.873 373 C 485.556 395.022, 489.193 406.412, 500.961 413.982 C 506.038 417.249, 512.543 423.772, 518.911 431.983 C 521.250 434.999, 527.514 440.752, 532.832 444.768 C 538.149 448.785, 546.597 456.316, 551.605 461.505 C 560.775 471.007, 563.781 473, 568.943 473 C 576.078 473, 576.381 468.958, 573.500 412.297 C 570.707 357.367, 568.516 298.120, 566.999 236.500 C 565.400 171.578, 564.929 167.029, 557.145 141.234 C 548.389 112.219, 531.410 96.613, 520.727 107.763 M 751 236.926 C 732.735 242.965, 717.625 250.951, 706.324 260.538 C 701.945 264.253, 698.131 266.455, 693.314 268.050 C 683.514 271.295, 679 275.961, 679 282.848 C 679 291.122, 683.037 294.802, 696.068 298.409 C 707.219 301.495, 721.264 315.724, 725.954 328.687 C 727.603 333.244, 730.033 339.115, 731.354 341.736 C 732.675 344.356, 735.239 350.074, 737.052 354.443 C 740.945 363.826, 757.275 388.869, 766.243 399.208 C 769.721 403.219, 773.630 408.075, 774.929 410 C 776.227 411.925, 784.584 420.925, 793.499 430 C 826.227 463.316, 833.615 478.145, 832.779 508.843 C 832.234 528.840, 829.677 535.902, 818.248 548.967 C 810.061 558.325, 807.064 559.086, 777.175 559.396 C 738.361 559.797, 716.963 567.017, 714.421 580.569 C 712.903 588.661, 719.421 589.912, 737.500 584.999 C 760.465 578.757, 781.251 578.771, 803 585.043 C 810.146 587.104, 817.578 588.398, 826.268 589.095 C 836.409 589.909, 841.092 590.827, 849.035 593.560 C 863.954 598.693, 867.182 598.150, 878.726 588.568 C 890.171 579.069, 917.815 575.883, 940.442 581.456 C 955.432 585.147, 960.418 583.996, 960.216 576.889 C 959.942 567.271, 948.830 560.143, 930.115 557.580 C 923.853 556.722, 918.003 555.476, 917.115 554.809 C 911.500 550.598, 911.585 546.016, 917.494 534.363 C 919.966 529.488, 922.920 522.711, 924.058 519.303 C 931.933 495.724, 969.149 487.362, 1011.431 499.672 C 1018.069 501.604, 1027.550 504.063, 1032.500 505.135 C 1037.784 506.280, 1046.042 509.176, 1052.500 512.150 C 1058.550 514.936, 1067.775 519.190, 1073 521.604 C 1078.225 524.018, 1087 527.600, 1092.500 529.564 C 1098 531.528, 1106.258 534.493, 1110.852 536.152 C 1146.936 549.184, 1178.438 516.905, 1152.436 493.541 C 1143.284 485.317, 1143.149 484.184, 1150.500 477.265 C 1162.803 465.684, 1154.111 457.516, 1132 459.880 C 1109.143 462.324, 1100.039 461.073, 1087.500 453.763 C 1068.830 442.880, 1029.528 417.819, 1011.022 404.998 C 1008.559 403.292, 1002.656 399.846, 997.905 397.341 C 993.155 394.836, 985.373 389.907, 980.612 386.387 C 975.852 382.867, 968.029 377.540, 963.229 374.550 C 958.428 371.559, 950.900 366.635, 946.500 363.606 C 942.100 360.578, 934.450 355.594, 929.500 352.531 C 924.550 349.468, 916.450 344.077, 911.500 340.552 C 901.385 333.349, 897.238 330.692, 881.500 321.334 C 875.450 317.736, 868.700 313.333, 866.500 311.550 C 864.300 309.767, 858.492 305.728, 853.593 302.575 C 848.695 299.422, 842.170 294.497, 839.093 291.631 C 836.017 288.764, 831.768 284.949, 829.652 283.153 C 827.535 281.358, 821.858 275.076, 817.035 269.194 C 792.654 239.459, 772.752 229.734, 751 236.926 M 772.400 261.765 C 770.537 263.009, 769 266.716, 769 269.966 C 769 286.242, 753.982 285.674, 749.962 269.247 C 747.004 257.158, 733.380 261.327, 731.515 274.892 C 730.675 281.005, 732.521 292.060, 735.624 299.491 C 741.537 313.653, 750.347 337.031, 752.209 343.500 C 754.676 352.068, 764.691 371.196, 770.419 378.280 C 772.741 381.151, 776.475 386.200, 778.717 389.500 C 780.959 392.800, 786.558 399.550, 791.157 404.500 C 795.757 409.450, 802.186 416.875, 805.442 421 C 808.699 425.125, 815.963 433.294, 821.585 439.153 C 827.207 445.012, 834.792 453.875, 838.442 458.847 C 849.464 473.864, 850.653 474.476, 860.865 470.391 C 872.513 465.731, 880.687 468.819, 888.368 480.782 C 898.446 496.478, 906.191 499.104, 917.446 490.642 C 919.126 489.379, 924.550 486.219, 929.500 483.620 C 953.791 470.863, 952.613 465.441, 923.500 456.015 C 919.650 454.768, 912.225 451.945, 907 449.740 C 901.775 447.536, 893.450 444.049, 888.500 441.992 C 870.579 434.543, 858.382 428.613, 852.500 424.491 C 849.200 422.178, 844.925 419.490, 843 418.518 C 837.550 415.767, 817.549 400.487, 815.697 397.661 C 814.784 396.267, 806.891 387.969, 798.158 379.220 C 769 350.011, 768.469 327.606, 796.740 319.387 C 815.588 313.908, 824.840 327.019, 808.082 335.459 C 788.652 345.244, 795.708 365.813, 825 384.774 C 830.225 388.156, 836.279 392.178, 838.453 393.712 C 854.901 405.314, 862.656 410.055, 868.208 411.903 C 871.702 413.065, 877.697 415.865, 881.530 418.124 C 885.364 420.383, 891.425 423.241, 895 424.474 C 898.575 425.707, 904.650 428.303, 908.500 430.242 C 912.882 432.449, 919.345 434.551, 925.783 435.862 C 931.439 437.014, 941.282 440.020, 947.657 442.541 C 956.881 446.189, 961.584 447.415, 970.697 448.545 C 976.995 449.327, 987.852 451.530, 994.824 453.442 C 1045.254 467.270, 1061.669 460.459, 1029.060 439.236 C 1022.702 435.098, 1013.225 428.910, 1008 425.484 C 1002.775 422.059, 997.150 418.553, 995.500 417.694 C 993.850 416.834, 990.325 414.311, 987.666 412.087 C 985.008 409.862, 976.731 404.395, 969.273 399.937 C 961.816 395.480, 950.266 388.104, 943.607 383.547 C 936.948 378.989, 928.350 373.465, 924.500 371.271 C 920.650 369.076, 912.550 363.854, 906.500 359.666 C 900.450 355.479, 892.350 350.157, 888.500 347.840 C 884.650 345.524, 878.575 341.308, 875 338.472 C 865.250 330.738, 858.044 325.579, 852.716 322.518 C 845.693 318.484, 827.662 301.786, 822.467 294.506 C 819.991 291.036, 814.710 285.568, 810.733 282.354 C 806.755 279.140, 800.671 273.947, 797.213 270.813 C 788.818 263.206, 776.804 258.825, 772.400 261.765 M 1078.072 490.041 C 1067.853 492.154, 1074.833 500.508, 1093.117 508.048 C 1097.145 509.709, 1102.254 512.117, 1104.471 513.399 C 1116.454 520.331, 1135.757 519.801, 1137.592 512.489 C 1140.316 501.638, 1098.414 485.834, 1078.072 490.041 M 871.416 500.421 C 868.459 501.708, 865.503 506.408, 863.502 513 C 862.086 517.667, 859.142 522.652, 849.866 536.089 C 834.941 557.708, 836.424 563.501, 856.879 563.499 C 880.795 563.495, 894.261 549.629, 894.266 525 C 894.269 509.505, 881.672 495.956, 871.416 500.421" stroke="none" fill="#989a9d" fill-rule="evenodd"/><path d="M 38.500 29.501 C 33.627 31.227, 30.412 34.755, 29.028 39.897 C 26.709 48.507, 28.186 656.966, 30.535 660.965 C 31.655 662.870, 34.130 665.345, 36.035 666.465 C 41.519 669.686, 1230.481 669.686, 1235.965 666.465 C 1244.354 661.536, 1243.500 697.558, 1243.500 348.500 C 1243.500 -0.558, 1244.354 35.464, 1235.965 30.535 C 1231.398 27.853, 46.044 26.829, 38.500 29.501 M 316.002 75.100 C 307.181 76.827, 303.002 82.422, 303.005 92.500 C 303.007 99.232, 306.239 149.752, 308.475 178 C 310.571 204.486, 311.805 225.733, 313.007 256 C 313.586 270.575, 314.735 294.650, 315.560 309.500 C 316.991 335.249, 317.511 342.328, 320.079 371 C 322.552 398.606, 319.212 440.239, 313.525 452.708 C 305.962 469.289, 296.575 480.394, 281.932 490.087 C 262.445 502.987, 253.916 507.619, 242 511.776 C 235.675 513.982, 227.184 517.188, 223.131 518.900 C 219.078 520.612, 206.478 524.974, 195.131 528.594 C 175.248 534.936, 171.606 536.251, 158.500 541.813 C 153.157 544.080, 150.583 544.437, 135 545.072 C 86.833 547.036, 65.117 567.441, 88.423 588.839 C 99.727 599.218, 121.486 600.799, 150 593.312 C 165.151 589.334, 166.347 589.130, 190 586.477 C 241.578 580.692, 260.842 580.174, 283 583.978 C 286.025 584.498, 294.067 585.419, 300.871 586.025 C 308.940 586.743, 318.852 588.553, 329.371 591.229 C 357.382 598.355, 364.421 597.193, 379.393 582.972 C 390.804 572.132, 394.704 560.243, 392.833 542 C 392.467 538.425, 391.465 528.677, 390.607 520.337 C 389.749 511.997, 388.578 503.077, 388.003 500.515 C 387.429 497.953, 386.495 488.802, 385.928 480.178 C 385.361 471.555, 384.479 461.575, 383.968 458 C 383.457 454.425, 383.031 446.313, 383.020 439.974 C 383.009 433.634, 382.515 424.634, 381.922 419.974 C 381.144 413.868, 381.153 406.890, 381.954 395 C 382.564 385.925, 383.258 351.725, 383.495 319 C 383.899 263.174, 385.264 208.203, 386.499 198 C 387.353 190.950, 392.450 96.134, 392.300 90.099 C 392.090 81.679, 387.468 76.763, 378.114 75.009 C 371.604 73.790, 322.328 73.861, 316.002 75.100 M 509.500 77.881 C 500.453 82.035, 497.339 90.396, 495.490 115.500 C 493.863 137.592, 492.618 148.177, 489.492 166.500 C 485.170 191.830, 484.470 197.632, 481.971 228.911 C 480.846 242.985, 478.616 263.050, 477.015 273.500 C 473.603 295.773, 471.598 313.297, 469.466 339.500 C 467.676 361.491, 466.768 368.567, 463.886 382.952 C 459.508 404.812, 462.103 411.259, 478.595 419.500 C 484.556 422.479, 491.101 426.724, 494.783 430 C 498.184 433.025, 504.667 437.525, 509.191 440 C 516.555 444.029, 518.437 445.721, 527.181 456.164 C 532.553 462.580, 540.264 470.538, 544.317 473.850 C 559.849 486.542, 563.348 500.656, 560.636 539.678 C 557.681 582.189, 559.108 589.933, 571.018 596.009 C 597.741 609.642, 606.426 575.687, 599.154 486 C 598.552 478.575, 597.582 459.225, 596.999 443 C 596.415 426.775, 594.618 387.625, 593.005 356 C 590.276 302.492, 589.544 284.133, 587.028 206 C 586.095 177.030, 584.812 165.388, 581.529 156.081 C 580.754 153.886, 578.939 146.783, 577.496 140.295 C 570.186 107.452, 528.477 69.166, 509.500 77.881 M 1118.444 80.852 C 1115.894 82.032, 1112.469 85.141, 1109.217 89.227 C 1094.309 107.962, 1089.067 108.418, 1073.634 92.326 C 1056.701 74.670, 1051.518 75.279, 1034.109 96.975 C 1024.929 108.415, 1017.244 107.542, 1007 93.895 C 993.480 75.884, 986.996 75.416, 971.516 91.333 C 954.244 109.092, 951.002 109.177, 936.520 92.253 C 922.149 75.459, 917.026 75.349, 901.521 91.500 C 885.940 107.729, 882.712 107.688, 866.706 91.055 C 851.675 75.436, 845.129 75.782, 831.299 92.930 C 818.726 108.519, 814.378 108.591, 800.471 93.440 C 785.050 76.641, 779.500 76.004, 766.813 89.579 C 763.891 92.706, 759.678 97.198, 757.451 99.562 C 749.729 107.761, 743.219 106.030, 732.344 92.885 C 715.419 72.428, 704.222 75.931, 687.732 106.844 C 685.486 111.055, 682.359 116.408, 680.783 118.739 C 672.830 130.510, 673.540 140.551, 682.310 140.303 C 687.011 140.169, 689.610 138.211, 694.470 131.141 C 713.057 104.100, 714.802 103.387, 728.069 117.415 C 742.955 133.154, 753.195 133.065, 766.500 117.080 C 778.799 102.305, 785.647 102.441, 798 117.708 C 810.460 133.107, 823.172 132.584, 836.414 116.127 C 848.145 101.547, 854.702 102.679, 869.891 121.908 C 879.554 134.141, 890.887 133.314, 901.384 119.609 C 914.980 101.858, 919.822 101.439, 933.727 116.810 C 947.231 131.739, 959.676 133.350, 968.644 121.331 C 981.307 104.360, 988.788 102.543, 999.288 113.889 C 1009.640 125.076, 1011.694 126.727, 1016.764 127.943 C 1025.710 130.089, 1033.853 126.184, 1041.520 116.071 C 1051.984 102.269, 1060.049 102.772, 1072.462 118 C 1085.301 133.750, 1094.706 133.912, 1108.375 118.616 C 1121.729 103.671, 1125.648 104.360, 1138.951 123.988 C 1148.111 137.503, 1151.702 141, 1156.422 141 C 1166.055 141, 1165.663 131.108, 1155.411 115.500 C 1152.160 110.550, 1146.575 101.604, 1143 95.621 C 1134.020 80.591, 1127.493 76.665, 1118.444 80.852 M 336.500 96.326 C 325.283 100.716, 325.216 101.102, 328.383 143.160 C 331.097 179.186, 333.494 220.838, 334.503 249.500 C 335.439 276.087, 336.863 301.145, 339.134 331 C 342.504 375.311, 342.364 424.310, 338.831 437 C 332.871 458.411, 322.587 476.488, 311.525 485 C 308.308 487.475, 301.587 493.345, 296.588 498.043 C 286.931 507.121, 268.330 519.233, 254.090 525.714 C 249.916 527.614, 243.993 530.690, 240.928 532.548 C 237.864 534.407, 230.889 537.356, 225.428 539.102 C 219.968 540.848, 212.350 543.989, 208.500 546.083 C 204.622 548.192, 197.041 551.041, 191.500 552.470 C 158.199 561.063, 171.271 567.982, 211.500 563.057 C 215.900 562.519, 223.325 561.614, 228 561.047 C 246.423 558.811, 279.518 560.817, 301.500 565.501 C 307.550 566.791, 315.200 568.153, 318.500 568.530 C 327.946 569.607, 336.926 571.667, 344.273 574.442 C 358.619 579.860, 371.495 575.093, 375.111 563.025 C 376.092 559.750, 371.233 523.963, 369.383 520.838 C 364.678 512.891, 361.590 436.120, 362.572 351.500 C 363.013 313.550, 363.409 272.375, 363.452 260 C 363.546 233.204, 365.361 178.660, 367.490 138.653 C 369.398 102.784, 368.991 100.819, 358.768 96.548 C 354.369 94.710, 340.972 94.576, 336.500 96.326 M 520.727 107.763 C 517.291 111.350, 516.515 115.467, 513.996 143.500 C 512.860 156.150, 510.404 177.300, 508.538 190.500 C 506.673 203.700, 504.656 220.800, 504.055 228.500 C 501.495 261.346, 499.611 277.837, 495.941 299.524 C 493.705 312.741, 491.392 331.057, 490.512 342.524 C 489.668 353.511, 488.481 367.225, 487.873 373 C 485.556 395.022, 489.193 406.412, 500.961 413.982 C 506.038 417.249, 512.543 423.772, 518.911 431.983 C 521.250 434.999, 527.514 440.752, 532.832 444.768 C 538.149 448.785, 546.597 456.316, 551.605 461.505 C 560.775 471.007, 563.781 473, 568.943 473 C 576.078 473, 576.381 468.958, 573.500 412.297 C 570.707 357.367, 568.516 298.120, 566.999 236.500 C 565.400 171.578, 564.929 167.029, 557.145 141.234 C 548.389 112.219, 531.410 96.613, 520.727 107.763 M 751 236.926 C 732.735 242.965, 717.625 250.951, 706.324 260.538 C 701.945 264.253, 698.131 266.455, 693.314 268.050 C 683.514 271.295, 679 275.961, 679 282.848 C 679 291.122, 683.037 294.802, 696.068 298.409 C 707.219 301.495, 721.264 315.724, 725.954 328.687 C 727.603 333.244, 730.033 339.115, 731.354 341.736 C 732.675 344.356, 735.239 350.074, 737.052 354.443 C 740.945 363.826, 757.275 388.869, 766.243 399.208 C 769.721 403.219, 773.630 408.075, 774.929 410 C 776.227 411.925, 784.584 420.925, 793.499 430 C 826.227 463.316, 833.615 478.145, 832.779 508.843 C 832.234 528.840, 829.677 535.902, 818.248 548.967 C 810.061 558.325, 807.064 559.086, 777.175 559.396 C 738.361 559.797, 716.963 567.017, 714.421 580.569 C 712.903 588.661, 719.421 589.912, 737.500 584.999 C 760.465 578.757, 781.251 578.771, 803 585.043 C 810.146 587.104, 817.578 588.398, 826.268 589.095 C 836.409 589.909, 841.092 590.827, 849.035 593.560 C 863.954 598.693, 867.182 598.150, 878.726 588.568 C 890.171 579.069, 917.815 575.883, 940.442 581.456 C 955.432 585.147, 960.418 583.996, 960.216 576.889 C 959.942 567.271, 948.830 560.143, 930.115 557.580 C 923.853 556.722, 918.003 555.476, 917.115 554.809 C 911.500 550.598, 911.585 546.016, 917.494 534.363 C 919.966 529.488, 922.920 522.711, 924.058 519.303 C 931.933 495.724, 969.149 487.362, 1011.431 499.672 C 1018.069 501.604, 1027.550 504.063, 1032.500 505.135 C 1037.784 506.280, 1046.042 509.176, 1052.500 512.150 C 1058.550 514.936, 1067.775 519.190, 1073 521.604 C 1078.225 524.018, 1087 527.600, 1092.500 529.564 C 1098 531.528, 1106.258 534.493, 1110.852 536.152 C 1146.936 549.184, 1178.438 516.905, 1152.436 493.541 C 1143.284 485.317, 1143.149 484.184, 1150.500 477.265 C 1162.803 465.684, 1154.111 457.516, 1132 459.880 C 1109.143 462.324, 1100.039 461.073, 1087.500 453.763 C 1068.830 442.880, 1029.528 417.819, 1011.022 404.998 C 1008.559 403.292, 1002.656 399.846, 997.905 397.341 C 993.155 394.836, 985.373 389.907, 980.612 386.387 C 975.852 382.867, 968.029 377.540, 963.229 374.550 C 958.428 371.559, 950.900 366.635, 946.500 363.606 C 942.100 360.578, 934.450 355.594, 929.500 352.531 C 924.550 349.468, 916.450 344.077, 911.500 340.552 C 901.385 333.349, 897.238 330.692, 881.500 321.334 C 875.450 317.736, 868.700 313.333, 866.500 311.550 C 864.300 309.767, 858.492 305.728, 853.593 302.575 C 848.695 299.422, 842.170 294.497, 839.093 291.631 C 836.017 288.764, 831.768 284.949, 829.652 283.153 C 827.535 281.358, 821.858 275.076, 817.035 269.194 C 792.654 239.459, 772.752 229.734, 751 236.926 M 772.400 261.765 C 770.537 263.009, 769 266.716, 769 269.966 C 769 286.242, 753.982 285.674, 749.962 269.247 C 747.004 257.158, 733.380 261.327, 731.515 274.892 C 730.675 281.005, 732.521 292.060, 735.624 299.491 C 741.537 313.653, 750.347 337.031, 752.209 343.500 C 754.676 352.068, 764.691 371.196, 770.419 378.280 C 772.741 381.151, 776.475 386.200, 778.717 389.500 C 780.959 392.800, 786.558 399.550, 791.157 404.500 C 795.757 409.450, 802.186 416.875, 805.442 421 C 808.699 425.125, 815.963 433.294, 821.585 439.153 C 827.207 445.012, 834.792 453.875, 838.442 458.847 C 849.464 473.864, 850.653 474.476, 860.865 470.391 C 872.513 465.731, 880.687 468.819, 888.368 480.782 C 898.446 496.478, 906.191 499.104, 917.446 490.642 C 919.126 489.379, 924.550 486.219, 929.500 483.620 C 953.791 470.863, 952.613 465.441, 923.500 456.015 C 919.650 454.768, 912.225 451.945, 907 449.740 C 901.775 447.536, 893.450 444.049, 888.500 441.992 C 870.579 434.543, 858.382 428.613, 852.500 424.491 C 849.200 422.178, 844.925 419.490, 843 418.518 C 837.550 415.767, 817.549 400.487, 815.697 397.661 C 814.784 396.267, 806.891 387.969, 798.158 379.220 C 769 350.011, 768.469 327.606, 796.740 319.387 C 815.588 313.908, 824.840 327.019, 808.082 335.459 C 788.652 345.244, 795.708 365.813, 825 384.774 C 830.225 388.156, 836.279 392.178, 838.453 393.712 C 854.901 405.314, 862.656 410.055, 868.208 411.903 C 871.702 413.065, 877.697 415.865, 881.530 418.124 C 885.364 420.383, 891.425 423.241, 895 424.474 C 898.575 425.707, 904.650 428.303, 908.500 430.242 C 912.882 432.449, 919.345 434.551, 925.783 435.862 C 931.439 437.014, 941.282 440.020, 947.657 442.541 C 956.881 446.189, 961.584 447.415, 970.697 448.545 C 976.995 449.327, 987.852 451.530, 994.824 453.442 C 1045.254 467.270, 1061.669 460.459, 1029.060 439.236 C 1022.702 435.098, 1013.225 428.910, 1008 425.484 C 1002.775 422.059, 997.150 418.553, 995.500 417.694 C 993.850 416.834, 990.325 414.311, 987.666 412.087 C 985.008 409.862, 976.731 404.395, 969.273 399.937 C 961.816 395.480, 950.266 388.104, 943.607 383.547 C 936.948 378.989, 928.350 373.465, 924.500 371.271 C 920.650 369.076, 912.550 363.854, 906.500 359.666 C 900.450 355.479, 892.350 350.157, 888.500 347.840 C 884.650 345.524, 878.575 341.308, 875 338.472 C 865.250 330.738, 858.044 325.579, 852.716 322.518 C 845.693 318.484, 827.662 301.786, 822.467 294.506 C 819.991 291.036, 814.710 285.568, 810.733 282.354 C 806.755 279.140, 800.671 273.947, 797.213 270.813 C 788.818 263.206, 776.804 258.825, 772.400 261.765 M 1078.072 490.041 C 1067.853 492.154, 1074.833 500.508, 1093.117 508.048 C 1097.145 509.709, 1102.254 512.117, 1104.471 513.399 C 1116.454 520.331, 1135.757 519.801, 1137.592 512.489 C 1140.316 501.638, 1098.414 485.834, 1078.072 490.041 M 871.416 500.421 C 868.459 501.708, 865.503 506.408, 863.502 513 C 862.086 517.667, 859.142 522.652, 849.866 536.089 C 834.941 557.708, 836.424 563.501, 856.879 563.499 C 880.795 563.495, 894.261 549.629, 894.266 525 C 894.269 509.505, 881.672 495.956, 871.416 500.421" stroke="none" fill="#f3f3f3" fill-rule="evenodd"/></svg>