<svg xmlns="http://www.w3.org/2000/svg" width="1272" height="532" viewBox="0 0 1272 532" version="1.1"><path d="M 351 60.716 C 350.175 60.978, 345.932 62.536, 341.571 64.178 C 337.211 65.819, 329.786 67.824, 325.071 68.632 C 316.240 70.146, 290.016 77.131, 284.478 79.445 C 272.986 84.247, 267.328 97.483, 273.589 104.923 C 276.585 108.484, 278.549 108.694, 287.356 106.398 C 328.987 95.543, 346.816 108.049, 340.608 143.750 C 337.975 158.898, 339.590 185.378, 344.039 200 C 344.625 201.925, 346.399 208.507, 347.983 214.626 C 349.566 220.745, 353.075 230.645, 355.781 236.626 C 366.516 260.356, 367.824 264.106, 369.682 276.500 C 372.181 293.173, 372.259 341.424, 369.813 357.500 C 368.892 363.550, 367.862 372.008, 367.524 376.297 C 367.185 380.585, 365.746 388.010, 364.326 392.797 C 362.907 397.583, 360.901 405.012, 359.869 409.306 C 355.944 425.645, 352.587 427.741, 331.500 427.024 C 269.171 424.905, 259 426.517, 259 438.516 C 259 445.880, 263.653 447.978, 272.899 444.782 C 281.112 441.943, 305.999 441.626, 334.500 443.998 C 344.400 444.822, 356.775 445.402, 362 445.287 C 371.211 445.084, 417.285 445.017, 433.500 445.183 C 437.900 445.228, 454.438 444.796, 470.252 444.223 C 494.157 443.358, 499.888 443.418, 504.252 444.579 C 515.343 447.532, 519.947 445.225, 518.670 437.357 C 517.097 427.662, 513.634 426.763, 481.146 427.606 C 442.863 428.600, 439.673 426.738, 444.511 406.219 C 448.220 390.486, 454.652 386.133, 467 391 C 477.900 395.296, 484.321 392.416, 488.462 381.372 C 496.633 359.579, 505.124 359.524, 516.091 381.194 C 521.182 391.253, 547.629 419.575, 564.904 433.466 C 617.327 475.622, 654.550 429.880, 615.177 371.688 C 613.618 369.384, 610.988 364.575, 609.332 361 C 604.783 351.183, 595.897 336.216, 587.192 323.708 C 582.902 317.544, 577.940 309.896, 576.166 306.712 C 574.392 303.529, 571.041 298.254, 568.720 294.990 C 566.399 291.727, 562.925 286.514, 561 283.408 C 559.075 280.301, 554.120 274.101, 549.988 269.630 C 545.857 265.158, 535.840 253.535, 527.728 243.801 C 519.616 234.067, 510.677 224.167, 507.863 221.801 C 505.048 219.435, 500.290 214.350, 497.288 210.500 C 494.287 206.650, 481.159 192.700, 468.116 179.500 C 435.003 145.990, 431.659 139.714, 430.019 108 C 428.384 76.403, 424.648 65.236, 414.662 62.106 C 411.454 61.100, 353.756 59.841, 351 60.716 M 127.411 64.891 C 121.315 68.608, 114.655 81.340, 112.546 93.308 C 111.752 97.814, 109.954 108.030, 108.550 116.010 C 107.147 123.991, 105.540 132.091, 104.979 134.010 C 102.814 141.428, 100.233 174.448, 99.001 210.500 C 98.502 225.119, 97.433 240.439, 96.560 245.500 C 94.412 257.953, 94.333 318.536, 96.449 331 C 97.243 335.675, 98.388 344.675, 98.994 351 C 100.616 367.931, 102.573 375.986, 107.546 386.203 C 117.173 405.984, 108.072 408.532, 89.500 391.256 C 70.304 373.398, 59.674 379.876, 64.485 406.500 C 66.262 416.336, 66.367 424.174, 64.856 434.106 C 61.921 453.389, 62.048 453.427, 130.443 453.798 C 210.842 454.234, 204.367 457.089, 204.799 421.020 C 205.312 378.164, 198.169 370.841, 175.500 390.986 C 157.296 407.162, 148.324 405.818, 156.848 388.192 C 160.744 380.136, 162.298 373.877, 166.002 351.339 C 169.032 332.898, 169.031 229.736, 166 211.500 C 164.903 204.900, 164.004 195.842, 164.003 191.372 C 164 183.439, 161.661 147.867, 160.434 137.101 C 160.096 134.131, 158.477 126.931, 156.837 121.101 C 155.197 115.270, 152.980 104.425, 151.909 97 C 148.160 70.992, 138.395 58.193, 127.411 64.891 M 377.283 73.111 C 374.320 73.809, 372.069 75.270, 369.711 78.025 C 366.507 81.768, 366.102 81.939, 360.768 81.798 C 349.970 81.514, 347.398 85.872, 353.917 93.404 C 359.689 100.073, 361.107 129.992, 356.528 148.500 C 351.308 169.596, 364.830 218.304, 380.540 235 C 382.877 237.483, 390.107 250.061, 396.937 263.527 C 398.898 267.391, 402.117 272.791, 404.091 275.527 C 406.065 278.262, 410.285 285.450, 413.470 291.500 C 416.655 297.550, 421.496 306.100, 424.228 310.500 C 435.944 329.367, 439.613 336.912, 443.590 350.318 C 446.635 360.579, 457.166 370, 465.592 370 C 476.960 370, 480.987 360.842, 480.983 335 C 480.979 315.453, 480.805 315.195, 453.453 294 C 435.266 279.907, 422.753 268.892, 416.917 261.837 C 414.489 258.902, 408.508 252.017, 403.626 246.538 C 377.276 216.968, 368.268 192.690, 380.282 183.624 C 389.077 176.988, 424.292 176.938, 428.628 183.556 C 432.863 190.018, 426.647 194.620, 412.014 195.857 C 392.390 197.517, 391.843 203.371, 409.178 226.254 C 431.499 255.721, 468.927 288.620, 486.759 294.448 C 490.841 295.782, 493.768 297.883, 499.837 303.833 C 505.098 308.992, 511.884 314.109, 520.578 319.474 C 533.769 327.613, 536.534 329.504, 559.864 346.343 C 584.246 363.940, 591.003 361.009, 577.018 338.903 C 562.957 316.676, 560.190 312.352, 554.559 303.809 C 551.292 298.851, 544.743 290.454, 540.007 285.147 C 535.271 279.841, 528.197 271.225, 524.288 266 C 520.378 260.775, 513.056 252.225, 508.017 247 C 502.978 241.775, 496.773 235.025, 494.229 232 C 491.685 228.975, 477.851 214.575, 463.487 200 C 424.694 160.639, 417.229 148.467, 413.509 118.500 C 408.321 76.710, 400.991 67.527, 377.283 73.111 M 130.299 110.207 C 128.605 112.361, 121.785 136.837, 119.894 147.553 C 117.666 160.169, 116.136 181.024, 114.944 215 C 114.433 229.575, 113.595 243.975, 113.081 247 C 111.848 254.252, 111.748 321.802, 112.958 329.500 C 113.477 332.800, 114.386 340.900, 114.979 347.500 C 118.071 381.946, 134.911 397.604, 144.411 374.868 C 150.314 360.739, 154.369 244.318, 149.944 216 C 149.385 212.425, 148.517 200.725, 148.014 190 C 145.670 140.042, 144.884 134.096, 138.692 119.509 C 134.541 109.729, 132.476 107.440, 130.299 110.207 M 989 152.289 C 982.827 155.397, 984.861 162.318, 998.613 185 C 1009.133 202.351, 1008.500 199.279, 1008.500 233 C 1008.500 269.935, 1007.047 273.508, 990 278.486 C 986.975 279.370, 980.225 281.428, 975 283.061 C 957.701 288.467, 954.038 285.248, 961.995 271.631 C 986.139 230.316, 950.593 190.897, 921.290 226.491 C 915.653 233.339, 898.761 242.203, 883 246.584 C 862.283 252.342, 847.437 262.810, 839.943 276.941 C 832.306 291.343, 822.468 293.556, 801 285.703 C 795.775 283.792, 787 281.308, 781.500 280.184 C 776 279.060, 766.550 276.374, 760.500 274.215 C 754.450 272.056, 746.125 269.489, 742 268.510 C 737.875 267.530, 730.215 264.783, 724.979 262.403 C 701.378 251.680, 688.727 253.159, 684.979 267.079 C 682.574 276.008, 686.449 282.348, 696.281 285.570 C 699.151 286.511, 704.875 288.961, 709 291.014 C 713.125 293.068, 719.650 295.892, 723.500 297.292 C 727.350 298.691, 733.425 301.163, 737 302.784 C 740.575 304.406, 745.975 306.303, 749 306.999 C 778.756 313.847, 784.344 319.202, 785 341.500 C 785.543 359.967, 786.369 362.957, 792.107 367.234 C 795.497 369.760, 1019.471 370.084, 1025.484 367.571 C 1031.914 364.885, 1035.006 356.932, 1034.994 343.114 C 1034.980 326.588, 1032.434 320.927, 1022.704 315.781 C 1013.881 311.115, 1016.518 306.632, 1032.500 299.126 C 1035.800 297.577, 1042.212 294.574, 1046.750 292.454 C 1063.352 284.697, 1068.993 289.171, 1073.971 314.044 C 1077.074 329.549, 1078.306 332.442, 1086.207 342.770 C 1097.864 358.011, 1106.672 364.402, 1117.673 365.603 C 1142.636 368.329, 1131.154 319.488, 1102 298.935 C 1085.728 287.465, 1084.536 286.496, 1083.160 283.637 C 1080.246 277.582, 1087.079 268.783, 1099.855 262.136 C 1115.919 253.779, 1120.256 244.062, 1112.307 234.240 C 1103.201 222.990, 1097.266 223.068, 1079.276 234.673 C 1060.787 246.600, 1058.609 245.875, 1043.416 222.732 C 1029.354 201.312, 1026.975 195.375, 1026.050 179.403 C 1024.905 159.633, 1023.369 157.339, 1011.582 157.792 C 1005.536 158.024, 1003.930 157.733, 1001.737 156.008 C 996.408 151.816, 992.313 150.620, 989 152.289 M 938.500 233.207 C 937.400 233.837, 932.900 238.008, 928.500 242.476 C 919.842 251.266, 907.744 257.201, 889.500 261.607 C 874.869 265.141, 859.240 276.078, 857.500 284 C 854.610 297.157, 880.696 303.843, 912.278 298.041 C 930.137 294.760, 935.878 289.116, 936.022 274.701 C 936.062 270.661, 939.716 264.555, 945.413 259.008 C 958.083 246.670, 952.350 225.270, 938.500 233.207 M 391.408 304.102 C 388.810 306.972, 386.895 346.962, 389.136 351.536 C 392.102 357.589, 403.485 361.699, 409.911 359.037 C 418.997 355.274, 418.278 334.217, 408.459 316.510 C 400.740 302.591, 395.938 299.096, 391.408 304.102 M 860 333.083 C 848.138 335.603, 843.325 335.796, 829 334.324 C 808.521 332.220, 802.585 334.641, 804.407 344.356 C 805.938 352.515, 798.881 351.992, 907.538 351.996 C 1014.854 352, 1010.859 352.274, 1013.442 344.750 C 1017.458 333.051, 991.926 329.035, 948.500 334.535 C 937.533 335.924, 935.769 335.912, 928 334.397 C 918.069 332.461, 867.528 331.484, 860 333.083 M 521.357 347.512 C 517.515 357.524, 545.135 397.974, 567.821 415.560 C 589.432 432.313, 603.391 435.409, 601.738 423.082 C 600.770 415.867, 591.162 401.547, 574.174 382 C 555.763 360.815, 524.169 340.185, 521.357 347.512 M 391.500 376.894 C 387.890 378.464, 385.911 381.673, 382.396 391.654 C 371.030 423.930, 372.780 428, 398.025 428 C 422.602 428, 426.092 425.149, 427.656 403.798 C 428.437 393.121, 427.438 391.165, 419.144 387.148 C 415.968 385.609, 410.630 382.660, 407.282 380.593 C 401.056 376.750, 395.062 375.345, 391.500 376.894 M 164 419.454 C 156.025 422.395, 145.680 426.231, 141.010 427.978 C 130.737 431.821, 131.562 431.949, 109.477 423.103 C 85.211 413.383, 81.739 413.199, 79.004 421.489 C 74.732 434.434, 89.026 438.906, 121.150 434.674 C 128.036 433.767, 133.690 433.557, 137.150 434.079 C 174.221 439.678, 189.595 435.925, 187.692 421.741 C 186.467 412.609, 183.370 412.310, 164 419.454" stroke="none" fill="#838488" fill-rule="evenodd"/><path d="M 38.500 29.501 C 33.624 31.228, 30.412 34.756, 29.026 39.905 C 28.313 42.553, 28.064 114.761, 28.241 268.139 C 28.533 521.353, 27.705 496.571, 36.035 501.465 C 41.519 504.686, 1230.481 504.686, 1235.965 501.465 C 1244.304 496.565, 1243.500 521.697, 1243.500 266 C 1243.500 10.303, 1244.304 35.435, 1235.965 30.535 C 1231.398 27.853, 46.044 26.829, 38.500 29.501 M 351 60.716 C 350.175 60.978, 345.932 62.536, 341.571 64.178 C 337.211 65.819, 329.786 67.824, 325.071 68.632 C 316.240 70.146, 290.016 77.131, 284.478 79.445 C 272.986 84.247, 267.328 97.483, 273.589 104.923 C 276.585 108.484, 278.549 108.694, 287.356 106.398 C 328.987 95.543, 346.816 108.049, 340.608 143.750 C 337.975 158.898, 339.590 185.378, 344.039 200 C 344.625 201.925, 346.399 208.507, 347.983 214.626 C 349.566 220.745, 353.075 230.645, 355.781 236.626 C 366.516 260.356, 367.824 264.106, 369.682 276.500 C 372.181 293.173, 372.259 341.424, 369.813 357.500 C 368.892 363.550, 367.862 372.008, 367.524 376.297 C 367.185 380.585, 365.746 388.010, 364.326 392.797 C 362.907 397.583, 360.901 405.012, 359.869 409.306 C 355.944 425.645, 352.587 427.741, 331.500 427.024 C 269.171 424.905, 259 426.517, 259 438.516 C 259 445.880, 263.653 447.978, 272.899 444.782 C 281.112 441.943, 305.999 441.626, 334.500 443.998 C 344.400 444.822, 356.775 445.402, 362 445.287 C 371.211 445.084, 417.285 445.017, 433.500 445.183 C 437.900 445.228, 454.438 444.796, 470.252 444.223 C 494.157 443.358, 499.888 443.418, 504.252 444.579 C 515.343 447.532, 519.947 445.225, 518.670 437.357 C 517.097 427.662, 513.634 426.763, 481.146 427.606 C 442.863 428.600, 439.673 426.738, 444.511 406.219 C 448.220 390.486, 454.652 386.133, 467 391 C 477.900 395.296, 484.321 392.416, 488.462 381.372 C 496.633 359.579, 505.124 359.524, 516.091 381.194 C 521.182 391.253, 547.629 419.575, 564.904 433.466 C 617.327 475.622, 654.550 429.880, 615.177 371.688 C 613.618 369.384, 610.988 364.575, 609.332 361 C 604.783 351.183, 595.897 336.216, 587.192 323.708 C 582.902 317.544, 577.940 309.896, 576.166 306.712 C 574.392 303.529, 571.041 298.254, 568.720 294.990 C 566.399 291.727, 562.925 286.514, 561 283.408 C 559.075 280.301, 554.120 274.101, 549.988 269.630 C 545.857 265.158, 535.840 253.535, 527.728 243.801 C 519.616 234.067, 510.677 224.167, 507.863 221.801 C 505.048 219.435, 500.290 214.350, 497.288 210.500 C 494.287 206.650, 481.159 192.700, 468.116 179.500 C 435.003 145.990, 431.659 139.714, 430.019 108 C 428.384 76.403, 424.648 65.236, 414.662 62.106 C 411.454 61.100, 353.756 59.841, 351 60.716 M 127.411 64.891 C 121.315 68.608, 114.655 81.340, 112.546 93.308 C 111.752 97.814, 109.954 108.030, 108.550 116.010 C 107.147 123.991, 105.540 132.091, 104.979 134.010 C 102.814 141.428, 100.233 174.448, 99.001 210.500 C 98.502 225.119, 97.433 240.439, 96.560 245.500 C 94.412 257.953, 94.333 318.536, 96.449 331 C 97.243 335.675, 98.388 344.675, 98.994 351 C 100.616 367.931, 102.573 375.986, 107.546 386.203 C 117.173 405.984, 108.072 408.532, 89.500 391.256 C 70.304 373.398, 59.674 379.876, 64.485 406.500 C 66.262 416.336, 66.367 424.174, 64.856 434.106 C 61.921 453.389, 62.048 453.427, 130.443 453.798 C 210.842 454.234, 204.367 457.089, 204.799 421.020 C 205.312 378.164, 198.169 370.841, 175.500 390.986 C 157.296 407.162, 148.324 405.818, 156.848 388.192 C 160.744 380.136, 162.298 373.877, 166.002 351.339 C 169.032 332.898, 169.031 229.736, 166 211.500 C 164.903 204.900, 164.004 195.842, 164.003 191.372 C 164 183.439, 161.661 147.867, 160.434 137.101 C 160.096 134.131, 158.477 126.931, 156.837 121.101 C 155.197 115.270, 152.980 104.425, 151.909 97 C 148.160 70.992, 138.395 58.193, 127.411 64.891 M 377.283 73.111 C 374.320 73.809, 372.069 75.270, 369.711 78.025 C 366.507 81.768, 366.102 81.939, 360.768 81.798 C 349.970 81.514, 347.398 85.872, 353.917 93.404 C 359.689 100.073, 361.107 129.992, 356.528 148.500 C 351.308 169.596, 364.830 218.304, 380.540 235 C 382.877 237.483, 390.107 250.061, 396.937 263.527 C 398.898 267.391, 402.117 272.791, 404.091 275.527 C 406.065 278.262, 410.285 285.450, 413.470 291.500 C 416.655 297.550, 421.496 306.100, 424.228 310.500 C 435.944 329.367, 439.613 336.912, 443.590 350.318 C 446.635 360.579, 457.166 370, 465.592 370 C 476.960 370, 480.987 360.842, 480.983 335 C 480.979 315.453, 480.805 315.195, 453.453 294 C 435.266 279.907, 422.753 268.892, 416.917 261.837 C 414.489 258.902, 408.508 252.017, 403.626 246.538 C 377.276 216.968, 368.268 192.690, 380.282 183.624 C 389.077 176.988, 424.292 176.938, 428.628 183.556 C 432.863 190.018, 426.647 194.620, 412.014 195.857 C 392.390 197.517, 391.843 203.371, 409.178 226.254 C 431.499 255.721, 468.927 288.620, 486.759 294.448 C 490.841 295.782, 493.768 297.883, 499.837 303.833 C 505.098 308.992, 511.884 314.109, 520.578 319.474 C 533.769 327.613, 536.534 329.504, 559.864 346.343 C 584.246 363.940, 591.003 361.009, 577.018 338.903 C 562.957 316.676, 560.190 312.352, 554.559 303.809 C 551.292 298.851, 544.743 290.454, 540.007 285.147 C 535.271 279.841, 528.197 271.225, 524.288 266 C 520.378 260.775, 513.056 252.225, 508.017 247 C 502.978 241.775, 496.773 235.025, 494.229 232 C 491.685 228.975, 477.851 214.575, 463.487 200 C 424.694 160.639, 417.229 148.467, 413.509 118.500 C 408.321 76.710, 400.991 67.527, 377.283 73.111 M 130.299 110.207 C 128.605 112.361, 121.785 136.837, 119.894 147.553 C 117.666 160.169, 116.136 181.024, 114.944 215 C 114.433 229.575, 113.595 243.975, 113.081 247 C 111.848 254.252, 111.748 321.802, 112.958 329.500 C 113.477 332.800, 114.386 340.900, 114.979 347.500 C 118.071 381.946, 134.911 397.604, 144.411 374.868 C 150.314 360.739, 154.369 244.318, 149.944 216 C 149.385 212.425, 148.517 200.725, 148.014 190 C 145.670 140.042, 144.884 134.096, 138.692 119.509 C 134.541 109.729, 132.476 107.440, 130.299 110.207 M 989 152.289 C 982.827 155.397, 984.861 162.318, 998.613 185 C 1009.133 202.351, 1008.500 199.279, 1008.500 233 C 1008.500 269.935, 1007.047 273.508, 990 278.486 C 986.975 279.370, 980.225 281.428, 975 283.061 C 957.701 288.467, 954.038 285.248, 961.995 271.631 C 986.139 230.316, 950.593 190.897, 921.290 226.491 C 915.653 233.339, 898.761 242.203, 883 246.584 C 862.283 252.342, 847.437 262.810, 839.943 276.941 C 832.306 291.343, 822.468 293.556, 801 285.703 C 795.775 283.792, 787 281.308, 781.500 280.184 C 776 279.060, 766.550 276.374, 760.500 274.215 C 754.450 272.056, 746.125 269.489, 742 268.510 C 737.875 267.530, 730.215 264.783, 724.979 262.403 C 701.378 251.680, 688.727 253.159, 684.979 267.079 C 682.574 276.008, 686.449 282.348, 696.281 285.570 C 699.151 286.511, 704.875 288.961, 709 291.014 C 713.125 293.068, 719.650 295.892, 723.500 297.292 C 727.350 298.691, 733.425 301.163, 737 302.784 C 740.575 304.406, 745.975 306.303, 749 306.999 C 778.756 313.847, 784.344 319.202, 785 341.500 C 785.543 359.967, 786.369 362.957, 792.107 367.234 C 795.497 369.760, 1019.471 370.084, 1025.484 367.571 C 1031.914 364.885, 1035.006 356.932, 1034.994 343.114 C 1034.980 326.588, 1032.434 320.927, 1022.704 315.781 C 1013.881 311.115, 1016.518 306.632, 1032.500 299.126 C 1035.800 297.577, 1042.212 294.574, 1046.750 292.454 C 1063.352 284.697, 1068.993 289.171, 1073.971 314.044 C 1077.074 329.549, 1078.306 332.442, 1086.207 342.770 C 1097.864 358.011, 1106.672 364.402, 1117.673 365.603 C 1142.636 368.329, 1131.154 319.488, 1102 298.935 C 1085.728 287.465, 1084.536 286.496, 1083.160 283.637 C 1080.246 277.582, 1087.079 268.783, 1099.855 262.136 C 1115.919 253.779, 1120.256 244.062, 1112.307 234.240 C 1103.201 222.990, 1097.266 223.068, 1079.276 234.673 C 1060.787 246.600, 1058.609 245.875, 1043.416 222.732 C 1029.354 201.312, 1026.975 195.375, 1026.050 179.403 C 1024.905 159.633, 1023.369 157.339, 1011.582 157.792 C 1005.536 158.024, 1003.930 157.733, 1001.737 156.008 C 996.408 151.816, 992.313 150.620, 989 152.289 M 938.500 233.207 C 937.400 233.837, 932.900 238.008, 928.500 242.476 C 919.842 251.266, 907.744 257.201, 889.500 261.607 C 874.869 265.141, 859.240 276.078, 857.500 284 C 854.610 297.157, 880.696 303.843, 912.278 298.041 C 930.137 294.760, 935.878 289.116, 936.022 274.701 C 936.062 270.661, 939.716 264.555, 945.413 259.008 C 958.083 246.670, 952.350 225.270, 938.500 233.207 M 391.408 304.102 C 388.810 306.972, 386.895 346.962, 389.136 351.536 C 392.102 357.589, 403.485 361.699, 409.911 359.037 C 418.997 355.274, 418.278 334.217, 408.459 316.510 C 400.740 302.591, 395.938 299.096, 391.408 304.102 M 860 333.083 C 848.138 335.603, 843.325 335.796, 829 334.324 C 808.521 332.220, 802.585 334.641, 804.407 344.356 C 805.938 352.515, 798.881 351.992, 907.538 351.996 C 1014.854 352, 1010.859 352.274, 1013.442 344.750 C 1017.458 333.051, 991.926 329.035, 948.500 334.535 C 937.533 335.924, 935.769 335.912, 928 334.397 C 918.069 332.461, 867.528 331.484, 860 333.083 M 521.357 347.512 C 517.515 357.524, 545.135 397.974, 567.821 415.560 C 589.432 432.313, 603.391 435.409, 601.738 423.082 C 600.770 415.867, 591.162 401.547, 574.174 382 C 555.763 360.815, 524.169 340.185, 521.357 347.512 M 391.500 376.894 C 387.890 378.464, 385.911 381.673, 382.396 391.654 C 371.030 423.930, 372.780 428, 398.025 428 C 422.602 428, 426.092 425.149, 427.656 403.798 C 428.437 393.121, 427.438 391.165, 419.144 387.148 C 415.968 385.609, 410.630 382.660, 407.282 380.593 C 401.056 376.750, 395.062 375.345, 391.500 376.894 M 164 419.454 C 156.025 422.395, 145.680 426.231, 141.010 427.978 C 130.737 431.821, 131.562 431.949, 109.477 423.103 C 85.211 413.383, 81.739 413.199, 79.004 421.489 C 74.732 434.434, 89.026 438.906, 121.150 434.674 C 128.036 433.767, 133.690 433.557, 137.150 434.079 C 174.221 439.678, 189.595 435.925, 187.692 421.741 C 186.467 412.609, 183.370 412.310, 164 419.454" stroke="none" fill="#f0f0f1" fill-rule="evenodd"/></svg>