<svg xmlns="http://www.w3.org/2000/svg" width="1272" height="504" viewBox="0 0 1272 504" version="1.1"><path d="M 424.230 66.550 C 421.332 67.331, 417.568 68.689, 415.866 69.569 C 409.958 72.624, 404.834 73.956, 393.074 75.490 C 373.038 78.105, 367.721 80.223, 358.154 89.403 C 343.122 103.826, 346.973 116.170, 364.901 111.028 C 372.043 108.980, 405.350 109.436, 409.113 111.634 C 417.496 116.530, 418.144 120.679, 414.950 149 C 412.976 166.500, 414.633 186.090, 419.262 200.006 C 421.184 205.785, 423.292 213.210, 423.945 216.506 C 424.599 219.803, 426.674 225.650, 428.557 229.500 C 445.569 264.277, 451.061 309.500, 443.555 353 C 442.748 357.675, 441.588 366.187, 440.976 371.915 C 440.364 377.643, 438.805 385.743, 437.511 389.915 C 436.217 394.087, 434.386 400.320, 433.443 403.766 C 430.036 416.212, 421.279 420.081, 401.012 418.094 C 377.657 415.804, 362.106 415.536, 355.998 417.317 C 334.422 423.607, 331.548 440.861, 352.767 436.714 C 359.235 435.450, 363.609 435.368, 379.500 436.214 C 403.732 437.504, 580.790 437.850, 583.500 436.613 C 588.500 434.331, 588.344 428.969, 583.134 424.013 C 576.842 418.027, 573.280 417.500, 548.479 418.886 C 519.314 420.516, 515.253 418.606, 516.371 403.782 C 517.572 387.873, 521.569 384.376, 538.073 384.798 C 551.915 385.152, 553.909 384.095, 559.186 373.617 C 564.152 363.754, 567.793 359, 570.379 359 C 573.244 359, 590.192 377.665, 597.165 388.500 C 598.581 390.700, 603.511 396.328, 608.120 401.007 C 653.174 446.745, 675.852 452.438, 690.590 421.710 C 698.991 404.193, 698.748 402.135, 685.057 374.787 C 674.854 354.408, 671.304 348.189, 661.496 333.500 C 658.596 329.157, 654.207 322.234, 641.422 301.838 C 634.046 290.070, 627.752 282.026, 621.877 276.858 C 617.740 273.218, 613.853 268.482, 610.811 263.374 C 605.677 254.751, 598.933 246.486, 592.080 240.415 C 589.649 238.262, 584.995 233.156, 581.739 229.070 C 578.482 224.983, 570.346 216.363, 563.659 209.913 C 556.971 203.464, 547.450 193.583, 542.500 187.956 C 537.550 182.328, 529.225 173.161, 524 167.584 C 515.035 158.015, 514.235 156.798, 509.795 145.972 C 502.909 129.180, 502.640 127.724, 502.521 106.500 C 502.382 81.735, 499.163 72.369, 489.030 67.250 C 483.441 64.426, 434.098 63.894, 424.230 66.550 M 913.467 66.998 C 906.183 70.604, 905.579 72.791, 906.873 90.863 C 907.489 99.464, 908.457 118.875, 909.024 134 C 910.206 165.499, 911.116 180.355, 914.479 223 C 918.985 280.161, 919.276 285.935, 918.791 308.628 C 918.147 338.743, 913.289 349.938, 896.354 360.340 C 893.524 362.078, 888.777 365.144, 885.804 367.153 C 877.241 372.941, 869.096 376.851, 861 379.062 C 856.875 380.188, 850.817 382.698, 847.538 384.638 C 843.616 386.960, 838.543 388.815, 832.713 390.061 C 827.839 391.103, 820.370 393.527, 816.115 395.448 C 806.779 399.664, 799.519 401.411, 782.897 403.444 C 745.960 407.961, 735.730 426.056, 761.813 440.737 C 770.395 445.567, 776.985 445.642, 794.701 441.114 C 801.411 439.399, 811.086 437.557, 816.201 437.021 C 821.315 436.484, 827.975 435.597, 831 435.048 C 851.792 431.273, 876.743 430.375, 889.260 432.951 C 894.474 434.023, 904.536 435.392, 911.620 435.992 C 918.704 436.592, 928.248 437.964, 932.829 439.041 C 948.362 442.694, 956.904 440.198, 965.834 429.397 C 974.640 418.746, 975.012 416.122, 971.593 388.762 C 968.132 361.067, 967.590 344.170, 967.896 273.500 C 968.343 170.483, 969.626 114.331, 972.097 89.647 C 974.374 66.911, 971.776 65, 938.601 65.001 C 919.528 65.002, 917.112 65.193, 913.467 66.998 M 460.297 84.114 C 456.132 85.090, 451 89.687, 451 92.442 C 451 101.666, 435.809 103.160, 434.602 94.054 C 433.664 86.987, 428.692 84.489, 425.440 89.451 C 423.328 92.675, 424.269 95.389, 429.060 99.895 C 435.225 105.692, 436.618 126.813, 432.855 157.434 C 431.533 168.191, 432.129 173.400, 437.036 194 C 441.052 210.854, 441.686 212.607, 446.169 219.230 C 448.302 222.382, 450.326 225.757, 450.667 226.730 C 451.429 228.906, 459.837 244.032, 465.547 253.500 C 467.869 257.350, 470.945 262.847, 472.383 265.715 C 473.822 268.583, 478.388 276.326, 482.532 282.921 C 486.675 289.516, 490.697 296.424, 491.470 298.273 C 492.242 300.122, 494.870 304.304, 497.309 307.567 C 499.748 310.830, 502.756 315.525, 503.994 318 C 505.231 320.475, 507.743 324.975, 509.575 328 C 511.408 331.025, 513.780 336.691, 514.846 340.592 C 525.049 377.915, 551.709 370.684, 551.285 330.708 C 551.067 310.228, 549.376 306.830, 534.860 297.709 C 531.758 295.761, 528.917 293.675, 528.546 293.074 C 528.175 292.474, 524.774 289.511, 520.989 286.491 C 516.943 283.263, 512.136 278.137, 509.328 274.057 C 506.344 269.721, 502.857 266.061, 500.039 264.307 C 493.624 260.316, 484.435 251.728, 477.813 243.536 C 474.685 239.666, 469.626 233.575, 466.570 230 C 456.706 218.461, 455.029 215.815, 452.493 207.789 C 445.790 186.568, 464.750 172.228, 492.602 177.453 C 500.678 178.968, 503.567 186.587, 498.128 192.026 C 494.964 195.190, 493.641 195.604, 483.730 196.531 C 464.179 198.358, 466.689 212.345, 491.443 239.500 C 496.456 245, 502.483 251.843, 504.836 254.706 C 507.188 257.570, 512.575 262.355, 516.807 265.340 C 521.038 268.325, 525.850 272.209, 527.500 273.971 C 529.150 275.734, 533.596 278.990, 537.380 281.208 C 541.164 283.425, 545.889 286.680, 547.880 288.440 C 553.843 293.711, 558.057 296.520, 567.043 301.216 C 571.741 303.671, 578.266 307.685, 581.543 310.135 C 590.753 317.022, 595.460 320.311, 609.500 329.668 C 616.650 334.433, 625.597 341.231, 629.383 344.774 C 636.790 351.706, 644.541 355.975, 649.750 355.990 C 655.913 356.009, 654.530 350.533, 643.903 332.833 C 642.031 329.716, 639.254 324.991, 637.730 322.333 C 636.207 319.675, 631.831 313.225, 628.005 308 C 624.179 302.775, 618.954 294.538, 616.395 289.695 C 612.781 282.858, 609.515 278.612, 601.782 270.695 C 596.304 265.088, 589.408 256.843, 586.458 252.373 C 583.190 247.422, 577.922 241.383, 572.979 236.920 C 568.517 232.890, 561.342 224.847, 557.037 219.047 C 549.169 208.447, 545.442 204.508, 536.851 197.710 C 528.147 190.823, 510.875 173.676, 509.023 170.082 C 508.007 168.112, 504.435 163.125, 501.084 159 C 491.910 147.705, 489.362 141.816, 487.025 126.500 C 485.935 119.350, 484.170 110.675, 483.104 107.222 C 482.038 103.769, 480.876 99.044, 480.522 96.722 C 478.798 85.422, 472.217 81.320, 460.297 84.114 M 934 83.652 C 925.937 86.308, 925.553 87.777, 926.386 112.821 C 927.194 137.143, 928.291 154.258, 931.009 185 C 940.272 289.739, 939.578 325.233, 927.920 342.958 C 919.349 355.991, 896.317 379.085, 888.399 382.587 C 885.205 384, 880.440 386.957, 877.809 389.160 C 875.178 391.363, 869.700 394.446, 865.636 396.011 C 839.894 405.923, 831.095 413.765, 846.968 412.650 C 850.526 412.400, 857.862 412.612, 863.271 413.121 C 868.680 413.630, 879.945 414.461, 888.303 414.968 C 900.514 415.709, 905.381 416.470, 913.073 418.843 C 949.732 430.151, 960.123 425.475, 954.947 400 C 953.751 394.114, 952.449 382.470, 951.984 373.500 C 951.527 364.700, 950.557 350.075, 949.827 341 C 948.572 325.400, 948.339 255.530, 949.401 213.500 C 952.353 96.674, 952.404 91.266, 950.590 88.497 C 947.774 84.199, 939.592 81.810, 934 83.652 M 73.741 164.429 C 61.391 168.836, 61.377 168.946, 62 258.146 C 62.571 339.927, 62.388 338.679, 72.948 333.028 C 76.342 331.211, 76.494 328.511, 76.997 261 C 77.670 170.751, 63.301 182.500, 173 182.500 C 282.560 182.500, 268.500 171.800, 268.500 255.176 C 268.500 333.974, 274.923 324.839, 219.500 324.867 C 164.957 324.896, 170.663 330.739, 170 274.179 C 169.426 225.182, 169.010 223, 160.240 223 C 152.633 223, 151.859 228.871, 152.204 284 C 152.617 350.189, 145.048 343.500, 219.527 343.500 C 295.980 343.500, 287.500 355.039, 287.500 251 C 287.500 163.808, 287.934 168.771, 279.966 164.752 C 275.311 162.403, 80.272 162.099, 73.741 164.429 M 1164.500 167.206 C 1161.438 168.960, 1149 179.138, 1149 179.889 C 1149 180.254, 1146.502 183.688, 1143.449 187.519 C 1137.922 194.455, 1128.628 212.039, 1125.478 221.521 C 1124.568 224.259, 1122.536 228.815, 1120.962 231.645 C 1119.389 234.474, 1116.940 239.649, 1115.520 243.145 C 1114.100 246.640, 1111.229 251.975, 1109.140 255 C 1107.051 258.025, 1104.324 263.060, 1103.080 266.188 C 1101.045 271.305, 1085.379 296.528, 1080.137 303.128 C 1076.935 307.160, 1070.777 309.527, 1054.455 312.999 C 1038.530 316.386, 1033.490 318.493, 1029.994 323.222 C 1021.140 335.198, 1028.996 343.883, 1047.479 342.553 C 1052.991 342.156, 1064.250 341.516, 1072.500 341.131 C 1094.544 340.101, 1097.047 337.796, 1125.309 292.500 C 1128.398 287.550, 1133.005 280.575, 1135.548 277 C 1140.615 269.876, 1145.091 262.543, 1151.482 250.897 C 1153.777 246.715, 1156.642 241.907, 1157.848 240.213 C 1159.055 238.518, 1160.670 235.354, 1161.437 233.180 C 1168.656 212.719, 1183.646 216.333, 1190.400 240.162 C 1191.283 243.276, 1193.365 248.857, 1195.029 252.564 C 1196.692 256.271, 1198.738 263.398, 1199.576 268.402 C 1200.414 273.406, 1202.442 281.739, 1204.083 286.919 C 1209.683 304.602, 1208.997 310.867, 1201.275 312.556 C 1187.973 315.466, 1182.463 317.273, 1178.425 320.052 C 1162.498 331.009, 1170.104 345.973, 1190.349 343.512 C 1199.896 342.352, 1217.767 342.099, 1225.500 343.014 C 1246.011 345.441, 1244 350.636, 1244 295.225 C 1244 254.222, 1243.770 245.874, 1242.655 246.302 C 1238.324 247.964, 1231.215 241.997, 1227.489 233.572 C 1226.064 230.349, 1223.630 225.864, 1222.081 223.606 C 1220.531 221.348, 1217.613 216.216, 1215.595 212.202 C 1206.698 194.503, 1188.495 174.222, 1175.044 167.023 C 1172.523 165.675, 1167.007 165.770, 1164.500 167.206 M 468.789 300.058 C 466.428 301.435, 465.014 307.196, 464.998 315.500 C 464.991 319.350, 464.567 326.131, 464.057 330.569 C 462.636 342.920, 464.628 348.739, 471.990 353.750 C 488.842 365.220, 495.337 336.029, 481.390 311.500 C 475.218 300.646, 472.311 298.005, 468.789 300.058 M 589.378 342.631 C 588.590 345.772, 591.271 354.885, 594.478 359.965 C 595.715 361.925, 597.975 365.990, 599.500 369 C 603.795 377.476, 630.582 407.727, 636.401 410.674 C 638.105 411.537, 641.975 413.909, 645 415.946 C 657.121 424.107, 672.422 423.605, 669.239 415.151 C 666.963 409.108, 648.642 382.531, 641.560 375 C 638.715 371.975, 633.846 366.529, 630.739 362.897 C 626.501 357.945, 623.267 355.345, 617.795 352.493 C 613.783 350.402, 608.925 347.473, 607 345.983 C 598.435 339.354, 590.575 337.859, 589.378 342.631 M 466.270 372.483 C 457.345 376.362, 448.381 407.694, 454.250 414.497 C 459.850 420.988, 485.803 420.624, 493.406 413.948 C 499.571 408.535, 502.318 388.908, 497.681 383.398 C 491.130 375.612, 473.313 369.421, 466.270 372.483" stroke="none" fill="#96979a" fill-rule="evenodd"/><path d="M 38.500 29.501 C 33.624 31.228, 30.412 34.756, 29.025 39.907 C 28.312 42.555, 28.064 110.408, 28.241 254.141 C 28.533 491.512, 27.718 468.578, 36.035 473.465 C 41.519 476.686, 1230.481 476.686, 1235.965 473.465 C 1243.804 468.859, 1243.466 471.830, 1243.780 404.777 C 1244.060 345.053, 1244.060 345.053, 1241.780 344.605 C 1230.930 342.469, 1203.691 341.891, 1190.349 343.512 C 1170.104 345.973, 1162.498 331.009, 1178.425 320.052 C 1182.463 317.273, 1187.973 315.466, 1201.275 312.556 C 1208.997 310.867, 1209.683 304.602, 1204.083 286.919 C 1202.442 281.739, 1200.414 273.406, 1199.576 268.402 C 1198.738 263.398, 1196.692 256.271, 1195.029 252.564 C 1193.365 248.857, 1191.283 243.276, 1190.400 240.162 C 1183.646 216.333, 1168.656 212.719, 1161.437 233.180 C 1160.670 235.354, 1159.055 238.518, 1157.848 240.213 C 1156.642 241.907, 1153.777 246.715, 1151.482 250.897 C 1145.091 262.543, 1140.615 269.876, 1135.548 277 C 1133.005 280.575, 1128.398 287.550, 1125.309 292.500 C 1097.047 337.796, 1094.544 340.101, 1072.500 341.131 C 1064.250 341.516, 1052.991 342.156, 1047.479 342.553 C 1028.996 343.883, 1021.140 335.198, 1029.994 323.222 C 1033.490 318.493, 1038.530 316.386, 1054.455 312.999 C 1070.777 309.527, 1076.935 307.160, 1080.137 303.128 C 1085.379 296.528, 1101.045 271.305, 1103.080 266.188 C 1104.324 263.060, 1107.051 258.025, 1109.140 255 C 1111.229 251.975, 1114.100 246.640, 1115.520 243.145 C 1116.940 239.649, 1119.389 234.474, 1120.962 231.645 C 1122.536 228.815, 1124.568 224.259, 1125.478 221.521 C 1128.628 212.039, 1137.922 194.455, 1143.449 187.519 C 1146.502 183.688, 1149 180.254, 1149 179.889 C 1149 177.121, 1165.815 166, 1170 166 C 1180.526 166, 1204.668 190.463, 1215.595 212.202 C 1217.613 216.216, 1220.499 221.301, 1222.010 223.503 C 1223.520 225.704, 1226.093 230.429, 1227.727 234.003 C 1231.005 241.171, 1232.856 243.206, 1238.089 245.393 C 1244.427 248.041, 1244.061 254.679, 1243.768 142.430 C 1243.466 26.576, 1244.075 35.300, 1235.965 30.535 C 1231.398 27.853, 46.044 26.829, 38.500 29.501 M 424.230 66.550 C 421.332 67.331, 417.568 68.689, 415.866 69.569 C 409.958 72.624, 404.834 73.956, 393.074 75.490 C 373.038 78.105, 367.721 80.223, 358.154 89.403 C 343.122 103.826, 346.973 116.170, 364.901 111.028 C 372.043 108.980, 405.350 109.436, 409.113 111.634 C 417.496 116.530, 418.144 120.679, 414.950 149 C 412.976 166.500, 414.633 186.090, 419.262 200.006 C 421.184 205.785, 423.292 213.210, 423.945 216.506 C 424.599 219.803, 426.674 225.650, 428.557 229.500 C 445.569 264.277, 451.061 309.500, 443.555 353 C 442.748 357.675, 441.588 366.187, 440.976 371.915 C 440.364 377.643, 438.805 385.743, 437.511 389.915 C 436.217 394.087, 434.386 400.320, 433.443 403.766 C 430.036 416.212, 421.279 420.081, 401.012 418.094 C 377.657 415.804, 362.106 415.536, 355.998 417.317 C 334.422 423.607, 331.548 440.861, 352.767 436.714 C 359.235 435.450, 363.609 435.368, 379.500 436.214 C 403.732 437.504, 580.790 437.850, 583.500 436.613 C 588.500 434.331, 588.344 428.969, 583.134 424.013 C 576.842 418.027, 573.280 417.500, 548.479 418.886 C 519.314 420.516, 515.253 418.606, 516.371 403.782 C 517.572 387.873, 521.569 384.376, 538.073 384.798 C 551.915 385.152, 553.909 384.095, 559.186 373.617 C 564.152 363.754, 567.793 359, 570.379 359 C 573.244 359, 590.192 377.665, 597.165 388.500 C 598.581 390.700, 603.511 396.328, 608.120 401.007 C 653.174 446.745, 675.852 452.438, 690.590 421.710 C 698.991 404.193, 698.748 402.135, 685.057 374.787 C 674.854 354.408, 671.304 348.189, 661.496 333.500 C 658.596 329.157, 654.207 322.234, 641.422 301.838 C 634.046 290.070, 627.752 282.026, 621.877 276.858 C 617.740 273.218, 613.853 268.482, 610.811 263.374 C 605.677 254.751, 598.933 246.486, 592.080 240.415 C 589.649 238.262, 584.995 233.156, 581.739 229.070 C 578.482 224.983, 570.346 216.363, 563.659 209.913 C 556.971 203.464, 547.450 193.583, 542.500 187.956 C 537.550 182.328, 529.225 173.161, 524 167.584 C 515.035 158.015, 514.235 156.798, 509.795 145.972 C 502.909 129.180, 502.640 127.724, 502.521 106.500 C 502.382 81.735, 499.163 72.369, 489.030 67.250 C 483.441 64.426, 434.098 63.894, 424.230 66.550 M 913.467 66.998 C 906.183 70.604, 905.579 72.791, 906.873 90.863 C 907.489 99.464, 908.457 118.875, 909.024 134 C 910.206 165.499, 911.116 180.355, 914.479 223 C 918.985 280.161, 919.276 285.935, 918.791 308.628 C 918.147 338.743, 913.289 349.938, 896.354 360.340 C 893.524 362.078, 888.777 365.144, 885.804 367.153 C 877.241 372.941, 869.096 376.851, 861 379.062 C 856.875 380.188, 850.817 382.698, 847.538 384.638 C 843.616 386.960, 838.543 388.815, 832.713 390.061 C 827.839 391.103, 820.370 393.527, 816.115 395.448 C 806.779 399.664, 799.519 401.411, 782.897 403.444 C 745.960 407.961, 735.730 426.056, 761.813 440.737 C 770.395 445.567, 776.985 445.642, 794.701 441.114 C 801.411 439.399, 811.086 437.557, 816.201 437.021 C 821.315 436.484, 827.975 435.597, 831 435.048 C 851.792 431.273, 876.743 430.375, 889.260 432.951 C 894.474 434.023, 904.536 435.392, 911.620 435.992 C 918.704 436.592, 928.248 437.964, 932.829 439.041 C 948.362 442.694, 956.904 440.198, 965.834 429.397 C 974.640 418.746, 975.012 416.122, 971.593 388.762 C 968.132 361.067, 967.590 344.170, 967.896 273.500 C 968.343 170.483, 969.626 114.331, 972.097 89.647 C 974.374 66.911, 971.776 65, 938.601 65.001 C 919.528 65.002, 917.112 65.193, 913.467 66.998 M 460.297 84.114 C 456.132 85.090, 451 89.687, 451 92.442 C 451 101.666, 435.809 103.160, 434.602 94.054 C 433.664 86.987, 428.692 84.489, 425.440 89.451 C 423.328 92.675, 424.269 95.389, 429.060 99.895 C 435.225 105.692, 436.618 126.813, 432.855 157.434 C 431.533 168.191, 432.129 173.400, 437.036 194 C 441.052 210.854, 441.686 212.607, 446.169 219.230 C 448.302 222.382, 450.326 225.757, 450.667 226.730 C 451.429 228.906, 459.837 244.032, 465.547 253.500 C 467.869 257.350, 470.945 262.847, 472.383 265.715 C 473.822 268.583, 478.388 276.326, 482.532 282.921 C 486.675 289.516, 490.697 296.424, 491.470 298.273 C 492.242 300.122, 494.870 304.304, 497.309 307.567 C 499.748 310.830, 502.756 315.525, 503.994 318 C 505.231 320.475, 507.743 324.975, 509.575 328 C 511.408 331.025, 513.780 336.691, 514.846 340.592 C 525.049 377.915, 551.709 370.684, 551.285 330.708 C 551.067 310.228, 549.376 306.830, 534.860 297.709 C 531.758 295.761, 528.917 293.675, 528.546 293.074 C 528.175 292.474, 524.774 289.511, 520.989 286.491 C 516.943 283.263, 512.136 278.137, 509.328 274.057 C 506.344 269.721, 502.857 266.061, 500.039 264.307 C 493.624 260.316, 484.435 251.728, 477.813 243.536 C 474.685 239.666, 469.626 233.575, 466.570 230 C 456.706 218.461, 455.029 215.815, 452.493 207.789 C 445.790 186.568, 464.750 172.228, 492.602 177.453 C 500.678 178.968, 503.567 186.587, 498.128 192.026 C 494.964 195.190, 493.641 195.604, 483.730 196.531 C 464.179 198.358, 466.689 212.345, 491.443 239.500 C 496.456 245, 502.483 251.843, 504.836 254.706 C 507.188 257.570, 512.575 262.355, 516.807 265.340 C 521.038 268.325, 525.850 272.209, 527.500 273.971 C 529.150 275.734, 533.596 278.990, 537.380 281.208 C 541.164 283.425, 545.889 286.680, 547.880 288.440 C 553.843 293.711, 558.057 296.520, 567.043 301.216 C 571.741 303.671, 578.266 307.685, 581.543 310.135 C 590.753 317.022, 595.460 320.311, 609.500 329.668 C 616.650 334.433, 625.597 341.231, 629.383 344.774 C 636.790 351.706, 644.541 355.975, 649.750 355.990 C 655.913 356.009, 654.530 350.533, 643.903 332.833 C 642.031 329.716, 639.254 324.991, 637.730 322.333 C 636.207 319.675, 631.831 313.225, 628.005 308 C 624.179 302.775, 618.954 294.538, 616.395 289.695 C 612.781 282.858, 609.515 278.612, 601.782 270.695 C 596.304 265.088, 589.408 256.843, 586.458 252.373 C 583.190 247.422, 577.922 241.383, 572.979 236.920 C 568.517 232.890, 561.342 224.847, 557.037 219.047 C 549.169 208.447, 545.442 204.508, 536.851 197.710 C 528.147 190.823, 510.875 173.676, 509.023 170.082 C 508.007 168.112, 504.435 163.125, 501.084 159 C 491.910 147.705, 489.362 141.816, 487.025 126.500 C 485.935 119.350, 484.170 110.675, 483.104 107.222 C 482.038 103.769, 480.876 99.044, 480.522 96.722 C 478.798 85.422, 472.217 81.320, 460.297 84.114 M 934 83.652 C 925.937 86.308, 925.553 87.777, 926.386 112.821 C 927.194 137.143, 928.291 154.258, 931.009 185 C 940.272 289.739, 939.578 325.233, 927.920 342.958 C 919.349 355.991, 896.317 379.085, 888.399 382.587 C 885.205 384, 880.440 386.957, 877.809 389.160 C 875.178 391.363, 869.700 394.446, 865.636 396.011 C 839.894 405.923, 831.095 413.765, 846.968 412.650 C 850.526 412.400, 857.862 412.612, 863.271 413.121 C 868.680 413.630, 879.945 414.461, 888.303 414.968 C 900.514 415.709, 905.381 416.470, 913.073 418.843 C 949.732 430.151, 960.123 425.475, 954.947 400 C 953.751 394.114, 952.449 382.470, 951.984 373.500 C 951.527 364.700, 950.557 350.075, 949.827 341 C 948.572 325.400, 948.339 255.530, 949.401 213.500 C 952.353 96.674, 952.404 91.266, 950.590 88.497 C 947.774 84.199, 939.592 81.810, 934 83.652 M 73.741 164.429 C 61.391 168.836, 61.377 168.946, 62 258.146 C 62.571 339.927, 62.388 338.679, 72.948 333.028 C 76.342 331.211, 76.494 328.511, 76.997 261 C 77.670 170.751, 63.301 182.500, 173 182.500 C 282.560 182.500, 268.500 171.800, 268.500 255.176 C 268.500 333.974, 274.923 324.839, 219.500 324.867 C 164.957 324.896, 170.663 330.739, 170 274.179 C 169.426 225.182, 169.010 223, 160.240 223 C 152.633 223, 151.859 228.871, 152.204 284 C 152.617 350.189, 145.048 343.500, 219.527 343.500 C 295.980 343.500, 287.500 355.039, 287.500 251 C 287.500 163.808, 287.934 168.771, 279.966 164.752 C 275.311 162.403, 80.272 162.099, 73.741 164.429 M 468.789 300.058 C 466.428 301.435, 465.014 307.196, 464.998 315.500 C 464.991 319.350, 464.567 326.131, 464.057 330.569 C 462.636 342.920, 464.628 348.739, 471.990 353.750 C 488.842 365.220, 495.337 336.029, 481.390 311.500 C 475.218 300.646, 472.311 298.005, 468.789 300.058 M 589.378 342.631 C 588.590 345.772, 591.271 354.885, 594.478 359.965 C 595.715 361.925, 597.975 365.990, 599.500 369 C 603.795 377.476, 630.582 407.727, 636.401 410.674 C 638.105 411.537, 641.975 413.909, 645 415.946 C 657.121 424.107, 672.422 423.605, 669.239 415.151 C 666.963 409.108, 648.642 382.531, 641.560 375 C 638.715 371.975, 633.846 366.529, 630.739 362.897 C 626.501 357.945, 623.267 355.345, 617.795 352.493 C 613.783 350.402, 608.925 347.473, 607 345.983 C 598.435 339.354, 590.575 337.859, 589.378 342.631 M 466.270 372.483 C 457.345 376.362, 448.381 407.694, 454.250 414.497 C 459.850 420.988, 485.803 420.624, 493.406 413.948 C 499.571 408.535, 502.318 388.908, 497.681 383.398 C 491.130 375.612, 473.313 369.421, 466.270 372.483" stroke="none" fill="#f3f3f3" fill-rule="evenodd"/></svg>