<svg xmlns="http://www.w3.org/2000/svg" width="697" height="1272" viewBox="0 0 697 1272" version="1.1"><path d="M 28 73.477 C 28 87.955, 28 87.955, 152.250 88.227 C 276.500 88.500, 276.500 88.500, 281.166 90.656 C 293.234 96.234, 290.555 104.425, 273.933 112.769 C 266.658 116.421, 266.423 116.658, 262.883 123.934 C 259.102 131.704, 255.398 135.651, 247.584 140.236 C 243.530 142.615, 242.420 144.050, 239.082 151.236 C 234.996 160.033, 231.453 163.996, 223.764 168.372 C 220.710 170.110, 217.639 173.097, 215.115 176.784 C 210.779 183.116, 206.781 187.093, 199.937 191.879 C 197.428 193.634, 193.742 197.257, 191.747 199.930 C 187.857 205.139, 184.580 206.784, 173.687 208.993 C 161.727 211.418, 158.831 217.039, 159.092 237.321 C 159.219 247.230, 158.852 250.778, 157.124 256.355 C 153.988 266.478, 154.329 273.304, 158.626 286.427 C 165.315 306.851, 165.975 307.767, 176.039 310.591 C 182.862 312.505, 185.236 314.751, 189.419 323.245 C 193.153 330.826, 194.476 331.573, 213.006 336.570 C 228.851 340.843, 229.655 341.468, 233.473 352.500 C 238.382 366.680, 243.678 374.830, 251.343 380 C 259.190 385.292, 260.005 386.364, 262.927 395.222 C 265.458 402.894, 268.768 406.331, 275.295 408.063 C 281.624 409.743, 283.618 412.185, 285.475 420.534 C 287.881 431.346, 293.428 435.995, 303.932 436.002 C 309.701 436.005, 313.231 439.052, 315.515 446 C 317.385 451.689, 318.384 453.093, 323.523 457.247 C 333.730 465.500, 333.528 464.776, 333.321 492.370 C 333.117 519.685, 331.544 545.754, 329.573 554.500 C 328.829 557.800, 327.629 563.083, 326.906 566.240 C 325.331 573.118, 325.890 574.452, 337.285 591 C 351.847 612.147, 410.909 613.502, 429.095 593.106 C 440.560 580.249, 440.373 581.746, 437.635 524.547 C 434.908 467.568, 435.082 466.274, 446.522 458.453 C 454.010 453.335, 455.784 450.257, 456.611 440.952 C 457.442 431.587, 457.613 431.395, 465.820 430.586 C 475.333 429.649, 478.322 427.565, 481.106 419.931 C 483.703 412.808, 487.955 408.132, 495.959 403.594 C 500.422 401.064, 502.084 399.315, 505.069 394 C 509.573 385.984, 515.533 379.186, 523.654 372.805 C 531 367.031, 535.520 360.605, 537.569 353.020 C 538.390 349.984, 539.522 345.791, 540.085 343.702 C 541.473 338.553, 545.087 336.571, 556.850 334.506 C 576.205 331.109, 578.376 329.940, 581.629 321.163 C 584.456 313.538, 586.828 310.951, 593.917 307.763 C 603.075 303.644, 604.681 301.845, 607.496 292.548 C 617.962 257.980, 613.155 216.981, 598.180 213.087 C 595.881 212.489, 592.104 211.507, 589.786 210.904 C 585.623 209.821, 581.508 206.246, 576.066 198.987 C 574.728 197.201, 571.128 194.165, 568.066 192.239 C 551.610 181.888, 539.965 169.670, 531.623 154 C 527.891 146.990, 526.698 145.621, 520 140.657 C 512.838 135.350, 511.436 133.692, 508.025 126.500 C 504.651 119.386, 501.427 116.167, 494 112.497 C 475.158 103.187, 472.949 96.412, 486.915 90.760 C 492.500 88.500, 492.500 88.500, 580.750 88.209 C 669 87.918, 669 87.918, 669 73.459 C 669 59, 669 59, 348.500 59 C 28 59, 28 59, 28 73.477 M 320.479 134.801 C 314.701 136.799, 311.625 138.864, 301.117 147.794 C 291.414 156.040, 288.791 159.696, 285.632 169.379 C 282.153 180.041, 280.835 181.747, 273.509 185.068 C 266.128 188.415, 263.674 191.171, 261.542 198.504 C 259.532 205.419, 256.095 209.415, 249.117 212.954 C 243.296 215.906, 241.213 218.487, 238.990 225.500 C 235.242 237.327, 224.487 241.156, 209.500 236 C 190.526 229.472, 177.207 241.480, 183.352 259.575 C 184.646 263.384, 186.019 268.750, 186.405 271.500 C 188.326 285.208, 191.950 289.914, 204.135 294.523 C 225.920 302.763, 234.364 308.891, 240.432 320.866 C 242.154 324.263, 244.506 327.009, 247.214 328.784 C 256.971 335.175, 259.320 338.899, 261.979 352.189 C 263.372 359.153, 265.761 362.339, 271.943 365.471 C 277.667 368.372, 278.904 370.154, 282.375 380.500 C 287.528 395.863, 290.390 399.912, 299.500 404.735 C 308.611 409.559, 314.113 414.983, 318.784 423.746 C 323.679 432.930, 327.440 434.106, 358.265 436.086 C 403.043 438.963, 455.003 433.895, 457.270 426.429 C 457.759 424.818, 459.453 420.125, 461.035 416 C 462.616 411.875, 464.577 405.860, 465.391 402.633 C 467.235 395.324, 469.577 392.787, 476.969 390.092 C 483.710 387.634, 485.029 385.976, 487.890 376.370 C 490.218 368.552, 492.348 366.055, 499.186 363.131 C 505.282 360.523, 506.562 358.370, 508.887 346.813 C 509.950 341.529, 511.376 336.147, 512.055 334.853 C 515.289 328.695, 519.911 323.623, 526.118 319.420 C 529.854 316.891, 536.727 310.801, 541.391 305.886 C 550.745 296.031, 552.974 294.763, 566.744 291.457 C 581.924 287.813, 583.408 286.114, 585.603 269.876 C 589.886 238.189, 583.868 228.302, 564.407 235.047 C 546.898 241.116, 540.251 239.258, 524.930 224.012 C 512.510 211.653, 511.132 209.700, 508.546 200.808 C 506.333 193.193, 503.935 190.439, 496.435 186.896 C 489.420 183.581, 487.117 180.685, 484.989 172.500 C 482.937 164.609, 481.297 161.944, 474.173 154.929 C 470.503 151.314, 465.475 146.124, 463 143.395 C 453.937 133.401, 436.918 130.459, 412 134.579 C 398.502 136.810, 367.925 136.852, 358.185 134.652 C 348.022 132.357, 327.311 132.439, 320.479 134.801 M 305.685 218.933 C 301.386 220.485, 295.883 223.181, 293.456 224.924 C 287.711 229.050, 281.919 231.523, 274.500 233.019 C 261.418 235.656, 256.148 242.409, 258.976 252.912 C 260.820 259.759, 264.708 262.038, 279.263 264.805 C 282.433 265.407, 288.733 267.575, 293.263 269.622 C 307.032 275.845, 319.776 275.856, 328.794 269.653 C 333.817 266.198, 337.624 264.514, 343.961 262.942 C 366.104 257.452, 366.860 239.555, 345.245 232.541 C 339.887 230.803, 335.370 227.128, 332.392 222.086 C 328.353 215.249, 318.962 214.140, 305.685 218.933 M 441.915 217.422 C 440.494 218.230, 437.600 221.003, 435.484 223.585 C 432.690 226.995, 429.704 229.166, 424.569 231.522 C 406.277 239.912, 405.924 259.769, 424 263.508 C 430.319 264.815, 435.657 266.939, 441.564 270.497 C 449.700 275.396, 463.271 274.781, 478.426 268.826 C 481.136 267.761, 487.575 266.041, 492.735 265.003 C 507.597 262.013, 512 257.974, 512 247.331 C 512 236.915, 508.927 234.055, 495.607 232.073 C 489.650 231.187, 485.368 229.832, 480.856 227.406 C 460.377 216.392, 448.903 213.450, 441.915 217.422 M 370.500 334.666 C 348.225 337.382, 339.414 340.509, 333.172 347.911 C 330.797 350.728, 326.524 354.539, 323.677 356.380 C 308.675 366.083, 307.654 381.591, 321.756 385.567 C 339.952 390.697, 356.035 396.431, 360.500 399.381 C 373.429 407.922, 397.076 408.124, 407.797 399.786 C 415.227 394.007, 414.891 394.180, 423.079 391.911 C 430.042 389.981, 443.944 383.557, 449.212 379.834 C 455.042 375.714, 453.611 368.028, 445.873 361.900 C 443.571 360.076, 439.321 354.917, 436.430 350.435 C 430.274 340.893, 428.921 340.147, 411 336.412 C 400.075 334.136, 381.437 333.332, 370.500 334.666 M 370.190 488.950 C 364.112 492.794, 362.399 502.791, 361.760 538.143 C 361.294 563.882, 377.903 576.206, 398.499 565.403 C 409.603 559.579, 412.688 503.588, 402.510 492.606 C 397.785 487.507, 376.310 485.078, 370.190 488.950 M 366.004 641.842 C 362.880 644.966, 361.837 648.119, 359.539 661.381 C 357.585 672.656, 357.165 1118.009, 359.100 1127.030 C 363.589 1147.961, 385.475 1144.023, 388.028 1121.825 C 389.233 1111.342, 389.259 684.531, 388.055 670.500 C 385.710 643.169, 376.564 631.283, 366.004 641.842" stroke="none" fill="#6a6b6f" fill-rule="evenodd"/><path d="M 38.500 29.500 C 30.809 32.227, 28.015 38.018, 28.006 51.250 C 28 59, 28 59, 348.616 59 C 669.233 59, 669.233 59, 668.840 49.225 C 668.390 38.013, 666.645 33.872, 660.965 30.535 C 656.393 27.850, 46.016 26.834, 38.500 29.500 M 28.247 660.227 C 28.500 1232.500, 28.500 1232.500, 30.535 1235.965 C 35.464 1244.354, -0.558 1243.500, 348.500 1243.500 C 697.558 1243.500, 661.536 1244.354, 666.465 1235.965 C 789.128 1027.168, 633.043 31.626, 486.915 90.760 C 472.949 96.412, 475.158 103.187, 494 112.497 C 501.427 116.167, 504.651 119.386, 508.025 126.500 C 511.436 133.692, 512.838 135.350, 520 140.657 C 526.698 145.621, 527.891 146.990, 531.623 154 C 539.965 169.670, 551.610 181.888, 568.066 192.239 C 571.128 194.165, 574.728 197.201, 576.066 198.987 C 581.380 206.077, 585.642 209.826, 589.536 210.837 C 591.716 211.402, 595.494 212.385, 597.930 213.020 C 613.159 216.988, 618.053 257.679, 607.496 292.548 C 604.681 301.845, 603.075 303.644, 593.917 307.763 C 586.828 310.951, 584.456 313.538, 581.629 321.163 C 578.376 329.940, 576.205 331.109, 556.850 334.506 C 545.087 336.571, 541.473 338.553, 540.085 343.702 C 539.522 345.791, 538.390 349.984, 537.569 353.020 C 535.520 360.605, 531 367.031, 523.654 372.805 C 515.533 379.186, 509.573 385.984, 505.069 394 C 502.084 399.315, 500.422 401.064, 495.959 403.594 C 487.955 408.132, 483.703 412.808, 481.106 419.931 C 478.322 427.565, 475.333 429.649, 465.820 430.586 C 457.613 431.395, 457.442 431.587, 456.611 440.952 C 455.784 450.257, 454.010 453.335, 446.522 458.453 C 435.082 466.274, 434.908 467.568, 437.635 524.547 C 440.373 581.746, 440.560 580.249, 429.095 593.106 C 410.909 613.502, 351.847 612.147, 337.285 591 C 325.890 574.452, 325.331 573.118, 326.906 566.240 C 327.629 563.083, 328.829 557.800, 329.573 554.500 C 331.544 545.754, 333.117 519.685, 333.321 492.370 C 333.528 464.776, 333.730 465.500, 323.523 457.247 C 318.384 453.093, 317.385 451.689, 315.515 446 C 313.231 439.052, 309.701 436.005, 303.932 436.002 C 293.428 435.995, 287.881 431.346, 285.475 420.534 C 283.618 412.185, 281.624 409.743, 275.295 408.063 C 268.768 406.331, 265.458 402.894, 262.927 395.222 C 260.005 386.364, 259.190 385.292, 251.343 380 C 243.678 374.830, 238.382 366.680, 233.473 352.500 C 229.655 341.468, 228.851 340.843, 213.006 336.570 C 194.476 331.573, 193.153 330.826, 189.419 323.245 C 185.236 314.751, 182.862 312.505, 176.039 310.591 C 165.975 307.767, 165.315 306.851, 158.626 286.427 C 154.329 273.304, 153.988 266.478, 157.124 256.355 C 158.852 250.778, 159.219 247.230, 159.092 237.321 C 158.831 217.039, 161.727 211.418, 173.687 208.993 C 184.580 206.784, 187.857 205.139, 191.747 199.930 C 193.742 197.257, 197.428 193.634, 199.937 191.879 C 206.781 187.093, 210.779 183.116, 215.115 176.784 C 217.639 173.097, 220.710 170.110, 223.764 168.372 C 231.453 163.996, 234.996 160.033, 239.082 151.236 C 242.420 144.050, 243.530 142.615, 247.584 140.236 C 255.398 135.651, 259.102 131.704, 262.883 123.934 C 266.423 116.658, 266.658 116.421, 273.933 112.769 C 290.555 104.425, 293.234 96.234, 281.166 90.656 C 68.762 -7.516, 27.991 84.299, 28.247 660.227 M 320.479 134.801 C 314.701 136.799, 311.625 138.864, 301.117 147.794 C 291.414 156.040, 288.791 159.696, 285.632 169.379 C 282.153 180.041, 280.835 181.747, 273.509 185.068 C 266.128 188.415, 263.674 191.171, 261.542 198.504 C 259.532 205.419, 256.095 209.415, 249.117 212.954 C 243.296 215.906, 241.213 218.487, 238.990 225.500 C 235.242 237.327, 224.487 241.156, 209.500 236 C 190.526 229.472, 177.207 241.480, 183.352 259.575 C 184.646 263.384, 186.019 268.750, 186.405 271.500 C 188.326 285.208, 191.950 289.914, 204.135 294.523 C 225.920 302.763, 234.364 308.891, 240.432 320.866 C 242.154 324.263, 244.506 327.009, 247.214 328.784 C 256.971 335.175, 259.320 338.899, 261.979 352.189 C 263.372 359.153, 265.761 362.339, 271.943 365.471 C 277.667 368.372, 278.904 370.154, 282.375 380.500 C 287.528 395.863, 290.390 399.912, 299.500 404.735 C 308.611 409.559, 314.113 414.983, 318.784 423.746 C 323.679 432.930, 327.440 434.106, 358.265 436.086 C 403.043 438.963, 455.003 433.895, 457.270 426.429 C 457.759 424.818, 459.453 420.125, 461.035 416 C 462.616 411.875, 464.577 405.860, 465.391 402.633 C 467.235 395.324, 469.577 392.787, 476.969 390.092 C 483.710 387.634, 485.029 385.976, 487.890 376.370 C 490.218 368.552, 492.348 366.055, 499.186 363.131 C 505.282 360.523, 506.562 358.370, 508.887 346.813 C 509.950 341.529, 511.376 336.147, 512.055 334.853 C 515.289 328.695, 519.911 323.623, 526.118 319.420 C 529.854 316.891, 536.727 310.801, 541.391 305.886 C 550.745 296.031, 552.974 294.763, 566.744 291.457 C 581.924 287.813, 583.408 286.114, 585.603 269.876 C 589.886 238.189, 583.868 228.302, 564.407 235.047 C 546.898 241.116, 540.251 239.258, 524.930 224.012 C 512.510 211.653, 511.132 209.700, 508.546 200.808 C 506.333 193.193, 503.935 190.439, 496.435 186.896 C 489.420 183.581, 487.117 180.685, 484.989 172.500 C 482.937 164.609, 481.297 161.944, 474.173 154.929 C 470.503 151.314, 465.475 146.124, 463 143.395 C 453.937 133.401, 436.918 130.459, 412 134.579 C 398.502 136.810, 367.925 136.852, 358.185 134.652 C 348.022 132.357, 327.311 132.439, 320.479 134.801 M 305.685 218.933 C 301.386 220.485, 295.883 223.181, 293.456 224.924 C 287.711 229.050, 281.919 231.523, 274.500 233.019 C 261.418 235.656, 256.148 242.409, 258.976 252.912 C 260.820 259.759, 264.708 262.038, 279.263 264.805 C 282.433 265.407, 288.733 267.575, 293.263 269.622 C 307.032 275.845, 319.776 275.856, 328.794 269.653 C 333.817 266.198, 337.624 264.514, 343.961 262.942 C 366.104 257.452, 366.860 239.555, 345.245 232.541 C 339.887 230.803, 335.370 227.128, 332.392 222.086 C 328.353 215.249, 318.962 214.140, 305.685 218.933 M 441.915 217.422 C 440.494 218.230, 437.600 221.003, 435.484 223.585 C 432.690 226.995, 429.704 229.166, 424.569 231.522 C 406.277 239.912, 405.924 259.769, 424 263.508 C 430.319 264.815, 435.657 266.939, 441.564 270.497 C 449.700 275.396, 463.271 274.781, 478.426 268.826 C 481.136 267.761, 487.575 266.041, 492.735 265.003 C 507.597 262.013, 512 257.974, 512 247.331 C 512 236.915, 508.927 234.055, 495.607 232.073 C 489.650 231.187, 485.368 229.832, 480.856 227.406 C 460.377 216.392, 448.903 213.450, 441.915 217.422 M 370.500 334.666 C 348.225 337.382, 339.414 340.509, 333.172 347.911 C 330.797 350.728, 326.524 354.539, 323.677 356.380 C 308.675 366.083, 307.654 381.591, 321.756 385.567 C 339.952 390.697, 356.035 396.431, 360.500 399.381 C 373.429 407.922, 397.076 408.124, 407.797 399.786 C 415.227 394.007, 414.891 394.180, 423.079 391.911 C 430.042 389.981, 443.944 383.557, 449.212 379.834 C 455.042 375.714, 453.611 368.028, 445.873 361.900 C 443.571 360.076, 439.321 354.917, 436.430 350.435 C 430.274 340.893, 428.921 340.147, 411 336.412 C 400.075 334.136, 381.437 333.332, 370.500 334.666 M 370.190 488.950 C 364.112 492.794, 362.399 502.791, 361.760 538.143 C 361.294 563.882, 377.903 576.206, 398.499 565.403 C 409.603 559.579, 412.688 503.588, 402.510 492.606 C 397.785 487.507, 376.310 485.078, 370.190 488.950 M 366.004 641.842 C 362.880 644.966, 361.837 648.119, 359.539 661.381 C 357.585 672.656, 357.165 1118.009, 359.100 1127.030 C 363.589 1147.961, 385.475 1144.023, 388.028 1121.825 C 389.233 1111.342, 389.259 684.531, 388.055 670.500 C 385.710 643.169, 376.564 631.283, 366.004 641.842" stroke="none" fill="#f3f3f4" fill-rule="evenodd"/></svg>