<svg xmlns="http://www.w3.org/2000/svg" width="1064" height="1272" viewBox="0 0 1064 1272" version="1.1"><path d="M 307.500 85.042 C 237.797 86.102, 220.039 89.282, 220.004 100.712 C 219.990 105.319, 215.151 114.002, 208.942 120.561 C 197.206 132.961, 194.365 140.939, 192.940 165.500 C 192.398 174.850, 191.515 185.794, 190.977 189.820 C 188.927 205.189, 188.750 225.433, 190.422 253.500 C 192.829 293.908, 192.879 294.098, 203.969 304.922 C 211.510 312.283, 215.696 320.670, 218.515 334.069 C 220.546 343.728, 223.270 348.232, 229.636 352.459 C 236.114 356.760, 236.512 357.513, 242.951 377.647 C 248.512 395.034, 249.149 396.030, 257.267 400 C 264.023 403.304, 265.667 405.857, 267.568 416 C 270.077 429.384, 274.676 436.745, 286.822 446.818 C 292.848 451.815, 295.274 456.060, 297.438 465.388 C 299.634 474.859, 301.352 477.611, 307.543 481.571 C 318.382 488.504, 326.097 526.028, 323.150 557.478 C 321.701 572.941, 323.520 714.832, 325.509 741.500 C 327.220 764.433, 327.401 780.867, 326.038 789.500 C 325.517 792.800, 324.379 805.625, 323.510 818 C 320.619 859.141, 318.918 867.097, 312.144 871.146 C 305.941 874.853, 303.999 877.182, 298.919 887 C 293.336 897.792, 285.336 909.078, 281.478 911.607 C 278.440 913.597, 257.658 915.155, 210.500 916.928 C 167.107 918.559, 124.052 922.116, 118.225 924.550 C 108.763 928.504, 105.858 932.627, 102.953 946.221 C 100.071 959.704, 101.067 962.927, 105.982 956.025 C 109.581 950.971, 111.419 950.828, 178.488 950.386 C 212.595 950.161, 249.725 949.580, 261 949.096 C 277.338 948.394, 284.241 948.524, 295 949.736 C 305.750 950.946, 311.250 951.050, 322 950.247 C 329.640 949.676, 337.887 949.595, 341 950.061 C 344.025 950.514, 352.700 951.810, 360.277 952.941 C 374.469 955.059, 379.514 956.722, 394.289 964.147 C 417.935 976.031, 463.064 976.572, 471.681 965.075 C 472.330 964.209, 473.571 961.025, 474.438 958 C 476.847 949.594, 479.997 944.850, 485.522 941.308 C 503.945 929.496, 508.551 916.407, 507.802 878 C 506.705 821.751, 508.707 814.066, 523.490 817.780 C 552.246 825.005, 551.640 824.712, 556.426 833.688 C 564.531 848.889, 579.670 847.794, 587.430 831.446 C 590.675 824.608, 591.577 823.566, 597.412 819.907 C 606.233 814.377, 607.171 812.128, 608.203 794.055 C 609.968 763.145, 627.983 749.818, 632.960 775.740 C 635.881 790.954, 637.424 793.689, 647.028 800.678 C 654.330 805.991, 658.605 813.939, 662.007 828.530 C 664.481 839.141, 666.495 842.143, 673.300 845.362 C 680.613 848.821, 681.799 850.500, 684.453 861.145 C 689.087 879.727, 694.285 888.594, 703.178 893.087 C 709.387 896.224, 711.573 898.664, 712.957 904 C 713.457 905.925, 714.357 909.392, 714.959 911.705 C 716.393 917.218, 720.170 921.581, 724.783 923.051 C 734.760 926.231, 735.296 926.824, 738.431 938.144 C 740.468 945.498, 744.622 949.207, 753.928 951.979 C 761.627 954.271, 764.216 956.651, 766.194 963.252 C 768.978 972.545, 773.616 974.510, 795 975.455 C 802.975 975.808, 813.325 976.718, 818 977.478 C 822.675 978.238, 829.875 979.145, 834 979.494 C 853.791 981.168, 866.826 984.504, 873.553 989.617 C 885.764 998.896, 929.247 1004.932, 941.424 999.037 C 949.007 995.366, 954.164 976.517, 952.599 958.193 C 950.180 929.879, 950.451 928.109, 958.595 918.982 C 966.144 910.522, 966.829 907.534, 964.021 895.316 C 960.635 880.586, 957.238 875.682, 943.216 865.277 C 939.210 862.304, 933.713 857.047, 931.001 853.596 C 925.518 846.619, 921.246 843.343, 912.833 839.663 C 906.524 836.903, 904.913 834.968, 902.088 826.755 C 897.739 814.116, 890.127 801.216, 884.368 796.727 C 877.790 791.599, 875.598 787.316, 873.593 775.670 C 869.881 754.117, 866.333 746.894, 857.018 741.929 C 850.202 738.296, 848.775 735.930, 847.036 725.381 C 845.258 714.590, 837.970 700.655, 831.408 695.500 C 824.269 689.892, 822.185 686.469, 820.480 677.557 C 817.945 664.309, 814.925 660.289, 804.623 656.449 C 798.123 654.026, 796.780 651.543, 792.626 634.256 C 788.549 617.294, 787.771 615.923, 780 612 C 772.705 608.317, 771.480 606.533, 769.426 596.602 C 766.739 583.611, 764.196 579.265, 754.708 571.455 C 747.618 565.618, 743.570 559.111, 740.870 549.214 C 737.641 537.381, 736.821 536.260, 728.659 532.541 C 719.735 528.474, 719.287 527.927, 717.436 518.860 C 715.065 507.240, 712.582 503.290, 703.979 497.452 C 695.994 492.034, 690.131 483.013, 686.461 470.500 C 684.104 462.466, 681.656 459.360, 675.054 456.027 C 667.872 452.402, 666.195 450.095, 664.353 441.310 C 662.146 430.779, 659.584 427.063, 651.987 423.377 C 643.638 419.325, 642.529 418.102, 639.956 410.123 C 638.010 404.086, 630.852 389.906, 627.697 385.838 C 626.989 384.925, 623.653 382.562, 620.286 380.588 C 613.240 376.459, 610.832 373.078, 608.503 364.044 C 605.698 353.166, 603.877 350.873, 595.706 347.932 C 590.105 345.916, 588.308 343.741, 586.054 336.251 C 583.288 327.057, 581.213 324.251, 573.292 318.985 C 567.860 315.374, 565.891 313.326, 563.457 308.756 C 558.201 298.885, 554.428 296.068, 542.409 293.039 C 537.351 291.765, 535.735 289.969, 533.518 283.159 C 530.903 275.129, 527.081 271.386, 518.985 268.927 C 511.105 266.533, 509.746 265.302, 507.476 258.500 C 504.870 250.687, 501.164 247.528, 491.628 244.989 C 480.914 242.137, 479.582 241.152, 475.697 233.224 C 472.310 226.312, 471.586 225.700, 461.535 221.254 C 453.144 217.542, 453.058 217.129, 453.049 180.645 C 453.036 127.398, 451.351 100.543, 447.734 95.925 C 441.256 87.655, 411.127 83.655, 360 84.275 C 354.225 84.346, 330.600 84.690, 307.500 85.042 M 255.500 116.874 C 248.300 118.743, 246.247 121.264, 243.997 131 C 242.252 138.551, 238.888 144.983, 231.395 155.098 C 221.020 169.102, 221.489 166.774, 221.850 202.500 C 222.032 220.570, 221.686 238.719, 221.018 246.012 C 219.135 266.609, 223.328 280.755, 234.080 290.069 C 241.732 296.699, 243.557 300.838, 245.508 316 C 248.538 339.535, 248.766 340.032, 258.537 344.485 C 266.987 348.336, 269.287 351.176, 271.090 359.982 C 273.774 373.089, 274.971 376.012, 279.209 379.809 C 292.801 391.990, 296.917 398.573, 300.022 413.105 C 302.254 423.549, 303.458 425.315, 310.500 428.482 C 317.321 431.548, 319.655 434.427, 321.487 442.025 C 327.826 468.325, 328.509 469.763, 336.433 473.512 C 343.944 477.065, 347.128 481.277, 350.292 491.846 C 353.051 501.064, 355.677 504.787, 361.479 507.705 C 370.047 512.013, 374.805 521.784, 378.334 542.309 C 380.195 553.137, 381.503 555.215, 388.770 558.887 C 396.664 562.875, 397.719 564.347, 401.137 576.158 C 407.141 596.899, 408.230 598.726, 418.500 605.300 C 424.764 609.309, 427.567 614.666, 429.066 625.489 C 430.582 636.431, 431.949 639.161, 438.242 643.810 C 449.111 651.839, 454.249 661.013, 456.585 676.567 C 458.252 687.665, 459.857 690.989, 464.918 693.834 C 472.701 698.208, 478.880 709.608, 481.833 725.040 C 484.092 736.845, 485.654 739.842, 491.964 744.474 C 494.877 746.612, 499.196 751.383, 502.244 755.831 C 506.283 761.724, 509.119 764.583, 514.492 768.179 C 521.661 772.977, 524.992 776.301, 528.500 782.160 C 532.050 788.089, 536.368 789.367, 554.441 789.835 C 581.823 790.545, 582.053 790.038, 579.983 733.500 C 579.089 709.084, 594.259 686.644, 603.840 698.211 C 611.326 707.248, 613.307 708.671, 622.167 711.372 C 633.128 714.713, 639 721.832, 639 731.780 C 639 735.886, 642.468 740.207, 648.007 743.004 C 656.764 747.424, 663.473 760.227, 667.440 780.088 C 668.255 784.168, 671.487 787.514, 677.416 790.415 C 684.225 793.747, 686.317 796.994, 688.963 808.340 C 691.830 820.637, 694.711 825.703, 703.051 833.115 C 712.146 841.198, 714.500 845.320, 716.935 857.425 C 719.111 868.244, 720.255 870.072, 727 873.509 C 735.171 877.673, 735.563 878.515, 744.022 910.087 C 745.313 914.909, 747.223 916.349, 755.663 918.867 C 763.872 921.317, 771.033 926.435, 776.075 933.455 C 782.822 942.850, 793.507 945.971, 819 945.991 C 838.757 946.007, 863.583 948.033, 873.647 950.452 C 877.028 951.264, 882.878 952.407, 886.647 952.992 C 890.416 953.577, 896.585 954.995, 900.356 956.144 C 910.802 959.326, 916.835 952.635, 915.744 939.079 C 915.274 933.241, 914.873 932.742, 905 925.679 C 898.634 921.125, 897.185 917.343, 893.988 896.925 C 890.884 877.101, 890.219 875.479, 883.228 870.682 C 875.246 865.203, 874.270 863.588, 868.975 847.093 C 862.391 826.582, 862.935 827.426, 853.348 822.871 C 844.696 818.760, 841.399 815.681, 837.544 808.107 C 834.726 802.572, 832.347 800.340, 824.685 796.041 C 821.135 794.050, 814.072 788.009, 806.555 780.535 C 798.412 772.439, 791.575 766.658, 786.370 763.468 C 776.178 757.221, 775.414 756.532, 772.257 750.731 C 769.140 745.004, 764.604 742.092, 754.859 739.561 C 746.881 737.490, 743.765 734.619, 741.172 726.954 C 738.928 720.317, 735.613 717.774, 726.996 716.079 C 719.306 714.566, 714.226 710.310, 711.689 703.255 C 708.854 695.372, 707.704 694.337, 698.732 691.589 C 688.752 688.532, 684.438 685.174, 680.145 677.121 C 676.158 669.641, 674.794 668.569, 659.111 660.594 C 645.594 653.721, 644.823 653.101, 640.590 645.687 C 637.341 639.998, 633.937 637.704, 624.558 634.887 C 618.035 632.927, 612 628.574, 612 625.830 C 612 618.909, 605.856 612.806, 596.971 610.900 C 589.983 609.402, 585.600 605.351, 582.873 597.871 C 580.190 590.515, 577.954 588.694, 568.859 586.465 C 559.880 584.265, 556.674 581.483, 552.051 571.877 C 548.500 564.500, 548.500 564.500, 541.445 561.932 C 531.969 558.483, 526.863 554.781, 517.774 544.770 C 509.820 536.009, 503.642 531.911, 493.368 528.581 C 487.273 526.605, 485.611 524.934, 481.559 516.711 C 478.178 509.847, 475.884 508.225, 465.647 505.463 C 458.064 503.417, 455.632 500.837, 453.019 492.065 C 450.429 483.369, 448.880 481.688, 441.460 479.531 C 431.800 476.723, 428.900 473.799, 427.510 465.465 C 426.022 456.544, 424.456 454.978, 415.535 453.490 C 406.620 452.003, 402.806 448.069, 401 438.500 C 399.488 430.485, 397.168 427.367, 391.696 425.998 C 380.754 423.261, 378.851 421.175, 375.512 408.253 C 374.267 403.439, 372.462 396.497, 371.500 392.826 C 369.841 386.498, 369.839 385.541, 371.459 374.343 C 374.119 355.967, 376.592 352.397, 388.555 349.668 C 396.724 347.805, 398.733 346.063, 399.553 340.135 C 401.530 325.838, 406.966 322.402, 426.159 323.320 C 444.202 324.184, 449.683 326.735, 450.629 334.711 C 451.792 344.522, 443.864 348.157, 414 351.501 C 403.084 352.724, 402.891 353.045, 400.948 373.275 C 398.430 399.480, 403.807 417.186, 415.725 421.936 C 420.748 423.939, 426.419 430.763, 427.841 436.515 C 431.346 450.695, 430.139 449.530, 445.500 453.559 C 450.868 454.967, 452.238 455.913, 458.504 462.538 C 465.327 469.753, 475.184 476.466, 490 483.989 C 496.138 487.105, 497.482 488.433, 501.335 495.185 C 504.749 501.168, 507.753 503.253, 516.875 505.966 C 525.731 508.600, 528.067 510.735, 531.054 518.929 C 533.697 526.177, 535.061 527.265, 544.453 529.609 C 553.437 531.852, 557.181 535.265, 560.239 544 C 562.783 551.271, 564.553 552.623, 575.316 555.526 C 582.481 557.458, 587.031 561.433, 591.317 569.505 C 594.195 574.926, 595.219 575.885, 602 579.522 C 613.764 585.831, 618.831 589.654, 628.500 599.518 C 637.043 608.233, 637.912 608.836, 645.609 611.385 C 654.843 614.443, 657.310 616.582, 659.646 623.560 C 662.411 631.821, 664.314 633.734, 672.122 636.106 C 681.182 638.857, 684.402 641.655, 687.134 649.148 C 689.754 656.333, 691.252 657.450, 701.022 659.502 C 711.630 661.730, 715.041 664.308, 719.326 673.336 C 722.650 680.339, 723.146 680.884, 727.680 682.513 C 740.074 686.967, 743.318 689.183, 755.500 701.518 C 765.018 711.156, 768.482 714.013, 772.250 715.334 C 774.862 716.250, 779.056 717.724, 781.568 718.609 C 786.449 720.328, 787.939 722.464, 789.998 730.696 C 793.595 745.071, 815.983 742.075, 815.996 727.218 C 816.004 718.490, 813.353 715.185, 804.154 712.453 C 796.975 710.321, 796.148 709.304, 793.617 699.490 C 786.257 670.950, 785.419 669.181, 776.805 663.960 C 771.361 660.660, 769.397 657.336, 766.833 647.080 C 764.636 638.289, 761.764 634.190, 754.588 629.599 C 746.424 624.377, 739.250 611.998, 737.043 599.328 C 735.360 589.660, 734.054 587.756, 726.696 584.241 C 718.474 580.314, 716.742 577.988, 714.068 567.281 C 711.190 555.761, 708.800 551.910, 699.076 543.130 C 689.667 534.634, 686.731 530.092, 684.566 520.681 C 682.383 511.196, 681.637 510.165, 674.659 506.991 C 666.192 503.141, 664.228 500.687, 661.322 490.328 C 658.731 481.093, 656.854 478.260, 651.017 474.776 C 649.083 473.621, 646.441 471.737, 645.147 470.588 C 642.332 468.090, 633.677 451.229, 631.989 444.955 C 629.891 437.156, 628.299 435.129, 621.796 431.979 C 611.898 427.185, 610.197 424.975, 607.520 413.429 C 605.431 404.423, 603.911 402.293, 597.575 399.491 C 590.460 396.344, 587.616 392.658, 585.485 383.822 C 583.683 376.353, 579.041 363.657, 576.764 359.972 C 576.069 358.847, 572.663 356.144, 569.196 353.965 C 562.313 349.641, 558.926 344.179, 557.468 335.052 C 556.457 328.723, 553.019 325.653, 545.229 324.123 C 535.612 322.234, 530 315.034, 530 304.586 C 530 301.406, 526.040 298.327, 520.314 297.057 C 509.720 294.706, 506.093 291.568, 503.447 282.466 C 501.461 275.633, 499.865 274.361, 490.953 272.509 C 468.577 267.857, 461.258 263.835, 457.561 254.159 C 454.594 246.396, 450.673 241.882, 443.928 238.463 C 429.144 230.972, 419.210 206.297, 414.954 166.500 C 411.525 134.435, 410.164 128.447, 405.232 123.723 C 398.691 117.457, 400.692 117.625, 331.500 117.538 C 296.850 117.494, 266.250 117.152, 263.500 116.777 C 260.750 116.402, 257.150 116.445, 255.500 116.874 M 358.500 154.212 C 357.400 154.845, 353.800 157.606, 350.500 160.348 C 335.354 172.930, 309.315 172.513, 293.352 159.432 C 283.627 151.463, 278.608 153.137, 268.177 167.829 C 259.365 180.239, 263.422 190.162, 280.900 198.950 C 291.291 204.174, 293.177 208.384, 295.954 232.559 C 298.585 255.466, 303.295 263.183, 315.741 264.983 C 340.833 268.611, 346.212 263.112, 350.446 229.500 C 353.175 207.833, 355.209 203.463, 364.641 199.007 C 381.070 191.245, 386.591 180.811, 379.768 170.421 C 371.571 157.941, 363.159 151.530, 358.500 154.212 M 361.369 606.213 C 359.201 609.719, 359.613 620.808, 365.033 705 C 365.511 712.425, 365.924 725.895, 365.951 734.934 C 366.018 757.540, 369.988 764.504, 387.389 772.544 C 391.395 774.395, 396.884 777.740, 399.586 779.978 C 412.437 790.619, 435.079 784.438, 446.506 767.170 C 454.237 755.488, 450.813 717.549, 441.398 710.576 C 432.271 703.816, 425.541 690.093, 423.034 673.134 C 421.657 663.815, 421.226 663.062, 414.254 657.824 C 407.748 652.935, 402.562 643.779, 397.362 628 C 394.069 618.008, 391.902 615.467, 385.910 614.569 C 376.101 613.098, 371.634 611.603, 367.412 608.381 C 362.407 604.560, 362.393 604.555, 361.369 606.213 M 460.500 806.573 C 458.850 807.431, 456.600 808.950, 455.500 809.949 C 448.496 816.311, 421.794 820.318, 405.500 817.452 C 387.666 814.316, 386.944 814.360, 372.683 819.437 C 365.634 821.947, 359.002 824.464, 357.944 825.030 C 353.830 827.232, 351.114 836.632, 348.996 856 C 346.555 878.330, 343.194 890.093, 337.569 896 C 323.467 910.809, 331.197 918.705, 362.031 920.989 C 392.788 923.268, 412.257 927.799, 428.500 936.461 C 437.275 941.140, 442.756 941.061, 449.320 936.159 C 454.066 932.615, 461.272 928.938, 468.271 926.488 C 476.754 923.519, 477.297 918.472, 476.918 846 C 476.761 815.889, 470.678 801.279, 460.500 806.573 M 515.500 1049.107 C 510.550 1049.526, 481.525 1050.608, 451 1051.512 C 354.147 1054.379, 354.342 1054.369, 337.500 1057.795 C 316.764 1062.014, 309.753 1064.096, 300.321 1068.838 C 290.642 1073.705, 286.562 1074.450, 258.500 1076.472 C 220.112 1079.238, 210.923 1081.814, 199.500 1093.009 C 193.304 1099.082, 189.675 1100.617, 179.500 1101.469 C 146.784 1104.209, 141.939 1105.988, 137.197 1117 C 134.182 1124.003, 132.414 1124.981, 114.287 1129.687 C 91.610 1135.574, 90.964 1136.128, 88.405 1151.891 C 84.505 1175.915, 87.769 1182.483, 105.364 1186.023 C 121.693 1189.307, 125.841 1191.485, 132.912 1200.483 C 139.133 1208.398, 143.417 1210.502, 157.275 1212.446 C 185.200 1216.364, 187.739 1218.167, 188.333 1234.500 C 188.660 1243.500, 188.660 1243.500, 256.080 1243.759 C 325.535 1244.026, 327.056 1243.978, 325.064 1241.577 C 324.325 1240.686, 324.261 1239.956, 324.890 1239.568 C 325.433 1239.232, 325.659 1237.955, 325.393 1236.729 C 325.127 1235.503, 324.746 1233.150, 324.545 1231.500 C 322.924 1218.135, 305.101 1212.721, 240.763 1206.048 C 219.525 1203.845, 217.174 1203.081, 206.222 1194.818 C 197.057 1187.903, 192.027 1185.390, 183.371 1183.403 C 158.504 1177.694, 154.950 1170.659, 164.224 1145.500 C 166.691 1138.805, 170.554 1136.495, 182.821 1134.375 C 205.439 1130.468, 216.780 1126.467, 221.653 1120.675 C 229.226 1111.675, 241.177 1109.223, 295.561 1105.511 C 327.386 1103.339, 349.832 1098.161, 370.935 1088.125 C 380.848 1083.411, 386.505 1082.576, 399.100 1083.967 C 407.472 1084.891, 416.721 1084.872, 441.166 1083.878 C 475.795 1082.471, 583.626 1082.242, 616.500 1083.507 C 639.733 1084.400, 653.962 1084.510, 670.500 1083.924 C 681.112 1083.548, 681.783 1083.652, 689.500 1086.857 C 717.672 1098.556, 738.228 1103.477, 767.500 1105.529 C 823.838 1109.479, 831.696 1111.003, 840.058 1119.599 C 847.755 1127.511, 861.363 1132.013, 885.241 1134.546 C 907.076 1136.863, 910.274 1139.811, 915.526 1162.457 C 918.866 1176.859, 915.485 1179.339, 888.203 1182.502 C 873.718 1184.182, 865.975 1187.274, 855.387 1195.607 C 846.522 1202.585, 843.452 1203.578, 823.500 1205.920 C 747.641 1214.824, 739.852 1217.504, 739.696 1234.750 C 739.680 1236.537, 739.206 1238, 738.642 1238 C 738.079 1238, 738.442 1238.603, 739.449 1239.339 C 741.222 1240.635, 741.221 1240.701, 739.418 1241.393 C 733.805 1243.547, 744.947 1243.970, 807.632 1243.985 C 874.764 1244, 874.764 1244, 874.909 1235.452 C 875.065 1226.308, 877.007 1219.610, 879.828 1218.491 C 889.926 1214.482, 901.241 1210.881, 908.107 1209.490 C 919.708 1207.141, 922.674 1205.724, 929 1199.507 C 935.707 1192.916, 944.364 1188.700, 956.533 1186.100 C 975.202 1182.110, 978.310 1176.509, 974.565 1153.595 C 971.615 1135.538, 967.360 1132.547, 936.668 1126.946 C 928.116 1125.386, 926.291 1124.240, 922.539 1118.074 C 917.564 1109.898, 904.973 1104.488, 885 1101.945 C 872.732 1100.383, 870.143 1099.342, 863.940 1093.477 C 857.862 1087.731, 849.427 1083.022, 840.948 1080.641 C 835.854 1079.211, 830.986 1078.707, 796 1075.988 C 776.522 1074.474, 771.570 1073.391, 761.500 1068.445 C 738.200 1057, 706.924 1052.974, 637.500 1052.484 C 610.887 1052.296, 561.891 1050.410, 549.500 1049.096 C 539.215 1048.006, 528.463 1048.009, 515.500 1049.107" stroke="none" fill="#7c7e82" fill-rule="evenodd"/><path d="M 38.500 29.501 C 33.630 31.226, 30.412 34.755, 29.031 39.885 C 26.703 48.530, 28.192 1231.975, 30.535 1235.965 C 35.215 1243.930, 30.254 1243.466, 114.112 1243.774 C 188.725 1244.049, 188.725 1244.049, 188.358 1234.774 C 187.698 1218.107, 185.289 1216.377, 157.275 1212.446 C 143.417 1210.502, 139.133 1208.398, 132.912 1200.483 C 125.841 1191.485, 121.693 1189.307, 105.364 1186.023 C 87.769 1182.483, 84.505 1175.915, 88.405 1151.891 C 90.964 1136.128, 91.610 1135.574, 114.287 1129.687 C 132.414 1124.981, 134.182 1124.003, 137.197 1117 C 141.939 1105.988, 146.784 1104.209, 179.500 1101.469 C 189.675 1100.617, 193.304 1099.082, 199.500 1093.009 C 210.923 1081.814, 220.112 1079.238, 258.500 1076.472 C 286.562 1074.450, 290.642 1073.705, 300.321 1068.838 C 309.760 1064.093, 316.782 1062.008, 337.500 1057.800 C 354.429 1054.362, 357.847 1054.175, 450.500 1051.607 C 479.650 1050.800, 510.427 1049.608, 518.893 1048.959 C 530.826 1048.045, 537.233 1048.051, 547.393 1048.988 C 564.067 1050.527, 609.020 1052.267, 637.500 1052.477 C 707.046 1052.990, 738.204 1057.002, 761.500 1068.445 C 771.570 1073.391, 776.522 1074.474, 796 1075.988 C 830.986 1078.707, 835.854 1079.211, 840.948 1080.641 C 849.427 1083.022, 857.862 1087.731, 863.940 1093.477 C 870.143 1099.342, 872.732 1100.383, 885 1101.945 C 904.973 1104.488, 917.564 1109.898, 922.539 1118.074 C 926.291 1124.240, 928.116 1125.386, 936.668 1126.946 C 967.360 1132.547, 971.615 1135.538, 974.565 1153.595 C 978.310 1176.509, 975.202 1182.110, 956.533 1186.100 C 944.364 1188.700, 935.707 1192.916, 929 1199.507 C 922.674 1205.724, 919.708 1207.141, 908.107 1209.490 C 901.241 1210.881, 889.926 1214.482, 879.828 1218.491 C 876.404 1219.850, 874.384 1229.646, 874.924 1242.275 C 874.996 1243.960, 878.729 1244.036, 949.250 1243.775 C 1032.699 1243.466, 1027.787 1243.927, 1032.465 1235.965 C 1035.686 1230.481, 1035.686 41.519, 1032.465 36.035 C 1031.345 34.130, 1028.870 31.655, 1026.965 30.535 C 1022.397 27.852, 46.038 26.830, 38.500 29.501 M 307.500 85.042 C 237.797 86.102, 220.039 89.282, 220.004 100.712 C 219.990 105.319, 215.151 114.002, 208.942 120.561 C 197.206 132.961, 194.365 140.939, 192.940 165.500 C 192.398 174.850, 191.515 185.794, 190.977 189.820 C 188.927 205.189, 188.750 225.433, 190.422 253.500 C 192.829 293.908, 192.879 294.098, 203.969 304.922 C 211.510 312.283, 215.696 320.670, 218.515 334.069 C 220.546 343.728, 223.270 348.232, 229.636 352.459 C 236.114 356.760, 236.512 357.513, 242.951 377.647 C 248.512 395.034, 249.149 396.030, 257.267 400 C 264.023 403.304, 265.667 405.857, 267.568 416 C 270.077 429.384, 274.676 436.745, 286.822 446.818 C 292.848 451.815, 295.274 456.060, 297.438 465.388 C 299.634 474.859, 301.352 477.611, 307.543 481.571 C 318.382 488.504, 326.097 526.028, 323.150 557.478 C 321.701 572.941, 323.520 714.832, 325.509 741.500 C 327.220 764.433, 327.401 780.867, 326.038 789.500 C 325.517 792.800, 324.379 805.625, 323.510 818 C 320.619 859.141, 318.918 867.097, 312.144 871.146 C 305.941 874.853, 303.999 877.182, 298.919 887 C 293.336 897.792, 285.336 909.078, 281.478 911.607 C 278.440 913.597, 257.658 915.155, 210.500 916.928 C 167.107 918.559, 124.052 922.116, 118.225 924.550 C 108.763 928.504, 105.858 932.627, 102.953 946.221 C 100.071 959.704, 101.067 962.927, 105.982 956.025 C 109.581 950.971, 111.419 950.828, 178.488 950.386 C 212.595 950.161, 249.725 949.580, 261 949.096 C 277.338 948.394, 284.241 948.524, 295 949.736 C 305.750 950.946, 311.250 951.050, 322 950.247 C 329.640 949.676, 337.887 949.595, 341 950.061 C 344.025 950.514, 352.700 951.810, 360.277 952.941 C 374.469 955.059, 379.514 956.722, 394.289 964.147 C 417.935 976.031, 463.064 976.572, 471.681 965.075 C 472.330 964.209, 473.571 961.025, 474.438 958 C 476.847 949.594, 479.997 944.850, 485.522 941.308 C 503.945 929.496, 508.551 916.407, 507.802 878 C 506.705 821.751, 508.707 814.066, 523.490 817.780 C 552.246 825.005, 551.640 824.712, 556.426 833.688 C 564.531 848.889, 579.670 847.794, 587.430 831.446 C 590.675 824.608, 591.577 823.566, 597.412 819.907 C 606.233 814.377, 607.171 812.128, 608.203 794.055 C 609.968 763.145, 627.983 749.818, 632.960 775.740 C 635.881 790.954, 637.424 793.689, 647.028 800.678 C 654.330 805.991, 658.605 813.939, 662.007 828.530 C 664.481 839.141, 666.495 842.143, 673.300 845.362 C 680.613 848.821, 681.799 850.500, 684.453 861.145 C 689.087 879.727, 694.285 888.594, 703.178 893.087 C 709.387 896.224, 711.573 898.664, 712.957 904 C 713.457 905.925, 714.357 909.392, 714.959 911.705 C 716.393 917.218, 720.170 921.581, 724.783 923.051 C 734.760 926.231, 735.296 926.824, 738.431 938.144 C 740.468 945.498, 744.622 949.207, 753.928 951.979 C 761.627 954.271, 764.216 956.651, 766.194 963.252 C 768.978 972.545, 773.616 974.510, 795 975.455 C 802.975 975.808, 813.325 976.718, 818 977.478 C 822.675 978.238, 829.875 979.145, 834 979.494 C 853.791 981.168, 866.826 984.504, 873.553 989.617 C 885.764 998.896, 929.247 1004.932, 941.424 999.037 C 949.007 995.366, 954.164 976.517, 952.599 958.193 C 950.180 929.879, 950.451 928.109, 958.595 918.982 C 966.144 910.522, 966.829 907.534, 964.021 895.316 C 960.635 880.586, 957.238 875.682, 943.216 865.277 C 939.210 862.304, 933.713 857.047, 931.001 853.596 C 925.518 846.619, 921.246 843.343, 912.833 839.663 C 906.524 836.903, 904.913 834.968, 902.088 826.755 C 897.739 814.116, 890.127 801.216, 884.368 796.727 C 877.790 791.599, 875.598 787.316, 873.593 775.670 C 869.881 754.117, 866.333 746.894, 857.018 741.929 C 850.202 738.296, 848.775 735.930, 847.036 725.381 C 845.258 714.590, 837.970 700.655, 831.408 695.500 C 824.269 689.892, 822.185 686.469, 820.480 677.557 C 817.945 664.309, 814.925 660.289, 804.623 656.449 C 798.123 654.026, 796.780 651.543, 792.626 634.256 C 788.549 617.294, 787.771 615.923, 780 612 C 772.705 608.317, 771.480 606.533, 769.426 596.602 C 766.739 583.611, 764.196 579.265, 754.708 571.455 C 747.618 565.618, 743.570 559.111, 740.870 549.214 C 737.641 537.381, 736.821 536.260, 728.659 532.541 C 719.735 528.474, 719.287 527.927, 717.436 518.860 C 715.065 507.240, 712.582 503.290, 703.979 497.452 C 695.994 492.034, 690.131 483.013, 686.461 470.500 C 684.104 462.466, 681.656 459.360, 675.054 456.027 C 667.872 452.402, 666.195 450.095, 664.353 441.310 C 662.146 430.779, 659.584 427.063, 651.987 423.377 C 643.638 419.325, 642.529 418.102, 639.956 410.123 C 638.010 404.086, 630.852 389.906, 627.697 385.838 C 626.989 384.925, 623.653 382.562, 620.286 380.588 C 613.240 376.459, 610.832 373.078, 608.503 364.044 C 605.698 353.166, 603.877 350.873, 595.706 347.932 C 590.105 345.916, 588.308 343.741, 586.054 336.251 C 583.288 327.057, 581.213 324.251, 573.292 318.985 C 567.860 315.374, 565.891 313.326, 563.457 308.756 C 558.201 298.885, 554.428 296.068, 542.409 293.039 C 537.351 291.765, 535.735 289.969, 533.518 283.159 C 530.903 275.129, 527.081 271.386, 518.985 268.927 C 511.105 266.533, 509.746 265.302, 507.476 258.500 C 504.870 250.687, 501.164 247.528, 491.628 244.989 C 480.914 242.137, 479.582 241.152, 475.697 233.224 C 472.310 226.312, 471.586 225.700, 461.535 221.254 C 453.144 217.542, 453.058 217.129, 453.049 180.645 C 453.036 127.398, 451.351 100.543, 447.734 95.925 C 441.256 87.655, 411.127 83.655, 360 84.275 C 354.225 84.346, 330.600 84.690, 307.500 85.042 M 255.500 116.874 C 248.300 118.743, 246.247 121.264, 243.997 131 C 242.252 138.551, 238.888 144.983, 231.395 155.098 C 221.020 169.102, 221.489 166.774, 221.850 202.500 C 222.032 220.570, 221.686 238.719, 221.018 246.012 C 219.135 266.609, 223.328 280.755, 234.080 290.069 C 241.732 296.699, 243.557 300.838, 245.508 316 C 248.538 339.535, 248.766 340.032, 258.537 344.485 C 266.987 348.336, 269.287 351.176, 271.090 359.982 C 273.774 373.089, 274.971 376.012, 279.209 379.809 C 292.801 391.990, 296.917 398.573, 300.022 413.105 C 302.254 423.549, 303.458 425.315, 310.500 428.482 C 317.321 431.548, 319.655 434.427, 321.487 442.025 C 327.826 468.325, 328.509 469.763, 336.433 473.512 C 343.944 477.065, 347.128 481.277, 350.292 491.846 C 353.051 501.064, 355.677 504.787, 361.479 507.705 C 370.047 512.013, 374.805 521.784, 378.334 542.309 C 380.195 553.137, 381.503 555.215, 388.770 558.887 C 396.664 562.875, 397.719 564.347, 401.137 576.158 C 407.141 596.899, 408.230 598.726, 418.500 605.300 C 424.764 609.309, 427.567 614.666, 429.066 625.489 C 430.582 636.431, 431.949 639.161, 438.242 643.810 C 449.111 651.839, 454.249 661.013, 456.585 676.567 C 458.252 687.665, 459.857 690.989, 464.918 693.834 C 472.701 698.208, 478.880 709.608, 481.833 725.040 C 484.092 736.845, 485.654 739.842, 491.964 744.474 C 494.877 746.612, 499.196 751.383, 502.244 755.831 C 506.283 761.724, 509.119 764.583, 514.492 768.179 C 521.661 772.977, 524.992 776.301, 528.500 782.160 C 532.050 788.089, 536.368 789.367, 554.441 789.835 C 581.823 790.545, 582.053 790.038, 579.983 733.500 C 579.089 709.084, 594.259 686.644, 603.840 698.211 C 611.326 707.248, 613.307 708.671, 622.167 711.372 C 633.128 714.713, 639 721.832, 639 731.780 C 639 735.886, 642.468 740.207, 648.007 743.004 C 656.764 747.424, 663.473 760.227, 667.440 780.088 C 668.255 784.168, 671.487 787.514, 677.416 790.415 C 684.225 793.747, 686.317 796.994, 688.963 808.340 C 691.830 820.637, 694.711 825.703, 703.051 833.115 C 712.146 841.198, 714.500 845.320, 716.935 857.425 C 719.111 868.244, 720.255 870.072, 727 873.509 C 735.171 877.673, 735.563 878.515, 744.022 910.087 C 745.313 914.909, 747.223 916.349, 755.663 918.867 C 763.872 921.317, 771.033 926.435, 776.075 933.455 C 782.822 942.850, 793.507 945.971, 819 945.991 C 838.757 946.007, 863.583 948.033, 873.647 950.452 C 877.028 951.264, 882.878 952.407, 886.647 952.992 C 890.416 953.577, 896.585 954.995, 900.356 956.144 C 910.802 959.326, 916.835 952.635, 915.744 939.079 C 915.274 933.241, 914.873 932.742, 905 925.679 C 898.634 921.125, 897.185 917.343, 893.988 896.925 C 890.884 877.101, 890.219 875.479, 883.228 870.682 C 875.246 865.203, 874.270 863.588, 868.975 847.093 C 862.391 826.582, 862.935 827.426, 853.348 822.871 C 844.696 818.760, 841.399 815.681, 837.544 808.107 C 834.726 802.572, 832.347 800.340, 824.685 796.041 C 821.135 794.050, 814.072 788.009, 806.555 780.535 C 798.412 772.439, 791.575 766.658, 786.370 763.468 C 776.178 757.221, 775.414 756.532, 772.257 750.731 C 769.140 745.004, 764.604 742.092, 754.859 739.561 C 746.881 737.490, 743.765 734.619, 741.172 726.954 C 738.928 720.317, 735.613 717.774, 726.996 716.079 C 719.306 714.566, 714.226 710.310, 711.689 703.255 C 708.854 695.372, 707.704 694.337, 698.732 691.589 C 688.752 688.532, 684.438 685.174, 680.145 677.121 C 676.158 669.641, 674.794 668.569, 659.111 660.594 C 645.594 653.721, 644.823 653.101, 640.590 645.687 C 637.341 639.998, 633.937 637.704, 624.558 634.887 C 618.035 632.927, 612 628.574, 612 625.830 C 612 618.909, 605.856 612.806, 596.971 610.900 C 589.983 609.402, 585.600 605.351, 582.873 597.871 C 580.190 590.515, 577.954 588.694, 568.859 586.465 C 559.880 584.265, 556.674 581.483, 552.051 571.877 C 548.500 564.500, 548.500 564.500, 541.445 561.932 C 531.969 558.483, 526.863 554.781, 517.774 544.770 C 509.820 536.009, 503.642 531.911, 493.368 528.581 C 487.273 526.605, 485.611 524.934, 481.559 516.711 C 478.178 509.847, 475.884 508.225, 465.647 505.463 C 458.064 503.417, 455.632 500.837, 453.019 492.065 C 450.429 483.369, 448.880 481.688, 441.460 479.531 C 431.800 476.723, 428.900 473.799, 427.510 465.465 C 426.022 456.544, 424.456 454.978, 415.535 453.490 C 406.620 452.003, 402.806 448.069, 401 438.500 C 399.488 430.485, 397.168 427.367, 391.696 425.998 C 380.754 423.261, 378.851 421.175, 375.512 408.253 C 374.267 403.439, 372.462 396.497, 371.500 392.826 C 369.841 386.498, 369.839 385.541, 371.459 374.343 C 374.119 355.967, 376.592 352.397, 388.555 349.668 C 396.724 347.805, 398.733 346.063, 399.553 340.135 C 401.530 325.838, 406.966 322.402, 426.159 323.320 C 444.202 324.184, 449.683 326.735, 450.629 334.711 C 451.792 344.522, 443.864 348.157, 414 351.501 C 403.084 352.724, 402.891 353.045, 400.948 373.275 C 398.430 399.480, 403.807 417.186, 415.725 421.936 C 420.748 423.939, 426.419 430.763, 427.841 436.515 C 431.346 450.695, 430.139 449.530, 445.500 453.559 C 450.868 454.967, 452.238 455.913, 458.504 462.538 C 465.327 469.753, 475.184 476.466, 490 483.989 C 496.138 487.105, 497.482 488.433, 501.335 495.185 C 504.749 501.168, 507.753 503.253, 516.875 505.966 C 525.731 508.600, 528.067 510.735, 531.054 518.929 C 533.697 526.177, 535.061 527.265, 544.453 529.609 C 553.437 531.852, 557.181 535.265, 560.239 544 C 562.783 551.271, 564.553 552.623, 575.316 555.526 C 582.481 557.458, 587.031 561.433, 591.317 569.505 C 594.195 574.926, 595.219 575.885, 602 579.522 C 613.764 585.831, 618.831 589.654, 628.500 599.518 C 637.043 608.233, 637.912 608.836, 645.609 611.385 C 654.843 614.443, 657.310 616.582, 659.646 623.560 C 662.411 631.821, 664.314 633.734, 672.122 636.106 C 681.182 638.857, 684.402 641.655, 687.134 649.148 C 689.754 656.333, 691.252 657.450, 701.022 659.502 C 711.630 661.730, 715.041 664.308, 719.326 673.336 C 722.650 680.339, 723.146 680.884, 727.680 682.513 C 740.074 686.967, 743.318 689.183, 755.500 701.518 C 765.018 711.156, 768.482 714.013, 772.250 715.334 C 774.862 716.250, 779.056 717.724, 781.568 718.609 C 786.449 720.328, 787.939 722.464, 789.998 730.696 C 793.595 745.071, 815.983 742.075, 815.996 727.218 C 816.004 718.490, 813.353 715.185, 804.154 712.453 C 796.975 710.321, 796.148 709.304, 793.617 699.490 C 786.257 670.950, 785.419 669.181, 776.805 663.960 C 771.361 660.660, 769.397 657.336, 766.833 647.080 C 764.636 638.289, 761.764 634.190, 754.588 629.599 C 746.424 624.377, 739.250 611.998, 737.043 599.328 C 735.360 589.660, 734.054 587.756, 726.696 584.241 C 718.474 580.314, 716.742 577.988, 714.068 567.281 C 711.190 555.761, 708.800 551.910, 699.076 543.130 C 689.667 534.634, 686.731 530.092, 684.566 520.681 C 682.383 511.196, 681.637 510.165, 674.659 506.991 C 666.192 503.141, 664.228 500.687, 661.322 490.328 C 658.731 481.093, 656.854 478.260, 651.017 474.776 C 649.083 473.621, 646.441 471.737, 645.147 470.588 C 642.332 468.090, 633.677 451.229, 631.989 444.955 C 629.891 437.156, 628.299 435.129, 621.796 431.979 C 611.898 427.185, 610.197 424.975, 607.520 413.429 C 605.431 404.423, 603.911 402.293, 597.575 399.491 C 590.460 396.344, 587.616 392.658, 585.485 383.822 C 583.683 376.353, 579.041 363.657, 576.764 359.972 C 576.069 358.847, 572.663 356.144, 569.196 353.965 C 562.313 349.641, 558.926 344.179, 557.468 335.052 C 556.457 328.723, 553.019 325.653, 545.229 324.123 C 535.612 322.234, 530 315.034, 530 304.586 C 530 301.406, 526.040 298.327, 520.314 297.057 C 509.720 294.706, 506.093 291.568, 503.447 282.466 C 501.461 275.633, 499.865 274.361, 490.953 272.509 C 468.577 267.857, 461.258 263.835, 457.561 254.159 C 454.594 246.396, 450.673 241.882, 443.928 238.463 C 429.144 230.972, 419.210 206.297, 414.954 166.500 C 411.525 134.435, 410.164 128.447, 405.232 123.723 C 398.691 117.457, 400.692 117.625, 331.500 117.538 C 296.850 117.494, 266.250 117.152, 263.500 116.777 C 260.750 116.402, 257.150 116.445, 255.500 116.874 M 358.500 154.212 C 357.400 154.845, 353.800 157.606, 350.500 160.348 C 335.354 172.930, 309.315 172.513, 293.352 159.432 C 283.627 151.463, 278.608 153.137, 268.177 167.829 C 259.365 180.239, 263.422 190.162, 280.900 198.950 C 291.291 204.174, 293.177 208.384, 295.954 232.559 C 298.585 255.466, 303.295 263.183, 315.741 264.983 C 340.833 268.611, 346.212 263.112, 350.446 229.500 C 353.175 207.833, 355.209 203.463, 364.641 199.007 C 381.070 191.245, 386.591 180.811, 379.768 170.421 C 371.571 157.941, 363.159 151.530, 358.500 154.212 M 361.369 606.213 C 359.201 609.719, 359.613 620.808, 365.033 705 C 365.511 712.425, 365.924 725.895, 365.951 734.934 C 366.018 757.540, 369.988 764.504, 387.389 772.544 C 391.395 774.395, 396.884 777.740, 399.586 779.978 C 412.437 790.619, 435.079 784.438, 446.506 767.170 C 454.237 755.488, 450.813 717.549, 441.398 710.576 C 432.271 703.816, 425.541 690.093, 423.034 673.134 C 421.657 663.815, 421.226 663.062, 414.254 657.824 C 407.748 652.935, 402.562 643.779, 397.362 628 C 394.069 618.008, 391.902 615.467, 385.910 614.569 C 376.101 613.098, 371.634 611.603, 367.412 608.381 C 362.407 604.560, 362.393 604.555, 361.369 606.213 M 460.500 806.573 C 458.850 807.431, 456.600 808.950, 455.500 809.949 C 448.496 816.311, 421.794 820.318, 405.500 817.452 C 387.666 814.316, 386.944 814.360, 372.683 819.437 C 365.634 821.947, 359.002 824.464, 357.944 825.030 C 353.830 827.232, 351.114 836.632, 348.996 856 C 346.555 878.330, 343.194 890.093, 337.569 896 C 323.467 910.809, 331.197 918.705, 362.031 920.989 C 392.788 923.268, 412.257 927.799, 428.500 936.461 C 437.275 941.140, 442.756 941.061, 449.320 936.159 C 454.066 932.615, 461.272 928.938, 468.271 926.488 C 476.754 923.519, 477.297 918.472, 476.918 846 C 476.761 815.889, 470.678 801.279, 460.500 806.573 M 479 1082.647 C 465.410 1084.030, 407.909 1084.966, 398.893 1083.952 C 386.567 1082.565, 380.825 1083.422, 370.935 1088.125 C 349.832 1098.161, 327.386 1103.339, 295.561 1105.511 C 241.177 1109.223, 229.226 1111.675, 221.653 1120.675 C 216.780 1126.467, 205.439 1130.468, 182.821 1134.375 C 170.554 1136.495, 166.691 1138.805, 164.224 1145.500 C 154.950 1170.659, 158.504 1177.694, 183.371 1183.403 C 192.027 1185.390, 197.057 1187.903, 206.222 1194.818 C 217.174 1203.081, 219.525 1203.845, 240.763 1206.048 C 305.102 1212.721, 322.846 1218.110, 324.567 1231.500 C 324.779 1233.150, 325.130 1235.400, 325.348 1236.500 C 325.565 1237.600, 325.329 1239.022, 324.823 1239.661 C 324.250 1240.384, 324.305 1241.070, 324.968 1241.480 C 325.553 1241.842, 325.774 1242.557, 325.457 1243.069 C 325.103 1243.643, 404.686 1243.994, 532.691 1243.985 C 661.339 1243.975, 739.939 1243.615, 739.028 1243.038 C 737.783 1242.251, 737.843 1241.998, 739.418 1241.393 C 741.221 1240.701, 741.222 1240.635, 739.449 1239.339 C 738.442 1238.603, 738.079 1238, 738.642 1238 C 739.206 1238, 739.680 1236.537, 739.696 1234.750 C 739.852 1217.504, 747.641 1214.824, 823.500 1205.920 C 843.452 1203.578, 846.522 1202.585, 855.387 1195.607 C 865.975 1187.274, 873.718 1184.182, 888.203 1182.502 C 915.485 1179.339, 918.866 1176.859, 915.526 1162.457 C 910.274 1139.811, 907.076 1136.863, 885.241 1134.546 C 861.363 1132.013, 847.755 1127.511, 840.058 1119.599 C 831.696 1111.003, 823.838 1109.479, 767.500 1105.529 C 738.228 1103.477, 717.672 1098.556, 689.500 1086.857 C 681.783 1083.652, 681.112 1083.548, 670.500 1083.924 C 654.102 1084.505, 639.705 1084.405, 618 1083.559 C 599.732 1082.847, 484.469 1082.091, 479 1082.647" stroke="none" fill="#f1f1f1" fill-rule="evenodd"/></svg>