<svg xmlns="http://www.w3.org/2000/svg" width="1272" height="777" viewBox="0 0 1272 777" version="1.1"><path d="M 692.500 194.663 C 678.761 197.625, 673.068 226.131, 680.283 255.840 C 681.799 262.087, 681.890 264.069, 680.893 269.138 C 677.957 284.061, 681.124 302.268, 687.654 308.001 C 690.769 310.736, 691.179 311.726, 691.916 318.304 C 692.881 326.908, 694.757 330.950, 699.443 334.524 C 701.994 336.470, 703.438 338.805, 705.010 343.531 C 706.985 349.466, 712.201 356, 714.964 356 C 715.456 356, 716.564 358.427, 717.426 361.394 C 719.672 369.120, 728 376.388, 728 370.622 C 728 366.318, 725.184 361.392, 720.556 357.600 C 718.050 355.546, 716 353.053, 716 352.059 C 716 348.248, 712.829 341.539, 709.135 337.531 C 706.430 334.596, 704.904 331.738, 704.008 327.926 C 702.353 320.891, 700.562 317.407, 696.074 312.497 C 692.447 308.530, 692.404 308.379, 691.187 295.497 C 690.140 284.417, 688.559 276.130, 685.419 265.259 C 685.020 263.877, 685.572 261.315, 686.858 258.579 C 688.575 254.925, 688.906 252.490, 688.727 244.820 C 688.016 214.387, 691.258 212.134, 735.884 212.056 C 783.416 211.974, 788.977 215.191, 787.739 242.061 C 787.118 255.526, 790.137 273.618, 793.863 278.759 C 797.880 284.303, 808.667 293.968, 814.500 297.251 C 831.638 306.896, 879.876 353.165, 888.215 367.957 C 891.540 373.854, 898.639 383.344, 905.766 391.418 C 908.153 394.122, 911.545 398.697, 913.303 401.584 C 917.390 408.294, 925.604 420.670, 931.501 429 C 939.795 440.715, 944.925 448.420, 947.735 453.383 C 949.256 456.069, 953.026 461.694, 956.113 465.883 C 959.201 470.073, 962.530 475.075, 963.511 477 C 964.492 478.925, 966.766 482.301, 968.564 484.501 C 970.362 486.702, 972.899 490.378, 974.201 492.670 C 975.502 494.962, 978.700 499.911, 981.305 503.669 C 990.250 516.566, 997.043 527.142, 1000.028 532.818 C 1001.672 535.943, 1003.866 539.981, 1004.904 541.790 C 1008.359 547.812, 1004.841 551.430, 997.803 549.094 C 993.896 547.797, 988.367 543.362, 972.126 528.500 C 956.090 513.825, 949.206 507.865, 945 505.013 C 943.075 503.708, 939.437 500.809, 936.916 498.570 C 929.861 492.307, 921.442 485.907, 914.413 481.467 C 910.902 479.249, 906.335 475.816, 904.265 473.837 C 902.194 471.858, 898.250 469.008, 895.500 467.504 C 892.750 466, 888.826 463.259, 886.780 461.414 C 884.733 459.569, 880.452 456.742, 877.265 455.134 C 874.078 453.525, 869.286 450.404, 866.616 448.198 C 863.947 445.992, 859.286 443.239, 856.259 442.081 C 853.232 440.922, 849.123 438.700, 847.128 437.142 C 845.133 435.584, 841.358 433.069, 838.739 431.553 C 836.120 430.037, 832.745 427.472, 831.239 425.853 C 829.733 424.233, 825.567 420.963, 821.981 418.585 C 818.396 416.208, 814.814 413.481, 814.022 412.526 C 813.229 411.571, 809.862 408.950, 806.540 406.701 C 793.650 397.976, 781.767 386.445, 777.995 379 C 776.741 376.525, 774.028 372.579, 771.965 370.232 C 758.993 355.465, 771.681 335.242, 795 333.517 C 811.013 332.332, 817.762 326.497, 808.274 322.040 C 783.634 310.465, 745.478 342.245, 757.213 364.567 C 764.369 378.179, 768.713 385.159, 772.418 389 C 774.806 391.475, 778.179 395.502, 779.914 397.948 C 783.277 402.688, 797.704 416.352, 805.062 421.765 C 814.281 428.546, 822.636 435.004, 826.500 438.334 C 828.700 440.230, 833.200 443.365, 836.500 445.299 C 839.800 447.234, 843.625 450.028, 845 451.509 C 846.375 452.989, 850.186 455.561, 853.468 457.225 C 856.751 458.888, 861.476 461.965, 863.968 464.061 C 866.461 466.157, 871.425 469.194, 875 470.810 C 878.575 472.425, 883.300 475.200, 885.500 476.975 C 887.700 478.751, 891.975 481.462, 895 483 C 898.025 484.538, 902.300 487.238, 904.500 489 C 906.700 490.762, 910.975 493.516, 914 495.120 C 920.629 498.634, 926.667 503.587, 942.500 518.497 C 949.100 524.712, 956.762 531.574, 959.526 533.745 C 965.852 538.714, 985.924 558.619, 992.370 566.315 C 995.048 569.513, 1005.623 579.934, 1015.870 589.473 C 1026.116 599.011, 1037.650 610.539, 1041.500 615.091 C 1045.350 619.643, 1051.070 626.117, 1054.211 629.478 C 1066.363 642.480, 1067.489 650.210, 1057.937 655.032 C 1051.579 658.242, 1050.036 660.134, 1051.924 662.408 C 1055.250 666.415, 1066.080 664.885, 1070.890 659.728 C 1081.919 647.902, 1081.843 648.170, 1077.907 635.193 C 1074.733 624.728, 1074.733 624.728, 1076.952 617.614 C 1080.346 606.732, 1076.346 597.984, 1060.005 580.548 C 1056.372 576.672, 1052.072 571.884, 1050.450 569.908 C 1048.827 567.933, 1044.125 562.343, 1040 557.487 C 1032.712 548.908, 1026.044 539.885, 1016.359 525.500 C 1013.767 521.650, 1010.207 516.700, 1008.448 514.500 C 1006.688 512.300, 1004.463 508.925, 1003.503 507 C 1001.715 503.416, 995.875 494.827, 985.825 481 C 982.704 476.705, 979.391 471.686, 978.462 469.846 C 977.533 468.006, 974.773 463.800, 972.329 460.500 C 969.884 457.200, 966.448 452.393, 964.692 449.817 C 962.936 447.241, 959.777 442.966, 957.671 440.317 C 955.566 437.668, 950.531 430.325, 946.484 424 C 942.436 417.675, 937.068 409.575, 934.554 406 C 927.407 395.833, 921.404 387.099, 916.441 379.643 C 913.930 375.872, 907.711 368.222, 902.619 362.643 C 897.528 357.064, 891.818 350.424, 889.931 347.886 C 878.349 332.311, 873.378 326.640, 859.752 313.456 C 842.943 297.194, 829.573 286.038, 820.488 280.694 C 808.754 273.791, 805.724 268.317, 804.054 251 C 802.642 236.353, 801.436 229.465, 798.541 219.500 C 797.263 215.100, 795.650 209.329, 794.958 206.676 C 793.455 200.920, 789.341 196.467, 784.209 195.041 C 780.633 194.048, 696.954 193.703, 692.500 194.663 M 147.721 196.351 C 136.998 199.390, 136.588 200.729, 134.958 238 C 133.747 265.699, 134.193 282.617, 136.105 281.435 C 140.735 278.574, 144.649 263.241, 146.044 242.500 C 148.010 213.266, 148.663 211.867, 160.655 211.189 C 173.776 210.448, 178.834 213.193, 184.796 224.293 C 186.925 228.257, 189.882 233.596, 191.368 236.159 C 193.272 239.443, 195.049 245.639, 197.390 257.159 C 199.217 266.146, 201.945 276.425, 203.453 280 C 208.352 291.613, 208.303 290.612, 208.683 388 C 208.882 438.875, 209.304 491.750, 209.622 505.500 C 210.785 555.804, 205.575 576.539, 195.445 561.921 C 193.947 559.760, 191.257 557.086, 189.467 555.980 C 186.551 554.177, 183 548.813, 183 546.209 C 183 545.665, 181.009 542.515, 178.576 539.210 C 176.142 535.904, 173.057 531.467, 171.720 529.350 C 168.808 524.738, 154.112 509.649, 148.500 505.508 C 146.300 503.885, 143.150 501.144, 141.500 499.415 C 139.850 497.687, 136.250 495.136, 133.500 493.745 C 121.373 487.612, 116.388 474.673, 119.450 457.274 C 122.697 438.828, 123.285 431.398, 123.390 407.500 C 123.500 382.500, 123.500 382.500, 127.225 375 C 134.836 359.674, 139.272 281.005, 132.282 285.326 C 126.768 288.733, 124.028 302.391, 122.918 332 C 121.406 372.364, 120.862 377.455, 117.234 385.218 C 112.088 396.228, 110.854 404.543, 109.992 434 C 109.345 456.084, 108.865 461.818, 107.108 468.410 C 103.241 482.920, 104.861 488.869, 113.930 493.465 C 116.682 494.859, 121.181 497.996, 123.928 500.436 C 126.675 502.876, 130.853 505.741, 133.212 506.803 C 135.570 507.865, 140.867 511.718, 144.981 515.367 C 149.096 519.015, 152.783 522, 153.175 522 C 153.567 522, 156.435 525.384, 159.548 529.520 C 162.661 533.657, 166.057 537.495, 167.095 538.051 C 168.133 538.606, 170.861 541.634, 173.157 544.780 C 175.453 547.926, 178.639 551.625, 180.236 553 C 182.314 554.789, 183.690 557.486, 185.071 562.482 C 186.133 566.322, 188.558 571.984, 190.459 575.065 C 195.785 583.694, 196.235 587.183, 196.897 625 C 197.627 666.761, 198.098 668.007, 213.151 667.996 C 223.829 667.989, 228.617 661.924, 227.654 649.626 C 227.347 645.707, 226.635 633.138, 226.073 621.696 C 225.511 610.253, 224.749 600.403, 224.381 599.807 C 223.600 598.544, 222.840 558.123, 222.474 498.500 C 222.332 475.400, 221.658 437.600, 220.977 414.500 C 220.296 391.400, 219.618 356.248, 219.471 336.384 C 219.186 297.825, 219.356 299.556, 212.965 270 C 211.954 265.325, 210.606 257, 209.969 251.500 C 208.656 240.156, 207.717 237.453, 202.262 229.303 C 200.126 226.111, 197.191 221.433, 195.739 218.906 C 194.287 216.380, 191.514 213.104, 189.577 211.627 C 187.640 210.149, 184.636 206.878, 182.903 204.359 C 177.491 196.493, 160.705 192.672, 147.721 196.351 M 410.888 197.457 C 405.750 200.333, 405.862 198.135, 405.675 300.182 C 405.457 419.146, 413.865 403.326, 350.500 404 C 290.730 404.636, 291.106 404.503, 292.484 424.458 C 293.826 443.878, 304.201 448.437, 309.684 432.016 C 312.930 422.294, 311.907 422.500, 357 422.500 C 412.268 422.500, 406.132 405.170, 405.901 560.597 C 405.735 673.275, 405.102 664.346, 413.477 667.544 C 419.155 669.713, 444.861 669.315, 449.410 666.988 C 457.109 663.051, 456.439 673.720, 457 546.178 C 457.623 404.438, 450.712 422.500, 504.324 422.500 C 551.049 422.500, 549.561 422.177, 553.334 433.137 C 558.811 449.050, 569.025 443.988, 569.751 425 C 570.540 404.364, 571.295 404.636, 511.500 404 C 448.788 403.333, 457 418.919, 457 300.567 C 457 200.256, 457.136 203.053, 452.035 198.500 C 449.043 195.829, 415.323 194.974, 410.888 197.457 M 425.505 214.250 C 420.293 218.748, 418.441 638.756, 423.602 645.668 C 427.806 651.299, 436.447 650.904, 439.531 644.941 C 441.767 640.615, 441.663 222.199, 439.424 217.480 C 436.771 211.889, 430.047 210.329, 425.505 214.250 M 1075.591 226.310 C 1071.885 229.020, 1073.555 236.053, 1080.215 245.788 C 1081.828 248.147, 1084.696 253.472, 1086.587 257.622 C 1088.478 261.772, 1091.101 266.592, 1092.416 268.334 C 1093.730 270.075, 1096.207 274.486, 1097.921 278.135 C 1099.634 281.785, 1102.441 286.510, 1104.157 288.635 C 1105.874 290.761, 1108.538 295.242, 1110.078 298.593 C 1111.618 301.945, 1114.548 306.875, 1116.590 309.550 C 1118.632 312.225, 1121.833 317.774, 1123.705 321.881 C 1125.577 325.989, 1128.428 331.016, 1130.041 333.052 C 1131.654 335.088, 1134.331 339.779, 1135.990 343.477 C 1137.649 347.174, 1139.995 351.588, 1141.203 353.286 C 1142.412 354.983, 1145.223 359.761, 1147.450 363.903 C 1154.226 376.503, 1167.852 381.263, 1165.413 370.178 C 1163.660 362.214, 1160.440 354.597, 1156.416 348.901 C 1153.929 345.380, 1151.050 340.603, 1150.018 338.283 C 1148.986 335.964, 1146.729 332.012, 1145.001 329.502 C 1143.274 326.991, 1140.700 322.363, 1139.282 319.218 C 1137.864 316.073, 1135.228 311.459, 1133.424 308.965 C 1131.621 306.471, 1128.569 300.971, 1126.643 296.743 C 1124.716 292.515, 1121.775 287.356, 1120.108 285.278 C 1118.440 283.200, 1115.439 278.133, 1113.437 274.017 C 1111.436 269.901, 1108.479 264.867, 1106.865 262.830 C 1105.252 260.793, 1102.637 256.285, 1101.056 252.813 C 1099.474 249.341, 1096.879 244.700, 1095.291 242.500 C 1093.702 240.300, 1090.732 235.734, 1088.691 232.353 C 1086.650 228.973, 1084.273 225.935, 1083.409 225.603 C 1080.829 224.614, 1077.499 224.914, 1075.591 226.310 M 989.557 228.223 C 986.745 232.236, 988.422 238.171, 994.313 245.053 C 996.164 247.215, 998.905 252.111, 1000.404 255.934 C 1001.904 259.757, 1004.636 264.855, 1006.474 267.262 C 1008.313 269.670, 1011.182 274.652, 1012.851 278.332 C 1014.520 282.012, 1017.444 286.930, 1019.350 289.262 C 1021.256 291.593, 1023.974 296.125, 1025.389 299.333 C 1026.805 302.541, 1029.311 306.867, 1030.957 308.946 C 1032.604 311.025, 1035.472 316.333, 1037.331 320.741 C 1039.190 325.149, 1041.860 330.273, 1043.263 332.128 C 1044.666 333.982, 1047.398 338.768, 1049.333 342.762 C 1051.267 346.756, 1054.242 351.781, 1055.944 353.929 C 1057.645 356.077, 1060.190 360.459, 1061.599 363.667 C 1064.819 370.999, 1068.514 375, 1072.065 375 C 1079.587 375, 1078.108 362.910, 1069.223 351.768 C 1067.586 349.715, 1065.221 345.440, 1063.967 342.268 C 1062.714 339.095, 1059.977 334.233, 1057.886 331.461 C 1055.794 328.690, 1052.867 323.740, 1051.380 320.461 C 1049.894 317.183, 1046.788 311.800, 1044.479 308.500 C 1042.170 305.200, 1039.447 300.271, 1038.427 297.547 C 1037.407 294.823, 1035.020 290.560, 1033.123 288.073 C 1031.225 285.587, 1028.436 280.841, 1026.926 277.526 C 1025.415 274.212, 1022.725 269.503, 1020.947 267.062 C 1019.169 264.620, 1016.228 259.361, 1014.411 255.374 C 1012.594 251.387, 1009.547 246.398, 1007.640 244.287 C 1005.734 242.177, 1002.994 237.761, 1001.553 234.475 C 997.760 225.826, 992.980 223.335, 989.557 228.223 M 706.500 245.881 C 696.935 250.273, 696.971 253.905, 706.674 263.765 C 714.282 271.496, 716.477 275.837, 720.972 292.048 C 726.557 312.190, 727.269 314.115, 730.241 317.087 C 735.736 322.583, 745.779 319.992, 750.806 311.783 C 753.417 307.520, 754.603 302.884, 756.445 289.747 C 758.224 277.055, 759.495 274.265, 766.302 268.118 C 780.404 255.385, 781.767 252.506, 775.995 247.649 C 768.450 241.301, 754.448 243.004, 743.106 251.651 C 737.559 255.879, 736.197 255.846, 731.946 251.378 C 725.182 244.268, 714.865 242.039, 706.500 245.881 M 730.444 381.434 C 731.138 384.423, 733.097 389.035, 734.796 391.684 C 736.868 394.914, 738.575 399.685, 739.980 406.169 C 741.131 411.486, 743.898 420.678, 746.127 426.594 C 753.257 445.515, 753.293 445.873, 753.271 498.500 C 753.252 541.375, 753.067 546.641, 751.153 558.500 C 749.999 565.650, 748.090 577.575, 746.911 585 C 738.722 636.555, 737.462 638.482, 712.698 637.357 C 701.494 636.848, 696.506 637.067, 689.359 638.380 C 682.580 639.626, 675.215 640.012, 660.385 639.898 C 634.513 639.700, 626.753 643.078, 622.805 656.257 C 619.172 668.381, 647.222 673.930, 686.500 668.857 C 697.764 667.403, 699.885 667.379, 719.544 668.494 C 728.537 669.003, 740.448 668.852, 752.655 668.074 C 769.140 667.023, 774.547 667.086, 792.610 668.542 C 842.586 672.571, 849.642 667.195, 853.042 622.500 C 854.551 602.664, 856.195 597.985, 862.838 594.607 C 868.994 591.477, 869.678 591.596, 874.346 596.608 C 886.049 609.173, 895.256 595.052, 891.368 570.500 C 888.611 553.088, 907.202 542.857, 915.431 557.258 C 917.911 561.598, 922.068 566, 923.687 566 C 926.860 566, 923.459 558.032, 918.425 553.676 C 917.043 552.479, 914.211 548.350, 912.132 544.500 C 895.630 513.942, 874.747 524.336, 883 559 C 887.753 578.964, 887.129 583.226, 878.905 586.958 C 871.610 590.267, 872.786 590.940, 852.799 572.030 C 845.081 564.727, 844.689 564.119, 835.397 545.030 C 828.177 530.197, 824.807 524.395, 821.386 520.905 C 817.658 517.103, 816.561 515.068, 815.030 509.116 C 812.839 500.598, 811.141 497.751, 806.456 494.740 C 803.644 492.932, 802.582 491.254, 800.954 486.045 C 798.827 479.234, 796.657 476, 794.215 476 C 791.670 476, 793.279 484.394, 796.626 488.580 C 800.996 494.043, 801.795 495.856, 803.528 504.232 C 804.689 509.839, 806.211 513.585, 809.064 517.858 C 813 523.752, 813 523.752, 812.976 539.126 C 812.933 566.791, 810.603 569.279, 787.770 566.038 C 769.542 563.451, 766.431 558.735, 766.637 534 C 767.247 460.780, 767.394 459, 773.088 455.953 C 775.973 454.409, 777.700 455.347, 779.381 459.369 C 782.188 466.087, 788 469.591, 788 464.565 C 788 460.784, 786.224 456.990, 782.549 452.923 C 780.143 450.259, 778.842 447.529, 777.988 443.348 C 776.562 436.367, 767.554 418.938, 761.011 410.500 C 758.453 407.200, 755.372 402.861, 754.165 400.859 C 752.958 398.856, 749.923 395.539, 747.420 393.488 C 744.917 391.437, 741.686 387.900, 740.241 385.629 C 733.222 374.597, 728.371 372.520, 730.444 381.434 M 785.362 583.002 C 772.492 584.887, 769.607 590.559, 768.315 616.526 C 767.288 637.178, 768.682 638.257, 797.103 638.817 C 826.083 639.388, 826.341 639.151, 826.231 612 C 826.130 587.284, 823.566 581.664, 813.367 583.806 C 809.762 584.564, 806.556 584.476, 801 583.467 C 792.646 581.950, 792.561 581.948, 785.362 583.002" stroke="none" fill="#5d6271" fill-rule="evenodd"/><path d="M 38.500 29.501 C 33.628 31.227, 30.412 34.755, 29.029 39.894 C 26.707 48.514, 28.187 736.968, 30.535 740.965 C 31.655 742.870, 34.130 745.345, 36.035 746.465 C 41.519 749.686, 1230.481 749.686, 1235.965 746.465 C 1244.368 741.528, 1243.500 782.760, 1243.500 388.500 C 1243.500 -5.760, 1244.368 35.472, 1235.965 30.535 C 1231.398 27.853, 46.044 26.829, 38.500 29.501 M 692.500 194.663 C 678.761 197.625, 673.068 226.131, 680.283 255.840 C 681.799 262.087, 681.890 264.069, 680.893 269.138 C 677.957 284.061, 681.124 302.268, 687.654 308.001 C 690.769 310.736, 691.179 311.726, 691.916 318.304 C 692.881 326.908, 694.757 330.950, 699.443 334.524 C 701.994 336.470, 703.438 338.805, 705.010 343.531 C 706.985 349.466, 712.201 356, 714.964 356 C 715.456 356, 716.564 358.427, 717.426 361.394 C 719.672 369.120, 728 376.388, 728 370.622 C 728 366.318, 725.184 361.392, 720.556 357.600 C 718.050 355.546, 716 353.053, 716 352.059 C 716 348.248, 712.829 341.539, 709.135 337.531 C 706.430 334.596, 704.904 331.738, 704.008 327.926 C 702.353 320.891, 700.562 317.407, 696.074 312.497 C 692.447 308.530, 692.404 308.379, 691.187 295.497 C 690.140 284.417, 688.559 276.130, 685.419 265.259 C 685.020 263.877, 685.572 261.315, 686.858 258.579 C 688.575 254.925, 688.906 252.490, 688.727 244.820 C 688.016 214.387, 691.258 212.134, 735.884 212.056 C 783.416 211.974, 788.977 215.191, 787.739 242.061 C 787.118 255.526, 790.137 273.618, 793.863 278.759 C 797.880 284.303, 808.667 293.968, 814.500 297.251 C 831.638 306.896, 879.876 353.165, 888.215 367.957 C 891.540 373.854, 898.639 383.344, 905.766 391.418 C 908.153 394.122, 911.545 398.697, 913.303 401.584 C 917.390 408.294, 925.604 420.670, 931.501 429 C 939.795 440.715, 944.925 448.420, 947.735 453.383 C 949.256 456.069, 953.026 461.694, 956.113 465.883 C 959.201 470.073, 962.530 475.075, 963.511 477 C 964.492 478.925, 966.766 482.301, 968.564 484.501 C 970.362 486.702, 972.899 490.378, 974.201 492.670 C 975.502 494.962, 978.700 499.911, 981.305 503.669 C 990.250 516.566, 997.043 527.142, 1000.028 532.818 C 1001.672 535.943, 1003.866 539.981, 1004.904 541.790 C 1008.359 547.812, 1004.841 551.430, 997.803 549.094 C 993.896 547.797, 988.367 543.362, 972.126 528.500 C 956.090 513.825, 949.206 507.865, 945 505.013 C 943.075 503.708, 939.437 500.809, 936.916 498.570 C 929.861 492.307, 921.442 485.907, 914.413 481.467 C 910.902 479.249, 906.335 475.816, 904.265 473.837 C 902.194 471.858, 898.250 469.008, 895.500 467.504 C 892.750 466, 888.826 463.259, 886.780 461.414 C 884.733 459.569, 880.452 456.742, 877.265 455.134 C 874.078 453.525, 869.286 450.404, 866.616 448.198 C 863.947 445.992, 859.286 443.239, 856.259 442.081 C 853.232 440.922, 849.123 438.700, 847.128 437.142 C 845.133 435.584, 841.358 433.069, 838.739 431.553 C 836.120 430.037, 832.745 427.472, 831.239 425.853 C 829.733 424.233, 825.567 420.963, 821.981 418.585 C 818.396 416.208, 814.814 413.481, 814.022 412.526 C 813.229 411.571, 809.862 408.950, 806.540 406.701 C 793.650 397.976, 781.767 386.445, 777.995 379 C 776.741 376.525, 774.028 372.579, 771.965 370.232 C 758.993 355.465, 771.681 335.242, 795 333.517 C 811.013 332.332, 817.762 326.497, 808.274 322.040 C 783.634 310.465, 745.478 342.245, 757.213 364.567 C 764.369 378.179, 768.713 385.159, 772.418 389 C 774.806 391.475, 778.179 395.502, 779.914 397.948 C 783.277 402.688, 797.704 416.352, 805.062 421.765 C 814.281 428.546, 822.636 435.004, 826.500 438.334 C 828.700 440.230, 833.200 443.365, 836.500 445.299 C 839.800 447.234, 843.625 450.028, 845 451.509 C 846.375 452.989, 850.186 455.561, 853.468 457.225 C 856.751 458.888, 861.476 461.965, 863.968 464.061 C 866.461 466.157, 871.425 469.194, 875 470.810 C 878.575 472.425, 883.300 475.200, 885.500 476.975 C 887.700 478.751, 891.975 481.462, 895 483 C 898.025 484.538, 902.300 487.238, 904.500 489 C 906.700 490.762, 910.975 493.516, 914 495.120 C 920.629 498.634, 926.667 503.587, 942.500 518.497 C 949.100 524.712, 956.762 531.574, 959.526 533.745 C 965.852 538.714, 985.924 558.619, 992.370 566.315 C 995.048 569.513, 1005.623 579.934, 1015.870 589.473 C 1026.116 599.011, 1037.650 610.539, 1041.500 615.091 C 1045.350 619.643, 1051.070 626.117, 1054.211 629.478 C 1066.363 642.480, 1067.489 650.210, 1057.937 655.032 C 1051.579 658.242, 1050.036 660.134, 1051.924 662.408 C 1055.250 666.415, 1066.080 664.885, 1070.890 659.728 C 1081.919 647.902, 1081.843 648.170, 1077.907 635.193 C 1074.733 624.728, 1074.733 624.728, 1076.952 617.614 C 1080.346 606.732, 1076.346 597.984, 1060.005 580.548 C 1056.372 576.672, 1052.072 571.884, 1050.450 569.908 C 1048.827 567.933, 1044.125 562.343, 1040 557.487 C 1032.712 548.908, 1026.044 539.885, 1016.359 525.500 C 1013.767 521.650, 1010.207 516.700, 1008.448 514.500 C 1006.688 512.300, 1004.463 508.925, 1003.503 507 C 1001.715 503.416, 995.875 494.827, 985.825 481 C 982.704 476.705, 979.391 471.686, 978.462 469.846 C 977.533 468.006, 974.773 463.800, 972.329 460.500 C 969.884 457.200, 966.448 452.393, 964.692 449.817 C 962.936 447.241, 959.777 442.966, 957.671 440.317 C 955.566 437.668, 950.531 430.325, 946.484 424 C 942.436 417.675, 937.068 409.575, 934.554 406 C 927.407 395.833, 921.404 387.099, 916.441 379.643 C 913.930 375.872, 907.711 368.222, 902.619 362.643 C 897.528 357.064, 891.818 350.424, 889.931 347.886 C 878.349 332.311, 873.378 326.640, 859.752 313.456 C 842.943 297.194, 829.573 286.038, 820.488 280.694 C 808.754 273.791, 805.724 268.317, 804.054 251 C 802.642 236.353, 801.436 229.465, 798.541 219.500 C 797.263 215.100, 795.650 209.329, 794.958 206.676 C 793.455 200.920, 789.341 196.467, 784.209 195.041 C 780.633 194.048, 696.954 193.703, 692.500 194.663 M 147.721 196.351 C 136.998 199.390, 136.588 200.729, 134.958 238 C 133.747 265.699, 134.193 282.617, 136.105 281.435 C 140.735 278.574, 144.649 263.241, 146.044 242.500 C 148.010 213.266, 148.663 211.867, 160.655 211.189 C 173.776 210.448, 178.834 213.193, 184.796 224.293 C 186.925 228.257, 189.882 233.596, 191.368 236.159 C 193.272 239.443, 195.049 245.639, 197.390 257.159 C 199.217 266.146, 201.945 276.425, 203.453 280 C 208.352 291.613, 208.303 290.612, 208.683 388 C 208.882 438.875, 209.304 491.750, 209.622 505.500 C 210.785 555.804, 205.575 576.539, 195.445 561.921 C 193.947 559.760, 191.257 557.086, 189.467 555.980 C 186.551 554.177, 183 548.813, 183 546.209 C 183 545.665, 181.009 542.515, 178.576 539.210 C 176.142 535.904, 173.057 531.467, 171.720 529.350 C 168.808 524.738, 154.112 509.649, 148.500 505.508 C 146.300 503.885, 143.150 501.144, 141.500 499.415 C 139.850 497.687, 136.250 495.136, 133.500 493.745 C 121.373 487.612, 116.388 474.673, 119.450 457.274 C 122.697 438.828, 123.285 431.398, 123.390 407.500 C 123.500 382.500, 123.500 382.500, 127.225 375 C 134.836 359.674, 139.272 281.005, 132.282 285.326 C 126.768 288.733, 124.028 302.391, 122.918 332 C 121.406 372.364, 120.862 377.455, 117.234 385.218 C 112.088 396.228, 110.854 404.543, 109.992 434 C 109.345 456.084, 108.865 461.818, 107.108 468.410 C 103.241 482.920, 104.861 488.869, 113.930 493.465 C 116.682 494.859, 121.181 497.996, 123.928 500.436 C 126.675 502.876, 130.853 505.741, 133.212 506.803 C 135.570 507.865, 140.867 511.718, 144.981 515.367 C 149.096 519.015, 152.783 522, 153.175 522 C 153.567 522, 156.435 525.384, 159.548 529.520 C 162.661 533.657, 166.057 537.495, 167.095 538.051 C 168.133 538.606, 170.861 541.634, 173.157 544.780 C 175.453 547.926, 178.639 551.625, 180.236 553 C 182.314 554.789, 183.690 557.486, 185.071 562.482 C 186.133 566.322, 188.558 571.984, 190.459 575.065 C 195.785 583.694, 196.235 587.183, 196.897 625 C 197.627 666.761, 198.098 668.007, 213.151 667.996 C 223.829 667.989, 228.617 661.924, 227.654 649.626 C 227.347 645.707, 226.635 633.138, 226.073 621.696 C 225.511 610.253, 224.749 600.403, 224.381 599.807 C 223.600 598.544, 222.840 558.123, 222.474 498.500 C 222.332 475.400, 221.658 437.600, 220.977 414.500 C 220.296 391.400, 219.618 356.248, 219.471 336.384 C 219.186 297.825, 219.356 299.556, 212.965 270 C 211.954 265.325, 210.606 257, 209.969 251.500 C 208.656 240.156, 207.717 237.453, 202.262 229.303 C 200.126 226.111, 197.191 221.433, 195.739 218.906 C 194.287 216.380, 191.514 213.104, 189.577 211.627 C 187.640 210.149, 184.636 206.878, 182.903 204.359 C 177.491 196.493, 160.705 192.672, 147.721 196.351 M 410.888 197.457 C 405.750 200.333, 405.862 198.135, 405.675 300.182 C 405.457 419.146, 413.865 403.326, 350.500 404 C 290.730 404.636, 291.106 404.503, 292.484 424.458 C 293.826 443.878, 304.201 448.437, 309.684 432.016 C 312.930 422.294, 311.907 422.500, 357 422.500 C 412.268 422.500, 406.132 405.170, 405.901 560.597 C 405.735 673.275, 405.102 664.346, 413.477 667.544 C 419.155 669.713, 444.861 669.315, 449.410 666.988 C 457.109 663.051, 456.439 673.720, 457 546.178 C 457.623 404.438, 450.712 422.500, 504.324 422.500 C 551.049 422.500, 549.561 422.177, 553.334 433.137 C 558.811 449.050, 569.025 443.988, 569.751 425 C 570.540 404.364, 571.295 404.636, 511.500 404 C 448.788 403.333, 457 418.919, 457 300.567 C 457 200.256, 457.136 203.053, 452.035 198.500 C 449.043 195.829, 415.323 194.974, 410.888 197.457 M 425.505 214.250 C 420.293 218.748, 418.441 638.756, 423.602 645.668 C 427.806 651.299, 436.447 650.904, 439.531 644.941 C 441.767 640.615, 441.663 222.199, 439.424 217.480 C 436.771 211.889, 430.047 210.329, 425.505 214.250 M 1075.591 226.310 C 1071.885 229.020, 1073.555 236.053, 1080.215 245.788 C 1081.828 248.147, 1084.696 253.472, 1086.587 257.622 C 1088.478 261.772, 1091.101 266.592, 1092.416 268.334 C 1093.730 270.075, 1096.207 274.486, 1097.921 278.135 C 1099.634 281.785, 1102.441 286.510, 1104.157 288.635 C 1105.874 290.761, 1108.538 295.242, 1110.078 298.593 C 1111.618 301.945, 1114.548 306.875, 1116.590 309.550 C 1118.632 312.225, 1121.833 317.774, 1123.705 321.881 C 1125.577 325.989, 1128.428 331.016, 1130.041 333.052 C 1131.654 335.088, 1134.331 339.779, 1135.990 343.477 C 1137.649 347.174, 1139.995 351.588, 1141.203 353.286 C 1142.412 354.983, 1145.223 359.761, 1147.450 363.903 C 1154.226 376.503, 1167.852 381.263, 1165.413 370.178 C 1163.660 362.214, 1160.440 354.597, 1156.416 348.901 C 1153.929 345.380, 1151.050 340.603, 1150.018 338.283 C 1148.986 335.964, 1146.729 332.012, 1145.001 329.502 C 1143.274 326.991, 1140.700 322.363, 1139.282 319.218 C 1137.864 316.073, 1135.228 311.459, 1133.424 308.965 C 1131.621 306.471, 1128.569 300.971, 1126.643 296.743 C 1124.716 292.515, 1121.775 287.356, 1120.108 285.278 C 1118.440 283.200, 1115.439 278.133, 1113.437 274.017 C 1111.436 269.901, 1108.479 264.867, 1106.865 262.830 C 1105.252 260.793, 1102.637 256.285, 1101.056 252.813 C 1099.474 249.341, 1096.879 244.700, 1095.291 242.500 C 1093.702 240.300, 1090.732 235.734, 1088.691 232.353 C 1086.650 228.973, 1084.273 225.935, 1083.409 225.603 C 1080.829 224.614, 1077.499 224.914, 1075.591 226.310 M 989.557 228.223 C 986.745 232.236, 988.422 238.171, 994.313 245.053 C 996.164 247.215, 998.905 252.111, 1000.404 255.934 C 1001.904 259.757, 1004.636 264.855, 1006.474 267.262 C 1008.313 269.670, 1011.182 274.652, 1012.851 278.332 C 1014.520 282.012, 1017.444 286.930, 1019.350 289.262 C 1021.256 291.593, 1023.974 296.125, 1025.389 299.333 C 1026.805 302.541, 1029.311 306.867, 1030.957 308.946 C 1032.604 311.025, 1035.472 316.333, 1037.331 320.741 C 1039.190 325.149, 1041.860 330.273, 1043.263 332.128 C 1044.666 333.982, 1047.398 338.768, 1049.333 342.762 C 1051.267 346.756, 1054.242 351.781, 1055.944 353.929 C 1057.645 356.077, 1060.190 360.459, 1061.599 363.667 C 1064.819 370.999, 1068.514 375, 1072.065 375 C 1079.587 375, 1078.108 362.910, 1069.223 351.768 C 1067.586 349.715, 1065.221 345.440, 1063.967 342.268 C 1062.714 339.095, 1059.977 334.233, 1057.886 331.461 C 1055.794 328.690, 1052.867 323.740, 1051.380 320.461 C 1049.894 317.183, 1046.788 311.800, 1044.479 308.500 C 1042.170 305.200, 1039.447 300.271, 1038.427 297.547 C 1037.407 294.823, 1035.020 290.560, 1033.123 288.073 C 1031.225 285.587, 1028.436 280.841, 1026.926 277.526 C 1025.415 274.212, 1022.725 269.503, 1020.947 267.062 C 1019.169 264.620, 1016.228 259.361, 1014.411 255.374 C 1012.594 251.387, 1009.547 246.398, 1007.640 244.287 C 1005.734 242.177, 1002.994 237.761, 1001.553 234.475 C 997.760 225.826, 992.980 223.335, 989.557 228.223 M 706.500 245.881 C 696.935 250.273, 696.971 253.905, 706.674 263.765 C 714.282 271.496, 716.477 275.837, 720.972 292.048 C 726.557 312.190, 727.269 314.115, 730.241 317.087 C 735.736 322.583, 745.779 319.992, 750.806 311.783 C 753.417 307.520, 754.603 302.884, 756.445 289.747 C 758.224 277.055, 759.495 274.265, 766.302 268.118 C 780.404 255.385, 781.767 252.506, 775.995 247.649 C 768.450 241.301, 754.448 243.004, 743.106 251.651 C 737.559 255.879, 736.197 255.846, 731.946 251.378 C 725.182 244.268, 714.865 242.039, 706.500 245.881 M 730.444 381.434 C 731.138 384.423, 733.097 389.035, 734.796 391.684 C 736.868 394.914, 738.575 399.685, 739.980 406.169 C 741.131 411.486, 743.898 420.678, 746.127 426.594 C 753.257 445.515, 753.293 445.873, 753.271 498.500 C 753.252 541.375, 753.067 546.641, 751.153 558.500 C 749.999 565.650, 748.090 577.575, 746.911 585 C 738.722 636.555, 737.462 638.482, 712.698 637.357 C 701.494 636.848, 696.506 637.067, 689.359 638.380 C 682.580 639.626, 675.215 640.012, 660.385 639.898 C 634.513 639.700, 626.753 643.078, 622.805 656.257 C 619.172 668.381, 647.222 673.930, 686.500 668.857 C 697.764 667.403, 699.885 667.379, 719.544 668.494 C 728.537 669.003, 740.448 668.852, 752.655 668.074 C 769.140 667.023, 774.547 667.086, 792.610 668.542 C 842.586 672.571, 849.642 667.195, 853.042 622.500 C 854.551 602.664, 856.195 597.985, 862.838 594.607 C 868.994 591.477, 869.678 591.596, 874.346 596.608 C 886.049 609.173, 895.256 595.052, 891.368 570.500 C 888.611 553.088, 907.202 542.857, 915.431 557.258 C 917.911 561.598, 922.068 566, 923.687 566 C 926.860 566, 923.459 558.032, 918.425 553.676 C 917.043 552.479, 914.211 548.350, 912.132 544.500 C 895.630 513.942, 874.747 524.336, 883 559 C 887.753 578.964, 887.129 583.226, 878.905 586.958 C 871.610 590.267, 872.786 590.940, 852.799 572.030 C 845.081 564.727, 844.689 564.119, 835.397 545.030 C 828.177 530.197, 824.807 524.395, 821.386 520.905 C 817.658 517.103, 816.561 515.068, 815.030 509.116 C 812.839 500.598, 811.141 497.751, 806.456 494.740 C 803.644 492.932, 802.582 491.254, 800.954 486.045 C 798.827 479.234, 796.657 476, 794.215 476 C 791.670 476, 793.279 484.394, 796.626 488.580 C 800.996 494.043, 801.795 495.856, 803.528 504.232 C 804.689 509.839, 806.211 513.585, 809.064 517.858 C 813 523.752, 813 523.752, 812.976 539.126 C 812.933 566.791, 810.603 569.279, 787.770 566.038 C 769.542 563.451, 766.431 558.735, 766.637 534 C 767.247 460.780, 767.394 459, 773.088 455.953 C 775.973 454.409, 777.700 455.347, 779.381 459.369 C 782.188 466.087, 788 469.591, 788 464.565 C 788 460.784, 786.224 456.990, 782.549 452.923 C 780.143 450.259, 778.842 447.529, 777.988 443.348 C 776.562 436.367, 767.554 418.938, 761.011 410.500 C 758.453 407.200, 755.372 402.861, 754.165 400.859 C 752.958 398.856, 749.923 395.539, 747.420 393.488 C 744.917 391.437, 741.686 387.900, 740.241 385.629 C 733.222 374.597, 728.371 372.520, 730.444 381.434 M 785.362 583.002 C 772.492 584.887, 769.607 590.559, 768.315 616.526 C 767.288 637.178, 768.682 638.257, 797.103 638.817 C 826.083 639.388, 826.341 639.151, 826.231 612 C 826.130 587.284, 823.566 581.664, 813.367 583.806 C 809.762 584.564, 806.556 584.476, 801 583.467 C 792.646 581.950, 792.561 581.948, 785.362 583.002" stroke="none" fill="#f0f0f0" fill-rule="evenodd"/></svg>