<svg xmlns="http://www.w3.org/2000/svg" width="1226" height="1272" viewBox="0 0 1226 1272" version="1.1"><path d="M 393.500 148.996 C 375.625 150.502, 361.656 155.462, 357.041 161.942 C 353.317 167.172, 346.118 169.747, 330.476 171.441 C 309.004 173.766, 300.023 177.179, 294.258 185.204 C 290.107 190.982, 287.423 192.518, 278.017 194.496 C 268.813 196.433, 263.898 199.026, 259.819 204.097 C 257.994 206.366, 253.610 211.435, 250.078 215.362 C 246.546 219.288, 241.945 225.197, 239.854 228.494 C 236.753 233.385, 234.761 235.226, 229.038 238.494 C 209.682 249.548, 196.724 262.801, 193.464 274.878 C 191.325 282.801, 189.909 285.214, 186.058 287.500 C 179.481 291.404, 176.407 295.233, 174.017 302.500 C 171.097 311.381, 152.825 330.073, 140.599 336.686 C 134.854 339.794, 132.834 341.581, 129.690 346.336 C 124.789 353.748, 122.961 354.485, 104.767 356.388 C 75.961 359.402, 66.718 377.366, 88.200 388.589 C 92.676 390.927, 115.070 388.858, 131.837 384.557 C 150.292 379.823, 161.973 378.749, 171.498 380.912 C 180.059 382.857, 197.662 385.164, 214 386.484 C 224.136 387.303, 230.792 389.323, 236.668 393.366 C 248.393 401.431, 259.507 404.185, 287.500 405.960 C 296.850 406.553, 308.775 407.458, 314 407.972 C 319.225 408.486, 329.350 409.185, 336.500 409.524 C 358.899 410.587, 375.373 412.817, 384.341 415.999 C 416.975 427.578, 436.864 429.625, 501 428.006 C 580.721 425.993, 596.045 424.876, 617.500 419.515 C 624.650 417.728, 634.775 415.492, 640 414.546 C 645.225 413.600, 652.875 412.141, 657 411.304 C 662.048 410.280, 674.796 409.514, 696 408.960 C 724.058 408.227, 750.791 406.667, 755 405.516 C 755.825 405.291, 761.900 404.597, 768.500 403.974 C 787.790 402.155, 796.227 400.305, 811.309 394.589 C 828.208 388.185, 831.870 387.637, 872 385.515 C 887.675 384.686, 901.850 383.765, 903.500 383.469 C 917.786 380.902, 972.980 381.189, 999.500 383.967 C 1034.083 387.590, 1064.857 388.231, 1068.673 385.408 C 1079.983 377.039, 1078.060 361.507, 1065.289 358.082 C 1063.205 357.523, 1048.402 356.376, 1032.392 355.534 C 993.817 353.504, 991.094 352.939, 984 345.500 C 978.166 339.382, 969.669 336.386, 950 333.514 C 934.161 331.200, 927.873 328.653, 919.863 321.304 C 911.660 313.778, 909.710 312.746, 899.500 310.523 C 887.119 307.827, 880.408 304.694, 874.071 298.649 C 866.570 291.494, 863.667 290.150, 850.833 287.883 C 835.775 285.224, 832.652 283.798, 827.945 277.425 C 822.456 269.995, 818.509 267.310, 810.446 265.521 C 790.486 261.093, 786.445 259.331, 779.862 252.185 C 773.934 245.749, 769.413 243.495, 759.498 242.032 C 741.723 239.409, 737.004 237.671, 731.500 231.721 C 723.492 223.064, 716.515 220.389, 694.185 217.411 C 681.652 215.740, 677.402 213.915, 669.086 206.635 C 660.197 198.853, 656.555 197.359, 642 195.527 C 620.038 192.761, 619.561 192.601, 612.019 185.518 C 604.555 178.508, 601.344 177.203, 584.986 174.533 C 553.754 169.435, 547.055 167.383, 542.607 161.552 C 537.689 155.103, 526.529 151.875, 502.500 149.951 C 485.628 148.599, 406.447 147.906, 393.500 148.996 M 430 193.982 C 425.875 194.993, 415.525 196.784, 407 197.963 C 388.884 200.467, 386.057 201.628, 380.128 209 C 377.641 212.093, 372.799 216.336, 369.067 218.695 C 360.655 224.013, 359.117 226.814, 355.063 244.208 C 352.808 253.884, 350.711 260.112, 347.934 265.383 C 341.953 276.737, 342.297 279.868, 350.757 291.024 C 354.440 295.882, 358.106 306.574, 360.539 319.555 C 362.580 330.450, 363.739 332.256, 370.429 334.971 C 377.180 337.711, 380.310 341.019, 383.008 348.264 C 386.030 356.379, 387.615 357.014, 407.399 358.041 C 416.255 358.501, 426.650 359.621, 430.500 360.530 C 437.980 362.297, 442.259 362.125, 453.500 359.604 C 457.350 358.741, 464.100 358.012, 468.500 357.985 C 488.609 357.859, 492.635 356.271, 496.055 347.114 C 498.685 340.074, 500.141 338.468, 507.060 334.972 C 517.818 329.537, 519.824 319.487, 520.225 269 C 520.566 226.175, 520.078 224.160, 508.246 219.467 C 503.692 217.661, 501.086 214.978, 496.803 207.686 C 492.893 201.028, 489.131 199.504, 470.415 196.991 C 461.662 195.816, 451.800 194.219, 448.500 193.442 C 440.964 191.668, 439.241 191.718, 430 193.982 M 554.500 201.491 C 553.950 201.675, 552.224 202.108, 550.665 202.453 C 539.217 204.988, 542.327 225.482, 556.504 240.929 C 572.932 258.831, 572.773 288.471, 556.152 306.336 C 550.081 312.862, 549.660 313.759, 546.514 326.854 C 544.570 334.949, 542.104 338.353, 534.874 342.924 C 530.785 345.509, 527.598 348.682, 524.132 353.619 C 521.421 357.479, 518.102 361.358, 516.758 362.239 C 501.547 372.205, 506.958 382.952, 528.137 384.843 C 537.569 385.685, 572.152 384.532, 601 382.413 C 613.375 381.504, 634.975 380.613, 649 380.433 C 663.025 380.252, 679.225 379.641, 685 379.075 C 690.775 378.509, 702.250 377.542, 710.500 376.928 C 730.673 375.425, 743.503 373.004, 762.830 367.052 C 782.589 360.968, 791.294 359.765, 835.500 357.011 C 881.757 354.129, 887 353.163, 887 347.516 C 887 344.333, 883.972 341.603, 878.722 340.054 C 870.946 337.759, 864.947 333.764, 860.196 327.716 C 854.937 321.023, 844.971 315.550, 832.611 312.569 C 824.153 310.529, 821.494 309.188, 815.327 303.849 C 809.021 298.390, 802.010 295.378, 788.818 292.460 C 775.601 289.536, 773.238 288.356, 764.873 280.495 C 756.655 272.772, 750.027 269.493, 738.696 267.542 C 719.081 264.166, 714.689 262.435, 707.245 255.145 C 703.063 251.050, 701.233 250.002, 696.835 249.179 C 693.901 248.630, 685.640 247.085, 678.478 245.746 C 663.346 242.915, 659.687 241.390, 652.658 234.982 C 643.427 226.567, 635.956 223.656, 616.664 220.961 C 597.641 218.304, 595.436 217.530, 589.389 211.387 C 581.503 203.377, 563.855 198.371, 554.500 201.491 M 317.751 204.517 C 316.239 205.367, 313.877 208.283, 312.502 210.996 C 309.272 217.370, 308.754 217.600, 277.813 226.401 C 272.809 227.825, 271.605 228.707, 267.770 233.759 C 264.147 238.533, 262.410 239.881, 257.457 241.763 C 247.108 245.694, 246.675 246.059, 244.356 252.798 C 241.321 261.616, 239.853 263.439, 232.770 267.184 C 226.719 270.384, 226.436 270.709, 224.666 276.500 C 220.661 289.601, 217.799 293.511, 208.888 298.057 C 203.784 300.661, 200.779 306.816, 197.850 320.667 C 196.436 327.353, 194.527 332.780, 191.885 337.623 C 185.160 349.953, 187.742 352.603, 209.373 355.571 C 215.493 356.410, 222.075 357.545, 224 358.093 C 225.925 358.640, 235.249 359.714, 244.721 360.479 C 264.826 362.104, 277.349 365.108, 288.885 371.075 C 298.124 375.853, 303.096 376.628, 330.500 377.562 C 370.949 378.939, 373.485 372.226, 343.413 343.374 C 337.223 337.436, 335.302 334.768, 331.886 327.374 C 328.709 320.496, 326.480 317.263, 321.978 313 C 315.049 306.438, 314.446 304.657, 312.839 286 C 310.340 256.998, 314.440 237.784, 325.557 226.397 C 337.867 213.789, 331.751 196.646, 317.751 204.517 M 533.500 910.157 C 514.800 910.600, 490.950 911.516, 480.500 912.191 C 470.050 912.866, 457.225 913.318, 452 913.194 C 442.588 912.972, 438.755 913.319, 415.500 916.494 C 395.997 919.157, 388.975 920.790, 381.260 924.453 C 371.899 928.899, 367.413 929.652, 339.298 931.492 C 308.842 933.486, 279.160 936.867, 272 939.158 C 268.129 940.396, 264.508 942.700, 258.527 947.732 C 253.480 951.977, 247.506 953.646, 232.529 954.993 C 197.563 958.137, 188.057 960.748, 178.639 969.791 C 171.802 976.356, 172.092 976.223, 159.625 978.495 C 143.328 981.463, 134.714 985.580, 130.343 992.490 C 126.921 997.899, 124.153 999.533, 115.996 1000.957 C 87.959 1005.855, 81.602 1011.767, 80.220 1034.235 C 79.458 1046.641, 83.027 1051.862, 93.740 1054.008 C 102.070 1055.677, 107.029 1058.345, 111.300 1063.455 C 116.064 1069.153, 126.361 1074.198, 137.983 1076.527 C 149.529 1078.841, 150.638 1079.356, 156.972 1085.352 C 167.732 1095.538, 172.168 1097.258, 197.232 1100.960 C 211.952 1103.135, 217.039 1104.292, 220.982 1106.364 C 223.742 1107.814, 228.175 1110.145, 230.832 1111.544 C 238.152 1115.399, 269.226 1122.658, 284 1123.965 C 302.148 1125.571, 306.305 1126.509, 316.939 1131.396 C 329.866 1137.336, 338.818 1139.822, 351.682 1141.044 C 357.632 1141.609, 366.325 1142.536, 371 1143.104 C 381.798 1144.416, 427.289 1146.228, 454 1146.411 C 465.275 1146.488, 490.700 1147.070, 510.500 1147.704 C 530.300 1148.338, 559.550 1148.656, 575.500 1148.411 C 591.450 1148.165, 629.903 1147.755, 660.951 1147.499 C 691.999 1147.243, 721.859 1146.576, 727.307 1146.016 C 732.755 1145.457, 743.352 1144.998, 750.856 1144.996 C 758.360 1144.994, 768.719 1144.308, 773.875 1143.471 C 779.032 1142.635, 789.607 1141.282, 797.375 1140.465 C 813.317 1138.788, 816.048 1138.083, 824.500 1133.464 C 835.536 1127.431, 839.557 1126.556, 870.344 1123.481 C 891.279 1121.390, 907.039 1117.415, 916.104 1111.937 C 931.598 1102.576, 938.265 1100.627, 963.569 1098.068 C 976.058 1096.804, 979.827 1095.260, 986.911 1088.503 C 993.377 1082.336, 999.190 1079.739, 1012.788 1076.941 C 1025.113 1074.405, 1028.117 1072.857, 1034.126 1065.948 C 1039.378 1059.910, 1046.937 1055.867, 1061.328 1051.396 C 1074.086 1047.433, 1076.531 1037.553, 1068.683 1021.674 C 1062.902 1009.977, 1055.963 1005.604, 1036.652 1001.492 C 1029.244 999.914, 1028.460 999.481, 1022.652 993.771 C 1014.867 986.116, 1007.360 982.536, 993.634 979.934 C 980.978 977.535, 975.807 975.465, 967.296 969.391 C 956.204 961.477, 945.753 958.338, 921.330 955.585 C 903.872 953.617, 898.750 952.357, 894.299 948.934 C 885.523 942.184, 883.018 940.930, 873.484 938.509 C 866.680 936.782, 858.563 935.666, 848 935.008 C 839.475 934.477, 828.225 933.569, 823 932.991 C 817.775 932.414, 806.300 931.558, 797.500 931.090 C 781.830 930.257, 781.302 930.155, 771.913 926.135 C 748.275 916.013, 711.696 911.857, 643 911.488 C 624.575 911.389, 603.650 910.802, 596.500 910.183 C 589.350 909.564, 579.900 909.124, 575.500 909.204 C 571.100 909.285, 552.200 909.713, 533.500 910.157 M 534.500 943.698 C 531.200 943.875, 520.545 944.690, 510.822 945.509 C 501.100 946.329, 486.594 947, 478.587 947 C 464.632 947, 463.601 947.144, 453.653 950.472 C 444.892 953.403, 441.036 954.096, 428.888 954.920 C 420.975 955.457, 411.263 956.583, 407.307 957.422 C 403.350 958.262, 393.225 959.214, 384.807 959.539 C 376.388 959.863, 366.429 960.559, 362.676 961.085 C 358.923 961.611, 344.973 962.683, 331.676 963.468 C 303.031 965.160, 298.380 966.006, 292.707 970.563 C 285.281 976.528, 281.979 977.756, 267.440 979.956 C 259.773 981.116, 249.900 982.709, 245.500 983.497 C 241.100 984.285, 233 985.399, 227.500 985.972 C 209.076 987.892, 207.523 988.434, 199.875 995.618 C 196.118 999.146, 191.868 1002.480, 190.429 1003.027 C 185.147 1005.035, 172.756 1007.938, 164.836 1009.022 C 153.447 1010.582, 149.867 1012.247, 145.954 1017.807 C 144.137 1020.388, 140.519 1024.793, 137.915 1027.595 C 125.548 1040.902, 128.985 1046.003, 153 1049.980 C 169.554 1052.721, 171.922 1053.669, 178.939 1060.355 C 185.986 1067.070, 192.879 1069.521, 210.500 1071.577 C 242.024 1075.256, 246.105 1076.454, 260.741 1086.320 C 263.689 1088.307, 268.282 1090.314, 271.241 1090.907 C 283.408 1093.348, 303.340 1095.899, 315 1096.507 C 337.484 1097.679, 353.477 1100.404, 366.678 1105.312 C 380.364 1110.401, 379.555 1110.184, 397.648 1113.609 C 413.148 1116.543, 411.418 1116.485, 511 1117.433 C 627.387 1118.541, 734.517 1117.203, 747.500 1114.478 C 770.025 1109.752, 777.597 1107.883, 787.100 1104.703 C 802.719 1099.476, 804.236 1099.168, 819.588 1098.088 C 827.337 1097.544, 837.912 1096.432, 843.088 1095.618 C 848.265 1094.803, 856.147 1093.676, 860.605 1093.113 C 874.395 1091.372, 882.667 1089.074, 887.759 1085.572 C 900.564 1076.764, 910.316 1074.063, 933 1073.045 C 954.923 1072.060, 957.396 1071.327, 966.263 1063.190 C 974.465 1055.664, 980.598 1052.702, 992.669 1050.440 C 1014.934 1046.268, 1019.080 1041.604, 1010.429 1030.463 C 1007.915 1027.226, 1004.709 1022.147, 1003.304 1019.177 C 1000.073 1012.348, 997.133 1010.974, 979.500 1008.052 C 963.696 1005.434, 957.645 1002.863, 952.406 996.540 C 947.054 990.082, 942.969 988.231, 931.326 986.986 C 871.749 980.613, 873.597 980.988, 854.500 971.434 C 839.592 963.976, 835.479 963.007, 818.614 962.982 C 811.951 962.972, 802.225 962.305, 797 961.500 C 791.775 960.695, 781.200 960.026, 773.500 960.014 C 765.800 960.002, 755.408 959.328, 750.407 958.517 C 745.406 957.706, 734.831 956.564, 726.907 955.978 C 718.983 955.393, 708.900 954.087, 704.500 953.076 C 692.939 950.419, 692.010 950.291, 664 947.507 C 649.975 946.113, 636.700 944.539, 634.500 944.010 C 628.450 942.555, 603.931 942.813, 590.550 944.473 C 580.108 945.768, 577.337 945.769, 567.588 944.481 C 557.232 943.113, 549.082 942.920, 534.500 943.698" stroke="none" fill="#848589" fill-rule="evenodd"/><path d="M 38.500 29.501 C 33.630 31.226, 30.412 34.755, 29.031 39.885 C 26.703 48.530, 28.192 1231.975, 30.535 1235.965 C 31.655 1237.870, 34.130 1240.345, 36.035 1241.465 C 41.518 1244.686, 1184.482 1244.686, 1189.965 1241.465 C 1191.870 1240.345, 1194.345 1237.870, 1195.465 1235.965 C 1198.686 1230.481, 1198.686 41.519, 1195.465 36.035 C 1194.345 34.130, 1191.870 31.655, 1189.965 30.535 C 1185.398 27.852, 46.043 26.829, 38.500 29.501 M 393.500 148.996 C 375.625 150.502, 361.656 155.462, 357.041 161.942 C 353.317 167.172, 346.118 169.747, 330.476 171.441 C 309.004 173.766, 300.023 177.179, 294.258 185.204 C 290.107 190.982, 287.423 192.518, 278.017 194.496 C 268.813 196.433, 263.898 199.026, 259.819 204.097 C 257.994 206.366, 253.610 211.435, 250.078 215.362 C 246.546 219.288, 241.945 225.197, 239.854 228.494 C 236.753 233.385, 234.761 235.226, 229.038 238.494 C 209.682 249.548, 196.724 262.801, 193.464 274.878 C 191.325 282.801, 189.909 285.214, 186.058 287.500 C 179.481 291.404, 176.407 295.233, 174.017 302.500 C 171.097 311.381, 152.825 330.073, 140.599 336.686 C 134.854 339.794, 132.834 341.581, 129.690 346.336 C 124.789 353.748, 122.961 354.485, 104.767 356.388 C 75.961 359.402, 66.718 377.366, 88.200 388.589 C 92.676 390.927, 115.070 388.858, 131.837 384.557 C 150.292 379.823, 161.973 378.749, 171.498 380.912 C 180.059 382.857, 197.662 385.164, 214 386.484 C 224.136 387.303, 230.792 389.323, 236.668 393.366 C 248.393 401.431, 259.507 404.185, 287.500 405.960 C 296.850 406.553, 308.775 407.458, 314 407.972 C 319.225 408.486, 329.350 409.185, 336.500 409.524 C 358.899 410.587, 375.373 412.817, 384.341 415.999 C 416.975 427.578, 436.864 429.625, 501 428.006 C 580.721 425.993, 596.045 424.876, 617.500 419.515 C 624.650 417.728, 634.775 415.492, 640 414.546 C 645.225 413.600, 652.875 412.141, 657 411.304 C 662.048 410.280, 674.796 409.514, 696 408.960 C 724.058 408.227, 750.791 406.667, 755 405.516 C 755.825 405.291, 761.900 404.597, 768.500 403.974 C 787.790 402.155, 796.227 400.305, 811.309 394.589 C 828.208 388.185, 831.870 387.637, 872 385.515 C 887.675 384.686, 901.850 383.765, 903.500 383.469 C 917.786 380.902, 972.980 381.189, 999.500 383.967 C 1034.083 387.590, 1064.857 388.231, 1068.673 385.408 C 1079.983 377.039, 1078.060 361.507, 1065.289 358.082 C 1063.205 357.523, 1048.402 356.376, 1032.392 355.534 C 993.817 353.504, 991.094 352.939, 984 345.500 C 978.166 339.382, 969.669 336.386, 950 333.514 C 934.161 331.200, 927.873 328.653, 919.863 321.304 C 911.660 313.778, 909.710 312.746, 899.500 310.523 C 887.119 307.827, 880.408 304.694, 874.071 298.649 C 866.570 291.494, 863.667 290.150, 850.833 287.883 C 835.775 285.224, 832.652 283.798, 827.945 277.425 C 822.456 269.995, 818.509 267.310, 810.446 265.521 C 790.486 261.093, 786.445 259.331, 779.862 252.185 C 773.934 245.749, 769.413 243.495, 759.498 242.032 C 741.723 239.409, 737.004 237.671, 731.500 231.721 C 723.492 223.064, 716.515 220.389, 694.185 217.411 C 681.652 215.740, 677.402 213.915, 669.086 206.635 C 660.197 198.853, 656.555 197.359, 642 195.527 C 620.038 192.761, 619.561 192.601, 612.019 185.518 C 604.555 178.508, 601.344 177.203, 584.986 174.533 C 553.754 169.435, 547.055 167.383, 542.607 161.552 C 537.689 155.103, 526.529 151.875, 502.500 149.951 C 485.628 148.599, 406.447 147.906, 393.500 148.996 M 430 193.982 C 425.875 194.993, 415.525 196.784, 407 197.963 C 388.884 200.467, 386.057 201.628, 380.128 209 C 377.641 212.093, 372.799 216.336, 369.067 218.695 C 360.655 224.013, 359.117 226.814, 355.063 244.208 C 352.808 253.884, 350.711 260.112, 347.934 265.383 C 341.953 276.737, 342.297 279.868, 350.757 291.024 C 354.440 295.882, 358.106 306.574, 360.539 319.555 C 362.580 330.450, 363.739 332.256, 370.429 334.971 C 377.180 337.711, 380.310 341.019, 383.008 348.264 C 386.030 356.379, 387.615 357.014, 407.399 358.041 C 416.255 358.501, 426.650 359.621, 430.500 360.530 C 437.980 362.297, 442.259 362.125, 453.500 359.604 C 457.350 358.741, 464.100 358.012, 468.500 357.985 C 488.609 357.859, 492.635 356.271, 496.055 347.114 C 498.685 340.074, 500.141 338.468, 507.060 334.972 C 517.818 329.537, 519.824 319.487, 520.225 269 C 520.566 226.175, 520.078 224.160, 508.246 219.467 C 503.692 217.661, 501.086 214.978, 496.803 207.686 C 492.893 201.028, 489.131 199.504, 470.415 196.991 C 461.662 195.816, 451.800 194.219, 448.500 193.442 C 440.964 191.668, 439.241 191.718, 430 193.982 M 554.500 201.491 C 553.950 201.675, 552.224 202.108, 550.665 202.453 C 539.217 204.988, 542.327 225.482, 556.504 240.929 C 572.932 258.831, 572.773 288.471, 556.152 306.336 C 550.081 312.862, 549.660 313.759, 546.514 326.854 C 544.570 334.949, 542.104 338.353, 534.874 342.924 C 530.785 345.509, 527.598 348.682, 524.132 353.619 C 521.421 357.479, 518.102 361.358, 516.758 362.239 C 501.547 372.205, 506.958 382.952, 528.137 384.843 C 537.569 385.685, 572.152 384.532, 601 382.413 C 613.375 381.504, 634.975 380.613, 649 380.433 C 663.025 380.252, 679.225 379.641, 685 379.075 C 690.775 378.509, 702.250 377.542, 710.500 376.928 C 730.673 375.425, 743.503 373.004, 762.830 367.052 C 782.589 360.968, 791.294 359.765, 835.500 357.011 C 881.757 354.129, 887 353.163, 887 347.516 C 887 344.333, 883.972 341.603, 878.722 340.054 C 870.946 337.759, 864.947 333.764, 860.196 327.716 C 854.937 321.023, 844.971 315.550, 832.611 312.569 C 824.153 310.529, 821.494 309.188, 815.327 303.849 C 809.021 298.390, 802.010 295.378, 788.818 292.460 C 775.601 289.536, 773.238 288.356, 764.873 280.495 C 756.655 272.772, 750.027 269.493, 738.696 267.542 C 719.081 264.166, 714.689 262.435, 707.245 255.145 C 703.063 251.050, 701.233 250.002, 696.835 249.179 C 693.901 248.630, 685.640 247.085, 678.478 245.746 C 663.346 242.915, 659.687 241.390, 652.658 234.982 C 643.427 226.567, 635.956 223.656, 616.664 220.961 C 597.641 218.304, 595.436 217.530, 589.389 211.387 C 581.503 203.377, 563.855 198.371, 554.500 201.491 M 317.751 204.517 C 316.239 205.367, 313.877 208.283, 312.502 210.996 C 309.272 217.370, 308.754 217.600, 277.813 226.401 C 272.809 227.825, 271.605 228.707, 267.770 233.759 C 264.147 238.533, 262.410 239.881, 257.457 241.763 C 247.108 245.694, 246.675 246.059, 244.356 252.798 C 241.321 261.616, 239.853 263.439, 232.770 267.184 C 226.719 270.384, 226.436 270.709, 224.666 276.500 C 220.661 289.601, 217.799 293.511, 208.888 298.057 C 203.784 300.661, 200.779 306.816, 197.850 320.667 C 196.436 327.353, 194.527 332.780, 191.885 337.623 C 185.160 349.953, 187.742 352.603, 209.373 355.571 C 215.493 356.410, 222.075 357.545, 224 358.093 C 225.925 358.640, 235.249 359.714, 244.721 360.479 C 264.826 362.104, 277.349 365.108, 288.885 371.075 C 298.124 375.853, 303.096 376.628, 330.500 377.562 C 370.949 378.939, 373.485 372.226, 343.413 343.374 C 337.223 337.436, 335.302 334.768, 331.886 327.374 C 328.709 320.496, 326.480 317.263, 321.978 313 C 315.049 306.438, 314.446 304.657, 312.839 286 C 310.340 256.998, 314.440 237.784, 325.557 226.397 C 337.867 213.789, 331.751 196.646, 317.751 204.517 M 533.500 910.157 C 514.800 910.600, 490.950 911.516, 480.500 912.191 C 470.050 912.866, 457.225 913.318, 452 913.194 C 442.588 912.972, 438.755 913.319, 415.500 916.494 C 395.997 919.157, 388.975 920.790, 381.260 924.453 C 371.899 928.899, 367.413 929.652, 339.298 931.492 C 308.842 933.486, 279.160 936.867, 272 939.158 C 268.129 940.396, 264.508 942.700, 258.527 947.732 C 253.480 951.977, 247.506 953.646, 232.529 954.993 C 197.563 958.137, 188.057 960.748, 178.639 969.791 C 171.802 976.356, 172.092 976.223, 159.625 978.495 C 143.328 981.463, 134.714 985.580, 130.343 992.490 C 126.921 997.899, 124.153 999.533, 115.996 1000.957 C 87.959 1005.855, 81.602 1011.767, 80.220 1034.235 C 79.458 1046.641, 83.027 1051.862, 93.740 1054.008 C 102.070 1055.677, 107.029 1058.345, 111.300 1063.455 C 116.064 1069.153, 126.361 1074.198, 137.983 1076.527 C 149.529 1078.841, 150.638 1079.356, 156.972 1085.352 C 167.732 1095.538, 172.168 1097.258, 197.232 1100.960 C 211.952 1103.135, 217.039 1104.292, 220.982 1106.364 C 223.742 1107.814, 228.175 1110.145, 230.832 1111.544 C 238.152 1115.399, 269.226 1122.658, 284 1123.965 C 302.148 1125.571, 306.305 1126.509, 316.939 1131.396 C 329.866 1137.336, 338.818 1139.822, 351.682 1141.044 C 357.632 1141.609, 366.325 1142.536, 371 1143.104 C 381.798 1144.416, 427.289 1146.228, 454 1146.411 C 465.275 1146.488, 490.700 1147.070, 510.500 1147.704 C 530.300 1148.338, 559.550 1148.656, 575.500 1148.411 C 591.450 1148.165, 629.903 1147.755, 660.951 1147.499 C 691.999 1147.243, 721.859 1146.576, 727.307 1146.016 C 732.755 1145.457, 743.352 1144.998, 750.856 1144.996 C 758.360 1144.994, 768.719 1144.308, 773.875 1143.471 C 779.032 1142.635, 789.607 1141.282, 797.375 1140.465 C 813.317 1138.788, 816.048 1138.083, 824.500 1133.464 C 835.536 1127.431, 839.557 1126.556, 870.344 1123.481 C 891.279 1121.390, 907.039 1117.415, 916.104 1111.937 C 931.598 1102.576, 938.265 1100.627, 963.569 1098.068 C 976.058 1096.804, 979.827 1095.260, 986.911 1088.503 C 993.377 1082.336, 999.190 1079.739, 1012.788 1076.941 C 1025.113 1074.405, 1028.117 1072.857, 1034.126 1065.948 C 1039.378 1059.910, 1046.937 1055.867, 1061.328 1051.396 C 1074.086 1047.433, 1076.531 1037.553, 1068.683 1021.674 C 1062.902 1009.977, 1055.963 1005.604, 1036.652 1001.492 C 1029.244 999.914, 1028.460 999.481, 1022.652 993.771 C 1014.867 986.116, 1007.360 982.536, 993.634 979.934 C 980.978 977.535, 975.807 975.465, 967.296 969.391 C 956.204 961.477, 945.753 958.338, 921.330 955.585 C 903.872 953.617, 898.750 952.357, 894.299 948.934 C 885.523 942.184, 883.018 940.930, 873.484 938.509 C 866.680 936.782, 858.563 935.666, 848 935.008 C 839.475 934.477, 828.225 933.569, 823 932.991 C 817.775 932.414, 806.300 931.558, 797.500 931.090 C 781.830 930.257, 781.302 930.155, 771.913 926.135 C 748.275 916.013, 711.696 911.857, 643 911.488 C 624.575 911.389, 603.650 910.802, 596.500 910.183 C 589.350 909.564, 579.900 909.124, 575.500 909.204 C 571.100 909.285, 552.200 909.713, 533.500 910.157 M 534.500 943.698 C 531.200 943.875, 520.545 944.690, 510.822 945.509 C 501.100 946.329, 486.594 947, 478.587 947 C 464.632 947, 463.601 947.144, 453.653 950.472 C 444.892 953.403, 441.036 954.096, 428.888 954.920 C 420.975 955.457, 411.263 956.583, 407.307 957.422 C 403.350 958.262, 393.225 959.214, 384.807 959.539 C 376.388 959.863, 366.429 960.559, 362.676 961.085 C 358.923 961.611, 344.973 962.683, 331.676 963.468 C 303.031 965.160, 298.380 966.006, 292.707 970.563 C 285.281 976.528, 281.979 977.756, 267.440 979.956 C 259.773 981.116, 249.900 982.709, 245.500 983.497 C 241.100 984.285, 233 985.399, 227.500 985.972 C 209.076 987.892, 207.523 988.434, 199.875 995.618 C 196.118 999.146, 191.868 1002.480, 190.429 1003.027 C 185.147 1005.035, 172.756 1007.938, 164.836 1009.022 C 153.447 1010.582, 149.867 1012.247, 145.954 1017.807 C 144.137 1020.388, 140.519 1024.793, 137.915 1027.595 C 125.548 1040.902, 128.985 1046.003, 153 1049.980 C 169.554 1052.721, 171.922 1053.669, 178.939 1060.355 C 185.986 1067.070, 192.879 1069.521, 210.500 1071.577 C 242.024 1075.256, 246.105 1076.454, 260.741 1086.320 C 263.689 1088.307, 268.282 1090.314, 271.241 1090.907 C 283.408 1093.348, 303.340 1095.899, 315 1096.507 C 337.484 1097.679, 353.477 1100.404, 366.678 1105.312 C 380.364 1110.401, 379.555 1110.184, 397.648 1113.609 C 413.148 1116.543, 411.418 1116.485, 511 1117.433 C 627.387 1118.541, 734.517 1117.203, 747.500 1114.478 C 770.025 1109.752, 777.597 1107.883, 787.100 1104.703 C 802.719 1099.476, 804.236 1099.168, 819.588 1098.088 C 827.337 1097.544, 837.912 1096.432, 843.088 1095.618 C 848.265 1094.803, 856.147 1093.676, 860.605 1093.113 C 874.395 1091.372, 882.667 1089.074, 887.759 1085.572 C 900.564 1076.764, 910.316 1074.063, 933 1073.045 C 954.923 1072.060, 957.396 1071.327, 966.263 1063.190 C 974.465 1055.664, 980.598 1052.702, 992.669 1050.440 C 1014.934 1046.268, 1019.080 1041.604, 1010.429 1030.463 C 1007.915 1027.226, 1004.709 1022.147, 1003.304 1019.177 C 1000.073 1012.348, 997.133 1010.974, 979.500 1008.052 C 963.696 1005.434, 957.645 1002.863, 952.406 996.540 C 947.054 990.082, 942.969 988.231, 931.326 986.986 C 871.749 980.613, 873.597 980.988, 854.500 971.434 C 839.592 963.976, 835.479 963.007, 818.614 962.982 C 811.951 962.972, 802.225 962.305, 797 961.500 C 791.775 960.695, 781.200 960.026, 773.500 960.014 C 765.800 960.002, 755.408 959.328, 750.407 958.517 C 745.406 957.706, 734.831 956.564, 726.907 955.978 C 718.983 955.393, 708.900 954.087, 704.500 953.076 C 692.939 950.419, 692.010 950.291, 664 947.507 C 649.975 946.113, 636.700 944.539, 634.500 944.010 C 628.450 942.555, 603.931 942.813, 590.550 944.473 C 580.108 945.768, 577.337 945.769, 567.588 944.481 C 557.232 943.113, 549.082 942.920, 534.500 943.698" stroke="none" fill="#f7f7f7" fill-rule="evenodd"/></svg>