<svg xmlns="http://www.w3.org/2000/svg" width="1272" height="745" viewBox="0 0 1272 745" version="1.1"><path d="M 1024.081 121.719 C 1011.143 126.288, 989.123 152.973, 986.216 167.604 C 984.791 174.778, 982.980 180.094, 979.972 185.936 C 973.273 198.947, 973.308 206.660, 980.100 214.376 C 993.448 229.541, 996.467 241.725, 988.111 246.707 C 985.147 248.474, 978.637 253.875, 973.644 258.710 C 968.650 263.544, 962.928 268.861, 960.927 270.524 C 958.927 272.187, 954.297 277.137, 950.639 281.524 C 917.460 321.313, 914.805 323.052, 904.386 311.827 C 902.249 309.525, 896.900 304.243, 892.500 300.090 C 865.750 274.844, 863.715 272.207, 855.372 252 C 850.966 241.328, 831.672 225.034, 825.139 226.469 C 817.432 228.162, 816.140 233.686, 819.755 249.500 C 820.886 254.450, 822.087 260.123, 822.424 262.106 C 823.299 267.255, 827.845 273.624, 839.736 286.358 C 845.458 292.486, 853.370 301.503, 857.320 306.395 C 861.269 311.287, 866.994 318.037, 870.042 321.395 C 873.090 324.753, 878.250 330.875, 881.510 335 C 913.356 375.307, 924.199 374.921, 958.297 332.268 C 976.377 309.651, 983.310 310.194, 987.039 334.522 C 988.133 341.660, 990.357 352.484, 991.981 358.576 C 1000.074 388.932, 1001.317 408.479, 997.020 437.787 C 994.958 451.852, 994.845 452.231, 991.677 455.750 C 986.744 461.230, 982.469 458.754, 966.974 441.440 C 965.034 439.273, 961.085 435.552, 958.197 433.171 C 955.309 430.790, 951.166 426.485, 948.990 423.603 C 946.814 420.721, 942.889 416.828, 940.267 414.952 C 937.645 413.076, 931.442 408.134, 926.482 403.972 C 909.625 389.823, 891.626 387.281, 881.822 397.664 C 867.196 413.153, 864.175 424.716, 869.978 443 C 871.113 446.575, 873.141 456.535, 874.486 465.133 C 875.831 473.731, 878.554 487.006, 880.538 494.633 C 885.431 513.448, 885.289 522.575, 880 529.141 C 871.538 539.648, 855.117 562.057, 854.533 563.895 C 853.421 567.399, 848.341 570.723, 839.785 573.546 C 801.754 586.091, 807.905 615.548, 846.176 604.157 C 862.978 599.155, 865.791 598.918, 900 599.605 C 936.037 600.330, 957.866 598.992, 992.065 593.966 C 1020.278 589.819, 1046.711 590.710, 1066.562 596.476 C 1071.195 597.822, 1091.197 602.148, 1108.500 605.546 C 1132.049 610.171, 1149.153 603.083, 1144.977 590.431 C 1143.442 585.780, 1139.852 583.515, 1130.044 581.011 C 1125.453 579.839, 1119.627 577.845, 1117.098 576.579 C 1114.569 575.313, 1109.455 573.276, 1105.732 572.052 C 1088.216 566.289, 1082.168 557.626, 1087.565 546.031 C 1091.838 536.851, 1093.807 509.345, 1091.093 496.737 C 1087.712 481.029, 1090.576 401.136, 1094.930 389.684 C 1097.798 382.140, 1113.421 383.126, 1130.912 391.955 C 1171.619 412.504, 1196.371 392.767, 1176.227 355.821 C 1174.032 351.794, 1171.682 346.700, 1171.006 344.500 C 1170.330 342.300, 1168.218 337.666, 1166.313 334.201 C 1164.407 330.737, 1161.762 324.710, 1160.434 320.807 C 1159.107 316.905, 1156.779 311.654, 1155.261 309.139 C 1152.527 304.610, 1147.023 294.127, 1139.082 278.324 C 1132.048 264.327, 1118.330 251.904, 1099.339 242.333 C 1077.518 231.336, 1076.313 229.336, 1085.924 220.073 C 1095.566 210.780, 1100.460 195.499, 1099.826 176.668 C 1098.578 139.569, 1057.635 109.868, 1024.081 121.719 M 116.655 122.426 C 105.311 126.567, 103.312 132.532, 100.543 170.500 C 98.801 194.393, 99.051 192.243, 95.070 217.500 C 91.598 239.530, 90.615 248.568, 88.494 278 C 87.641 289.825, 85.600 308.201, 83.958 318.835 C 70.115 408.502, 74.303 438.048, 102.896 452.448 C 106.634 454.330, 110.999 456.958, 112.596 458.287 C 114.193 459.616, 117.525 461.947, 120 463.468 C 126.400 467.400, 131.479 472.502, 136.534 480.077 C 138.948 483.694, 144.103 489.637, 147.990 493.283 C 161.918 506.349, 165.111 517.633, 163.118 546.739 C 160.313 587.697, 160.370 590.859, 164.009 596.271 C 173.429 610.283, 191.773 608.337, 196.907 592.782 C 199.636 584.512, 196.030 464.266, 189.987 362 C 186.659 305.689, 186.263 297.006, 184.980 252 C 183.916 214.693, 182.431 202.301, 176.606 182.117 C 171.955 166, 171.127 164.377, 163.747 156.897 C 160.164 153.266, 154.766 146.966, 151.751 142.897 C 139.185 125.937, 126.811 118.719, 116.655 122.426 M 484 122.012 C 464.979 123.827, 463.077 124.466, 446.199 134.720 C 440.024 138.472, 425 152.833, 425 154.984 C 425 155.414, 422.075 157.670, 418.501 159.999 C 410.791 165.023, 406.507 169.651, 403.867 175.810 C 402.803 178.293, 400.390 182.425, 398.506 184.992 C 394.081 191.020, 393.192 193.429, 390.941 205.500 C 389.915 211, 388.427 218.519, 387.634 222.210 C 385.508 232.104, 387.137 237.500, 393.583 241.916 C 396.913 244.198, 396.913 244.198, 495.206 244.478 C 549.268 244.632, 596.132 245.082, 599.348 245.477 C 615.282 247.437, 622.112 237.510, 614.085 224.060 C 611.797 220.226, 609.679 215.007, 608.987 211.500 C 608.335 208.200, 606.338 202.125, 604.549 198 C 602.760 193.875, 600.489 188.050, 599.503 185.056 C 598.233 181.198, 595.932 177.678, 591.605 172.971 C 588.247 169.318, 582.653 162.651, 579.173 158.157 C 575.693 153.662, 571.193 148.758, 569.173 147.259 C 567.153 145.760, 563.475 142.921, 561 140.951 C 545.286 128.442, 533.259 123.820, 513 122.505 C 495.789 121.388, 491.340 121.312, 484 122.012 M 482 138.111 C 471.720 139.016, 464.806 140.892, 458.509 144.486 C 456.304 145.745, 452.250 147.507, 449.500 148.402 C 438.384 152.019, 426.841 163.419, 418.916 178.608 C 416.077 184.049, 413.101 189.739, 412.302 191.253 C 407.784 199.821, 407.249 218.006, 411.400 221.906 C 416.290 226.500, 576.404 228.267, 586.170 223.835 C 592.947 220.759, 593.913 211.682, 588.582 201.162 C 587.130 198.296, 584.603 191.794, 582.967 186.714 C 579.759 176.750, 575.238 170.142, 566.856 163.167 C 564.432 161.150, 560.657 157.700, 558.465 155.500 C 544.498 141.477, 516.388 135.085, 482 138.111 M 1034.500 138.523 C 1033.400 138.727, 1029.399 139.185, 1025.610 139.541 C 1001.583 141.801, 1017.418 166.145, 1044.408 168.440 C 1057.251 169.532, 1062.633 173.776, 1061.591 181.989 C 1058.643 205.214, 1060.310 212, 1068.965 212 C 1074.629 212, 1075.767 209.849, 1080.033 191.077 C 1088.233 154.991, 1068.516 132.235, 1034.500 138.523 M 123.524 147.385 C 120.242 150.667, 119.270 155.102, 118.019 172.500 C 116.054 199.833, 114.958 210.273, 111.511 234.500 C 109.633 247.700, 107.391 268.625, 106.528 281 C 104.677 307.539, 103.872 314.563, 99.937 338.500 C 96.734 357.987, 92.576 405.657, 93.203 415.713 C 93.590 421.926, 93.590 421.926, 110.045 438.213 C 119.095 447.171, 128.965 457.712, 131.979 461.637 C 134.992 465.563, 139.042 469.830, 140.979 471.119 C 142.915 472.409, 149.037 477.832, 154.583 483.171 C 164.480 492.699, 167.445 494.499, 172.147 493.833 C 177.780 493.035, 177.801 490.811, 173.009 402.500 C 170.332 353.172, 169.213 324.046, 168.016 272.500 C 166.265 197.147, 166.801 204.900, 162.551 193.500 C 160.501 188, 157.947 179.015, 156.876 173.533 C 152.831 152.824, 133.355 137.554, 123.524 147.385 M 1024.570 188.336 C 1018.528 194.773, 1016.031 196.030, 1007.941 196.708 C 996.920 197.632, 995.182 200.521, 1000.546 209 C 1004.003 214.464, 1007.319 217.001, 1012.939 218.484 C 1028.221 222.515, 1032.425 240.319, 1020.071 248.695 C 1009.165 256.090, 1001.670 260.217, 994.759 262.633 C 985.295 265.942, 974.643 274.047, 969.225 282.062 C 957.351 299.626, 940.459 318.904, 924.750 332.819 C 912.767 343.433, 912.434 345, 922.156 345 C 926.861 345, 934.326 338.572, 943.640 326.500 C 946.610 322.650, 951.521 316.575, 954.552 313 C 957.584 309.425, 962.293 303.548, 965.017 299.939 C 985.239 273.152, 1000.997 282.749, 1004.089 323.733 C 1004.638 331.011, 1005.974 340.236, 1007.058 344.233 C 1015.990 377.154, 1018.601 404.511, 1015.386 431.500 C 1011.321 465.628, 1011.335 465.089, 1014.470 468 C 1018.852 472.068, 1027.027 471.310, 1045.825 465.096 C 1068.700 457.533, 1069.367 456.774, 1071.052 436.359 C 1071.636 429.286, 1072.534 420.800, 1073.048 417.500 C 1078.559 382.124, 1075.240 368.324, 1059.805 362.425 C 1050.145 358.734, 1039.765 349.015, 1035.102 339.295 C 1032.586 334.050, 1029.819 330.561, 1022.971 324 C 1013.057 314.500, 1011.554 311.444, 1014.691 307.163 C 1021.881 297.350, 1039.288 299.330, 1048.500 311.007 C 1053.287 317.076, 1066.913 328.990, 1071.106 330.773 C 1076.738 333.168, 1080.322 330.313, 1085.735 319.116 C 1097.349 295.095, 1110.213 288.967, 1123.591 301.082 C 1132.429 309.086, 1133.975 301.454, 1126.219 288.109 C 1124.107 284.474, 1121.536 279.557, 1120.507 277.183 C 1116.062 266.927, 1099.864 257.213, 1082.500 254.390 C 1060.058 250.741, 1057.243 248.737, 1051.597 232.394 C 1050.288 228.602, 1047.785 221.969, 1046.036 217.653 C 1043.141 210.509, 1042.861 208.867, 1042.919 199.349 C 1043.018 183.128, 1034.345 177.922, 1024.570 188.336 M 1103.285 320.687 C 1100.967 324.225, 1101.071 333.239, 1103.487 338.332 C 1107.858 347.543, 1121.333 348.182, 1121.333 339.179 C 1121.333 325.783, 1108.537 312.672, 1103.285 320.687 M 913.400 424.400 C 908.343 429.457, 909.730 438.497, 918.429 457.165 C 922.057 464.950, 923.962 474.769, 923.983 485.782 C 924.019 505.265, 932.637 509.461, 950.047 498.470 C 952.399 496.986, 957.480 494.697, 961.337 493.385 C 981.695 486.461, 981.359 478.222, 959.734 454.118 C 957.079 451.158, 954.066 447.108, 953.039 445.118 C 950.602 440.397, 943.481 433.296, 938.761 430.883 C 936.704 429.831, 932.247 427.177, 928.856 424.985 C 921.093 419.968, 917.951 419.849, 913.400 424.400 M 275 459.121 C 261.583 464.455, 265.825 479.092, 283 486.728 C 292.570 490.982, 295.859 499.880, 289.535 504.409 C 262.317 523.905, 259.660 537.100, 279.474 554.380 C 292.289 565.557, 301.091 567.840, 318.681 564.550 C 340.390 560.490, 339.118 560.596, 345.124 562.345 C 348.217 563.246, 352.942 565.541, 355.624 567.445 C 358.306 569.349, 362.678 572.165, 365.340 573.704 C 368.003 575.242, 373.033 578.525, 376.519 581 C 399.681 597.444, 398.445 596.803, 414 600.414 C 437.665 605.907, 448.410 606.123, 479.500 601.729 C 519.683 596.051, 531.009 595.285, 551 596.888 C 558.975 597.527, 571.350 598.505, 578.500 599.060 C 606.385 601.224, 615.798 602.277, 623.500 604.095 C 663.817 613.611, 742.122 599.019, 741.968 582.018 C 741.876 571.846, 739.839 571.440, 690.904 571.839 C 644.664 572.217, 638.835 571.694, 624.146 565.859 C 619.941 564.189, 612.450 562.169, 607.500 561.371 C 602.550 560.574, 594.225 558.616, 589 557.020 C 572.842 552.087, 563.912 550.126, 552.845 549.078 C 546.985 548.523, 539.256 547.600, 535.671 547.027 C 531.123 546.301, 526.936 546.306, 521.826 547.045 C 517.797 547.628, 509.412 548.528, 503.193 549.046 C 496.411 549.611, 484.154 551.793, 472.571 554.496 C 437.599 562.658, 418.380 560.204, 399.414 545.153 C 396.711 543.009, 391.177 539.617, 387.116 537.615 C 377.542 532.897, 373.585 529.922, 362.534 519.137 C 357.523 514.247, 350.860 508.606, 347.725 506.601 C 337.399 499.995, 339.334 493.309, 353.646 486.151 C 367.984 478.978, 371.852 466.398, 361.656 460.097 C 354.526 455.690, 346.388 458.121, 334.387 468.246 C 319.156 481.094, 315.972 481.042, 299.182 467.664 C 288.709 459.320, 281.184 456.662, 275 459.121 M 1048.026 483.088 C 1045.015 484.157, 1037.365 486.114, 1031.026 487.438 C 1024.687 488.761, 1016.575 491.178, 1013 492.807 C 1009.425 494.437, 1002.900 496.497, 998.500 497.384 C 993.624 498.368, 986.949 500.759, 981.407 503.505 C 976.406 505.984, 969.066 509.117, 965.097 510.467 C 961.128 511.817, 955.545 514.246, 952.690 515.865 C 949.836 517.484, 944.350 519.742, 940.500 520.882 C 936.650 522.023, 931.250 524.475, 928.500 526.333 C 925.750 528.190, 920.961 530.910, 917.857 532.377 C 892.551 544.337, 903.159 564.469, 929.525 554.520 C 951.194 546.343, 1007.050 546.336, 1030.111 554.508 C 1062.020 565.815, 1078.034 548.862, 1074.078 507.966 C 1071.856 485.003, 1063.939 477.442, 1048.026 483.088 M 293.123 518.961 C 281.878 521.752, 278.835 536.719, 287.772 545.282 C 292.871 550.167, 313.757 551.318, 328 547.499 C 339.778 544.340, 348.156 546.699, 361.510 556.934 C 365.145 559.720, 368.516 562, 369 562 C 369.484 562, 372.744 564.195, 376.243 566.877 C 390.753 577.998, 399.396 581.363, 415.323 582.092 C 423.120 582.449, 431.300 583.306, 433.500 583.996 C 439.751 585.957, 488.256 583.599, 501.500 580.691 C 515.913 577.526, 528.336 576.602, 539.786 577.842 C 563.313 580.391, 584.817 579.056, 580.814 575.295 C 571.392 566.444, 537.311 562.015, 505.500 565.509 C 485.665 567.687, 481.425 568.576, 475.058 571.890 C 455.692 581.968, 426.314 581.588, 412.551 571.080 C 409.773 568.959, 405.025 565.995, 402 564.493 C 390.888 558.978, 382.221 552.341, 370 539.990 C 349.221 518.990, 348.464 518.671, 318.500 518.355 C 306.400 518.227, 294.980 518.500, 293.123 518.961 M 880.557 560.223 C 875.928 566.831, 884.339 580.462, 893.797 581.679 C 905.013 583.123, 908.165 578.189, 901.458 569.688 C 893.477 559.571, 884.015 555.286, 880.557 560.223 M 961.367 567.449 C 943.362 569.174, 932.630 573.619, 938.104 577.086 C 943.240 580.337, 996.630 574.916, 1002.622 570.534 C 1007.665 566.847, 985.192 565.167, 961.367 567.449" stroke="none" fill="#8d8e92" fill-rule="evenodd"/><path d="M 38.500 29.501 C 33.627 31.227, 30.412 34.755, 29.028 39.895 C 26.708 48.511, 28.187 704.967, 30.535 708.965 C 31.655 710.870, 34.130 713.345, 36.035 714.465 C 41.519 717.686, 1230.481 717.686, 1235.965 714.465 C 1244.363 709.531, 1243.500 748.680, 1243.500 372.500 C 1243.500 -3.680, 1244.363 35.469, 1235.965 30.535 C 1231.398 27.853, 46.044 26.829, 38.500 29.501 M 1024.081 121.719 C 1011.143 126.288, 989.123 152.973, 986.216 167.604 C 984.791 174.778, 982.980 180.094, 979.972 185.936 C 973.273 198.947, 973.308 206.660, 980.100 214.376 C 993.448 229.541, 996.467 241.725, 988.111 246.707 C 985.147 248.474, 978.637 253.875, 973.644 258.710 C 968.650 263.544, 962.928 268.861, 960.927 270.524 C 958.927 272.187, 954.297 277.137, 950.639 281.524 C 917.460 321.313, 914.805 323.052, 904.386 311.827 C 902.249 309.525, 896.900 304.243, 892.500 300.090 C 865.750 274.844, 863.715 272.207, 855.372 252 C 850.966 241.328, 831.672 225.034, 825.139 226.469 C 817.432 228.162, 816.140 233.686, 819.755 249.500 C 820.886 254.450, 822.087 260.123, 822.424 262.106 C 823.299 267.255, 827.845 273.624, 839.736 286.358 C 845.458 292.486, 853.370 301.503, 857.320 306.395 C 861.269 311.287, 866.994 318.037, 870.042 321.395 C 873.090 324.753, 878.250 330.875, 881.510 335 C 913.356 375.307, 924.199 374.921, 958.297 332.268 C 976.377 309.651, 983.310 310.194, 987.039 334.522 C 988.133 341.660, 990.357 352.484, 991.981 358.576 C 1000.074 388.932, 1001.317 408.479, 997.020 437.787 C 994.958 451.852, 994.845 452.231, 991.677 455.750 C 986.744 461.230, 982.469 458.754, 966.974 441.440 C 965.034 439.273, 961.085 435.552, 958.197 433.171 C 955.309 430.790, 951.166 426.485, 948.990 423.603 C 946.814 420.721, 942.889 416.828, 940.267 414.952 C 937.645 413.076, 931.442 408.134, 926.482 403.972 C 909.625 389.823, 891.626 387.281, 881.822 397.664 C 867.196 413.153, 864.175 424.716, 869.978 443 C 871.113 446.575, 873.141 456.535, 874.486 465.133 C 875.831 473.731, 878.554 487.006, 880.538 494.633 C 885.431 513.448, 885.289 522.575, 880 529.141 C 871.538 539.648, 855.117 562.057, 854.533 563.895 C 853.421 567.399, 848.341 570.723, 839.785 573.546 C 801.754 586.091, 807.905 615.548, 846.176 604.157 C 862.978 599.155, 865.791 598.918, 900 599.605 C 936.037 600.330, 957.866 598.992, 992.065 593.966 C 1020.278 589.819, 1046.711 590.710, 1066.562 596.476 C 1071.195 597.822, 1091.197 602.148, 1108.500 605.546 C 1132.049 610.171, 1149.153 603.083, 1144.977 590.431 C 1143.442 585.780, 1139.852 583.515, 1130.044 581.011 C 1125.453 579.839, 1119.627 577.845, 1117.098 576.579 C 1114.569 575.313, 1109.455 573.276, 1105.732 572.052 C 1088.216 566.289, 1082.168 557.626, 1087.565 546.031 C 1091.838 536.851, 1093.807 509.345, 1091.093 496.737 C 1087.712 481.029, 1090.576 401.136, 1094.930 389.684 C 1097.798 382.140, 1113.421 383.126, 1130.912 391.955 C 1171.619 412.504, 1196.371 392.767, 1176.227 355.821 C 1174.032 351.794, 1171.682 346.700, 1171.006 344.500 C 1170.330 342.300, 1168.218 337.666, 1166.313 334.201 C 1164.407 330.737, 1161.762 324.710, 1160.434 320.807 C 1159.107 316.905, 1156.779 311.654, 1155.261 309.139 C 1152.527 304.610, 1147.023 294.127, 1139.082 278.324 C 1132.048 264.327, 1118.330 251.904, 1099.339 242.333 C 1077.518 231.336, 1076.313 229.336, 1085.924 220.073 C 1095.566 210.780, 1100.460 195.499, 1099.826 176.668 C 1098.578 139.569, 1057.635 109.868, 1024.081 121.719 M 116.655 122.426 C 105.311 126.567, 103.312 132.532, 100.543 170.500 C 98.801 194.393, 99.051 192.243, 95.070 217.500 C 91.598 239.530, 90.615 248.568, 88.494 278 C 87.641 289.825, 85.600 308.201, 83.958 318.835 C 70.115 408.502, 74.303 438.048, 102.896 452.448 C 106.634 454.330, 110.999 456.958, 112.596 458.287 C 114.193 459.616, 117.525 461.947, 120 463.468 C 126.400 467.400, 131.479 472.502, 136.534 480.077 C 138.948 483.694, 144.103 489.637, 147.990 493.283 C 161.918 506.349, 165.111 517.633, 163.118 546.739 C 160.313 587.697, 160.370 590.859, 164.009 596.271 C 173.429 610.283, 191.773 608.337, 196.907 592.782 C 199.636 584.512, 196.030 464.266, 189.987 362 C 186.659 305.689, 186.263 297.006, 184.980 252 C 183.916 214.693, 182.431 202.301, 176.606 182.117 C 171.955 166, 171.127 164.377, 163.747 156.897 C 160.164 153.266, 154.766 146.966, 151.751 142.897 C 139.185 125.937, 126.811 118.719, 116.655 122.426 M 484 122.012 C 464.979 123.827, 463.077 124.466, 446.199 134.720 C 440.024 138.472, 425 152.833, 425 154.984 C 425 155.414, 422.075 157.670, 418.501 159.999 C 410.791 165.023, 406.507 169.651, 403.867 175.810 C 402.803 178.293, 400.390 182.425, 398.506 184.992 C 394.081 191.020, 393.192 193.429, 390.941 205.500 C 389.915 211, 388.427 218.519, 387.634 222.210 C 385.508 232.104, 387.137 237.500, 393.583 241.916 C 396.913 244.198, 396.913 244.198, 495.206 244.478 C 549.268 244.632, 596.132 245.082, 599.348 245.477 C 615.282 247.437, 622.112 237.510, 614.085 224.060 C 611.797 220.226, 609.679 215.007, 608.987 211.500 C 608.335 208.200, 606.338 202.125, 604.549 198 C 602.760 193.875, 600.489 188.050, 599.503 185.056 C 598.233 181.198, 595.932 177.678, 591.605 172.971 C 588.247 169.318, 582.653 162.651, 579.173 158.157 C 575.693 153.662, 571.193 148.758, 569.173 147.259 C 567.153 145.760, 563.475 142.921, 561 140.951 C 545.286 128.442, 533.259 123.820, 513 122.505 C 495.789 121.388, 491.340 121.312, 484 122.012 M 482 138.111 C 471.720 139.016, 464.806 140.892, 458.509 144.486 C 456.304 145.745, 452.250 147.507, 449.500 148.402 C 438.384 152.019, 426.841 163.419, 418.916 178.608 C 416.077 184.049, 413.101 189.739, 412.302 191.253 C 407.784 199.821, 407.249 218.006, 411.400 221.906 C 416.290 226.500, 576.404 228.267, 586.170 223.835 C 592.947 220.759, 593.913 211.682, 588.582 201.162 C 587.130 198.296, 584.603 191.794, 582.967 186.714 C 579.759 176.750, 575.238 170.142, 566.856 163.167 C 564.432 161.150, 560.657 157.700, 558.465 155.500 C 544.498 141.477, 516.388 135.085, 482 138.111 M 1034.500 138.523 C 1033.400 138.727, 1029.399 139.185, 1025.610 139.541 C 1001.583 141.801, 1017.418 166.145, 1044.408 168.440 C 1057.251 169.532, 1062.633 173.776, 1061.591 181.989 C 1058.643 205.214, 1060.310 212, 1068.965 212 C 1074.629 212, 1075.767 209.849, 1080.033 191.077 C 1088.233 154.991, 1068.516 132.235, 1034.500 138.523 M 123.524 147.385 C 120.242 150.667, 119.270 155.102, 118.019 172.500 C 116.054 199.833, 114.958 210.273, 111.511 234.500 C 109.633 247.700, 107.391 268.625, 106.528 281 C 104.677 307.539, 103.872 314.563, 99.937 338.500 C 96.734 357.987, 92.576 405.657, 93.203 415.713 C 93.590 421.926, 93.590 421.926, 110.045 438.213 C 119.095 447.171, 128.965 457.712, 131.979 461.637 C 134.992 465.563, 139.042 469.830, 140.979 471.119 C 142.915 472.409, 149.037 477.832, 154.583 483.171 C 164.480 492.699, 167.445 494.499, 172.147 493.833 C 177.780 493.035, 177.801 490.811, 173.009 402.500 C 170.332 353.172, 169.213 324.046, 168.016 272.500 C 166.265 197.147, 166.801 204.900, 162.551 193.500 C 160.501 188, 157.947 179.015, 156.876 173.533 C 152.831 152.824, 133.355 137.554, 123.524 147.385 M 1024.570 188.336 C 1018.528 194.773, 1016.031 196.030, 1007.941 196.708 C 996.920 197.632, 995.182 200.521, 1000.546 209 C 1004.003 214.464, 1007.319 217.001, 1012.939 218.484 C 1028.221 222.515, 1032.425 240.319, 1020.071 248.695 C 1009.165 256.090, 1001.670 260.217, 994.759 262.633 C 985.295 265.942, 974.643 274.047, 969.225 282.062 C 957.351 299.626, 940.459 318.904, 924.750 332.819 C 912.767 343.433, 912.434 345, 922.156 345 C 926.861 345, 934.326 338.572, 943.640 326.500 C 946.610 322.650, 951.521 316.575, 954.552 313 C 957.584 309.425, 962.293 303.548, 965.017 299.939 C 985.239 273.152, 1000.997 282.749, 1004.089 323.733 C 1004.638 331.011, 1005.974 340.236, 1007.058 344.233 C 1015.990 377.154, 1018.601 404.511, 1015.386 431.500 C 1011.321 465.628, 1011.335 465.089, 1014.470 468 C 1018.852 472.068, 1027.027 471.310, 1045.825 465.096 C 1068.700 457.533, 1069.367 456.774, 1071.052 436.359 C 1071.636 429.286, 1072.534 420.800, 1073.048 417.500 C 1078.559 382.124, 1075.240 368.324, 1059.805 362.425 C 1050.145 358.734, 1039.765 349.015, 1035.102 339.295 C 1032.586 334.050, 1029.819 330.561, 1022.971 324 C 1013.057 314.500, 1011.554 311.444, 1014.691 307.163 C 1021.881 297.350, 1039.288 299.330, 1048.500 311.007 C 1053.287 317.076, 1066.913 328.990, 1071.106 330.773 C 1076.738 333.168, 1080.322 330.313, 1085.735 319.116 C 1097.349 295.095, 1110.213 288.967, 1123.591 301.082 C 1132.429 309.086, 1133.975 301.454, 1126.219 288.109 C 1124.107 284.474, 1121.536 279.557, 1120.507 277.183 C 1116.062 266.927, 1099.864 257.213, 1082.500 254.390 C 1060.058 250.741, 1057.243 248.737, 1051.597 232.394 C 1050.288 228.602, 1047.785 221.969, 1046.036 217.653 C 1043.141 210.509, 1042.861 208.867, 1042.919 199.349 C 1043.018 183.128, 1034.345 177.922, 1024.570 188.336 M 1103.285 320.687 C 1100.967 324.225, 1101.071 333.239, 1103.487 338.332 C 1107.858 347.543, 1121.333 348.182, 1121.333 339.179 C 1121.333 325.783, 1108.537 312.672, 1103.285 320.687 M 913.400 424.400 C 908.343 429.457, 909.730 438.497, 918.429 457.165 C 922.057 464.950, 923.962 474.769, 923.983 485.782 C 924.019 505.265, 932.637 509.461, 950.047 498.470 C 952.399 496.986, 957.480 494.697, 961.337 493.385 C 981.695 486.461, 981.359 478.222, 959.734 454.118 C 957.079 451.158, 954.066 447.108, 953.039 445.118 C 950.602 440.397, 943.481 433.296, 938.761 430.883 C 936.704 429.831, 932.247 427.177, 928.856 424.985 C 921.093 419.968, 917.951 419.849, 913.400 424.400 M 275 459.121 C 261.583 464.455, 265.825 479.092, 283 486.728 C 292.570 490.982, 295.859 499.880, 289.535 504.409 C 262.317 523.905, 259.660 537.100, 279.474 554.380 C 292.289 565.557, 301.091 567.840, 318.681 564.550 C 340.390 560.490, 339.118 560.596, 345.124 562.345 C 348.217 563.246, 352.942 565.541, 355.624 567.445 C 358.306 569.349, 362.678 572.165, 365.340 573.704 C 368.003 575.242, 373.033 578.525, 376.519 581 C 399.681 597.444, 398.445 596.803, 414 600.414 C 437.665 605.907, 448.410 606.123, 479.500 601.729 C 519.683 596.051, 531.009 595.285, 551 596.888 C 558.975 597.527, 571.350 598.505, 578.500 599.060 C 606.385 601.224, 615.798 602.277, 623.500 604.095 C 663.817 613.611, 742.122 599.019, 741.968 582.018 C 741.876 571.846, 739.839 571.440, 690.904 571.839 C 644.664 572.217, 638.835 571.694, 624.146 565.859 C 619.941 564.189, 612.450 562.169, 607.500 561.371 C 602.550 560.574, 594.225 558.616, 589 557.020 C 572.842 552.087, 563.912 550.126, 552.845 549.078 C 546.985 548.523, 539.256 547.600, 535.671 547.027 C 531.123 546.301, 526.936 546.306, 521.826 547.045 C 517.797 547.628, 509.412 548.528, 503.193 549.046 C 496.411 549.611, 484.154 551.793, 472.571 554.496 C 437.599 562.658, 418.380 560.204, 399.414 545.153 C 396.711 543.009, 391.177 539.617, 387.116 537.615 C 377.542 532.897, 373.585 529.922, 362.534 519.137 C 357.523 514.247, 350.860 508.606, 347.725 506.601 C 337.399 499.995, 339.334 493.309, 353.646 486.151 C 367.984 478.978, 371.852 466.398, 361.656 460.097 C 354.526 455.690, 346.388 458.121, 334.387 468.246 C 319.156 481.094, 315.972 481.042, 299.182 467.664 C 288.709 459.320, 281.184 456.662, 275 459.121 M 1048.026 483.088 C 1045.015 484.157, 1037.365 486.114, 1031.026 487.438 C 1024.687 488.761, 1016.575 491.178, 1013 492.807 C 1009.425 494.437, 1002.900 496.497, 998.500 497.384 C 993.624 498.368, 986.949 500.759, 981.407 503.505 C 976.406 505.984, 969.066 509.117, 965.097 510.467 C 961.128 511.817, 955.545 514.246, 952.690 515.865 C 949.836 517.484, 944.350 519.742, 940.500 520.882 C 936.650 522.023, 931.250 524.475, 928.500 526.333 C 925.750 528.190, 920.961 530.910, 917.857 532.377 C 892.551 544.337, 903.159 564.469, 929.525 554.520 C 951.194 546.343, 1007.050 546.336, 1030.111 554.508 C 1062.020 565.815, 1078.034 548.862, 1074.078 507.966 C 1071.856 485.003, 1063.939 477.442, 1048.026 483.088 M 293.123 518.961 C 281.878 521.752, 278.835 536.719, 287.772 545.282 C 292.871 550.167, 313.757 551.318, 328 547.499 C 339.778 544.340, 348.156 546.699, 361.510 556.934 C 365.145 559.720, 368.516 562, 369 562 C 369.484 562, 372.744 564.195, 376.243 566.877 C 390.753 577.998, 399.396 581.363, 415.323 582.092 C 423.120 582.449, 431.300 583.306, 433.500 583.996 C 439.751 585.957, 488.256 583.599, 501.500 580.691 C 515.913 577.526, 528.336 576.602, 539.786 577.842 C 563.313 580.391, 584.817 579.056, 580.814 575.295 C 571.392 566.444, 537.311 562.015, 505.500 565.509 C 485.665 567.687, 481.425 568.576, 475.058 571.890 C 455.692 581.968, 426.314 581.588, 412.551 571.080 C 409.773 568.959, 405.025 565.995, 402 564.493 C 390.888 558.978, 382.221 552.341, 370 539.990 C 349.221 518.990, 348.464 518.671, 318.500 518.355 C 306.400 518.227, 294.980 518.500, 293.123 518.961 M 880.557 560.223 C 875.928 566.831, 884.339 580.462, 893.797 581.679 C 905.013 583.123, 908.165 578.189, 901.458 569.688 C 893.477 559.571, 884.015 555.286, 880.557 560.223 M 961.367 567.449 C 943.362 569.174, 932.630 573.619, 938.104 577.086 C 943.240 580.337, 996.630 574.916, 1002.622 570.534 C 1007.665 566.847, 985.192 565.167, 961.367 567.449" stroke="none" fill="#f3f4f4" fill-rule="evenodd"/></svg>