<svg xmlns="http://www.w3.org/2000/svg" width="1272" height="943" viewBox="0 0 1272 943" version="1.1"><path d="M 93.867 139.992 C 76.527 147.039, 74.204 150.890, 71.502 177.072 C 69.818 193.390, 68.475 198.760, 63.462 209.220 C 59.339 217.823, 59.197 220.821, 62.500 229.596 C 65.523 237.627, 65.610 240.915, 63 248.500 C 60.329 256.264, 60.486 261.362, 63.600 268 C 68.634 278.730, 71.875 287.786, 73.473 295.592 C 74.364 299.941, 76.066 306.650, 77.255 310.500 C 79.927 319.152, 80.065 333.211, 77.579 343.500 C 76.234 349.069, 75.702 358.777, 74.977 391 C 74.477 413.275, 73.613 436, 73.059 441.500 C 70.853 463.400, 72.444 508.632, 75.975 524.391 C 77.552 531.426, 79.379 534.366, 84.844 538.661 C 87.531 540.772, 91.328 545.060, 93.283 548.188 C 102.552 563.026, 92.943 562.246, 275.500 562.975 C 464.095 563.728, 453.322 564.527, 469.845 548.563 C 480.375 538.388, 481.684 535.754, 484.588 518.889 C 485.900 511.268, 488.195 502.086, 489.729 498.313 C 493.857 488.163, 493.778 473.525, 489.542 463.500 C 486.584 456.500, 486.584 456.500, 485.679 411.500 C 483.510 303.524, 483.667 300.768, 492.599 289.880 C 501.653 278.842, 504.781 248.425, 501.066 207.553 C 497.972 173.506, 480.678 139, 466.709 139 C 453.594 139, 445.482 145.057, 441.930 157.500 C 438.314 170.168, 437.791 171.473, 435.224 174.220 C 433.553 176.009, 429.500 178.001, 423.392 180.036 C 405.302 186.063, 403.140 189.354, 401.761 212.953 C 399.515 251.397, 402.744 273.122, 412.528 285.400 C 415.470 289.092, 418.638 294.225, 419.566 296.806 C 420.495 299.388, 422.660 305.100, 424.378 309.500 C 427.687 317.979, 430.053 476.802, 427.025 487.205 C 424.106 497.234, 417.212 500.499, 400.811 499.618 C 369.481 497.936, 334.434 497.860, 320.500 499.444 C 283.992 503.592, 283.877 503.595, 262.841 500.970 C 241.274 498.278, 203.722 497.666, 164.500 499.367 C 131.989 500.777, 135.128 511.110, 135.056 402.432 C 134.992 304.196, 134.466 310.566, 143.560 299.472 C 150.850 290.578, 152.425 287.296, 155.881 273.804 C 157.473 267.587, 160.463 258.225, 162.524 253 C 175.833 219.266, 159.011 176.655, 133.426 179.295 C 128.062 179.849, 124.056 178.134, 123.980 175.250 C 123.357 151.656, 108.363 134.101, 93.867 139.992 M 795.437 146.274 C 775.052 158.306, 774.102 160.017, 771.995 188.500 C 770.340 210.880, 767.240 220.101, 759.072 226.940 C 756.318 229.246, 752.474 233.750, 750.530 236.950 C 747.675 241.651, 745.989 243.247, 741.748 245.266 C 735.633 248.178, 732.171 251.194, 728.733 256.607 C 725.886 261.087, 724.038 262.778, 718.586 265.891 C 698.888 277.138, 656.615 324.963, 656.615 336 C 656.615 348.991, 685.101 380.558, 701.819 386.096 C 710.246 388.887, 712.176 390.156, 715.401 395.030 C 718.847 400.238, 726.231 403.734, 742.770 407.989 C 758.530 412.044, 768.225 427.503, 771.531 453.852 C 774.431 476.965, 774.646 477.824, 780.064 487.818 C 786.017 498.799, 786.733 501.312, 789.042 519.326 C 791.321 537.108, 794.265 547.490, 799.442 556 C 808.486 570.866, 806.681 606.981, 796.653 611.827 C 787.251 616.370, 777.949 613.951, 772.588 605.570 C 769.466 600.690, 768.039 599.508, 761.558 596.432 C 755.606 593.606, 753.399 591.902, 750.544 587.928 C 748.580 585.195, 744.599 581.439, 741.696 579.583 C 736.558 576.296, 730.766 570.625, 727.580 565.762 C 724.567 561.165, 711.975 554.956, 689.156 546.818 C 678.940 543.175, 650.286 556.810, 644.453 568.092 C 641.015 574.739, 639.895 606.939, 642.804 615.500 C 647.654 629.774, 651.257 644.665, 653.069 657.932 C 656.031 679.613, 657.836 684.932, 665.500 694.576 C 673.692 704.884, 668.171 717.489, 643.432 744.959 C 640.645 748.054, 636.297 753.782, 633.770 757.688 C 628.682 765.554, 626.495 766.795, 611.231 770.473 C 598.843 773.458, 594.688 777.732, 592.879 789.346 C 589.617 810.303, 604.599 816.382, 640 808.466 C 652.314 805.712, 664.512 805.485, 674.521 807.824 C 692.918 812.122, 719.717 812.752, 771.500 810.104 C 792.813 809.015, 813.524 805.160, 827.576 799.667 C 854.446 789.164, 912.229 790.612, 937.667 802.427 C 970.984 817.900, 1010.586 814.509, 1010.310 796.206 C 1010.084 781.246, 1002.659 775.799, 976.594 771.474 C 953.860 767.702, 953.239 767.417, 947.280 758 C 945.365 754.975, 941.807 750.767, 939.373 748.650 C 931.214 741.551, 931.508 743.336, 931.435 700.500 C 931.395 676.650, 930.933 659.707, 930.196 655 C 929.550 650.875, 928.319 641.650, 927.460 634.500 C 926.601 627.350, 924.964 617.900, 923.822 613.500 C 921.100 603.013, 921.126 591.207, 923.896 579.904 C 925.054 575.176, 926.442 564.826, 926.981 556.904 C 927.519 548.982, 928.399 540.025, 928.935 537 C 929.472 533.975, 930.405 525.425, 931.007 518 C 933.029 493.085, 933.593 492.364, 946.548 498.130 C 966.478 506.999, 969.979 521.656, 969.992 596.289 C 970 644.188, 969.380 655.639, 965.932 671.239 C 964.624 677.158, 964.002 683.775, 964.008 691.739 C 964.034 733.456, 974.564 738.116, 1018 715.635 C 1028.701 710.096, 1030.562 701.292, 1026.060 677.500 C 1023.871 665.931, 1024.467 615.043, 1027.045 593.526 C 1028.516 581.243, 1028.189 534.676, 1026.490 514.461 C 1023.342 477.013, 1021.428 467.646, 1013.989 453.277 C 1009.896 445.371, 1008.538 441.415, 1006.895 432.604 C 1003.816 416.095, 1001.952 411.961, 994.791 405.759 C 990.365 401.926, 987.980 398.873, 985.996 394.500 C 982.770 387.389, 981.224 385.873, 973.894 382.632 C 969.964 380.894, 966.845 378.439, 963.153 374.177 C 955.948 365.860, 952.491 364.835, 922.697 362.184 C 906.591 360.750, 904.573 358.002, 907.406 341.363 C 909.809 327.253, 912.365 320.053, 917.780 312.144 C 924.687 302.055, 925.258 300.111, 925.781 284.874 C 926.492 264.162, 924.646 256.042, 917.407 248.029 C 909.092 238.825, 905.571 220.956, 908.987 205.303 C 911.619 193.244, 912.249 191.770, 916.957 186.663 C 924.909 178.036, 928.785 164.738, 925.301 158.034 C 921.282 150.299, 913.116 149.109, 863.500 149.029 C 838.833 148.990, 834.548 148.744, 827.500 146.968 C 814.238 143.626, 800.429 143.327, 795.437 146.274 M 839.212 175.129 C 821.305 180.293, 837.220 208.104, 859.023 209.745 C 878.253 211.193, 893.578 194.159, 885.919 179.849 C 883.106 174.592, 851.981 171.446, 839.212 175.129 M 851.274 242.131 C 848.098 243.809, 841.917 246.494, 837.538 248.098 C 822.136 253.741, 818.485 258.267, 825.250 263.331 C 832.756 268.949, 834.614 269.433, 851 270.027 C 870.710 270.743, 880.694 273.503, 888.896 280.504 C 897.658 287.983, 902.183 284.973, 900.560 272.744 C 899.121 261.892, 892.723 254.939, 879.577 249.941 C 875.135 248.252, 869.025 245.393, 866 243.588 C 857.969 238.796, 857.649 238.764, 851.274 242.131 M 726.942 292.948 C 722.014 294.443, 720.394 295.890, 718.058 300.875 C 715.583 306.160, 712.818 307.949, 704.910 309.381 C 700.032 310.264, 697.657 313.151, 694.531 322 C 689.182 337.141, 689.135 335.188, 695.137 347.500 C 701.029 359.585, 700.518 359.133, 714 364.160 C 720.891 366.729, 723.636 368.418, 728.500 373.080 C 734.008 378.361, 735.269 379.048, 743.892 381.471 C 755.686 384.785, 761.629 387.784, 768.279 393.776 C 771.709 396.867, 775.550 399.176, 779.390 400.456 C 790.110 404.030, 792.985 409.046, 792.994 424.199 C 793.007 444.411, 796.454 461.866, 803.124 475.500 C 808.057 485.583, 808.718 488.127, 812.421 511.271 C 813.468 517.813, 815.501 524.753, 818.573 532.271 C 829.110 558.063, 829.386 559.435, 829.446 586.500 C 829.491 606.289, 829.184 611.820, 827.701 618.021 C 823.425 635.890, 829.614 639.800, 856.863 636.443 C 898.476 631.317, 903.190 628.628, 896.422 613.878 C 891.202 602.501, 891.368 590.195, 896.882 579.725 C 901.490 570.976, 901.727 569.995, 902.996 554.500 C 903.536 547.900, 904.627 535.300, 905.421 526.500 C 906.215 517.700, 907.153 506, 907.506 500.500 C 908.322 487.789, 909.993 481.051, 915.521 468.183 C 920.391 456.846, 922.155 448.628, 924.535 426.188 C 925.369 418.317, 926.677 410.217, 927.441 408.188 C 928.205 406.160, 929.641 402.394, 930.632 399.819 C 933.698 391.858, 927.799 387.920, 910 386.046 C 885.693 383.486, 880.164 380.046, 874.935 364.232 C 873.166 358.880, 870.177 351.416, 868.295 347.647 C 866.412 343.879, 863.977 338.029, 862.883 334.647 C 852.710 303.204, 827.887 293.519, 810.482 314.203 C 804.710 321.063, 810.731 337.269, 821 342.515 C 839.604 352.018, 837.352 380.469, 817.725 383.887 C 800.956 386.808, 793.170 385.112, 784.061 376.558 C 776.742 369.683, 774.811 368.830, 761.500 366.590 C 747.527 364.239, 741.652 361.819, 735.027 355.685 C 731.174 352.118, 727.727 349.903, 724.714 349.060 C 706.289 343.901, 707.555 326.903, 727.997 305 C 733.047 299.589, 736.989 294.223, 736.996 292.750 C 737.001 291.796, 730.305 291.928, 726.942 292.948 M 951 402.297 C 945.083 405.262, 946.095 416.194, 953.519 429.500 C 962.095 444.869, 963.851 449.312, 966.563 462.500 C 969.967 479.057, 970.846 481.093, 976.115 484.631 C 983.358 489.496, 984.768 492.415, 988.047 509.339 C 991.435 526.823, 1000.557 518.928, 999.416 499.500 C 998.551 484.772, 997.531 480.691, 991.542 468 C 987.141 458.675, 985.512 453.662, 982.931 441.500 C 979.974 427.563, 977.150 420, 974.903 420 C 974.389 420, 971.674 416.855, 968.869 413.010 C 961.956 403.536, 955.842 399.870, 951 402.297 M 101.650 412.500 C 93.617 466.294, 95.475 518.485, 105.290 514.719 C 112.395 511.992, 112.960 459.691, 106.242 426.500 C 102.542 408.215, 102.369 407.688, 101.650 412.500 M 446.944 518.606 C 437.890 525.457, 425.446 526.702, 395 523.804 C 360.480 520.517, 316.929 522.040, 311.765 526.713 C 300.732 536.697, 354.587 543.005, 391.500 536.051 C 402.209 534.034, 407.849 533.584, 423.500 533.500 C 449.181 533.362, 454 531.737, 454 523.212 C 454 516.129, 451.969 514.804, 446.944 518.606 M 182 522.568 C 180.075 522.774, 172.525 523.719, 165.223 524.669 C 153.828 526.150, 150.420 526.225, 141.177 525.197 C 120.244 522.870, 113.858 524.129, 116.982 529.967 C 118.814 533.390, 123.351 534.010, 141.870 533.372 C 157.951 532.818, 160.243 532.957, 167.962 534.957 C 201.173 543.566, 270.677 536.202, 249.900 526.276 C 244.043 523.479, 197.321 520.927, 182 522.568 M 706.374 598.643 C 697.391 600.603, 696.984 612.068, 705.329 628.101 C 710.127 637.319, 711.338 640.765, 713.120 650.258 C 718.577 679.337, 719.257 679.933, 740.936 674.620 C 772.949 666.774, 782.807 648.813, 762.802 634.780 C 759.487 632.455, 755.801 628.810, 754.474 626.545 C 751.700 621.812, 747.026 617.225, 741.801 614.107 C 739.767 612.894, 736.186 609.611, 733.843 606.812 C 728.161 600.026, 716.259 596.487, 706.374 598.643 M 262.381 637.536 C 246.857 639.244, 240.092 641.046, 233.117 645.330 C 229.457 647.579, 223.319 649.880, 215.500 651.936 C 200.278 655.938, 194.251 658.829, 190.466 663.945 C 188.626 666.432, 185.032 669.264, 181 671.404 C 174.440 674.886, 171.194 677.772, 167.065 683.790 C 165.823 685.599, 162.419 688.843, 159.501 690.999 C 155.199 694.178, 153.518 696.343, 150.623 702.443 C 147.738 708.521, 146.079 710.665, 141.983 713.608 C 134.211 719.191, 132.967 722.602, 128.534 750.470 C 127.493 757.010, 125.722 763.202, 123.385 768.470 C 112.023 794.079, 112.585 805.367, 125.441 809.768 C 132.602 812.220, 429.679 812.997, 435.465 810.579 C 445.736 806.288, 445.215 796.915, 434.256 788.820 C 425.667 782.475, 424.954 780.459, 422.952 756.871 C 421.600 740.951, 420.270 737.250, 414.019 732.016 C 411.398 729.822, 408.767 726.783, 408.173 725.263 C 407.579 723.743, 405.655 718.675, 403.897 714 C 401.058 706.444, 399.914 704.740, 393.609 698.661 C 389.708 694.899, 384.916 689.049, 382.959 685.661 C 379.739 680.086, 378.614 679.072, 371.119 675 C 366.564 672.525, 359.687 667.800, 355.837 664.500 C 346.542 656.533, 343.449 655.040, 330.742 652.386 C 320.599 650.268, 315.647 648.368, 305 642.512 C 295.875 637.493, 279.816 635.618, 262.381 637.536 M 868 658.637 C 859.016 659.949, 853.706 661.647, 848 665.033 C 836.552 671.825, 827.776 674.609, 799 680.573 C 786.068 683.254, 783.402 684.174, 777.500 687.996 C 770.374 692.611, 767.780 693.653, 758.631 695.578 C 749.150 697.572, 743.909 700.076, 738.283 705.298 C 732.560 710.610, 729.584 712.203, 721 714.551 C 705.096 718.902, 701.102 722.195, 698.399 733.189 C 694.266 749.997, 728.625 755.659, 753.500 742.268 C 764.395 736.403, 817.605 736.403, 828.500 742.268 C 843.095 750.125, 893.441 751.792, 900.520 744.653 C 906.355 738.770, 909.948 675.311, 905 665.537 C 901.526 658.676, 886.686 655.909, 868 658.637 M 258 664.455 C 251.675 666.304, 242.450 669.230, 237.500 670.957 C 232.550 672.685, 225.445 674.749, 221.711 675.544 C 213.233 677.349, 210.532 678.758, 205.500 684.008 C 203.300 686.302, 196.872 691.344, 191.215 695.211 C 180.610 702.460, 178.875 704.396, 171.237 717.500 C 168.993 721.350, 165.045 726.525, 162.464 729 C 148.271 742.611, 145.903 783.244, 159.083 787.024 C 165.192 788.776, 390.324 788.309, 394.568 786.536 C 405.004 782.175, 403.381 761.585, 391.098 742.525 C 387.899 737.561, 383.756 729.918, 381.891 725.540 C 379.084 718.950, 377.664 716.948, 373.648 713.914 C 370.980 711.899, 367.106 707.576, 365.040 704.309 C 361.890 699.327, 360.333 697.926, 355.392 695.627 C 351.368 693.754, 347.439 690.713, 343 686.035 C 335.660 678.301, 333.471 677.393, 310.500 672.560 C 301.624 670.693, 296.157 668.859, 289.500 665.518 C 278.229 659.859, 274.190 659.723, 258 664.455 M 757.889 772.445 C 757.560 772.773, 749.013 773.162, 738.894 773.309 C 713.968 773.671, 703.773 778.849, 715 785.444 C 724.793 791.197, 789.781 785.218, 788.794 778.656 C 788.063 773.797, 761.812 768.522, 757.889 772.445" stroke="none" fill="#6f7075" fill-rule="evenodd"/><path d="M 38.500 29.501 C 33.629 31.227, 30.412 34.755, 29.030 39.890 C 26.705 48.521, 28.189 902.971, 30.535 906.965 C 31.655 908.870, 34.130 911.345, 36.035 912.465 C 41.519 915.686, 1230.481 915.686, 1235.965 912.465 C 1237.870 911.345, 1240.345 908.870, 1241.465 906.965 C 1244.685 901.482, 1244.685 41.518, 1241.465 36.035 C 1240.345 34.130, 1237.870 31.655, 1235.965 30.535 C 1231.398 27.853, 46.044 26.829, 38.500 29.501 M 93.867 139.992 C 76.527 147.039, 74.204 150.890, 71.502 177.072 C 69.818 193.390, 68.475 198.760, 63.462 209.220 C 59.339 217.823, 59.197 220.821, 62.500 229.596 C 65.523 237.627, 65.610 240.915, 63 248.500 C 60.329 256.264, 60.486 261.362, 63.600 268 C 68.634 278.730, 71.875 287.786, 73.473 295.592 C 74.364 299.941, 76.066 306.650, 77.255 310.500 C 79.927 319.152, 80.065 333.211, 77.579 343.500 C 76.234 349.069, 75.702 358.777, 74.977 391 C 74.477 413.275, 73.613 436, 73.059 441.500 C 70.853 463.400, 72.444 508.632, 75.975 524.391 C 77.552 531.426, 79.379 534.366, 84.844 538.661 C 87.531 540.772, 91.328 545.060, 93.283 548.188 C 102.552 563.026, 92.943 562.246, 275.500 562.975 C 464.095 563.728, 453.322 564.527, 469.845 548.563 C 480.375 538.388, 481.684 535.754, 484.588 518.889 C 485.900 511.268, 488.195 502.086, 489.729 498.313 C 493.857 488.163, 493.778 473.525, 489.542 463.500 C 486.584 456.500, 486.584 456.500, 485.679 411.500 C 483.510 303.524, 483.667 300.768, 492.599 289.880 C 501.653 278.842, 504.781 248.425, 501.066 207.553 C 497.972 173.506, 480.678 139, 466.709 139 C 453.594 139, 445.482 145.057, 441.930 157.500 C 438.314 170.168, 437.791 171.473, 435.224 174.220 C 433.553 176.009, 429.500 178.001, 423.392 180.036 C 405.302 186.063, 403.140 189.354, 401.761 212.953 C 399.515 251.397, 402.744 273.122, 412.528 285.400 C 415.470 289.092, 418.638 294.225, 419.566 296.806 C 420.495 299.388, 422.660 305.100, 424.378 309.500 C 427.687 317.979, 430.053 476.802, 427.025 487.205 C 424.106 497.234, 417.212 500.499, 400.811 499.618 C 369.481 497.936, 334.434 497.860, 320.500 499.444 C 283.992 503.592, 283.877 503.595, 262.841 500.970 C 241.274 498.278, 203.722 497.666, 164.500 499.367 C 131.989 500.777, 135.128 511.110, 135.056 402.432 C 134.992 304.196, 134.466 310.566, 143.560 299.472 C 150.850 290.578, 152.425 287.296, 155.881 273.804 C 157.473 267.587, 160.463 258.225, 162.524 253 C 175.833 219.266, 159.011 176.655, 133.426 179.295 C 128.062 179.849, 124.056 178.134, 123.980 175.250 C 123.357 151.656, 108.363 134.101, 93.867 139.992 M 795.437 146.274 C 775.052 158.306, 774.102 160.017, 771.995 188.500 C 770.340 210.880, 767.240 220.101, 759.072 226.940 C 756.318 229.246, 752.474 233.750, 750.530 236.950 C 747.675 241.651, 745.989 243.247, 741.748 245.266 C 735.633 248.178, 732.171 251.194, 728.733 256.607 C 725.886 261.087, 724.038 262.778, 718.586 265.891 C 698.888 277.138, 656.615 324.963, 656.615 336 C 656.615 348.991, 685.101 380.558, 701.819 386.096 C 710.246 388.887, 712.176 390.156, 715.401 395.030 C 718.847 400.238, 726.231 403.734, 742.770 407.989 C 758.530 412.044, 768.225 427.503, 771.531 453.852 C 774.431 476.965, 774.646 477.824, 780.064 487.818 C 786.017 498.799, 786.733 501.312, 789.042 519.326 C 791.321 537.108, 794.265 547.490, 799.442 556 C 808.486 570.866, 806.681 606.981, 796.653 611.827 C 787.251 616.370, 777.949 613.951, 772.588 605.570 C 769.466 600.690, 768.039 599.508, 761.558 596.432 C 755.606 593.606, 753.399 591.902, 750.544 587.928 C 748.580 585.195, 744.599 581.439, 741.696 579.583 C 736.558 576.296, 730.766 570.625, 727.580 565.762 C 724.567 561.165, 711.975 554.956, 689.156 546.818 C 678.940 543.175, 650.286 556.810, 644.453 568.092 C 641.015 574.739, 639.895 606.939, 642.804 615.500 C 647.654 629.774, 651.257 644.665, 653.069 657.932 C 656.031 679.613, 657.836 684.932, 665.500 694.576 C 673.692 704.884, 668.171 717.489, 643.432 744.959 C 640.645 748.054, 636.297 753.782, 633.770 757.688 C 628.682 765.554, 626.495 766.795, 611.231 770.473 C 598.843 773.458, 594.688 777.732, 592.879 789.346 C 589.617 810.303, 604.599 816.382, 640 808.466 C 652.314 805.712, 664.512 805.485, 674.521 807.824 C 692.918 812.122, 719.717 812.752, 771.500 810.104 C 792.813 809.015, 813.524 805.160, 827.576 799.667 C 854.446 789.164, 912.229 790.612, 937.667 802.427 C 970.984 817.900, 1010.586 814.509, 1010.310 796.206 C 1010.084 781.246, 1002.659 775.799, 976.594 771.474 C 953.860 767.702, 953.239 767.417, 947.280 758 C 945.365 754.975, 941.807 750.767, 939.373 748.650 C 931.214 741.551, 931.508 743.336, 931.435 700.500 C 931.395 676.650, 930.933 659.707, 930.196 655 C 929.550 650.875, 928.319 641.650, 927.460 634.500 C 926.601 627.350, 924.964 617.900, 923.822 613.500 C 921.100 603.013, 921.126 591.207, 923.896 579.904 C 925.054 575.176, 926.442 564.826, 926.981 556.904 C 927.519 548.982, 928.399 540.025, 928.935 537 C 929.472 533.975, 930.405 525.425, 931.007 518 C 933.029 493.085, 933.593 492.364, 946.548 498.130 C 966.478 506.999, 969.979 521.656, 969.992 596.289 C 970 644.188, 969.380 655.639, 965.932 671.239 C 964.624 677.158, 964.002 683.775, 964.008 691.739 C 964.034 733.456, 974.564 738.116, 1018 715.635 C 1028.701 710.096, 1030.562 701.292, 1026.060 677.500 C 1023.871 665.931, 1024.467 615.043, 1027.045 593.526 C 1028.516 581.243, 1028.189 534.676, 1026.490 514.461 C 1023.342 477.013, 1021.428 467.646, 1013.989 453.277 C 1009.896 445.371, 1008.538 441.415, 1006.895 432.604 C 1003.816 416.095, 1001.952 411.961, 994.791 405.759 C 990.365 401.926, 987.980 398.873, 985.996 394.500 C 982.770 387.389, 981.224 385.873, 973.894 382.632 C 969.964 380.894, 966.845 378.439, 963.153 374.177 C 955.948 365.860, 952.491 364.835, 922.697 362.184 C 906.591 360.750, 904.573 358.002, 907.406 341.363 C 909.809 327.253, 912.365 320.053, 917.780 312.144 C 924.687 302.055, 925.258 300.111, 925.781 284.874 C 926.492 264.162, 924.646 256.042, 917.407 248.029 C 909.092 238.825, 905.571 220.956, 908.987 205.303 C 911.619 193.244, 912.249 191.770, 916.957 186.663 C 924.909 178.036, 928.785 164.738, 925.301 158.034 C 921.282 150.299, 913.116 149.109, 863.500 149.029 C 838.833 148.990, 834.548 148.744, 827.500 146.968 C 814.238 143.626, 800.429 143.327, 795.437 146.274 M 839.212 175.129 C 821.305 180.293, 837.220 208.104, 859.023 209.745 C 878.253 211.193, 893.578 194.159, 885.919 179.849 C 883.106 174.592, 851.981 171.446, 839.212 175.129 M 851.274 242.131 C 848.098 243.809, 841.917 246.494, 837.538 248.098 C 822.136 253.741, 818.485 258.267, 825.250 263.331 C 832.756 268.949, 834.614 269.433, 851 270.027 C 870.710 270.743, 880.694 273.503, 888.896 280.504 C 897.658 287.983, 902.183 284.973, 900.560 272.744 C 899.121 261.892, 892.723 254.939, 879.577 249.941 C 875.135 248.252, 869.025 245.393, 866 243.588 C 857.969 238.796, 857.649 238.764, 851.274 242.131 M 726.942 292.948 C 722.014 294.443, 720.394 295.890, 718.058 300.875 C 715.583 306.160, 712.818 307.949, 704.910 309.381 C 700.032 310.264, 697.657 313.151, 694.531 322 C 689.182 337.141, 689.135 335.188, 695.137 347.500 C 701.029 359.585, 700.518 359.133, 714 364.160 C 720.891 366.729, 723.636 368.418, 728.500 373.080 C 734.008 378.361, 735.269 379.048, 743.892 381.471 C 755.686 384.785, 761.629 387.784, 768.279 393.776 C 771.709 396.867, 775.550 399.176, 779.390 400.456 C 790.110 404.030, 792.985 409.046, 792.994 424.199 C 793.007 444.411, 796.454 461.866, 803.124 475.500 C 808.057 485.583, 808.718 488.127, 812.421 511.271 C 813.468 517.813, 815.501 524.753, 818.573 532.271 C 829.110 558.063, 829.386 559.435, 829.446 586.500 C 829.491 606.289, 829.184 611.820, 827.701 618.021 C 823.425 635.890, 829.614 639.800, 856.863 636.443 C 898.476 631.317, 903.190 628.628, 896.422 613.878 C 891.202 602.501, 891.368 590.195, 896.882 579.725 C 901.490 570.976, 901.727 569.995, 902.996 554.500 C 903.536 547.900, 904.627 535.300, 905.421 526.500 C 906.215 517.700, 907.153 506, 907.506 500.500 C 908.322 487.789, 909.993 481.051, 915.521 468.183 C 920.391 456.846, 922.155 448.628, 924.535 426.188 C 925.369 418.317, 926.677 410.217, 927.441 408.188 C 928.205 406.160, 929.641 402.394, 930.632 399.819 C 933.698 391.858, 927.799 387.920, 910 386.046 C 885.693 383.486, 880.164 380.046, 874.935 364.232 C 873.166 358.880, 870.177 351.416, 868.295 347.647 C 866.412 343.879, 863.977 338.029, 862.883 334.647 C 852.710 303.204, 827.887 293.519, 810.482 314.203 C 804.710 321.063, 810.731 337.269, 821 342.515 C 839.604 352.018, 837.352 380.469, 817.725 383.887 C 800.956 386.808, 793.170 385.112, 784.061 376.558 C 776.742 369.683, 774.811 368.830, 761.500 366.590 C 747.527 364.239, 741.652 361.819, 735.027 355.685 C 731.174 352.118, 727.727 349.903, 724.714 349.060 C 706.289 343.901, 707.555 326.903, 727.997 305 C 733.047 299.589, 736.989 294.223, 736.996 292.750 C 737.001 291.796, 730.305 291.928, 726.942 292.948 M 951 402.297 C 945.083 405.262, 946.095 416.194, 953.519 429.500 C 962.095 444.869, 963.851 449.312, 966.563 462.500 C 969.967 479.057, 970.846 481.093, 976.115 484.631 C 983.358 489.496, 984.768 492.415, 988.047 509.339 C 991.435 526.823, 1000.557 518.928, 999.416 499.500 C 998.551 484.772, 997.531 480.691, 991.542 468 C 987.141 458.675, 985.512 453.662, 982.931 441.500 C 979.974 427.563, 977.150 420, 974.903 420 C 974.389 420, 971.674 416.855, 968.869 413.010 C 961.956 403.536, 955.842 399.870, 951 402.297 M 101.650 412.500 C 93.617 466.294, 95.475 518.485, 105.290 514.719 C 112.395 511.992, 112.960 459.691, 106.242 426.500 C 102.542 408.215, 102.369 407.688, 101.650 412.500 M 446.944 518.606 C 437.890 525.457, 425.446 526.702, 395 523.804 C 360.480 520.517, 316.929 522.040, 311.765 526.713 C 300.732 536.697, 354.587 543.005, 391.500 536.051 C 402.209 534.034, 407.849 533.584, 423.500 533.500 C 449.181 533.362, 454 531.737, 454 523.212 C 454 516.129, 451.969 514.804, 446.944 518.606 M 182 522.568 C 180.075 522.774, 172.525 523.719, 165.223 524.669 C 153.828 526.150, 150.420 526.225, 141.177 525.197 C 120.244 522.870, 113.858 524.129, 116.982 529.967 C 118.814 533.390, 123.351 534.010, 141.870 533.372 C 157.951 532.818, 160.243 532.957, 167.962 534.957 C 201.173 543.566, 270.677 536.202, 249.900 526.276 C 244.043 523.479, 197.321 520.927, 182 522.568 M 706.374 598.643 C 697.391 600.603, 696.984 612.068, 705.329 628.101 C 710.127 637.319, 711.338 640.765, 713.120 650.258 C 718.577 679.337, 719.257 679.933, 740.936 674.620 C 772.949 666.774, 782.807 648.813, 762.802 634.780 C 759.487 632.455, 755.801 628.810, 754.474 626.545 C 751.700 621.812, 747.026 617.225, 741.801 614.107 C 739.767 612.894, 736.186 609.611, 733.843 606.812 C 728.161 600.026, 716.259 596.487, 706.374 598.643 M 262.381 637.536 C 246.857 639.244, 240.092 641.046, 233.117 645.330 C 229.457 647.579, 223.319 649.880, 215.500 651.936 C 200.278 655.938, 194.251 658.829, 190.466 663.945 C 188.626 666.432, 185.032 669.264, 181 671.404 C 174.440 674.886, 171.194 677.772, 167.065 683.790 C 165.823 685.599, 162.419 688.843, 159.501 690.999 C 155.199 694.178, 153.518 696.343, 150.623 702.443 C 147.738 708.521, 146.079 710.665, 141.983 713.608 C 134.211 719.191, 132.967 722.602, 128.534 750.470 C 127.493 757.010, 125.722 763.202, 123.385 768.470 C 112.023 794.079, 112.585 805.367, 125.441 809.768 C 132.602 812.220, 429.679 812.997, 435.465 810.579 C 445.736 806.288, 445.215 796.915, 434.256 788.820 C 425.667 782.475, 424.954 780.459, 422.952 756.871 C 421.600 740.951, 420.270 737.250, 414.019 732.016 C 411.398 729.822, 408.767 726.783, 408.173 725.263 C 407.579 723.743, 405.655 718.675, 403.897 714 C 401.058 706.444, 399.914 704.740, 393.609 698.661 C 389.708 694.899, 384.916 689.049, 382.959 685.661 C 379.739 680.086, 378.614 679.072, 371.119 675 C 366.564 672.525, 359.687 667.800, 355.837 664.500 C 346.542 656.533, 343.449 655.040, 330.742 652.386 C 320.599 650.268, 315.647 648.368, 305 642.512 C 295.875 637.493, 279.816 635.618, 262.381 637.536 M 868 658.637 C 859.016 659.949, 853.706 661.647, 848 665.033 C 836.552 671.825, 827.776 674.609, 799 680.573 C 786.068 683.254, 783.402 684.174, 777.500 687.996 C 770.374 692.611, 767.780 693.653, 758.631 695.578 C 749.150 697.572, 743.909 700.076, 738.283 705.298 C 732.560 710.610, 729.584 712.203, 721 714.551 C 705.096 718.902, 701.102 722.195, 698.399 733.189 C 694.266 749.997, 728.625 755.659, 753.500 742.268 C 764.395 736.403, 817.605 736.403, 828.500 742.268 C 843.095 750.125, 893.441 751.792, 900.520 744.653 C 906.355 738.770, 909.948 675.311, 905 665.537 C 901.526 658.676, 886.686 655.909, 868 658.637 M 258 664.455 C 251.675 666.304, 242.450 669.230, 237.500 670.957 C 232.550 672.685, 225.445 674.749, 221.711 675.544 C 213.233 677.349, 210.532 678.758, 205.500 684.008 C 203.300 686.302, 196.872 691.344, 191.215 695.211 C 180.610 702.460, 178.875 704.396, 171.237 717.500 C 168.993 721.350, 165.045 726.525, 162.464 729 C 148.271 742.611, 145.903 783.244, 159.083 787.024 C 165.192 788.776, 390.324 788.309, 394.568 786.536 C 405.004 782.175, 403.381 761.585, 391.098 742.525 C 387.899 737.561, 383.756 729.918, 381.891 725.540 C 379.084 718.950, 377.664 716.948, 373.648 713.914 C 370.980 711.899, 367.106 707.576, 365.040 704.309 C 361.890 699.327, 360.333 697.926, 355.392 695.627 C 351.368 693.754, 347.439 690.713, 343 686.035 C 335.660 678.301, 333.471 677.393, 310.500 672.560 C 301.624 670.693, 296.157 668.859, 289.500 665.518 C 278.229 659.859, 274.190 659.723, 258 664.455 M 757.889 772.445 C 757.560 772.773, 749.013 773.162, 738.894 773.309 C 713.968 773.671, 703.773 778.849, 715 785.444 C 724.793 791.197, 789.781 785.218, 788.794 778.656 C 788.063 773.797, 761.812 768.522, 757.889 772.445" stroke="none" fill="#f1f1f1" fill-rule="evenodd"/></svg>