<svg xmlns="http://www.w3.org/2000/svg" width="1272" height="593" viewBox="0 0 1272 593" version="1.1"><path d="M 216.962 85.250 C 209.050 89.240, 209.100 88.940, 208.939 133.240 C 208.798 171.980, 208.798 171.980, 211.389 176.401 C 216.777 185.595, 234.119 196.060, 255.500 203.019 C 271.615 208.264, 275.300 210.688, 277.054 217.200 C 279.808 227.428, 269.373 243.796, 250.763 258.440 C 224.105 279.417, 210.978 288.991, 201.942 294.049 C 196.749 296.955, 190.700 300.550, 188.500 302.038 C 186.300 303.526, 178.425 307.785, 171 311.502 C 163.575 315.220, 155.102 319.795, 152.170 321.670 C 149.239 323.544, 144.064 326.139, 140.670 327.436 C 137.277 328.733, 129.550 331.921, 123.500 334.519 C 117.450 337.118, 107.926 341.144, 102.335 343.466 C 65.158 358.905, 55.071 386.843, 86.624 386.978 C 93.740 387.009, 128.132 371.743, 173 348.638 C 196.745 336.410, 211.950 328.190, 216.001 325.391 C 218.475 323.680, 222.075 321.496, 224 320.535 C 241.440 311.835, 272.495 287.990, 297 264.484 C 303.325 258.417, 311.086 251.293, 314.247 248.652 C 324.068 240.447, 342.654 215.027, 346.137 205.038 C 349.510 195.361, 342.432 187.573, 327.946 185.025 C 324.401 184.401, 318.262 182.999, 314.305 181.909 C 310.348 180.819, 302.666 179.080, 297.234 178.045 C 261.013 171.143, 254.861 162.580, 253.373 117 C 252.680 95.752, 252.126 93.250, 247.107 88.716 C 240.492 82.739, 225.385 81.003, 216.962 85.250 M 513 84.705 C 511.625 84.943, 506.414 86.431, 501.421 88.011 C 496.427 89.590, 485.565 92.010, 477.282 93.388 C 456.206 96.894, 446.023 101.263, 436.331 110.955 C 421.728 125.558, 426.945 138.889, 444.280 131.264 C 450.441 128.554, 450.709 128.528, 472.673 128.514 C 504.214 128.494, 504.612 128.892, 501.566 157.408 C 497.731 193.309, 499.374 218.041, 506.753 235.500 C 508.148 238.800, 510.360 245.471, 511.668 250.325 C 512.976 255.179, 515.413 261.855, 517.082 265.162 C 531.744 294.207, 536.871 332.869, 531.980 377.500 C 529.741 397.925, 526.851 418.136, 525.393 423.552 C 524.513 426.823, 522.958 433.218, 521.937 437.763 C 516.656 461.278, 513.324 462.744, 469.251 460.953 C 431.385 459.414, 427.086 460.251, 420.919 470.366 C 416.049 478.352, 419.028 480.394, 432.544 478.330 C 442.872 476.753, 451.233 476.831, 493.500 478.893 C 521.500 480.259, 676.741 479.460, 678.572 477.941 C 682.079 475.030, 678.943 467.573, 672.898 464.447 C 667.333 461.570, 660.918 461.114, 640.375 462.140 C 607.630 463.775, 603.856 461.155, 608.016 439.677 C 610.072 429.061, 610.684 427.559, 614.359 424.122 C 617.065 421.591, 616.887 421.596, 632.696 423.589 C 643.276 424.923, 647.098 421.988, 653.002 407.995 C 661.461 387.949, 665.973 387.821, 677.437 407.302 C 683.207 417.108, 696.773 433.923, 702.845 438.796 C 707.959 442.900, 712.644 447.608, 721.244 457.284 C 749.237 488.782, 784.136 492.353, 789.084 464.225 C 789.638 461.076, 791.258 455.232, 792.684 451.237 C 797.094 438.885, 795.814 434.229, 779.854 404.581 C 760.921 369.410, 751.886 354.388, 742.515 342.500 C 740.781 340.300, 736.474 333.775, 732.944 328 C 728.817 321.248, 723.979 315.001, 719.391 310.500 C 715.467 306.650, 709.976 300.072, 707.188 295.883 C 699.447 284.252, 690.746 273.778, 677.006 259.552 C 670.128 252.431, 658.605 240.506, 651.401 233.052 C 644.197 225.599, 636.725 217.384, 634.798 214.798 C 632.870 212.212, 625.542 204.570, 618.513 197.816 C 597.966 178.073, 593.543 166.073, 591.057 123.321 C 589.672 99.510, 586.065 90.206, 576.541 85.880 C 572.670 84.121, 521.803 83.181, 513 84.705 M 946.885 84.963 C 945.446 85.399, 941.396 86.900, 937.885 88.300 C 934.104 89.807, 925.649 91.718, 917.156 92.985 C 894.642 96.341, 884.215 100.545, 874.228 110.291 C 860.235 123.946, 864.866 136.890, 881.593 130.876 C 888.923 128.241, 925.969 126.845, 932.384 128.962 C 938.989 131.142, 940.406 136.830, 938.996 155.500 C 936.102 193.801, 937.153 213.742, 942.974 231 C 944.551 235.675, 946.820 242.875, 948.016 247 C 949.211 251.125, 953.237 261.025, 956.961 269 C 964.342 284.804, 964.744 286.185, 968.589 309 C 972.980 335.049, 972.908 366.335, 968.414 385.716 C 967.566 389.370, 966.236 399.816, 965.457 408.930 C 961.242 458.259, 955.982 462.980, 907.511 460.950 C 871.179 459.429, 864.081 460.923, 858.500 471.270 C 855.501 476.831, 857.027 478.572, 864.616 478.250 C 882.663 477.485, 906.400 477.633, 928.500 478.650 C 951.126 479.690, 974.144 479.770, 1082.227 479.183 C 1120.786 478.974, 1121.385 478.828, 1117.469 470.576 C 1113.562 462.343, 1107.248 461.011, 1078.158 462.282 C 1045.696 463.700, 1042.673 461.559, 1045.568 439.201 C 1047.796 421.996, 1051.601 418.625, 1064.409 422.511 C 1077.915 426.608, 1086.251 422.293, 1090.511 409 C 1097.082 388.498, 1102.497 388.745, 1117.275 410.220 C 1126.079 423.013, 1136.016 434.772, 1141.560 438.958 C 1144.464 441.150, 1148.339 444.868, 1150.170 447.220 C 1172.280 475.610, 1199.494 488.970, 1219.138 481.078 C 1227.263 477.814, 1233.835 477.636, 1237.101 480.591 C 1238.145 481.537, 1239.007 481.903, 1239.015 481.405 C 1239.024 480.907, 1239.467 481.175, 1240 482 C 1240.818 483.265, 1240.972 483.274, 1240.985 482.059 C 1240.996 481.026, 1241.415 481.167, 1242.468 482.559 C 1243.768 484.277, 1243.940 480.342, 1243.968 448.250 C 1243.989 424.729, 1243.649 412, 1243 412 C 1242.450 412, 1241.993 412.788, 1241.985 413.750 C 1241.972 415.246, 1241.828 415.282, 1241 414 C 1240.296 412.910, 1240.026 412.858, 1240.015 413.809 C 1240.007 414.529, 1239.601 414.871, 1239.113 414.570 C 1238.626 414.269, 1237.729 414.621, 1237.121 415.354 C 1235.821 416.920, 1228.001 416.076, 1225.637 414.114 C 1222.785 411.747, 1214.315 398.392, 1200.512 374.500 C 1197.652 369.550, 1192.095 360.429, 1188.163 354.231 C 1184.231 348.034, 1179.174 339.709, 1176.925 335.731 C 1169.665 322.893, 1161.162 312.551, 1152.764 306.349 C 1149.387 303.854, 1146.477 300.219, 1142.619 293.675 C 1137.248 284.567, 1127.370 272.473, 1115.112 260 C 1107.274 252.023, 1090.474 233.775, 1082.841 224.946 C 1079.729 221.346, 1069.108 210.278, 1059.238 200.349 C 1034.091 175.053, 1029.408 163.293, 1028.036 122 C 1027.172 96.029, 1025.196 90.333, 1015.500 85.881 C 1011.213 83.912, 952.933 83.133, 946.885 84.963 M 546 99.930 C 540.676 100.994, 538.392 102.601, 537.072 106.212 C 534.390 113.549, 533.594 114.487, 529.774 114.807 C 526.018 115.122, 523 111.888, 523 107.550 C 523 102.739, 514.955 100.421, 508.980 103.510 C 502.539 106.841, 502.537 110.777, 508.975 118.518 C 518.027 129.403, 517.962 128.843, 517.084 188.514 C 516.663 217.112, 520.934 234.824, 532.151 251 C 536.930 257.892, 544.405 270.454, 554.466 288.500 C 558.758 296.200, 564.401 306.100, 567.006 310.500 C 569.611 314.900, 572.977 320.975, 574.486 324 C 575.996 327.025, 581.176 335.800, 585.997 343.500 C 597.716 362.217, 601.561 369.358, 604.383 377.655 C 615.550 410.487, 639.771 414.466, 643.011 384 C 646.075 355.190, 642.774 341.002, 631.170 333.109 C 624.345 328.466, 605.530 311.791, 594.500 300.610 C 590.100 296.149, 584.014 290.250, 580.976 287.500 C 576.166 283.147, 551.698 253.608, 545.085 244.171 C 528.894 221.068, 539.203 203.541, 569 203.513 C 597.662 203.486, 602.275 218.854, 574.308 221.197 C 548.264 223.378, 548.736 233.736, 576.285 264.686 C 583.709 273.025, 591.054 281.515, 592.607 283.552 C 595.530 287.384, 607.223 297.178, 623.888 309.754 C 629.174 313.743, 636.571 319.550, 640.324 322.657 C 644.077 325.765, 651.502 330.702, 656.824 333.628 C 662.146 336.554, 671 342.134, 676.500 346.028 C 682 349.922, 694.375 358.535, 704 365.168 C 713.625 371.801, 724.709 380.275, 728.630 383.998 C 736.287 391.267, 744.568 395.372, 750.422 394.800 C 757.405 394.119, 754.732 385.898, 740.571 364.500 C 736.567 358.450, 732.550 352.059, 731.644 350.297 C 726.460 340.214, 705.910 310.790, 696.386 299.813 C 690.398 292.913, 681.450 282.145, 676.500 275.884 C 671.550 269.623, 664.105 261.125, 659.955 257 C 655.805 252.875, 646.523 242.975, 639.329 235 C 632.136 227.025, 625.028 219.375, 623.534 218 C 622.040 216.625, 619.187 213.250, 617.193 210.500 C 615.199 207.750, 607.919 199.425, 601.016 192 C 580.898 170.363, 577.879 165.358, 575.976 150.500 C 575.343 145.550, 573.960 137.450, 572.904 132.500 C 571.847 127.550, 570.315 119.687, 569.499 115.027 C 567.120 101.444, 560.310 97.069, 546 99.930 M 984 99.876 C 978.107 101.145, 975.913 102.947, 973.431 108.560 C 969.554 117.327, 964.431 117.361, 960.213 108.647 C 957.531 103.109, 954.275 101.360, 949.647 102.973 C 941.834 105.697, 940.933 110.690, 946.964 117.842 C 954.544 126.832, 954.456 126.164, 954.479 174.500 C 954.500 217.500, 954.500 217.500, 959.100 227 C 961.630 232.225, 964.468 238.609, 965.408 241.186 C 966.348 243.763, 970.189 250.777, 973.945 256.771 C 977.700 262.766, 983.575 272.807, 986.999 279.085 C 990.424 285.363, 994.018 291.625, 994.987 293 C 995.955 294.375, 998.145 298.282, 999.853 301.682 C 1001.562 305.082, 1005.505 312.057, 1008.616 317.182 C 1011.727 322.307, 1017.202 332.125, 1020.782 339 C 1024.362 345.875, 1029.553 355.083, 1032.317 359.463 C 1035.082 363.842, 1039.025 371.541, 1041.079 376.571 C 1049.298 396.693, 1056.604 404, 1068.506 404 C 1077.936 404, 1079.874 399.068, 1080.686 373 C 1081.526 346.070, 1079.655 339.948, 1068.282 332.399 C 1051.796 321.456, 1005.255 275.140, 994.025 258.500 C 992.169 255.750, 988.451 250.840, 985.763 247.588 C 965.062 222.548, 974.238 203.500, 1007 203.500 C 1036.931 203.500, 1039.406 219.549, 1009.752 221.353 C 999.817 221.958, 994.757 223.586, 993.621 226.545 C 991.326 232.527, 995.266 242.116, 1004.281 252.486 C 1007.701 256.421, 1014.757 264.784, 1019.960 271.070 C 1032.722 286.491, 1044.563 297.993, 1056.948 307 C 1062.619 311.125, 1069.475 316.300, 1072.183 318.500 C 1084.294 328.340, 1086.739 330.033, 1095.358 334.545 C 1104.918 339.549, 1123.692 352.014, 1137.755 362.695 C 1142.295 366.143, 1147.861 369.909, 1150.125 371.064 C 1152.389 372.219, 1157.906 376.614, 1162.385 380.832 C 1198.188 414.545, 1199.676 391.739, 1164.853 343 C 1159.733 335.835, 1150.544 321.134, 1146.291 313.307 C 1144.032 309.148, 1140.442 304.890, 1135.361 300.343 C 1131.200 296.619, 1125.849 290.856, 1123.470 287.536 C 1121.092 284.216, 1117.264 279.700, 1114.964 277.500 C 1112.664 275.300, 1108.266 270.350, 1105.189 266.500 C 1095.429 254.286, 1081.109 238.413, 1044.745 199.500 C 1023.505 176.771, 1016.400 164.310, 1013.439 144.593 C 1006.884 100.951, 1003.423 95.694, 984 99.876 M 287.500 194.726 C 284.479 195.465, 283 197.007, 283 199.419 C 283 200.615, 285.025 204.677, 287.500 208.445 C 295.369 220.426, 292.072 233.373, 277.076 249.382 C 247.524 280.931, 254.790 284.536, 289.846 255.717 C 293.336 252.848, 298.961 247.128, 302.346 243.008 C 305.731 238.887, 311.160 232.587, 314.411 229.008 C 328.363 213.646, 329.297 206.690, 318.155 201.115 C 311.828 197.950, 291.579 193.730, 287.500 194.726 M 553.985 332.518 C 552.734 334.026, 551.968 340.523, 550.097 365.500 C 548.721 383.870, 549.862 386.833, 559.987 391.198 C 575.905 398.060, 582.770 385.325, 576.805 360 C 573.127 344.384, 558.628 326.923, 553.985 332.518 M 992.452 333.433 C 990.915 335.779, 988.104 363.916, 988.028 377.715 C 987.995 383.766, 991.429 388.647, 998.115 392.059 C 1019.375 402.905, 1025.491 372.949, 1007.947 343.912 C 1000.508 331.600, 995.758 328.387, 992.452 333.433 M 1118.200 372.200 C 1114.573 375.827, 1128.748 406.252, 1141.396 421.987 C 1144.275 425.569, 1148.072 430.525, 1149.833 433 C 1163.695 452.484, 1199.161 471.839, 1206.873 464.127 C 1210.607 460.393, 1209.246 454.913, 1202.495 446.500 C 1200.730 444.300, 1196.584 438.450, 1193.281 433.500 C 1187.995 425.577, 1180.651 416.309, 1165.466 398.398 C 1162.385 394.764, 1158.753 392.054, 1152.845 388.980 C 1148.283 386.607, 1141.839 382.654, 1138.525 380.196 C 1128.406 372.692, 1120.728 369.672, 1118.200 372.200 M 681.931 373.854 C 677.711 377.272, 690.674 406.236, 703.058 421.060 C 705.153 423.567, 709.260 429.170, 712.184 433.511 C 722.567 448.925, 749.538 466, 763.502 466 C 772.356 466, 773.613 458.793, 766.498 448.814 C 764.021 445.341, 759.007 438.002, 755.355 432.505 C 751.702 427.007, 745.936 419.582, 742.541 416.005 C 739.146 412.427, 734.714 407.195, 732.692 404.378 C 728.860 399.036, 727.569 398.069, 704.218 383.036 C 687.904 372.534, 685.026 371.348, 681.931 373.854 M 156 397.688 C 137.124 400.823, 116.699 411.273, 108.038 422.227 C 98.950 433.720, 82.571 449.227, 72.801 455.588 C 55.495 466.855, 55.235 478.085, 72.314 476.589 C 93.352 474.747, 93.471 474.748, 101.078 476.853 C 105.160 477.982, 113.450 479.585, 119.500 480.415 C 125.550 481.245, 135.900 483.131, 142.500 484.607 C 165.212 489.685, 213.746 488.468, 247.378 481.978 C 253.214 480.851, 263.729 479.504, 270.745 478.984 C 277.760 478.464, 286.200 477.608, 289.500 477.082 C 306.050 474.444, 321.963 473.671, 333.423 474.949 C 345.861 476.335, 351.105 475.542, 353.008 471.986 C 355.910 466.563, 351.394 461.919, 340.953 459.591 C 325.698 456.189, 313.731 451.390, 284.287 436.870 C 266.003 427.854, 248.630 420.049, 240.287 417.104 C 232.704 414.428, 221.550 410.348, 215.500 408.038 C 195.282 400.318, 191.545 399.148, 183.678 398.071 C 176.132 397.038, 161.161 396.830, 156 397.688 M 990.500 409.861 C 981.478 415.433, 971.370 448.811, 976.385 456.466 C 980.385 462.569, 1006.217 464.709, 1016.026 459.750 C 1031.127 452.116, 1034.382 419.170, 1020.297 416.528 C 1018.297 416.153, 1012.739 414.080, 1007.948 411.923 C 998.224 407.544, 994.888 407.150, 990.500 409.861 M 554.333 410.137 C 545.159 412.678, 533.783 447.916, 539.379 456.456 C 545.456 465.731, 578.071 464.914, 584.393 455.329 C 593.956 440.828, 593.885 419.300, 584.268 417.539 C 582.195 417.160, 576.675 415.350, 572 413.518 C 561.993 409.596, 558.618 408.950, 554.333 410.137 M 157.748 418.427 C 145.191 422.908, 140.313 433.992, 145.485 446.288 C 151.380 460.302, 177.140 462.326, 183.620 449.284 C 192.959 430.488, 177.066 411.533, 157.748 418.427 M 207.101 426.378 C 206.472 427.137, 205.581 431.749, 205.122 436.628 C 204.505 443.182, 203.465 447.300, 201.143 452.388 C 193.185 469.829, 197.172 470.633, 259.131 464.076 C 287.730 461.049, 279.723 448.798, 239.687 434.324 C 235.940 432.970, 229.652 430.318, 225.715 428.431 C 217.890 424.681, 209.296 423.733, 207.101 426.378 M 115.208 431.785 C 103.615 433.631, 98.183 455.424, 108.045 460.523 C 123.571 468.552, 132.838 462.188, 128.084 446.762 C 123.788 432.821, 121.972 430.709, 115.208 431.785" stroke="none" fill="#a0a1a4" fill-rule="evenodd"/><path d="M 38.500 29.501 C 33.626 31.228, 30.412 34.756, 29.027 39.901 C 28.314 42.549, 28.066 124.247, 28.242 298.635 C 28.533 586.368, 27.682 557.557, 36.035 562.465 C 41.170 565.481, 1230.273 565.716, 1235.794 562.701 C 1239.724 560.556, 1242.902 555.716, 1242.541 552.426 C 1242.398 551.123, 1242.646 550.281, 1243.092 550.557 C 1244.723 551.565, 1244.122 484.710, 1242.481 482.559 C 1241.417 481.165, 1240.996 481.024, 1240.985 482.059 C 1240.972 483.274, 1240.818 483.265, 1240 482 C 1239.467 481.175, 1239.024 480.907, 1239.015 481.405 C 1239.007 481.903, 1238.145 481.537, 1237.101 480.591 C 1233.835 477.636, 1227.263 477.814, 1219.138 481.078 C 1199.494 488.970, 1172.280 475.610, 1150.170 447.220 C 1148.339 444.868, 1144.464 441.150, 1141.560 438.958 C 1136.016 434.772, 1126.079 423.013, 1117.275 410.220 C 1102.497 388.745, 1097.082 388.498, 1090.511 409 C 1086.251 422.293, 1077.915 426.608, 1064.409 422.511 C 1051.534 418.605, 1047.804 421.938, 1045.547 439.360 C 1042.675 461.538, 1045.749 463.698, 1078.158 462.282 C 1107.248 461.011, 1113.562 462.343, 1117.469 470.576 C 1121.385 478.828, 1120.786 478.974, 1082.227 479.183 C 974.144 479.770, 951.126 479.690, 928.500 478.650 C 906.400 477.633, 882.663 477.485, 864.616 478.250 C 857.027 478.572, 855.501 476.831, 858.500 471.270 C 864.081 460.923, 871.179 459.429, 907.511 460.950 C 955.982 462.980, 961.242 458.259, 965.457 408.930 C 966.236 399.816, 967.566 389.370, 968.414 385.716 C 972.908 366.335, 972.980 335.049, 968.589 309 C 964.744 286.185, 964.342 284.804, 956.961 269 C 953.237 261.025, 949.211 251.125, 948.016 247 C 946.820 242.875, 944.551 235.675, 942.974 231 C 937.153 213.742, 936.102 193.801, 938.996 155.500 C 940.406 136.830, 938.989 131.142, 932.384 128.962 C 925.969 126.845, 888.923 128.241, 881.593 130.876 C 864.866 136.890, 860.235 123.946, 874.228 110.291 C 884.216 100.545, 894.643 96.341, 917.156 92.985 C 927.444 91.452, 933.621 89.952, 939 87.681 C 946.500 84.515, 946.500 84.515, 978.467 84.205 C 1026.177 83.741, 1026.779 84.200, 1028.036 122 C 1029.408 163.293, 1034.091 175.053, 1059.238 200.349 C 1069.108 210.278, 1079.729 221.346, 1082.841 224.946 C 1090.474 233.775, 1107.274 252.023, 1115.112 260 C 1127.370 272.473, 1137.248 284.567, 1142.619 293.675 C 1146.477 300.219, 1149.387 303.854, 1152.764 306.349 C 1161.162 312.551, 1169.665 322.893, 1176.925 335.731 C 1179.174 339.709, 1184.231 348.034, 1188.163 354.231 C 1192.095 360.429, 1197.652 369.550, 1200.512 374.500 C 1214.315 398.392, 1222.785 411.747, 1225.637 414.114 C 1228.001 416.076, 1235.821 416.920, 1237.121 415.354 C 1237.729 414.621, 1238.626 414.269, 1239.113 414.570 C 1239.601 414.871, 1240.007 414.529, 1240.015 413.809 C 1240.026 412.858, 1240.296 412.910, 1241 414 C 1241.828 415.282, 1241.972 415.246, 1241.985 413.750 C 1241.993 412.788, 1242.452 412, 1243.005 412 C 1243.675 412, 1244.005 350.284, 1243.995 226.947 C 1243.986 125.168, 1243.597 42.131, 1243.130 42.420 C 1242.663 42.708, 1242.398 41.877, 1242.541 40.574 C 1242.902 37.284, 1239.724 32.444, 1235.794 30.299 C 1231.260 27.823, 45.467 27.033, 38.500 29.501 M 216.962 85.250 C 209.050 89.240, 209.100 88.940, 208.939 133.240 C 208.798 171.980, 208.798 171.980, 211.389 176.401 C 216.777 185.595, 234.119 196.060, 255.500 203.019 C 271.615 208.264, 275.300 210.688, 277.054 217.200 C 279.808 227.428, 269.373 243.796, 250.763 258.440 C 224.105 279.417, 210.978 288.991, 201.942 294.049 C 196.749 296.955, 190.700 300.550, 188.500 302.038 C 186.300 303.526, 178.425 307.785, 171 311.502 C 163.575 315.220, 155.102 319.795, 152.170 321.670 C 149.239 323.544, 144.064 326.139, 140.670 327.436 C 137.277 328.733, 129.550 331.921, 123.500 334.519 C 117.450 337.118, 107.926 341.144, 102.335 343.466 C 65.158 358.905, 55.071 386.843, 86.624 386.978 C 93.740 387.009, 128.132 371.743, 173 348.638 C 196.745 336.410, 211.950 328.190, 216.001 325.391 C 218.475 323.680, 222.075 321.496, 224 320.535 C 241.440 311.835, 272.495 287.990, 297 264.484 C 303.325 258.417, 311.086 251.293, 314.247 248.652 C 324.068 240.447, 342.654 215.027, 346.137 205.038 C 349.510 195.361, 342.432 187.573, 327.946 185.025 C 324.401 184.401, 318.262 182.999, 314.305 181.909 C 310.348 180.819, 302.666 179.080, 297.234 178.045 C 261.013 171.143, 254.861 162.580, 253.373 117 C 252.680 95.752, 252.126 93.250, 247.107 88.716 C 240.492 82.739, 225.385 81.003, 216.962 85.250 M 513 84.705 C 511.625 84.943, 506.414 86.431, 501.421 88.011 C 496.427 89.590, 485.565 92.010, 477.282 93.388 C 456.206 96.894, 446.023 101.263, 436.331 110.955 C 421.728 125.558, 426.945 138.889, 444.280 131.264 C 450.441 128.554, 450.709 128.528, 472.673 128.514 C 504.214 128.494, 504.612 128.892, 501.566 157.408 C 497.731 193.309, 499.374 218.041, 506.753 235.500 C 508.148 238.800, 510.360 245.471, 511.668 250.325 C 512.976 255.179, 515.413 261.855, 517.082 265.162 C 531.744 294.207, 536.871 332.869, 531.980 377.500 C 529.741 397.925, 526.851 418.136, 525.393 423.552 C 524.513 426.823, 522.958 433.218, 521.937 437.763 C 516.656 461.278, 513.324 462.744, 469.251 460.953 C 431.385 459.414, 427.086 460.251, 420.919 470.366 C 416.049 478.352, 419.028 480.394, 432.544 478.330 C 442.872 476.753, 451.233 476.831, 493.500 478.893 C 521.500 480.259, 676.741 479.460, 678.572 477.941 C 682.079 475.030, 678.943 467.573, 672.898 464.447 C 667.333 461.570, 660.918 461.114, 640.375 462.140 C 607.630 463.775, 603.856 461.155, 608.016 439.677 C 610.072 429.061, 610.684 427.559, 614.359 424.122 C 617.065 421.591, 616.887 421.596, 632.696 423.589 C 643.276 424.923, 647.098 421.988, 653.002 407.995 C 661.461 387.949, 665.973 387.821, 677.437 407.302 C 683.207 417.108, 696.773 433.923, 702.845 438.796 C 707.959 442.900, 712.644 447.608, 721.244 457.284 C 749.237 488.782, 784.136 492.353, 789.084 464.225 C 789.638 461.076, 791.258 455.232, 792.684 451.237 C 797.094 438.885, 795.814 434.229, 779.854 404.581 C 760.921 369.410, 751.886 354.388, 742.515 342.500 C 740.781 340.300, 736.474 333.775, 732.944 328 C 728.817 321.248, 723.979 315.001, 719.391 310.500 C 715.467 306.650, 709.976 300.072, 707.188 295.883 C 699.447 284.252, 690.746 273.778, 677.006 259.552 C 670.128 252.431, 658.605 240.506, 651.401 233.052 C 644.197 225.599, 636.725 217.384, 634.798 214.798 C 632.870 212.212, 625.542 204.570, 618.513 197.816 C 597.966 178.073, 593.543 166.073, 591.057 123.321 C 589.672 99.510, 586.065 90.206, 576.541 85.880 C 572.670 84.121, 521.803 83.181, 513 84.705 M 546 99.930 C 540.676 100.994, 538.392 102.601, 537.072 106.212 C 534.390 113.549, 533.594 114.487, 529.774 114.807 C 526.018 115.122, 523 111.888, 523 107.550 C 523 102.739, 514.955 100.421, 508.980 103.510 C 502.539 106.841, 502.537 110.777, 508.975 118.518 C 518.027 129.403, 517.962 128.843, 517.084 188.514 C 516.663 217.112, 520.934 234.824, 532.151 251 C 536.930 257.892, 544.405 270.454, 554.466 288.500 C 558.758 296.200, 564.401 306.100, 567.006 310.500 C 569.611 314.900, 572.977 320.975, 574.486 324 C 575.996 327.025, 581.176 335.800, 585.997 343.500 C 597.716 362.217, 601.561 369.358, 604.383 377.655 C 615.550 410.487, 639.771 414.466, 643.011 384 C 646.075 355.190, 642.774 341.002, 631.170 333.109 C 624.345 328.466, 605.530 311.791, 594.500 300.610 C 590.100 296.149, 584.014 290.250, 580.976 287.500 C 576.166 283.147, 551.698 253.608, 545.085 244.171 C 528.894 221.068, 539.203 203.541, 569 203.513 C 597.662 203.486, 602.275 218.854, 574.308 221.197 C 548.264 223.378, 548.736 233.736, 576.285 264.686 C 583.709 273.025, 591.054 281.515, 592.607 283.552 C 595.530 287.384, 607.223 297.178, 623.888 309.754 C 629.174 313.743, 636.571 319.550, 640.324 322.657 C 644.077 325.765, 651.502 330.702, 656.824 333.628 C 662.146 336.554, 671 342.134, 676.500 346.028 C 682 349.922, 694.375 358.535, 704 365.168 C 713.625 371.801, 724.709 380.275, 728.630 383.998 C 736.287 391.267, 744.568 395.372, 750.422 394.800 C 757.405 394.119, 754.732 385.898, 740.571 364.500 C 736.567 358.450, 732.550 352.059, 731.644 350.297 C 726.460 340.214, 705.910 310.790, 696.386 299.813 C 690.398 292.913, 681.450 282.145, 676.500 275.884 C 671.550 269.623, 664.105 261.125, 659.955 257 C 655.805 252.875, 646.523 242.975, 639.329 235 C 632.136 227.025, 625.028 219.375, 623.534 218 C 622.040 216.625, 619.187 213.250, 617.193 210.500 C 615.199 207.750, 607.919 199.425, 601.016 192 C 580.898 170.363, 577.879 165.358, 575.976 150.500 C 575.343 145.550, 573.960 137.450, 572.904 132.500 C 571.847 127.550, 570.315 119.687, 569.499 115.027 C 567.120 101.444, 560.310 97.069, 546 99.930 M 984 99.876 C 978.107 101.145, 975.913 102.947, 973.431 108.560 C 969.554 117.327, 964.431 117.361, 960.213 108.647 C 957.531 103.109, 954.275 101.360, 949.647 102.973 C 941.834 105.697, 940.933 110.690, 946.964 117.842 C 954.544 126.832, 954.456 126.164, 954.479 174.500 C 954.500 217.500, 954.500 217.500, 959.100 227 C 961.630 232.225, 964.468 238.609, 965.408 241.186 C 966.348 243.763, 970.189 250.777, 973.945 256.771 C 977.700 262.766, 983.575 272.807, 986.999 279.085 C 990.424 285.363, 994.018 291.625, 994.987 293 C 995.955 294.375, 998.145 298.282, 999.853 301.682 C 1001.562 305.082, 1005.505 312.057, 1008.616 317.182 C 1011.727 322.307, 1017.202 332.125, 1020.782 339 C 1024.362 345.875, 1029.553 355.083, 1032.317 359.463 C 1035.082 363.842, 1039.025 371.541, 1041.079 376.571 C 1049.298 396.693, 1056.604 404, 1068.506 404 C 1077.936 404, 1079.874 399.068, 1080.686 373 C 1081.526 346.070, 1079.655 339.948, 1068.282 332.399 C 1051.796 321.456, 1005.255 275.140, 994.025 258.500 C 992.169 255.750, 988.451 250.840, 985.763 247.588 C 965.062 222.548, 974.238 203.500, 1007 203.500 C 1036.931 203.500, 1039.406 219.549, 1009.752 221.353 C 999.817 221.958, 994.757 223.586, 993.621 226.545 C 991.326 232.527, 995.266 242.116, 1004.281 252.486 C 1007.701 256.421, 1014.757 264.784, 1019.960 271.070 C 1032.722 286.491, 1044.563 297.993, 1056.948 307 C 1062.619 311.125, 1069.475 316.300, 1072.183 318.500 C 1084.294 328.340, 1086.739 330.033, 1095.358 334.545 C 1104.918 339.549, 1123.692 352.014, 1137.755 362.695 C 1142.295 366.143, 1147.861 369.909, 1150.125 371.064 C 1152.389 372.219, 1157.906 376.614, 1162.385 380.832 C 1198.188 414.545, 1199.676 391.739, 1164.853 343 C 1159.733 335.835, 1150.544 321.134, 1146.291 313.307 C 1144.032 309.148, 1140.442 304.890, 1135.361 300.343 C 1131.200 296.619, 1125.849 290.856, 1123.470 287.536 C 1121.092 284.216, 1117.264 279.700, 1114.964 277.500 C 1112.664 275.300, 1108.266 270.350, 1105.189 266.500 C 1095.429 254.286, 1081.109 238.413, 1044.745 199.500 C 1023.505 176.771, 1016.400 164.310, 1013.439 144.593 C 1006.884 100.951, 1003.423 95.694, 984 99.876 M 287.500 194.726 C 284.479 195.465, 283 197.007, 283 199.419 C 283 200.615, 285.025 204.677, 287.500 208.445 C 295.369 220.426, 292.072 233.373, 277.076 249.382 C 247.524 280.931, 254.790 284.536, 289.846 255.717 C 293.336 252.848, 298.961 247.128, 302.346 243.008 C 305.731 238.887, 311.160 232.587, 314.411 229.008 C 328.363 213.646, 329.297 206.690, 318.155 201.115 C 311.828 197.950, 291.579 193.730, 287.500 194.726 M 553.985 332.518 C 552.734 334.026, 551.968 340.523, 550.097 365.500 C 548.721 383.870, 549.862 386.833, 559.987 391.198 C 575.905 398.060, 582.770 385.325, 576.805 360 C 573.127 344.384, 558.628 326.923, 553.985 332.518 M 992.452 333.433 C 990.915 335.779, 988.104 363.916, 988.028 377.715 C 987.995 383.766, 991.429 388.647, 998.115 392.059 C 1019.375 402.905, 1025.491 372.949, 1007.947 343.912 C 1000.508 331.600, 995.758 328.387, 992.452 333.433 M 1118.200 372.200 C 1114.573 375.827, 1128.748 406.252, 1141.396 421.987 C 1144.275 425.569, 1148.072 430.525, 1149.833 433 C 1163.695 452.484, 1199.161 471.839, 1206.873 464.127 C 1210.607 460.393, 1209.246 454.913, 1202.495 446.500 C 1200.730 444.300, 1196.584 438.450, 1193.281 433.500 C 1187.995 425.577, 1180.651 416.309, 1165.466 398.398 C 1162.385 394.764, 1158.753 392.054, 1152.845 388.980 C 1148.283 386.607, 1141.839 382.654, 1138.525 380.196 C 1128.406 372.692, 1120.728 369.672, 1118.200 372.200 M 681.931 373.854 C 677.711 377.272, 690.674 406.236, 703.058 421.060 C 705.153 423.567, 709.260 429.170, 712.184 433.511 C 722.567 448.925, 749.538 466, 763.502 466 C 772.356 466, 773.613 458.793, 766.498 448.814 C 764.021 445.341, 759.007 438.002, 755.355 432.505 C 751.702 427.007, 745.936 419.582, 742.541 416.005 C 739.146 412.427, 734.714 407.195, 732.692 404.378 C 728.860 399.036, 727.569 398.069, 704.218 383.036 C 687.904 372.534, 685.026 371.348, 681.931 373.854 M 156 397.688 C 137.124 400.823, 116.699 411.273, 108.038 422.227 C 98.950 433.720, 82.571 449.227, 72.801 455.588 C 55.495 466.855, 55.235 478.085, 72.314 476.589 C 93.352 474.747, 93.471 474.748, 101.078 476.853 C 105.160 477.982, 113.450 479.585, 119.500 480.415 C 125.550 481.245, 135.900 483.131, 142.500 484.607 C 165.212 489.685, 213.746 488.468, 247.378 481.978 C 253.214 480.851, 263.729 479.504, 270.745 478.984 C 277.760 478.464, 286.200 477.608, 289.500 477.082 C 306.050 474.444, 321.963 473.671, 333.423 474.949 C 345.861 476.335, 351.105 475.542, 353.008 471.986 C 355.910 466.563, 351.394 461.919, 340.953 459.591 C 325.698 456.189, 313.731 451.390, 284.287 436.870 C 266.003 427.854, 248.630 420.049, 240.287 417.104 C 232.704 414.428, 221.550 410.348, 215.500 408.038 C 195.282 400.318, 191.545 399.148, 183.678 398.071 C 176.132 397.038, 161.161 396.830, 156 397.688 M 990.500 409.861 C 981.478 415.433, 971.370 448.811, 976.385 456.466 C 980.385 462.569, 1006.217 464.709, 1016.026 459.750 C 1031.127 452.116, 1034.382 419.170, 1020.297 416.528 C 1018.297 416.153, 1012.739 414.080, 1007.948 411.923 C 998.224 407.544, 994.888 407.150, 990.500 409.861 M 554.333 410.137 C 545.159 412.678, 533.783 447.916, 539.379 456.456 C 545.456 465.731, 578.071 464.914, 584.393 455.329 C 593.956 440.828, 593.885 419.300, 584.268 417.539 C 582.195 417.160, 576.675 415.350, 572 413.518 C 561.993 409.596, 558.618 408.950, 554.333 410.137 M 157.748 418.427 C 145.191 422.908, 140.313 433.992, 145.485 446.288 C 151.380 460.302, 177.140 462.326, 183.620 449.284 C 192.959 430.488, 177.066 411.533, 157.748 418.427 M 207.101 426.378 C 206.472 427.137, 205.581 431.749, 205.122 436.628 C 204.505 443.182, 203.465 447.300, 201.143 452.388 C 193.185 469.829, 197.172 470.633, 259.131 464.076 C 287.730 461.049, 279.723 448.798, 239.687 434.324 C 235.940 432.970, 229.652 430.318, 225.715 428.431 C 217.890 424.681, 209.296 423.733, 207.101 426.378 M 115.208 431.785 C 103.615 433.631, 98.183 455.424, 108.045 460.523 C 123.571 468.552, 132.838 462.188, 128.084 446.762 C 123.788 432.821, 121.972 430.709, 115.208 431.785" stroke="none" fill="#f2f2f3" fill-rule="evenodd"/></svg>