<svg xmlns="http://www.w3.org/2000/svg" width="1272" height="809" viewBox="0 0 1272 809" version="1.1"><path d="M 554 124.127 C 523.154 128.134, 491.284 150.075, 474.857 178.613 C 473.626 180.751, 470.714 185.209, 468.385 188.521 C 458.164 203.057, 453.289 233.217, 459.250 245.038 C 463.488 253.443, 467.131 254.378, 490.187 252.979 C 506.583 251.985, 608.874 252.182, 664.500 253.317 C 687.110 253.777, 692.860 244.622, 682.287 224.997 C 679.473 219.774, 675.546 210.811, 673.560 205.079 C 662.593 173.433, 640.694 147.451, 614.021 134.441 C 587.972 121.736, 581.268 120.584, 554 124.127 M 1003.712 123.125 C 991.290 125.549, 981.295 132.831, 956.027 157.863 C 939.397 174.338, 937.545 176.960, 934.043 189 C 932.843 193.125, 929.188 201.958, 925.921 208.629 C 917.478 225.871, 917.020 228.950, 921.034 241.500 C 929.582 268.230, 936.933 278.024, 953.259 284.433 C 985.793 297.205, 997.431 313.812, 991.148 338.500 C 990.029 342.900, 988.181 351.103, 987.042 356.729 C 985.903 362.354, 983.652 371.129, 982.041 376.229 C 980.430 381.328, 978.412 389.357, 977.557 394.071 C 975.892 403.254, 973.263 411.443, 967.627 425.007 C 965.297 430.614, 963.194 438.456, 961.459 448.007 C 959.573 458.392, 957.697 465.167, 954.842 471.909 C 951.658 479.425, 950.278 484.795, 947.983 498.603 C 944.362 520.384, 943.117 523, 936.369 523 C 930.279 523, 918.797 511.957, 904.136 492 C 896.283 481.310, 891.246 474.990, 881.320 463.370 C 880.319 462.198, 876.125 458.782, 872 455.777 C 867.875 452.773, 860.900 447.021, 856.500 442.995 C 835.587 423.862, 826.763 420.012, 816.217 425.417 C 789.191 439.269, 780.971 458.595, 789.426 488.404 C 790.814 493.301, 792.881 503.524, 794.018 511.121 C 796.123 525.185, 798.080 532.316, 801.878 539.761 C 803.047 542.051, 805.364 550.471, 807.028 558.472 C 808.691 566.472, 812.059 578.675, 814.512 585.588 C 830.392 630.353, 824.517 659.829, 793.076 693.146 C 778.046 709.073, 776.804 719.588, 789.175 726.191 C 797.622 730.700, 1069.037 728.732, 1079.540 724.085 C 1095.329 717.101, 1097.334 702.883, 1084.627 688.028 C 1076.671 678.728, 1075.025 666.448, 1078.966 645.801 C 1080.047 640.135, 1081.607 629.650, 1082.431 622.500 C 1083.256 615.350, 1085.275 602.300, 1086.919 593.500 C 1091.344 569.805, 1091.758 566.751, 1094.474 537.684 C 1099.384 485.136, 1106.930 457.561, 1119.253 447.145 C 1124.423 442.774, 1127.030 436.891, 1128.037 427.319 C 1130.012 408.544, 1128.368 325.742, 1125.518 300.500 C 1124.711 293.350, 1123.580 281.015, 1123.004 273.089 C 1122.428 265.163, 1120.838 252.177, 1119.471 244.232 C 1116.378 226.261, 1116.262 225.780, 1113.335 218.706 C 1112.016 215.519, 1109.378 207.056, 1107.473 199.898 C 1103.495 184.958, 1103.672 185.346, 1095.944 174.600 C 1092.741 170.145, 1087.730 163.156, 1084.810 159.068 C 1075.642 146.235, 1055.429 126.580, 1049.500 124.732 C 1043.457 122.848, 1010.972 121.708, 1003.712 123.125 M 184.500 124.438 C 181.750 125.136, 176.087 127.088, 171.915 128.777 C 162.804 132.466, 156.249 134.416, 142.563 137.508 C 136.893 138.790, 129.943 141.009, 127.119 142.440 C 119.675 146.212, 102.835 157.318, 100.500 159.995 C 99.400 161.256, 95.878 164.208, 92.672 166.555 C 74.576 179.805, 71.054 200.838, 85.179 211.301 C 88.693 213.903, 96.882 213.762, 107 210.925 C 118.027 207.834, 153.783 206.981, 159 209.686 C 165.490 213.050, 167.175 218.425, 167.648 237.280 C 168.424 268.220, 173.101 281.219, 190.890 301.872 C 194.655 306.244, 198.784 311.323, 200.066 313.160 C 201.347 314.997, 205.203 319.561, 208.634 323.303 C 216.100 331.445, 218.098 335.344, 221.543 348.500 C 222.984 354, 226.364 363.279, 229.054 369.120 C 232.394 376.369, 234.713 383.352, 236.362 391.120 C 237.690 397.379, 240.456 406.775, 242.508 412 C 246.339 421.755, 247.806 428.370, 250.383 447.500 C 251.197 453.550, 252.770 463, 253.878 468.500 C 256.412 481.086, 260.481 506.689, 262.540 523 C 263.408 529.875, 265.449 540.379, 267.076 546.343 C 272.300 565.491, 273.191 578.843, 270.488 597.500 C 269.691 603, 269.024 610.650, 269.007 614.500 C 268.985 619.166, 268.128 624.152, 266.434 629.456 C 265.037 633.832, 263.228 642.157, 262.415 647.956 C 258.969 672.546, 248.010 693.997, 237.307 697.103 C 229.418 699.393, 211.218 698.679, 187.241 695.139 C 162.791 691.529, 161.484 691.467, 153.460 693.539 C 128.919 699.874, 121.761 715.582, 142.597 717.375 C 146.501 717.711, 152.576 718.907, 156.097 720.033 C 171.638 725.002, 187.351 725.832, 212.439 723.008 C 220.574 722.092, 224.656 722.176, 234.939 723.467 C 244.993 724.730, 249.496 724.837, 257.500 724.001 C 277.058 721.960, 316.053 721.663, 335.427 723.408 C 351.946 724.895, 354.616 724.895, 369.427 723.399 C 386.509 721.674, 405.492 721.939, 416.500 724.057 C 425.760 725.838, 435.947 724.737, 449 720.544 C 458.089 717.624, 462.336 716.801, 469.256 716.618 C 480.043 716.334, 480.907 715.665, 478.531 709.441 C 472.720 694.227, 457.124 690.077, 426 695.463 C 379.908 703.440, 367.765 698.839, 372.485 675.184 C 373.438 670.408, 375.049 661.347, 376.064 655.048 C 379.251 635.284, 383.732 633.001, 391 647.440 C 404.670 674.596, 425.010 661.982, 430.408 623 C 433.624 599.768, 444.987 595.643, 466.808 609.786 C 470.277 612.034, 476.802 615.084, 481.308 616.563 C 488.851 619.039, 502.047 624.686, 517.825 632.191 C 525.184 635.691, 526.877 637.993, 530.557 649.500 C 533.072 657.362, 541.822 674.352, 546.657 680.759 C 550.162 685.405, 555.202 687.624, 569.734 690.921 C 576.755 692.514, 584.750 694.790, 587.500 695.980 C 593.530 698.590, 601.596 700.496, 613 702.008 C 617.675 702.627, 624.847 704.004, 628.938 705.067 C 656.021 712.105, 666.602 697.913, 654.432 670.874 C 648.077 656.755, 649.528 651.781, 661.802 645.600 C 679.165 636.856, 681.113 620.013, 667.116 599.668 C 665.452 597.251, 661.892 591.274, 659.203 586.386 C 652.021 573.333, 642.208 558.069, 638.059 553.500 C 636.062 551.300, 633.007 547.025, 631.270 544 C 629.533 540.975, 623.914 533.996, 618.783 528.492 C 613.652 522.987, 607.123 515.112, 604.274 510.992 C 601.425 506.871, 597.065 501.805, 594.586 499.733 C 590.545 496.356, 577.178 478.061, 573.302 470.602 C 572.473 469.008, 571.385 462.974, 570.883 457.193 C 569.114 436.820, 565.933 428.097, 556.976 419.056 C 553.826 415.877, 549.393 410.098, 547.124 406.213 C 542.505 398.303, 523.626 380.337, 508.792 369.733 C 500.456 363.774, 484.070 348.368, 466.500 329.971 C 461 324.212, 453.864 317.291, 450.641 314.592 C 447.419 311.892, 442.420 306.819, 439.533 303.319 C 436.646 299.818, 430.234 293.803, 425.284 289.952 C 418.930 285.008, 414.594 280.601, 410.535 274.963 C 407.372 270.571, 402.424 264.845, 399.538 262.238 C 396.652 259.632, 390.151 251.793, 385.091 244.818 C 378.689 235.995, 373.818 230.462, 369.076 226.631 C 365.328 223.603, 360.090 218.509, 357.435 215.313 C 349.269 205.477, 344.784 201.029, 337.362 195.403 C 333.437 192.427, 329.500 188.886, 328.614 187.534 C 320.362 174.939, 288.827 159.079, 271.928 159.024 C 259.331 158.984, 257.116 157.755, 238.550 140.502 C 223.538 126.552, 221.605 125.081, 216.981 124.089 C 210.229 122.641, 190.761 122.850, 184.500 124.438 M 543.396 144.418 C 541.139 145.125, 537.169 147.164, 534.573 148.950 C 531.977 150.736, 526.139 153.913, 521.600 156.010 C 512.232 160.338, 497.788 171.632, 493.937 177.640 C 479.308 200.467, 476.986 220.568, 488.267 226.733 C 493.707 229.706, 642.575 229.432, 646.677 226.441 C 654.188 220.965, 656.220 208.517, 651.174 198.891 C 636.275 170.466, 628.178 162.398, 599.832 147.726 C 591.994 143.669, 553.077 141.388, 543.396 144.418 M 1013.039 144.025 C 985.669 146.861, 971.374 161.010, 978.971 177.746 C 985.509 192.148, 988.526 193.703, 1011.713 194.615 C 1030.615 195.359, 1031.120 195.516, 1039.538 203.209 C 1051.561 214.197, 1052.270 224.636, 1041.844 237.159 C 1039.062 240.501, 1037.547 243.612, 1036.486 248.159 C 1027.011 288.754, 1027.322 285.991, 1026.058 341 C 1025.484 366.025, 1024.774 394.217, 1024.482 403.649 C 1023.793 425.912, 1026.286 431.841, 1033.120 424.191 C 1036.233 420.708, 1036.123 421.329, 1039.045 390.500 C 1044.275 335.307, 1058.652 320.976, 1084.267 345.422 C 1098.346 358.858, 1099.920 365.464, 1098.258 404.168 C 1097.093 431.310, 1097.206 433.303, 1099.876 432.780 C 1101.341 432.492, 1101.465 429.568, 1101.139 402.981 C 1100.853 379.605, 1101.134 370.497, 1102.498 359 C 1103.750 348.441, 1104.046 340.967, 1103.587 331.500 C 1103.240 324.350, 1102.734 310.850, 1102.463 301.500 C 1102.192 292.150, 1101.530 281.350, 1100.993 277.500 C 1100.456 273.650, 1099.589 265.008, 1099.066 258.295 C 1098.317 248.676, 1097.269 243.378, 1094.119 233.295 C 1091.921 226.258, 1088.366 213.075, 1086.218 204 C 1080.948 181.735, 1077.832 175.285, 1065.718 161.565 C 1050.691 144.545, 1040.564 141.174, 1013.039 144.025 M 215 148.709 C 212.021 149.805, 209.971 152.395, 208.906 156.409 C 205.713 168.450, 193.462 170.155, 183.487 159.947 C 174.969 151.229, 171.599 150.479, 156.628 153.970 C 145.383 156.592, 140.084 158.736, 130.363 164.595 C 125.888 167.293, 120.825 170.267, 119.113 171.203 C 108.704 176.899, 117.950 182.520, 141.115 184.579 C 186.102 188.576, 190.439 193.301, 190.610 238.500 C 190.819 293.705, 212.266 317.030, 246.324 299.093 C 267.847 287.757, 278.515 297.049, 259.910 310.927 C 240.232 325.606, 237.074 339.499, 249.091 358.526 C 255.668 368.940, 281.337 419.242, 285.734 430.331 C 286.643 432.624, 289.081 437.656, 291.152 441.513 C 293.223 445.370, 296.247 451.749, 297.872 455.690 C 299.497 459.630, 302.593 465.474, 304.752 468.677 C 306.912 471.880, 309.893 477.704, 311.377 481.620 C 312.861 485.536, 315.840 491.105, 317.997 493.996 C 320.153 496.886, 323.333 502.682, 325.062 506.876 C 326.791 511.069, 329.597 516.750, 331.297 519.500 C 337.315 529.237, 352.197 559.613, 354.830 567.534 C 361.898 588.801, 389.785 623, 400.058 623 C 409.152 623, 412.337 612.521, 408.432 595.447 C 400.371 560.199, 410.619 552.342, 437.211 573.385 C 447.224 581.308, 450.033 582.840, 460.455 586.059 C 463.812 587.096, 469.745 589.983, 473.639 592.474 C 478.964 595.881, 483.174 597.612, 490.610 599.454 C 496.050 600.801, 503.650 603.203, 507.501 604.792 C 516.023 608.309, 521.613 609.614, 534 610.980 C 539.225 611.556, 549.575 612.909, 557 613.988 C 570.261 615.914, 602.289 617.973, 621 618.103 C 626.225 618.139, 633.022 618.485, 636.104 618.871 C 654.782 621.212, 654.523 604.992, 635.516 582 C 633.015 578.975, 629.135 572.900, 626.893 568.500 C 624.652 564.100, 622.009 559.600, 621.021 558.500 C 620.032 557.400, 614.853 549.975, 609.510 542 C 604.168 534.025, 597.226 524.800, 594.084 521.500 C 590.942 518.200, 586.397 512.575, 583.986 509 C 581.574 505.425, 575.487 498.225, 570.460 493 C 562.218 484.433, 554.935 474.577, 550.475 465.953 C 549.433 463.936, 548.537 458.311, 547.960 450.160 C 546.323 427.014, 545.046 422.226, 539.552 418.626 C 538.142 417.702, 531.678 411.896, 525.187 405.723 C 518.696 399.550, 511.161 392.463, 508.443 389.974 C 505.724 387.484, 500.875 382.411, 497.666 378.699 C 494.457 374.988, 488.832 369.504, 485.166 366.513 C 476.779 359.670, 447.228 330.592, 440.078 322.146 C 437.119 318.651, 431.461 313.397, 427.503 310.470 C 423.275 307.343, 417.699 301.844, 413.980 297.131 C 410.431 292.634, 404.907 287.138, 401.405 284.619 C 397.670 281.931, 393.571 277.785, 391.204 274.301 C 389.029 271.097, 382.102 263.081, 375.811 256.488 C 369.520 249.895, 361.837 241.048, 358.738 236.829 C 355.639 232.610, 350.267 226.835, 346.802 223.996 C 343.336 221.156, 336.900 215.109, 332.500 210.557 C 328.100 206.006, 322.505 201.268, 320.068 200.028 C 317.630 198.788, 312.230 194.536, 308.068 190.580 C 282.533 166.308, 251.988 179.672, 254.616 213.966 C 257.040 245.593, 252.699 256, 237.083 256 C 219.247 256, 214.765 212.329, 229.164 178.853 C 235.903 163.187, 227.023 144.289, 215 148.709 M 971.998 210.025 C 964.384 214.528, 959.251 216.561, 950.797 218.420 C 941.977 220.360, 939.651 229.064, 945.247 239.185 C 947.168 242.658, 949.482 247.780, 950.389 250.566 C 952.191 256.100, 956.320 260.618, 964.500 266.008 C 967.250 267.820, 972.650 271.873, 976.501 275.014 C 994.685 289.851, 1000.422 289.010, 1008.284 270.353 C 1016.348 251.213, 1020.879 242.142, 1024.303 238.275 C 1037.288 223.614, 1033.625 214.873, 1014.089 213.895 C 1002.474 213.313, 1001.678 213.128, 993.675 209.145 C 983.154 203.908, 982.281 203.944, 971.998 210.025 M 1059.421 427.903 C 1056.312 429.808, 1050.328 436.030, 1045.544 442.334 C 1035.247 455.902, 1026.213 454.895, 1010.500 438.427 C 996.984 424.262, 990.322 426.084, 984.529 445.532 C 983.060 450.464, 980.565 458.775, 978.983 464 C 975.450 475.677, 971.565 494.200, 968.980 511.700 C 965.616 534.482, 964.675 537.393, 957.378 547.619 C 945.381 564.431, 935.726 561.030, 913.443 532.143 C 907.655 524.639, 899.224 513.832, 894.709 508.127 C 890.194 502.422, 884.475 495.040, 882 491.723 C 879.525 488.405, 875.196 483.128, 872.380 479.996 C 869.564 476.864, 865.994 472.096, 864.446 469.400 C 846.790 438.654, 816.549 432.447, 809.839 458.193 C 806.885 469.527, 815.594 519.153, 824.578 542.186 C 826.442 546.963, 828.894 555.063, 830.028 560.186 C 831.162 565.309, 833.597 574.225, 835.439 580 C 848.921 622.263, 846.957 647.940, 828.090 676.111 C 812.658 699.152, 812.045 702.285, 822.409 705.132 C 826.690 706.308, 974.802 705.563, 1028.500 704.095 C 1065.446 703.085, 1068.535 700.857, 1060.818 680.779 C 1055.281 666.370, 1056.847 625.435, 1064.502 584.500 C 1068.658 562.271, 1069.570 555.844, 1071.522 535 C 1073.248 516.562, 1076.425 493.014, 1078.579 482.685 C 1083.580 458.702, 1070.448 421.148, 1059.421 427.903 M 286.853 497.250 C 283.471 503.501, 285.600 533.721, 290.972 555.720 C 292.584 562.322, 294.366 571.419, 294.933 575.935 C 296.974 592.216, 300.080 597.649, 314.500 610.167 C 328.172 622.034, 331.020 622.970, 338.107 617.924 C 348.010 610.872, 349.094 594.639, 340.532 581.603 C 338.120 577.931, 334.967 571.839, 333.524 568.064 C 332.082 564.289, 328.932 558.118, 326.525 554.350 C 324.118 550.583, 321.144 544.800, 319.915 541.500 C 318.686 538.200, 315.384 532.125, 312.577 528 C 309.770 523.875, 306.197 517.225, 304.637 513.222 C 299.700 500.552, 289.852 491.707, 286.853 497.250 M 294.900 625.134 C 289.869 628.051, 288.594 630.744, 285.489 645 C 283.992 651.875, 281.245 662.450, 279.386 668.500 C 271.190 695.173, 274.474 698.500, 309 698.500 C 342.772 698.500, 346.069 696.550, 350.103 674.181 C 354.320 650.797, 352.380 645.894, 338.336 644.429 C 329.157 643.472, 326.460 642.268, 322.398 637.311 C 313.580 626.548, 301.604 621.245, 294.900 625.134 M 563.873 638.694 C 547.070 641.348, 557.667 663.233, 579.500 670.968 C 622.602 686.239, 633.388 683.657, 626.029 659.830 C 621.516 645.217, 614.275 642.452, 570.500 638.629 C 568.300 638.437, 565.318 638.466, 563.873 638.694" stroke="none" fill="#909195" fill-rule="evenodd"/><path d="M 38.500 29.501 C 33.628 31.227, 30.412 34.755, 29.029 39.893 C 26.707 48.515, 28.188 767.968, 30.535 771.965 C 31.655 773.870, 34.130 776.345, 36.035 777.465 C 41.519 780.686, 1230.481 780.686, 1235.965 777.465 C 1244.373 772.525, 1243.500 815.775, 1243.500 404 C 1243.500 -7.775, 1244.373 35.475, 1235.965 30.535 C 1231.398 27.853, 46.044 26.829, 38.500 29.501 M 554 124.127 C 523.154 128.134, 491.284 150.075, 474.857 178.613 C 473.626 180.751, 470.714 185.209, 468.385 188.521 C 458.164 203.057, 453.289 233.217, 459.250 245.038 C 463.488 253.443, 467.131 254.378, 490.187 252.979 C 506.583 251.985, 608.874 252.182, 664.500 253.317 C 687.110 253.777, 692.860 244.622, 682.287 224.997 C 679.473 219.774, 675.546 210.811, 673.560 205.079 C 662.593 173.433, 640.694 147.451, 614.021 134.441 C 587.972 121.736, 581.268 120.584, 554 124.127 M 1003.712 123.125 C 991.290 125.549, 981.295 132.831, 956.027 157.863 C 939.397 174.338, 937.545 176.960, 934.043 189 C 932.843 193.125, 929.188 201.958, 925.921 208.629 C 917.478 225.871, 917.020 228.950, 921.034 241.500 C 929.582 268.230, 936.933 278.024, 953.259 284.433 C 985.793 297.205, 997.431 313.812, 991.148 338.500 C 990.029 342.900, 988.181 351.103, 987.042 356.729 C 985.903 362.354, 983.652 371.129, 982.041 376.229 C 980.430 381.328, 978.412 389.357, 977.557 394.071 C 975.892 403.254, 973.263 411.443, 967.627 425.007 C 965.297 430.614, 963.194 438.456, 961.459 448.007 C 959.573 458.392, 957.697 465.167, 954.842 471.909 C 951.658 479.425, 950.278 484.795, 947.983 498.603 C 944.362 520.384, 943.117 523, 936.369 523 C 930.279 523, 918.797 511.957, 904.136 492 C 896.283 481.310, 891.246 474.990, 881.320 463.370 C 880.319 462.198, 876.125 458.782, 872 455.777 C 867.875 452.773, 860.900 447.021, 856.500 442.995 C 835.587 423.862, 826.763 420.012, 816.217 425.417 C 789.191 439.269, 780.971 458.595, 789.426 488.404 C 790.814 493.301, 792.881 503.524, 794.018 511.121 C 796.123 525.185, 798.080 532.316, 801.878 539.761 C 803.047 542.051, 805.364 550.471, 807.028 558.472 C 808.691 566.472, 812.059 578.675, 814.512 585.588 C 830.392 630.353, 824.517 659.829, 793.076 693.146 C 778.046 709.073, 776.804 719.588, 789.175 726.191 C 797.622 730.700, 1069.037 728.732, 1079.540 724.085 C 1095.329 717.101, 1097.334 702.883, 1084.627 688.028 C 1076.671 678.728, 1075.025 666.448, 1078.966 645.801 C 1080.047 640.135, 1081.607 629.650, 1082.431 622.500 C 1083.256 615.350, 1085.275 602.300, 1086.919 593.500 C 1091.344 569.805, 1091.758 566.751, 1094.474 537.684 C 1099.384 485.136, 1106.930 457.561, 1119.253 447.145 C 1124.423 442.774, 1127.030 436.891, 1128.037 427.319 C 1130.012 408.544, 1128.368 325.742, 1125.518 300.500 C 1124.711 293.350, 1123.580 281.015, 1123.004 273.089 C 1122.428 265.163, 1120.838 252.177, 1119.471 244.232 C 1116.378 226.261, 1116.262 225.780, 1113.335 218.706 C 1112.016 215.519, 1109.378 207.056, 1107.473 199.898 C 1103.495 184.958, 1103.672 185.346, 1095.944 174.600 C 1092.741 170.145, 1087.730 163.156, 1084.810 159.068 C 1075.642 146.235, 1055.429 126.580, 1049.500 124.732 C 1043.457 122.848, 1010.972 121.708, 1003.712 123.125 M 184.500 124.438 C 181.750 125.136, 176.087 127.088, 171.915 128.777 C 162.804 132.466, 156.249 134.416, 142.563 137.508 C 136.893 138.790, 129.943 141.009, 127.119 142.440 C 119.675 146.212, 102.835 157.318, 100.500 159.995 C 99.400 161.256, 95.878 164.208, 92.672 166.555 C 74.576 179.805, 71.054 200.838, 85.179 211.301 C 88.693 213.903, 96.882 213.762, 107 210.925 C 118.027 207.834, 153.783 206.981, 159 209.686 C 165.490 213.050, 167.175 218.425, 167.648 237.280 C 168.424 268.220, 173.101 281.219, 190.890 301.872 C 194.655 306.244, 198.784 311.323, 200.066 313.160 C 201.347 314.997, 205.203 319.561, 208.634 323.303 C 216.100 331.445, 218.098 335.344, 221.543 348.500 C 222.984 354, 226.364 363.279, 229.054 369.120 C 232.394 376.369, 234.713 383.352, 236.362 391.120 C 237.690 397.379, 240.456 406.775, 242.508 412 C 246.339 421.755, 247.806 428.370, 250.383 447.500 C 251.197 453.550, 252.770 463, 253.878 468.500 C 256.412 481.086, 260.481 506.689, 262.540 523 C 263.408 529.875, 265.449 540.379, 267.076 546.343 C 272.300 565.491, 273.191 578.843, 270.488 597.500 C 269.691 603, 269.024 610.650, 269.007 614.500 C 268.985 619.166, 268.128 624.152, 266.434 629.456 C 265.037 633.832, 263.228 642.157, 262.415 647.956 C 258.969 672.546, 248.010 693.997, 237.307 697.103 C 229.418 699.393, 211.218 698.679, 187.241 695.139 C 162.791 691.529, 161.484 691.467, 153.460 693.539 C 128.919 699.874, 121.761 715.582, 142.597 717.375 C 146.501 717.711, 152.576 718.907, 156.097 720.033 C 171.638 725.002, 187.351 725.832, 212.439 723.008 C 220.574 722.092, 224.656 722.176, 234.939 723.467 C 244.993 724.730, 249.496 724.837, 257.500 724.001 C 277.058 721.960, 316.053 721.663, 335.427 723.408 C 351.946 724.895, 354.616 724.895, 369.427 723.399 C 386.509 721.674, 405.492 721.939, 416.500 724.057 C 425.760 725.838, 435.947 724.737, 449 720.544 C 458.089 717.624, 462.336 716.801, 469.256 716.618 C 480.043 716.334, 480.907 715.665, 478.531 709.441 C 472.720 694.227, 457.124 690.077, 426 695.463 C 379.908 703.440, 367.765 698.839, 372.485 675.184 C 373.438 670.408, 375.049 661.347, 376.064 655.048 C 379.251 635.284, 383.732 633.001, 391 647.440 C 404.670 674.596, 425.010 661.982, 430.408 623 C 433.624 599.768, 444.987 595.643, 466.808 609.786 C 470.277 612.034, 476.802 615.084, 481.308 616.563 C 488.851 619.039, 502.047 624.686, 517.825 632.191 C 525.184 635.691, 526.877 637.993, 530.557 649.500 C 533.072 657.362, 541.822 674.352, 546.657 680.759 C 550.162 685.405, 555.202 687.624, 569.734 690.921 C 576.755 692.514, 584.750 694.790, 587.500 695.980 C 593.530 698.590, 601.596 700.496, 613 702.008 C 617.675 702.627, 624.847 704.004, 628.938 705.067 C 656.021 712.105, 666.602 697.913, 654.432 670.874 C 648.077 656.755, 649.528 651.781, 661.802 645.600 C 679.165 636.856, 681.113 620.013, 667.116 599.668 C 665.452 597.251, 661.892 591.274, 659.203 586.386 C 652.021 573.333, 642.208 558.069, 638.059 553.500 C 636.062 551.300, 633.007 547.025, 631.270 544 C 629.533 540.975, 623.914 533.996, 618.783 528.492 C 613.652 522.987, 607.123 515.112, 604.274 510.992 C 601.425 506.871, 597.065 501.805, 594.586 499.733 C 590.545 496.356, 577.178 478.061, 573.302 470.602 C 572.473 469.008, 571.385 462.974, 570.883 457.193 C 569.114 436.820, 565.933 428.097, 556.976 419.056 C 553.826 415.877, 549.393 410.098, 547.124 406.213 C 542.505 398.303, 523.626 380.337, 508.792 369.733 C 500.456 363.774, 484.070 348.368, 466.500 329.971 C 461 324.212, 453.864 317.291, 450.641 314.592 C 447.419 311.892, 442.420 306.819, 439.533 303.319 C 436.646 299.818, 430.234 293.803, 425.284 289.952 C 418.930 285.008, 414.594 280.601, 410.535 274.963 C 407.372 270.571, 402.424 264.845, 399.538 262.238 C 396.652 259.632, 390.151 251.793, 385.091 244.818 C 378.689 235.995, 373.818 230.462, 369.076 226.631 C 365.328 223.603, 360.090 218.509, 357.435 215.313 C 349.269 205.477, 344.784 201.029, 337.362 195.403 C 333.437 192.427, 329.500 188.886, 328.614 187.534 C 320.362 174.939, 288.827 159.079, 271.928 159.024 C 259.331 158.984, 257.116 157.755, 238.550 140.502 C 223.538 126.552, 221.605 125.081, 216.981 124.089 C 210.229 122.641, 190.761 122.850, 184.500 124.438 M 543.396 144.418 C 541.139 145.125, 537.169 147.164, 534.573 148.950 C 531.977 150.736, 526.139 153.913, 521.600 156.010 C 512.232 160.338, 497.788 171.632, 493.937 177.640 C 479.308 200.467, 476.986 220.568, 488.267 226.733 C 493.707 229.706, 642.575 229.432, 646.677 226.441 C 654.188 220.965, 656.220 208.517, 651.174 198.891 C 636.275 170.466, 628.178 162.398, 599.832 147.726 C 591.994 143.669, 553.077 141.388, 543.396 144.418 M 1013.039 144.025 C 985.669 146.861, 971.374 161.010, 978.971 177.746 C 985.509 192.148, 988.526 193.703, 1011.713 194.615 C 1030.615 195.359, 1031.120 195.516, 1039.538 203.209 C 1051.561 214.197, 1052.270 224.636, 1041.844 237.159 C 1039.062 240.501, 1037.547 243.612, 1036.486 248.159 C 1027.011 288.754, 1027.322 285.991, 1026.058 341 C 1025.484 366.025, 1024.774 394.217, 1024.482 403.649 C 1023.793 425.912, 1026.286 431.841, 1033.120 424.191 C 1036.233 420.708, 1036.123 421.329, 1039.045 390.500 C 1044.275 335.307, 1058.652 320.976, 1084.267 345.422 C 1098.346 358.858, 1099.920 365.464, 1098.258 404.168 C 1097.093 431.310, 1097.206 433.303, 1099.876 432.780 C 1101.341 432.492, 1101.465 429.568, 1101.139 402.981 C 1100.853 379.605, 1101.134 370.497, 1102.498 359 C 1103.750 348.441, 1104.046 340.967, 1103.587 331.500 C 1103.240 324.350, 1102.734 310.850, 1102.463 301.500 C 1102.192 292.150, 1101.530 281.350, 1100.993 277.500 C 1100.456 273.650, 1099.589 265.008, 1099.066 258.295 C 1098.317 248.676, 1097.269 243.378, 1094.119 233.295 C 1091.921 226.258, 1088.366 213.075, 1086.218 204 C 1080.948 181.735, 1077.832 175.285, 1065.718 161.565 C 1050.691 144.545, 1040.564 141.174, 1013.039 144.025 M 215 148.709 C 212.021 149.805, 209.971 152.395, 208.906 156.409 C 205.713 168.450, 193.462 170.155, 183.487 159.947 C 174.969 151.229, 171.599 150.479, 156.628 153.970 C 145.383 156.592, 140.084 158.736, 130.363 164.595 C 125.888 167.293, 120.825 170.267, 119.113 171.203 C 108.704 176.899, 117.950 182.520, 141.115 184.579 C 186.102 188.576, 190.439 193.301, 190.610 238.500 C 190.819 293.705, 212.266 317.030, 246.324 299.093 C 267.847 287.757, 278.515 297.049, 259.910 310.927 C 240.232 325.606, 237.074 339.499, 249.091 358.526 C 255.668 368.940, 281.337 419.242, 285.734 430.331 C 286.643 432.624, 289.081 437.656, 291.152 441.513 C 293.223 445.370, 296.247 451.749, 297.872 455.690 C 299.497 459.630, 302.593 465.474, 304.752 468.677 C 306.912 471.880, 309.893 477.704, 311.377 481.620 C 312.861 485.536, 315.840 491.105, 317.997 493.996 C 320.153 496.886, 323.333 502.682, 325.062 506.876 C 326.791 511.069, 329.597 516.750, 331.297 519.500 C 337.315 529.237, 352.197 559.613, 354.830 567.534 C 361.898 588.801, 389.785 623, 400.058 623 C 409.152 623, 412.337 612.521, 408.432 595.447 C 400.371 560.199, 410.619 552.342, 437.211 573.385 C 447.224 581.308, 450.033 582.840, 460.455 586.059 C 463.812 587.096, 469.745 589.983, 473.639 592.474 C 478.964 595.881, 483.174 597.612, 490.610 599.454 C 496.050 600.801, 503.650 603.203, 507.501 604.792 C 516.023 608.309, 521.613 609.614, 534 610.980 C 539.225 611.556, 549.575 612.909, 557 613.988 C 570.261 615.914, 602.289 617.973, 621 618.103 C 626.225 618.139, 633.022 618.485, 636.104 618.871 C 654.782 621.212, 654.523 604.992, 635.516 582 C 633.015 578.975, 629.135 572.900, 626.893 568.500 C 624.652 564.100, 622.009 559.600, 621.021 558.500 C 620.032 557.400, 614.853 549.975, 609.510 542 C 604.168 534.025, 597.226 524.800, 594.084 521.500 C 590.942 518.200, 586.397 512.575, 583.986 509 C 581.574 505.425, 575.487 498.225, 570.460 493 C 562.218 484.433, 554.935 474.577, 550.475 465.953 C 549.433 463.936, 548.537 458.311, 547.960 450.160 C 546.323 427.014, 545.046 422.226, 539.552 418.626 C 538.142 417.702, 531.678 411.896, 525.187 405.723 C 518.696 399.550, 511.161 392.463, 508.443 389.974 C 505.724 387.484, 500.875 382.411, 497.666 378.699 C 494.457 374.988, 488.832 369.504, 485.166 366.513 C 476.779 359.670, 447.228 330.592, 440.078 322.146 C 437.119 318.651, 431.461 313.397, 427.503 310.470 C 423.275 307.343, 417.699 301.844, 413.980 297.131 C 410.431 292.634, 404.907 287.138, 401.405 284.619 C 397.670 281.931, 393.571 277.785, 391.204 274.301 C 389.029 271.097, 382.102 263.081, 375.811 256.488 C 369.520 249.895, 361.837 241.048, 358.738 236.829 C 355.639 232.610, 350.267 226.835, 346.802 223.996 C 343.336 221.156, 336.900 215.109, 332.500 210.557 C 328.100 206.006, 322.505 201.268, 320.068 200.028 C 317.630 198.788, 312.230 194.536, 308.068 190.580 C 282.533 166.308, 251.988 179.672, 254.616 213.966 C 257.040 245.593, 252.699 256, 237.083 256 C 219.247 256, 214.765 212.329, 229.164 178.853 C 235.903 163.187, 227.023 144.289, 215 148.709 M 971.998 210.025 C 964.384 214.528, 959.251 216.561, 950.797 218.420 C 941.977 220.360, 939.651 229.064, 945.247 239.185 C 947.168 242.658, 949.482 247.780, 950.389 250.566 C 952.191 256.100, 956.320 260.618, 964.500 266.008 C 967.250 267.820, 972.650 271.873, 976.501 275.014 C 994.685 289.851, 1000.422 289.010, 1008.284 270.353 C 1016.348 251.213, 1020.879 242.142, 1024.303 238.275 C 1037.288 223.614, 1033.625 214.873, 1014.089 213.895 C 1002.474 213.313, 1001.678 213.128, 993.675 209.145 C 983.154 203.908, 982.281 203.944, 971.998 210.025 M 1059.421 427.903 C 1056.312 429.808, 1050.328 436.030, 1045.544 442.334 C 1035.247 455.902, 1026.213 454.895, 1010.500 438.427 C 996.984 424.262, 990.322 426.084, 984.529 445.532 C 983.060 450.464, 980.565 458.775, 978.983 464 C 975.450 475.677, 971.565 494.200, 968.980 511.700 C 965.616 534.482, 964.675 537.393, 957.378 547.619 C 945.381 564.431, 935.726 561.030, 913.443 532.143 C 907.655 524.639, 899.224 513.832, 894.709 508.127 C 890.194 502.422, 884.475 495.040, 882 491.723 C 879.525 488.405, 875.196 483.128, 872.380 479.996 C 869.564 476.864, 865.994 472.096, 864.446 469.400 C 846.790 438.654, 816.549 432.447, 809.839 458.193 C 806.885 469.527, 815.594 519.153, 824.578 542.186 C 826.442 546.963, 828.894 555.063, 830.028 560.186 C 831.162 565.309, 833.597 574.225, 835.439 580 C 848.921 622.263, 846.957 647.940, 828.090 676.111 C 812.658 699.152, 812.045 702.285, 822.409 705.132 C 826.690 706.308, 974.802 705.563, 1028.500 704.095 C 1065.446 703.085, 1068.535 700.857, 1060.818 680.779 C 1055.281 666.370, 1056.847 625.435, 1064.502 584.500 C 1068.658 562.271, 1069.570 555.844, 1071.522 535 C 1073.248 516.562, 1076.425 493.014, 1078.579 482.685 C 1083.580 458.702, 1070.448 421.148, 1059.421 427.903 M 286.853 497.250 C 283.471 503.501, 285.600 533.721, 290.972 555.720 C 292.584 562.322, 294.366 571.419, 294.933 575.935 C 296.974 592.216, 300.080 597.649, 314.500 610.167 C 328.172 622.034, 331.020 622.970, 338.107 617.924 C 348.010 610.872, 349.094 594.639, 340.532 581.603 C 338.120 577.931, 334.967 571.839, 333.524 568.064 C 332.082 564.289, 328.932 558.118, 326.525 554.350 C 324.118 550.583, 321.144 544.800, 319.915 541.500 C 318.686 538.200, 315.384 532.125, 312.577 528 C 309.770 523.875, 306.197 517.225, 304.637 513.222 C 299.700 500.552, 289.852 491.707, 286.853 497.250 M 294.900 625.134 C 289.869 628.051, 288.594 630.744, 285.489 645 C 283.992 651.875, 281.245 662.450, 279.386 668.500 C 271.190 695.173, 274.474 698.500, 309 698.500 C 342.772 698.500, 346.069 696.550, 350.103 674.181 C 354.320 650.797, 352.380 645.894, 338.336 644.429 C 329.157 643.472, 326.460 642.268, 322.398 637.311 C 313.580 626.548, 301.604 621.245, 294.900 625.134 M 563.873 638.694 C 547.070 641.348, 557.667 663.233, 579.500 670.968 C 622.602 686.239, 633.388 683.657, 626.029 659.830 C 621.516 645.217, 614.275 642.452, 570.500 638.629 C 568.300 638.437, 565.318 638.466, 563.873 638.694" stroke="none" fill="#f0f1f1" fill-rule="evenodd"/></svg>