<svg xmlns="http://www.w3.org/2000/svg" width="1272" height="660" viewBox="0 0 1272 660" version="1.1"><path d="M 591.945 88.450 C 576.505 94.139, 564.590 105.768, 559.946 119.682 C 557.618 126.655, 556.755 571.663, 559.053 580.195 C 560.752 586.508, 567.470 590.291, 572.949 588.021 C 579.279 585.399, 578.819 603.027, 579.190 349 C 579.575 85.088, 578.517 111.942, 588.715 107.272 C 605.019 99.807, 615.854 104.652, 620.907 121.666 C 622.077 125.607, 624.596 131.007, 626.505 133.666 C 635.395 146.048, 634.437 129.243, 635 282.544 C 635.552 432.614, 635.042 421.361, 641.473 425.574 C 646.350 428.770, 653.913 424.275, 656.020 416.931 C 657.457 411.921, 657.336 142.751, 655.895 137.560 C 655.198 135.050, 652.702 131.420, 649.018 127.560 C 645.837 124.227, 641.843 118.722, 640.142 115.327 C 638.248 111.548, 635.429 107.864, 632.870 105.827 C 630.572 103.997, 626.398 100.294, 623.596 97.597 C 613.934 88.301, 601.839 84.805, 591.945 88.450 M 264.347 91.450 C 262.614 92.204, 259.409 95.239, 257.226 98.195 C 246.536 112.664, 242.670 113.288, 232.079 102.250 C 217.710 87.275, 208.307 86.597, 198.799 99.849 C 190.518 111.391, 185.569 112.013, 176.591 102.642 C 163.397 88.871, 150.837 88.280, 141.505 100.993 C 133.900 111.354, 126.502 111.573, 118.911 101.661 C 106.308 85.206, 90.124 89.108, 79.490 111.166 C 77.546 115.200, 74.390 120.955, 72.477 123.956 C 68.164 130.723, 67.743 136.470, 71.314 139.826 C 75.837 144.074, 81.613 141.751, 86.730 133.625 C 99.442 113.441, 105.678 111.619, 115.634 125.183 C 123.501 135.900, 137.250 136.716, 144.008 126.867 C 154.258 111.927, 158.188 111.405, 170.725 123.322 C 184.780 136.682, 193.847 136.729, 203.391 123.491 C 211.011 112.922, 215.907 112.572, 224.892 121.957 C 237.864 135.508, 248.220 135.656, 260.537 122.465 C 269.161 113.229, 275.718 113.509, 282.835 123.419 C 291.773 135.866, 303.798 135.163, 316.942 121.424 C 326.717 111.207, 330.496 111.587, 339.948 123.734 C 350.063 136.732, 358.553 136.604, 372.202 123.247 C 383.850 111.849, 388.450 112.073, 396.968 124.454 C 405.500 136.855, 418.233 137.228, 427.208 125.341 C 436.639 112.850, 441.830 114.179, 454.146 132.238 C 459.493 140.080, 461.764 142, 465.689 142 C 474.294 142, 475.622 132.957, 468.536 122.606 C 466.081 119.020, 462.656 113.281, 460.926 109.852 C 456.762 101.605, 447.738 92.549, 442.750 91.613 C 434.853 90.131, 430.981 92.319, 420.224 104.339 C 414.370 110.882, 407.860 109.705, 400.649 100.801 C 390.682 88.496, 378.600 88.907, 366.249 101.971 C 356.710 112.062, 354.383 111.972, 344.025 101.109 C 331.112 87.567, 322.979 87.641, 309.465 101.424 C 298.891 112.208, 295.525 111.980, 286.959 99.903 C 280.343 90.576, 272.820 87.764, 264.347 91.450 M 94.175 164.397 C 86.341 166.384, 69.302 178.764, 55.322 192.626 C 41.467 206.364, 45.038 214.504, 71.951 230.529 C 78.402 234.371, 78.402 234.371, 92.951 235.086 C 119.607 236.398, 122.396 242.912, 110.468 276 C 105.292 290.358, 110.754 301.043, 131.054 316.272 C 138.916 322.170, 208.593 325.308, 243.500 321.337 C 270.794 318.231, 363.449 321.481, 373 325.878 C 378.225 328.284, 384.789 331.047, 387.587 332.017 C 398.668 335.858, 408.930 344.092, 411.065 350.854 C 411.698 352.859, 413.968 357.742, 416.109 361.704 C 421.601 371.868, 422.956 378.074, 424.019 397.922 C 424.532 407.503, 425.439 418.904, 426.035 423.255 C 426.935 429.831, 426.813 433.138, 425.309 442.834 C 421.222 469.191, 422.740 515.610, 428.127 529 C 430.671 535.325, 433.308 542.230, 433.985 544.345 C 434.663 546.459, 437.095 550.509, 439.389 553.345 C 441.684 556.180, 445.697 561.728, 448.306 565.673 C 464.031 589.445, 489.344 597.516, 486.716 577.920 C 486.129 573.541, 485.225 571.621, 472.674 548.105 C 457.529 519.727, 455.976 478.455, 468.557 438.631 C 474.085 421.132, 476.511 376.606, 472.963 357.769 C 470.091 342.522, 451.536 312.189, 437.918 300.478 C 432.815 296.090, 426.809 290.675, 424.570 288.444 C 418.327 282.223, 384.348 264.958, 372.811 262.145 C 357.221 258.344, 320.411 257.355, 292.500 259.987 C 287 260.506, 276.892 261.405, 270.037 261.984 C 263.183 262.564, 250.245 264.155, 241.287 265.519 C 232.329 266.884, 217.646 269.120, 208.657 270.489 C 199.669 271.859, 187.914 274.334, 182.534 275.989 C 158.597 283.358, 152.828 277.019, 157.514 248.500 C 161.565 223.844, 157.066 199.667, 146.089 187.103 C 126.217 164.359, 114.510 159.238, 94.175 164.397 M 797.500 164.390 C 794.750 165.061, 789.575 167.219, 786 169.185 C 782.425 171.151, 777.420 173.528, 774.878 174.467 C 772.336 175.406, 767.611 178.305, 764.378 180.909 C 757.869 186.153, 742.839 196, 741.346 196 C 724.217 196, 726.922 217.610, 744.785 223.470 C 753.385 226.291, 755.889 227.910, 764.827 236.425 C 771.188 242.485, 772.123 244.146, 774.902 254.333 C 776.078 258.641, 778.802 265.391, 780.955 269.333 C 783.109 273.275, 785.839 279.103, 787.020 282.284 C 788.202 285.466, 790.685 290.054, 792.537 292.480 C 794.389 294.906, 796.885 298.829, 798.085 301.196 C 803.800 312.478, 816.944 327.742, 845.750 356.549 C 851.938 362.737, 857 368.293, 857 368.896 C 857 369.498, 859.813 373.077, 863.250 376.847 C 900.333 417.521, 880.965 480.227, 831.866 478.460 C 791.929 477.023, 773.886 481.226, 765.895 493.827 C 758.665 505.227, 764.968 509.156, 780.504 502.935 C 798.649 495.669, 837.479 495.916, 858.233 503.429 C 865.242 505.966, 871.084 507.211, 881.689 508.429 C 889.455 509.321, 898.127 510.740, 900.959 511.581 C 910.223 514.332, 913.741 513.389, 918.724 506.822 C 927.287 495.535, 970.294 492.781, 993.575 502.030 C 1011.321 509.079, 1015.030 501.818, 1001.174 487.154 C 994.736 480.341, 991.620 479.098, 974.669 476.582 C 956.926 473.949, 953.635 466.729, 963.011 451 C 965.142 447.425, 967.661 441.380, 968.610 437.568 C 972.739 420.972, 986.210 414.945, 1018.974 415.034 C 1039.295 415.089, 1052.015 416.991, 1061.897 421.453 C 1067.240 423.866, 1073.603 425.794, 1079.396 426.757 C 1088.154 428.212, 1090.749 429.216, 1099.500 434.536 C 1101.700 435.873, 1106.425 437.926, 1110 439.097 C 1113.575 440.269, 1119.425 442.842, 1123 444.814 C 1126.575 446.786, 1133.775 449.633, 1139 451.139 C 1144.225 452.645, 1151.875 455.080, 1156 456.550 C 1170.504 461.718, 1180.475 459.506, 1191.848 448.597 C 1205.456 435.546, 1205.525 425.742, 1192.094 413.919 C 1184.369 407.120, 1184.157 406.015, 1189.031 397.949 C 1198.459 382.344, 1192.082 377.260, 1169.500 382.379 C 1150.586 386.666, 1139.266 383.843, 1117.186 369.335 C 1114.813 367.776, 1109.851 364.700, 1106.159 362.500 C 1096.772 356.906, 1088.026 351.375, 1078.941 345.286 C 1074.663 342.418, 1069.781 339.493, 1068.094 338.786 C 1066.406 338.079, 1061.982 335.353, 1058.263 332.729 C 1046.498 324.430, 1035.608 317.351, 1030.978 314.993 C 1028.515 313.739, 1024.700 311.278, 1022.500 309.524 C 1020.300 307.770, 1016.700 305.284, 1014.500 304 C 1012.300 302.716, 1008.700 300.229, 1006.500 298.474 C 1004.300 296.718, 1000.210 294.123, 997.412 292.706 C 994.614 291.290, 990.339 288.624, 987.912 286.783 C 985.485 284.942, 981.700 282.366, 979.500 281.058 C 977.300 279.751, 973.968 277.515, 972.095 276.090 C 970.223 274.666, 965.220 271.250, 960.977 268.500 C 948.485 260.402, 938.842 253.884, 933.500 249.928 C 930.750 247.891, 926.475 245.212, 924 243.973 C 921.525 242.735, 914.550 238.036, 908.500 233.532 C 902.450 229.028, 895.025 223.743, 892 221.787 C 885.565 217.628, 870.260 202.767, 857.500 188.288 C 838.530 166.763, 819.248 159.083, 797.500 164.390 M 96.892 181.904 C 67.208 191.549, 64.804 216, 93.539 216 C 107.769 216, 112.630 217.648, 123.001 225.988 C 137.711 237.816, 143.228 231.460, 139.003 207.549 C 135.770 189.248, 114.379 176.221, 96.892 181.904 M 812.250 183.999 C 809.382 185.193, 809.419 186.105, 812.448 188.951 C 816.985 193.214, 816.933 200.549, 812.326 206.024 C 805.282 214.395, 797.386 201.635, 802.039 189.398 C 803.977 184.301, 798.220 183.754, 789.328 188.191 C 776.862 194.411, 775.755 208.059, 785.978 229.500 C 788.600 235, 791.546 241.975, 792.524 245 C 793.503 248.025, 795.783 253.760, 797.592 257.744 C 799.401 261.728, 801.800 268.236, 802.924 272.207 C 804.047 276.179, 806.412 281.694, 808.179 284.464 C 809.946 287.234, 812.682 292.141, 814.259 295.368 C 815.836 298.596, 819.235 304.052, 821.813 307.493 C 824.391 310.934, 828.075 316.384, 830 319.605 C 832.270 323.402, 841.247 333.199, 855.544 347.480 C 873.001 364.918, 879.003 371.623, 884.386 379.702 C 894.727 395.220, 898.995 397.596, 906.428 391.972 C 914.153 386.127, 922.814 388.956, 931.812 400.264 C 946.944 419.280, 950.285 419.885, 966.932 406.624 C 972.144 402.472, 975.454 400.819, 984.381 397.909 C 1003.098 391.807, 1000.794 386.394, 977 380.565 C 971.225 379.150, 963.575 376.477, 960 374.624 C 956.425 372.771, 949.553 370.055, 944.728 368.589 C 939.904 367.122, 933.701 364.593, 930.945 362.967 C 928.189 361.342, 922.600 358.718, 918.526 357.136 C 914.451 355.554, 908.279 352.238, 904.809 349.766 C 901.339 347.295, 896.250 344.071, 893.500 342.603 C 886.337 338.777, 873.313 329.697, 868.564 325.218 C 866.329 323.110, 862.475 319.768, 860 317.791 C 846.746 307.204, 830.833 289.313, 825.503 279.007 C 816.719 262.020, 839.831 238.053, 857.768 245.548 C 869.883 250.610, 868.757 257.122, 855.114 260.902 C 832.089 267.280, 840.254 286.396, 876.216 310.303 C 883.209 314.952, 891.084 320.554, 893.716 322.751 C 898.795 326.993, 914.850 335.454, 925.246 339.369 C 928.686 340.665, 933.750 343.154, 936.500 344.902 C 939.250 346.650, 943.975 348.789, 947 349.656 C 950.025 350.522, 956.649 352.983, 961.721 355.125 C 966.792 357.266, 976.762 360.331, 983.877 361.935 C 990.992 363.539, 998.093 365.509, 999.656 366.311 C 1005.022 369.065, 1012.127 371.017, 1022.307 372.535 C 1035.738 374.537, 1053.702 378.343, 1064.513 381.476 C 1090.301 388.949, 1102.901 380.676, 1083.113 369.263 C 1080.576 367.800, 1074.986 364.217, 1070.691 361.301 C 1066.395 358.386, 1062.294 356, 1061.577 356 C 1060.860 356, 1057.174 353.707, 1053.387 350.903 C 1049.599 348.100, 1044.894 344.983, 1042.931 343.975 C 1040.967 342.968, 1037.399 340.504, 1035 338.500 C 1032.601 336.496, 1028.902 333.970, 1026.779 332.887 C 1022.677 330.795, 1006.195 320.048, 999.472 315.082 C 997.257 313.446, 993.207 310.879, 990.472 309.378 C 987.738 307.877, 983.720 305.265, 981.545 303.574 C 979.370 301.883, 972.060 296.900, 965.302 292.500 C 958.543 288.100, 950.963 283.150, 948.456 281.500 C 945.950 279.850, 940.793 276.475, 936.997 274 C 926.283 267.015, 917.862 261.347, 913.663 258.291 C 901.907 249.740, 898.931 247.481, 893.153 242.725 C 879.919 231.830, 874.360 226.743, 870 221.542 C 867.525 218.589, 861.450 212.840, 856.500 208.767 C 851.550 204.694, 846.270 199.745, 844.767 197.770 C 839.662 191.061, 817.664 181.744, 812.250 183.999 M 299 280.579 C 293.225 281.292, 282.650 282.340, 275.500 282.906 C 229.537 286.546, 203.279 290.542, 192.075 295.600 C 179.236 301.397, 189.541 302.364, 255.500 301.556 C 338.928 300.532, 368.460 302.429, 384.821 309.863 C 389.594 312.032, 394.625 314.121, 396 314.507 C 410.207 318.490, 432.655 350.006, 438.390 374.021 C 445.007 401.726, 450.677 414.496, 453.312 407.628 C 454.520 404.481, 455.195 369.313, 454.154 363.776 C 451.748 350.981, 444.886 332.050, 440.526 326.178 C 438.208 323.055, 435.051 318.151, 433.512 315.279 C 427.515 304.091, 394.867 285.536, 378.071 283.771 C 373.357 283.275, 364.483 281.999, 358.351 280.935 C 345.147 278.644, 316.068 278.469, 299 280.579 M 131.328 283.622 C 125.460 292.579, 133.001 303.072, 145.200 302.923 C 158.179 302.765, 162.297 299.978, 156.285 295.422 C 154.203 293.845, 149.393 289.954, 145.596 286.777 C 137.634 280.115, 134.133 279.341, 131.328 283.622 M 1108.250 408.431 C 1102.245 411.152, 1105.925 416.021, 1117.637 420.850 C 1121.550 422.464, 1127.724 425.577, 1131.356 427.768 C 1149.235 438.551, 1176.068 441.082, 1179.437 432.303 C 1183.741 421.087, 1124.308 401.157, 1108.250 408.431 M 916.404 418.434 C 913.122 419.854, 911.647 422.654, 908.597 433.254 C 906.946 438.993, 899.391 451.182, 891.938 460.132 C 879.972 474.501, 883.831 480.514, 905 480.484 C 921.549 480.460, 926.996 477.955, 933.837 467.222 C 944.256 450.874, 939.743 427.116, 924.651 418.871 C 921.825 417.327, 919.276 417.192, 916.404 418.434" stroke="none" fill="#98999c" fill-rule="evenodd"/><path d="M 38.500 29.501 C 33.626 31.228, 30.412 34.755, 29.027 39.898 C 26.710 48.504, 28.186 619.965, 30.535 623.965 C 31.655 625.870, 34.130 628.345, 36.035 629.465 C 41.519 632.686, 1230.481 632.686, 1235.965 629.465 C 1244.345 624.541, 1243.500 658.121, 1243.500 330 C 1243.500 1.879, 1244.345 35.459, 1235.965 30.535 C 1231.398 27.853, 46.044 26.829, 38.500 29.501 M 591.945 88.450 C 576.505 94.139, 564.590 105.768, 559.946 119.682 C 557.618 126.655, 556.755 571.663, 559.053 580.195 C 560.752 586.508, 567.470 590.291, 572.949 588.021 C 579.279 585.399, 578.819 603.027, 579.190 349 C 579.575 85.088, 578.517 111.942, 588.715 107.272 C 605.019 99.807, 615.854 104.652, 620.907 121.666 C 622.077 125.607, 624.596 131.007, 626.505 133.666 C 635.395 146.048, 634.437 129.243, 635 282.544 C 635.552 432.614, 635.042 421.361, 641.473 425.574 C 646.350 428.770, 653.913 424.275, 656.020 416.931 C 657.457 411.921, 657.336 142.751, 655.895 137.560 C 655.198 135.050, 652.702 131.420, 649.018 127.560 C 645.837 124.227, 641.843 118.722, 640.142 115.327 C 638.248 111.548, 635.429 107.864, 632.870 105.827 C 630.572 103.997, 626.398 100.294, 623.596 97.597 C 613.934 88.301, 601.839 84.805, 591.945 88.450 M 264.347 91.450 C 262.614 92.204, 259.409 95.239, 257.226 98.195 C 246.536 112.664, 242.670 113.288, 232.079 102.250 C 217.710 87.275, 208.307 86.597, 198.799 99.849 C 190.518 111.391, 185.569 112.013, 176.591 102.642 C 163.397 88.871, 150.837 88.280, 141.505 100.993 C 133.900 111.354, 126.502 111.573, 118.911 101.661 C 106.308 85.206, 90.124 89.108, 79.490 111.166 C 77.546 115.200, 74.390 120.955, 72.477 123.956 C 68.164 130.723, 67.743 136.470, 71.314 139.826 C 75.837 144.074, 81.613 141.751, 86.730 133.625 C 99.442 113.441, 105.678 111.619, 115.634 125.183 C 123.501 135.900, 137.250 136.716, 144.008 126.867 C 154.258 111.927, 158.188 111.405, 170.725 123.322 C 184.780 136.682, 193.847 136.729, 203.391 123.491 C 211.011 112.922, 215.907 112.572, 224.892 121.957 C 237.864 135.508, 248.220 135.656, 260.537 122.465 C 269.161 113.229, 275.718 113.509, 282.835 123.419 C 291.773 135.866, 303.798 135.163, 316.942 121.424 C 326.717 111.207, 330.496 111.587, 339.948 123.734 C 350.063 136.732, 358.553 136.604, 372.202 123.247 C 383.850 111.849, 388.450 112.073, 396.968 124.454 C 405.500 136.855, 418.233 137.228, 427.208 125.341 C 436.639 112.850, 441.830 114.179, 454.146 132.238 C 459.493 140.080, 461.764 142, 465.689 142 C 474.294 142, 475.622 132.957, 468.536 122.606 C 466.081 119.020, 462.656 113.281, 460.926 109.852 C 456.762 101.605, 447.738 92.549, 442.750 91.613 C 434.853 90.131, 430.981 92.319, 420.224 104.339 C 414.370 110.882, 407.860 109.705, 400.649 100.801 C 390.682 88.496, 378.600 88.907, 366.249 101.971 C 356.710 112.062, 354.383 111.972, 344.025 101.109 C 331.112 87.567, 322.979 87.641, 309.465 101.424 C 298.891 112.208, 295.525 111.980, 286.959 99.903 C 280.343 90.576, 272.820 87.764, 264.347 91.450 M 94.175 164.397 C 86.341 166.384, 69.302 178.764, 55.322 192.626 C 41.467 206.364, 45.038 214.504, 71.951 230.529 C 78.402 234.371, 78.402 234.371, 92.951 235.086 C 119.607 236.398, 122.396 242.912, 110.468 276 C 105.292 290.358, 110.754 301.043, 131.054 316.272 C 138.916 322.170, 208.593 325.308, 243.500 321.337 C 270.794 318.231, 363.449 321.481, 373 325.878 C 378.225 328.284, 384.789 331.047, 387.587 332.017 C 398.668 335.858, 408.930 344.092, 411.065 350.854 C 411.698 352.859, 413.968 357.742, 416.109 361.704 C 421.601 371.868, 422.956 378.074, 424.019 397.922 C 424.532 407.503, 425.439 418.904, 426.035 423.255 C 426.935 429.831, 426.813 433.138, 425.309 442.834 C 421.222 469.191, 422.740 515.610, 428.127 529 C 430.671 535.325, 433.308 542.230, 433.985 544.345 C 434.663 546.459, 437.095 550.509, 439.389 553.345 C 441.684 556.180, 445.697 561.728, 448.306 565.673 C 464.031 589.445, 489.344 597.516, 486.716 577.920 C 486.129 573.541, 485.225 571.621, 472.674 548.105 C 457.529 519.727, 455.976 478.455, 468.557 438.631 C 474.085 421.132, 476.511 376.606, 472.963 357.769 C 470.091 342.522, 451.536 312.189, 437.918 300.478 C 432.815 296.090, 426.809 290.675, 424.570 288.444 C 418.327 282.223, 384.348 264.958, 372.811 262.145 C 357.221 258.344, 320.411 257.355, 292.500 259.987 C 287 260.506, 276.892 261.405, 270.037 261.984 C 263.183 262.564, 250.245 264.155, 241.287 265.519 C 232.329 266.884, 217.646 269.120, 208.657 270.489 C 199.669 271.859, 187.914 274.334, 182.534 275.989 C 158.597 283.358, 152.828 277.019, 157.514 248.500 C 161.565 223.844, 157.066 199.667, 146.089 187.103 C 126.217 164.359, 114.510 159.238, 94.175 164.397 M 797.500 164.390 C 794.750 165.061, 789.575 167.219, 786 169.185 C 782.425 171.151, 777.420 173.528, 774.878 174.467 C 772.336 175.406, 767.611 178.305, 764.378 180.909 C 757.869 186.153, 742.839 196, 741.346 196 C 724.217 196, 726.922 217.610, 744.785 223.470 C 753.385 226.291, 755.889 227.910, 764.827 236.425 C 771.188 242.485, 772.123 244.146, 774.902 254.333 C 776.078 258.641, 778.802 265.391, 780.955 269.333 C 783.109 273.275, 785.839 279.103, 787.020 282.284 C 788.202 285.466, 790.685 290.054, 792.537 292.480 C 794.389 294.906, 796.885 298.829, 798.085 301.196 C 803.800 312.478, 816.944 327.742, 845.750 356.549 C 851.938 362.737, 857 368.293, 857 368.896 C 857 369.498, 859.813 373.077, 863.250 376.847 C 900.333 417.521, 880.965 480.227, 831.866 478.460 C 791.929 477.023, 773.886 481.226, 765.895 493.827 C 758.665 505.227, 764.968 509.156, 780.504 502.935 C 798.649 495.669, 837.479 495.916, 858.233 503.429 C 865.242 505.966, 871.084 507.211, 881.689 508.429 C 889.455 509.321, 898.127 510.740, 900.959 511.581 C 910.223 514.332, 913.741 513.389, 918.724 506.822 C 927.287 495.535, 970.294 492.781, 993.575 502.030 C 1011.321 509.079, 1015.030 501.818, 1001.174 487.154 C 994.736 480.341, 991.620 479.098, 974.669 476.582 C 956.926 473.949, 953.635 466.729, 963.011 451 C 965.142 447.425, 967.661 441.380, 968.610 437.568 C 972.739 420.972, 986.210 414.945, 1018.974 415.034 C 1039.295 415.089, 1052.015 416.991, 1061.897 421.453 C 1067.240 423.866, 1073.603 425.794, 1079.396 426.757 C 1088.154 428.212, 1090.749 429.216, 1099.500 434.536 C 1101.700 435.873, 1106.425 437.926, 1110 439.097 C 1113.575 440.269, 1119.425 442.842, 1123 444.814 C 1126.575 446.786, 1133.775 449.633, 1139 451.139 C 1144.225 452.645, 1151.875 455.080, 1156 456.550 C 1170.504 461.718, 1180.475 459.506, 1191.848 448.597 C 1205.456 435.546, 1205.525 425.742, 1192.094 413.919 C 1184.369 407.120, 1184.157 406.015, 1189.031 397.949 C 1198.459 382.344, 1192.082 377.260, 1169.500 382.379 C 1150.586 386.666, 1139.266 383.843, 1117.186 369.335 C 1114.813 367.776, 1109.851 364.700, 1106.159 362.500 C 1096.772 356.906, 1088.026 351.375, 1078.941 345.286 C 1074.663 342.418, 1069.781 339.493, 1068.094 338.786 C 1066.406 338.079, 1061.982 335.353, 1058.263 332.729 C 1046.498 324.430, 1035.608 317.351, 1030.978 314.993 C 1028.515 313.739, 1024.700 311.278, 1022.500 309.524 C 1020.300 307.770, 1016.700 305.284, 1014.500 304 C 1012.300 302.716, 1008.700 300.229, 1006.500 298.474 C 1004.300 296.718, 1000.210 294.123, 997.412 292.706 C 994.614 291.290, 990.339 288.624, 987.912 286.783 C 985.485 284.942, 981.700 282.366, 979.500 281.058 C 977.300 279.751, 973.968 277.515, 972.095 276.090 C 970.223 274.666, 965.220 271.250, 960.977 268.500 C 948.485 260.402, 938.842 253.884, 933.500 249.928 C 930.750 247.891, 926.475 245.212, 924 243.973 C 921.525 242.735, 914.550 238.036, 908.500 233.532 C 902.450 229.028, 895.025 223.743, 892 221.787 C 885.565 217.628, 870.260 202.767, 857.500 188.288 C 838.530 166.763, 819.248 159.083, 797.500 164.390 M 96.892 181.904 C 67.208 191.549, 64.804 216, 93.539 216 C 107.769 216, 112.630 217.648, 123.001 225.988 C 137.711 237.816, 143.228 231.460, 139.003 207.549 C 135.770 189.248, 114.379 176.221, 96.892 181.904 M 812.250 183.999 C 809.382 185.193, 809.419 186.105, 812.448 188.951 C 816.985 193.214, 816.933 200.549, 812.326 206.024 C 805.282 214.395, 797.386 201.635, 802.039 189.398 C 803.977 184.301, 798.220 183.754, 789.328 188.191 C 776.862 194.411, 775.755 208.059, 785.978 229.500 C 788.600 235, 791.546 241.975, 792.524 245 C 793.503 248.025, 795.783 253.760, 797.592 257.744 C 799.401 261.728, 801.800 268.236, 802.924 272.207 C 804.047 276.179, 806.412 281.694, 808.179 284.464 C 809.946 287.234, 812.682 292.141, 814.259 295.368 C 815.836 298.596, 819.235 304.052, 821.813 307.493 C 824.391 310.934, 828.075 316.384, 830 319.605 C 832.270 323.402, 841.247 333.199, 855.544 347.480 C 873.001 364.918, 879.003 371.623, 884.386 379.702 C 894.727 395.220, 898.995 397.596, 906.428 391.972 C 914.153 386.127, 922.814 388.956, 931.812 400.264 C 946.944 419.280, 950.285 419.885, 966.932 406.624 C 972.144 402.472, 975.454 400.819, 984.381 397.909 C 1003.098 391.807, 1000.794 386.394, 977 380.565 C 971.225 379.150, 963.575 376.477, 960 374.624 C 956.425 372.771, 949.553 370.055, 944.728 368.589 C 939.904 367.122, 933.701 364.593, 930.945 362.967 C 928.189 361.342, 922.600 358.718, 918.526 357.136 C 914.451 355.554, 908.279 352.238, 904.809 349.766 C 901.339 347.295, 896.250 344.071, 893.500 342.603 C 886.337 338.777, 873.313 329.697, 868.564 325.218 C 866.329 323.110, 862.475 319.768, 860 317.791 C 846.746 307.204, 830.833 289.313, 825.503 279.007 C 816.719 262.020, 839.831 238.053, 857.768 245.548 C 869.883 250.610, 868.757 257.122, 855.114 260.902 C 832.089 267.280, 840.254 286.396, 876.216 310.303 C 883.209 314.952, 891.084 320.554, 893.716 322.751 C 898.795 326.993, 914.850 335.454, 925.246 339.369 C 928.686 340.665, 933.750 343.154, 936.500 344.902 C 939.250 346.650, 943.975 348.789, 947 349.656 C 950.025 350.522, 956.649 352.983, 961.721 355.125 C 966.792 357.266, 976.762 360.331, 983.877 361.935 C 990.992 363.539, 998.093 365.509, 999.656 366.311 C 1005.022 369.065, 1012.127 371.017, 1022.307 372.535 C 1035.738 374.537, 1053.702 378.343, 1064.513 381.476 C 1090.301 388.949, 1102.901 380.676, 1083.113 369.263 C 1080.576 367.800, 1074.986 364.217, 1070.691 361.301 C 1066.395 358.386, 1062.294 356, 1061.577 356 C 1060.860 356, 1057.174 353.707, 1053.387 350.903 C 1049.599 348.100, 1044.894 344.983, 1042.931 343.975 C 1040.967 342.968, 1037.399 340.504, 1035 338.500 C 1032.601 336.496, 1028.902 333.970, 1026.779 332.887 C 1022.677 330.795, 1006.195 320.048, 999.472 315.082 C 997.257 313.446, 993.207 310.879, 990.472 309.378 C 987.738 307.877, 983.720 305.265, 981.545 303.574 C 979.370 301.883, 972.060 296.900, 965.302 292.500 C 958.543 288.100, 950.963 283.150, 948.456 281.500 C 945.950 279.850, 940.793 276.475, 936.997 274 C 926.283 267.015, 917.862 261.347, 913.663 258.291 C 901.907 249.740, 898.931 247.481, 893.153 242.725 C 879.919 231.830, 874.360 226.743, 870 221.542 C 867.525 218.589, 861.450 212.840, 856.500 208.767 C 851.550 204.694, 846.270 199.745, 844.767 197.770 C 839.662 191.061, 817.664 181.744, 812.250 183.999 M 299 280.579 C 293.225 281.292, 282.650 282.340, 275.500 282.906 C 229.537 286.546, 203.279 290.542, 192.075 295.600 C 179.236 301.397, 189.541 302.364, 255.500 301.556 C 338.928 300.532, 368.460 302.429, 384.821 309.863 C 389.594 312.032, 394.625 314.121, 396 314.507 C 410.207 318.490, 432.655 350.006, 438.390 374.021 C 445.007 401.726, 450.677 414.496, 453.312 407.628 C 454.520 404.481, 455.195 369.313, 454.154 363.776 C 451.748 350.981, 444.886 332.050, 440.526 326.178 C 438.208 323.055, 435.051 318.151, 433.512 315.279 C 427.515 304.091, 394.867 285.536, 378.071 283.771 C 373.357 283.275, 364.483 281.999, 358.351 280.935 C 345.147 278.644, 316.068 278.469, 299 280.579 M 131.328 283.622 C 125.460 292.579, 133.001 303.072, 145.200 302.923 C 158.179 302.765, 162.297 299.978, 156.285 295.422 C 154.203 293.845, 149.393 289.954, 145.596 286.777 C 137.634 280.115, 134.133 279.341, 131.328 283.622 M 1108.250 408.431 C 1102.245 411.152, 1105.925 416.021, 1117.637 420.850 C 1121.550 422.464, 1127.724 425.577, 1131.356 427.768 C 1149.235 438.551, 1176.068 441.082, 1179.437 432.303 C 1183.741 421.087, 1124.308 401.157, 1108.250 408.431 M 916.404 418.434 C 913.122 419.854, 911.647 422.654, 908.597 433.254 C 906.946 438.993, 899.391 451.182, 891.938 460.132 C 879.972 474.501, 883.831 480.514, 905 480.484 C 921.549 480.460, 926.996 477.955, 933.837 467.222 C 944.256 450.874, 939.743 427.116, 924.651 418.871 C 921.825 417.327, 919.276 417.192, 916.404 418.434" stroke="none" fill="#f4f4f5" fill-rule="evenodd"/></svg>