<svg xmlns="http://www.w3.org/2000/svg" width="1272" height="866" viewBox="0 0 1272 866" version="1.1"><path d="M 185.336 91.057 C 169.580 93.110, 166.600 98.422, 165.070 127.187 C 163.653 153.828, 155.965 162.280, 131.632 163.950 C 89.975 166.809, 90.682 189.591, 132.500 191.939 C 154.946 193.199, 163.021 197.064, 164.492 207.255 C 164.829 209.590, 164.968 262.350, 164.802 324.500 C 164.435 461.700, 167.546 443.438, 139.167 475 C 135.953 478.575, 131.480 484.425, 129.227 488 C 126.974 491.575, 123.789 495.291, 122.148 496.258 C 117.562 498.960, 114.468 503.234, 111.530 510.921 C 109.281 516.806, 108.069 518.513, 104.037 521.473 C 98.210 525.750, 96.748 528.658, 93.490 542.446 C 92.104 548.311, 89.627 556.072, 87.985 559.693 C 84.294 567.834, 84.255 571.148, 87.750 579.739 C 91.398 588.708, 91.836 618.809, 88.557 635.228 C 86.615 644.957, 86.615 644.957, 88.784 652.728 C 89.978 657.003, 91.857 664.440, 92.960 669.256 C 95.589 680.735, 97.711 684.656, 104.376 690.350 C 109.469 694.701, 110.101 695.727, 112.471 703.498 C 114.281 709.431, 116.146 713.218, 118.771 716.288 C 120.822 718.687, 124.630 723.419, 127.232 726.803 C 130.929 731.610, 133.446 733.706, 138.732 736.381 C 143.385 738.735, 146.979 741.527, 150.234 745.316 C 155.028 750.900, 156.186 751.502, 168.606 754.878 C 170.864 755.492, 174.364 757.115, 176.384 758.486 C 183.098 763.042, 186.173 764.167, 193.405 764.714 C 200.896 765.281, 202.358 764.818, 211.587 758.964 C 213.285 757.887, 220.710 755.244, 228.087 753.090 C 241.500 749.173, 241.500 749.173, 247.500 742.658 C 251.092 738.758, 255.568 735.124, 258.651 733.605 C 264.818 730.566, 267.300 727.624, 270.042 720.104 C 271.177 716.991, 274.618 711.326, 277.709 707.479 C 284.563 698.950, 286.490 694.750, 289.042 682.787 C 290.463 676.123, 292.022 671.947, 294.563 668 C 306.397 649.619, 311.288 619.123, 308.038 583.993 C 306.040 562.404, 303.850 555.706, 294.551 542.741 C 292.411 539.757, 290.715 535.841, 290.005 532.241 C 286.989 516.961, 283.236 509.540, 276 504.548 C 272.582 502.189, 270.659 499.731, 268 494.322 C 263.470 485.105, 262.827 484.430, 256.673 482.422 C 249.921 480.221, 249.238 479.600, 246.348 473.040 C 245.006 469.993, 241.703 465.250, 239.010 462.500 C 229.860 453.160, 229.823 452.528, 230.202 313 C 230.569 178.264, 227.074 192.953, 259 191.972 C 281.959 191.267, 287 188.994, 287 179.348 C 287 168.882, 279.609 164.768, 259.482 164.028 C 234.617 163.115, 231.918 159.809, 230.072 128 C 228.688 104.158, 227.065 100.020, 217.144 95.038 C 208.513 90.705, 198.071 89.397, 185.336 91.057 M 408.754 92.546 C 388.139 99.115, 397.898 122.210, 426.105 133.606 C 439.357 138.960, 440.886 144.377, 431.777 153.705 C 429.519 156.018, 426.508 160.068, 425.085 162.705 C 422.901 166.757, 421.420 168.043, 415.530 171 C 395.401 181.108, 396.458 215.565, 417.259 227.384 C 420.691 229.334, 426.353 233.377, 429.839 236.368 C 443.069 247.718, 468.123 249.993, 482.720 241.170 C 496.504 232.840, 506.695 232.945, 516.016 241.514 C 520.543 245.676, 523.214 247.270, 527.693 248.482 C 536.212 250.787, 538.056 251.985, 541.965 257.751 C 545.525 263.002, 547.472 264.318, 559.121 269.345 C 562.407 270.764, 567.647 274.436, 571.732 278.186 C 579.996 285.769, 581.739 286.395, 601.703 288.935 C 609.841 289.971, 623.025 292.491, 631 294.536 C 648.064 298.911, 656.694 298.939, 673.004 294.671 C 680.381 292.741, 687.095 291.932, 703.004 291.055 C 714.277 290.433, 732.275 288.777, 743 287.373 C 761.088 285.007, 763.369 284.909, 774.500 286.020 C 786.616 287.230, 808.925 288.280, 856.500 289.879 C 882.391 290.749, 882.546 290.768, 893.500 294.267 C 920.282 302.823, 939.214 303.539, 970.500 297.177 C 992.147 292.776, 1003.088 291.410, 1024 290.500 C 1053.913 289.198, 1061.329 284.120, 1061.447 264.861 C 1061.552 247.791, 1053.714 246.102, 983.563 248.082 C 954.472 248.904, 946.356 248.820, 935.063 247.584 C 927.603 246.767, 916.325 245.803, 910 245.440 C 896.979 244.693, 894.244 243.821, 887.011 238.103 C 879.117 231.863, 867.230 228.722, 847 227.532 C 831.054 226.594, 820.615 224.387, 810.763 219.871 C 785.655 208.362, 756.623 207.911, 724 218.522 C 709.020 223.395, 703.707 224.385, 684 225.979 C 676.575 226.579, 664.484 227.956, 657.131 229.038 C 645.576 230.739, 642.183 230.864, 632.131 229.962 C 601.924 227.250, 599.949 226.693, 594.991 219.487 C 591.665 214.653, 588.276 212.621, 574.254 207.053 C 567.132 204.225, 565.523 203.119, 562.457 198.942 C 558.692 193.813, 554.778 190.970, 548.897 189.092 C 544.748 187.768, 541.874 184.895, 540.032 180.230 C 538.263 175.751, 534.002 172.418, 527.373 170.328 C 521.266 168.403, 520.717 167.841, 512.457 155.049 C 504.485 142.704, 505.457 139.254, 518.255 134.454 C 530.751 129.767, 534.032 127.490, 540.258 119.183 C 543.425 114.957, 546.969 110.305, 548.133 108.844 C 555.692 99.361, 543.394 91.500, 521 91.500 C 505.766 91.500, 503.266 92.637, 498.025 101.955 C 495.376 106.665, 493.257 108.901, 488.511 111.993 C 485.153 114.180, 481.077 117.760, 479.453 119.946 C 473.781 127.583, 470.098 127.487, 463.581 119.534 C 461.521 117.020, 457.261 113.215, 454.115 111.078 C 450.114 108.361, 447.358 105.447, 444.947 101.386 C 439.169 91.651, 423.540 87.834, 408.754 92.546 M 447.766 174.145 C 428.014 177.003, 416.519 204.688, 432.665 210.514 C 435.324 211.474, 441.079 213.888, 445.454 215.879 C 456.112 220.731, 464.556 220.786, 476.503 216.082 C 493.509 209.385, 510.837 209.862, 517.256 217.204 C 524.090 225.021, 524.829 225.581, 530.687 227.382 C 538.075 229.653, 545.895 234.742, 550.167 240.059 C 554.417 245.349, 559.920 248.505, 567.500 250 C 575.062 251.491, 577.463 253.027, 579.997 257.994 C 584.306 266.441, 602.761 269.463, 622.183 264.903 C 642.878 260.045, 638.683 253.853, 612.731 250.954 C 589.377 248.345, 585.568 246.987, 582 240 C 579.343 234.797, 576.781 232.948, 569.387 230.898 C 561.138 228.610, 559.783 227.413, 557.090 220.026 C 555.153 214.715, 554.497 213.948, 550.224 212.004 C 541.661 208.108, 540.524 207.196, 538 202.198 C 534.410 195.089, 533.382 194.162, 527.119 192.387 C 519.869 190.333, 514.106 186.982, 507.444 180.949 C 500.296 174.476, 469.640 170.981, 447.766 174.145 M 713.500 249.597 C 711.300 249.812, 702.300 250.677, 693.500 251.520 C 656.971 255.020, 649.837 258.059, 664.500 263.877 C 677.541 269.052, 678.073 269.048, 721.474 263.419 C 752.261 259.427, 744.824 246.537, 713.500 249.597 M 822.323 252.042 C 806.339 253.557, 802.137 256.860, 810.750 261.140 C 819.228 265.352, 852.137 264.154, 856.006 259.493 C 860.385 254.216, 842.086 250.168, 822.323 252.042 M 195.910 464.757 C 194.486 465.715, 191.860 468.178, 190.075 470.229 C 186.144 474.746, 177.240 479.215, 166.600 482.013 C 156.177 484.754, 155.730 485.045, 152.108 491.463 C 149.481 496.117, 148.031 497.460, 142.761 500.121 C 135.230 503.922, 134.882 504.365, 132.172 513.576 C 130.495 519.274, 128.881 522.201, 124.764 527.003 C 115.674 537.606, 115.511 538.132, 115.427 557 C 115.386 566.075, 114.756 577.982, 114.027 583.461 C 112.637 593.895, 113.187 623.818, 114.975 635 C 115.458 638.025, 115.887 646.406, 115.927 653.625 C 116.012 668.828, 116.505 672.092, 119.150 674.931 C 125.588 681.841, 146.139 666.193, 151.381 650.391 C 154.353 641.429, 156.130 639.294, 163.500 635.829 C 167.941 633.741, 168.891 632.696, 172 626.489 C 180.186 610.142, 205.218 610.324, 212.562 626.784 C 214.478 631.078, 215.631 632.347, 218.710 633.552 C 234.654 639.791, 245.963 652.047, 249.835 667.282 C 254.621 686.116, 263.511 683.597, 270.048 661.556 C 271.036 658.225, 273.416 650.966, 275.337 645.425 C 280.309 631.082, 282.345 616.208, 282.171 595.500 C 281.971 571.660, 281.580 569.289, 276.589 561.691 C 272.335 555.214, 270.876 550.062, 266.919 527.550 C 265.781 521.073, 265.280 520.152, 259.565 514.050 C 256.193 510.447, 251.423 503.934, 248.966 499.576 C 246.510 495.217, 243.150 490.234, 241.500 488.502 C 238.445 485.294, 238.550 485.327, 220.690 481.936 C 213.918 480.651, 208.988 476.889, 205.825 470.595 C 201.907 462.798, 200.260 461.828, 195.910 464.757 M 179 521.697 C 176.979 522.738, 173.920 525.875, 171.760 529.123 C 168.753 533.642, 166.987 535.184, 162.760 536.979 C 155.668 539.991, 153.224 542.396, 149.904 549.629 C 147.643 554.552, 146.200 556.279, 142.564 558.410 C 135.727 562.417, 133.747 568.747, 138 573 C 142.021 577.021, 148.353 574.996, 153.401 568.075 C 156.134 564.328, 158.025 562.989, 163.853 560.678 C 169.489 558.442, 171.968 556.734, 175.773 552.465 C 185.946 541.052, 202.968 539.536, 210.473 549.375 C 212.068 551.467, 215.854 554.103, 220.422 556.301 C 225.322 558.660, 228.752 561.105, 230.648 563.591 C 237.520 572.604, 242.460 574.540, 247 570 C 252.576 564.424, 244.290 541.051, 236.715 540.990 C 233.498 540.964, 224.443 535.529, 218.667 530.156 C 207.973 520.207, 189.530 516.274, 179 521.697 M 715.788 596.545 C 715.402 596.932, 705.729 597.643, 694.293 598.126 C 633.600 600.687, 624.351 601.706, 599 608.620 C 592.565 610.376, 585.144 611.487, 576 612.065 C 568.575 612.534, 556.425 613.625, 549 614.489 C 522.143 617.614, 519.091 618.462, 507.442 626.043 C 501.028 630.217, 495.588 631.807, 478.619 634.471 C 466.530 636.369, 462.168 638.260, 454.743 644.822 C 448.807 650.068, 446.115 651.202, 435 653.132 C 405.528 658.252, 391.945 687.920, 414.504 697.899 C 416.932 698.973, 421.235 702.341, 424.067 705.384 C 429.729 711.467, 431.016 712.048, 445.288 714.968 C 456.788 717.321, 457.876 717.828, 464.663 723.999 C 471.193 729.936, 477.868 732.110, 499.936 735.484 C 515.275 737.830, 517.143 738.358, 527.936 743.408 C 543.277 750.586, 554.234 752.951, 577 753.997 C 599.688 755.040, 620.971 756.736, 633.500 758.500 C 639 759.274, 648.225 760.161, 654 760.470 C 659.775 760.779, 670.125 761.692, 677 762.498 C 715.696 767.035, 738.318 767.917, 754 765.500 C 759.225 764.695, 767.325 763.995, 772 763.945 C 776.675 763.895, 782.975 763.442, 786 762.937 C 789.025 762.433, 798.025 761.547, 806 760.967 C 813.975 760.388, 825.675 759.272, 832 758.489 C 848.622 756.429, 866.888 754.974, 888 754.027 C 911.559 752.971, 922.519 750.692, 933 744.671 C 943.610 738.576, 944.382 738.347, 965.500 735.022 C 991.143 730.984, 996.842 729.077, 1003.017 722.467 C 1006.565 718.670, 1009.231 717.531, 1020.500 714.998 C 1032.961 712.198, 1036.651 710.353, 1041.413 704.541 C 1044.074 701.293, 1047.288 698.940, 1052.341 696.540 C 1068.006 689.098, 1067.181 678.544, 1049.771 663.641 C 1040.586 655.779, 1038.940 654.969, 1027.184 652.522 C 1018.367 650.687, 1017.056 650.029, 1009.969 643.880 C 1002.557 637.449, 999.819 636.465, 982.621 634.051 C 966.513 631.789, 964.592 631.183, 955 625.337 C 941.513 617.118, 929.143 614.625, 889 612.033 C 878.532 611.357, 872.194 610.400, 866.209 608.589 C 851.309 604.082, 830.883 600.893, 810.500 599.893 C 800.050 599.381, 782.275 598.489, 771 597.913 C 740.289 596.342, 716.578 595.755, 715.788 596.545 M 697.866 628.441 C 697.273 629.058, 680.047 630.094, 639.500 631.952 C 630.150 632.380, 619.350 633.458, 615.500 634.348 C 611.650 635.237, 605.350 635.977, 601.500 635.990 C 597.650 636.004, 590.675 636.473, 586 637.033 C 581.325 637.594, 570.290 638.461, 561.478 638.960 C 543.570 639.976, 539.967 640.896, 528.344 647.416 C 518.652 652.853, 513.340 654.386, 495.316 656.950 C 480.579 659.046, 472.791 661.634, 466.282 666.599 C 464.455 667.992, 459.576 670.674, 455.438 672.560 C 443.691 677.913, 439.874 684.010, 445.176 688.950 C 447.721 691.320, 447.756 691.332, 459.595 693.884 C 471.027 696.347, 474.795 697.923, 479.640 702.267 C 485.887 707.867, 488.794 708.834, 504.288 710.461 C 526.610 712.805, 536.785 715.314, 545 720.500 C 553.727 726.009, 573.771 729.944, 593.500 730.022 C 599.550 730.046, 607.650 730.539, 611.500 731.118 C 615.350 731.697, 632.900 732.348, 650.500 732.565 C 668.100 732.782, 688.037 733.418, 694.804 733.979 C 710.317 735.266, 759.266 735.263, 772.500 733.975 C 778 733.440, 795.325 732.944, 811 732.873 C 828.173 732.796, 843.992 732.200, 850.801 731.373 C 857.017 730.618, 866.582 730, 872.058 730 C 890.754 730, 906.355 726.791, 919.430 720.257 C 928.884 715.532, 942.350 712.302, 959.954 710.537 C 977.129 708.815, 978.902 708.267, 984.750 702.876 C 990.077 697.966, 993.648 696.414, 1005.405 693.897 C 1019.864 690.802, 1022 689.466, 1022 683.520 C 1022 679.960, 1018.232 676.470, 1010.757 673.109 C 1007.315 671.561, 1001.641 668.443, 998.146 666.180 C 988.975 660.242, 982.784 658.264, 967.796 656.482 C 950.977 654.483, 946.343 653.144, 936.761 647.512 C 927.090 641.829, 921.361 640.408, 902.500 639.018 C 894.250 638.409, 883.900 637.506, 879.500 637.010 C 875.100 636.514, 868.350 636.076, 864.500 636.037 C 860.650 635.997, 854.350 635.248, 850.500 634.372 C 846.650 633.495, 835.400 632.400, 825.500 631.937 C 815.600 631.475, 798.950 630.531, 788.500 629.841 C 778.050 629.151, 764.775 628.753, 759 628.958 C 739.462 629.650, 714.541 629.497, 706.500 628.637 C 702.100 628.166, 698.215 628.078, 697.866 628.441 M 189.741 638.562 C 178.139 641.374, 177.687 641.910, 169.894 662.117 C 167.774 667.615, 165.563 671.401, 163.031 673.865 C 155.300 681.390, 152.688 693.809, 154.876 712.636 C 156.785 729.054, 156.898 729.165, 176 733.322 C 196.238 737.726, 210.704 736.859, 222.993 730.503 C 231.607 726.049, 234.887 704.350, 230.520 680.708 C 227.185 662.651, 226.234 660.041, 222 657.343 C 214.742 652.718, 213.048 650.838, 210.947 645.074 C 207.903 636.728, 203.232 635.293, 189.741 638.562" stroke="none" fill="#818286" fill-rule="evenodd"/><path d="M 38.500 29.501 C 33.628 31.227, 30.412 34.755, 29.029 39.892 C 26.706 48.518, 28.188 824.970, 30.535 828.965 C 31.655 830.870, 34.130 833.345, 36.035 834.465 C 41.519 837.686, 1230.481 837.686, 1235.965 834.465 C 1237.870 833.345, 1240.345 830.870, 1241.465 828.965 C 1244.685 823.483, 1244.685 41.517, 1241.465 36.035 C 1240.345 34.130, 1237.870 31.655, 1235.965 30.535 C 1231.398 27.853, 46.044 26.829, 38.500 29.501 M 185.336 91.057 C 169.580 93.110, 166.600 98.422, 165.070 127.187 C 163.653 153.828, 155.965 162.280, 131.632 163.950 C 89.975 166.809, 90.682 189.591, 132.500 191.939 C 154.946 193.199, 163.021 197.064, 164.492 207.255 C 164.829 209.590, 164.968 262.350, 164.802 324.500 C 164.435 461.700, 167.546 443.438, 139.167 475 C 135.953 478.575, 131.480 484.425, 129.227 488 C 126.974 491.575, 123.789 495.291, 122.148 496.258 C 117.562 498.960, 114.468 503.234, 111.530 510.921 C 109.281 516.806, 108.069 518.513, 104.037 521.473 C 98.210 525.750, 96.748 528.658, 93.490 542.446 C 92.104 548.311, 89.627 556.072, 87.985 559.693 C 84.294 567.834, 84.255 571.148, 87.750 579.739 C 91.398 588.708, 91.836 618.809, 88.557 635.228 C 86.615 644.957, 86.615 644.957, 88.784 652.728 C 89.978 657.003, 91.857 664.440, 92.960 669.256 C 95.589 680.735, 97.711 684.656, 104.376 690.350 C 109.469 694.701, 110.101 695.727, 112.471 703.498 C 114.281 709.431, 116.146 713.218, 118.771 716.288 C 120.822 718.687, 124.630 723.419, 127.232 726.803 C 130.929 731.610, 133.446 733.706, 138.732 736.381 C 143.385 738.735, 146.979 741.527, 150.234 745.316 C 155.028 750.900, 156.186 751.502, 168.606 754.878 C 170.864 755.492, 174.364 757.115, 176.384 758.486 C 183.098 763.042, 186.173 764.167, 193.405 764.714 C 200.896 765.281, 202.358 764.818, 211.587 758.964 C 213.285 757.887, 220.710 755.244, 228.087 753.090 C 241.500 749.173, 241.500 749.173, 247.500 742.658 C 251.092 738.758, 255.568 735.124, 258.651 733.605 C 264.818 730.566, 267.300 727.624, 270.042 720.104 C 271.177 716.991, 274.618 711.326, 277.709 707.479 C 284.563 698.950, 286.490 694.750, 289.042 682.787 C 290.463 676.123, 292.022 671.947, 294.563 668 C 306.397 649.619, 311.288 619.123, 308.038 583.993 C 306.040 562.404, 303.850 555.706, 294.551 542.741 C 292.411 539.757, 290.715 535.841, 290.005 532.241 C 286.989 516.961, 283.236 509.540, 276 504.548 C 272.582 502.189, 270.659 499.731, 268 494.322 C 263.470 485.105, 262.827 484.430, 256.673 482.422 C 249.921 480.221, 249.238 479.600, 246.348 473.040 C 245.006 469.993, 241.703 465.250, 239.010 462.500 C 229.860 453.160, 229.823 452.528, 230.202 313 C 230.569 178.264, 227.074 192.953, 259 191.972 C 281.959 191.267, 287 188.994, 287 179.348 C 287 168.882, 279.609 164.768, 259.482 164.028 C 234.617 163.115, 231.918 159.809, 230.072 128 C 228.688 104.158, 227.065 100.020, 217.144 95.038 C 208.513 90.705, 198.071 89.397, 185.336 91.057 M 408.754 92.546 C 388.139 99.115, 397.898 122.210, 426.105 133.606 C 439.357 138.960, 440.886 144.377, 431.777 153.705 C 429.519 156.018, 426.508 160.068, 425.085 162.705 C 422.901 166.757, 421.420 168.043, 415.530 171 C 395.401 181.108, 396.458 215.565, 417.259 227.384 C 420.691 229.334, 426.353 233.377, 429.839 236.368 C 443.069 247.718, 468.123 249.993, 482.720 241.170 C 496.504 232.840, 506.695 232.945, 516.016 241.514 C 520.543 245.676, 523.214 247.270, 527.693 248.482 C 536.212 250.787, 538.056 251.985, 541.965 257.751 C 545.525 263.002, 547.472 264.318, 559.121 269.345 C 562.407 270.764, 567.647 274.436, 571.732 278.186 C 579.996 285.769, 581.739 286.395, 601.703 288.935 C 609.841 289.971, 623.025 292.491, 631 294.536 C 648.064 298.911, 656.694 298.939, 673.004 294.671 C 680.381 292.741, 687.095 291.932, 703.004 291.055 C 714.277 290.433, 732.275 288.777, 743 287.373 C 761.088 285.007, 763.369 284.909, 774.500 286.020 C 786.616 287.230, 808.925 288.280, 856.500 289.879 C 882.391 290.749, 882.546 290.768, 893.500 294.267 C 920.282 302.823, 939.214 303.539, 970.500 297.177 C 992.147 292.776, 1003.088 291.410, 1024 290.500 C 1053.913 289.198, 1061.329 284.120, 1061.447 264.861 C 1061.552 247.791, 1053.714 246.102, 983.563 248.082 C 954.472 248.904, 946.356 248.820, 935.063 247.584 C 927.603 246.767, 916.325 245.803, 910 245.440 C 896.979 244.693, 894.244 243.821, 887.011 238.103 C 879.117 231.863, 867.230 228.722, 847 227.532 C 831.054 226.594, 820.615 224.387, 810.763 219.871 C 785.655 208.362, 756.623 207.911, 724 218.522 C 709.020 223.395, 703.707 224.385, 684 225.979 C 676.575 226.579, 664.484 227.956, 657.131 229.038 C 645.576 230.739, 642.183 230.864, 632.131 229.962 C 601.924 227.250, 599.949 226.693, 594.991 219.487 C 591.665 214.653, 588.276 212.621, 574.254 207.053 C 567.132 204.225, 565.523 203.119, 562.457 198.942 C 558.692 193.813, 554.778 190.970, 548.897 189.092 C 544.748 187.768, 541.874 184.895, 540.032 180.230 C 538.263 175.751, 534.002 172.418, 527.373 170.328 C 521.266 168.403, 520.717 167.841, 512.457 155.049 C 504.485 142.704, 505.457 139.254, 518.255 134.454 C 530.751 129.767, 534.032 127.490, 540.258 119.183 C 543.425 114.957, 546.969 110.305, 548.133 108.844 C 555.692 99.361, 543.394 91.500, 521 91.500 C 505.766 91.500, 503.266 92.637, 498.025 101.955 C 495.376 106.665, 493.257 108.901, 488.511 111.993 C 485.153 114.180, 481.077 117.760, 479.453 119.946 C 473.781 127.583, 470.098 127.487, 463.581 119.534 C 461.521 117.020, 457.261 113.215, 454.115 111.078 C 450.114 108.361, 447.358 105.447, 444.947 101.386 C 439.169 91.651, 423.540 87.834, 408.754 92.546 M 447.766 174.145 C 428.014 177.003, 416.519 204.688, 432.665 210.514 C 435.324 211.474, 441.079 213.888, 445.454 215.879 C 456.112 220.731, 464.556 220.786, 476.503 216.082 C 493.509 209.385, 510.837 209.862, 517.256 217.204 C 524.090 225.021, 524.829 225.581, 530.687 227.382 C 538.075 229.653, 545.895 234.742, 550.167 240.059 C 554.417 245.349, 559.920 248.505, 567.500 250 C 575.062 251.491, 577.463 253.027, 579.997 257.994 C 584.306 266.441, 602.761 269.463, 622.183 264.903 C 642.878 260.045, 638.683 253.853, 612.731 250.954 C 589.377 248.345, 585.568 246.987, 582 240 C 579.343 234.797, 576.781 232.948, 569.387 230.898 C 561.138 228.610, 559.783 227.413, 557.090 220.026 C 555.153 214.715, 554.497 213.948, 550.224 212.004 C 541.661 208.108, 540.524 207.196, 538 202.198 C 534.410 195.089, 533.382 194.162, 527.119 192.387 C 519.869 190.333, 514.106 186.982, 507.444 180.949 C 500.296 174.476, 469.640 170.981, 447.766 174.145 M 713.500 249.597 C 711.300 249.812, 702.300 250.677, 693.500 251.520 C 656.971 255.020, 649.837 258.059, 664.500 263.877 C 677.541 269.052, 678.073 269.048, 721.474 263.419 C 752.261 259.427, 744.824 246.537, 713.500 249.597 M 822.323 252.042 C 806.339 253.557, 802.137 256.860, 810.750 261.140 C 819.228 265.352, 852.137 264.154, 856.006 259.493 C 860.385 254.216, 842.086 250.168, 822.323 252.042 M 195.910 464.757 C 194.486 465.715, 191.860 468.178, 190.075 470.229 C 186.144 474.746, 177.240 479.215, 166.600 482.013 C 156.177 484.754, 155.730 485.045, 152.108 491.463 C 149.481 496.117, 148.031 497.460, 142.761 500.121 C 135.230 503.922, 134.882 504.365, 132.172 513.576 C 130.495 519.274, 128.881 522.201, 124.764 527.003 C 115.674 537.606, 115.511 538.132, 115.427 557 C 115.386 566.075, 114.756 577.982, 114.027 583.461 C 112.637 593.895, 113.187 623.818, 114.975 635 C 115.458 638.025, 115.887 646.406, 115.927 653.625 C 116.012 668.828, 116.505 672.092, 119.150 674.931 C 125.588 681.841, 146.139 666.193, 151.381 650.391 C 154.353 641.429, 156.130 639.294, 163.500 635.829 C 167.941 633.741, 168.891 632.696, 172 626.489 C 180.186 610.142, 205.218 610.324, 212.562 626.784 C 214.478 631.078, 215.631 632.347, 218.710 633.552 C 234.654 639.791, 245.963 652.047, 249.835 667.282 C 254.621 686.116, 263.511 683.597, 270.048 661.556 C 271.036 658.225, 273.416 650.966, 275.337 645.425 C 280.309 631.082, 282.345 616.208, 282.171 595.500 C 281.971 571.660, 281.580 569.289, 276.589 561.691 C 272.335 555.214, 270.876 550.062, 266.919 527.550 C 265.781 521.073, 265.280 520.152, 259.565 514.050 C 256.193 510.447, 251.423 503.934, 248.966 499.576 C 246.510 495.217, 243.150 490.234, 241.500 488.502 C 238.445 485.294, 238.550 485.327, 220.690 481.936 C 213.918 480.651, 208.988 476.889, 205.825 470.595 C 201.907 462.798, 200.260 461.828, 195.910 464.757 M 179 521.697 C 176.979 522.738, 173.920 525.875, 171.760 529.123 C 168.753 533.642, 166.987 535.184, 162.760 536.979 C 155.668 539.991, 153.224 542.396, 149.904 549.629 C 147.643 554.552, 146.200 556.279, 142.564 558.410 C 135.727 562.417, 133.747 568.747, 138 573 C 142.021 577.021, 148.353 574.996, 153.401 568.075 C 156.134 564.328, 158.025 562.989, 163.853 560.678 C 169.489 558.442, 171.968 556.734, 175.773 552.465 C 185.946 541.052, 202.968 539.536, 210.473 549.375 C 212.068 551.467, 215.854 554.103, 220.422 556.301 C 225.322 558.660, 228.752 561.105, 230.648 563.591 C 237.520 572.604, 242.460 574.540, 247 570 C 252.576 564.424, 244.290 541.051, 236.715 540.990 C 233.498 540.964, 224.443 535.529, 218.667 530.156 C 207.973 520.207, 189.530 516.274, 179 521.697 M 715.788 596.545 C 715.402 596.932, 705.729 597.643, 694.293 598.126 C 633.600 600.687, 624.351 601.706, 599 608.620 C 592.565 610.376, 585.144 611.487, 576 612.065 C 568.575 612.534, 556.425 613.625, 549 614.489 C 522.143 617.614, 519.091 618.462, 507.442 626.043 C 501.028 630.217, 495.588 631.807, 478.619 634.471 C 466.530 636.369, 462.168 638.260, 454.743 644.822 C 448.807 650.068, 446.115 651.202, 435 653.132 C 405.528 658.252, 391.945 687.920, 414.504 697.899 C 416.932 698.973, 421.235 702.341, 424.067 705.384 C 429.729 711.467, 431.016 712.048, 445.288 714.968 C 456.788 717.321, 457.876 717.828, 464.663 723.999 C 471.193 729.936, 477.868 732.110, 499.936 735.484 C 515.275 737.830, 517.143 738.358, 527.936 743.408 C 543.277 750.586, 554.234 752.951, 577 753.997 C 599.688 755.040, 620.971 756.736, 633.500 758.500 C 639 759.274, 648.225 760.161, 654 760.470 C 659.775 760.779, 670.125 761.692, 677 762.498 C 715.696 767.035, 738.318 767.917, 754 765.500 C 759.225 764.695, 767.325 763.995, 772 763.945 C 776.675 763.895, 782.975 763.442, 786 762.937 C 789.025 762.433, 798.025 761.547, 806 760.967 C 813.975 760.388, 825.675 759.272, 832 758.489 C 848.622 756.429, 866.888 754.974, 888 754.027 C 911.559 752.971, 922.519 750.692, 933 744.671 C 943.610 738.576, 944.382 738.347, 965.500 735.022 C 991.143 730.984, 996.842 729.077, 1003.017 722.467 C 1006.565 718.670, 1009.231 717.531, 1020.500 714.998 C 1032.961 712.198, 1036.651 710.353, 1041.413 704.541 C 1044.074 701.293, 1047.288 698.940, 1052.341 696.540 C 1068.006 689.098, 1067.181 678.544, 1049.771 663.641 C 1040.586 655.779, 1038.940 654.969, 1027.184 652.522 C 1018.367 650.687, 1017.056 650.029, 1009.969 643.880 C 1002.557 637.449, 999.819 636.465, 982.621 634.051 C 966.513 631.789, 964.592 631.183, 955 625.337 C 941.513 617.118, 929.143 614.625, 889 612.033 C 878.532 611.357, 872.194 610.400, 866.209 608.589 C 851.309 604.082, 830.883 600.893, 810.500 599.893 C 800.050 599.381, 782.275 598.489, 771 597.913 C 740.289 596.342, 716.578 595.755, 715.788 596.545 M 697.866 628.441 C 697.273 629.058, 680.047 630.094, 639.500 631.952 C 630.150 632.380, 619.350 633.458, 615.500 634.348 C 611.650 635.237, 605.350 635.977, 601.500 635.990 C 597.650 636.004, 590.675 636.473, 586 637.033 C 581.325 637.594, 570.290 638.461, 561.478 638.960 C 543.570 639.976, 539.967 640.896, 528.344 647.416 C 518.652 652.853, 513.340 654.386, 495.316 656.950 C 480.579 659.046, 472.791 661.634, 466.282 666.599 C 464.455 667.992, 459.576 670.674, 455.438 672.560 C 443.691 677.913, 439.874 684.010, 445.176 688.950 C 447.721 691.320, 447.756 691.332, 459.595 693.884 C 471.027 696.347, 474.795 697.923, 479.640 702.267 C 485.887 707.867, 488.794 708.834, 504.288 710.461 C 526.610 712.805, 536.785 715.314, 545 720.500 C 553.727 726.009, 573.771 729.944, 593.500 730.022 C 599.550 730.046, 607.650 730.539, 611.500 731.118 C 615.350 731.697, 632.900 732.348, 650.500 732.565 C 668.100 732.782, 688.037 733.418, 694.804 733.979 C 710.317 735.266, 759.266 735.263, 772.500 733.975 C 778 733.440, 795.325 732.944, 811 732.873 C 828.173 732.796, 843.992 732.200, 850.801 731.373 C 857.017 730.618, 866.582 730, 872.058 730 C 890.754 730, 906.355 726.791, 919.430 720.257 C 928.884 715.532, 942.350 712.302, 959.954 710.537 C 977.129 708.815, 978.902 708.267, 984.750 702.876 C 990.077 697.966, 993.648 696.414, 1005.405 693.897 C 1019.864 690.802, 1022 689.466, 1022 683.520 C 1022 679.960, 1018.232 676.470, 1010.757 673.109 C 1007.315 671.561, 1001.641 668.443, 998.146 666.180 C 988.975 660.242, 982.784 658.264, 967.796 656.482 C 950.977 654.483, 946.343 653.144, 936.761 647.512 C 927.090 641.829, 921.361 640.408, 902.500 639.018 C 894.250 638.409, 883.900 637.506, 879.500 637.010 C 875.100 636.514, 868.350 636.076, 864.500 636.037 C 860.650 635.997, 854.350 635.248, 850.500 634.372 C 846.650 633.495, 835.400 632.400, 825.500 631.937 C 815.600 631.475, 798.950 630.531, 788.500 629.841 C 778.050 629.151, 764.775 628.753, 759 628.958 C 739.462 629.650, 714.541 629.497, 706.500 628.637 C 702.100 628.166, 698.215 628.078, 697.866 628.441 M 189.741 638.562 C 178.139 641.374, 177.687 641.910, 169.894 662.117 C 167.774 667.615, 165.563 671.401, 163.031 673.865 C 155.300 681.390, 152.688 693.809, 154.876 712.636 C 156.785 729.054, 156.898 729.165, 176 733.322 C 196.238 737.726, 210.704 736.859, 222.993 730.503 C 231.607 726.049, 234.887 704.350, 230.520 680.708 C 227.185 662.651, 226.234 660.041, 222 657.343 C 214.742 652.718, 213.048 650.838, 210.947 645.074 C 207.903 636.728, 203.232 635.293, 189.741 638.562" stroke="none" fill="#f2f2f3" fill-rule="evenodd"/></svg>