<svg xmlns="http://www.w3.org/2000/svg" width="1272" height="1272" viewBox="0 0 1272 1272" version="1.1"><path d="M 545.500 72.487 C 541.289 73.873, 524.658 78.009, 521.121 78.550 C 518.713 78.918, 512.814 80.493, 508.013 82.049 C 500.907 84.352, 495.587 85.173, 479.392 86.466 C 468.451 87.339, 455 88.697, 449.500 89.484 C 444 90.270, 436.350 91.185, 432.500 91.517 C 428.650 91.848, 420.865 92.993, 415.199 94.060 C 406.874 95.628, 400.449 96, 381.699 96.001 C 366.405 96.002, 355.774 96.476, 350.500 97.393 C 346.100 98.157, 339.125 99.083, 335 99.450 C 300.747 102.500, 294.433 104.781, 286.679 116.908 C 281.932 124.333, 278.451 125.291, 250.085 126.977 C 233.465 127.965, 212.364 131.250, 200.358 134.720 C 197.337 135.593, 192.364 138.379, 188.305 141.471 C 175.808 150.992, 160.041 157.910, 146.167 159.960 C 133.681 161.805, 130.360 164.223, 124.670 175.608 C 120.982 182.987, 119.897 183.877, 110.608 187.135 C 91.507 193.835, 90.718 234.242, 109.410 248.499 C 114.639 252.487, 134.607 259.728, 143.844 260.985 C 157.611 262.859, 160.430 264.665, 164.944 274.500 C 169.426 284.266, 171.916 285.400, 195.500 288.411 C 202.650 289.323, 211.650 290.472, 215.500 290.963 C 247.877 295.091, 254.859 297.280, 260.447 305.059 C 264.645 310.903, 266.121 311.704, 281.500 316.491 C 293.388 320.191, 293.757 320.239, 321 321.561 C 336.125 322.294, 352.775 323.590, 358 324.440 C 363.225 325.290, 370.234 325.989, 373.576 325.993 C 394.348 326.017, 406.630 328.838, 414.316 335.350 C 424.564 344.034, 443.695 347.986, 475.630 348.017 C 485.459 348.027, 497.775 348.520, 503 349.114 C 523.296 351.421, 728.369 351.744, 732.040 349.475 C 732.748 349.037, 746.192 348.343, 761.914 347.931 C 802.539 346.868, 817.079 344.154, 825.500 336.061 C 833.006 328.848, 837.741 327.658, 865.685 325.961 C 874.933 325.400, 884.525 324.489, 887 323.939 C 889.475 323.388, 904.100 322.335, 919.500 321.599 C 952.093 320.041, 970.656 315.714, 977.458 308.089 C 986.534 297.915, 987.385 297.266, 993.012 296.235 C 1009.719 293.174, 1024.592 290.822, 1033 289.912 C 1052.145 287.840, 1066.561 281.387, 1071.897 272.500 C 1076.602 264.665, 1080.953 262.440, 1094.500 260.944 C 1109.238 259.316, 1128.883 251.782, 1133.036 246.165 C 1151.810 220.771, 1149.314 194.674, 1127.319 186.396 C 1118.690 183.148, 1118.231 182.745, 1114.921 175.500 C 1110.136 165.029, 1106.694 162.860, 1091.147 160.517 C 1065.020 156.580, 1055.352 152.768, 1050.035 144.307 C 1043.593 134.054, 1026.538 129.143, 989.797 126.961 C 961.784 125.297, 957.882 124.149, 953.370 116.244 C 947.060 105.191, 940.376 102.827, 906 99.492 C 902.425 99.146, 895.675 98.219, 891 97.434 C 885.350 96.485, 874.770 96.005, 859.443 96.003 C 841.047 96.001, 834.275 95.613, 825.943 94.086 C 820.199 93.034, 810.104 91.643, 803.509 90.996 C 796.914 90.349, 791.230 89.642, 790.880 89.426 C 790.529 89.209, 779.329 88.099, 765.991 86.958 C 746.691 85.308, 740.081 84.357, 733.620 82.297 C 729.154 80.874, 720.550 78.665, 714.500 77.388 C 708.450 76.112, 701.039 74.378, 698.032 73.534 C 683.507 69.459, 672.518 72.137, 663.986 81.830 C 657.763 88.900, 654.698 90.451, 648.366 89.738 C 644.074 89.254, 642.087 88.179, 632 80.881 C 623.984 75.081, 614.355 76.171, 604.174 84.030 C 592.824 92.792, 586.502 92.331, 577 82.048 C 568.683 73.048, 555.737 69.118, 545.500 72.487 M 466 131.501 C 454.725 132.227, 433.350 132.863, 418.500 132.914 C 399.825 132.978, 388.879 133.455, 383 134.461 C 378.325 135.261, 366.592 136.393, 356.926 136.977 C 332.647 138.444, 330.667 139.143, 324.496 148.440 C 318.785 157.043, 314.464 158.694, 291.349 161.100 C 280.982 162.179, 268 163.758, 262.500 164.609 C 257 165.460, 247.442 166.774, 241.259 167.527 C 227.693 169.181, 223.909 170.834, 219.172 177.179 C 211.963 186.835, 195.934 194.719, 178.927 196.973 C 152.280 200.505, 148.839 216.050, 173.170 222.982 C 177.202 224.131, 182.782 225.727, 185.571 226.530 C 191.610 228.268, 194.295 230.914, 198.987 239.750 C 204.479 250.094, 208.727 251.638, 238.053 253.953 C 261.351 255.793, 284.963 262.689, 294.467 270.430 C 299.956 274.901, 317.852 283.067, 326.305 284.958 C 329.103 285.584, 340.794 285.968, 354.305 285.878 C 371.816 285.761, 379.828 286.123, 387 287.357 C 393.419 288.462, 402.417 288.993, 414.745 288.996 C 424.780 288.998, 439.405 289.652, 447.245 290.450 C 483.151 294.101, 496.728 294.979, 515 294.832 C 530.270 294.709, 536.235 295.053, 542.500 296.418 C 547.844 297.582, 557.969 298.415, 573 298.928 C 595.059 299.680, 595.637 299.754, 602.500 302.729 C 617.761 309.344, 621.935 309.425, 636.500 303.388 C 645.500 299.657, 645.500 299.657, 667.500 298.912 C 682.176 298.415, 692.163 297.585, 697.500 296.418 C 703.794 295.042, 709.658 294.705, 725 294.839 C 743.369 295, 757.872 294.062, 792.667 290.465 C 800.459 289.659, 814.974 289, 824.924 289 C 836.548 289, 846.674 288.429, 853.257 287.403 C 860.298 286.306, 871.472 285.746, 889 285.613 C 912.363 285.435, 914.961 285.241, 920 283.289 C 934.987 277.484, 942.389 273.827, 946.527 270.185 C 952.126 265.257, 957.620 262.658, 965.726 261.103 C 969.151 260.446, 975.645 258.804, 980.157 257.453 C 985.529 255.845, 993.022 254.644, 1001.860 253.973 C 1034.172 251.520, 1038.471 250.128, 1043.684 240.430 C 1048.174 232.079, 1051.465 229.526, 1061.719 226.443 C 1094.198 216.678, 1095.126 201.030, 1063.500 196.426 C 1044.954 193.727, 1029.678 186.818, 1021.622 177.488 C 1015.535 170.436, 1012.827 169.108, 1002.202 167.957 C 997.416 167.438, 987.875 166.124, 981 165.037 C 974.125 163.950, 959.725 162.144, 949 161.025 C 925.417 158.562, 921.187 156.999, 915.681 148.712 C 909.196 138.950, 907.748 138.428, 883 136.942 C 873.375 136.365, 861.675 135.243, 857 134.449 C 851.185 133.462, 840.602 133, 823.500 132.987 C 809.750 132.976, 786.800 132.293, 772.500 131.469 C 746.439 129.968, 737.264 130.055, 701 132.151 C 684.044 133.131, 679.523 133.053, 666.343 131.555 C 653.809 130.131, 649.323 130.020, 640.419 130.916 C 626.771 132.290, 614.244 132.292, 600.627 130.921 C 591.821 130.035, 587.018 130.149, 573.744 131.558 C 559.860 133.032, 555.112 133.116, 540.041 132.153 C 511.202 130.310, 487.699 130.103, 466 131.501 M 610.714 656.750 C 594.862 668.917, 587.106 676.158, 585.569 680.224 C 582.737 687.720, 583.675 1153.081, 586.533 1158 C 594.804 1172.237, 626.261 1176.186, 633.500 1163.895 C 635.911 1159.803, 637.314 688.906, 634.953 676.533 C 631.536 658.631, 620.257 649.426, 610.714 656.750" stroke="none" fill="#818387" fill-rule="evenodd"/><path d="M 38.500 29.501 C 33.630 31.226, 30.412 34.755, 29.031 39.885 C 26.703 48.530, 28.192 1231.975, 30.535 1235.965 C 31.655 1237.870, 34.130 1240.345, 36.035 1241.465 C 41.519 1244.686, 1230.481 1244.686, 1235.965 1241.465 C 1237.870 1240.345, 1240.345 1237.870, 1241.465 1235.965 C 1244.686 1230.481, 1244.686 41.519, 1241.465 36.035 C 1240.345 34.130, 1237.870 31.655, 1235.965 30.535 C 1231.398 27.853, 46.044 26.829, 38.500 29.501 M 545.500 72.487 C 541.289 73.873, 524.658 78.009, 521.121 78.550 C 518.713 78.918, 512.814 80.493, 508.013 82.049 C 500.907 84.352, 495.587 85.173, 479.392 86.466 C 468.451 87.339, 455 88.697, 449.500 89.484 C 444 90.270, 436.350 91.185, 432.500 91.517 C 428.650 91.848, 420.865 92.993, 415.199 94.060 C 406.874 95.628, 400.449 96, 381.699 96.001 C 366.405 96.002, 355.774 96.476, 350.500 97.393 C 346.100 98.157, 339.125 99.083, 335 99.450 C 300.747 102.500, 294.433 104.781, 286.679 116.908 C 281.932 124.333, 278.451 125.291, 250.085 126.977 C 233.465 127.965, 212.364 131.250, 200.358 134.720 C 197.337 135.593, 192.364 138.379, 188.305 141.471 C 175.808 150.992, 160.041 157.910, 146.167 159.960 C 133.681 161.805, 130.360 164.223, 124.670 175.608 C 120.982 182.987, 119.897 183.877, 110.608 187.135 C 91.507 193.835, 90.718 234.242, 109.410 248.499 C 114.639 252.487, 134.607 259.728, 143.844 260.985 C 157.611 262.859, 160.430 264.665, 164.944 274.500 C 169.426 284.266, 171.916 285.400, 195.500 288.411 C 202.650 289.323, 211.650 290.472, 215.500 290.963 C 247.877 295.091, 254.859 297.280, 260.447 305.059 C 264.645 310.903, 266.121 311.704, 281.500 316.491 C 293.388 320.191, 293.757 320.239, 321 321.561 C 336.125 322.294, 352.775 323.590, 358 324.440 C 363.225 325.290, 370.234 325.989, 373.576 325.993 C 394.348 326.017, 406.630 328.838, 414.316 335.350 C 424.564 344.034, 443.695 347.986, 475.630 348.017 C 485.459 348.027, 497.775 348.520, 503 349.114 C 523.296 351.421, 728.369 351.744, 732.040 349.475 C 732.748 349.037, 746.192 348.343, 761.914 347.931 C 802.539 346.868, 817.079 344.154, 825.500 336.061 C 833.006 328.848, 837.741 327.658, 865.685 325.961 C 874.933 325.400, 884.525 324.489, 887 323.939 C 889.475 323.388, 904.100 322.335, 919.500 321.599 C 952.093 320.041, 970.656 315.714, 977.458 308.089 C 986.534 297.915, 987.385 297.266, 993.012 296.235 C 1009.719 293.174, 1024.592 290.822, 1033 289.912 C 1052.145 287.840, 1066.561 281.387, 1071.897 272.500 C 1076.602 264.665, 1080.953 262.440, 1094.500 260.944 C 1109.238 259.316, 1128.883 251.782, 1133.036 246.165 C 1151.810 220.771, 1149.314 194.674, 1127.319 186.396 C 1118.690 183.148, 1118.231 182.745, 1114.921 175.500 C 1110.136 165.029, 1106.694 162.860, 1091.147 160.517 C 1065.020 156.580, 1055.352 152.768, 1050.035 144.307 C 1043.593 134.054, 1026.538 129.143, 989.797 126.961 C 961.784 125.297, 957.882 124.149, 953.370 116.244 C 947.060 105.191, 940.376 102.827, 906 99.492 C 902.425 99.146, 895.675 98.219, 891 97.434 C 885.350 96.485, 874.770 96.005, 859.443 96.003 C 841.047 96.001, 834.275 95.613, 825.943 94.086 C 820.199 93.034, 810.104 91.643, 803.509 90.996 C 796.914 90.349, 791.230 89.642, 790.880 89.426 C 790.529 89.209, 779.329 88.099, 765.991 86.958 C 746.691 85.308, 740.081 84.357, 733.620 82.297 C 729.154 80.874, 720.550 78.665, 714.500 77.388 C 708.450 76.112, 701.039 74.378, 698.032 73.534 C 683.507 69.459, 672.518 72.137, 663.986 81.830 C 657.763 88.900, 654.698 90.451, 648.366 89.738 C 644.074 89.254, 642.087 88.179, 632 80.881 C 623.984 75.081, 614.355 76.171, 604.174 84.030 C 592.824 92.792, 586.502 92.331, 577 82.048 C 568.683 73.048, 555.737 69.118, 545.500 72.487 M 466 131.501 C 454.725 132.227, 433.350 132.863, 418.500 132.914 C 399.825 132.978, 388.879 133.455, 383 134.461 C 378.325 135.261, 366.592 136.393, 356.926 136.977 C 332.647 138.444, 330.667 139.143, 324.496 148.440 C 318.785 157.043, 314.464 158.694, 291.349 161.100 C 280.982 162.179, 268 163.758, 262.500 164.609 C 257 165.460, 247.442 166.774, 241.259 167.527 C 227.693 169.181, 223.909 170.834, 219.172 177.179 C 211.963 186.835, 195.934 194.719, 178.927 196.973 C 152.280 200.505, 148.839 216.050, 173.170 222.982 C 177.202 224.131, 182.782 225.727, 185.571 226.530 C 191.610 228.268, 194.295 230.914, 198.987 239.750 C 204.479 250.094, 208.727 251.638, 238.053 253.953 C 261.351 255.793, 284.963 262.689, 294.467 270.430 C 299.956 274.901, 317.852 283.067, 326.305 284.958 C 329.103 285.584, 340.794 285.968, 354.305 285.878 C 371.816 285.761, 379.828 286.123, 387 287.357 C 393.419 288.462, 402.417 288.993, 414.745 288.996 C 424.780 288.998, 439.405 289.652, 447.245 290.450 C 483.151 294.101, 496.728 294.979, 515 294.832 C 530.270 294.709, 536.235 295.053, 542.500 296.418 C 547.844 297.582, 557.969 298.415, 573 298.928 C 595.059 299.680, 595.637 299.754, 602.500 302.729 C 617.761 309.344, 621.935 309.425, 636.500 303.388 C 645.500 299.657, 645.500 299.657, 667.500 298.912 C 682.176 298.415, 692.163 297.585, 697.500 296.418 C 703.794 295.042, 709.658 294.705, 725 294.839 C 743.369 295, 757.872 294.062, 792.667 290.465 C 800.459 289.659, 814.974 289, 824.924 289 C 836.548 289, 846.674 288.429, 853.257 287.403 C 860.298 286.306, 871.472 285.746, 889 285.613 C 912.363 285.435, 914.961 285.241, 920 283.289 C 934.987 277.484, 942.389 273.827, 946.527 270.185 C 952.126 265.257, 957.620 262.658, 965.726 261.103 C 969.151 260.446, 975.645 258.804, 980.157 257.453 C 985.529 255.845, 993.022 254.644, 1001.860 253.973 C 1034.172 251.520, 1038.471 250.128, 1043.684 240.430 C 1048.174 232.079, 1051.465 229.526, 1061.719 226.443 C 1094.198 216.678, 1095.126 201.030, 1063.500 196.426 C 1044.954 193.727, 1029.678 186.818, 1021.622 177.488 C 1015.535 170.436, 1012.827 169.108, 1002.202 167.957 C 997.416 167.438, 987.875 166.124, 981 165.037 C 974.125 163.950, 959.725 162.144, 949 161.025 C 925.417 158.562, 921.187 156.999, 915.681 148.712 C 909.196 138.950, 907.748 138.428, 883 136.942 C 873.375 136.365, 861.675 135.243, 857 134.449 C 851.185 133.462, 840.602 133, 823.500 132.987 C 809.750 132.976, 786.800 132.293, 772.500 131.469 C 746.439 129.968, 737.264 130.055, 701 132.151 C 684.044 133.131, 679.523 133.053, 666.343 131.555 C 653.809 130.131, 649.323 130.020, 640.419 130.916 C 626.771 132.290, 614.244 132.292, 600.627 130.921 C 591.821 130.035, 587.018 130.149, 573.744 131.558 C 559.860 133.032, 555.112 133.116, 540.041 132.153 C 511.202 130.310, 487.699 130.103, 466 131.501 M 610.714 656.750 C 594.862 668.917, 587.106 676.158, 585.569 680.224 C 582.737 687.720, 583.675 1153.081, 586.533 1158 C 594.804 1172.237, 626.261 1176.186, 633.500 1163.895 C 635.911 1159.803, 637.314 688.906, 634.953 676.533 C 631.536 658.631, 620.257 649.426, 610.714 656.750" stroke="none" fill="#f6f7f7" fill-rule="evenodd"/></svg>