<svg xmlns="http://www.w3.org/2000/svg" width="1272" height="492" viewBox="0 0 1272 492" version="1.1"><path d="M 1184.801 51.436 C 1184.459 78.079, 1184.086 79.150, 1173.982 82.506 C 1169.629 83.952, 1166.606 86.316, 1164.399 90 C 1163.904 90.825, 1163.275 116.925, 1163 148 C 1162.465 208.421, 1162.473 208.341, 1157.444 209.603 C 1154.865 210.251, 1154.347 209.959, 1142.016 200.928 C 1134.095 195.127, 1129.587 196.235, 1131.420 203.535 C 1131.748 204.843, 1135.839 210.007, 1140.511 215.012 C 1153.532 228.959, 1155.125 235.144, 1148.264 245.116 C 1142.686 253.224, 1143.228 260.422, 1149.951 267.500 C 1160.479 278.586, 1159.551 284.642, 1145.055 299.445 C 1130.737 314.066, 1127.518 319.695, 1131.558 323.048 C 1133.675 324.805, 1139.520 321.880, 1147.457 315.093 C 1162.241 302.452, 1162.389 302.991, 1163 371.454 C 1163.582 436.655, 1162.855 432.248, 1173.899 437.582 C 1182.825 441.893, 1184.301 444.269, 1184.822 455.160 C 1185.438 468.050, 1196.701 469.355, 1196.893 456.559 C 1197.076 444.389, 1199.218 440.854, 1207.926 438.352 C 1224.804 433.501, 1223 454.282, 1223 264.750 C 1223 76.002, 1223.913 89.502, 1210.778 84.100 C 1196.793 78.348, 1197.074 79.028, 1196.962 50.702 C 1196.872 28, 1196.872 28, 1190.988 28 C 1185.103 28, 1185.103 28, 1184.801 51.436 M 226 83.083 C 221.875 83.517, 212.200 84.329, 204.500 84.887 C 189.524 85.973, 176.675 87.558, 171 89.020 C 169.075 89.516, 160.936 91.047, 152.913 92.422 C 144.890 93.798, 134.315 96.311, 129.413 98.008 C 124.511 99.704, 117.417 101.986, 113.648 103.078 C 109.879 104.170, 104.254 106.374, 101.148 107.976 C 98.042 109.578, 92.806 111.886, 89.512 113.105 C 74.002 118.846, 71.771 132.936, 85.348 139.403 C 112.473 152.321, 124.601 157.158, 135.779 159.518 C 142.226 160.879, 152.538 163.324, 158.695 164.951 C 192.152 173.792, 315.104 172.465, 347.054 162.918 C 352.799 161.201, 361.492 159.146, 366.371 158.352 C 371.607 157.499, 377.548 155.754, 380.871 154.093 C 383.967 152.545, 388.750 150.515, 391.500 149.582 C 443.220 132.034, 421.809 105.650, 345.137 92.454 C 337.165 91.082, 326.336 89.050, 321.071 87.938 C 315.807 86.826, 305.650 85.492, 298.500 84.974 C 291.350 84.456, 280.325 83.582, 274 83.032 C 260.881 81.892, 237.076 81.917, 226 83.083 M 527 83.879 C 520.384 84.628, 516.294 87.047, 509 94.522 C 502.741 100.937, 499.457 102.829, 489.316 105.866 C 473.742 110.530, 473.482 122.570, 488.828 128.434 C 500.981 133.078, 504.638 139.290, 503.736 153.752 C 502.391 175.309, 507.236 187.799, 543.978 257.500 C 552.241 273.174, 561.018 291.052, 562.982 296.206 C 563.968 298.795, 566.161 303.165, 567.854 305.918 C 576.169 319.430, 576.545 338.608, 568.828 355.500 C 566.316 361, 563.693 367.300, 563 369.500 C 562.307 371.700, 559.838 377.775, 557.512 383 C 555.187 388.225, 552.508 394.640, 551.558 397.255 C 546.251 411.866, 537.901 417.996, 523.290 418.008 C 496.918 418.028, 485.252 423.126, 491.698 431.814 C 499.649 442.529, 637.778 440.035, 638.820 429.156 C 639.226 424.919, 637.237 422.659, 629.788 418.895 C 621.422 414.669, 619.816 409.308, 624.129 400 C 625.276 397.525, 627.490 391.900, 629.049 387.500 C 630.608 383.100, 633.080 376.350, 634.541 372.500 C 637.036 365.924, 637.158 364.832, 636.541 354.479 C 635.594 338.598, 636.586 337.862, 662.090 335.522 C 686.926 333.243, 701.883 328.604, 707.890 321.318 C 717.957 309.105, 716.442 304.305, 696.141 284.102 C 684.750 272.766, 681.915 269.334, 679.127 263.500 C 672.886 250.445, 656.448 225.698, 647.575 216 C 645.311 213.525, 639.796 206.775, 635.321 201 C 630.846 195.225, 618.829 182.061, 608.616 171.747 C 588.950 151.885, 587.999 150.635, 585.986 142 C 584.661 136.316, 578.930 120.721, 576.275 115.572 C 574.335 111.812, 550.065 87.595, 546.334 85.697 C 542.762 83.879, 534.146 83.069, 527 83.879 M 700.024 85.531 C 692.967 87.520, 681.124 94.877, 673.500 102.006 C 670.200 105.092, 665.025 109.687, 662 112.219 C 643.345 127.828, 635.292 161.605, 648.498 168.852 C 653.083 171.369, 783.291 171.916, 789.771 169.446 C 797.712 166.420, 798.874 160.575, 793.322 151.580 C 791.298 148.302, 788.883 142.788, 787.953 139.326 C 782.473 118.913, 753.385 90.835, 732.722 86.012 C 724.637 84.125, 705.985 83.851, 700.024 85.531 M 711.467 101.024 C 683.624 105.987, 674.349 111.356, 664.529 128.194 C 657.016 141.077, 656.853 147.509, 663.946 151.179 C 671.124 154.892, 765.740 153.350, 769.634 149.457 C 776.419 142.672, 763.435 116.545, 750.500 110.955 C 725.846 100.299, 721.597 99.218, 711.467 101.024 M 216 101.971 C 200.631 102.489, 191.363 103.307, 183.500 104.839 C 177.450 106.018, 165.792 107.894, 157.594 109.008 C 149.395 110.122, 139.045 112.120, 134.594 113.449 C 130.142 114.779, 123.267 116.800, 119.317 117.942 C 107.518 121.351, 103.032 126.932, 108.250 131.713 C 114.597 137.528, 126.047 140.711, 176 150.546 C 192.279 153.751, 239.935 154.849, 286.500 153.092 C 320.192 151.821, 317.566 152.194, 365.551 141.891 C 395.805 135.396, 400.867 122.364, 375.402 116.534 C 371.606 115.665, 365.800 114.093, 362.500 113.041 C 352.753 109.934, 349.781 109.450, 308 104.162 C 289.685 101.843, 248.723 100.868, 216 101.971 M 537.219 105.672 C 536.515 105.955, 534.836 108.364, 533.488 111.024 C 529.577 118.741, 522.057 121.530, 516.207 117.432 C 509.834 112.969, 506.959 118.907, 511.675 126.792 C 517.748 136.946, 519.018 142.398, 519.874 162 C 520.978 187.294, 538.753 215.727, 541.957 197.325 C 544.077 185.149, 550.039 177.060, 559.576 173.418 C 571.340 168.925, 579.620 180.046, 568.792 185.796 C 559.427 190.769, 557.720 197.024, 562.597 208.500 C 563.999 211.800, 566.282 217.772, 567.670 221.770 C 573.326 238.062, 583.365 241.059, 585.699 227.152 C 587.194 218.251, 590.749 212.804, 598.949 206.850 C 611.005 198.095, 610.868 187.250, 598.583 177.975 C 583.190 166.353, 567.621 144.202, 564.623 129.657 C 560.886 111.529, 548.853 100.998, 537.219 105.672 M 964.275 143.944 C 958.037 145.478, 951.091 151.327, 943.490 161.447 C 940.577 165.326, 936.151 171.181, 933.655 174.458 C 931.159 177.735, 927.876 182.910, 926.360 185.958 C 924.844 189.006, 922.480 193.300, 921.107 195.500 C 919.733 197.700, 916.747 203.100, 914.469 207.500 C 912.192 211.900, 909.143 217.750, 907.693 220.500 C 903.313 228.806, 893 250.503, 893 251.412 C 893 251.879, 891.445 254.426, 889.544 257.071 C 887.644 259.716, 884.656 264.720, 882.904 268.190 C 881.153 271.661, 877.022 278.775, 873.724 284 C 848.561 323.872, 841.533 342.747, 847.223 355.175 C 855.167 372.528, 872.995 378.647, 899.409 373.086 C 911.859 370.465, 913.416 370.490, 924.861 373.496 C 946.890 379.283, 993.714 379.008, 1026 372.902 C 1047.125 368.907, 1065.323 344.075, 1076.128 304.500 C 1081.529 284.719, 1074.249 229.529, 1063.375 207.809 C 1062.083 205.229, 1060.066 199.604, 1058.892 195.309 C 1057.718 191.014, 1055.452 184.906, 1053.857 181.735 C 1052.261 178.564, 1049.929 173.140, 1048.673 169.681 C 1045.735 161.587, 1036.795 148.659, 1032.130 145.758 C 1028.292 143.371, 972.656 141.884, 964.275 143.944 M 962.500 162.564 C 955.139 166.370, 945.354 179.661, 939.012 194.467 C 937.842 197.199, 935.409 201.249, 933.605 203.467 C 930.890 206.806, 918 231.738, 918 233.651 C 918 235.540, 895.362 276.389, 889.059 285.874 C 851.695 342.101, 850.830 357.839, 885.159 356.857 C 900.704 356.413, 903.892 354.681, 906.600 345.212 C 910.284 332.328, 917.164 332.448, 924.476 345.523 C 928.566 352.837, 932.987 356.356, 940 357.882 C 946.353 359.264, 971.808 361.265, 974.486 360.593 C 975.713 360.285, 982.068 359.574, 988.608 359.014 C 1032.062 355.291, 1037.720 353.049, 1046.689 336 C 1062.935 305.115, 1065.909 276.406, 1056.114 245 C 1054.999 241.425, 1053.164 234.450, 1052.036 229.500 C 1050.908 224.550, 1048.427 217.125, 1046.523 213 C 1044.619 208.875, 1042.358 202.142, 1041.500 198.037 C 1037.927 180.962, 1030.270 165.935, 1023.599 162.905 C 1017.907 160.321, 967.385 160.038, 962.500 162.564 M 959.862 193.510 C 947.751 195.923, 946 197.565, 946 206.516 C 946 211.441, 945.601 212.365, 941 218.098 C 931.122 230.406, 933.984 235.759, 954.059 242.520 C 973.446 249.049, 988.424 249.205, 1004.141 243.042 C 1010.454 240.567, 1023.682 238.057, 1030.673 238.008 C 1036.985 237.964, 1039.178 230.510, 1034.859 223.780 C 1031.948 219.244, 1031.801 218.606, 1032.859 215.077 C 1035.413 206.551, 1033.456 202.824, 1024.258 198.696 C 1011.505 192.973, 976.650 190.166, 959.862 193.510 M 613.125 214.682 C 607.618 219.021, 606.051 223.819, 606 236.500 C 605.899 261.685, 593.464 268.988, 577.029 253.514 C 561.379 238.778, 553.678 242.315, 563.496 259.730 C 564.975 262.354, 567.077 266.750, 568.168 269.500 C 575.466 287.907, 596.885 309.036, 612.312 313.045 C 614.616 313.643, 621.225 315.423, 627 316.999 C 642.210 321.152, 646.876 321.443, 661.174 319.136 C 667.953 318.042, 677.281 316.665, 681.903 316.076 C 701.389 313.594, 701.947 308.419, 684.768 289.478 C 679.966 284.183, 673.338 276.172, 670.040 271.675 C 666.742 267.179, 662.049 260.800, 659.611 257.500 C 657.173 254.200, 652.553 246.139, 649.345 239.586 C 638.127 216.677, 623.423 206.567, 613.125 214.682 M 592.667 328.815 C 590.573 331.130, 589.507 334.450, 587.470 345 C 585.376 355.849, 578.320 377.041, 573.152 388 C 561.365 412.994, 567.451 423.279, 590.277 416.940 C 600.998 413.963, 620.500 376.253, 620.500 358.500 C 620.500 341.167, 600.649 319.995, 592.667 328.815 M 403.500 347.063 C 398 347.524, 322.835 347.859, 236.466 347.807 C 64.859 347.704, 76.892 347.282, 72.988 353.545 C 70.757 357.125, 70.817 355.129, 71.759 394.500 C 72.574 428.587, 72.745 429.492, 79.323 434.395 C 83.109 437.218, 415.581 438.775, 421.935 436 C 429.538 432.681, 429.465 433.067, 429.787 393.906 C 430.187 345.225, 429.972 344.843, 403.500 347.063 M 94.500 367.412 C 87.125 370.689, 85.062 375.870, 85.024 391.201 C 84.991 404.617, 86.281 409.911, 90.607 414.104 C 94.551 417.927, 398.671 420.290, 405.897 416.553 C 415.231 411.727, 414.927 372.040, 405.522 367.577 C 400.896 365.382, 99.427 365.222, 94.500 367.412" stroke="none" fill="#9b9ca0" fill-rule="evenodd"/><path d="M 38.500 29.503 C 33.624 31.228, 30.412 34.755, 29.025 39.908 C 28.312 42.556, 28.063 108.543, 28.240 248.142 C 28.533 478.723, 27.724 456.582, 36.035 461.465 C 50.601 470.022, 1185.235 463.798, 1184.822 455.163 C 1184.301 444.269, 1182.825 441.893, 1173.899 437.582 C 1162.855 432.248, 1163.582 436.655, 1163 371.454 C 1162.389 302.991, 1162.241 302.452, 1147.457 315.093 C 1139.520 321.880, 1133.675 324.805, 1131.558 323.048 C 1127.518 319.695, 1130.737 314.066, 1145.055 299.445 C 1159.551 284.642, 1160.479 278.586, 1149.951 267.500 C 1143.228 260.422, 1142.686 253.224, 1148.264 245.116 C 1155.125 235.144, 1153.532 228.959, 1140.511 215.012 C 1135.839 210.007, 1131.748 204.843, 1131.420 203.535 C 1129.587 196.235, 1134.095 195.127, 1142.016 200.928 C 1154.347 209.959, 1154.865 210.251, 1157.444 209.603 C 1162.473 208.341, 1162.465 208.421, 1163 148 C 1163.275 116.925, 1163.904 90.825, 1164.399 90 C 1166.606 86.316, 1169.629 83.952, 1173.982 82.506 C 1184.086 79.150, 1184.459 78.079, 1184.801 51.436 C 1185.057 31.587, 91.739 10.668, 38.500 29.503 M 1196.962 30.169 C 1196.196 77.624, 1196.333 78.159, 1210.778 84.100 C 1223.913 89.502, 1223 76.002, 1223 264.750 C 1223 454.154, 1224.726 432.656, 1209.091 437.978 C 1198.793 441.484, 1194.995 448.872, 1196.830 461.830 C 1197.817 468.798, 1236.946 463.657, 1241.465 455.965 C 1244.680 450.491, 1244.680 41.509, 1241.465 36.035 C 1236.964 28.374, 1197.076 23.116, 1196.962 30.169 M 226 83.083 C 221.875 83.517, 212.200 84.329, 204.500 84.887 C 189.524 85.973, 176.675 87.558, 171 89.020 C 169.075 89.516, 160.936 91.047, 152.913 92.422 C 144.890 93.798, 134.315 96.311, 129.413 98.008 C 124.511 99.704, 117.417 101.986, 113.648 103.078 C 109.879 104.170, 104.254 106.374, 101.148 107.976 C 98.042 109.578, 92.806 111.886, 89.512 113.105 C 74.002 118.846, 71.771 132.936, 85.348 139.403 C 112.473 152.321, 124.601 157.158, 135.779 159.518 C 142.226 160.879, 152.538 163.324, 158.695 164.951 C 192.152 173.792, 315.104 172.465, 347.054 162.918 C 352.799 161.201, 361.492 159.146, 366.371 158.352 C 371.607 157.499, 377.548 155.754, 380.871 154.093 C 383.967 152.545, 388.750 150.515, 391.500 149.582 C 443.220 132.034, 421.809 105.650, 345.137 92.454 C 337.165 91.082, 326.336 89.050, 321.071 87.938 C 315.807 86.826, 305.650 85.492, 298.500 84.974 C 291.350 84.456, 280.325 83.582, 274 83.032 C 260.881 81.892, 237.076 81.917, 226 83.083 M 527 83.879 C 520.384 84.628, 516.294 87.047, 509 94.522 C 502.741 100.937, 499.457 102.829, 489.316 105.866 C 473.742 110.530, 473.482 122.570, 488.828 128.434 C 500.981 133.078, 504.638 139.290, 503.736 153.752 C 502.391 175.309, 507.236 187.799, 543.978 257.500 C 552.241 273.174, 561.018 291.052, 562.982 296.206 C 563.968 298.795, 566.161 303.165, 567.854 305.918 C 576.169 319.430, 576.545 338.608, 568.828 355.500 C 566.316 361, 563.693 367.300, 563 369.500 C 562.307 371.700, 559.838 377.775, 557.512 383 C 555.187 388.225, 552.508 394.640, 551.558 397.255 C 546.251 411.866, 537.901 417.996, 523.290 418.008 C 496.918 418.028, 485.252 423.126, 491.698 431.814 C 499.649 442.529, 637.778 440.035, 638.820 429.156 C 639.226 424.919, 637.237 422.659, 629.788 418.895 C 621.422 414.669, 619.816 409.308, 624.129 400 C 625.276 397.525, 627.490 391.900, 629.049 387.500 C 630.608 383.100, 633.080 376.350, 634.541 372.500 C 637.036 365.924, 637.158 364.832, 636.541 354.479 C 635.594 338.598, 636.586 337.862, 662.090 335.522 C 686.926 333.243, 701.883 328.604, 707.890 321.318 C 717.957 309.105, 716.442 304.305, 696.141 284.102 C 684.750 272.766, 681.915 269.334, 679.127 263.500 C 672.886 250.445, 656.448 225.698, 647.575 216 C 645.311 213.525, 639.796 206.775, 635.321 201 C 630.846 195.225, 618.829 182.061, 608.616 171.747 C 588.950 151.885, 587.999 150.635, 585.986 142 C 584.661 136.316, 578.930 120.721, 576.275 115.572 C 574.335 111.812, 550.065 87.595, 546.334 85.697 C 542.762 83.879, 534.146 83.069, 527 83.879 M 700.024 85.531 C 692.967 87.520, 681.124 94.877, 673.500 102.006 C 670.200 105.092, 665.025 109.687, 662 112.219 C 643.345 127.828, 635.292 161.605, 648.498 168.852 C 653.083 171.369, 783.291 171.916, 789.771 169.446 C 797.712 166.420, 798.874 160.575, 793.322 151.580 C 791.298 148.302, 788.883 142.788, 787.953 139.326 C 782.473 118.913, 753.385 90.835, 732.722 86.012 C 724.637 84.125, 705.985 83.851, 700.024 85.531 M 711.467 101.024 C 683.624 105.987, 674.349 111.356, 664.529 128.194 C 657.016 141.077, 656.853 147.509, 663.946 151.179 C 671.124 154.892, 765.740 153.350, 769.634 149.457 C 776.419 142.672, 763.435 116.545, 750.500 110.955 C 725.846 100.299, 721.597 99.218, 711.467 101.024 M 216 101.971 C 200.631 102.489, 191.363 103.307, 183.500 104.839 C 177.450 106.018, 165.792 107.894, 157.594 109.008 C 149.395 110.122, 139.045 112.120, 134.594 113.449 C 130.142 114.779, 123.267 116.800, 119.317 117.942 C 107.518 121.351, 103.032 126.932, 108.250 131.713 C 114.597 137.528, 126.047 140.711, 176 150.546 C 192.279 153.751, 239.935 154.849, 286.500 153.092 C 320.192 151.821, 317.566 152.194, 365.551 141.891 C 395.805 135.396, 400.867 122.364, 375.402 116.534 C 371.606 115.665, 365.800 114.093, 362.500 113.041 C 352.753 109.934, 349.781 109.450, 308 104.162 C 289.685 101.843, 248.723 100.868, 216 101.971 M 537.219 105.672 C 536.515 105.955, 534.836 108.364, 533.488 111.024 C 529.577 118.741, 522.057 121.530, 516.207 117.432 C 509.834 112.969, 506.959 118.907, 511.675 126.792 C 517.748 136.946, 519.018 142.398, 519.874 162 C 520.978 187.294, 538.753 215.727, 541.957 197.325 C 544.077 185.149, 550.039 177.060, 559.576 173.418 C 571.340 168.925, 579.620 180.046, 568.792 185.796 C 559.427 190.769, 557.720 197.024, 562.597 208.500 C 563.999 211.800, 566.282 217.772, 567.670 221.770 C 573.326 238.062, 583.365 241.059, 585.699 227.152 C 587.194 218.251, 590.749 212.804, 598.949 206.850 C 611.005 198.095, 610.868 187.250, 598.583 177.975 C 583.190 166.353, 567.621 144.202, 564.623 129.657 C 560.886 111.529, 548.853 100.998, 537.219 105.672 M 964.275 143.944 C 958.037 145.478, 951.091 151.327, 943.490 161.447 C 940.577 165.326, 936.151 171.181, 933.655 174.458 C 931.159 177.735, 927.876 182.910, 926.360 185.958 C 924.844 189.006, 922.480 193.300, 921.107 195.500 C 919.733 197.700, 916.747 203.100, 914.469 207.500 C 912.192 211.900, 909.143 217.750, 907.693 220.500 C 903.313 228.806, 893 250.503, 893 251.412 C 893 251.879, 891.445 254.426, 889.544 257.071 C 887.644 259.716, 884.656 264.720, 882.904 268.190 C 881.153 271.661, 877.022 278.775, 873.724 284 C 848.561 323.872, 841.533 342.747, 847.223 355.175 C 855.167 372.528, 872.995 378.647, 899.409 373.086 C 911.859 370.465, 913.416 370.490, 924.861 373.496 C 946.890 379.283, 993.714 379.008, 1026 372.902 C 1047.125 368.907, 1065.323 344.075, 1076.128 304.500 C 1081.529 284.719, 1074.249 229.529, 1063.375 207.809 C 1062.083 205.229, 1060.066 199.604, 1058.892 195.309 C 1057.718 191.014, 1055.452 184.906, 1053.857 181.735 C 1052.261 178.564, 1049.929 173.140, 1048.673 169.681 C 1045.735 161.587, 1036.795 148.659, 1032.130 145.758 C 1028.292 143.371, 972.656 141.884, 964.275 143.944 M 962.500 162.564 C 955.139 166.370, 945.354 179.661, 939.012 194.467 C 937.842 197.199, 935.409 201.249, 933.605 203.467 C 930.890 206.806, 918 231.738, 918 233.651 C 918 235.540, 895.362 276.389, 889.059 285.874 C 851.695 342.101, 850.830 357.839, 885.159 356.857 C 900.704 356.413, 903.892 354.681, 906.600 345.212 C 910.284 332.328, 917.164 332.448, 924.476 345.523 C 928.566 352.837, 932.987 356.356, 940 357.882 C 946.353 359.264, 971.808 361.265, 974.486 360.593 C 975.713 360.285, 982.068 359.574, 988.608 359.014 C 1032.062 355.291, 1037.720 353.049, 1046.689 336 C 1062.935 305.115, 1065.909 276.406, 1056.114 245 C 1054.999 241.425, 1053.164 234.450, 1052.036 229.500 C 1050.908 224.550, 1048.427 217.125, 1046.523 213 C 1044.619 208.875, 1042.358 202.142, 1041.500 198.037 C 1037.927 180.962, 1030.270 165.935, 1023.599 162.905 C 1017.907 160.321, 967.385 160.038, 962.500 162.564 M 959.862 193.510 C 947.751 195.923, 946 197.565, 946 206.516 C 946 211.441, 945.601 212.365, 941 218.098 C 931.122 230.406, 933.984 235.759, 954.059 242.520 C 973.446 249.049, 988.424 249.205, 1004.141 243.042 C 1010.454 240.567, 1023.682 238.057, 1030.673 238.008 C 1036.985 237.964, 1039.178 230.510, 1034.859 223.780 C 1031.948 219.244, 1031.801 218.606, 1032.859 215.077 C 1035.413 206.551, 1033.456 202.824, 1024.258 198.696 C 1011.505 192.973, 976.650 190.166, 959.862 193.510 M 613.125 214.682 C 607.618 219.021, 606.051 223.819, 606 236.500 C 605.899 261.685, 593.464 268.988, 577.029 253.514 C 561.379 238.778, 553.678 242.315, 563.496 259.730 C 564.975 262.354, 567.077 266.750, 568.168 269.500 C 575.466 287.907, 596.885 309.036, 612.312 313.045 C 614.616 313.643, 621.225 315.423, 627 316.999 C 642.210 321.152, 646.876 321.443, 661.174 319.136 C 667.953 318.042, 677.281 316.665, 681.903 316.076 C 701.389 313.594, 701.947 308.419, 684.768 289.478 C 679.966 284.183, 673.338 276.172, 670.040 271.675 C 666.742 267.179, 662.049 260.800, 659.611 257.500 C 657.173 254.200, 652.553 246.139, 649.345 239.586 C 638.127 216.677, 623.423 206.567, 613.125 214.682 M 592.667 328.815 C 590.573 331.130, 589.507 334.450, 587.470 345 C 585.376 355.849, 578.320 377.041, 573.152 388 C 561.365 412.994, 567.451 423.279, 590.277 416.940 C 600.998 413.963, 620.500 376.253, 620.500 358.500 C 620.500 341.167, 600.649 319.995, 592.667 328.815 M 403.500 347.063 C 398 347.524, 322.835 347.859, 236.466 347.807 C 64.859 347.704, 76.892 347.282, 72.988 353.545 C 70.757 357.125, 70.817 355.129, 71.759 394.500 C 72.574 428.587, 72.745 429.492, 79.323 434.395 C 83.109 437.218, 415.581 438.775, 421.935 436 C 429.538 432.681, 429.465 433.067, 429.787 393.906 C 430.187 345.225, 429.972 344.843, 403.500 347.063 M 94.500 367.412 C 87.125 370.689, 85.062 375.870, 85.024 391.201 C 84.991 404.617, 86.281 409.911, 90.607 414.104 C 94.551 417.927, 398.671 420.290, 405.897 416.553 C 415.231 411.727, 414.927 372.040, 405.522 367.577 C 400.896 365.382, 99.427 365.222, 94.500 367.412" stroke="none" fill="#f1f1f1" fill-rule="evenodd"/></svg>