<svg xmlns="http://www.w3.org/2000/svg" width="1272" height="672" viewBox="0 0 1272 672" version="1.1"><path d="M 1039.136 91.539 C 1023.055 98.521, 1004.044 122.484, 999.973 140.905 C 996.996 154.377, 996.184 156.772, 992.487 163 C 986.331 173.368, 986.817 176.746, 995.944 187.016 C 1015.559 209.086, 1016.334 206.564, 980.598 237 C 974.498 242.195, 960.126 257.856, 947.560 273 C 932.614 291.013, 927.886 292.190, 916.643 280.702 C 912.714 276.688, 902.181 266.706, 893.236 258.521 C 879.469 245.923, 876.802 243.014, 875.867 239.569 C 873.084 229.320, 871.660 225.840, 868.601 221.818 C 866.795 219.443, 864.046 215.475, 862.493 213 C 846.531 187.567, 823.484 191.078, 834 217.341 C 835.966 222.251, 837 226.596, 837 229.949 C 837 238.923, 840.597 244.344, 859.596 264 C 864.114 268.675, 871.472 277, 875.946 282.500 C 922.851 340.162, 928.125 343.308, 949.703 326.500 C 959.727 318.692, 963.731 314.665, 973.914 302.151 C 992.470 279.349, 999.752 284.912, 1005.498 326.277 C 1008.347 346.787, 1009.035 350.420, 1012.166 361.500 C 1016.191 375.738, 1016.570 388.838, 1013.266 399.500 C 1012.073 403.350, 1010.173 410.464, 1009.044 415.309 C 1004.521 434.716, 1002.692 434.985, 986.381 418.638 C 981.366 413.612, 974.841 407.206, 971.881 404.402 C 968.922 401.599, 964.207 396.874, 961.403 393.902 C 927.613 358.083, 900.100 354.273, 884.290 383.222 C 881.276 388.741, 881.898 413.582, 885.360 426 C 890.012 442.683, 892.827 455.143, 895.074 469 C 899.267 494.853, 899.222 495.261, 891.176 504.130 C 887.998 507.634, 884.227 512.525, 882.796 515 C 881.366 517.475, 878.757 521.300, 877 523.500 C 875.243 525.700, 872.572 530.213, 871.066 533.528 C 867.760 540.803, 866.628 541.591, 850.320 547.967 C 830.298 555.795, 826.632 559.207, 828.960 567.852 C 831.934 578.896, 843.686 581.555, 862.900 575.531 C 878.900 570.515, 888.423 569.342, 901.172 570.817 C 925.537 573.635, 988.229 570.592, 1024.848 564.814 C 1037.726 562.782, 1038.608 562.764, 1049.848 564.323 C 1056.257 565.211, 1065.100 566.227, 1069.500 566.581 C 1077.950 567.261, 1103.383 572.551, 1116 576.253 C 1133.242 581.312, 1153.798 579.160, 1157.551 571.901 C 1162.247 562.820, 1157.235 555.783, 1144.500 553.576 C 1141.008 552.971, 1133.179 549.651, 1113.379 540.377 C 1102.631 535.344, 1100.092 528.054, 1103.085 510.821 C 1105.633 496.149, 1105.909 478.687, 1103.758 468.349 C 1102.276 461.228, 1102.823 399.156, 1104.514 382.500 C 1107.344 354.633, 1116.597 349.015, 1140.011 360.945 C 1144.294 363.127, 1151.987 366.091, 1157.108 367.530 C 1162.229 368.970, 1167.955 370.790, 1169.832 371.574 C 1180.163 375.891, 1191.385 370.825, 1197.443 359.109 C 1200.477 353.244, 1195.312 331.237, 1188.010 318.916 C 1185.863 315.294, 1183.019 309.438, 1181.688 305.903 C 1180.357 302.367, 1177.793 296.555, 1175.991 292.987 C 1174.189 289.419, 1171.698 283.515, 1170.456 279.866 C 1169.214 276.218, 1165.791 269.585, 1162.849 265.126 C 1159.907 260.668, 1155.025 253.162, 1152 248.446 C 1142.927 234.302, 1126.177 217.876, 1117.500 214.614 C 1093.565 205.617, 1092.017 201.699, 1105.401 183.985 C 1119.609 165.179, 1118.608 130.958, 1103.398 115.482 C 1099.604 111.623, 1094.104 105.652, 1091.175 102.215 C 1082.128 91.594, 1052.845 85.587, 1039.136 91.539 M 183.045 92.022 C 178.365 93.013, 175.249 94.800, 161.573 104.331 C 150.751 111.874, 147.495 112.412, 138.607 108.126 C 125.576 101.841, 120.768 104.673, 117.883 120.331 C 116.193 129.501, 117.523 133.578, 123.965 138.971 C 132.018 145.713, 131.647 150.006, 122.409 156.981 C 116.928 161.119, 115.286 164.175, 116.495 167.985 C 118.133 173.145, 125.161 172.309, 132.214 166.117 C 145.329 154.602, 160.856 154.971, 179.192 167.236 C 195.037 177.835, 196.385 184.694, 186.515 204.500 C 184.048 209.450, 181.124 217.165, 180.016 221.644 C 178.909 226.123, 176.409 233.142, 174.462 237.242 C 172.432 241.517, 170.083 248.866, 168.956 254.472 C 167.422 262.097, 166.250 265.264, 163.626 268.873 C 158.483 275.949, 149.872 290.338, 143.752 302.084 C 138.026 313.071, 137.549 314.911, 135.102 335.454 C 133.759 346.725, 130.738 353.091, 122.565 361.873 C 119.173 365.518, 114.206 371.650, 111.528 375.500 C 108.849 379.350, 103.697 385.455, 100.079 389.066 C 96.460 392.677, 92.978 396.727, 92.340 398.066 C 91.703 399.405, 89.135 404.788, 86.635 410.030 C 77.711 428.739, 76.289 454.055, 83.391 467.789 C 92.387 485.186, 99.073 489.150, 108.624 482.750 C 113.903 479.212, 114.012 479.061, 124.024 461.500 C 141.614 430.646, 148.098 424.626, 166.500 422.063 C 179.221 420.291, 192.799 429.671, 202.788 447.130 C 204.492 450.108, 207.093 453.659, 208.567 455.022 C 210.042 456.385, 214.453 461.325, 218.369 466 C 225.431 474.429, 239.104 488.993, 254.500 504.487 C 284.697 534.874, 290.146 542.670, 282.523 544.584 C 277.993 545.721, 258.445 541.350, 249.275 537.149 C 244.449 534.939, 236.705 532.170, 232.067 530.997 C 227.428 529.824, 219.778 527.299, 215.067 525.386 C 210.355 523.473, 202.696 521.011, 198.047 519.916 C 193.398 518.820, 185.748 516.197, 181.047 514.087 C 158.597 504.010, 147.216 503.444, 126.742 511.383 C 117.574 514.938, 106.859 518.205, 98.453 520.010 C 83.237 523.277, 75.791 526.659, 72.278 531.898 C 65.965 541.313, 73.442 546.195, 87 541.511 C 91.125 540.086, 99.491 537.857, 105.591 536.557 C 111.690 535.258, 120.168 532.798, 124.429 531.092 C 140.389 524.702, 150.215 524.663, 162.179 530.945 C 166.206 533.059, 172.875 535.788, 177 537.010 C 181.125 538.232, 187.916 540.949, 192.092 543.047 C 196.267 545.146, 202.470 547.585, 205.876 548.468 C 209.281 549.350, 215.765 551.708, 220.284 553.707 C 228.271 557.240, 228.813 557.336, 239.730 557.164 C 252.977 556.955, 268.202 560.054, 277.849 564.924 C 281.093 566.561, 288.191 569.031, 293.623 570.411 C 299.056 571.792, 306.304 574.064, 309.730 575.461 C 321.144 580.113, 326.750 578.452, 333.863 568.310 C 339.936 559.654, 348.265 554.473, 367.167 547.596 C 369.734 546.662, 373.910 544.071, 376.446 541.839 C 380.796 538.009, 384.417 535.916, 405 525.333 C 456.936 498.629, 476.058 442.076, 430.310 450.478 C 422.264 451.955, 415.899 447.878, 412.013 438.757 C 410.781 435.866, 408.273 431.395, 406.440 428.822 C 404.606 426.249, 401.913 421.749, 400.455 418.822 C 389.681 397.194, 353.964 357.420, 339.554 351.002 C 307.323 336.645, 310.122 317.082, 347 298.963 C 351.125 296.936, 356.700 293.881, 359.390 292.174 C 362.079 290.468, 367.769 287.909, 372.034 286.489 C 384.226 282.428, 396 272.529, 396 266.340 C 396 251.438, 366.406 237.578, 344.871 242.394 C 329.625 245.803, 317.802 251.007, 298.725 262.703 C 295.851 264.465, 291.299 267.165, 288.609 268.703 C 285.920 270.241, 280.970 273.414, 277.609 275.754 C 274.249 278.094, 268.655 281.352, 265.177 282.995 C 261.700 284.638, 256.300 287.970, 253.177 290.399 C 224.069 313.050, 209.236 294.573, 225.965 256.500 C 227.173 253.750, 229.245 246.617, 230.570 240.649 C 232.273 232.974, 233.993 228.127, 236.448 224.085 C 238.357 220.943, 241.134 214.126, 242.620 208.936 C 244.105 203.746, 246.634 196.575, 248.239 193 C 261.965 162.423, 258.900 130.322, 240.782 114.910 C 237.327 111.970, 231.185 106.465, 227.134 102.675 C 216.031 92.290, 200.027 88.423, 183.045 92.022 M 619 91.648 C 600.126 94.482, 581.807 103.293, 570.772 114.843 C 566.571 119.240, 560.741 124.622, 557.817 126.803 C 548.307 133.895, 534.553 153.106, 531.434 163.654 C 530.483 166.869, 528.354 173.775, 526.704 179 C 521.127 196.651, 522.476 210.896, 530.153 215.431 C 532.554 216.850, 724.177 218.308, 748.327 217.092 C 756.705 216.670, 757.846 207.189, 751.104 194.013 C 748.412 188.751, 744.148 177.980, 741.629 170.079 C 735.046 149.424, 729.791 141.995, 705.842 119.477 C 702.904 116.714, 698.475 112.075, 696 109.168 C 685.136 96.405, 646.244 87.556, 619 91.648 M 623 107.033 C 616.790 107.572, 612.749 108.580, 608 110.775 C 604.425 112.427, 598.457 114.715, 594.738 115.860 C 580.461 120.256, 565.759 132.608, 555.292 149 C 545.685 164.046, 541.689 185.521, 547.194 192.520 C 551.624 198.152, 549.168 198, 636 198 C 722.895 198, 720.372 198.157, 724.832 192.486 C 729.203 186.930, 725.699 163.170, 719.452 156 C 718.733 155.175, 716.696 151.579, 714.925 148.009 C 706.584 131.193, 698.757 123.936, 683.071 118.477 C 677.415 116.508, 670.473 113.599, 667.644 112.012 C 658.513 106.891, 643.681 105.236, 623 107.033 M 1047.500 107.406 C 1022.076 113.689, 1025.107 132.994, 1051.991 136.010 C 1072.062 138.261, 1080.104 146.715, 1076.358 161.627 C 1072.429 177.268, 1086.770 189.014, 1093.621 175.766 C 1102.997 157.635, 1097.070 125.899, 1082.490 116.166 C 1067.014 105.835, 1060.478 104.198, 1047.500 107.406 M 198.667 111.667 C 198.300 112.033, 198 114.024, 198 116.090 C 198 125.211, 190.513 128.346, 181.500 123 C 170.626 116.550, 163.521 120.844, 164.159 133.480 C 164.932 148.782, 176.130 154.554, 196.212 150.001 C 215.317 145.669, 220.767 151.300, 213.148 167.500 C 210.807 172.478, 209.575 176.955, 208.884 183 C 207.080 198.773, 206.045 203.480, 203.170 209 C 201.594 212.025, 199.286 217.650, 198.040 221.500 C 196.794 225.350, 194.277 231.875, 192.447 236 C 190.617 240.125, 187.801 248.360, 186.188 254.299 C 184.142 261.832, 182.348 266.228, 180.254 268.834 C 178.603 270.888, 176.112 274.804, 174.718 277.535 C 173.325 280.266, 169.939 285.285, 167.194 288.690 C 163.978 292.678, 161.479 297.124, 160.168 301.190 C 155.179 316.655, 151.722 331.049, 150.986 339.428 C 149.825 352.618, 141.016 365.171, 120.824 382.409 C 112.488 389.525, 109.386 394.045, 106.566 403.186 C 105.322 407.217, 102.634 413.742, 100.593 417.687 C 95.025 428.445, 93.327 452.217, 97.766 457.250 C 101.963 462.007, 109.150 458.273, 114.216 448.704 C 119.147 439.388, 146.136 412.827, 154.849 408.715 C 167.899 402.556, 176.515 403.714, 186.442 412.961 C 189.224 415.552, 193.633 419.115, 196.241 420.878 C 198.848 422.641, 203.400 427.102, 206.356 430.792 C 209.312 434.481, 212.745 438.400, 213.986 439.500 C 215.227 440.600, 218.775 445.314, 221.871 449.976 C 224.967 454.637, 230.211 461.387, 233.524 464.976 C 236.836 468.564, 241.325 473.750, 243.498 476.500 C 245.670 479.250, 250.835 485.153, 254.974 489.618 C 259.113 494.083, 264.525 499.956, 267 502.669 C 282.318 519.459, 293.856 520.656, 286.071 504.647 C 283.832 500.042, 282 495.848, 282 495.328 C 282 494.808, 280.457 491.819, 278.570 488.686 C 276.684 485.554, 274.188 480.446, 273.024 477.335 C 271.760 473.955, 268.944 469.531, 266.025 466.337 C 254.495 453.721, 252.848 435.076, 262.311 424.298 C 274.872 409.992, 292.941 405.474, 300.980 414.630 C 307.645 422.221, 304.622 426.008, 292.025 425.845 C 274.208 425.615, 265.513 454.446, 279.463 467.500 C 286.907 474.467, 296.170 486.279, 299.267 492.756 C 305.780 506.377, 311.361 510.101, 318.180 505.375 C 325.850 500.060, 329.204 502.089, 334.705 515.371 C 344.599 539.260, 358.870 539.340, 390.500 515.683 C 393.800 513.215, 399.337 510.048, 402.803 508.646 C 421.996 500.884, 444.863 473.743, 436.142 469.076 C 435.121 468.529, 430.733 468.147, 426.392 468.226 C 416.167 468.413, 413.635 467.047, 406.283 457.375 C 399.849 448.912, 393.923 439.100, 379.297 412.698 C 366.298 389.233, 352.104 372.113, 341.372 366.955 C 338.692 365.667, 334.025 362.279, 331 359.426 C 327.975 356.572, 322.767 352.868, 319.427 351.194 C 304.812 343.868, 297.671 331.280, 302.515 321.380 C 307.318 311.562, 333.011 287.182, 343.393 282.589 C 347.734 280.669, 354.857 276.290, 364.750 269.460 C 369.537 266.155, 365.899 259.822, 358.406 258.416 C 352.217 257.255, 322.180 265.308, 317.211 269.460 C 315.720 270.706, 311.800 273.213, 308.500 275.032 C 305.200 276.850, 299.271 280.399, 295.324 282.919 C 282.373 291.187, 276.643 294.384, 250.500 307.929 C 245.550 310.494, 239.700 313.850, 237.500 315.388 C 229.467 321.002, 215.932 314.746, 206.250 300.944 C 200.218 292.345, 201.362 273.727, 209.124 254.187 C 210.777 250.026, 213.274 241.872, 214.673 236.068 C 216.072 230.263, 218.475 223.020, 220.014 219.972 C 221.553 216.924, 223.816 211.070, 225.044 206.965 C 226.271 202.859, 229.220 195.675, 231.597 191 C 247.335 160.045, 241.303 121.490, 219.868 116.028 C 217.466 115.415, 212.505 114.034, 208.845 112.957 C 201.728 110.864, 199.723 110.610, 198.667 111.667 M 1035.953 160.134 C 1030.276 166.269, 1030.276 166.269, 1023.135 166.923 C 1005.220 168.565, 1009.366 183.968, 1029.356 190.040 C 1050.722 196.529, 1048.809 212.213, 1024.824 227.207 C 1023.321 228.146, 1019.034 229.847, 1015.296 230.988 C 1005.089 234.102, 993.741 241.109, 988.728 247.393 C 975.657 263.775, 967.839 273.168, 962.439 278.979 C 959.105 282.565, 954.313 288.219, 951.791 291.541 C 943.769 302.107, 935.051 308, 927.441 308 C 922.864 308, 923.414 315.128, 928.180 317.593 C 935.458 321.357, 941.464 318.638, 948.273 308.500 C 950.489 305.200, 955.047 299.544, 958.401 295.932 C 961.756 292.320, 966.750 286.508, 969.500 283.017 C 994.757 250.955, 1007.587 247.224, 1012.419 270.534 C 1013.327 274.915, 1015.225 283.450, 1016.637 289.500 C 1021.401 309.912, 1022.081 313.462, 1024.062 328.263 C 1025.148 336.383, 1027.155 347.633, 1028.522 353.263 C 1033.822 375.103, 1033.936 389.567, 1028.972 410.744 C 1020.951 444.971, 1027.180 448.802, 1067.500 434.436 C 1084.922 428.229, 1084.916 428.239, 1086.084 404.073 C 1086.551 394.408, 1087.405 381.775, 1087.983 376 C 1090.403 351.818, 1090.404 351.702, 1088.232 346.791 C 1085.350 340.277, 1079.755 335.136, 1070.055 330.089 C 1058.585 324.122, 1053.828 319.543, 1050.997 311.744 C 1049.352 307.215, 1047.462 304.322, 1044.115 301.212 C 1041.577 298.854, 1037.429 295.002, 1034.897 292.653 C 1024.369 282.881, 1030.252 270.018, 1044.637 271.355 C 1051.150 271.960, 1054.754 273.842, 1061.834 280.334 C 1064.950 283.191, 1068.970 286.572, 1070.767 287.845 C 1072.564 289.119, 1075.836 292.814, 1078.038 296.057 C 1086.038 307.837, 1093.478 307.142, 1098.443 294.150 C 1105.880 274.687, 1125.377 260.144, 1134.841 267 C 1144.022 273.650, 1147.418 263.908, 1139.547 253.500 C 1126.635 236.424, 1120.346 232.161, 1100.612 227.111 C 1072.463 219.907, 1070.977 218.537, 1062.148 191.628 C 1057.283 176.802, 1056 171.591, 1056 166.668 C 1056 159.210, 1054.411 156.486, 1049.221 155.044 C 1042.986 153.313, 1041.868 153.742, 1035.953 160.134 M 1117.917 289.866 C 1109.967 296.304, 1116.234 315.283, 1126.776 316.697 C 1137.870 318.185, 1139.645 314.468, 1133.957 301.656 C 1128.198 288.682, 1123.575 285.285, 1117.917 289.866 M 634.306 349.498 C 628.802 353.353, 628.924 350.681, 629.224 461.677 C 629.499 563.539, 629.506 563.863, 631.590 566.677 C 636.478 573.280, 642.203 572.777, 646 565.410 C 648.114 561.308, 648.279 360.701, 646.173 354.753 C 643.988 348.580, 638.859 346.309, 634.306 349.498 M 925.923 395.923 C 921.692 400.154, 921.853 406.107, 926.419 414.338 C 931.170 422.902, 936.967 443.873, 938.168 456.844 C 939.977 476.366, 947.564 479.862, 966.664 469.978 C 970.756 467.861, 976.941 465.184, 980.410 464.030 C 996.861 458.555, 995.719 450.959, 974.540 425 C 951.487 396.744, 934.976 386.870, 925.923 395.923 M 1065.500 453.092 C 1062.750 454.192, 1055.550 456.202, 1049.500 457.561 C 1043.450 458.919, 1035.173 461.607, 1031.106 463.534 C 1027.039 465.461, 1019.220 468.177, 1013.729 469.569 C 1008.239 470.960, 1001.216 473.364, 998.123 474.910 C 995.031 476.455, 989.350 478.731, 985.500 479.967 C 981.650 481.203, 975.575 483.934, 972 486.035 C 968.425 488.136, 962.800 490.606, 959.500 491.524 C 956.200 492.442, 950.575 494.906, 947 497 C 943.425 499.095, 937.766 501.784, 934.424 502.975 C 906.569 512.906, 912.572 536.408, 940.698 527.540 C 976.466 516.262, 1021.559 516.204, 1047.840 527.400 C 1078.652 540.527, 1093.605 519.694, 1087.615 471.985 C 1085.227 452.968, 1079.038 447.680, 1065.500 453.092 M 894.748 530.163 C 884.230 534.003, 896.726 553, 909.769 553 C 917.163 553, 922 551.590, 922 549.434 C 922 546.227, 904.896 530, 901.516 530 C 900.772 530, 899.564 529.811, 898.832 529.579 C 898.099 529.348, 896.262 529.611, 894.748 530.163 M 997.500 537.703 C 995.850 537.871, 986.625 538.381, 977 538.838 C 958.438 539.718, 954.188 540.815, 949.574 545.917 C 943.287 552.869, 999.863 551.926, 1014.663 544.833 C 1022.119 541.259, 1010.404 536.393, 997.500 537.703" stroke="none" fill="#8e8f93" fill-rule="evenodd"/><path d="M 38.500 29.501 C 33.627 31.227, 30.412 34.755, 29.028 39.898 C 26.710 48.505, 28.186 631.965, 30.535 635.965 C 31.655 637.870, 34.130 640.345, 36.035 641.465 C 41.519 644.686, 1230.481 644.686, 1235.965 641.465 C 1244.348 636.540, 1243.500 670.911, 1243.500 336 C 1243.500 1.089, 1244.348 35.460, 1235.965 30.535 C 1231.398 27.853, 46.044 26.829, 38.500 29.501 M 1039.136 91.539 C 1023.055 98.521, 1004.044 122.484, 999.973 140.905 C 996.996 154.377, 996.184 156.772, 992.487 163 C 986.331 173.368, 986.817 176.746, 995.944 187.016 C 1015.559 209.086, 1016.334 206.564, 980.598 237 C 974.498 242.195, 960.126 257.856, 947.560 273 C 932.614 291.013, 927.886 292.190, 916.643 280.702 C 912.714 276.688, 902.181 266.706, 893.236 258.521 C 879.469 245.923, 876.802 243.014, 875.867 239.569 C 873.084 229.320, 871.660 225.840, 868.601 221.818 C 866.795 219.443, 864.046 215.475, 862.493 213 C 846.531 187.567, 823.484 191.078, 834 217.341 C 835.966 222.251, 837 226.596, 837 229.949 C 837 238.923, 840.597 244.344, 859.596 264 C 864.114 268.675, 871.472 277, 875.946 282.500 C 922.851 340.162, 928.125 343.308, 949.703 326.500 C 959.727 318.692, 963.731 314.665, 973.914 302.151 C 992.470 279.349, 999.752 284.912, 1005.498 326.277 C 1008.347 346.787, 1009.035 350.420, 1012.166 361.500 C 1016.191 375.738, 1016.570 388.838, 1013.266 399.500 C 1012.073 403.350, 1010.173 410.464, 1009.044 415.309 C 1004.521 434.716, 1002.692 434.985, 986.381 418.638 C 981.366 413.612, 974.841 407.206, 971.881 404.402 C 968.922 401.599, 964.207 396.874, 961.403 393.902 C 927.613 358.083, 900.100 354.273, 884.290 383.222 C 881.276 388.741, 881.898 413.582, 885.360 426 C 890.012 442.683, 892.827 455.143, 895.074 469 C 899.267 494.853, 899.222 495.261, 891.176 504.130 C 887.998 507.634, 884.227 512.525, 882.796 515 C 881.366 517.475, 878.757 521.300, 877 523.500 C 875.243 525.700, 872.572 530.213, 871.066 533.528 C 867.760 540.803, 866.628 541.591, 850.320 547.967 C 830.298 555.795, 826.632 559.207, 828.960 567.852 C 831.934 578.896, 843.686 581.555, 862.900 575.531 C 878.900 570.515, 888.423 569.342, 901.172 570.817 C 925.537 573.635, 988.229 570.592, 1024.848 564.814 C 1037.726 562.782, 1038.608 562.764, 1049.848 564.323 C 1056.257 565.211, 1065.100 566.227, 1069.500 566.581 C 1077.950 567.261, 1103.383 572.551, 1116 576.253 C 1133.242 581.312, 1153.798 579.160, 1157.551 571.901 C 1162.247 562.820, 1157.235 555.783, 1144.500 553.576 C 1141.008 552.971, 1133.179 549.651, 1113.379 540.377 C 1102.631 535.344, 1100.092 528.054, 1103.085 510.821 C 1105.633 496.149, 1105.909 478.687, 1103.758 468.349 C 1102.276 461.228, 1102.823 399.156, 1104.514 382.500 C 1107.344 354.633, 1116.597 349.015, 1140.011 360.945 C 1144.294 363.127, 1151.987 366.091, 1157.108 367.530 C 1162.229 368.970, 1167.955 370.790, 1169.832 371.574 C 1180.163 375.891, 1191.385 370.825, 1197.443 359.109 C 1200.477 353.244, 1195.312 331.237, 1188.010 318.916 C 1185.863 315.294, 1183.019 309.438, 1181.688 305.903 C 1180.357 302.367, 1177.793 296.555, 1175.991 292.987 C 1174.189 289.419, 1171.698 283.515, 1170.456 279.866 C 1169.214 276.218, 1165.791 269.585, 1162.849 265.126 C 1159.907 260.668, 1155.025 253.162, 1152 248.446 C 1142.927 234.302, 1126.177 217.876, 1117.500 214.614 C 1093.565 205.617, 1092.017 201.699, 1105.401 183.985 C 1119.609 165.179, 1118.608 130.958, 1103.398 115.482 C 1099.604 111.623, 1094.104 105.652, 1091.175 102.215 C 1082.128 91.594, 1052.845 85.587, 1039.136 91.539 M 183.045 92.022 C 178.365 93.013, 175.249 94.800, 161.573 104.331 C 150.751 111.874, 147.495 112.412, 138.607 108.126 C 125.576 101.841, 120.768 104.673, 117.883 120.331 C 116.193 129.501, 117.523 133.578, 123.965 138.971 C 132.018 145.713, 131.647 150.006, 122.409 156.981 C 116.928 161.119, 115.286 164.175, 116.495 167.985 C 118.133 173.145, 125.161 172.309, 132.214 166.117 C 145.329 154.602, 160.856 154.971, 179.192 167.236 C 195.037 177.835, 196.385 184.694, 186.515 204.500 C 184.048 209.450, 181.124 217.165, 180.016 221.644 C 178.909 226.123, 176.409 233.142, 174.462 237.242 C 172.432 241.517, 170.083 248.866, 168.956 254.472 C 167.422 262.097, 166.250 265.264, 163.626 268.873 C 158.483 275.949, 149.872 290.338, 143.752 302.084 C 138.026 313.071, 137.549 314.911, 135.102 335.454 C 133.759 346.725, 130.738 353.091, 122.565 361.873 C 119.173 365.518, 114.206 371.650, 111.528 375.500 C 108.849 379.350, 103.697 385.455, 100.079 389.066 C 96.460 392.677, 92.978 396.727, 92.340 398.066 C 91.703 399.405, 89.135 404.788, 86.635 410.030 C 77.711 428.739, 76.289 454.055, 83.391 467.789 C 92.387 485.186, 99.073 489.150, 108.624 482.750 C 113.903 479.212, 114.012 479.061, 124.024 461.500 C 141.614 430.646, 148.098 424.626, 166.500 422.063 C 179.221 420.291, 192.799 429.671, 202.788 447.130 C 204.492 450.108, 207.093 453.659, 208.567 455.022 C 210.042 456.385, 214.453 461.325, 218.369 466 C 225.431 474.429, 239.104 488.993, 254.500 504.487 C 284.697 534.874, 290.146 542.670, 282.523 544.584 C 277.993 545.721, 258.445 541.350, 249.275 537.149 C 244.449 534.939, 236.705 532.170, 232.067 530.997 C 227.428 529.824, 219.778 527.299, 215.067 525.386 C 210.355 523.473, 202.696 521.011, 198.047 519.916 C 193.398 518.820, 185.748 516.197, 181.047 514.087 C 158.597 504.010, 147.216 503.444, 126.742 511.383 C 117.574 514.938, 106.859 518.205, 98.453 520.010 C 83.237 523.277, 75.791 526.659, 72.278 531.898 C 65.965 541.313, 73.442 546.195, 87 541.511 C 91.125 540.086, 99.491 537.857, 105.591 536.557 C 111.690 535.258, 120.168 532.798, 124.429 531.092 C 140.389 524.702, 150.215 524.663, 162.179 530.945 C 166.206 533.059, 172.875 535.788, 177 537.010 C 181.125 538.232, 187.916 540.949, 192.092 543.047 C 196.267 545.146, 202.470 547.585, 205.876 548.468 C 209.281 549.350, 215.765 551.708, 220.284 553.707 C 228.271 557.240, 228.813 557.336, 239.730 557.164 C 252.977 556.955, 268.202 560.054, 277.849 564.924 C 281.093 566.561, 288.191 569.031, 293.623 570.411 C 299.056 571.792, 306.304 574.064, 309.730 575.461 C 321.144 580.113, 326.750 578.452, 333.863 568.310 C 339.936 559.654, 348.265 554.473, 367.167 547.596 C 369.734 546.662, 373.910 544.071, 376.446 541.839 C 380.796 538.009, 384.417 535.916, 405 525.333 C 456.936 498.629, 476.058 442.076, 430.310 450.478 C 422.264 451.955, 415.899 447.878, 412.013 438.757 C 410.781 435.866, 408.273 431.395, 406.440 428.822 C 404.606 426.249, 401.913 421.749, 400.455 418.822 C 389.681 397.194, 353.964 357.420, 339.554 351.002 C 307.323 336.645, 310.122 317.082, 347 298.963 C 351.125 296.936, 356.700 293.881, 359.390 292.174 C 362.079 290.468, 367.769 287.909, 372.034 286.489 C 384.226 282.428, 396 272.529, 396 266.340 C 396 251.438, 366.406 237.578, 344.871 242.394 C 329.625 245.803, 317.802 251.007, 298.725 262.703 C 295.851 264.465, 291.299 267.165, 288.609 268.703 C 285.920 270.241, 280.970 273.414, 277.609 275.754 C 274.249 278.094, 268.655 281.352, 265.177 282.995 C 261.700 284.638, 256.300 287.970, 253.177 290.399 C 224.069 313.050, 209.236 294.573, 225.965 256.500 C 227.173 253.750, 229.245 246.617, 230.570 240.649 C 232.273 232.974, 233.993 228.127, 236.448 224.085 C 238.357 220.943, 241.134 214.126, 242.620 208.936 C 244.105 203.746, 246.634 196.575, 248.239 193 C 261.965 162.423, 258.900 130.322, 240.782 114.910 C 237.327 111.970, 231.185 106.465, 227.134 102.675 C 216.031 92.290, 200.027 88.423, 183.045 92.022 M 619 91.648 C 600.126 94.482, 581.807 103.293, 570.772 114.843 C 566.571 119.240, 560.741 124.622, 557.817 126.803 C 548.307 133.895, 534.553 153.106, 531.434 163.654 C 530.483 166.869, 528.354 173.775, 526.704 179 C 521.127 196.651, 522.476 210.896, 530.153 215.431 C 532.554 216.850, 724.177 218.308, 748.327 217.092 C 756.705 216.670, 757.846 207.189, 751.104 194.013 C 748.412 188.751, 744.148 177.980, 741.629 170.079 C 735.046 149.424, 729.791 141.995, 705.842 119.477 C 702.904 116.714, 698.475 112.075, 696 109.168 C 685.136 96.405, 646.244 87.556, 619 91.648 M 623 107.033 C 616.790 107.572, 612.749 108.580, 608 110.775 C 604.425 112.427, 598.457 114.715, 594.738 115.860 C 580.461 120.256, 565.759 132.608, 555.292 149 C 545.685 164.046, 541.689 185.521, 547.194 192.520 C 551.624 198.152, 549.168 198, 636 198 C 722.895 198, 720.372 198.157, 724.832 192.486 C 729.203 186.930, 725.699 163.170, 719.452 156 C 718.733 155.175, 716.696 151.579, 714.925 148.009 C 706.584 131.193, 698.757 123.936, 683.071 118.477 C 677.415 116.508, 670.473 113.599, 667.644 112.012 C 658.513 106.891, 643.681 105.236, 623 107.033 M 1047.500 107.406 C 1022.076 113.689, 1025.107 132.994, 1051.991 136.010 C 1072.062 138.261, 1080.104 146.715, 1076.358 161.627 C 1072.429 177.268, 1086.770 189.014, 1093.621 175.766 C 1102.997 157.635, 1097.070 125.899, 1082.490 116.166 C 1067.014 105.835, 1060.478 104.198, 1047.500 107.406 M 198.667 111.667 C 198.300 112.033, 198 114.024, 198 116.090 C 198 125.211, 190.513 128.346, 181.500 123 C 170.626 116.550, 163.521 120.844, 164.159 133.480 C 164.932 148.782, 176.130 154.554, 196.212 150.001 C 215.317 145.669, 220.767 151.300, 213.148 167.500 C 210.807 172.478, 209.575 176.955, 208.884 183 C 207.080 198.773, 206.045 203.480, 203.170 209 C 201.594 212.025, 199.286 217.650, 198.040 221.500 C 196.794 225.350, 194.277 231.875, 192.447 236 C 190.617 240.125, 187.801 248.360, 186.188 254.299 C 184.142 261.832, 182.348 266.228, 180.254 268.834 C 178.603 270.888, 176.112 274.804, 174.718 277.535 C 173.325 280.266, 169.939 285.285, 167.194 288.690 C 163.978 292.678, 161.479 297.124, 160.168 301.190 C 155.179 316.655, 151.722 331.049, 150.986 339.428 C 149.825 352.618, 141.016 365.171, 120.824 382.409 C 112.488 389.525, 109.386 394.045, 106.566 403.186 C 105.322 407.217, 102.634 413.742, 100.593 417.687 C 95.025 428.445, 93.327 452.217, 97.766 457.250 C 101.963 462.007, 109.150 458.273, 114.216 448.704 C 119.147 439.388, 146.136 412.827, 154.849 408.715 C 167.899 402.556, 176.515 403.714, 186.442 412.961 C 189.224 415.552, 193.633 419.115, 196.241 420.878 C 198.848 422.641, 203.400 427.102, 206.356 430.792 C 209.312 434.481, 212.745 438.400, 213.986 439.500 C 215.227 440.600, 218.775 445.314, 221.871 449.976 C 224.967 454.637, 230.211 461.387, 233.524 464.976 C 236.836 468.564, 241.325 473.750, 243.498 476.500 C 245.670 479.250, 250.835 485.153, 254.974 489.618 C 259.113 494.083, 264.525 499.956, 267 502.669 C 282.318 519.459, 293.856 520.656, 286.071 504.647 C 283.832 500.042, 282 495.848, 282 495.328 C 282 494.808, 280.457 491.819, 278.570 488.686 C 276.684 485.554, 274.188 480.446, 273.024 477.335 C 271.760 473.955, 268.944 469.531, 266.025 466.337 C 254.495 453.721, 252.848 435.076, 262.311 424.298 C 274.872 409.992, 292.941 405.474, 300.980 414.630 C 307.645 422.221, 304.622 426.008, 292.025 425.845 C 274.208 425.615, 265.513 454.446, 279.463 467.500 C 286.907 474.467, 296.170 486.279, 299.267 492.756 C 305.780 506.377, 311.361 510.101, 318.180 505.375 C 325.850 500.060, 329.204 502.089, 334.705 515.371 C 344.599 539.260, 358.870 539.340, 390.500 515.683 C 393.800 513.215, 399.337 510.048, 402.803 508.646 C 421.996 500.884, 444.863 473.743, 436.142 469.076 C 435.121 468.529, 430.733 468.147, 426.392 468.226 C 416.167 468.413, 413.635 467.047, 406.283 457.375 C 399.849 448.912, 393.923 439.100, 379.297 412.698 C 366.298 389.233, 352.104 372.113, 341.372 366.955 C 338.692 365.667, 334.025 362.279, 331 359.426 C 327.975 356.572, 322.767 352.868, 319.427 351.194 C 304.812 343.868, 297.671 331.280, 302.515 321.380 C 307.318 311.562, 333.011 287.182, 343.393 282.589 C 347.734 280.669, 354.857 276.290, 364.750 269.460 C 369.537 266.155, 365.899 259.822, 358.406 258.416 C 352.217 257.255, 322.180 265.308, 317.211 269.460 C 315.720 270.706, 311.800 273.213, 308.500 275.032 C 305.200 276.850, 299.271 280.399, 295.324 282.919 C 282.373 291.187, 276.643 294.384, 250.500 307.929 C 245.550 310.494, 239.700 313.850, 237.500 315.388 C 229.467 321.002, 215.932 314.746, 206.250 300.944 C 200.218 292.345, 201.362 273.727, 209.124 254.187 C 210.777 250.026, 213.274 241.872, 214.673 236.068 C 216.072 230.263, 218.475 223.020, 220.014 219.972 C 221.553 216.924, 223.816 211.070, 225.044 206.965 C 226.271 202.859, 229.220 195.675, 231.597 191 C 247.335 160.045, 241.303 121.490, 219.868 116.028 C 217.466 115.415, 212.505 114.034, 208.845 112.957 C 201.728 110.864, 199.723 110.610, 198.667 111.667 M 1035.953 160.134 C 1030.276 166.269, 1030.276 166.269, 1023.135 166.923 C 1005.220 168.565, 1009.366 183.968, 1029.356 190.040 C 1050.722 196.529, 1048.809 212.213, 1024.824 227.207 C 1023.321 228.146, 1019.034 229.847, 1015.296 230.988 C 1005.089 234.102, 993.741 241.109, 988.728 247.393 C 975.657 263.775, 967.839 273.168, 962.439 278.979 C 959.105 282.565, 954.313 288.219, 951.791 291.541 C 943.769 302.107, 935.051 308, 927.441 308 C 922.864 308, 923.414 315.128, 928.180 317.593 C 935.458 321.357, 941.464 318.638, 948.273 308.500 C 950.489 305.200, 955.047 299.544, 958.401 295.932 C 961.756 292.320, 966.750 286.508, 969.500 283.017 C 994.757 250.955, 1007.587 247.224, 1012.419 270.534 C 1013.327 274.915, 1015.225 283.450, 1016.637 289.500 C 1021.401 309.912, 1022.081 313.462, 1024.062 328.263 C 1025.148 336.383, 1027.155 347.633, 1028.522 353.263 C 1033.822 375.103, 1033.936 389.567, 1028.972 410.744 C 1020.951 444.971, 1027.180 448.802, 1067.500 434.436 C 1084.922 428.229, 1084.916 428.239, 1086.084 404.073 C 1086.551 394.408, 1087.405 381.775, 1087.983 376 C 1090.403 351.818, 1090.404 351.702, 1088.232 346.791 C 1085.350 340.277, 1079.755 335.136, 1070.055 330.089 C 1058.585 324.122, 1053.828 319.543, 1050.997 311.744 C 1049.352 307.215, 1047.462 304.322, 1044.115 301.212 C 1041.577 298.854, 1037.429 295.002, 1034.897 292.653 C 1024.369 282.881, 1030.252 270.018, 1044.637 271.355 C 1051.150 271.960, 1054.754 273.842, 1061.834 280.334 C 1064.950 283.191, 1068.970 286.572, 1070.767 287.845 C 1072.564 289.119, 1075.836 292.814, 1078.038 296.057 C 1086.038 307.837, 1093.478 307.142, 1098.443 294.150 C 1105.880 274.687, 1125.377 260.144, 1134.841 267 C 1144.022 273.650, 1147.418 263.908, 1139.547 253.500 C 1126.635 236.424, 1120.346 232.161, 1100.612 227.111 C 1072.463 219.907, 1070.977 218.537, 1062.148 191.628 C 1057.283 176.802, 1056 171.591, 1056 166.668 C 1056 159.210, 1054.411 156.486, 1049.221 155.044 C 1042.986 153.313, 1041.868 153.742, 1035.953 160.134 M 1117.917 289.866 C 1109.967 296.304, 1116.234 315.283, 1126.776 316.697 C 1137.870 318.185, 1139.645 314.468, 1133.957 301.656 C 1128.198 288.682, 1123.575 285.285, 1117.917 289.866 M 634.306 349.498 C 628.802 353.353, 628.924 350.681, 629.224 461.677 C 629.499 563.539, 629.506 563.863, 631.590 566.677 C 636.478 573.280, 642.203 572.777, 646 565.410 C 648.114 561.308, 648.279 360.701, 646.173 354.753 C 643.988 348.580, 638.859 346.309, 634.306 349.498 M 925.923 395.923 C 921.692 400.154, 921.853 406.107, 926.419 414.338 C 931.170 422.902, 936.967 443.873, 938.168 456.844 C 939.977 476.366, 947.564 479.862, 966.664 469.978 C 970.756 467.861, 976.941 465.184, 980.410 464.030 C 996.861 458.555, 995.719 450.959, 974.540 425 C 951.487 396.744, 934.976 386.870, 925.923 395.923 M 1065.500 453.092 C 1062.750 454.192, 1055.550 456.202, 1049.500 457.561 C 1043.450 458.919, 1035.173 461.607, 1031.106 463.534 C 1027.039 465.461, 1019.220 468.177, 1013.729 469.569 C 1008.239 470.960, 1001.216 473.364, 998.123 474.910 C 995.031 476.455, 989.350 478.731, 985.500 479.967 C 981.650 481.203, 975.575 483.934, 972 486.035 C 968.425 488.136, 962.800 490.606, 959.500 491.524 C 956.200 492.442, 950.575 494.906, 947 497 C 943.425 499.095, 937.766 501.784, 934.424 502.975 C 906.569 512.906, 912.572 536.408, 940.698 527.540 C 976.466 516.262, 1021.559 516.204, 1047.840 527.400 C 1078.652 540.527, 1093.605 519.694, 1087.615 471.985 C 1085.227 452.968, 1079.038 447.680, 1065.500 453.092 M 894.748 530.163 C 884.230 534.003, 896.726 553, 909.769 553 C 917.163 553, 922 551.590, 922 549.434 C 922 546.227, 904.896 530, 901.516 530 C 900.772 530, 899.564 529.811, 898.832 529.579 C 898.099 529.348, 896.262 529.611, 894.748 530.163 M 997.500 537.703 C 995.850 537.871, 986.625 538.381, 977 538.838 C 958.438 539.718, 954.188 540.815, 949.574 545.917 C 943.287 552.869, 999.863 551.926, 1014.663 544.833 C 1022.119 541.259, 1010.404 536.393, 997.500 537.703" stroke="none" fill="#f1f1f1" fill-rule="evenodd"/></svg>