<svg xmlns="http://www.w3.org/2000/svg" width="1272" height="711" viewBox="0 0 1272 711" version="1.1"><path d="M 258.754 104.084 C 253.644 105.289, 245.121 109.725, 235.231 116.329 C 230.683 119.365, 225.508 122.168, 223.731 122.556 C 221.954 122.945, 215.775 124.831, 210 126.747 C 197.960 130.741, 190.621 130.825, 181.210 127.076 C 178.345 125.934, 173.637 124.053, 170.750 122.896 C 155.722 116.874, 148 123.098, 148 141.233 C 148 149.160, 144.942 154.396, 137.106 159.887 C 124.386 168.801, 104.240 190.300, 102.482 196.838 C 97.229 216.364, 93.890 223.892, 87.209 231.269 C 78.943 240.397, 78.404 245.184, 84.162 258.347 C 89.536 270.631, 88.990 275.962, 81.369 285.642 C 70.096 299.959, 68.972 314.409, 76.985 341.993 C 79.409 350.338, 76.656 360.088, 69.404 368.849 C 58.545 381.966, 58.125 395.123, 68.133 408.680 C 78.075 422.148, 77.857 434.442, 67.489 445 C 55.233 457.482, 54.673 472.325, 66 484.500 C 74.742 493.897, 76.868 504.587, 72.131 515.333 C 65.483 530.412, 79.955 526.729, 87.156 511.509 C 91.666 501.974, 90.941 496.497, 83.973 487.466 C 75.150 476.029, 74.463 456.948, 82.495 446.417 C 92.262 433.613, 92.357 423.777, 82.837 411.167 C 72.340 397.265, 73.479 382.604, 86.463 364.507 C 95.167 352.376, 95.714 347.206, 90.141 329.751 C 83.463 308.831, 85.140 298.037, 97.462 282.650 C 100.574 278.764, 103.222 274.334, 103.583 272.410 C 104.214 269.046, 104.061 268.616, 98.526 258.150 C 93.402 248.464, 95.541 237.830, 104.651 227.685 C 112.874 218.528, 113.448 217.393, 116.562 204.111 C 119.644 190.967, 121.575 187.804, 129.565 182.808 C 142.615 174.647, 147.302 177.223, 148.248 193.076 C 149.386 212.159, 154.777 216.057, 169.670 208.564 C 197.469 194.579, 231.910 204.655, 240.612 229.318 C 243.209 236.679, 247.135 287.367, 250.035 351 C 250.624 363.925, 251.556 379.450, 252.105 385.500 C 255.308 420.781, 253.596 432.556, 243.627 443.795 C 241.820 445.833, 238.969 449.525, 237.293 452 C 233.358 457.810, 218.551 471.262, 209.150 477.569 C 187.510 492.087, 182.534 494.907, 174.941 496.956 C 145.612 504.869, 135 511.031, 135 520.146 C 135 529.206, 141.353 531.556, 163.299 530.613 C 172.210 530.231, 187.150 529.733, 196.500 529.508 C 213.982 529.088, 240.311 526.876, 251.927 524.851 C 256.205 524.106, 264.307 523.925, 275.130 524.333 C 306.055 525.499, 316.051 515.415, 308.524 490.646 C 303.377 473.706, 302.728 463.804, 302.325 396 C 301.618 277.157, 300.441 222.295, 298.452 215.473 C 296.195 207.732, 296.958 205.993, 308.551 192.442 C 331.039 166.155, 329.576 147.930, 302.767 120.377 C 291.384 108.677, 271.108 101.172, 258.754 104.084 M 1041 103.937 C 1026.707 106.819, 1004.517 132.630, 1000.062 151.556 C 998.903 156.475, 996.136 164.160, 993.911 168.634 C 988.819 178.873, 989.110 181.034, 997.091 192.252 C 1009.923 210.288, 1009.951 213.257, 997.368 221.427 C 995.095 222.902, 991.174 226.765, 988.654 230.010 C 986.134 233.254, 981.145 238.210, 977.566 241.023 C 973.987 243.835, 968.043 249.818, 964.356 254.318 C 946.966 275.547, 940.919 279.297, 932.425 274.117 C 924.989 269.583, 895 240.298, 895 237.571 C 895 234.957, 883.807 214.242, 880.021 209.848 C 864.949 192.358, 847.246 197.329, 854.955 216.887 C 856.031 219.616, 857.209 224.245, 857.572 227.174 C 858.592 235.384, 861.351 240.543, 868.894 248.339 C 872.704 252.278, 877.999 258.264, 880.660 261.641 C 883.322 265.019, 890.691 273.794, 897.036 281.141 C 903.381 288.489, 911.336 297.912, 914.714 302.083 C 928.662 319.305, 939.207 325.040, 948.300 320.349 C 956.542 316.097, 978.914 295.159, 984.788 286.199 C 993.603 272.754, 1001.020 284.532, 1006.073 320 C 1007.209 327.975, 1009.508 339.879, 1011.183 346.454 C 1014.674 360.161, 1014.634 361.383, 1010.020 381.784 C 1004.240 407.345, 1003.178 407.464, 981.872 384.936 C 955.763 357.328, 937.600 344.980, 923.145 345.009 C 900.392 345.055, 892.325 372.513, 903.489 411.904 C 909.727 433.909, 912.220 458.029, 908.750 462.793 C 902.685 471.119, 898.397 477.313, 892.716 485.953 C 883.019 500.700, 879.975 503.432, 871 505.443 C 854.600 509.116, 846.297 519.751, 853.088 528.385 C 859.076 535.997, 869.805 535.885, 895.855 527.939 C 903.547 525.592, 908.163 525.514, 917.988 527.564 C 927.366 529.520, 945.753 528.880, 978 525.475 C 1032.230 519.749, 1065.013 519.884, 1080.319 525.896 C 1103.599 535.040, 1135.417 535.563, 1140.066 526.877 C 1144.262 519.036, 1138.969 513.290, 1123.017 508.373 C 1092.390 498.933, 1088.891 494.776, 1092.605 472.239 C 1093.883 464.479, 1094.036 459.858, 1093.355 449.500 C 1086.370 343.267, 1092.238 330.472, 1138.795 350.419 C 1170.147 363.851, 1183.330 342.246, 1165.402 306.813 C 1164.098 304.236, 1161.921 299.179, 1160.565 295.576 C 1159.209 291.973, 1156.983 287.107, 1155.619 284.763 C 1154.256 282.418, 1152.025 277.519, 1150.662 273.877 C 1149.300 270.234, 1147.073 265.492, 1145.714 263.340 C 1144.356 261.187, 1141.776 256.518, 1139.982 252.963 C 1129.796 232.778, 1111.769 215.414, 1095.314 209.938 C 1084.130 206.216, 1083.622 202.813, 1092.476 190.919 C 1105.526 173.390, 1105.877 146.533, 1093.254 131.435 C 1090.065 127.621, 1085.321 121.712, 1082.711 118.305 C 1074.740 107.895, 1055.032 101.107, 1041 103.937 M 476.914 110.980 C 472.476 112.283, 469.221 114.981, 465.966 120.053 C 457.069 133.918, 450.542 134.140, 440.280 120.925 C 425.667 102.107, 417.807 106.538, 397.834 144.855 C 388.407 162.940, 401.417 166.930, 411.959 149.186 C 423.253 130.175, 427.624 129.515, 439.915 144.965 C 448.464 155.712, 454.723 155.014, 467 141.945 C 479.489 128.649, 480.236 128.644, 492.843 141.742 C 506.757 156.199, 510.213 156.290, 522.564 142.530 C 534.522 129.207, 536.735 129.133, 549.059 141.644 C 563.249 156.049, 569.877 155.906, 580.015 140.978 C 588.416 128.607, 594.260 128.899, 604.126 142.182 C 614.321 155.909, 621.464 156.150, 632.443 143.140 C 644.418 128.950, 649.054 128.916, 660.586 142.934 C 667.229 151.009, 671.469 153.510, 676.815 152.507 C 680.475 151.820, 682.198 150.305, 693.668 137.686 C 700.854 129.779, 706.379 130.167, 712.506 139.009 C 723.407 154.739, 731.220 155.972, 742.515 143.744 C 755.314 129.888, 759.321 130.724, 771.401 149.769 C 776.437 157.709, 780.785 160.773, 785.379 159.620 C 790.370 158.367, 789.397 149.754, 783.151 139.895 C 781.620 137.478, 778.663 132.256, 776.581 128.291 C 772.528 120.572, 764.875 112.509, 760.580 111.431 C 753.635 109.688, 750.880 111.423, 738.500 125.341 C 731.111 133.648, 725.402 132.456, 716.956 120.844 C 707.354 107.642, 698.438 107.406, 687.893 120.074 C 679.507 130.149, 678.452 131, 674.357 131 C 670.326 131, 671.114 131.690, 656.431 115.287 C 648.869 106.839, 639.550 108.412, 632.576 119.314 C 623.452 133.576, 617.052 134.196, 607.282 121.764 C 596.504 108.050, 586.651 107.808, 576.492 121.010 C 567.003 133.341, 560.285 133.414, 551.378 121.283 C 540.819 106.901, 534.525 106.842, 520.812 120.999 C 507.515 134.726, 507.064 134.695, 494.190 119.183 C 488.325 112.116, 482.487 109.344, 476.914 110.980 M 262.500 124.057 C 258.650 124.562, 252.197 125.391, 248.159 125.900 C 242.641 126.595, 239.662 127.591, 236.159 129.912 C 230.635 133.572, 217.522 140.068, 210.500 142.623 C 206.469 144.089, 202.244 144.463, 188.697 144.552 C 166.355 144.697, 167.611 143.492, 167.179 165.208 C 166.730 187.748, 167.843 189.223, 183.606 186.985 C 197.618 184.996, 217.130 189.603, 230.045 197.951 C 241.151 205.129, 258.253 207.826, 266.081 203.633 C 268.511 202.331, 275.622 198.533, 281.882 195.193 C 325.289 172.036, 310.501 117.762, 262.500 124.057 M 1038.735 125.481 C 1018.750 130.724, 1022.843 139.614, 1048.361 146.392 C 1060.878 149.717, 1064.757 151.579, 1067.174 155.420 C 1069.149 158.559, 1069.167 159.796, 1067.424 172.108 C 1065.692 184.346, 1076.482 190.226, 1082.309 180.220 C 1086.201 173.537, 1086.433 144.578, 1082.653 137.288 C 1076.657 125.722, 1057.473 120.565, 1038.735 125.481 M 1032.781 169.978 C 1029.661 172.917, 1027.115 174.278, 1023.029 175.189 C 1010.137 178.066, 1011.064 188.701, 1024.460 191.589 C 1049.936 197.081, 1044.294 215.694, 1012.342 231.564 C 988.445 243.434, 983.412 250.929, 999.300 250.986 C 1010.451 251.026, 1013.968 259.264, 1020.445 300.500 C 1022.894 316.094, 1024.844 326.563, 1028.546 344 C 1030.369 352.586, 1030.348 372.755, 1028.507 381 C 1020.863 415.232, 1022.380 417.554, 1047.500 410.083 C 1051.350 408.937, 1057.092 407.518, 1060.260 406.927 C 1071.395 404.853, 1073.682 401.232, 1075.042 383.530 C 1079.319 327.859, 1079.644 329.907, 1065 320.208 C 1050.976 310.920, 1049.493 309.607, 1045.882 303.279 C 1044.069 300.101, 1038.853 293.557, 1034.292 288.737 C 1025.295 279.228, 1024.229 276.326, 1027.449 270.099 C 1033.190 258.997, 1045.388 262.346, 1063.500 279.998 C 1078.483 294.599, 1081.446 294.996, 1086.475 283.071 C 1092.677 268.366, 1102.113 259.932, 1113.340 259.058 C 1133.148 257.515, 1109.924 229.113, 1086.262 225.943 C 1067.787 223.468, 1061.043 218.069, 1055.693 201.469 C 1054.280 197.086, 1052.211 191.025, 1051.095 188 C 1049.949 184.895, 1049.051 179.976, 1049.033 176.705 C 1048.970 165.652, 1040.914 162.317, 1032.781 169.978 M 268.500 227.386 C 261.601 230.392, 260.907 233.634, 262.562 255.107 C 263.299 264.673, 264.591 288.250, 265.433 307.500 C 267.124 346.148, 267.405 350.709, 269.651 375.851 C 273.396 417.789, 264.468 450.252, 246.208 461.090 C 244.168 462.300, 236.798 468.920, 229.830 475.801 C 222.157 483.377, 213.086 491.119, 206.830 495.429 C 187.067 509.047, 198.463 514.827, 234.757 509.595 C 251.068 507.244, 265.380 506.734, 276.600 508.106 C 294.852 510.336, 297.412 506.602, 291.035 487.049 C 285.036 468.658, 284.138 450.836, 283.102 329.500 C 282.403 247.647, 282.097 235.026, 280.734 231.830 C 278.326 226.183, 274.472 224.783, 268.500 227.386 M 416.526 298.252 C 408.548 306.489, 395.571 330.030, 395.531 336.338 C 395.461 347.407, 405.939 343.629, 413.764 329.764 C 416.735 324.499, 423.984 317, 426.102 317 C 429.263 317, 434.269 320.744, 437.627 325.620 C 446.738 338.848, 456.910 338.583, 467.710 324.836 C 477.322 312.602, 484.958 312.723, 493.298 325.242 C 502.082 338.427, 510.658 340.135, 518.712 330.303 C 533.579 312.154, 536.244 311.638, 548.431 324.546 C 560.598 337.433, 567.771 338.690, 575.727 329.329 C 591.070 311.275, 592.493 311.274, 607.297 329.319 C 616.274 340.262, 622.042 338.507, 638.833 319.725 C 645.261 312.534, 650.189 313.717, 659.067 324.581 C 671.793 340.156, 679.150 340.505, 689 326 C 697.967 312.796, 704.642 312.514, 714.285 324.931 C 724.989 338.715, 731.964 338.781, 744.592 325.218 C 755.439 313.567, 758.546 314.246, 769.734 330.716 C 786.061 354.752, 794.250 343.230, 779.429 317.075 C 764.549 290.815, 755.380 287.111, 743.758 302.664 C 732.303 317.993, 725.940 318.189, 716.546 303.505 C 707.779 289.799, 699.593 289.700, 688.363 303.164 C 677.155 316.602, 672.733 317.151, 663.276 306.279 C 660.099 302.627, 656.230 298.384, 654.678 296.851 C 648.899 291.142, 640.941 292.438, 634.903 300.072 C 620.481 318.304, 617.879 318.451, 603.815 301.827 C 593.480 289.611, 586.614 290.894, 574.487 307.309 C 567.148 317.242, 559.626 316.083, 550.466 303.608 C 540.376 289.866, 534.681 289.865, 521.441 303.601 C 508.643 316.880, 507.248 316.862, 494.388 303.250 C 481.355 289.454, 476.593 289.559, 465.824 303.878 C 454.941 318.350, 451.165 318.036, 437.575 301.526 C 429.174 291.321, 424.016 290.519, 416.526 298.252 M 940.309 373.433 C 934.763 375.903, 934.667 383.365, 940.046 394.066 C 943.367 400.675, 945.743 411.436, 946.575 423.638 C 947.763 441.049, 952.209 445.381, 963.782 440.400 C 965.827 439.520, 970.635 437.713, 974.467 436.386 C 994.369 429.490, 996.054 423.247, 982.808 405.483 C 964.069 380.352, 949.479 369.348, 940.309 373.433 M 1050.626 426.547 C 1045.745 428.458, 1038.269 430.910, 1034.013 431.997 C 1029.756 433.084, 1023.011 435.361, 1019.023 437.058 C 1015.035 438.755, 1007.661 441.412, 1002.636 442.962 C 970.866 452.764, 932 473.633, 932 480.891 C 932 489.985, 934.931 490.292, 966 484.460 C 997.793 478.491, 1019.368 479.534, 1048.500 488.448 C 1066.374 493.918, 1074.516 486.261, 1076.319 462.285 C 1078.991 426.745, 1072.651 417.927, 1050.626 426.547 M 419.664 479.826 C 411.236 485.552, 393.141 516.999, 394.745 523.132 C 396.727 530.710, 406.796 526.365, 413.047 515.234 C 422.290 498.776, 428.095 497.368, 438.047 509.171 C 448.836 521.965, 455.618 521.394, 469.512 506.520 C 479.845 495.460, 482.818 495.816, 493.959 509.450 C 504.711 522.608, 510.082 522.418, 523.512 508.408 C 535.683 495.713, 537.159 495.738, 549.515 508.853 C 561.389 521.458, 568.597 521.430, 579.119 508.738 C 589.850 495.794, 593.395 495.920, 604.872 509.656 C 615.142 521.947, 620.726 521.786, 633.097 508.845 C 645.785 495.571, 647.119 495.542, 659.330 508.283 C 673.903 523.488, 677.417 523.209, 692.309 505.672 C 699.138 497.630, 704.131 496.926, 709.662 503.226 C 725.345 521.091, 732.060 522.381, 743.505 509.729 C 754.822 497.220, 758.549 497.915, 769.524 514.579 C 781.145 532.226, 794.500 529.813, 785.367 511.717 C 767.342 476.001, 758.659 471.460, 741.990 489.030 C 730.570 501.067, 726.259 500.797, 715.924 487.401 C 706.130 474.707, 700.689 474.621, 689 486.977 C 675.729 501.006, 673.306 501.005, 659.990 486.970 C 648.428 474.784, 641.935 474.509, 633.608 485.853 C 622.675 500.747, 618.450 501.258, 607 489.071 C 594.791 476.075, 588.317 475.321, 578.968 485.803 C 570.473 495.326, 568.627 497.056, 566.339 497.630 C 561.323 498.889, 558.006 496.615, 546.854 484.272 C 538.322 474.827, 533.129 475.590, 521.109 488.052 C 508.818 500.796, 507.137 500.761, 494.425 487.500 C 481.484 474, 479.306 474.119, 465 489.105 C 453.392 501.264, 449.734 501.323, 440.992 489.490 C 433.477 479.317, 425.639 475.765, 419.664 479.826" stroke="none" fill="#999a9e" fill-rule="evenodd"/><path d="M 38.500 29.501 C 33.627 31.227, 30.412 34.755, 29.028 39.896 C 26.709 48.509, 28.186 670.966, 30.535 674.965 C 31.655 676.870, 34.130 679.345, 36.035 680.465 C 41.519 683.686, 1230.481 683.686, 1235.965 680.465 C 1244.356 675.535, 1243.500 712.471, 1243.500 355.500 C 1243.500 -1.471, 1244.356 35.465, 1235.965 30.535 C 1231.398 27.853, 46.044 26.829, 38.500 29.501 M 258.754 104.084 C 253.644 105.289, 245.121 109.725, 235.231 116.329 C 230.683 119.365, 225.508 122.168, 223.731 122.556 C 221.954 122.945, 215.775 124.831, 210 126.747 C 197.960 130.741, 190.621 130.825, 181.210 127.076 C 178.345 125.934, 173.637 124.053, 170.750 122.896 C 155.722 116.874, 148 123.098, 148 141.233 C 148 149.160, 144.942 154.396, 137.106 159.887 C 124.386 168.801, 104.240 190.300, 102.482 196.838 C 97.229 216.364, 93.890 223.892, 87.209 231.269 C 78.943 240.397, 78.404 245.184, 84.162 258.347 C 89.536 270.631, 88.990 275.962, 81.369 285.642 C 70.096 299.959, 68.972 314.409, 76.985 341.993 C 79.409 350.338, 76.656 360.088, 69.404 368.849 C 58.545 381.966, 58.125 395.123, 68.133 408.680 C 78.075 422.148, 77.857 434.442, 67.489 445 C 55.233 457.482, 54.673 472.325, 66 484.500 C 74.742 493.897, 76.868 504.587, 72.131 515.333 C 65.483 530.412, 79.955 526.729, 87.156 511.509 C 91.666 501.974, 90.941 496.497, 83.973 487.466 C 75.150 476.029, 74.463 456.948, 82.495 446.417 C 92.262 433.613, 92.357 423.777, 82.837 411.167 C 72.340 397.265, 73.479 382.604, 86.463 364.507 C 95.167 352.376, 95.714 347.206, 90.141 329.751 C 83.463 308.831, 85.140 298.037, 97.462 282.650 C 100.574 278.764, 103.222 274.334, 103.583 272.410 C 104.214 269.046, 104.061 268.616, 98.526 258.150 C 93.402 248.464, 95.541 237.830, 104.651 227.685 C 112.874 218.528, 113.448 217.393, 116.562 204.111 C 119.644 190.967, 121.575 187.804, 129.565 182.808 C 142.615 174.647, 147.302 177.223, 148.248 193.076 C 149.386 212.159, 154.777 216.057, 169.670 208.564 C 197.469 194.579, 231.910 204.655, 240.612 229.318 C 243.209 236.679, 247.135 287.367, 250.035 351 C 250.624 363.925, 251.556 379.450, 252.105 385.500 C 255.308 420.781, 253.596 432.556, 243.627 443.795 C 241.820 445.833, 238.969 449.525, 237.293 452 C 233.358 457.810, 218.551 471.262, 209.150 477.569 C 187.510 492.087, 182.534 494.907, 174.941 496.956 C 145.612 504.869, 135 511.031, 135 520.146 C 135 529.206, 141.353 531.556, 163.299 530.613 C 172.210 530.231, 187.150 529.733, 196.500 529.508 C 213.982 529.088, 240.311 526.876, 251.927 524.851 C 256.205 524.106, 264.307 523.925, 275.130 524.333 C 306.055 525.499, 316.051 515.415, 308.524 490.646 C 303.377 473.706, 302.728 463.804, 302.325 396 C 301.618 277.157, 300.441 222.295, 298.452 215.473 C 296.195 207.732, 296.958 205.993, 308.551 192.442 C 331.039 166.155, 329.576 147.930, 302.767 120.377 C 291.384 108.677, 271.108 101.172, 258.754 104.084 M 1041 103.937 C 1026.707 106.819, 1004.517 132.630, 1000.062 151.556 C 998.903 156.475, 996.136 164.160, 993.911 168.634 C 988.819 178.873, 989.110 181.034, 997.091 192.252 C 1009.923 210.288, 1009.951 213.257, 997.368 221.427 C 995.095 222.902, 991.174 226.765, 988.654 230.010 C 986.134 233.254, 981.145 238.210, 977.566 241.023 C 973.987 243.835, 968.043 249.818, 964.356 254.318 C 946.966 275.547, 940.919 279.297, 932.425 274.117 C 924.989 269.583, 895 240.298, 895 237.571 C 895 234.957, 883.807 214.242, 880.021 209.848 C 864.949 192.358, 847.246 197.329, 854.955 216.887 C 856.031 219.616, 857.209 224.245, 857.572 227.174 C 858.592 235.384, 861.351 240.543, 868.894 248.339 C 872.704 252.278, 877.999 258.264, 880.660 261.641 C 883.322 265.019, 890.691 273.794, 897.036 281.141 C 903.381 288.489, 911.336 297.912, 914.714 302.083 C 928.662 319.305, 939.207 325.040, 948.300 320.349 C 956.542 316.097, 978.914 295.159, 984.788 286.199 C 993.603 272.754, 1001.020 284.532, 1006.073 320 C 1007.209 327.975, 1009.508 339.879, 1011.183 346.454 C 1014.674 360.161, 1014.634 361.383, 1010.020 381.784 C 1004.240 407.345, 1003.178 407.464, 981.872 384.936 C 955.763 357.328, 937.600 344.980, 923.145 345.009 C 900.392 345.055, 892.325 372.513, 903.489 411.904 C 909.727 433.909, 912.220 458.029, 908.750 462.793 C 902.685 471.119, 898.397 477.313, 892.716 485.953 C 883.019 500.700, 879.975 503.432, 871 505.443 C 854.600 509.116, 846.297 519.751, 853.088 528.385 C 859.076 535.997, 869.805 535.885, 895.855 527.939 C 903.547 525.592, 908.163 525.514, 917.988 527.564 C 927.366 529.520, 945.753 528.880, 978 525.475 C 1032.230 519.749, 1065.013 519.884, 1080.319 525.896 C 1103.599 535.040, 1135.417 535.563, 1140.066 526.877 C 1144.262 519.036, 1138.969 513.290, 1123.017 508.373 C 1092.390 498.933, 1088.891 494.776, 1092.605 472.239 C 1093.883 464.479, 1094.036 459.858, 1093.355 449.500 C 1086.370 343.267, 1092.238 330.472, 1138.795 350.419 C 1170.147 363.851, 1183.330 342.246, 1165.402 306.813 C 1164.098 304.236, 1161.921 299.179, 1160.565 295.576 C 1159.209 291.973, 1156.983 287.107, 1155.619 284.763 C 1154.256 282.418, 1152.025 277.519, 1150.662 273.877 C 1149.300 270.234, 1147.073 265.492, 1145.714 263.340 C 1144.356 261.187, 1141.776 256.518, 1139.982 252.963 C 1129.796 232.778, 1111.769 215.414, 1095.314 209.938 C 1084.130 206.216, 1083.622 202.813, 1092.476 190.919 C 1105.526 173.390, 1105.877 146.533, 1093.254 131.435 C 1090.065 127.621, 1085.321 121.712, 1082.711 118.305 C 1074.740 107.895, 1055.032 101.107, 1041 103.937 M 476.914 110.980 C 472.476 112.283, 469.221 114.981, 465.966 120.053 C 457.069 133.918, 450.542 134.140, 440.280 120.925 C 425.667 102.107, 417.807 106.538, 397.834 144.855 C 388.407 162.940, 401.417 166.930, 411.959 149.186 C 423.253 130.175, 427.624 129.515, 439.915 144.965 C 448.464 155.712, 454.723 155.014, 467 141.945 C 479.489 128.649, 480.236 128.644, 492.843 141.742 C 506.757 156.199, 510.213 156.290, 522.564 142.530 C 534.522 129.207, 536.735 129.133, 549.059 141.644 C 563.249 156.049, 569.877 155.906, 580.015 140.978 C 588.416 128.607, 594.260 128.899, 604.126 142.182 C 614.321 155.909, 621.464 156.150, 632.443 143.140 C 644.418 128.950, 649.054 128.916, 660.586 142.934 C 667.229 151.009, 671.469 153.510, 676.815 152.507 C 680.475 151.820, 682.198 150.305, 693.668 137.686 C 700.854 129.779, 706.379 130.167, 712.506 139.009 C 723.407 154.739, 731.220 155.972, 742.515 143.744 C 755.314 129.888, 759.321 130.724, 771.401 149.769 C 776.437 157.709, 780.785 160.773, 785.379 159.620 C 790.370 158.367, 789.397 149.754, 783.151 139.895 C 781.620 137.478, 778.663 132.256, 776.581 128.291 C 772.528 120.572, 764.875 112.509, 760.580 111.431 C 753.635 109.688, 750.880 111.423, 738.500 125.341 C 731.111 133.648, 725.402 132.456, 716.956 120.844 C 707.354 107.642, 698.438 107.406, 687.893 120.074 C 679.507 130.149, 678.452 131, 674.357 131 C 670.326 131, 671.114 131.690, 656.431 115.287 C 648.869 106.839, 639.550 108.412, 632.576 119.314 C 623.452 133.576, 617.052 134.196, 607.282 121.764 C 596.504 108.050, 586.651 107.808, 576.492 121.010 C 567.003 133.341, 560.285 133.414, 551.378 121.283 C 540.819 106.901, 534.525 106.842, 520.812 120.999 C 507.515 134.726, 507.064 134.695, 494.190 119.183 C 488.325 112.116, 482.487 109.344, 476.914 110.980 M 262.500 124.057 C 258.650 124.562, 252.197 125.391, 248.159 125.900 C 242.641 126.595, 239.662 127.591, 236.159 129.912 C 230.635 133.572, 217.522 140.068, 210.500 142.623 C 206.469 144.089, 202.244 144.463, 188.697 144.552 C 166.355 144.697, 167.611 143.492, 167.179 165.208 C 166.730 187.748, 167.843 189.223, 183.606 186.985 C 197.618 184.996, 217.130 189.603, 230.045 197.951 C 241.151 205.129, 258.253 207.826, 266.081 203.633 C 268.511 202.331, 275.622 198.533, 281.882 195.193 C 325.289 172.036, 310.501 117.762, 262.500 124.057 M 1038.735 125.481 C 1018.750 130.724, 1022.843 139.614, 1048.361 146.392 C 1060.878 149.717, 1064.757 151.579, 1067.174 155.420 C 1069.149 158.559, 1069.167 159.796, 1067.424 172.108 C 1065.692 184.346, 1076.482 190.226, 1082.309 180.220 C 1086.201 173.537, 1086.433 144.578, 1082.653 137.288 C 1076.657 125.722, 1057.473 120.565, 1038.735 125.481 M 1032.781 169.978 C 1029.661 172.917, 1027.115 174.278, 1023.029 175.189 C 1010.137 178.066, 1011.064 188.701, 1024.460 191.589 C 1049.936 197.081, 1044.294 215.694, 1012.342 231.564 C 988.445 243.434, 983.412 250.929, 999.300 250.986 C 1010.451 251.026, 1013.968 259.264, 1020.445 300.500 C 1022.894 316.094, 1024.844 326.563, 1028.546 344 C 1030.369 352.586, 1030.348 372.755, 1028.507 381 C 1020.863 415.232, 1022.380 417.554, 1047.500 410.083 C 1051.350 408.937, 1057.092 407.518, 1060.260 406.927 C 1071.395 404.853, 1073.682 401.232, 1075.042 383.530 C 1079.319 327.859, 1079.644 329.907, 1065 320.208 C 1050.976 310.920, 1049.493 309.607, 1045.882 303.279 C 1044.069 300.101, 1038.853 293.557, 1034.292 288.737 C 1025.295 279.228, 1024.229 276.326, 1027.449 270.099 C 1033.190 258.997, 1045.388 262.346, 1063.500 279.998 C 1078.483 294.599, 1081.446 294.996, 1086.475 283.071 C 1092.677 268.366, 1102.113 259.932, 1113.340 259.058 C 1133.148 257.515, 1109.924 229.113, 1086.262 225.943 C 1067.787 223.468, 1061.043 218.069, 1055.693 201.469 C 1054.280 197.086, 1052.211 191.025, 1051.095 188 C 1049.949 184.895, 1049.051 179.976, 1049.033 176.705 C 1048.970 165.652, 1040.914 162.317, 1032.781 169.978 M 268.500 227.386 C 261.601 230.392, 260.907 233.634, 262.562 255.107 C 263.299 264.673, 264.591 288.250, 265.433 307.500 C 267.124 346.148, 267.405 350.709, 269.651 375.851 C 273.396 417.789, 264.468 450.252, 246.208 461.090 C 244.168 462.300, 236.798 468.920, 229.830 475.801 C 222.157 483.377, 213.086 491.119, 206.830 495.429 C 187.067 509.047, 198.463 514.827, 234.757 509.595 C 251.068 507.244, 265.380 506.734, 276.600 508.106 C 294.852 510.336, 297.412 506.602, 291.035 487.049 C 285.036 468.658, 284.138 450.836, 283.102 329.500 C 282.403 247.647, 282.097 235.026, 280.734 231.830 C 278.326 226.183, 274.472 224.783, 268.500 227.386 M 416.526 298.252 C 408.548 306.489, 395.571 330.030, 395.531 336.338 C 395.461 347.407, 405.939 343.629, 413.764 329.764 C 416.735 324.499, 423.984 317, 426.102 317 C 429.263 317, 434.269 320.744, 437.627 325.620 C 446.738 338.848, 456.910 338.583, 467.710 324.836 C 477.322 312.602, 484.958 312.723, 493.298 325.242 C 502.082 338.427, 510.658 340.135, 518.712 330.303 C 533.579 312.154, 536.244 311.638, 548.431 324.546 C 560.598 337.433, 567.771 338.690, 575.727 329.329 C 591.070 311.275, 592.493 311.274, 607.297 329.319 C 616.274 340.262, 622.042 338.507, 638.833 319.725 C 645.261 312.534, 650.189 313.717, 659.067 324.581 C 671.793 340.156, 679.150 340.505, 689 326 C 697.967 312.796, 704.642 312.514, 714.285 324.931 C 724.989 338.715, 731.964 338.781, 744.592 325.218 C 755.439 313.567, 758.546 314.246, 769.734 330.716 C 786.061 354.752, 794.250 343.230, 779.429 317.075 C 764.549 290.815, 755.380 287.111, 743.758 302.664 C 732.303 317.993, 725.940 318.189, 716.546 303.505 C 707.779 289.799, 699.593 289.700, 688.363 303.164 C 677.155 316.602, 672.733 317.151, 663.276 306.279 C 660.099 302.627, 656.230 298.384, 654.678 296.851 C 648.899 291.142, 640.941 292.438, 634.903 300.072 C 620.481 318.304, 617.879 318.451, 603.815 301.827 C 593.480 289.611, 586.614 290.894, 574.487 307.309 C 567.148 317.242, 559.626 316.083, 550.466 303.608 C 540.376 289.866, 534.681 289.865, 521.441 303.601 C 508.643 316.880, 507.248 316.862, 494.388 303.250 C 481.355 289.454, 476.593 289.559, 465.824 303.878 C 454.941 318.350, 451.165 318.036, 437.575 301.526 C 429.174 291.321, 424.016 290.519, 416.526 298.252 M 940.309 373.433 C 934.763 375.903, 934.667 383.365, 940.046 394.066 C 943.367 400.675, 945.743 411.436, 946.575 423.638 C 947.763 441.049, 952.209 445.381, 963.782 440.400 C 965.827 439.520, 970.635 437.713, 974.467 436.386 C 994.369 429.490, 996.054 423.247, 982.808 405.483 C 964.069 380.352, 949.479 369.348, 940.309 373.433 M 1050.626 426.547 C 1045.745 428.458, 1038.269 430.910, 1034.013 431.997 C 1029.756 433.084, 1023.011 435.361, 1019.023 437.058 C 1015.035 438.755, 1007.661 441.412, 1002.636 442.962 C 970.866 452.764, 932 473.633, 932 480.891 C 932 489.985, 934.931 490.292, 966 484.460 C 997.793 478.491, 1019.368 479.534, 1048.500 488.448 C 1066.374 493.918, 1074.516 486.261, 1076.319 462.285 C 1078.991 426.745, 1072.651 417.927, 1050.626 426.547 M 419.664 479.826 C 411.236 485.552, 393.141 516.999, 394.745 523.132 C 396.727 530.710, 406.796 526.365, 413.047 515.234 C 422.290 498.776, 428.095 497.368, 438.047 509.171 C 448.836 521.965, 455.618 521.394, 469.512 506.520 C 479.845 495.460, 482.818 495.816, 493.959 509.450 C 504.711 522.608, 510.082 522.418, 523.512 508.408 C 535.683 495.713, 537.159 495.738, 549.515 508.853 C 561.389 521.458, 568.597 521.430, 579.119 508.738 C 589.850 495.794, 593.395 495.920, 604.872 509.656 C 615.142 521.947, 620.726 521.786, 633.097 508.845 C 645.785 495.571, 647.119 495.542, 659.330 508.283 C 673.903 523.488, 677.417 523.209, 692.309 505.672 C 699.138 497.630, 704.131 496.926, 709.662 503.226 C 725.345 521.091, 732.060 522.381, 743.505 509.729 C 754.822 497.220, 758.549 497.915, 769.524 514.579 C 781.145 532.226, 794.500 529.813, 785.367 511.717 C 767.342 476.001, 758.659 471.460, 741.990 489.030 C 730.570 501.067, 726.259 500.797, 715.924 487.401 C 706.130 474.707, 700.689 474.621, 689 486.977 C 675.729 501.006, 673.306 501.005, 659.990 486.970 C 648.428 474.784, 641.935 474.509, 633.608 485.853 C 622.675 500.747, 618.450 501.258, 607 489.071 C 594.791 476.075, 588.317 475.321, 578.968 485.803 C 570.473 495.326, 568.627 497.056, 566.339 497.630 C 561.323 498.889, 558.006 496.615, 546.854 484.272 C 538.322 474.827, 533.129 475.590, 521.109 488.052 C 508.818 500.796, 507.137 500.761, 494.425 487.500 C 481.484 474, 479.306 474.119, 465 489.105 C 453.392 501.264, 449.734 501.323, 440.992 489.490 C 433.477 479.317, 425.639 475.765, 419.664 479.826" stroke="none" fill="#f4f4f4" fill-rule="evenodd"/></svg>