<svg xmlns="http://www.w3.org/2000/svg" width="1272" height="868" viewBox="0 0 1272 868" version="1.1"><path d="M 352.930 98.986 C 344.944 101.017, 316.914 112.983, 311.403 116.715 C 284.224 135.116, 246.237 136.499, 224.237 119.889 C 205.894 106.040, 197.601 113.661, 197.456 144.500 C 197.347 167.573, 196.220 169.385, 175.199 180.307 C 148.476 194.192, 134.740 210.806, 127.500 238 C 123.460 253.174, 120.526 258.705, 110.516 270.015 C 93.728 288.984, 91.371 300.813, 99.965 322.962 C 106.760 340.476, 106.489 342.463, 94.974 359.500 C 81.391 379.597, 79.717 390.882, 86.112 419.256 C 91.232 441.976, 92.116 453.966, 89.265 462.024 C 87.300 467.577, 85.728 470.219, 77.524 481.760 C 64.735 499.751, 65.661 523.997, 80.096 549.055 C 88.747 564.075, 89.106 573.524, 81.434 584.283 C 66.949 604.592, 64.662 610.017, 64.689 624 C 64.717 638.198, 66.289 641.836, 81.249 662.320 C 87.500 670.878, 87.500 680.222, 81.250 693.592 C 70.588 716.399, 84.445 726.248, 101.411 707.923 C 115.525 692.678, 116.817 665.541, 104.299 647.262 C 92.575 630.141, 92.390 619.401, 103.504 601.025 C 116.195 580.040, 116.225 558.374, 103.589 537.500 C 92.264 518.790, 92.414 505.195, 104.122 489.335 C 118.389 470.008, 120.887 455.640, 114.264 431 C 105.607 398.791, 107.029 388.484, 123.528 363.855 C 137.408 343.135, 137.872 339.029, 128.442 320.427 C 119.318 302.430, 119.724 300.321, 136.501 278.601 C 146.808 265.257, 148.084 262.601, 151.361 247.676 C 156.105 226.060, 171.954 208, 186.179 208 C 195.411 208, 196.800 211.147, 197.208 233 C 197.752 262.054, 206.613 270.023, 222.515 255.756 C 239.695 240.341, 282.169 239.640, 303.764 254.414 C 306.369 256.196, 311.536 259.345, 315.247 261.411 C 329.406 269.297, 331.858 275.698, 333.089 308 C 333.561 320.375, 334.407 332.525, 334.970 335 C 335.533 337.475, 336.430 349.400, 336.963 361.500 C 337.496 373.600, 338.621 387.550, 339.462 392.500 C 340.303 397.450, 341.431 412.211, 341.968 425.302 C 342.506 438.393, 343.202 449.518, 343.516 450.025 C 344.097 450.965, 345.728 491.847, 346.675 529.202 C 347.399 557.715, 346.107 563.896, 335.020 585 C 330.241 594.096, 328.120 596.438, 304.984 618.159 C 287.806 634.286, 283.033 638.325, 277.212 641.658 C 274.621 643.142, 269.125 646.690, 265 649.543 C 260.875 652.396, 254.350 656.522, 250.500 658.711 C 246.650 660.900, 241.240 664.114, 238.478 665.853 C 235.267 667.875, 229.679 669.931, 222.978 671.556 C 185.658 680.605, 174.946 687.518, 175.028 702.500 C 175.096 714.945, 184.299 720.691, 202.420 719.601 C 208.514 719.234, 226.100 718.544, 241.500 718.066 C 263.756 717.376, 271.449 716.770, 279 715.115 C 286.291 713.516, 292.104 713.023, 304 712.996 C 312.525 712.976, 325.575 712.303, 333 711.500 C 348.241 709.851, 370.796 709.629, 382 711.017 C 405.359 713.910, 413.171 712.825, 421.731 705.498 C 436.729 692.661, 436.508 685.048, 419.174 617.500 C 416.608 607.500, 416.608 607.500, 415.931 455.500 C 415.495 357.650, 414.883 301.362, 414.211 297.500 C 413.638 294.200, 413.131 287.030, 413.084 281.568 C 413.038 276.105, 412.499 267.730, 411.887 262.957 C 410.442 251.687, 410.867 250.819, 425.542 235.127 C 453.392 205.347, 457.449 171.269, 437.636 133.527 C 430.759 120.428, 414.563 109.390, 389.806 100.930 C 382.759 98.521, 359.565 97.299, 352.930 98.986 M 673.358 102.979 C 667.688 104.286, 663.451 107.810, 653.929 119.138 C 637.094 139.165, 635.124 139.202, 619.198 119.790 C 601.079 97.703, 586.749 97.802, 575.454 120.090 C 574.056 122.849, 569.868 129.965, 566.148 135.904 C 550.173 161.404, 546.251 173.486, 551.610 180.691 C 558.102 189.419, 570.548 180.083, 584.373 156.115 C 595.140 137.447, 603.287 139.623, 621.922 166.142 C 631.123 179.235, 643.882 176.240, 657.838 157.711 C 673.208 137.302, 679.531 136.910, 693.473 155.500 C 712.728 181.174, 721.603 180.588, 742.014 152.297 C 753.186 136.812, 762.489 138.747, 776.700 159.512 C 790.559 179.761, 801.339 179.581, 816.637 158.844 C 832.934 136.752, 840.028 136.691, 856.641 158.500 C 873.874 181.123, 880.318 180.533, 900.260 154.500 C 912.036 139.127, 919.882 139.011, 931.495 154.037 C 952.036 180.615, 958.957 180.696, 979.382 154.602 C 993.765 136.228, 999.336 136.843, 1015.595 158.599 C 1031.880 180.389, 1041.048 180.134, 1058.251 157.416 C 1072.167 139.037, 1079.234 140.291, 1092.988 163.575 C 1100.379 176.090, 1102.504 178.574, 1108.278 181.451 C 1128.053 191.305, 1127.999 169.476, 1108.176 140.253 C 1106.030 137.089, 1102.805 131.575, 1101.009 128 C 1085.184 96.489, 1072.941 94.258, 1054.089 119.450 C 1038.793 139.889, 1034.704 139.863, 1018.255 119.218 C 1002.543 99.497, 990.718 98.426, 977.178 115.500 C 958.148 139.495, 953.789 140.193, 939.723 121.500 C 921.307 97.026, 909.622 96.103, 894.750 117.946 C 879.574 140.234, 873.183 140.628, 859.151 120.140 C 850.334 107.267, 844.594 103, 836.097 103 C 827.820 103, 825.674 104.625, 812.875 120.585 C 807.986 126.682, 802.976 132.166, 801.743 132.772 C 794.130 136.514, 790.094 134.749, 782.473 124.348 C 771.044 108.748, 769.449 106.832, 766.227 104.836 C 757.965 99.717, 746.221 103.909, 737.500 115.090 C 719.450 138.231, 713.896 139.454, 701.733 122.963 C 689.072 105.796, 682.183 100.944, 673.358 102.979 M 354.941 128.917 C 337.202 132.571, 330.257 134.963, 320.202 140.881 C 315.638 143.567, 309.788 146.518, 307.202 147.438 C 304.616 148.359, 297.957 150.850, 292.404 152.975 C 277.710 158.598, 272.343 159.418, 256.200 158.505 C 223.297 156.644, 223.968 155.977, 224.481 190 C 224.885 216.813, 226.756 219.276, 244.966 216.955 C 269.144 213.874, 298.811 220.402, 318.059 233.039 C 326.899 238.843, 331.730 240.845, 345.553 244.438 C 360.544 248.334, 362.375 247.924, 373.296 238.220 C 378.474 233.619, 382.449 231.186, 389.995 228.002 C 411.119 219.089, 421.818 203.582, 422.772 180.500 C 424.431 140.330, 397.812 120.087, 354.941 128.917 M 372.500 276.014 C 358.143 282.084, 353.363 304.146, 360.478 331.500 C 361.423 335.133, 362.421 345.843, 363.009 358.647 C 363.542 370.278, 364.453 382.878, 365.032 386.647 C 366.054 393.298, 367.132 417.675, 368.959 475.500 C 369.446 490.900, 370.368 506.875, 371.009 511 C 374.287 532.112, 370.469 571.674, 363.964 584 C 362.368 587.025, 358.475 594.675, 355.314 601 C 349.078 613.475, 347.925 614.814, 326.025 635 C 310.096 649.683, 297.203 660.174, 290.346 664.033 C 259.492 681.398, 263.545 687.708, 304.807 686.552 C 318.388 686.172, 345.109 685.554, 364.186 685.180 C 409.595 684.290, 408.473 685.117, 403.077 656.500 C 401.417 647.700, 398.893 637.125, 397.467 633 C 391.347 615.297, 391.733 625.888, 390.950 454 C 390.056 257.871, 391.120 268.141, 372.500 276.014 M 670.637 369.453 C 665.646 371.247, 662.619 374.180, 652.369 387.151 C 636.807 406.843, 634.012 406.727, 618.181 385.740 C 603.411 366.158, 595.884 363.979, 583.055 375.569 C 578.653 379.547, 578.160 380.319, 567.489 400 C 563.761 406.875, 559.255 414.773, 557.477 417.551 C 549.233 430.429, 547.746 439.147, 552.664 445.763 C 558.775 453.986, 566.975 447.939, 583.861 422.756 C 595.429 405.503, 601.646 406.861, 620.378 430.728 C 631.845 445.339, 642.502 443.662, 656.961 424.972 C 672.981 404.263, 679.296 403.914, 694.002 422.924 C 712.269 446.537, 719.092 445.944, 742.416 418.717 C 755.388 403.575, 761.526 404.951, 777.817 426.648 C 791.960 445.485, 801.684 444.932, 818.069 424.359 C 833.886 404.501, 840.142 403.779, 852.706 420.363 C 873.946 448.397, 880.336 448.458, 900.669 420.822 C 912.959 404.118, 920.356 405.066, 935.288 425.257 C 944.100 437.173, 951.782 441.985, 959.707 440.554 C 963.693 439.834, 966.258 437.396, 980.178 421.099 C 994.368 404.486, 998.733 404.775, 1013.572 423.314 C 1032.418 446.858, 1039.072 446.926, 1057.848 423.767 C 1072.623 405.543, 1077.258 406.325, 1092.631 429.635 C 1102.729 444.946, 1111.310 451.969, 1118.098 450.478 C 1128.250 448.249, 1123.968 428.983, 1108.394 406.822 C 1106.586 404.249, 1103.907 399.749, 1102.442 396.822 C 1085.403 362.790, 1072.060 360.231, 1052.806 387.304 C 1038.639 407.223, 1033.576 407.586, 1020.716 389.605 C 1012.105 377.566, 1010.347 375.487, 1006.453 372.751 C 994.793 364.556, 987.342 367.810, 972.381 387.630 C 957.701 407.077, 953.545 407.124, 939.794 388 C 921.288 362.263, 909.492 362.181, 892.357 387.669 C 879.822 406.315, 872.891 406.223, 859.966 387.241 C 843.441 362.970, 832.545 362.344, 815.500 384.686 C 799.956 405.061, 792.934 407.110, 784.300 393.789 C 764.149 362.702, 751.612 361.066, 733.343 387.137 C 719.830 406.422, 712.279 406.697, 699.902 388.354 C 688.612 371.624, 680.026 366.078, 670.637 369.453 M 671.728 636.316 C 666.104 638.082, 661.848 641.978, 652.940 653.517 C 636.592 674.694, 634.569 674.247, 612.113 644.500 C 606.090 636.521, 596.439 634.760, 587.340 639.978 C 581.760 643.178, 579.800 645.512, 574.046 655.799 C 571.985 659.485, 568.261 665.875, 565.770 670 C 548.547 698.528, 546.040 706.307, 551.423 714.522 C 556.980 723.004, 566.080 717.340, 579.534 697.026 C 596.260 671.771, 600.910 671.652, 619.485 696 C 631.426 711.653, 642.286 711.037, 655.495 693.958 C 674.153 669.835, 679.078 669.705, 696.961 692.865 C 713.831 714.711, 720.379 713.719, 742.275 686 C 754.364 670.696, 761.789 672.050, 776.096 692.166 C 791.234 713.450, 800.681 713.425, 816.962 692.057 C 828.456 676.971, 834.985 673.001, 842.465 676.550 C 846.039 678.246, 848.339 680.792, 860.393 696.389 C 873.709 713.617, 882.414 711.897, 899.943 688.575 C 912.722 671.574, 919.682 671.771, 932.957 689.512 C 950.428 712.858, 959.279 713.476, 975.770 692.500 C 993.558 669.874, 998.596 669.621, 1014.477 690.555 C 1032.117 713.807, 1040.990 713.659, 1059.144 689.811 C 1071.603 673.444, 1079.632 675.167, 1093.113 697.104 C 1104.998 716.445, 1120.198 724.020, 1124.001 712.497 C 1125.714 707.306, 1117.413 686.862, 1107.911 672.868 C 1105.659 669.553, 1102.901 664.738, 1101.782 662.170 C 1088.372 631.396, 1070.657 627.696, 1054.328 652.259 C 1039.742 674.199, 1033.090 674.221, 1018.255 652.375 C 1004.978 632.825, 990.016 631.511, 977.276 648.777 C 958.698 673.955, 954.201 674.700, 939.725 655 C 920.794 629.236, 908.821 629.053, 892.684 654.280 C 880.822 672.823, 871.838 672.384, 858.547 652.612 C 850.852 641.166, 844.838 637, 836.010 637 C 827.857 637, 824.333 639.504, 813.507 652.992 C 797.040 673.505, 794.239 673.422, 777.975 651.938 C 761.190 629.766, 750.259 630.132, 733.045 653.440 C 718.932 672.548, 711.913 672.452, 698.798 652.970 C 689.004 638.421, 680.903 633.437, 671.728 636.316" stroke="none" fill="#949598" fill-rule="evenodd"/><path d="M 38.500 29.501 C 33.628 31.227, 30.412 34.755, 29.029 39.891 C 26.706 48.518, 28.188 827.970, 30.535 831.965 C 31.655 833.870, 34.130 836.345, 36.035 837.465 C 41.519 840.686, 1230.481 840.686, 1235.965 837.465 C 1237.870 836.345, 1240.345 833.870, 1241.465 831.965 C 1244.685 826.483, 1244.685 41.517, 1241.465 36.035 C 1240.345 34.130, 1237.870 31.655, 1235.965 30.535 C 1231.398 27.853, 46.044 26.829, 38.500 29.501 M 352.930 98.986 C 344.944 101.017, 316.914 112.983, 311.403 116.715 C 284.224 135.116, 246.237 136.499, 224.237 119.889 C 205.894 106.040, 197.601 113.661, 197.456 144.500 C 197.347 167.573, 196.220 169.385, 175.199 180.307 C 148.476 194.192, 134.740 210.806, 127.500 238 C 123.460 253.174, 120.526 258.705, 110.516 270.015 C 93.728 288.984, 91.371 300.813, 99.965 322.962 C 106.760 340.476, 106.489 342.463, 94.974 359.500 C 81.391 379.597, 79.717 390.882, 86.112 419.256 C 91.232 441.976, 92.116 453.966, 89.265 462.024 C 87.300 467.577, 85.728 470.219, 77.524 481.760 C 64.735 499.751, 65.661 523.997, 80.096 549.055 C 88.747 564.075, 89.106 573.524, 81.434 584.283 C 66.949 604.592, 64.662 610.017, 64.689 624 C 64.717 638.198, 66.289 641.836, 81.249 662.320 C 87.500 670.878, 87.500 680.222, 81.250 693.592 C 70.588 716.399, 84.445 726.248, 101.411 707.923 C 115.525 692.678, 116.817 665.541, 104.299 647.262 C 92.575 630.141, 92.390 619.401, 103.504 601.025 C 116.195 580.040, 116.225 558.374, 103.589 537.500 C 92.264 518.790, 92.414 505.195, 104.122 489.335 C 118.389 470.008, 120.887 455.640, 114.264 431 C 105.607 398.791, 107.029 388.484, 123.528 363.855 C 137.408 343.135, 137.872 339.029, 128.442 320.427 C 119.318 302.430, 119.724 300.321, 136.501 278.601 C 146.808 265.257, 148.084 262.601, 151.361 247.676 C 156.105 226.060, 171.954 208, 186.179 208 C 195.411 208, 196.800 211.147, 197.208 233 C 197.752 262.054, 206.613 270.023, 222.515 255.756 C 239.695 240.341, 282.169 239.640, 303.764 254.414 C 306.369 256.196, 311.536 259.345, 315.247 261.411 C 329.406 269.297, 331.858 275.698, 333.089 308 C 333.561 320.375, 334.407 332.525, 334.970 335 C 335.533 337.475, 336.430 349.400, 336.963 361.500 C 337.496 373.600, 338.621 387.550, 339.462 392.500 C 340.303 397.450, 341.431 412.211, 341.968 425.302 C 342.506 438.393, 343.202 449.518, 343.516 450.025 C 344.097 450.965, 345.728 491.847, 346.675 529.202 C 347.399 557.715, 346.107 563.896, 335.020 585 C 330.241 594.096, 328.120 596.438, 304.984 618.159 C 287.806 634.286, 283.033 638.325, 277.212 641.658 C 274.621 643.142, 269.125 646.690, 265 649.543 C 260.875 652.396, 254.350 656.522, 250.500 658.711 C 246.650 660.900, 241.240 664.114, 238.478 665.853 C 235.267 667.875, 229.679 669.931, 222.978 671.556 C 185.658 680.605, 174.946 687.518, 175.028 702.500 C 175.096 714.945, 184.299 720.691, 202.420 719.601 C 208.514 719.234, 226.100 718.544, 241.500 718.066 C 263.756 717.376, 271.449 716.770, 279 715.115 C 286.291 713.516, 292.104 713.023, 304 712.996 C 312.525 712.976, 325.575 712.303, 333 711.500 C 348.241 709.851, 370.796 709.629, 382 711.017 C 405.359 713.910, 413.171 712.825, 421.731 705.498 C 436.729 692.661, 436.508 685.048, 419.174 617.500 C 416.608 607.500, 416.608 607.500, 415.931 455.500 C 415.495 357.650, 414.883 301.362, 414.211 297.500 C 413.638 294.200, 413.131 287.030, 413.084 281.568 C 413.038 276.105, 412.499 267.730, 411.887 262.957 C 410.442 251.687, 410.867 250.819, 425.542 235.127 C 453.392 205.347, 457.449 171.269, 437.636 133.527 C 430.759 120.428, 414.563 109.390, 389.806 100.930 C 382.759 98.521, 359.565 97.299, 352.930 98.986 M 673.358 102.979 C 667.688 104.286, 663.451 107.810, 653.929 119.138 C 637.094 139.165, 635.124 139.202, 619.198 119.790 C 601.079 97.703, 586.749 97.802, 575.454 120.090 C 574.056 122.849, 569.868 129.965, 566.148 135.904 C 550.173 161.404, 546.251 173.486, 551.610 180.691 C 558.102 189.419, 570.548 180.083, 584.373 156.115 C 595.140 137.447, 603.287 139.623, 621.922 166.142 C 631.123 179.235, 643.882 176.240, 657.838 157.711 C 673.208 137.302, 679.531 136.910, 693.473 155.500 C 712.728 181.174, 721.603 180.588, 742.014 152.297 C 753.186 136.812, 762.489 138.747, 776.700 159.512 C 790.559 179.761, 801.339 179.581, 816.637 158.844 C 832.934 136.752, 840.028 136.691, 856.641 158.500 C 873.874 181.123, 880.318 180.533, 900.260 154.500 C 912.036 139.127, 919.882 139.011, 931.495 154.037 C 952.036 180.615, 958.957 180.696, 979.382 154.602 C 993.765 136.228, 999.336 136.843, 1015.595 158.599 C 1031.880 180.389, 1041.048 180.134, 1058.251 157.416 C 1072.167 139.037, 1079.234 140.291, 1092.988 163.575 C 1100.379 176.090, 1102.504 178.574, 1108.278 181.451 C 1128.053 191.305, 1127.999 169.476, 1108.176 140.253 C 1106.030 137.089, 1102.805 131.575, 1101.009 128 C 1085.184 96.489, 1072.941 94.258, 1054.089 119.450 C 1038.793 139.889, 1034.704 139.863, 1018.255 119.218 C 1002.543 99.497, 990.718 98.426, 977.178 115.500 C 958.148 139.495, 953.789 140.193, 939.723 121.500 C 921.307 97.026, 909.622 96.103, 894.750 117.946 C 879.574 140.234, 873.183 140.628, 859.151 120.140 C 850.334 107.267, 844.594 103, 836.097 103 C 827.820 103, 825.674 104.625, 812.875 120.585 C 807.986 126.682, 802.976 132.166, 801.743 132.772 C 794.130 136.514, 790.094 134.749, 782.473 124.348 C 771.044 108.748, 769.449 106.832, 766.227 104.836 C 757.965 99.717, 746.221 103.909, 737.500 115.090 C 719.450 138.231, 713.896 139.454, 701.733 122.963 C 689.072 105.796, 682.183 100.944, 673.358 102.979 M 354.941 128.917 C 337.202 132.571, 330.257 134.963, 320.202 140.881 C 315.638 143.567, 309.788 146.518, 307.202 147.438 C 304.616 148.359, 297.957 150.850, 292.404 152.975 C 277.710 158.598, 272.343 159.418, 256.200 158.505 C 223.297 156.644, 223.968 155.977, 224.481 190 C 224.885 216.813, 226.756 219.276, 244.966 216.955 C 269.144 213.874, 298.811 220.402, 318.059 233.039 C 326.899 238.843, 331.730 240.845, 345.553 244.438 C 360.544 248.334, 362.375 247.924, 373.296 238.220 C 378.474 233.619, 382.449 231.186, 389.995 228.002 C 411.119 219.089, 421.818 203.582, 422.772 180.500 C 424.431 140.330, 397.812 120.087, 354.941 128.917 M 372.500 276.014 C 358.143 282.084, 353.363 304.146, 360.478 331.500 C 361.423 335.133, 362.421 345.843, 363.009 358.647 C 363.542 370.278, 364.453 382.878, 365.032 386.647 C 366.054 393.298, 367.132 417.675, 368.959 475.500 C 369.446 490.900, 370.368 506.875, 371.009 511 C 374.287 532.112, 370.469 571.674, 363.964 584 C 362.368 587.025, 358.475 594.675, 355.314 601 C 349.078 613.475, 347.925 614.814, 326.025 635 C 310.096 649.683, 297.203 660.174, 290.346 664.033 C 259.492 681.398, 263.545 687.708, 304.807 686.552 C 318.388 686.172, 345.109 685.554, 364.186 685.180 C 409.595 684.290, 408.473 685.117, 403.077 656.500 C 401.417 647.700, 398.893 637.125, 397.467 633 C 391.347 615.297, 391.733 625.888, 390.950 454 C 390.056 257.871, 391.120 268.141, 372.500 276.014 M 670.637 369.453 C 665.646 371.247, 662.619 374.180, 652.369 387.151 C 636.807 406.843, 634.012 406.727, 618.181 385.740 C 603.411 366.158, 595.884 363.979, 583.055 375.569 C 578.653 379.547, 578.160 380.319, 567.489 400 C 563.761 406.875, 559.255 414.773, 557.477 417.551 C 549.233 430.429, 547.746 439.147, 552.664 445.763 C 558.775 453.986, 566.975 447.939, 583.861 422.756 C 595.429 405.503, 601.646 406.861, 620.378 430.728 C 631.845 445.339, 642.502 443.662, 656.961 424.972 C 672.981 404.263, 679.296 403.914, 694.002 422.924 C 712.269 446.537, 719.092 445.944, 742.416 418.717 C 755.388 403.575, 761.526 404.951, 777.817 426.648 C 791.960 445.485, 801.684 444.932, 818.069 424.359 C 833.886 404.501, 840.142 403.779, 852.706 420.363 C 873.946 448.397, 880.336 448.458, 900.669 420.822 C 912.959 404.118, 920.356 405.066, 935.288 425.257 C 944.100 437.173, 951.782 441.985, 959.707 440.554 C 963.693 439.834, 966.258 437.396, 980.178 421.099 C 994.368 404.486, 998.733 404.775, 1013.572 423.314 C 1032.418 446.858, 1039.072 446.926, 1057.848 423.767 C 1072.623 405.543, 1077.258 406.325, 1092.631 429.635 C 1102.729 444.946, 1111.310 451.969, 1118.098 450.478 C 1128.250 448.249, 1123.968 428.983, 1108.394 406.822 C 1106.586 404.249, 1103.907 399.749, 1102.442 396.822 C 1085.403 362.790, 1072.060 360.231, 1052.806 387.304 C 1038.639 407.223, 1033.576 407.586, 1020.716 389.605 C 1012.105 377.566, 1010.347 375.487, 1006.453 372.751 C 994.793 364.556, 987.342 367.810, 972.381 387.630 C 957.701 407.077, 953.545 407.124, 939.794 388 C 921.288 362.263, 909.492 362.181, 892.357 387.669 C 879.822 406.315, 872.891 406.223, 859.966 387.241 C 843.441 362.970, 832.545 362.344, 815.500 384.686 C 799.956 405.061, 792.934 407.110, 784.300 393.789 C 764.149 362.702, 751.612 361.066, 733.343 387.137 C 719.830 406.422, 712.279 406.697, 699.902 388.354 C 688.612 371.624, 680.026 366.078, 670.637 369.453 M 671.728 636.316 C 666.104 638.082, 661.848 641.978, 652.940 653.517 C 636.592 674.694, 634.569 674.247, 612.113 644.500 C 606.090 636.521, 596.439 634.760, 587.340 639.978 C 581.760 643.178, 579.800 645.512, 574.046 655.799 C 571.985 659.485, 568.261 665.875, 565.770 670 C 548.547 698.528, 546.040 706.307, 551.423 714.522 C 556.980 723.004, 566.080 717.340, 579.534 697.026 C 596.260 671.771, 600.910 671.652, 619.485 696 C 631.426 711.653, 642.286 711.037, 655.495 693.958 C 674.153 669.835, 679.078 669.705, 696.961 692.865 C 713.831 714.711, 720.379 713.719, 742.275 686 C 754.364 670.696, 761.789 672.050, 776.096 692.166 C 791.234 713.450, 800.681 713.425, 816.962 692.057 C 828.456 676.971, 834.985 673.001, 842.465 676.550 C 846.039 678.246, 848.339 680.792, 860.393 696.389 C 873.709 713.617, 882.414 711.897, 899.943 688.575 C 912.722 671.574, 919.682 671.771, 932.957 689.512 C 950.428 712.858, 959.279 713.476, 975.770 692.500 C 993.558 669.874, 998.596 669.621, 1014.477 690.555 C 1032.117 713.807, 1040.990 713.659, 1059.144 689.811 C 1071.603 673.444, 1079.632 675.167, 1093.113 697.104 C 1104.998 716.445, 1120.198 724.020, 1124.001 712.497 C 1125.714 707.306, 1117.413 686.862, 1107.911 672.868 C 1105.659 669.553, 1102.901 664.738, 1101.782 662.170 C 1088.372 631.396, 1070.657 627.696, 1054.328 652.259 C 1039.742 674.199, 1033.090 674.221, 1018.255 652.375 C 1004.978 632.825, 990.016 631.511, 977.276 648.777 C 958.698 673.955, 954.201 674.700, 939.725 655 C 920.794 629.236, 908.821 629.053, 892.684 654.280 C 880.822 672.823, 871.838 672.384, 858.547 652.612 C 850.852 641.166, 844.838 637, 836.010 637 C 827.857 637, 824.333 639.504, 813.507 652.992 C 797.040 673.505, 794.239 673.422, 777.975 651.938 C 761.190 629.766, 750.259 630.132, 733.045 653.440 C 718.932 672.548, 711.913 672.452, 698.798 652.970 C 689.004 638.421, 680.903 633.437, 671.728 636.316" stroke="none" fill="#f5f5f5" fill-rule="evenodd"/></svg>