<svg xmlns="http://www.w3.org/2000/svg" width="1272" height="1085" viewBox="0 0 1272 1085" version="1.1"><path d="M 746.227 158.072 C 734.994 159.158, 728.569 161.186, 721.124 165.998 C 717.669 168.231, 710.546 172.066, 705.296 174.519 C 689.179 182.051, 671.563 200.748, 658.938 223.721 C 648.576 242.578, 646.354 247.509, 643.493 258 C 642.069 263.225, 639.519 270.650, 637.827 274.500 C 631.017 290, 630.071 293.004, 628.066 305.500 C 626.919 312.650, 624.643 326.825, 623.009 337 C 621.374 347.175, 618.470 361.125, 616.557 368 C 614.643 374.875, 611.679 388.127, 609.969 397.449 C 606.629 415.660, 605.684 418.661, 601.218 425.239 C 599.627 427.583, 595.913 434.142, 592.964 439.816 C 584.668 455.780, 576.428 462.956, 558.422 469.898 C 553.979 471.611, 547.904 474.846, 544.922 477.087 C 537.872 482.384, 535.302 483.687, 525.093 487.138 C 520.384 488.729, 513.236 492.219, 509.034 494.977 C 504.870 497.712, 498.986 500.801, 495.959 501.842 C 488.554 504.390, 481.252 508.167, 475.912 512.211 C 444.570 535.950, 435.577 538.902, 421.355 530.120 C 408.762 522.344, 395.261 513.535, 390.621 510.067 C 388.095 508.180, 381.634 504.777, 376.264 502.506 C 370.894 500.236, 364.025 496.742, 361 494.743 C 357.975 492.744, 350.685 489.260, 344.800 487 C 338.806 484.698, 330.535 480.518, 325.994 477.496 C 321.536 474.530, 315.418 471.178, 312.398 470.048 C 297.978 464.653, 293.919 461.469, 283.243 447.185 C 273.990 434.803, 272.327 431.274, 268.541 415.973 C 267.162 410.400, 264.269 401.920, 262.112 397.129 C 256.784 385.296, 256.298 383.158, 253.026 357.170 C 244.554 289.873, 217.689 220.098, 190.500 194.774 C 176.162 181.420, 170.730 176.897, 166.388 174.697 C 163.686 173.327, 157.665 169.893, 153.009 167.065 C 122.382 148.463, 79.831 157.350, 93.163 179.563 C 99.897 190.782, 101.813 192.786, 112.417 199.707 C 131.509 212.166, 144.291 232.057, 151.869 261.100 C 153.505 267.370, 156.266 276.325, 158.005 281 C 169.096 310.825, 169.260 311.651, 170.994 346.606 C 172.452 376.009, 176.424 401.171, 181.569 413.597 C 186.233 424.861, 187.333 428.724, 190.063 443.410 C 191.838 452.958, 193.229 457.232, 197.074 464.955 C 199.713 470.254, 203.184 478.185, 204.787 482.580 C 207.965 491.287, 211.262 497.037, 216.372 502.787 C 218.188 504.829, 221.614 509.425, 223.986 513 C 229.752 521.690, 251.550 543.036, 261.500 549.734 C 265.900 552.696, 272.267 557.289, 275.648 559.940 C 279.030 562.590, 285.025 566.051, 288.972 567.630 C 293.254 569.343, 298.363 572.419, 301.644 575.261 C 307.737 580.538, 309.695 581.672, 320.831 586.372 C 331.391 590.829, 342.111 598.949, 358 614.524 C 379.234 635.339, 374.089 634.101, 440.233 634.303 C 502.506 634.493, 497.311 635.467, 506.088 621.959 C 511.347 613.864, 516.907 608.487, 527.500 601.250 C 530.800 598.996, 536.200 595.097, 539.500 592.587 C 542.800 590.077, 549.002 586.555, 553.281 584.761 C 557.561 582.968, 564.184 579.141, 567.998 576.257 C 571.813 573.373, 578.789 569.233, 583.500 567.056 C 588.210 564.880, 594.413 561.118, 597.282 558.696 C 600.152 556.274, 605.054 552.679, 608.176 550.706 C 611.297 548.734, 614.860 545.756, 616.092 544.090 C 617.324 542.423, 621.970 538.166, 626.416 534.630 C 639.136 524.512, 645.221 517.975, 652.105 507.034 C 655.622 501.444, 661.247 492.680, 664.605 487.559 C 670.798 478.115, 671.212 476.998, 676.098 456.500 C 677.278 451.550, 679.934 444.125, 682.002 440 C 688.879 426.277, 690.359 419.799, 693.994 387.500 C 695.170 377.050, 697.421 362.650, 698.996 355.500 C 700.571 348.350, 703.682 329.675, 705.910 314 C 710.395 282.434, 711.393 278.227, 717.025 267.144 C 719.162 262.940, 722.254 254.550, 723.897 248.500 C 730.908 222.672, 738.016 213.354, 763.963 195.967 C 794.384 175.583, 795.716 161.280, 767.494 158.047 C 757.671 156.921, 758.138 156.921, 746.227 158.072 M 1002.500 158.616 C 986.659 162.056, 982.922 167.057, 985.039 181.980 C 986.801 194.400, 987.684 425.475, 986.011 436.500 C 982.991 456.404, 973.371 454.034, 944.703 426.324 C 916.740 399.295, 909.769 395.567, 900.341 402.597 C 889.951 410.345, 898.632 426.659, 927.882 454.352 C 961.724 486.393, 964.446 494.104, 948.586 513 C 940.319 522.849, 936.899 538.113, 938.913 556.173 C 940.800 573.091, 942.736 576.188, 958.338 587.235 C 976.019 599.754, 975.226 612.336, 955.721 628.776 C 927.119 652.884, 894 690.027, 894 697.998 C 894 704.385, 900.712 709, 910 709 C 917.651 709, 918.978 708.069, 937.253 689.898 C 968.362 658.964, 977.941 653.932, 984.491 665.080 C 986.694 668.830, 987.695 901.532, 985.606 924.196 C 984.263 938.767, 988.137 945.555, 1001.500 952.043 C 1010.215 956.275, 1096.248 954.285, 1103.188 949.692 C 1113.375 942.950, 1112.500 980.034, 1112.500 555 C 1112.500 161.746, 1112.577 169.027, 1108.385 164.046 C 1102.918 157.548, 1025.662 153.587, 1002.500 158.616 M 1031 184.871 C 1025.737 186.016, 1023.369 187.916, 1020.292 193.464 C 1017.642 198.243, 1016.246 382, 1017.971 499 C 1018.244 517.560, 1018.328 568.217, 1018.139 600.500 C 1016.368 903.127, 1016.513 914.730, 1022.141 919.465 C 1031.425 927.277, 1074.037 925.189, 1080.443 916.608 C 1082.773 913.487, 1084.311 207.582, 1082.006 199.023 C 1078.535 186.132, 1055.103 179.631, 1031 184.871 M 193.565 270.895 C 193.259 271.390, 193.881 278.254, 194.947 286.147 C 198.298 310.950, 202 349.489, 202.012 359.695 C 202.019 365.618, 202.650 371.678, 203.606 375 C 205.947 383.137, 208.512 394.560, 212.020 412.469 C 216.198 433.796, 219.860 444.765, 228.390 461.500 C 232.314 469.200, 236.507 477.750, 237.707 480.500 C 243.441 493.644, 282.642 530.877, 303.160 542.667 C 310.393 546.823, 318.664 551.729, 321.541 553.569 C 324.417 555.409, 330.760 558.563, 335.635 560.577 C 344.971 564.434, 347.231 565.796, 355.812 572.739 C 358.733 575.103, 364.158 578.565, 367.867 580.433 C 372.578 582.806, 376.059 585.523, 379.412 589.449 C 389.755 601.555, 410.063 605.460, 426.964 598.593 C 434.635 595.476, 438.710 595.358, 447.275 598.003 C 467.570 604.272, 476.539 602.339, 495.099 587.698 C 500.270 583.619, 506.348 579.342, 508.606 578.194 C 510.865 577.046, 515.140 574.017, 518.106 571.464 C 521.073 568.911, 528 564.554, 533.500 561.781 C 539 559.009, 545.395 555.439, 547.712 553.849 C 550.028 552.258, 557.228 547.999, 563.712 544.384 C 575.035 538.070, 579.241 535.107, 598 520.231 C 610.069 510.660, 624.330 496.282, 626.991 491 C 628.238 488.525, 631.663 483.074, 634.602 478.886 C 641.076 469.662, 641.241 469.246, 644.477 453.916 C 646.630 443.718, 647.974 439.981, 652.562 431.429 C 659.220 419.016, 660.996 411.073, 661.009 393.662 C 661.021 376.260, 663.259 359.446, 667.493 344.940 C 673.738 323.547, 674.532 302, 669.076 302 C 664.697 302, 660.719 314.367, 658.549 334.728 C 657.600 343.638, 656.216 351.113, 654.847 354.728 C 649.933 367.707, 640.913 395.911, 638.958 404.415 C 637.809 409.412, 636.151 416.634, 635.274 420.463 C 634.397 424.293, 632.016 430.593, 629.982 434.463 C 612.724 467.301, 611.600 469.229, 608.212 471.816 C 606.278 473.292, 601.391 477.512, 597.351 481.193 C 591.663 486.375, 586.900 489.443, 576.252 494.784 C 545.011 510.455, 519.145 523.881, 513.624 527.291 C 510.392 529.288, 504.767 532.065, 501.124 533.462 C 493.430 536.413, 492.293 537.115, 479.740 546.657 C 469.600 554.366, 462.002 562.254, 456.294 571 C 441.109 594.267, 425.194 591.427, 407.663 562.321 C 404.787 557.546, 402.415 555.136, 397.221 551.712 C 393.524 549.276, 387.271 544.856, 383.325 541.891 C 379.379 538.926, 373.340 535.389, 369.904 534.032 C 366.469 532.674, 359.573 529.124, 354.579 526.143 C 349.586 523.162, 338.750 517.465, 330.500 513.483 C 322.250 509.501, 312.043 504.189, 307.818 501.679 C 303.593 499.168, 296.705 495.686, 292.511 493.940 C 272.486 485.604, 244.483 450.796, 238.105 426.314 C 236.503 420.162, 233.168 410.712, 230.694 405.314 C 224.356 391.480, 223.286 387.031, 220.997 365 C 218.508 341.031, 217.850 337.706, 212.823 323.676 C 210.621 317.529, 207.285 305.366, 205.410 296.646 C 201.085 276.530, 196.390 266.323, 193.565 270.895 M 202 652.983 C 93.739 653.563, 101.128 653.026, 93.263 660.891 C 88.077 666.077, 87.441 669.885, 88.844 687.346 C 89.713 698.152, 90.044 735.724, 89.999 818.301 C 89.916 972.991, 72.824 953.949, 211.782 953.979 C 342.437 954.007, 325.500 976.494, 325.500 803 C 325.500 702.055, 325.215 670.571, 324.275 667.500 C 321.440 658.248, 312.742 651.865, 303.500 652.255 C 300.750 652.371, 255.075 652.699, 202 652.983 M 503.209 673.668 C 495.167 677.631, 494.190 683.737, 500.335 691.625 C 505.734 698.554, 549.120 744.203, 563.420 758 C 620.064 812.650, 621.333 800.790, 551.292 871.338 C 503.408 919.568, 498 925.954, 498 934.261 C 498 946.305, 508.678 949.726, 520.140 941.355 C 534.859 930.604, 556.376 911.685, 570.671 896.925 C 580.476 886.801, 586.055 881.228, 614 853.645 C 632.995 834.896, 640.308 835.760, 664.663 859.627 C 671.723 866.545, 680.425 874.564, 684 877.447 C 687.575 880.330, 693.074 885.041, 696.219 887.916 C 699.364 890.791, 704.764 895.249, 708.219 897.822 C 711.674 900.395, 720.785 909.025, 728.466 917 C 758.071 947.739, 770.064 953.330, 775.944 939.135 C 779.181 931.320, 777.621 929.262, 738.239 889.391 C 658.083 808.238, 657.743 807.625, 681.112 786.336 C 683.428 784.226, 686.488 781.150, 687.911 779.500 C 689.335 777.850, 697.925 769.030, 707 759.900 C 773.135 693.363, 779 687.076, 779 682.721 C 779 676.339, 773.090 671.981, 764.500 672.028 C 757.525 672.066, 753.307 675.461, 723.123 705.332 C 706.830 721.455, 686.822 740.239, 678.659 747.074 C 670.497 753.908, 659.922 762.802, 655.159 766.838 C 634.273 784.537, 633.957 784.423, 595.009 745.095 C 578.190 728.112, 563.092 713.793, 558.188 710.173 C 549.099 703.463, 533.824 689.845, 525.070 680.647 C 516.625 671.774, 510.814 669.919, 503.209 673.668 M 135.939 683.355 C 128.090 685.489, 120.422 692.404, 117.856 699.664 C 116.748 702.799, 116.500 722.659, 116.500 808.364 C 116.500 926.395, 115.388 916.900, 129.763 921.617 C 138.491 924.482, 286.590 924.542, 291.829 921.684 C 298.387 918.105, 298.080 924.143, 297.776 804.720 C 297.468 684.095, 297.813 689.923, 290.677 684.604 C 287.200 682.012, 145.100 680.866, 135.939 683.355" stroke="none" fill="#8c8d91" fill-rule="evenodd"/><path d="M 38.500 29.501 C 33.629 31.226, 30.412 34.755, 29.030 39.887 C 26.704 48.526, 28.191 1044.973, 30.535 1048.965 C 31.655 1050.870, 34.130 1053.345, 36.035 1054.465 C 41.519 1057.686, 1230.481 1057.686, 1235.965 1054.465 C 1237.870 1053.345, 1240.345 1050.870, 1241.465 1048.965 C 1244.686 1043.482, 1244.686 41.518, 1241.465 36.035 C 1240.345 34.130, 1237.870 31.655, 1235.965 30.535 C 1231.398 27.853, 46.044 26.829, 38.500 29.501 M 746.227 158.072 C 734.994 159.158, 728.569 161.186, 721.124 165.998 C 717.669 168.231, 710.546 172.066, 705.296 174.519 C 689.179 182.051, 671.563 200.748, 658.938 223.721 C 648.576 242.578, 646.354 247.509, 643.493 258 C 642.069 263.225, 639.519 270.650, 637.827 274.500 C 631.017 290, 630.071 293.004, 628.066 305.500 C 626.919 312.650, 624.643 326.825, 623.009 337 C 621.374 347.175, 618.470 361.125, 616.557 368 C 614.643 374.875, 611.679 388.127, 609.969 397.449 C 606.629 415.660, 605.684 418.661, 601.218 425.239 C 599.627 427.583, 595.913 434.142, 592.964 439.816 C 584.668 455.780, 576.428 462.956, 558.422 469.898 C 553.979 471.611, 547.904 474.846, 544.922 477.087 C 537.872 482.384, 535.302 483.687, 525.093 487.138 C 520.384 488.729, 513.236 492.219, 509.034 494.977 C 504.870 497.712, 498.986 500.801, 495.959 501.842 C 488.554 504.390, 481.252 508.167, 475.912 512.211 C 444.570 535.950, 435.577 538.902, 421.355 530.120 C 408.762 522.344, 395.261 513.535, 390.621 510.067 C 388.095 508.180, 381.634 504.777, 376.264 502.506 C 370.894 500.236, 364.025 496.742, 361 494.743 C 357.975 492.744, 350.685 489.260, 344.800 487 C 338.806 484.698, 330.535 480.518, 325.994 477.496 C 321.536 474.530, 315.418 471.178, 312.398 470.048 C 297.978 464.653, 293.919 461.469, 283.243 447.185 C 273.990 434.803, 272.327 431.274, 268.541 415.973 C 267.162 410.400, 264.269 401.920, 262.112 397.129 C 256.784 385.296, 256.298 383.158, 253.026 357.170 C 244.554 289.873, 217.689 220.098, 190.500 194.774 C 176.162 181.420, 170.730 176.897, 166.388 174.697 C 163.686 173.327, 157.665 169.893, 153.009 167.065 C 122.382 148.463, 79.831 157.350, 93.163 179.563 C 99.897 190.782, 101.813 192.786, 112.417 199.707 C 131.509 212.166, 144.291 232.057, 151.869 261.100 C 153.505 267.370, 156.266 276.325, 158.005 281 C 169.096 310.825, 169.260 311.651, 170.994 346.606 C 172.452 376.009, 176.424 401.171, 181.569 413.597 C 186.233 424.861, 187.333 428.724, 190.063 443.410 C 191.838 452.958, 193.229 457.232, 197.074 464.955 C 199.713 470.254, 203.184 478.185, 204.787 482.580 C 207.965 491.287, 211.262 497.037, 216.372 502.787 C 218.188 504.829, 221.614 509.425, 223.986 513 C 229.752 521.690, 251.550 543.036, 261.500 549.734 C 265.900 552.696, 272.267 557.289, 275.648 559.940 C 279.030 562.590, 285.025 566.051, 288.972 567.630 C 293.254 569.343, 298.363 572.419, 301.644 575.261 C 307.737 580.538, 309.695 581.672, 320.831 586.372 C 331.391 590.829, 342.111 598.949, 358 614.524 C 379.234 635.339, 374.089 634.101, 440.233 634.303 C 502.506 634.493, 497.311 635.467, 506.088 621.959 C 511.347 613.864, 516.907 608.487, 527.500 601.250 C 530.800 598.996, 536.200 595.097, 539.500 592.587 C 542.800 590.077, 549.002 586.555, 553.281 584.761 C 557.561 582.968, 564.184 579.141, 567.998 576.257 C 571.813 573.373, 578.789 569.233, 583.500 567.056 C 588.210 564.880, 594.413 561.118, 597.282 558.696 C 600.152 556.274, 605.054 552.679, 608.176 550.706 C 611.297 548.734, 614.860 545.756, 616.092 544.090 C 617.324 542.423, 621.970 538.166, 626.416 534.630 C 639.136 524.512, 645.221 517.975, 652.105 507.034 C 655.622 501.444, 661.247 492.680, 664.605 487.559 C 670.798 478.115, 671.212 476.998, 676.098 456.500 C 677.278 451.550, 679.934 444.125, 682.002 440 C 688.879 426.277, 690.359 419.799, 693.994 387.500 C 695.170 377.050, 697.421 362.650, 698.996 355.500 C 700.571 348.350, 703.682 329.675, 705.910 314 C 710.395 282.434, 711.393 278.227, 717.025 267.144 C 719.162 262.940, 722.254 254.550, 723.897 248.500 C 730.908 222.672, 738.016 213.354, 763.963 195.967 C 794.384 175.583, 795.716 161.280, 767.494 158.047 C 757.671 156.921, 758.138 156.921, 746.227 158.072 M 1002.500 158.616 C 986.659 162.056, 982.922 167.057, 985.039 181.980 C 986.801 194.400, 987.684 425.475, 986.011 436.500 C 982.991 456.404, 973.371 454.034, 944.703 426.324 C 916.740 399.295, 909.769 395.567, 900.341 402.597 C 889.951 410.345, 898.632 426.659, 927.882 454.352 C 961.724 486.393, 964.446 494.104, 948.586 513 C 940.319 522.849, 936.899 538.113, 938.913 556.173 C 940.800 573.091, 942.736 576.188, 958.338 587.235 C 976.019 599.754, 975.226 612.336, 955.721 628.776 C 927.119 652.884, 894 690.027, 894 697.998 C 894 704.385, 900.712 709, 910 709 C 917.651 709, 918.978 708.069, 937.253 689.898 C 968.362 658.964, 977.941 653.932, 984.491 665.080 C 986.694 668.830, 987.695 901.532, 985.606 924.196 C 984.263 938.767, 988.137 945.555, 1001.500 952.043 C 1010.215 956.275, 1096.248 954.285, 1103.188 949.692 C 1113.375 942.950, 1112.500 980.034, 1112.500 555 C 1112.500 161.746, 1112.577 169.027, 1108.385 164.046 C 1102.918 157.548, 1025.662 153.587, 1002.500 158.616 M 1031 184.871 C 1025.737 186.016, 1023.369 187.916, 1020.292 193.464 C 1017.642 198.243, 1016.246 382, 1017.971 499 C 1018.244 517.560, 1018.328 568.217, 1018.139 600.500 C 1016.368 903.127, 1016.513 914.730, 1022.141 919.465 C 1031.425 927.277, 1074.037 925.189, 1080.443 916.608 C 1082.773 913.487, 1084.311 207.582, 1082.006 199.023 C 1078.535 186.132, 1055.103 179.631, 1031 184.871 M 193.565 270.895 C 193.259 271.390, 193.881 278.254, 194.947 286.147 C 198.298 310.950, 202 349.489, 202.012 359.695 C 202.019 365.618, 202.650 371.678, 203.606 375 C 205.947 383.137, 208.512 394.560, 212.020 412.469 C 216.198 433.796, 219.860 444.765, 228.390 461.500 C 232.314 469.200, 236.507 477.750, 237.707 480.500 C 243.441 493.644, 282.642 530.877, 303.160 542.667 C 310.393 546.823, 318.664 551.729, 321.541 553.569 C 324.417 555.409, 330.760 558.563, 335.635 560.577 C 344.971 564.434, 347.231 565.796, 355.812 572.739 C 358.733 575.103, 364.158 578.565, 367.867 580.433 C 372.578 582.806, 376.059 585.523, 379.412 589.449 C 389.755 601.555, 410.063 605.460, 426.964 598.593 C 434.635 595.476, 438.710 595.358, 447.275 598.003 C 467.570 604.272, 476.539 602.339, 495.099 587.698 C 500.270 583.619, 506.348 579.342, 508.606 578.194 C 510.865 577.046, 515.140 574.017, 518.106 571.464 C 521.073 568.911, 528 564.554, 533.500 561.781 C 539 559.009, 545.395 555.439, 547.712 553.849 C 550.028 552.258, 557.228 547.999, 563.712 544.384 C 575.035 538.070, 579.241 535.107, 598 520.231 C 610.069 510.660, 624.330 496.282, 626.991 491 C 628.238 488.525, 631.663 483.074, 634.602 478.886 C 641.076 469.662, 641.241 469.246, 644.477 453.916 C 646.630 443.718, 647.974 439.981, 652.562 431.429 C 659.220 419.016, 660.996 411.073, 661.009 393.662 C 661.021 376.260, 663.259 359.446, 667.493 344.940 C 673.738 323.547, 674.532 302, 669.076 302 C 664.697 302, 660.719 314.367, 658.549 334.728 C 657.600 343.638, 656.216 351.113, 654.847 354.728 C 649.933 367.707, 640.913 395.911, 638.958 404.415 C 637.809 409.412, 636.151 416.634, 635.274 420.463 C 634.397 424.293, 632.016 430.593, 629.982 434.463 C 612.724 467.301, 611.600 469.229, 608.212 471.816 C 606.278 473.292, 601.391 477.512, 597.351 481.193 C 591.663 486.375, 586.900 489.443, 576.252 494.784 C 545.011 510.455, 519.145 523.881, 513.624 527.291 C 510.392 529.288, 504.767 532.065, 501.124 533.462 C 493.430 536.413, 492.293 537.115, 479.740 546.657 C 469.600 554.366, 462.002 562.254, 456.294 571 C 441.109 594.267, 425.194 591.427, 407.663 562.321 C 404.787 557.546, 402.415 555.136, 397.221 551.712 C 393.524 549.276, 387.271 544.856, 383.325 541.891 C 379.379 538.926, 373.340 535.389, 369.904 534.032 C 366.469 532.674, 359.573 529.124, 354.579 526.143 C 349.586 523.162, 338.750 517.465, 330.500 513.483 C 322.250 509.501, 312.043 504.189, 307.818 501.679 C 303.593 499.168, 296.705 495.686, 292.511 493.940 C 272.486 485.604, 244.483 450.796, 238.105 426.314 C 236.503 420.162, 233.168 410.712, 230.694 405.314 C 224.356 391.480, 223.286 387.031, 220.997 365 C 218.508 341.031, 217.850 337.706, 212.823 323.676 C 210.621 317.529, 207.285 305.366, 205.410 296.646 C 201.085 276.530, 196.390 266.323, 193.565 270.895 M 202 652.983 C 93.739 653.563, 101.128 653.026, 93.263 660.891 C 88.077 666.077, 87.441 669.885, 88.844 687.346 C 89.713 698.152, 90.044 735.724, 89.999 818.301 C 89.916 972.991, 72.824 953.949, 211.782 953.979 C 342.437 954.007, 325.500 976.494, 325.500 803 C 325.500 702.055, 325.215 670.571, 324.275 667.500 C 321.440 658.248, 312.742 651.865, 303.500 652.255 C 300.750 652.371, 255.075 652.699, 202 652.983 M 503.209 673.668 C 495.167 677.631, 494.190 683.737, 500.335 691.625 C 505.734 698.554, 549.120 744.203, 563.420 758 C 620.064 812.650, 621.333 800.790, 551.292 871.338 C 503.408 919.568, 498 925.954, 498 934.261 C 498 946.305, 508.678 949.726, 520.140 941.355 C 534.859 930.604, 556.376 911.685, 570.671 896.925 C 580.476 886.801, 586.055 881.228, 614 853.645 C 632.995 834.896, 640.308 835.760, 664.663 859.627 C 671.723 866.545, 680.425 874.564, 684 877.447 C 687.575 880.330, 693.074 885.041, 696.219 887.916 C 699.364 890.791, 704.764 895.249, 708.219 897.822 C 711.674 900.395, 720.785 909.025, 728.466 917 C 758.071 947.739, 770.064 953.330, 775.944 939.135 C 779.181 931.320, 777.621 929.262, 738.239 889.391 C 658.083 808.238, 657.743 807.625, 681.112 786.336 C 683.428 784.226, 686.488 781.150, 687.911 779.500 C 689.335 777.850, 697.925 769.030, 707 759.900 C 773.135 693.363, 779 687.076, 779 682.721 C 779 676.339, 773.090 671.981, 764.500 672.028 C 757.525 672.066, 753.307 675.461, 723.123 705.332 C 706.830 721.455, 686.822 740.239, 678.659 747.074 C 670.497 753.908, 659.922 762.802, 655.159 766.838 C 634.273 784.537, 633.957 784.423, 595.009 745.095 C 578.190 728.112, 563.092 713.793, 558.188 710.173 C 549.099 703.463, 533.824 689.845, 525.070 680.647 C 516.625 671.774, 510.814 669.919, 503.209 673.668 M 135.939 683.355 C 128.090 685.489, 120.422 692.404, 117.856 699.664 C 116.748 702.799, 116.500 722.659, 116.500 808.364 C 116.500 926.395, 115.388 916.900, 129.763 921.617 C 138.491 924.482, 286.590 924.542, 291.829 921.684 C 298.387 918.105, 298.080 924.143, 297.776 804.720 C 297.468 684.095, 297.813 689.923, 290.677 684.604 C 287.200 682.012, 145.100 680.866, 135.939 683.355" stroke="none" fill="#f3f3f4" fill-rule="evenodd"/></svg>