<?xml version="1.0" encoding="utf-8"?>
<!-- Generator: Adobe Illustrator 26.5.3, SVG Export Plug-In . SVG Version: 6.00 Build 0)  -->
<svg version="1.1" id="Layer_1" xmlns="http://www.w3.org/2000/svg" xmlns:xlink="http://www.w3.org/1999/xlink" x="0px" y="0px"
	 viewBox="0 0 1920 1080" style="enable-background:new 0 0 1920 1080;" xml:space="preserve">
<g>
	<g>
		<path d="M980.4,563.18c-3.25-3.74-4.22-7.87-5.01-12.03c-0.76-3.98-2.1-7.69-4.39-11.05c-0.91-1.34-2.11-2.32-3.57-3.03
			c-1.21-0.58-2.27-0.61-3.06,0.6c-0.38,0.59-1.08,1.37-0.28,1.98c1.04,0.79,2.26,1.07,3.4-0.01c0.29-0.27,0.63-0.48,1-0.76
			c0.5,2.08,1.53,4.16-1.64,5.01c-0.67-0.95-1.8-1.67-3.39-2c-2.79-0.57-3.3-1.63-2.36-4.23c0.42-1.17,0.2-1.52-0.98-1.51
			c-2.75,0.02-5.5,0.1-8.2-0.54c-0.77-0.18-1.26,0.09-1.57,0.83c-1.16,2.78-4,4.47-4.72,8.33c-0.7-1.66-2.34-2.45-2.29-2.54
			c0.99-1.54-0.82-1.7-1.29-2.55c1.64-0.7,3.47-0.43,4.72-2.08c1.34-1.78,0.69-2.64-0.85-3.5c-1.09-0.61-2.23-0.56-3.4-0.3
			c-0.73,0.17-1.47,0.5-2.18,0.44c-1.8-0.15-3.44-0.77-4.34-2.5c-0.49-0.95-0.5-2.01,0.35-2.77c1.37-1.22,3.04-1.96,4.83-1.2
			c3.23,1.38,5.83,0.56,8.05-1.94c0.5-0.56,1.7-0.96,1.01-1.95c-0.48-0.69-1.26-1.34-2.36-1.01c-0.52,0.16-1.28,0.89-1.57-0.22
			c-0.33-1.29-0.38-2.53,0.95-3.47c1.05-0.75,1.24,0.22,1.72,0.67c0.42,0.39,0.82,0.82,1.3,1.14c3.88,2.64,3.88,2.63,1.27,6.83
			c3.31-0.08,6.42,0.15,9.44,1.02c0.82,0.24,1.11-0.03,1.09-1.01c-0.07-3.31,0.4-3.73,3.5-2.79c2.25,0.68,4.31,1.26,6-1.5
			c0.36,1.68-0.98,3.03,0.68,3.9c0.37,0.2,0.08,0.65-0.3,0.64c-1.29-0.03-1.23,1.12-1.71,1.99c-1.21-0.7-1.58-2.43-3.26-2.44
			c-1.32-0.01-2.01,0.21-1.29,1.67c0.45,0.92,1.07,1.64,1.98,2.17c4.15,2.41,6.8,6.14,8.4,10.51c1.46,3.98,2.48,8.13,2.5,12.42
			C978.59,557.29,980.11,559.83,980.4,563.18z M962.34,538.13c2.45-3.29,4.31-3.63,7.47-1.09c1.37,1.1,2.45,2.45,3.31,4.01
			c1.7,3.12,2.79,6.45,3.72,9.84c-0.92-6.8-2.73-13.22-8.57-17.57c-1.74-1.29-3.47-2.45-4.53-4.8c0.64,2.32-0.37,2.2-1.82,1.83
			c-3.72-0.95-7.47-1.37-11.35-1.24c-3.25,0.11-6.52,1.68-9.87-0.16c-1.01-0.56-3.15-0.26-3.44,1.48c-0.3,1.82,1.53,2.56,2.83,2.38
			c2.76-0.37,5.29-0.02,7.98,0.65c4.56,1.15,9.25,1.91,14.02,1.48c1.23-0.11,1.37,0.65,0.95,1.62
			C962.83,537.1,962.58,537.61,962.34,538.13z"/>
	</g>
</g>
</svg>
