<?xml version="1.0" encoding="UTF-8"?>
<svg id="Layer_1" data-name="Layer 1" xmlns="http://www.w3.org/2000/svg" width="2000" height="2000" viewBox="0 0 88 70">
  <defs>
    <style>
      .cls-1 {
        fill: #fff;
      }
    </style>
  </defs>
  <path class="cls-1" d="M88,70H0V0H88V70ZM4.07,20.98c-.03,3.41,.68,6.15,2.68,8.55,1.11,1.34,2.24,2.72,3.04,4.25,.55,1.06,.77,2.4,.77,3.62,0,2.73,.51,5.16,2.8,7.43,.53-1.34,.91-2.31,1.34-3.38,.53,.41,.97,.78,1.44,1.11,1.98,1.37,1.35,3.02,.74,4.87-.6,1.81-1.35,2.87-3.48,2.62-1.66-.2-3.35-.04-5.03-.04,0,.22,0,.44,.01,.66h15.73c.48-2.03,1.57-4.05,1.23-5.8-.44-2.29,.68-3.06,1.83-3.97,.92,.79,1.63,1.73,2.56,2.13,3.55,1.5,6.5,3.66,8.81,6.78,.47,.63,1.69,.71,3.06,1.23-2.07-1.81-3.6-3.14-5.13-4.48,.16-.28,.31-.56,.47-.84,2.36,.4,4.73,.8,7.29,1.24-.53,1.5-.88,2.47-1.22,3.44,.2,.2,.4,.41,.6,.61,.78-.59,2.13-1.11,2.23-1.8,.21-1.44,.21-3.26-.5-4.43-3.04-4.98-7.45-8.33-13.8-9.8,3.32-4.74,6.42-9.22,9.56-13.65,1.82-2.57,3.81-5.02,5.57-7.63,.92-1.36,.32-2.54-1.31-1.98-2.69,.93-5.47,1.97-7.76,3.59-3.06,2.17-5.69,4.95-9.12,8.01,.43-5.41,.85-10.08,1.15-14.77,.06-.89-.36-1.8-.56-2.71-.95,.36-2.29,.44-2.78,1.12-1.95,2.75-3.93,5.55-5.36,8.59-2.42,5.15-2.49,10.79-2.58,16.38-.01,.87-.34,1.93-.91,2.54-.85,.92-2.05,1.52-3.56,2.58-1.77-5.42-3.54-10.84-5.31-16.26-.23,.08-.47,.15-.7,.23,1.37,4.54,2.74,9.07,4.29,14.22-1.93-2.61-3.67-4.55-4.92-6.77-1.25-2.23-2.02-4.73-3.15-7.49Zm54.6,12.58c1.33,5.03,2.61,9.7,3.78,14.4,.4,1.62,1.12,2.33,2.89,2.21,2.57-.16,5.16-.16,7.73,0,1.84,.11,2.73-.6,3.15-2.33,1.13-4.72,2.34-9.41,3.56-14.28-.14,.02,.14,.05,.34-.06,.73-.4,1.44-.85,2.16-1.27-.75-.39-1.5-.78-2.25-1.16-.74-.37-1.58-.62-2.2-1.13-.94-.78-1.6-1.97-2.62-2.58-1.82-1.08-2.26-2.43-1.62-4.3,.84-.17,1.61-.33,3.28-.68-1.12-.9-1.67-1.73-2.24-1.75-3.97-.12-7.95-.06-11.81-.06-1.01,2.59,1.11,2.11,2.87,2.75-1.96,4.14-4.2,7.35-9.05,8.11v1.86c1.01,.13,1.81,.24,2.03,.27Zm-23.16,31.27c-.38-1.01-.86-1.92-1.06-2.9-.97-4.87-6.19-8.58-11.1-7.8-5.3,.84-8.92,5.49-8.19,10.7h20.35Z"/>
  <path d="M4.07,20.98c1.13,2.76,1.89,5.26,3.15,7.49,1.25,2.22,2.99,4.16,4.92,6.77-1.56-5.15-2.93-9.69-4.29-14.22,.23-.08,.47-.15,.7-.23,1.77,5.42,3.54,10.84,5.31,16.26,1.52-1.06,2.71-1.66,3.56-2.58,.57-.61,.9-1.67,.91-2.54,.09-5.59,.16-11.23,2.58-16.38,1.43-3.04,3.41-5.84,5.36-8.59,.49-.69,1.83-.77,2.78-1.12,.2,.9,.61,1.82,.56,2.71-.3,4.69-.72,9.36-1.15,14.77,3.43-3.07,6.06-5.84,9.12-8.01,2.29-1.63,5.07-2.67,7.76-3.59,1.63-.56,2.23,.62,1.31,1.98-1.76,2.61-3.75,5.06-5.57,7.63-3.15,4.43-6.25,8.91-9.56,13.65,6.35,1.47,10.76,4.82,13.8,9.8,.72,1.17,.71,2.98,.5,4.43-.1,.69-1.45,1.21-2.23,1.8-.2-.2-.4-.41-.6-.61,.34-.97,.69-1.94,1.22-3.44-2.56-.43-4.92-.84-7.29-1.24-.16,.28-.31,.56-.47,.84,1.53,1.33,3.06,2.67,5.13,4.48-1.37-.52-2.59-.6-3.06-1.23-2.31-3.13-5.26-5.28-8.81-6.78-.94-.4-1.64-1.34-2.56-2.13-1.15,.91-2.27,1.68-1.83,3.97,.34,1.75-.75,3.77-1.23,5.8H8.36c0-.22,0-.44-.01-.66,1.68,0,3.38-.16,5.03,.04,2.13,.25,2.88-.81,3.48-2.62,.61-1.84,1.24-3.49-.74-4.87-.47-.33-.91-.7-1.44-1.11-.42,1.07-.8,2.04-1.34,3.38-2.29-2.27-2.81-4.7-2.8-7.43,0-1.21-.21-2.56-.77-3.62-.8-1.53-1.93-2.91-3.04-4.25-1.99-2.4-2.71-5.15-2.68-8.55Zm42.15-7.91c-.32-.29-.63-.59-.95-.88-10.39,4.09-16.87,12.6-23.92,21.51,1.1,0,1.51,.13,1.7-.02,2.48-1.91,5.12-2.01,8.01-1.08,.44,.14,1.39-.62,1.8-1.19,2.63-3.6,5.14-7.29,7.75-10.9,1.82-2.52,3.73-4.96,5.6-7.44ZM28.69,6.48c-6.61,3.59-12.15,21.18-8.76,27.51,1.88-2.37,3.56-4.77,5.54-6.91,1.93-2.09,2.53-4.35,2.48-7.17-.06-3.72,.47-7.46,.73-11.19,.04-.63,0-1.27,0-2.25Zm-7.95,36.72c1.8-.87,3.84-1.45,5.35-2.68,2.2-1.8,1.48-4.61-1.27-5.35-1.49-.4-3.13-.52-4.67-.4-3.19,.25-5.24,2.1-5.19,4.37,.05,2.05,2.34,3.51,5.78,4.07Zm8.45-3.1c4.15-.46,4.13-.45,6.18,3.25,.34,.61,.87,1.43,1.43,1.53,2.65,.5,5.34,.78,8.39,1.19-3.1-4.89-6.92-8.37-12.32-9.75-3.43-.88-4.27,.09-3.68,3.79Zm2.18-6.27c-3.11-1.34-4.54-1.29-6.44,.16,3.69,2.33,4.29,2.33,6.44-.16Zm-19.03,8.85c2.22-3.44,1.88-5.29-1.02-6.34,.37,2.29,.69,4.31,1.02,6.34Zm8.69,.22c-.61,2.83-1.05,4.85-1.52,7.02,1.31-.5,3.03-3.29,2.91-4.78-.05-.62-.71-1.2-1.39-2.24Zm13.42,1.62c-.94-4.23-2.03-4.82-5.02-2.64,1.68,.88,3.15,1.65,5.02,2.64Zm-17.37,5.46c2.45-1.17,3.23-5.14,1.62-6.29-.52,2.01-1.04,4.06-1.62,6.29Zm4.89,.15c2.48-2.08,3.05-5.44,1.59-6.4-.49,1.98-1,4.03-1.59,6.4Z"/>
  <path d="M58.67,33.56c-.22-.03-1.02-.13-2.03-.27v-1.86c4.85-.76,7.09-3.98,9.05-8.11-1.76-.64-3.88-.16-2.87-2.75,3.86,0,7.83-.05,11.81,.06,.58,.02,1.13,.85,2.24,1.75-1.67,.35-2.44,.5-3.28,.68-.64,1.87-.2,3.22,1.62,4.3,1.02,.61,1.68,1.8,2.62,2.58,.62,.51,1.46,.76,2.2,1.13,.75,.38,1.5,.77,2.25,1.16-.72,.43-1.43,.87-2.16,1.27-.2,.11-.49,.08-.34,.06-1.22,4.87-2.43,9.56-3.56,14.28-.42,1.73-1.31,2.44-3.15,2.33-2.57-.15-5.16-.16-7.73,0-1.77,.11-2.49-.59-2.89-2.21-1.17-4.7-2.45-9.38-3.78-14.4Zm7.28-10.56c.68,2.67-.62,4.03-2.62,5.43-1.87,1.31-3.32,3.4-2.9,5.99,.63,3.82,1.51,7.6,2.15,11.42,.45,2.71,1.84,3.71,4.57,3.38,1.97-.24,4,.06,5.98-.11,.73-.06,1.87-.67,2.03-1.24,1.11-3.99,2.2-8,2.92-12.06,.49-2.73-.33-5.57-2.62-7.16-2.1-1.47-3.7-2.8-2.97-5.63h-6.55Z"/>
  <path d="M35.51,64.83H15.16c-.73-5.21,2.89-9.86,8.19-10.7,4.91-.78,10.13,2.92,11.1,7.8,.19,.98,.68,1.89,1.06,2.9Zm-2.05-.9c.53-5.01-4.18-9.13-9.15-9.01-4.29,.11-8.95,4.4-8.16,9.01h17.31Z"/>
  <path class="cls-1" d="M46.21,13.07c-1.87,2.48-3.78,4.93-5.6,7.44-2.61,3.61-5.13,7.3-7.75,10.9-.41,.57-1.36,1.33-1.8,1.19-2.89-.93-5.54-.83-8.01,1.08-.19,.15-.6,.02-1.7,.02,7.05-8.91,13.53-17.42,23.92-21.51,.32,.29,.63,.59,.95,.88Z"/>
  <path class="cls-1" d="M28.69,6.48c0,.98,.04,1.62,0,2.25-.26,3.73-.79,7.46-.73,11.19,.05,2.82-.55,5.08-2.48,7.17-1.97,2.14-3.66,4.54-5.54,6.91-3.4-6.33,2.15-23.92,8.76-27.51Z"/>
  <path class="cls-1" d="M20.75,43.2c-3.44-.55-5.73-2.02-5.78-4.07-.05-2.27,2-4.12,5.19-4.37,1.54-.12,3.18,0,4.67,.4,2.74,.74,3.47,3.55,1.27,5.35-1.51,1.23-3.55,1.81-5.35,2.68Z"/>
  <path class="cls-1" d="M29.2,40.1c-.59-3.7,.24-4.67,3.68-3.79,5.4,1.39,9.22,4.87,12.32,9.75-3.05-.41-5.74-.69-8.39-1.19-.56-.1-1.09-.93-1.43-1.53-2.05-3.7-2.03-3.71-6.18-3.25Z"/>
  <path class="cls-1" d="M31.38,33.84c-2.16,2.48-2.75,2.48-6.44,.16,1.9-1.45,3.33-1.5,6.44-.16Z"/>
  <path class="cls-1" d="M12.35,42.68c-.33-2.02-.65-4.05-1.02-6.34,2.9,1.04,3.24,2.9,1.02,6.34Z"/>
  <path class="cls-1" d="M21.04,42.9c.67,1.04,1.34,1.62,1.39,2.24,.12,1.49-1.6,4.28-2.91,4.78,.47-2.17,.91-4.19,1.52-7.02Z"/>
  <path class="cls-1" d="M34.46,44.52c-1.88-.99-3.35-1.76-5.02-2.64,2.99-2.19,4.08-1.59,5.02,2.64Z"/>
  <path class="cls-1" d="M17.09,49.98c.57-2.23,1.1-4.29,1.62-6.29,1.61,1.15,.83,5.12-1.62,6.29Z"/>
  <path class="cls-1" d="M21.98,50.13c.59-2.37,1.1-4.42,1.59-6.4,1.46,.96,.89,4.32-1.59,6.4Z"/>
  <path class="cls-1" d="M65.95,23h6.55c-.73,2.83,.87,4.16,2.97,5.63,2.29,1.6,3.11,4.43,2.62,7.16-.73,4.07-1.81,8.08-2.92,12.06-.16,.58-1.3,1.18-2.03,1.24-1.98,.17-4.01-.13-5.98,.11-2.74,.34-4.12-.67-4.57-3.38-.64-3.82-1.52-7.6-2.15-11.42-.42-2.58,1.03-4.68,2.9-5.99,2-1.39,3.3-2.76,2.62-5.43Z"/>
  <path class="cls-1" d="M33.46,63.92H16.15c-.79-4.61,3.87-8.9,8.16-9.01,4.98-.13,9.68,4,9.15,9.01Z"/>
</svg>
