<?xml version="1.0" encoding="utf-8"?>
<!-- Generator: Adobe Illustrator 26.5.3, SVG Export Plug-In . SVG Version: 6.00 Build 0)  -->
<svg version="1.1" id="Layer_1" xmlns="http://www.w3.org/2000/svg" width="2000" height="2000" xmlns:xlink="http://www.w3.org/1999/xlink" x="0px" y="0px"
	 viewBox="0 0 1920 1080" style="enable-background:new 0 0 1920 1080;" xml:space="preserve">
<g>
	<g>
		<path d="M977.44,566.33c0.98,3.54,3.38,5.14,6.16,6.4c-3.32-0.03-5.21-2.12-6.61-4.71c-0.77-1.42-1.71-2.14-3.27-2.69
			c-3.15-1.11-6.53-2.15-7.95-5.83c-0.87,0.69-1.59,1.41-2.45,1.9c-1.34,0.77-1.6,1.62-0.91,3.06c0.81,1.68-0.42,3.21-0.84,4.77
			c-0.33,1.24-0.15,3.38-0.61,3.56c-1.39,0.53-3.08,0.33-4.66,0.33c-5.23,0.02-10.46,0.01-15.9,0.01c0.48-1.25,1.33-0.85,1.95-0.9
			c0.91-0.08,1.83-0.02,2.75-0.02c5.69,0,6.35-0.56,7.34-6.15c0.26-1.47-0.49-2.57-1.38-3.55c-0.66-0.72-1.52-1.26-2.34-1.92
			c-0.86,0.66-0.76,1.76-1.15,2.62c-0.25,0.54-0.44,1.12-1.11,1.22c-0.72,0.11-1.09-0.45-1.28-0.98c-1-2.78-2.61-5.49-1.6-8.61
			c0.51-1.58-0.11-2.76-0.97-3.92c-1.53-2.08-3.03-4.17-4.64-6.18c-2.46-3.06-3.14-6.62-2.99-10.52c0.17,7.78,6.13,12.34,9.94,18.16
			c-0.23-6.59-5.56-12.04-4.24-18.98c0.77,7.9,4.83,14.65,7.06,22.75c1.65-2.41,3.1-3.74,4.96-4.51c1.09-0.44,0.83-1.3,0.84-2.09
			c0.04-3.83-0.15-7.66,0.39-11.47c1.18-8.39,3.9-16.11,9.88-22.39c0.23-0.24,0.45-0.5,0.71-0.7c0.87-0.66,1.81-1.44,2.93-0.96
			c1.17,0.51,0.73,1.76,0.66,2.66c-0.51,6.22-1.23,12.42-1.15,18.68c0.01,0.41,0.05,0.82,0.08,1.27c1.2,0.19,1.6-0.82,2.17-1.41
			c3.31-3.41,6.82-6.59,10.55-9.54c2.8-2.22,6.02-3.48,9.54-3.98c1.79-0.26,2.6,0.4,1.76,2.27c-1.52,3.4-4.4,5.78-6.57,8.69
			c-4.5,6.07-9.05,12.09-12.84,18.65c-0.24,0.41-0.4,0.87-0.64,1.42c8.31,1.52,14.05,6.41,18.44,13.11c1.54,2.35,1.1,5.3-0.74,6.5
			c-0.58,0.37-1.26,0.76-1.86,0.41c-0.72-0.42-0.34-1.16-0.13-1.79c0.94-2.94,0.95-3.05-2.12-3.69
			C982.33,566.82,980.01,566.66,977.44,566.33z M990.26,523.48c0.04-1.27-0.85-1-1.55-0.87c-2.39,0.43-4.76,1.15-6.69,2.58
			c-9.01,6.67-16.8,14.6-23.43,23.63c-0.32,0.44-1.37,1.16-0.44,1.85c0.65,0.48,1.61,0.49,2.3-0.19c2.72-2.65,5.97-2.16,9.12-1.32
			c1.63,0.43,2.33,0.03,3.17-1.32c4.8-7.66,10.15-14.93,16.11-21.74C989.55,525.34,989.94,524.44,990.26,523.48z M967.36,516.02
			c0-0.62-0.15-1.14-0.54-1.19c-0.63-0.09-1.13,0.28-1.55,0.66c-3.07,2.78-5.21,6.21-6.94,9.92c-3.54,7.6-4.15,15.69-3.87,23.92
			c0.02,0.58-0.35,1.45,0.68,1.59c0.85,0.12,1.42-0.37,1.81-1.07c1.69-2.99,3.98-5.51,6.12-8.17c1.06-1.31,2.96-2.23,2.94-4.17
			C965.97,530.43,966.56,523.39,967.36,516.02z M955.9,562.7c3.36,0.04,5.38-0.66,7.66-2.53c2.59-2.12,2.57-6.11-0.25-7.29
			c-4.08-1.72-8.29-1.92-12.19,0.61c-2.89,1.87-3.01,5.2-0.55,7.6C952.19,562.66,954.26,562.36,955.9,562.7z M989.64,567.96
			c-2.2-4.48-5.31-7.23-8.49-9.89c-3.2-2.67-6.84-4.4-11.15-4.27c-1.97,0.06-3.24,1.91-2.91,4.24c0.35,2.48,1.97,1.09,3.01,0.86
			c1.96-0.42,3.49,0.05,4.52,1.74c0.55,0.91,0.96,1.94,1.26,2.97c0.42,1.43,1.35,1.94,2.75,2.05
			C982.17,565.95,985.69,566.39,989.64,567.96z M966.19,549.36c-1.21-0.2-2.3,0.27-3.4,0.58c-0.43,0.12-1.02,0.49-1.11,0.86
			c-0.21,0.84,0.7,0.69,1.14,0.95c0.77,0.47,1.59,0.86,2.3,1.41c1.25,0.97,4.9-0.09,5.46-1.59c0.39-1.05-0.3-1.4-1-1.59
			C968.48,549.68,967.33,549.56,966.19,549.36z M946.3,563.69c1.28-3.2,2.08-5.84,0.56-8.57c-0.34-0.61-0.93-1.39-1.72-1.23
			c-0.92,0.19-0.73,1.18-0.78,1.89C944.18,558.39,944.95,560.77,946.3,563.69z M971.25,559.53c-0.97,0.29-2.49,0.23-2.81,1.19
			c-0.35,1.09,0.95,1.78,1.89,2.27c1.1,0.58,2.25,1.07,3.41,1.53c0.44,0.18,1.01,0.29,1.24-0.36
			C975.49,562.78,972.85,559.47,971.25,559.53z M956.03,572.16c0.73,0.03,0.98-0.6,1.21-1.24c0.55-1.56,1.07-3.14,1.66-4.69
			c0.34-0.9,0.11-1.69-0.46-2.31c-0.68-0.74-1.85-0.74-1.87,0.27c-0.05,2.4-1.19,4.47-1.61,6.73
			C954.79,571.75,954.98,572.22,956.03,572.16z M953.59,565.41c-0.56,1.64-1.18,3.27-1.67,4.93c-0.17,0.57-1.01,1.44,0.3,1.79
			c0.86,0.22,1.43-0.17,1.7-1.03c0.51-1.67,1.05-3.32,1.56-4.99c0.29-0.97,0.05-1.87-0.72-2.48c-0.34-0.27-1.11-0.45-1.4-0.25
			C952.45,564,953.64,564.68,953.59,565.41z M961.7,565.88c-0.07-1.11-0.15-1.87-0.69-2.43c-0.18-0.19-0.57-0.23-0.87-0.24
			c-0.37,0-0.73,0.36-0.61,0.62c1.21,2.6-0.84,4.54-1.29,6.8c-0.1,0.52-0.55,1.16,0.28,1.45c0.59,0.2,1.2,0.06,1.42-0.61
			C960.59,569.51,961.19,567.53,961.7,565.88z"/>
	</g>
</g>
</svg>
