<?xml version="1.0" encoding="UTF-8"?>
<svg id="Layer_1" data-name="Layer 1" xmlns="http://www.w3.org/2000/svg" width="2000" height="2000" viewBox="0 0 184 79">
  <path d="M33.1,9c-.32,0,.01,0,.34,0,3.39,.09,3.76,.45,3.54,3.8-.82,12.71-1.06,25.44-.84,38.17,.07,4.15,.41,8.3,1.27,12.39,.74,3.51-1.71,6.21-5.09,5.24-8.12-2.33-16.14-1.63-24.18,.17-1.31,.29-2.62,.46-3.95,.06-1.26-.38-2.04-1.19-2.01-2.52,.03-1.28,.94-1.92,2.1-2.12,2.05-.35,4.18-.36,6.16-.93,4.8-1.37,9.53-2.98,13.81-5.66,3.75-2.34,5.83-5.63,5.59-10.14-.57-10.46-1.18-20.92-1.78-31.38-.05-.83-.11-1.66-.14-2.49q-.14-4.74,5.18-4.59Zm-12.11,56.39c3.73,.1,7.26,.61,10.73,1.53,3.19,.84,4.61-.47,4.03-3.73-.87-4.84-1.25-9.73-1.31-14.64-.14-11.65,.2-23.3,.94-34.93,.14-2.24-.49-3.1-2.88-3.07-2.28,.03-3.11,.67-2.95,3.02,.69,10.21,1.27,20.42,1.85,30.63,.19,3.4,.31,6.79-1.57,9.92-1.85,3.07-4.65,4.95-7.76,6.43-5.28,2.51-10.7,4.6-16.62,5.07-.62,.05-1.53-.03-1.46,.93,.06,.89,.94,.84,1.57,.82,.99-.03,2-.09,2.96-.31,4.15-.93,8.36-1.4,12.47-1.67Z"/>
  <path d="M172,45.42c-1.73,.85-2.38,2.11-3.46,2.85-1.07,.74-1.92,3.14-3.11,1.96-.98-.97,1.3-2.08,2.14-3.1,1-1.22,2.19-2.28,3.33-3.38,.86-.83,.86-1.35-.22-2.11-2.98-2.1-3.21-3.97-.72-6.45,.92-.92,.51-1.37-.12-2-1.35-1.36-2.71-2.71-4.05-4.08-.34-.35-.81-.8-.43-1.28,.52-.67,1.06-.15,1.48,.23,.8,.72,1.52,1.54,2.34,2.25,.78,.68,1.28,1.74,2.45,1.99,.62-.87,.35-1.81,.35-2.69,.03-5.83,.06-11.67,0-17.5-.03-2.32,.86-3.27,3.26-3.23,6.31,.12,5.39-.34,5.4,5.33,.04,17.16,.02,34.33,0,51.49,0,3.25-.09,3.33-3.39,3.35q-5.27,.04-5.27-5.31c0-5.98,0-11.97,0-18.34Zm7.35-6.14c0-8.74-.07-17.47,.05-26.21,.03-2.34-1.11-2.51-2.92-2.54-1.9-.02-2.87,.36-2.86,2.6,.08,17.22,.07,34.45,0,51.67,0,2.16,.82,2.67,2.79,2.67,2.02,0,3.02-.39,2.98-2.74-.12-8.48-.05-16.97-.05-25.46Z"/>
  <path d="M147.95,37.26c.21-4.68-.4-9.08-2.46-13.22-.28-.56-.87-1.41-.15-1.78,.89-.46,1.25,.57,1.56,1.19,3.04,6.05,3.14,12.53,2.46,19.04-.34,3.3-1.13,6.55-1.83,9.8-1.25,5.8,.8,10.65,5.87,13.83,.95,.6,3.01,1.13,2.22,2.3-.77,1.15-2.12-.56-3.1-1.15-3-1.83-5.12-4.46-6.48-7.7-.35-.83-.49-1.79-1.7-1.87-1.13-.08-1.62,.62-2.09,1.46-.35,.63-.73,1.74-1.5,1.34-1.06-.55-.11-1.5,.25-2.11,.88-1.49,.82-2.92,.41-4.54-2.13-8.36-3.58-16.78-1.52-25.4,.25-1.05,.51-2.11,.93-3.1,.74-1.76,2.42-3.48-.14-5.17-.26-.17-.43-.83-.32-1.15,1.01-2.96-.61-5.31-1.77-7.75-.75-1.57-.45-2.35,1.4-2.33,3,.02,6,.02,8.99,0,1.62-.01,2.1,.54,1.37,2.13-1.38,3.01-3.29,5.76-4.12,9.03-.37,1.48-2.12,1.88-2.88,3.3-2.96,5.58-2.93,11.54-2.63,17.54,.22,4.5,1.3,8.88,2.35,13.25,.19,.81,.26,2.07,1.49,1.97,1.14-.09,.82-1.29,.98-2.03,1.22-5.6,2.79-11.16,2.43-16.87Zm.36-25.61c.13-.88-.31-1.05-.87-1.05-2,0-4-.01-6,.02-.64,0-1.09,.21-.99,1.06,.23,2.05,3.08,4.72,5.06,4.18,1.94-.53,1.78-2.96,2.8-4.21Z"/>
  <path d="M129.25,61.63c0,1.75-.13,3.51,.04,5.24,.16,1.62-.58,2.08-1.97,2.16-1.38,.07-2-.55-1.94-1.92,.1-2.41,.04-4.83,.31-7.22,.15-1.38-.06-2.42-1.05-3.37-2.82-2.7-5.25-5.82-8.62-7.91-1.43-.88-1.74-2.1-1.56-3.62,1.31-11.3,2.64-22.61,3.87-33.92,.22-1.98,1.05-2.15,2.62-1.54,2.78,1.08,4.43,3.26,5.37,5.9,.66,1.86,1.1,3.88,1.19,5.84,.45,9.72,.74,19.44,1.11,29.16,.14,3.74,.36,7.47,.55,11.21,.02,0,.05,0,.07,0Zm-2.25-4.39c.68-3.09,.05-5.21-.03-7.32-.33-9.65-.67-19.3-1.1-28.94-.14-3.2-.82-6.3-3.33-8.62-.59-.54-1.14-1.39-2.11-1.02-1,.38-.72,1.38-.81,2.18-1.13,9.91-2.22,19.83-3.4,29.74-.26,2.15-.12,3.9,2.01,5.1,1.9,1.07,3.32,2.77,4.8,4.34,1.23,1.3,2.37,2.7,3.97,4.54Z"/>
  <path d="M76.44,69.1c-8.96-.26-17.51-.71-25.56-4.18-1.66-.71-4.26-1.38-4.28-2.87-.02-1.57,2.6-2.29,4.24-2.92,5.61-2.15,11.4-3.47,17.46-3.84,7.84-.47,15.63-.38,23.35,1.07,4.34,.81,8.58,2.07,12.44,4.33,.63,.37,1.59,.53,1.64,1.36,.05,.9-.94,1.06-1.56,1.39-5.74,3.09-11.96,4.52-18.38,5.14-3.23,.31-6.48,.36-9.35,.51Zm-27.82-7.01c2.97,1.64,5.63,2.55,8.35,3.29,8.55,2.35,17.3,2.26,26.03,1.84,6.24-.3,12.41-1.36,18.14-4.1,.51-.24,1.24-.39,1.3-1.03,.07-.71-.68-.87-1.18-1.1-1.13-.52-2.26-1.07-3.44-1.45-11.18-3.6-22.63-3.48-34.1-2.22-5.09,.56-10.1,1.89-15.1,4.77Z"/>
  <path d="M79.7,15.61c-.97-.53-1.57-1.48-2.09-2.38-1.16-2.01-2.2-1.92-3.34-.04-.17,.28-.39,.54-.56,.83-1.1,1.86-2.21,2.06-3.39,.06-.21-.36-.49-.68-.71-1.03-.98-1.58-1.98-1.96-3-.04-.04,.07-.08,.15-.13,.21-2.28,3.01-2.41,3.1-4.5-.01-1.4-2.09-2.32-1.96-3.45,.06-.28,.5-.73,.91-1.06,1.39-.84,1.26-1.53,1.17-2.48,0-2.67-3.31-2.71-3.28-4.93,.45-.21,.36-.4,.73-.64,1.07-.25,.37-.64,.63-1.06,.45-.47-.21-.42-.69-.2-1.07,1.17-2.01,2.31-4.05,3.57-6,.58-.9,1.12-.15,1.58,.31,1.06,1.06,1.58,3.17,2.89,3.23,1.35,.06,1.99-2,2.95-3.11,.89-1.03,1.59-1.01,2.33,.11,.23,.35,.53,.64,.78,.98q1.94,2.57,3.95-.06c1.85-2.42,1.89-2.42,3.67-.1q2.13,2.78,4.22,.05c1.78-2.33,1.87-2.33,3.71,.03q2.06,2.64,4.12-.08c1.65-2.18,1.91-2.18,3.63-.05,.37,.45,.74,.91,1.05,1.4,.71,1.14,1.31,1.15,2.22,.09,2.82-3.27,2.9-3.28,5.64-.14,.93,1.07,1.37,1.01,2.25-.06,2.96-3.59,3.09-3.59,5.3,.47,.67,1.23,2.81,2.85,1.32,3.85-1.09,.74-1.78-1.92-2.59-3.07-1.52-2.18-1.42-2.24-3.07,0q-2.09,2.83-4.2,.05-1.78-2.35-3.68,.12-2.02,2.61-4.12,.01c-1.98-2.45-1.95-2.42-3.9-.01-.6,.74-.85,1.87-2.08,2.06Z"/>
</svg>
