<?xml version="1.0" encoding="utf-8"?>
<!-- Generator: Adobe Illustrator 26.5.3, SVG Export Plug-In . SVG Version: 6.00 Build 0)  -->
<svg version="1.1" id="Layer_1" xmlns="http://www.w3.org/2000/svg" xmlns:xlink="http://www.w3.org/1999/xlink" width="2000" height="2000" x="0px" y="0px"
	 viewBox="0 0 1920 1080" style="enable-background:new 0 0 1920 1080;" xml:space="preserve">
<g>
	<g>
		<path d="M962.78,554.73c-0.95,0.11-1.77-0.49-2.51-1.71c-1.8-2.94-2.6-5.89-1.34-9.28c0.54-1.46,0.7-3.06,1.11-4.57
			c0.41-1.51,1.12-2.87,2.9-3c1.79-0.13,2.57,1.24,2.96,2.61c0.83,2.95,1.83,5.94,2,8.96c0.14,2.41-1.69,4.5-2.98,6.56
			C964.6,554.84,963.81,554.68,962.78,554.73z M962.96,547.7c0.95,0,1.89,0.02,2.84-0.01c0.76-0.02,1.12-0.41,0.94-1.2
			c-0.58-2.58-0.88-5.24-1.89-7.72c-0.33-0.82-0.8-1.65-1.89-1.57c-1.04,0.07-1.53,0.87-1.78,1.73c-0.48,1.63-0.87,3.29-1.23,4.95
			C958.99,548.25,958.83,547.69,962.96,547.7z M963.24,548.67c-4.31,0-4.15-0.38-2.31,3.39c0.47,0.96,0.93,1.71,2.22,1.73
			c1.33,0.01,1.69-0.88,2.16-1.79C967,548.67,967,548.67,963.24,548.67z"/>
	</g>
</g>
</svg>
