<?xml version="1.0" encoding="utf-8"?>
<!-- Generator: Adobe Illustrator 26.5.3, SVG Export Plug-In . SVG Version: 6.00 Build 0)  -->
<svg version="1.1" id="Layer_1" xmlns="http://www.w3.org/2000/svg" width="2000" height="2000" xmlns:xlink="http://www.w3.org/1999/xlink" x="0px" y="0px"
	 viewBox="0 0 1920 1080" style="enable-background:new 0 0 1920 1080;" xml:space="preserve">
<g>
	<g>
		<path d="M934.62,551.71c1.8,4.4,3.36,8.15,4.88,11.92c1.35,3.35,1.72,3.68,5.42,3.26c8.86-1,17.74-1.55,26.66-1.12
			c1.82,0.09,3.66,0.17,5.46,0.47c1.61,0.27,2.38,0.07,2.62-1.82c0.38-3.13,1.26-6.2,1.68-9.33c0.27-1.96,1.03-2.66,3.04-2.58
			c4.91,0.19,4.06-0.47,4.14,4.1c0.06,3.58,0.01,7.16,0.16,10.74c0.07,1.76-0.55,2.24-2.28,2.25c-14.57,0.07-29.13,0.29-43.7,0.31
			c-2.84,0-5.51,1.5-8.39,0.7c-0.56-0.15-1.15-0.16-1.72-0.27c-4.12-0.79-4.47-1.35-3.08-5.11
			C931.11,560.89,932.77,556.57,934.62,551.71z M982.36,568.93c0.01-0.27,0.03-0.54,0.04-0.81c-1.26-0.27-2.51-0.61-3.79-0.79
			c-11.39-1.62-22.75-0.72-34.1,0.48c-1.39,0.15-2.83-0.63-4.11,0.19c-1.5,0.95-3.13,1.07-4.8,0.9c-1.84-0.19-3.68-0.5-5.79-0.8
			c1.1,1.08,2.27,1.14,3.37,1.48c2.78,0.86,5.42-0.38,8.13-0.4c10.07-0.1,20.15-0.17,30.22-0.24
			C975.14,568.91,978.75,568.93,982.36,568.93z M987.66,560.97c-0.03,0-0.07,0-0.1,0c0-1.83-0.01-3.66,0-5.49
			c0.01-1.11,0.13-2.34-1.56-2.12c-1.37,0.18-3.32-0.91-3.67,1.71c-0.29,2.14-0.87,4.24-1.21,6.37c-1.04,6.36-1.95,4.82,4.5,6.59
			c1.44,0.39,2.19,0.2,2.07-1.55C987.56,564.64,987.66,562.8,987.66,560.97z M939,564.79c-1.44-3.51-2.76-6.7-4.35-10.56
			c-1.64,4.34-3.11,8.08-4.44,11.87c-0.38,1.08,0.84,1.02,1.43,1.3c0.55,0.26,1.56,0.04,1.31-0.53c-0.96-2.1,1.33-2.51,1.71-4.29
			C935.57,564.59,937.14,564.48,939,564.79z"/>
		<path d="M928.01,517.93c12.04-8.96,47.62-9,60.97-0.07C979.05,526.82,938.93,526.86,928.01,517.93z M958.32,523.65
			c0.91,0,1.83,0.02,2.74,0c7.51-0.15,14.96-0.76,22.03-3.58c1.33-0.53,3.57-0.78,3.51-2.19c-0.05-1.13-2.3-1.55-3.68-2.08
			c-7.17-2.76-14.68-3.49-22.27-3.61c-9.35-0.14-18.62,0.4-27.46,3.85c-1.17,0.46-3.07,0.73-3.09,2c-0.02,1.08,1.89,1.37,3.01,1.82
			C941.2,523.14,949.73,523.66,958.32,523.65z"/>
	</g>
</g>
</svg>
