<?xml version="1.0" encoding="utf-8"?>
<!-- Generator: Adobe Illustrator 26.5.3, SVG Export Plug-In . SVG Version: 6.00 Build 0)  -->
<svg version="1.1" id="Layer_1" xmlns="http://www.w3.org/2000/svg" width="2000" height="2000" xmlns:xlink="http://www.w3.org/1999/xlink" x="0px" y="0px"
	 viewBox="0 0 1920 1080" style="enable-background:new 0 0 1920 1080;" xml:space="preserve">
<g>
	<g>
		<path d="M937.71,529.31c1.53,3.83,3.27,7.65,4.58,11.62c0.83,2.53,2.32,2.88,4.55,2.58c7.67-1.03,15.36-1.77,23.12-1.35
			c2.49,0.14,4.99,0.22,7.44,0.6c1.4,0.22,1.92-0.05,2.15-1.45c0.55-3.28,1.38-6.51,1.83-9.8c0.24-1.73,0.96-2.31,2.58-2.16
			c0.83,0.07,1.67,0.06,2.5,0.01c1.21-0.07,1.56,0.5,1.56,1.64c0,4.33,0,8.65,0.15,12.98c0.06,1.86-0.75,2.16-2.37,2.17
			c-13.56,0.07-27.12,0.27-40.68,0.3c-2.97,0.01-5.84,1.45-8.86,0.5c-0.79-0.25-1.65-0.26-2.42-0.55c-1.69-0.62-2.78-1.23-1.7-3.59
			c1.89-4.14,3.22-8.53,4.79-12.81C937.03,529.74,937.05,529.35,937.71,529.31z M932.74,544.69c1.02,0.81,2.22,1.03,3.4,1.39
			c2.88,0.88,5.57-0.44,8.37-0.44c11.75-0.01,23.49-0.09,35.24-0.16c1.02-0.01,2.03-0.13,3.05-0.19c-1.77-1.1-3.61-1.45-5.49-1.69
			c-9.73-1.24-19.44-0.66-29.12,0.59c-2.35,0.3-4.6,0.69-6.47-1.39c-0.51-0.57-1.42-0.99-2.6-0.5c0.5,0.08,0.76,0.07,0.97,0.17
			c1.01,0.5,2.6,0.88,2.37,2.12c-0.16,0.88-1.78,0.83-2.83,0.91C937.28,545.67,935.04,545.03,932.74,544.69z M987.31,537.55
			c-0.05,0-0.1,0-0.16,0c0-1.74,0-3.49,0-5.23c0-1.07,0.21-2.32-1.52-2.17c-1.36,0.12-3.13-0.65-3.48,1.68
			c-0.3,2.05-0.73,4.08-1.13,6.11c-1.1,5.6-1.1,5.56,4.57,6.72c1.35,0.28,1.81,0.03,1.73-1.4
			C987.24,541.36,987.31,539.45,987.31,537.55z M937.78,531.77c-0.22,0.02-0.43,0.03-0.65,0.05c-1.25,3.49-2.49,6.98-3.75,10.47
			c-0.19,0.52-0.66,1.1,0.23,1.39c0.61,0.2,1.33,0.51,1.87,0.34c0.66-0.2,0.46-0.85,0.16-1.45c-0.75-1.45,1.09-1.35,1.4-2.2
			c0.15-0.4,0.54-0.8,0.87-0.26c0.82,1.35,2.19,0.71,3.74,1.59C940.19,537.98,938.98,534.88,937.78,531.77z"/>
	</g>
</g>
</svg>
