<?xml version="1.0" encoding="UTF-8"?>
<svg id="Layer_1" data-name="Layer 1" xmlns="http://www.w3.org/2000/svg" width="2000" height="2000" viewBox="0 0 143 75">
  <path d="M29.69,23.88c2.67,0,5.34-.1,8,.02,4.55,.2,8.95-.34,13.28-1.78,3.63-1.21,7.41-.89,11.15-.5,1.04,.11,2.28,.44,2.14-1.1-.14-1.52,1.28-4.37-1.29-4.33-8.54,.14-16.23-3.53-24.43-4.8-3.77-.58-7.47,.33-11.21,.35-1.41,0-2.81,.01-4.22-.08-.62-.04-1.48-.2-1.56,.76-.07,.82,.68,1.14,1.31,1.29,.72,.17,1.49,.16,2.23,.17,3.92,.03,7.83,.03,11.75,.05,.5,0,1.01-.01,1.49,.09,.68,.15,1.82,.07,1.7,1.02-.11,.94-1.21,.58-1.89,.58-8.17,0-16.33-.05-24.5-.01-3.13,.01-4.79,2.51-3.45,4.95,.59,1.06,1.61,1.37,2.64,1.71,.51,.17,1.4,.08,1.14,.93-.19,.64-.99,.46-1.55,.4-2.46-.25-4.03-2.03-4.08-4.56-.05-2.64,1.6-4.71,4.23-5.02,1.65-.2,3.33-.16,4.99-.11,1.32,.03,2.21-.15,2.3-1.79,.09-1.48,1.24-2.27,2.62-2.08,4.67,.64,9.29-.31,13.95-.25,4.1,.05,7.93,1.06,11.7,2.33,4.97,1.67,10.03,2.42,15.23,2.23,2.07-.08,2.95,.68,2.69,2.74-.01,.08,0,.17,0,.25q-.03,6.01-5.92,5.76c-3.59-.16-7.15-.13-10.62,1.08-3.51,1.23-7.14,1.43-10.84,1.38-7.25-.09-14.5-.03-21.75-.03-.33,0-.67,.03-1-.01-.86-.11-2.31,.2-2.29-.86,.02-1.19,1.46-.71,2.28-.72,4.58-.05,9.17-.03,13.75-.03Z"/>
  <path d="M121.82,27.29c4.58,4.18,5.93,9.29,6.7,14.62,.47,3.21,.72,6.45,1.15,9.66,.49,3.64,1.97,6.85,4.37,9.64,.49,.57,1.69,1.29,.89,1.99-.9,.79-1.57-.51-2.12-1.1-3.1-3.3-4.29-7.39-4.93-11.77-.72-4.92-.69-9.96-2.42-14.73-2.33-6.41-6.88-9.5-13.7-10.09-10.06-.88-19.9,1.01-29.82,1.83-1.72,.14-3.34,.07-4.84-.74-1.94-1.05-2.74-2.72-1.97-4.82,.6-1.63,1.49-3.16,2.28-4.71,.22-.44,.57-.98,1.13-.73,.77,.35,.35,1,.13,1.5-.44,.99-.97,1.93-1.42,2.92-1.5,3.29-.27,5.27,3.37,5.07,3.73-.21,7.45-.69,11.16-1.18,12.7-1.69,25.21-1.3,37.4,3.08,.62,.22,1.25,.46,1.85,.74,.38,.18,.72,.51,.58,.99-.21,.7-.76,.48-1.22,.32-2.66-.9-5.27-1.97-8.55-2.48Z"/>
  <path d="M8.01,58c0-2.99,.04-5.99-.01-8.98-.03-1.8,.76-2.55,2.55-2.53,4.49,.05,8.98,.04,13.47,0,1.76-.01,2.58,.73,2.57,2.54-.04,6.07-.04,12.14,0,18.21,.01,1.85-.8,2.46-2.58,2.43-4.49-.07-8.98-.1-13.47,.01-2.05,.05-2.59-.89-2.55-2.71,.06-2.99,.02-5.99,.02-8.98Zm1.62-.04c0,2.58,.04,5.16-.02,7.74-.04,1.54,.49,2.32,2.14,2.3,3.66-.05,7.32-.05,10.98,0,1.61,.02,2.21-.69,2.2-2.26-.04-5.16-.04-10.32,0-15.48,0-1.44-.49-2.14-2.03-2.12-3.74,.06-7.49,.05-11.23,0-1.51-.02-2.09,.6-2.06,2.08,.06,2.58,.02,5.16,.01,7.74Z"/>
  <path d="M51.38,69.65c-4.07,0-8.15-.04-12.22,.02-1.95,.03-2.63-.67-2.39-2.71,.69-5.98,5.7-11.27,11.6-12.03,6.94-.89,13.08,2.67,15.38,8.82,.58,1.54,.61,3.2,1.61,4.66,.91,1.33-.57,1.2-1.27,1.21-4.24,.04-8.48,.02-12.72,.02Zm-.87-1.66c3.4,0,6.81-.02,10.21,0,1.56,.01,2.34-.5,2.04-2.23-.91-5.11-6.44-9.54-11.93-9.49-5.92,.05-11.22,4.2-12.27,9.43-.37,1.86,.24,2.36,1.99,2.31,3.32-.08,6.64-.02,9.96-.03Z"/>
</svg>
