<svg xmlns="http://www.w3.org/2000/svg" width="2000" height="2000" viewBox="0 0 66 41" version="1.1"><path d="M 9.597 14.166 C 8.413 15.855, 8 18.845, 8 25.723 L 8 35 31 35 L 54 35 54 24.622 C 54 16.770, 53.647 13.952, 52.548 13.040 C 50.112 11.018, 47.236 12.844, 44.030 18.447 C 40.312 24.947, 36.908 27.333, 31.360 27.333 C 25.771 27.333, 22.778 25.182, 18.741 18.260 C 14.951 11.763, 12.156 10.512, 9.597 14.166 M 11.250 13.662 C 10.368 14.018, 10 17.086, 10 24.083 L 10 34 31.500 34 L 53 34 53 24.622 C 53 17.136, 52.668 14.969, 51.353 13.878 C 49.916 12.686, 49.440 12.881, 47.603 15.419 C 40.421 25.345, 39.219 26.569, 35.323 27.930 C 31.660 29.209, 30.752 29.177, 26.693 27.627 C 22.924 26.187, 21.474 24.805, 18.115 19.447 C 14.107 13.056, 13.669 12.686, 11.250 13.662" stroke="none" fill="#4a4a50" fill-rule="evenodd"/><path d="M 0 20.513 L 0 41.027 33.250 40.763 L 66.500 40.500 66.771 20.250 L 67.041 0 33.521 0 L 0 0 0 20.513 M 0.422 21 C 0.422 32.275, 0.568 36.888, 0.746 31.250 C 0.924 25.612, 0.924 16.388, 0.746 10.750 C 0.568 5.112, 0.422 9.725, 0.422 21 M 9.597 14.166 C 8.413 15.855, 8 18.845, 8 25.723 L 8 35 31 35 L 54 35 54 24.622 C 54 16.770, 53.647 13.952, 52.548 13.040 C 50.112 11.018, 47.236 12.844, 44.030 18.447 C 40.312 24.947, 36.908 27.333, 31.360 27.333 C 25.771 27.333, 22.778 25.182, 18.741 18.260 C 14.951 11.763, 12.156 10.512, 9.597 14.166 M 11.250 13.662 C 10.368 14.018, 10 17.086, 10 24.083 L 10 34 31.500 34 L 53 34 53 24.622 C 53 17.136, 52.668 14.969, 51.353 13.878 C 49.916 12.686, 49.440 12.881, 47.603 15.419 C 40.421 25.345, 39.219 26.569, 35.323 27.930 C 31.660 29.209, 30.752 29.177, 26.693 27.627 C 22.924 26.187, 21.474 24.805, 18.115 19.447 C 14.107 13.056, 13.669 12.686, 11.250 13.662" stroke="none" fill="#f7f7f7" fill-rule="evenodd"/></svg>
