<?xml version="1.0" encoding="utf-8"?>
<!-- Generator: Adobe Illustrator 26.5.3, SVG Export Plug-In . SVG Version: 6.00 Build 0)  -->
<svg version="1.1" id="Layer_1" xmlns="http://www.w3.org/2000/svg" xmlns:xlink="http://www.w3.org/1999/xlink" x="0px" y="0px"
	 viewBox="0 0 1920 1080" style="enable-background:new 0 0 1920 1080;" xml:space="preserve">
<g>
	<g>
		<path d="M958.98,549.65c-4.58,0-9.16-0.06-13.74,0.03c-1.99,0.04-2.91-0.55-2.84-2.68c0.11-3.24,0.02-6.5,0.04-9.75
			c0.01-2.01,0.76-3.7,2.82-4.21c1.95-0.48,2.93,0.94,3.89,2.43c1.81,2.81,2.8,6.25,6.36,7.72c3.7,1.52,8.16,0.57,10.52-2.69
			c1.26-1.75,2.29-3.66,3.43-5.51c0.84-1.36,1.89-2.43,3.65-1.94c1.74,0.48,2.55,1.71,2.53,3.54c-0.03,3.58-0.06,7.16,0.01,10.75
			c0.03,1.77-0.79,2.32-2.44,2.31C968.48,549.62,963.73,549.65,958.98,549.65z M959,548.42c4.32,0,8.65,0,12.97,0
			c1.21,0,2.43,0.01,2.43-1.71c-0.01-3.49,0-6.98-0.04-10.48c-0.01-0.99-0.51-1.77-1.55-2c-0.95-0.2-1.6,0.32-2.07,1.07
			c-1.09,1.77-2.09,3.59-3.23,5.33c-4.06,6.17-13.02,6.04-16.91-0.22c-0.88-1.41-1.72-2.85-2.56-4.28c-0.59-1-1.04-2.29-2.55-1.85
			c-1.51,0.44-1.87,1.69-1.85,3.16c0.04,2.83,0.11,5.66-0.02,8.48c-0.1,2.05,0.79,2.57,2.66,2.53
			C950.52,548.36,954.76,548.43,959,548.42z"/>
	</g>
</g>
</svg>
