<?xml version="1.0" encoding="utf-8"?>
<!-- Generator: Adobe Illustrator 26.5.3, SVG Export Plug-In . SVG Version: 6.00 Build 0)  -->
<svg version="1.1" id="Layer_1" xmlns="http://www.w3.org/2000/svg" xmlns:xlink="http://www.w3.org/1999/xlink" x="0px" y="0px"
	 viewBox="0 0 1920 1080" style="enable-background:new 0 0 1920 1080;" xml:space="preserve">
<g>
	<g>
		<path d="M957.33,554.24c3.49-6.68,0.13-12.62-1.52-18.74c-0.38-1.42-1.32-0.9-2.17-0.51c-3.57,1.61-7.15,3.18-10.69,4.85
			c-1.4,0.66-2.84,1.02-4.34,0.97c-2.19-0.07-3.42-2.19-2.05-3.86c3.78-4.61,6.83-9.88,11.8-13.44c0.89-0.63,1.79-1.43,2.9-1.33
			c3.5,0.32,4.09-2.35,5.02-4.69c0.24-0.61,0.25-1.32,0.51-1.92c1.85-4.36,5.19-5.87,9.46-4.31c3.77,1.38,5.46,5.52,4.07,10.02
			c-0.15,0.48-0.32,0.96-0.58,1.38c-1.19,2.01-0.97,3.34,1.56,3.97c1.78,0.45,2.48,2.22,3.29,3.6c2.98,5.07,5.11,10.48,4.93,16.48
			c-0.08,2.56-0.58,5.12-1.02,7.66c-0.21,1.26-0.3,2.43,0.11,3.67c0.32,0.97,0.41,2.25-0.53,2.73c-0.94,0.48-1.75,1.9-3.06,1.14
			c-1.28-0.75-0.74-2.02-0.6-3.17c0.82-7.05,1.23-14.07-1.47-20.87c-0.21-0.53-0.23-1.29-0.93-1.32c-0.75-0.04-0.8,0.72-0.96,1.26
			c-1.93,6.69-3.24,13.43-1.7,20.4c0.4,1.8-0.03,3.5-0.46,5.17c-0.42,1.63,0.09,2.56,1.51,3.2c1.51,0.68,2.88,1.68,4.61,1.83
			c0.83,0.07,1.49,0.61,1.43,1.45c-0.06,0.95-0.98,0.72-1.59,0.72c-1.41,0-2.96,0.27-4.22-0.19c-6.73-2.47-13.52-0.88-20.29-0.56
			c-2.16,0.1-4.31,0.53-6.42-0.26c-0.78-0.29-1.46,0.02-2.17,0.25c-0.87,0.28-1.75,0.66-2.64,0.71c-1.07,0.06-2.61,0.71-3.03-0.81
			c-0.46-1.68,1.22-1.64,2.25-2c1.51-0.53,3.03-0.95,3.25-2.97c0.06-0.58,0.57-1.32,1.08-1.62c2.41-1.39,2.08-3.4,1.55-5.6
			c-0.62-2.59-1.1-5.21-1.59-7.83c-0.33-1.74-0.07-3.4,1.42-4.51c1.42-1.05,2.88-0.3,4.23,0.36
			C952.25,547.49,954.75,550.97,957.33,554.24z M940.32,537.34c-0.13-0.17-0.25-0.34-0.38-0.51c3.03-3.51,6.06-7.03,9.1-10.54
			c0.52-0.6,1.22-0.83,2-0.9c0.9-0.09,1.88-0.04,2.39-1.01c0.07-0.13-0.11-0.55-0.24-0.58c-0.99-0.26-1.98-0.25-2.89,0.29
			c-0.29,0.17-0.57,0.35-0.84,0.54c-4.8,3.38-7.65,8.5-11.38,12.83c-0.83,0.96-0.23,1.8,0.98,1.82c0.8,0.01,1.66-0.24,2.41-0.56
			c3.59-1.55,7.13-3.22,10.74-4.73c4.22-1.76,4.11-1.66,5.57,2.7c1.87,5.56,3.73,11.06,1.76,16.99c-0.4,1.21,0.12,1.54,1.24,1.2
			c1.51-0.46,3-1.19,4.54-1.34c1.88-0.18,2.17-1.16,2.05-2.67c-0.4-5.03,1.3-9.69,2.54-14.43c0.25-0.96,0.78-1.75,1.81-1.83
			c1.1-0.08,2.02,0.57,2.31,1.58c1.11,3.9,3.06,7.65,2.54,11.86c-0.31,2.45,0.08,4.83,0.12,7.05c2.13-6.99,1.58-14-1.52-20.75
			c-1.41-3.07-2.76-6.33-6.67-7.12c-3.53-0.72-5.7-4.5-4.4-7.95c-2.36,0.63-3.27-2.82-6.07-1.78c0.99,0.55,2.5,0.45,2.3,1.69
			c-0.22,1.33-1.42,0.68-2.27,0.66c-1.17-0.03-1.52,0.54-1.06,1.58c0.43,0.97,0.77,1.96,2.15,2.14c1.6,0.2,1.8,1.66,1.79,2.88
			c-0.01,1.36-1.02,2.03-2.35,2.09c-1.21,0.05-2.25,0.43-3.22,1.18C950.8,533.19,945.3,534.74,940.32,537.34z M967.91,559.75
			c-0.01-0.18-0.02-0.6-0.07-1.01c-0.5-4.01-0.82-4.21-4.72-3c-5.39,1.68-10.56,3.93-15.65,6.35c-0.61,0.29-1.72,0.46-1.33,1.44
			c0.36,0.89,1.08,1.76,2.23,1.72c0.65-0.02,1.28-0.33,1.93-0.46c3.76-0.77,7.49-1.29,11.32-0.09
			C966.34,566.19,967.91,564.93,967.91,559.75z M969.14,518.13c0.01-4.55-4.28-7.38-8.34-5.33c-0.83,0.42-1.63,1.02-1.68,2
			c-0.05,0.99,1.04,0.87,1.64,1.22c0.71,0.42,1.41,1.01,2.18,1.15c2.58,0.48,3.8,1.42,2.26,4.19c-0.63,1.13,0.61,2.1,1.42,2.58
			c1.16,0.68,1.15-0.71,1.51-1.34C968.89,521.26,969.03,519.77,969.14,518.13z M948.86,559.64c2.42-1.03,4.54-1.94,6.67-2.82
			c0.94-0.39,1.09-0.92,0.48-1.7c-1.94-2.48-3.75-5.08-6.3-7.01c-0.57-0.43-1.24-1.14-1.97-0.52c-0.71,0.61-1.02,1.46-0.47,2.46
			C948.86,552.91,949.16,556.02,948.86,559.64z M970.59,568.64c-1.52-0.45-2.32-2.57-4.11-1.97c-1.64,0.55-3.14,0.24-4.62-0.28
			c-3.78-1.32-7.59-1.02-11.29,0c-2.23,0.62-3.97,0.95-5.37-1.3c-0.32-0.52-0.89-1.14-1.65-0.53c-0.65,0.53-0.78,1.23-0.44,2.02
			c0.52,1.2,1.46,1.81,2.74,1.8c1.99-0.03,3.98-0.16,5.97-0.23C958.07,567.9,964.37,566.33,970.59,568.64z M946.09,532.42
			c2.79-0.55,5.24-1.69,7.48-3.3c1-0.72,1.89-1.61,3.11-2.04c0.84-0.3,2.43,0.33,2.38-1.09c-0.04-1.34-1.72-0.52-2.47-1.1
			c-0.88-0.68-1.3-0.15-1.78,0.53c-0.43,0.62-0.99,1.14-1.82,1.19C949.26,526.81,948.15,530.16,946.09,532.42z M946.76,559.95
			c0.7-2.75,0.98-5.44-0.34-7.99c-0.77-1.5-1.62-2.94-0.48-4.63c0.22-0.33,0.33-0.85-0.24-0.99c-0.26-0.06-0.63,0.13-0.88,0.31
			c-0.5,0.37-0.73,0.93-0.67,1.54C944.53,552.21,945.59,556.08,946.76,559.95z"/>
	</g>
</g>
</svg>
