<svg xmlns="http://www.w3.org/2000/svg" width="2000" height="2000" viewBox="0 0 57 67" version="1.1"><path d="M 27.227 13.250 C 26.667 13.938, 25.538 16.121, 24.717 18.102 C 23.595 20.813, 22.474 21.855, 20.191 22.312 C 18.045 22.741, 15.668 24.758, 12.075 29.199 C 9.280 32.653, 7.144 35.934, 7.329 36.490 C 7.985 38.458, 11.269 38.152, 16.974 35.592 C 20.151 34.167, 23.211 33, 23.775 33 C 25.879 33, 28.275 48, 26.468 49.856 C 26.277 50.052, 24.364 48.364, 22.216 46.106 C 18.175 41.858, 14.407 40.775, 13.341 43.553 C 13.013 44.407, 13.244 47.588, 13.853 50.621 C 14.867 55.670, 14.778 56.381, 12.799 59.057 C 11.611 60.665, 9.820 62.240, 8.819 62.557 C 5.421 63.636, 6.883 65.193, 10.750 64.614 C 16.925 63.690, 33.165 63.602, 38.250 64.465 C 43.821 65.411, 44.656 64.001, 39.607 62.175 L 36.214 60.948 36.434 50.224 C 36.561 44.053, 37.211 38.226, 37.967 36.500 L 39.280 33.500 40.704 38 C 41.612 40.869, 41.977 45.144, 41.712 49.795 C 41.352 56.084, 41.516 57.048, 42.897 56.783 C 44.128 56.548, 44.683 54.600, 45.290 48.381 C 45.968 41.422, 45.793 39.521, 44.037 34.829 C 42.030 29.466, 39.278 25.593, 36.913 24.804 C 36 24.500, 35.986 23.894, 36.857 22.268 C 38.537 19.128, 38.251 15.538, 36.171 13.655 C 34.018 11.706, 28.681 11.464, 27.227 13.250 M 28.075 14.410 C 27.122 15.558, 27.471 15.945, 29.952 16.490 C 32.942 17.146, 33.395 17.825, 33.067 21.161 C 32.792 23.963, 34.639 24.089, 35.885 21.354 C 37.118 18.646, 36.511 15.014, 34.615 13.765 C 32.786 12.560, 29.327 12.901, 28.075 14.410 M 27.446 17.902 C 29.303 18.629, 29.292 18.690, 27.192 19.239 C 24.772 19.872, 25.117 23, 27.607 23 C 28.373 23, 29 23.900, 29 25 C 29 26.202, 28.333 27, 27.329 27 C 26.410 27, 24.947 27.636, 24.079 28.413 C 23.210 29.190, 19.909 30.966, 16.742 32.361 C 11.994 34.452, 11.147 34.599, 11.910 33.198 C 13.044 31.118, 18.775 25.683, 21.500 24.105 C 23.392 23.009, 23.368 22.961, 21.061 23.223 C 17.990 23.572, 6.758 36.330, 9.121 36.785 C 9.957 36.946, 13.722 35.695, 17.487 34.006 C 21.253 32.316, 24.668 31.286, 25.076 31.717 C 26.802 33.537, 28.802 43.057, 28.279 46.958 L 27.722 51.108 30.611 50.416 C 34.767 49.420, 35 49.187, 35 46.017 C 35 44.442, 35.527 40.868, 36.172 38.076 C 38.375 28.533, 42.781 33.684, 43.115 46.193 L 43.230 50.500 44.054 46.500 C 44.625 43.732, 44.414 40.841, 43.371 37.110 C 41.463 30.293, 39.401 27.139, 36.351 26.373 C 34.013 25.786, 31.321 22.375, 31.825 20.638 C 32.163 19.472, 28.863 17.054, 27 17.102 C 26.024 17.127, 26.180 17.407, 27.446 17.902 M 23.500 25 C 23.160 25.550, 22.093 26, 21.129 26 C 20.165 26, 18.359 27.376, 17.116 29.057 L 14.856 32.114 18.860 30.071 C 21.062 28.948, 23.146 27.572, 23.491 27.014 C 23.836 26.456, 24.991 26, 26.059 26 C 27.127 26, 28 25.550, 28 25 C 28 24.450, 27.127 24, 26.059 24 C 24.991 24, 23.840 24.450, 23.500 25 M 14.491 44.014 C 14.146 44.572, 14.449 47.610, 15.164 50.764 C 16.450 56.438, 16.467 56.459, 16.796 52.680 C 16.979 50.579, 16.642 48.274, 16.047 47.557 C 15.452 46.840, 15.246 45.521, 15.590 44.627 C 16.276 42.839, 15.489 42.401, 14.491 44.014 M 17.601 49.250 C 17.969 52.138, 18.352 54.605, 18.451 54.733 C 18.851 55.248, 25 52.509, 25 51.816 C 25 50.665, 18.913 44, 17.862 44 C 17.321 44, 17.211 46.197, 17.601 49.250 M 27.945 52.450 C 22.581 54.427, 16 57.940, 16 58.827 C 16 59.260, 20.119 59.584, 25.153 59.547 C 33.247 59.488, 34.383 59.258, 34.979 57.559 C 36.013 54.612, 34.983 50.991, 33.133 51.070 C 32.235 51.109, 29.900 51.730, 27.945 52.450 M 43 54.500 C 43 54.775, 43.225 55, 43.500 55 C 43.775 55, 44 54.775, 44 54.500 C 44 54.225, 43.775 54, 43.500 54 C 43.225 54, 43 54.225, 43 54.500 M 13.559 59.904 C 11.712 62.894, 17.580 63.799, 28 62.132 L 32.500 61.412 28.848 60.679 C 26.839 60.276, 23.391 60.351, 21.186 60.847 C 18.080 61.545, 16.845 61.417, 15.707 60.278 C 14.694 59.266, 14.026 59.149, 13.559 59.904 M 34 62 C 35.958 63.266, 37.282 63.266, 36.500 62 C 36.160 61.450, 35.121 61.007, 34.191 61.015 C 32.734 61.029, 32.707 61.165, 34 62 M 38 63.500 C 38 63.775, 38.225 64, 38.500 64 C 38.775 64, 39 63.775, 39 63.500 C 39 63.225, 38.775 63, 38.500 63 C 38.225 63, 38 63.225, 38 63.500" stroke="none" fill="#636469" fill-rule="evenodd"/><path d="M 0 33.515 L 0 67.031 28.750 66.765 L 57.500 66.500 57.763 33.250 L 58.027 0 29.013 0 L 0 0 0 33.515 M 0.448 34 C 0.448 52.425, 0.583 59.963, 0.748 50.750 C 0.913 41.537, 0.913 26.463, 0.748 17.250 C 0.583 8.037, 0.448 15.575, 0.448 34 M 27.227 13.250 C 26.667 13.938, 25.538 16.121, 24.717 18.102 C 23.595 20.813, 22.474 21.855, 20.191 22.312 C 18.045 22.741, 15.668 24.758, 12.075 29.199 C 9.280 32.653, 7.144 35.934, 7.329 36.490 C 7.985 38.458, 11.269 38.152, 16.974 35.592 C 20.151 34.167, 23.211 33, 23.775 33 C 25.879 33, 28.275 48, 26.468 49.856 C 26.277 50.052, 24.364 48.364, 22.216 46.106 C 18.175 41.858, 14.407 40.775, 13.341 43.553 C 13.013 44.407, 13.244 47.588, 13.853 50.621 C 14.867 55.670, 14.778 56.381, 12.799 59.057 C 11.611 60.665, 9.820 62.240, 8.819 62.557 C 5.421 63.636, 6.883 65.193, 10.750 64.614 C 16.925 63.690, 33.165 63.602, 38.250 64.465 C 43.821 65.411, 44.656 64.001, 39.607 62.175 L 36.214 60.948 36.434 50.224 C 36.561 44.053, 37.211 38.226, 37.967 36.500 L 39.280 33.500 40.704 38 C 41.612 40.869, 41.977 45.144, 41.712 49.795 C 41.352 56.084, 41.516 57.048, 42.897 56.783 C 44.128 56.548, 44.683 54.600, 45.290 48.381 C 45.968 41.422, 45.793 39.521, 44.037 34.829 C 42.030 29.466, 39.278 25.593, 36.913 24.804 C 36 24.500, 35.986 23.894, 36.857 22.268 C 38.537 19.128, 38.251 15.538, 36.171 13.655 C 34.018 11.706, 28.681 11.464, 27.227 13.250 M 28.075 14.410 C 27.122 15.558, 27.471 15.945, 29.952 16.490 C 32.942 17.146, 33.395 17.825, 33.067 21.161 C 32.792 23.963, 34.639 24.089, 35.885 21.354 C 37.118 18.646, 36.511 15.014, 34.615 13.765 C 32.786 12.560, 29.327 12.901, 28.075 14.410 M 27.446 17.902 C 29.303 18.629, 29.292 18.690, 27.192 19.239 C 24.772 19.872, 25.117 23, 27.607 23 C 28.373 23, 29 23.900, 29 25 C 29 26.202, 28.333 27, 27.329 27 C 26.410 27, 24.947 27.636, 24.079 28.413 C 23.210 29.190, 19.909 30.966, 16.742 32.361 C 11.994 34.452, 11.147 34.599, 11.910 33.198 C 13.044 31.118, 18.775 25.683, 21.500 24.105 C 23.392 23.009, 23.368 22.961, 21.061 23.223 C 17.990 23.572, 6.758 36.330, 9.121 36.785 C 9.957 36.946, 13.722 35.695, 17.487 34.006 C 21.253 32.316, 24.668 31.286, 25.076 31.717 C 26.802 33.537, 28.802 43.057, 28.279 46.958 L 27.722 51.108 30.611 50.416 C 34.767 49.420, 35 49.187, 35 46.017 C 35 44.442, 35.527 40.868, 36.172 38.076 C 38.375 28.533, 42.781 33.684, 43.115 46.193 L 43.230 50.500 44.054 46.500 C 44.625 43.732, 44.414 40.841, 43.371 37.110 C 41.463 30.293, 39.401 27.139, 36.351 26.373 C 34.013 25.786, 31.321 22.375, 31.825 20.638 C 32.163 19.472, 28.863 17.054, 27 17.102 C 26.024 17.127, 26.180 17.407, 27.446 17.902 M 23.500 25 C 23.160 25.550, 22.093 26, 21.129 26 C 20.165 26, 18.359 27.376, 17.116 29.057 L 14.856 32.114 18.860 30.071 C 21.062 28.948, 23.146 27.572, 23.491 27.014 C 23.836 26.456, 24.991 26, 26.059 26 C 27.127 26, 28 25.550, 28 25 C 28 24.450, 27.127 24, 26.059 24 C 24.991 24, 23.840 24.450, 23.500 25 M 14.491 44.014 C 14.146 44.572, 14.449 47.610, 15.164 50.764 C 16.450 56.438, 16.467 56.459, 16.796 52.680 C 16.979 50.579, 16.642 48.274, 16.047 47.557 C 15.452 46.840, 15.246 45.521, 15.590 44.627 C 16.276 42.839, 15.489 42.401, 14.491 44.014 M 17.601 49.250 C 17.969 52.138, 18.352 54.605, 18.451 54.733 C 18.851 55.248, 25 52.509, 25 51.816 C 25 50.665, 18.913 44, 17.862 44 C 17.321 44, 17.211 46.197, 17.601 49.250 M 27.945 52.450 C 22.581 54.427, 16 57.940, 16 58.827 C 16 59.260, 20.119 59.584, 25.153 59.547 C 33.247 59.488, 34.383 59.258, 34.979 57.559 C 36.013 54.612, 34.983 50.991, 33.133 51.070 C 32.235 51.109, 29.900 51.730, 27.945 52.450 M 43 54.500 C 43 54.775, 43.225 55, 43.500 55 C 43.775 55, 44 54.775, 44 54.500 C 44 54.225, 43.775 54, 43.500 54 C 43.225 54, 43 54.225, 43 54.500 M 13.559 59.904 C 11.712 62.894, 17.580 63.799, 28 62.132 L 32.500 61.412 28.848 60.679 C 26.839 60.276, 23.391 60.351, 21.186 60.847 C 18.080 61.545, 16.845 61.417, 15.707 60.278 C 14.694 59.266, 14.026 59.149, 13.559 59.904 M 34 62 C 35.958 63.266, 37.282 63.266, 36.500 62 C 36.160 61.450, 35.121 61.007, 34.191 61.015 C 32.734 61.029, 32.707 61.165, 34 62 M 38 63.500 C 38 63.775, 38.225 64, 38.500 64 C 38.775 64, 39 63.775, 39 63.500 C 39 63.225, 38.775 63, 38.500 63 C 38.225 63, 38 63.225, 38 63.500" stroke="none" fill="#f5f5f5" fill-rule="evenodd"/></svg>
