<svg xmlns="http://www.w3.org/2000/svg" width="93" height="48" viewBox="0 0 93 48" version="1.1"><path d="M 9.228 24.230 C 4.448 26.534, 5.175 32.726, 10.602 35.927 C 13.937 37.896, 15.573 38, 43.057 38 C 60.767 38, 72 37.630, 72 37.045 C 72 36.520, 73.125 34.966, 74.500 33.591 C 77.641 30.450, 77.651 28.561, 74.545 25.455 L 72.091 23 41.795 23.068 C 22.036 23.112, 10.710 23.516, 9.228 24.230 M 9.046 26.445 C 7.269 28.586, 8.182 32.361, 10.750 33.487 C 11.988 34.030, 13 34.818, 13 35.237 C 13 35.657, 25.822 36, 41.492 36 C 69.337 36, 70.042 35.950, 72.492 33.820 C 75.368 31.319, 75.689 28.832, 73.429 26.571 C 72.068 25.211, 67.723 25, 41.051 25 C 15.409 25, 10.044 25.242, 9.046 26.445" stroke="none" fill="#828488" fill-rule="evenodd"/><path d="M 0 24.010 L 0 48.020 46.750 47.760 L 93.500 47.500 93.768 23.750 L 94.036 0 47.018 0 L 0 0 0 24.010 M 0.431 24.500 C 0.432 37.700, 0.574 42.962, 0.747 36.193 C 0.921 29.424, 0.920 18.624, 0.746 12.193 C 0.572 5.762, 0.431 11.300, 0.431 24.500 M 9.228 24.230 C 4.448 26.534, 5.175 32.726, 10.602 35.927 C 13.937 37.896, 15.573 38, 43.057 38 C 60.767 38, 72 37.630, 72 37.045 C 72 36.520, 73.125 34.966, 74.500 33.591 C 77.641 30.450, 77.651 28.561, 74.545 25.455 L 72.091 23 41.795 23.068 C 22.036 23.112, 10.710 23.516, 9.228 24.230 M 9.046 26.445 C 7.269 28.586, 8.182 32.361, 10.750 33.487 C 11.988 34.030, 13 34.818, 13 35.237 C 13 35.657, 25.822 36, 41.492 36 C 69.337 36, 70.042 35.950, 72.492 33.820 C 75.368 31.319, 75.689 28.832, 73.429 26.571 C 72.068 25.211, 67.723 25, 41.051 25 C 15.409 25, 10.044 25.242, 9.046 26.445" stroke="none" fill="#fbfbfb" fill-rule="evenodd"/></svg>