<?xml version="1.0" encoding="utf-8"?>
<!-- Generator: Adobe Illustrator 26.5.3, SVG Export Plug-In . SVG Version: 6.00 Build 0)  -->
<svg version="1.1" id="Layer_1" xmlns="http://www.w3.org/2000/svg" xmlns:xlink="http://www.w3.org/1999/xlink" x="2000px" y="2000px"
	 viewBox="0 0 1920 1080" style="enable-background:new 0 0 1920 1080;" xml:space="preserve" width="500" height="500">
<g>
	<g>
		<path d="M834.94,471.45c32.89,0.01,65.77-0.15,98.66,0.07c20.04,0.13,29.61,7.91,29.39,23.02c-0.22,14.81-16.13,31.13-31.18,31.17
			c-62.06,0.15-124.12-0.06-186.17,0.13c-13.79,0.04-23.7-7.98-33.57-15.24c-8.07-5.93-8.14-15.63-4.74-24.53
			c4.12-10.8,13.38-14.39,24.19-14.46c30.76-0.18,61.53-0.13,92.29-0.17C827.51,471.44,831.22,471.44,834.94,471.45z M834.77,479.27
			c-8.49,0-16.98-0.01-25.47,0c-26,0.03-52.01-0.02-78.01,0.16c-8.57,0.06-15.94,2.55-17.56,12.36
			c-1.53,9.25,3.18,14.23,11.45,18.17c9.34,4.45,18.59,6.55,28.96,6.48c48.29-0.32,96.58-0.12,144.87-0.15
			c10.61-0.01,21.28,0.51,31.82-0.4c14.33-1.24,25.29-11.95,23.84-22.7c-1.98-14.67-13.75-13.8-24.38-13.85
			C898.45,479.19,866.61,479.29,834.77,479.27z"/>
	</g>
</g>
</svg>
