<svg xmlns="http://www.w3.org/2000/svg" width="2000" height="2000" viewBox="0 0 37 76" version="1.1"><path d="M 13 12.288 C 7.989 14.810, 10.374 22, 16.223 22 C 17.854 22, 18 23.355, 18 38.500 C 18 47.575, 17.698 55, 17.329 55 C 16.960 55, 15.835 54.255, 14.829 53.345 C 13.823 52.435, 13 52.155, 13 52.723 C 13 53.290, 13.670 54.312, 14.490 54.992 C 15.781 56.063, 15.640 56.496, 13.435 58.229 C 11.833 59.490, 11.004 61.021, 11.196 62.365 C 11.475 64.326, 12.106 64.500, 18.917 64.500 C 27.546 64.500, 28.589 63.435, 24.227 59.073 C 21.519 56.365, 21.416 56.007, 22.896 54.452 C 24.385 52.887, 24.343 52.847, 22.316 53.883 C 21.114 54.497, 19.877 55, 19.566 55 C 19.255 55, 19 47.624, 19 38.608 L 19 22.217 21.500 21.589 C 24.415 20.858, 24.718 19.501, 22.271 18.132 C 20.640 17.219, 20.645 17.050, 22.354 15.162 C 24.108 13.224, 24.101 13.124, 22.149 12.080 C 19.492 10.658, 16.085 10.735, 13 12.288 M 14.228 13.039 C 10.817 14.409, 10.274 16.994, 12.944 19.156 C 15.348 21.102, 20.481 21.648, 21.462 20.061 C 21.781 19.545, 21.254 18.682, 20.292 18.143 C 18.627 17.212, 18.628 17.068, 20.314 15.206 C 21.925 13.425, 21.938 13.190, 20.461 12.624 C 18.375 11.823, 17.034 11.912, 14.228 13.039 M 14.635 59.073 C 13.186 60.212, 12 61.562, 12 62.073 C 12 62.583, 14.925 63, 18.500 63 C 22.075 63, 25 62.628, 25 62.174 C 25 60.791, 20.472 57, 18.820 57 C 17.968 57, 16.084 57.933, 14.635 59.073" stroke="none" fill="#5d5e64" fill-rule="evenodd"/><path d="M 0 38.022 L 0 76.044 18.750 75.772 L 37.500 75.500 37.762 37.750 L 38.024 0 19.012 0 L 0 0 0 38.022 M 0.454 38.500 C 0.453 59.400, 0.586 68.092, 0.748 57.816 C 0.911 47.540, 0.911 30.440, 0.749 19.816 C 0.587 9.192, 0.454 17.600, 0.454 38.500 M 13 12.288 C 7.989 14.810, 10.374 22, 16.223 22 C 17.854 22, 18 23.355, 18 38.500 C 18 47.575, 17.698 55, 17.329 55 C 16.960 55, 15.835 54.255, 14.829 53.345 C 13.823 52.435, 13 52.155, 13 52.723 C 13 53.290, 13.670 54.312, 14.490 54.992 C 15.781 56.063, 15.640 56.496, 13.435 58.229 C 11.833 59.490, 11.004 61.021, 11.196 62.365 C 11.475 64.326, 12.106 64.500, 18.917 64.500 C 27.546 64.500, 28.589 63.435, 24.227 59.073 C 21.519 56.365, 21.416 56.007, 22.896 54.452 C 24.385 52.887, 24.343 52.847, 22.316 53.883 C 21.114 54.497, 19.877 55, 19.566 55 C 19.255 55, 19 47.624, 19 38.608 L 19 22.217 21.500 21.589 C 24.415 20.858, 24.718 19.501, 22.271 18.132 C 20.640 17.219, 20.645 17.050, 22.354 15.162 C 24.108 13.224, 24.101 13.124, 22.149 12.080 C 19.492 10.658, 16.085 10.735, 13 12.288 M 14.228 13.039 C 10.817 14.409, 10.274 16.994, 12.944 19.156 C 15.348 21.102, 20.481 21.648, 21.462 20.061 C 21.781 19.545, 21.254 18.682, 20.292 18.143 C 18.627 17.212, 18.628 17.068, 20.314 15.206 C 21.925 13.425, 21.938 13.190, 20.461 12.624 C 18.375 11.823, 17.034 11.912, 14.228 13.039 M 14.635 59.073 C 13.186 60.212, 12 61.562, 12 62.073 C 12 62.583, 14.925 63, 18.500 63 C 22.075 63, 25 62.628, 25 62.174 C 25 60.791, 20.472 57, 18.820 57 C 17.968 57, 16.084 57.933, 14.635 59.073" stroke="none" fill="#f9f9f9" fill-rule="evenodd"/></svg>
