<?xml version="1.0" encoding="utf-8"?>
<!-- Generator: Adobe Illustrator 26.5.3, SVG Export Plug-In . SVG Version: 6.00 Build 0)  -->
<svg version="1.1" id="Layer_1" xmlns="http://www.w3.org/2000/svg" xmlns:xlink="http://www.w3.org/1999/xlink" x="0px" y="0px"
	 viewBox="2000 2000 1920 1080" style="enable-background:new 0 0 1920 1080;" xml:space="preserve">
<g>
	<g>
		<path d="M968.19,561.14c0.11,1.4-0.64,2.2-1.43,2.66c-2.57,1.49-1.75,2.37,0.27,3.59c1.82,1.09,2.97,2.87,3.58,4.95
			c0.51,1.75,0.1,2.75-1.92,2.73c-4.58-0.03-9.16-0.03-13.74,0c-1.87,0.01-2.27-1.02-2.03-2.59c0.37-2.41,1.87-4.14,3.83-5.29
			c2.22-1.31,1.98-2.24-0.03-3.33c-0.07-0.04-0.14-0.09-0.2-0.15c-0.6-0.65-1.9-1.4-1.3-2.13c0.84-1.03,1.4,0.51,2.1,0.9
			c0.29,0.16,0.5,0.45,0.78,0.62c0.7,0.43,1.43,1.19,2.24,0.89c0.98-0.36,0.58-1.45,0.58-2.22c0.02-10.49-0.02-20.98,0.05-31.47
			c0.01-1.82-0.52-2.72-2.4-3.03c-1.61-0.27-3.24-0.63-4.55-1.85c-3.07-2.87-2.88-6.65,0.75-8.71c3.66-2.08,7.53-2.49,11.45-0.43
			c1.8,0.94,1.95,1.85,0.23,3c-0.28,0.18-0.53,0.4-0.82,0.57c-1.58,0.96-1.91,1.83-0.05,2.97c0.84,0.51,2.32,0.93,2.06,2.2
			c-0.25,1.24-1.64,1.58-2.76,1.85c-1.77,0.42-2.34,1.44-2.33,3.23c0.06,10.57,0.03,21.15,0.04,31.72c0,0.72-0.31,1.7,0.41,2.09
			c0.92,0.5,1.68-0.35,2.45-0.8C966.35,562.54,966.78,561.35,968.19,561.14z M965.96,524.45c-0.46-0.17-0.84-0.22-1.09-0.43
			c-3.08-2.52-3.11-2.57-0.18-5.33c0.82-0.77,0.77-1.07-0.16-1.58c-2.7-1.5-8.49-0.33-10.39,2.09c-1.34,1.71-1.06,3.23,0.38,4.65
			C956.94,526.24,962.43,526.69,965.96,524.45z M961.67,573.42C961.67,573.42,961.67,573.42,961.67,573.42c2-0.01,4-0.02,5.99,0
			c1.54,0.02,1.77-0.83,1.1-1.91c-1.63-2.66-3.96-4.96-7.05-4.98c-3-0.02-5.27,2.29-6.9,4.81c-0.87,1.35-0.35,2.15,1.36,2.09
			C958,573.37,959.83,573.42,961.67,573.42z"/>
	</g>
</g>
</svg>
