<?xml version="1.0" encoding="UTF-8"?>
<svg id="Layer_1" data-name="Layer 1" xmlns="http://www.w3.org/2000/svg" viewBox="0 0 31 67">
  <defs>
    <style>
      .cls-1 {
        fill: #fff;
      }
    </style>
  </defs>
  <path class="cls-1" d="M31,67H0C0,44.67,0,22.33,0,0c10.33,0,20.67,0,31,0,0,22.33,0,44.67,0,67Zm-16.33-3.28c-.58-4.33-1.72-8.36-1.55-12.34,.41-9.87,1.36-19.71,2.21-29.56,.42-4.81,1.24-9.67-.94-14.21-.61-1.26-2.51-2.87-3.57-2.71-1.36,.22-3.11,1.86-3.54,3.24-.8,2.56-1.19,5.42-1,8.1,.49,6.87,1.52,13.7,2.08,20.56,.69,8.53,1.51,17.1-1.18,25.49-.13,.42-.02,.91-.02,1.42h7.5Zm9.64-15.99c.12,0,.23-.01,.35-.02V20.68c-.12,0-.23,0-.35,.01v27.04Z"/>
  <path d="M14.67,63.72H7.17c0-.51-.12-1,.02-1.42,2.68-8.39,1.87-16.96,1.18-25.49-.56-6.87-1.59-13.7-2.08-20.56-.19-2.68,.2-5.53,1-8.1,.43-1.39,2.18-3.03,3.54-3.24,1.05-.17,2.96,1.44,3.57,2.71,2.18,4.54,1.36,9.4,.94,14.21-.85,9.84-1.8,19.69-2.21,29.56-.17,3.98,.96,8.01,1.55,12.34Zm-.66-.82c-3.14-11.06-1.49-21.92-.63-32.74,.51-6.44,2.37-12.77,1.28-19.33-.52-3.1-2.01-5.56-3.69-5.3-2.8,.43-3.12,2.83-3.51,5.08-1.25,7.2,.8,14.21,1.21,21.32,.42,7.37,.72,14.76,.76,22.14,.01,2.9-.83,5.81-1.3,8.84h5.88Z"/>
  <path d="M24.32,47.73V20.69c.12,0,.23,0,.35-.01v27.03c-.12,0-.23,.01-.35,.02Z"/>
  <path class="cls-1" d="M14.01,62.89h-5.88c.47-3.03,1.32-5.94,1.3-8.84-.04-7.38-.34-14.77-.76-22.14-.41-7.11-2.46-14.12-1.21-21.32,.39-2.24,.71-4.65,3.51-5.08,1.68-.26,3.17,2.2,3.69,5.3,1.09,6.56-.78,12.89-1.28,19.33-.85,10.82-2.51,21.69,.63,32.74Z"/>
</svg>