<?xml version="1.0" encoding="utf-8"?>
<!-- Generator: Adobe Illustrator 26.5.3, SVG Export Plug-In . SVG Version: 6.00 Build 0)  -->
<svg version="1.1" id="Layer_1" xmlns="http://www.w3.org/2000/svg" xmlns:xlink="http://www.w3.org/1999/xlink" x="0px" y="0px"
	 viewBox="0 0 1920 1080" style="enable-background:new 0 0 1920 1080;" xml:space="preserve">
<g>
	<g>
		<path d="M971.21,544.47c0.23,6.92-4.9,12.31-11.36,12.47c-6.71,0.16-12.35-5.18-12.73-12.37c-0.24-4.48-0.04-8.98,0.2-13.5
			c0.9,1.47,0.22,3.2,0.67,4.76c0.79,0.16,0.93-0.57,1.19-0.97c1.28-1.93,2.51-2.87,4.26-0.41c0.9,1.26,1.64,0.11,2.14-0.52
			c1.13-1.42,2.14-1.66,3.26-0.03c0.99,1.43,1.98,1.19,2.89-0.08c1.05-1.47,2-1.37,3.07,0.02c0.66,0.85,1.49,1.83,2.52,0.38
			c1.46-2.05,2.62-1.64,3.73,0.32c0.27,0.48,0.71,0.87,1.6,1.91c0-2.28,0-3.91,0-5.54c0.22,0.01,0.43,0.02,0.65,0.02
			c0,4.47,0,8.93,0,13.69c-1.12-1.42-0.72-2.9-0.57-4.14c0.34-2.83-1.56-4.42-3.01-6.27c-0.85-1.09-1.35,0.08-1.69,0.51
			c-1.22,1.58-2.34,1.9-3.57,0.06c-0.96-1.44-1.88-1.03-2.66,0.13c-0.98,1.47-1.92,1.62-2.97,0.11c-1.01-1.45-1.96-1.43-3.05-0.02
			c-0.7,0.91-1.55,1.94-2.65,0.33c-1.3-1.91-2.23-1.33-3.46,0.25c-2.9,3.74-2.48,12.08,1.01,16.28c3.75,4.5,9.28,5.61,14.33,2.78
			c2.99-1.68,4.73-4.33,5.59-7.61C970.81,546.18,971.01,545.32,971.21,544.47z"/>
	</g>
</g>
</svg>
