<svg xmlns="http://www.w3.org/2000/svg" width="2000" height="2000" viewBox="0 0 50 57" version="1.1"><path d="M 9.364 21.078 C 9.491 31.862, 9.685 32.934, 12.196 36.724 C 15.535 41.765, 21.976 44.602, 27.657 43.536 C 32.323 42.661, 38.752 36.489, 39.644 32.030 C 39.996 30.269, 40.895 28.594, 41.642 28.307 C 43.285 27.677, 43.630 11, 42 11 C 41.450 11, 41 12.400, 41 14.111 L 41 17.222 39.095 14.869 C 37.265 12.609, 37.115 12.586, 35.239 14.284 C 33.500 15.858, 33.149 15.884, 32.021 14.525 C 31.325 13.686, 30.190 13, 29.500 13 C 28.810 13, 27.675 13.686, 26.979 14.525 C 25.849 15.887, 25.514 15.870, 23.857 14.370 C 22.137 12.814, 21.866 12.811, 20.194 14.325 C 18.522 15.838, 18.264 15.836, 16.725 14.296 C 15.175 12.746, 14.936 12.747, 13.202 14.317 C 10.619 16.655, 10.191 16.464, 9.677 12.750 C 9.430 10.962, 9.289 14.710, 9.364 21.078 M 11.941 18.250 C 10.277 20.915, 10.023 22.491, 10.534 27 C 11.615 36.549, 17.006 42, 25.369 42 C 31.328 42, 36.552 37.703, 38.233 31.420 C 38.865 29.054, 39.747 27.344, 40.192 27.618 C 41.989 28.730, 40.889 19.446, 38.946 17.114 C 37.015 14.795, 36.902 14.779, 34.948 16.547 C 33.074 18.243, 32.825 18.254, 31.275 16.704 C 29.736 15.164, 29.478 15.162, 27.806 16.675 C 26.131 18.191, 25.855 18.178, 24 16.500 C 22.124 14.802, 21.885 14.794, 20.143 16.370 C 18.486 17.870, 18.151 17.887, 17.021 16.525 C 15.170 14.295, 14.207 14.622, 11.941 18.250" stroke="none" fill="#6c6d73" fill-rule="evenodd"/><path d="M 0 28.517 L 0 57.034 25.250 56.767 L 50.500 56.500 50.766 28.250 L 51.031 0 25.516 0 L 0 0 0 28.517 M 0.441 29 C 0.441 44.675, 0.579 51.087, 0.748 43.250 C 0.917 35.412, 0.917 22.587, 0.748 14.750 C 0.579 6.912, 0.441 13.325, 0.441 29 M 9.364 21.078 C 9.491 31.862, 9.685 32.934, 12.196 36.724 C 15.535 41.765, 21.976 44.602, 27.657 43.536 C 32.323 42.661, 38.752 36.489, 39.644 32.030 C 39.996 30.269, 40.895 28.594, 41.642 28.307 C 43.285 27.677, 43.630 11, 42 11 C 41.450 11, 41 12.400, 41 14.111 L 41 17.222 39.095 14.869 C 37.265 12.609, 37.115 12.586, 35.239 14.284 C 33.500 15.858, 33.149 15.884, 32.021 14.525 C 31.325 13.686, 30.190 13, 29.500 13 C 28.810 13, 27.675 13.686, 26.979 14.525 C 25.849 15.887, 25.514 15.870, 23.857 14.370 C 22.137 12.814, 21.866 12.811, 20.194 14.325 C 18.522 15.838, 18.264 15.836, 16.725 14.296 C 15.175 12.746, 14.936 12.747, 13.202 14.317 C 10.619 16.655, 10.191 16.464, 9.677 12.750 C 9.430 10.962, 9.289 14.710, 9.364 21.078 M 11.941 18.250 C 10.277 20.915, 10.023 22.491, 10.534 27 C 11.615 36.549, 17.006 42, 25.369 42 C 31.328 42, 36.552 37.703, 38.233 31.420 C 38.865 29.054, 39.747 27.344, 40.192 27.618 C 41.989 28.730, 40.889 19.446, 38.946 17.114 C 37.015 14.795, 36.902 14.779, 34.948 16.547 C 33.074 18.243, 32.825 18.254, 31.275 16.704 C 29.736 15.164, 29.478 15.162, 27.806 16.675 C 26.131 18.191, 25.855 18.178, 24 16.500 C 22.124 14.802, 21.885 14.794, 20.143 16.370 C 18.486 17.870, 18.151 17.887, 17.021 16.525 C 15.170 14.295, 14.207 14.622, 11.941 18.250" stroke="none" fill="#f5f5f5" fill-rule="evenodd"/></svg>
