<svg xmlns="http://www.w3.org/2000/svg" width="2000" height="2000" viewBox="0 0 67 67" version="1.1"><path d="M 2.131 13.342 C 0.593 15.196, 0.537 24.656, 1.996 36.147 C 3.227 45.841, 2.999 59.989, 1.559 63.250 C 0.886 64.774, 1.375 65, 5.341 65 L 9.896 65 8.834 61.952 C 7.816 59.034, 8.111 44.587, 9.602 24.372 C 9.990 19.100, 9.802 15.498, 9.065 14.122 C 7.779 11.719, 3.845 11.277, 2.131 13.342 M 39.578 12.750 C 39.163 13.162, 38.194 15.003, 37.425 16.840 C 35.944 20.378, 36.883 23.996, 39.285 24.004 C 39.953 24.006, 39.110 24.855, 37.411 25.891 C 35.713 26.927, 33.398 28.950, 32.267 30.387 C 31.137 31.824, 29.827 32.986, 29.356 32.968 C 27.805 32.911, 23.523 28.547, 22.271 25.748 C 20.713 22.262, 18.090 22.020, 18.740 25.421 C 19.179 27.719, 24 33.290, 24 31.500 C 24 31.033, 25.116 31.700, 26.480 32.981 L 28.960 35.311 33.937 30.656 C 36.675 28.095, 39.384 26, 39.957 26 C 40.531 26, 41 25.073, 41 23.941 C 41 22.809, 40.547 22.162, 39.993 22.504 C 39.045 23.090, 37.321 20.346, 38.129 19.538 C 39.022 18.645, 44.252 17.783, 43.739 18.614 C 42.660 20.358, 45.823 26, 47.879 26 C 48.966 26, 50.760 27.151, 51.867 28.558 C 54.171 31.487, 57.550 39.783, 56.761 40.573 C 56.470 40.863, 54.718 40.401, 52.866 39.545 C 49.849 38.151, 49.785 38.044, 52.250 38.514 C 55.410 39.116, 55.661 38.179, 53.474 33.950 C 51.609 30.344, 49.256 30.134, 48.411 33.498 L 47.784 35.996 44.807 33.491 C 41.306 30.545, 39.007 31.177, 41.685 34.349 C 44.366 37.526, 45.289 38.012, 47.500 37.412 C 48.929 37.024, 49.118 37.134, 48.165 37.796 C 47.430 38.306, 46.868 39.011, 46.915 39.362 C 46.962 39.713, 47 41.995, 47 44.433 C 47 48.009, 46.614 48.975, 45 49.433 C 38.506 51.275, 38.970 51.500, 39.610 46.814 C 40.171 42.705, 38.675 31.331, 37.411 30.087 C 37.082 29.764, 35.393 31.188, 33.657 33.250 C 31.921 35.313, 30.115 37, 29.644 37 C 29.173 37, 27.884 35.851, 26.780 34.447 C 25.676 33.043, 24.522 32.145, 24.215 32.451 C 23.367 33.300, 28.141 38, 29.851 38 C 30.678 38, 32.571 36.543, 34.057 34.763 L 36.760 31.525 37.972 37.365 C 38.639 40.577, 38.873 44.846, 38.493 46.852 L 37.802 50.500 35.151 47.391 C 30.840 42.335, 25.802 40.468, 24.640 43.496 C 24.324 44.319, 24.553 47.418, 25.148 50.381 C 26.141 55.325, 26.045 56.020, 23.989 58.801 C 22.756 60.469, 20.904 62.053, 19.874 62.323 C 18.843 62.592, 18 63.332, 18 63.968 C 18 64.750, 19.372 64.937, 22.250 64.548 C 29.139 63.616, 46.157 63.552, 50.750 64.441 C 55.965 65.450, 56.437 63.921, 51.466 62.124 L 47.932 60.846 48.216 50.673 C 48.531 39.407, 48.002 40.045, 55.750 41.582 C 59.874 42.400, 59.869 41.464, 55.697 33.050 C 52.590 26.781, 51.692 25.845, 47.500 24.505 C 45.643 23.911, 45.625 23.795, 47.250 22.883 C 49.307 21.728, 49.684 15.084, 47.800 13.200 C 46.477 11.877, 40.771 11.565, 39.578 12.750 M 2.973 14.532 C 1.996 15.710, 1.905 18.427, 2.581 26.282 C 3.064 31.902, 3.469 42.688, 3.480 50.250 C 3.500 63.872, 3.521 64.001, 5.769 64 C 7.592 64, 7.947 63.558, 7.577 61.750 C 6.208 55.075, 6.116 51.554, 7.061 42 C 9.124 21.131, 9.268 17.370, 8.086 15.161 C 6.729 12.626, 4.757 12.383, 2.973 14.532 M 40.166 14.234 C 39.188 15.212, 39.613 15.698, 42.216 16.582 C 44.818 17.466, 45.431 18.167, 45.168 19.959 C 44.944 21.489, 45.268 22.080, 46.168 21.783 C 47.933 21.203, 48.459 16.258, 46.950 14.440 C 45.485 12.675, 41.836 12.564, 40.166 14.234 M 39.333 17.667 C 39.700 18.033, 40.300 18.033, 40.667 17.667 C 41.033 17.300, 40.733 17, 40 17 C 39.267 17, 38.967 17.300, 39.333 17.667 M 20.500 27 C 20.840 27.550, 21.343 28, 21.618 28 C 21.893 28, 21.840 27.550, 21.500 27 C 21.160 26.450, 20.657 26, 20.382 26 C 20.107 26, 20.160 26.450, 20.500 27 M 49.658 33.450 C 48.849 35.556, 49.623 37, 51.559 37 C 53.357 37, 53.389 35.915, 51.661 33.551 C 50.407 31.836, 50.279 31.830, 49.658 33.450 M 44 35.500 C 44 35.775, 44.225 36, 44.500 36 C 44.775 36, 45 35.775, 45 35.500 C 45 35.225, 44.775 35, 44.500 35 C 44.225 35, 44 35.225, 44 35.500 M 25.673 43.720 C 25.401 44.160, 25.730 46.970, 26.404 49.964 C 27.079 52.958, 27.911 54.953, 28.254 54.398 C 28.597 53.844, 28.466 51.614, 27.962 49.445 C 26.661 43.834, 26.852 42.980, 28.539 46.865 C 29.343 48.715, 30 51.293, 30 52.593 C 30 54.789, 30.196 54.874, 32.750 53.789 C 37.144 51.921, 37.205 51.562, 33.765 47.754 C 30.506 44.147, 26.610 42.204, 25.673 43.720 M 36 53.665 C 24.137 58.427, 24.349 59.500, 37.155 59.500 L 46.500 59.500 46.807 55.250 C 47.087 51.382, 46.907 51.003, 44.807 51.028 C 43.538 51.044, 39.575 52.230, 36 53.665 M 24.602 59.835 C 23.366 61.834, 26.630 62.500, 37.662 62.500 C 43.801 62.500, 48.301 62.212, 47.662 61.861 C 45.391 60.612, 34.451 59.941, 31.362 60.861 C 28.963 61.576, 27.873 61.444, 26.731 60.302 C 25.780 59.352, 25.006 59.182, 24.602 59.835" stroke="none" fill="#5f6165" fill-rule="evenodd"/><path d="M 0.175 11.750 C 0.271 18.213, 0.527 21.484, 0.743 19.020 C 1.209 13.726, 2.400 12, 5.587 12 C 9.256 12, 10.281 15.158, 9.602 24.372 C 8.111 44.587, 7.816 59.034, 8.834 61.952 L 9.896 65 5.341 65 C 1.370 65, 0.887 64.776, 1.573 63.250 C 3.036 59.999, 3.080 43.564, 1.653 33.500 L 0.236 23.500 0.118 45.263 L 0 67.027 33.750 66.763 L 67.500 66.500 67.736 33.250 L 67.972 -0 33.986 -0 L 0 0 0.175 11.750 M 0.378 12 C 0.378 18.325, 0.541 20.912, 0.739 17.750 C 0.937 14.587, 0.937 9.412, 0.739 6.250 C 0.541 3.087, 0.378 5.675, 0.378 12 M 39.578 12.750 C 39.163 13.162, 38.194 15.003, 37.425 16.840 C 35.944 20.378, 36.883 23.996, 39.285 24.004 C 39.953 24.006, 39.110 24.855, 37.411 25.891 C 35.713 26.927, 33.398 28.950, 32.267 30.387 C 31.137 31.824, 29.827 32.986, 29.356 32.968 C 27.805 32.911, 23.523 28.547, 22.271 25.748 C 20.713 22.262, 18.090 22.020, 18.740 25.421 C 19.179 27.719, 24 33.290, 24 31.500 C 24 31.033, 25.116 31.700, 26.480 32.981 L 28.960 35.311 33.937 30.656 C 36.675 28.095, 39.384 26, 39.957 26 C 40.531 26, 41 25.073, 41 23.941 C 41 22.809, 40.547 22.162, 39.993 22.504 C 39.045 23.090, 37.321 20.346, 38.129 19.538 C 39.022 18.645, 44.252 17.783, 43.739 18.614 C 42.660 20.358, 45.823 26, 47.879 26 C 48.966 26, 50.760 27.151, 51.867 28.558 C 54.171 31.487, 57.550 39.783, 56.761 40.573 C 56.470 40.863, 54.718 40.401, 52.866 39.545 C 49.849 38.151, 49.785 38.044, 52.250 38.514 C 55.410 39.116, 55.661 38.179, 53.474 33.950 C 51.609 30.344, 49.256 30.134, 48.411 33.498 L 47.784 35.996 44.807 33.491 C 41.306 30.545, 39.007 31.177, 41.685 34.349 C 44.366 37.526, 45.289 38.012, 47.500 37.412 C 48.929 37.024, 49.118 37.134, 48.165 37.796 C 47.430 38.306, 46.868 39.011, 46.915 39.362 C 46.962 39.713, 47 41.995, 47 44.433 C 47 48.009, 46.614 48.975, 45 49.433 C 38.506 51.275, 38.970 51.500, 39.610 46.814 C 40.171 42.705, 38.675 31.331, 37.411 30.087 C 37.082 29.764, 35.393 31.188, 33.657 33.250 C 31.921 35.313, 30.115 37, 29.644 37 C 29.173 37, 27.884 35.851, 26.780 34.447 C 25.676 33.043, 24.522 32.145, 24.215 32.451 C 23.367 33.300, 28.141 38, 29.851 38 C 30.678 38, 32.571 36.543, 34.057 34.763 L 36.760 31.525 37.972 37.365 C 38.639 40.577, 38.873 44.846, 38.493 46.852 L 37.802 50.500 35.151 47.391 C 30.840 42.335, 25.802 40.468, 24.640 43.496 C 24.324 44.319, 24.553 47.418, 25.148 50.381 C 26.141 55.325, 26.045 56.020, 23.989 58.801 C 22.756 60.469, 20.904 62.053, 19.874 62.323 C 18.843 62.592, 18 63.332, 18 63.968 C 18 64.750, 19.372 64.937, 22.250 64.548 C 29.139 63.616, 46.157 63.552, 50.750 64.441 C 55.965 65.450, 56.437 63.921, 51.466 62.124 L 47.932 60.846 48.216 50.673 C 48.531 39.407, 48.002 40.045, 55.750 41.582 C 59.874 42.400, 59.869 41.464, 55.697 33.050 C 52.590 26.781, 51.692 25.845, 47.500 24.505 C 45.643 23.911, 45.625 23.795, 47.250 22.883 C 49.307 21.728, 49.684 15.084, 47.800 13.200 C 46.477 11.877, 40.771 11.565, 39.578 12.750 M 2.973 14.532 C 1.996 15.710, 1.905 18.427, 2.581 26.282 C 3.064 31.902, 3.469 42.688, 3.480 50.250 C 3.500 63.872, 3.521 64.001, 5.769 64 C 7.592 64, 7.947 63.558, 7.577 61.750 C 6.208 55.075, 6.116 51.554, 7.061 42 C 9.124 21.131, 9.268 17.370, 8.086 15.161 C 6.729 12.626, 4.757 12.383, 2.973 14.532 M 40.166 14.234 C 39.188 15.212, 39.613 15.698, 42.216 16.582 C 44.818 17.466, 45.431 18.167, 45.168 19.959 C 44.944 21.489, 45.268 22.080, 46.168 21.783 C 47.933 21.203, 48.459 16.258, 46.950 14.440 C 45.485 12.675, 41.836 12.564, 40.166 14.234 M 39.333 17.667 C 39.700 18.033, 40.300 18.033, 40.667 17.667 C 41.033 17.300, 40.733 17, 40 17 C 39.267 17, 38.967 17.300, 39.333 17.667 M 0.426 45.500 C 0.427 57.600, 0.571 62.413, 0.747 56.195 C 0.923 49.977, 0.922 40.077, 0.746 34.195 C 0.569 28.313, 0.425 33.400, 0.426 45.500 M 20.500 27 C 20.840 27.550, 21.343 28, 21.618 28 C 21.893 28, 21.840 27.550, 21.500 27 C 21.160 26.450, 20.657 26, 20.382 26 C 20.107 26, 20.160 26.450, 20.500 27 M 49.658 33.450 C 48.849 35.556, 49.623 37, 51.559 37 C 53.357 37, 53.389 35.915, 51.661 33.551 C 50.407 31.836, 50.279 31.830, 49.658 33.450 M 44 35.500 C 44 35.775, 44.225 36, 44.500 36 C 44.775 36, 45 35.775, 45 35.500 C 45 35.225, 44.775 35, 44.500 35 C 44.225 35, 44 35.225, 44 35.500 M 25.673 43.720 C 25.401 44.160, 25.730 46.970, 26.404 49.964 C 27.079 52.958, 27.911 54.953, 28.254 54.398 C 28.597 53.844, 28.466 51.614, 27.962 49.445 C 26.661 43.834, 26.852 42.980, 28.539 46.865 C 29.343 48.715, 30 51.293, 30 52.593 C 30 54.789, 30.196 54.874, 32.750 53.789 C 37.144 51.921, 37.205 51.562, 33.765 47.754 C 30.506 44.147, 26.610 42.204, 25.673 43.720 M 36 53.665 C 24.137 58.427, 24.349 59.500, 37.155 59.500 L 46.500 59.500 46.807 55.250 C 47.087 51.382, 46.907 51.003, 44.807 51.028 C 43.538 51.044, 39.575 52.230, 36 53.665 M 24.602 59.835 C 23.366 61.834, 26.630 62.500, 37.662 62.500 C 43.801 62.500, 48.301 62.212, 47.662 61.861 C 45.391 60.612, 34.451 59.941, 31.362 60.861 C 28.963 61.576, 27.873 61.444, 26.731 60.302 C 25.780 59.352, 25.006 59.182, 24.602 59.835" stroke="none" fill="#f5f5f5" fill-rule="evenodd"/></svg>
