<?xml version="1.0" encoding="utf-8"?>
<!-- Generator: Adobe Illustrator 26.5.3, SVG Export Plug-In . SVG Version: 6.00 Build 0)  -->
<svg version="1.1" id="Layer_1" xmlns="http://www.w3.org/2000/svg" xmlns:xlink="http://www.w3.org/1999/xlink" x="0px" y="0px"
	 viewBox="0 0 1920 1080" style="enable-background:new 0 0 1920 1080;" xml:space="preserve">
<g>
	<g>
		<path d="M915.21,446.47c-6.39-5.96-6.02-12.08-2.76-19.36c4.11-9.17,10.77-13.06,19.24-9.45c7.66,3.27,10.6,13.64,6.03,21.62
			c-1.02,1.78-2.5,3.31-4.14,5.44c18.97,3.98,20.25,21.39,26.52,34.78c2.19,4.68-1.42,7.5-6.55,6.04c-2.24-0.64-4.38-1.61-6.59-2.36
			c-8.83-3.01-9.1-3.03-9.95,6.42c-0.65,7.19-1.03,14.47,0.31,21.67c0.09,0.46,0.33,0.96,0.23,1.37
			c-2.38,10.38,0.06,17.73,11.89,19.46c0.64,0.09,1.5,1.33,1.56,2.08c0.12,1.47-1.24,1.84-2.41,1.86c-3.03,0.04-6.33,0.72-9.05-0.22
			c-14.8-5.1-29.66-1.21-44.49-0.74c-6.9,0.22-13.91-1.12-20.7,1.62c-1.88,0.76-4.43,0.2-4.9-2.55c-0.42-2.48,1.79-2.93,3.47-3.66
			c10.24-4.43,14.75-13.05,12.56-24.05c-0.91-4.58-2.32-9.13-2.59-13.74c-0.46-7.73,4.33-10.54,11.21-7.09
			c7.45,3.74,13.11,9.52,18.2,16.82c5.1-9.4,3.37-18.2,1.34-27.03c-0.86-3.75,0.1-9.51-3.35-10.6c-3.37-1.07-5.25,4.44-7.62,7.2
			c-5.77,6.71-9.29,6.59-15.01-0.3c-4.17-5.03-8.23-10.23-12.98-14.68c-3.68-3.45-3.21-8.09-4.84-12.07
			c-0.92-2.26,1.29-3.3,3.48-2.32c2.41,1.08,4.6,2.87,5.25,5.39c1.66,6.45,6.97,9.6,11.26,13.83c3.71,3.65,6.26,3.09,9.04-0.62
			C903.23,455.44,907.74,449.81,915.21,446.47z M891.68,471.77c4.73,2.99,6.47,0.15,8.22-1.78c3.29-3.62,6.33-7.48,9.44-11.27
			c1.88-2.29,4.04-3.44,4.66,0.54c2.02,13.01,7.55,25.67,4.11,39.27c-0.43,1.7-1.64,3.69,0.23,5.22c2.35,1.92,14.44-3.57,14.79-6.68
			c0.49-4.4,0.91-8.81,1.28-13.22c0.2-2.34,0.58-5.45-1.98-6.19c-6.06-1.76-7.69-7.8-11.91-11.24c-1.38-1.12-2.41-2.42-1.16-4.14
			c0.98-1.35,2.5-1.04,3.85-0.57c2.18,0.76,4.57,1.23,5.93,3.42c3.97,6.41,6.75,6.27,8.63-1.37c0.47-1.9,1.61-4.07,4.1-4.32
			c2.62-0.25,3.56,1.88,4.53,3.72c1.85,3.51,3.66,7.05,5.32,10.66c0.56,1.2,1.2,2.91,0.75,3.9c-0.65,1.43-2.46,0.8-3.78,0.45
			c-3.77-1.01-7.53-2.09-11.29-3.14c4.37,2.62,8.96,4.27,13.54,5.96c1.74,0.64,3.6,1.77,5.16,0.02c1.31-1.48,0.16-3.11-0.49-4.56
			c-2.6-5.74-5.14-11.51-7.93-17.16c-1.99-4.04-4.57-8.44-9.17-9.03c-9.19-1.17-11.29-7.23-12.58-14.82c-0.58-3.43-2.31-6.96-6-1.68
			c-0.45,0.64-1.56,0.89-2.41,1.17c-1.18,0.39-3.28-0.37-3.08,1.74c0.17,1.76,0.79,3.83,2.99,4.31c1.92,0.42,4.47-0.41,4.63,2.84
			c0.13,2.7-1.17,4.71-3.57,5.43c-9.46,2.86-14.11,11.08-20.12,17.77C896.68,468.89,895.36,471.06,891.68,471.77z M934.29,513.78
			c-1.68-2.75,0.87-10.08-6.56-8.12c-12.14,3.21-23.83,7.92-35.08,13.58c-1.18,0.59-2.86,1.35-1.98,3.04
			c0.59,1.12,1.89,2.42,3.02,2.59c1.75,0.26,3.65-0.29,5.44-0.67c7.37-1.6,14.69-2.08,22.09-0.01
			C930.79,526.87,934.14,524.28,934.29,513.78z M900.7,511.69c1.98-0.91,5.35-2.44,8.69-4.02c1.41-0.66,1.41-1.7,0.51-2.81
			c-3.78-4.69-7.19-9.75-12.24-13.24c-1.07-0.74-2.44-1.76-3.83-0.76c-1.59,1.14-1.4,2.81-0.7,4.4c1.91,4.31,2.83,8.82,2.88,13.53
			C896.03,510.79,896.38,512.64,900.7,511.69z M936.19,430.98c0.27-6.21-3.02-9.66-8.75-10.84c-3.61-0.74-8.22-0.03-8.95,3.46
			c-0.85,4.03,4.24,4.45,6.92,4.54c5.03,0.16,6.28,1.99,4.84,6.49c-0.6,1.88-0.8,4.06,1.62,4.56c2.21,0.46,3.28-1.47,3.74-3.36
			C936,434.26,936.02,432.6,936.19,430.98z M936.55,531.33c-4.77-4.62-9.25-1.17-13.07-2.77c-8.36-3.5-16.92-2.53-25.38-0.29
			c-3.64,0.97-6.82,1.17-9.38-2.28c-0.9-1.21-2.3-2.92-3.93-0.92c-1.48,1.82-0.46,3.63,1.05,4.89c2.57,2.14,5.74,1.48,8.73,1.45
			C908.02,531.3,921.42,527.88,936.55,531.33z"/>
		<path d="M852.64,440.14c-1.72,12.95-4.07,25.84-5.01,38.85c-1.3,17.83-3.75,35.83,2.14,53.43c0.22,0.66,0.7,1.62,0.43,1.99
			c-3.78,5.22-9.27,2.08-13.99,2.61c-2.5,0.28-5.63-0.16-4.54-4.18c7.68-28.22,1.43-56.1-1.85-84.07c-0.9-7.69-0.9-15.38,1.07-22.97
			c1.37-5.27,4.4-9,10.05-9.16c5.33-0.15,7.58,4,9.16,8.31C851.87,429.82,852.57,434.9,852.64,440.14z M849.1,439.49
			c0.09-4.3-0.91-8.42-1.97-12.46c-0.83-3.17-2.27-6.66-6.14-6.76c-4.17-0.11-5.82,3.17-6.79,6.81c-1.96,7.36-1.72,14.79-0.73,22.23
			c3.48,26.31,8.42,52.56,2.92,79.2c-0.37,1.78-0.44,3.5,1.59,3.96c1.76,0.4,3.78,0.53,5.48,0.05c2.59-0.75,1.54-3.12,1.17-4.77
			c-3.98-17.63-1.89-35.29-0.16-52.9C845.63,463.01,847.53,451.27,849.1,439.49z"/>
	</g>
</g>
</svg>
