<?xml version="1.0" encoding="utf-8"?>
<!-- Generator: Adobe Illustrator 26.5.3, SVG Export Plug-In . SVG Version: 6.00 Build 0)  -->
<svg version="1.1" id="Layer_1" xmlns="http://www.w3.org/2000/svg" xmlns:xlink="http://www.w3.org/1999/xlink" x="0px" y="0px"
	 viewBox="0 0 1920 1080" style="enable-background:new 0 0 1920 1080;" xml:space="preserve">
<g>
	<g>
		<path d="M966.51,512.51c-0.48,0.95-0.63,1.55-1,1.93c-1.44,1.47-0.32,2.53,0.49,3.66c0.95,1.31,1.73-0.01,2.6-0.16
			c0.96-0.16,1.85-1.9,2.88-0.26c1.49,2.35,1.37,4.04-0.51,5.05c-2.09,1.12-3,2.52-3.16,5.02c-0.22,3.46-1.27,6.83-2.93,9.97
			c-0.68,1.29-1.47,1.9-2.9,1.7c-0.41-0.06-0.83-0.01-1.25-0.01c-5.4,0-5.42,0.01-7.18-5.1c-0.76-2.2-1.49-4.48-1.43-6.78
			c0.06-2.37-0.92-3.64-2.88-4.66c-1.97-1.03-2.28-4.05-0.71-5.51c0.87-0.81,1.49,0.21,2.23,0.36c1.03,0.2,1.96,1.67,3.09,0.45
			c1.12-1.22,1.72-2.55,0.3-4.14c-1.02-1.14-0.23-1.53,0.96-1.53C958.78,512.52,962.43,512.51,966.51,512.51z M960.03,538.48
			c2.99,0.98,4.26-0.76,5.1-3.21c0.92-2.68,1.95-5.38,1.91-8.21c-0.03-2.24,0.8-3.62,2.73-4.44c1.9-0.8,2.23-2.11,1.25-3.77
			c-0.98-1.67-2.08-0.23-2.9,0.18c-1.51,0.76-2.41,0.64-3.13-0.96c-0.48-1.07-1.47-1.5-2.67-1.48c-1.66,0.04-3.33,0.03-4.99,0
			c-0.89-0.01-1.83,0.14-2.13,0.98c-0.99,2.69-2.55,2.15-4.4,1.01c-0.51-0.31-1.35-1.17-1.83,0c-0.53,1.3-1.44,2.76,0.74,3.66
			c2.37,0.99,3.38,2.77,3.29,5.46c-0.08,2.48,0.8,4.9,1.59,7.26C955.46,537.55,956.8,539.52,960.03,538.48z M959.96,513.29
			c-1,0-2-0.06-2.99,0.02c-0.63,0.05-1.72-0.39-1.68,0.77c0.03,0.78,0.48,1.69,1.5,1.72c2.07,0.06,4.15,0.05,6.22,0.01
			c1.02-0.02,1.48-0.82,1.55-1.66c0.11-1.28-1-0.79-1.62-0.84C961.96,513.22,960.96,513.29,959.96,513.29z"/>
		<path d="M959.14,570.97c0-8.95,0-17.89,0-26.84c0.11,0,0.21,0,0.32,0c0,8.94,0,17.88,0,26.82
			C959.36,570.95,959.25,570.96,959.14,570.97z"/>
	</g>
</g>
</svg>
