<?xml version="1.0" encoding="UTF-8"?>
<svg id="Layer_1" data-name="Layer 1" xmlns="http://www.w3.org/2000/svg" viewBox="0 0 53 72">
  <defs>
    <style>
      .cls-1 {
        fill: #fff;
      }
    </style>
  </defs>
  <path class="cls-1" d="M53,72H0V0H53V72Zm-19.66-15.39c0-.83,.02-1.48,0-2.13-.46-12.54-.85-25.08-1.48-37.61-.11-2.24-.88-4.62-1.99-6.58-.87-1.54-2.72-2.52-4.54-4.11-.33,1.62-.53,2.34-.61,3.06-1.04,9.41-2.08,18.82-3.04,28.24-.06,.6,.34,1.42,.79,1.87,2.22,2.22,4.47,4.42,6.84,6.49,1.44,1.26,1.67,2.71,1.51,4.46-.2,2.12-.21,4.26-.32,6.62,1.14-.13,1.94-.22,2.84-.32Zm.43,4.69c1.12,1.38,2.13,2.64,3.23,4,1.16-1.49,2.14-2.75,3.17-4.07,1.11,1.48,2.05,2.73,3.09,4.13,1.14-1.37,2.17-2.61,3.36-4.04,1.08,1.72,2,3.17,2.92,4.62,.19-.12,.39-.24,.58-.36-1.07-1.9-2.14-3.79-3.32-5.89-1.26,1.52-2.35,2.83-3.52,4.24-1.13-1.48-2.11-2.77-3.14-4.13-1.14,1.42-2.13,2.65-3.2,3.99-1.15-1.44-2.07-2.6-3.16-3.96-1.04,1.38-1.97,2.6-3.07,4.07-1.17-1.43-2.22-2.72-3.31-4.06-1.15,1.47-2.1,2.66-3.17,4.03-1.17-1.53-2.14-2.8-3.12-4.09-1.13,1.43-2.09,2.63-3.21,4.04-1.14-1.48-2.08-2.7-3.12-4.04-1.1,1.41-2.11,2.69-3.22,4.11-1.07-1.35-2.08-2.62-3.31-4.17-1.24,2.19-2.29,4.05-3.34,5.9,.19,.11,.37,.22,.56,.33,.95-1.45,1.89-2.9,2.96-4.54,1.16,1.45,2.07,2.59,3.1,3.89,1.13-1.4,2.14-2.64,3.24-4.01,1.11,1.39,2.1,2.65,3.19,4.03,1.16-1.47,2.11-2.68,3.18-4.04,1.11,1.49,2.07,2.78,3.07,4.11,1.11-1.42,2.11-2.69,3.22-4.11,1.17,1.45,2.19,2.71,3.28,4.07,1.07-1.42,2-2.67,3.05-4.06Z"/>
  <path d="M33.34,56.61c-.9,.1-1.69,.19-2.84,.32,.11-2.37,.13-4.5,.32-6.62,.16-1.75-.07-3.2-1.51-4.46-2.37-2.06-4.61-4.27-6.84-6.49-.45-.45-.86-1.27-.79-1.87,.96-9.42,2-18.83,3.04-28.24,.08-.73,.28-1.44,.61-3.06,1.83,1.59,3.67,2.57,4.54,4.11,1.1,1.96,1.87,4.34,1.99,6.58,.63,12.53,1.01,25.07,1.48,37.61,.02,.65,0,1.3,0,2.13ZM26.15,8.1c-.28,.42-.43,.55-.45,.69-1.05,9.41-2.12,18.82-3.08,28.23-.07,.67,.4,1.57,.9,2.09,2.06,2.14,4.23,4.17,6.36,6.24,.6,.58,1.23,1.14,1.54,1.42,0-6.96,.11-13.93-.04-20.89-.09-4.05-.41-8.12-.94-12.14-.33-2.48-1.42-4.75-4.28-5.65Zm5.5,47.66h.48v-5.97c-.16,0-.32,0-.48,0v5.96Z"/>
  <path d="M33.77,61.3c-1.05,1.39-1.98,2.64-3.05,4.06-1.1-1.36-2.11-2.62-3.28-4.07-1.11,1.41-2.11,2.69-3.22,4.11-1-1.34-1.96-2.63-3.07-4.11-1.07,1.36-2.02,2.57-3.18,4.04-1.09-1.37-2.09-2.63-3.19-4.03-1.1,1.36-2.11,2.61-3.24,4.01-1.03-1.3-1.94-2.44-3.1-3.89-1.07,1.64-2.02,3.09-2.96,4.54-.19-.11-.37-.22-.56-.33,1.05-1.86,2.1-3.71,3.34-5.9,1.24,1.56,2.24,2.82,3.31,4.17,1.11-1.42,2.12-2.7,3.22-4.11,1.04,1.34,1.98,2.56,3.12,4.04,1.11-1.4,2.07-2.61,3.21-4.04,.98,1.29,1.95,2.56,3.12,4.09,1.08-1.37,2.02-2.57,3.17-4.03,1.09,1.34,2.14,2.62,3.31,4.06,1.1-1.46,2.03-2.68,3.07-4.07,1.09,1.37,2.01,2.52,3.16,3.96,1.07-1.34,2.06-2.58,3.2-3.99,1.03,1.36,2.01,2.65,3.14,4.13,1.17-1.41,2.25-2.72,3.52-4.24,1.18,2.1,2.25,3.99,3.32,5.89-.19,.12-.39,.24-.58,.36-.92-1.45-1.83-2.9-2.92-4.62-1.18,1.42-2.22,2.67-3.36,4.04-1.04-1.39-1.99-2.65-3.09-4.13-1.03,1.33-2.02,2.59-3.17,4.07-1.1-1.36-2.11-2.61-3.23-4Z"/>
  <path class="cls-1" d="M26.15,8.1c2.86,.9,3.95,3.17,4.28,5.65,.53,4.02,.86,8.08,.94,12.14,.15,6.96,.04,13.93,.04,20.89-.3-.28-.93-.83-1.54-1.42-2.14-2.07-4.3-4.1-6.36-6.24-.5-.52-.97-1.42-.9-2.09,.97-9.42,2.03-18.83,3.08-28.23,.02-.14,.17-.27,.45-.69Z"/>
  <path class="cls-1" d="M31.65,55.77v-5.96c.16,0,.32,0,.48,0v5.97h-.48Z"/>
</svg>