<?xml version="1.0" encoding="utf-8"?>
<!-- Generator: Adobe Illustrator 26.5.3, SVG Export Plug-In . SVG Version: 6.00 Build 0)  -->
<svg version="1.1" id="Layer_1" xmlns="http://www.w3.org/2000/svg" xmlns:xlink="http://www.w3.org/1999/xlink" x="0px" y="0px"
	 viewBox="0 0 1920 1080" style="enable-background:new 0 0 1920 1080;" xml:space="preserve">
<g>
	<g>
		<path d="M986.58,529.99c2.06,0.7,2.82,2.52,4.38,3.32c0.81-0.67,0.44-1.56,0.45-2.32c0.05-4.08,0.05-8.16,0.03-12.24
			c-0.01-2.44,1.71-2.22,3.3-2.26c1.6-0.03,2.95,0.03,2.94,2.3c-0.06,12.82-0.06,25.64,0,38.45c0.01,2.42-1.44,2.37-3.12,2.38
			c-1.69,0.01-3.19,0.02-3.15-2.37c0.08-4.65,0.02-9.29,0.02-14.18c-2.01,0.64-2.72,2.72-4.83,3.25c0.56-2.07,2.17-2.92,3.3-4.1
			c0.95-0.99,1.59-1.6-0.03-2.61c-1.27-0.79-1.71-2.29-0.69-3.47c1.19-1.38,0.55-2.11-0.42-3.07
			C987.97,532.3,986.89,531.68,986.58,529.99z M996.43,538.34c0-5.83,0.01-11.66-0.01-17.49c0-1.31,0.25-2.78-1.83-2.83
			c-2.07-0.05-1.93,1.34-1.93,2.71c0,11.66,0,23.32,0,34.98c0,1.36-0.17,2.73,1.93,2.68c2.13-0.05,1.83-1.51,1.83-2.8
			C996.44,549.84,996.43,544.09,996.43,538.34z"/>
		<path d="M930.75,552.14c0,1.75-0.07,3.5,0.02,5.24c0.06,1.14-0.03,2.05-1.41,2.12c-1.52,0.08-1.42-1.06-1.47-2.06
			c0-0.08-0.02-0.17,0-0.25c1.32-5.52-2.04-8.7-5.89-11.54c-1.6-1.18-2.11-2.36-1.83-4.41c1.02-7.41,1.75-14.87,2.64-22.3
			c0.27-2.28,1.08-2.59,3.06-1.32c2.85,1.84,3.53,4.79,3.68,7.82c0.44,8.89,0.73,17.79,1.08,26.69
			C930.67,552.14,930.71,552.14,930.75,552.14z M929.12,550.55c0.11-0.58,0.21-0.82,0.2-1.05c-0.32-7.89-0.62-15.78-1-23.67
			c-0.1-2.07-0.44-4.16-1.79-5.88c-0.5-0.64-1.05-1.53-1.95-1.3c-0.85,0.22-0.68,1.29-0.76,1.95c-0.86,7.18-1.62,14.36-2.45,21.54
			c-0.08,0.72-0.07,1.38,0.54,1.8C924.56,545.73,926.39,548.39,929.12,550.55z"/>
		<path d="M959.05,559.61c-7.1,0.04-13.52-0.61-19.57-3.33c-0.88-0.39-2.32-0.58-2.33-1.59c-0.01-1.14,1.41-1.51,2.36-1.93
			c4.07-1.81,8.4-2.66,12.8-3.08c7.6-0.72,15.14-0.22,22.47,2.02c1.92,0.59,4.82,1.18,4.9,3.05c0.06,1.31-3.06,2.12-4.94,2.72
			C969.46,559.13,964.02,559.73,959.05,559.61z M958.65,558.41c5.58-0.24,11.31-0.49,16.78-2.55c0.76-0.29,1.91-0.4,1.97-1.27
			c0.07-1.01-1.16-1.06-1.88-1.28c-11.26-3.5-22.55-3.57-33.83-0.06c-0.74,0.23-1.97,0.31-1.96,1.24c0,1.06,1.28,1.13,2.09,1.44
			C947.19,557.95,952.83,558.21,958.65,558.41z"/>
		<path d="M958.48,535.55c-2.58,0-5.16,0.01-7.74-0.01c-0.57,0-1.31,0.06-1.51-0.6c-0.23-0.76,0.56-0.9,1.04-1.14
			c3.5-1.76,5.83-4.57,7.5-8.05c1.29-2.69,2.47-5.47,4.66-7.61c2.26-2.21,5.31-1.51,5.81,1.6c0.77,4.77,0.32,9.62,0.21,14.44
			c-0.03,1.36-1.23,1.38-2.25,1.38c-2.58,0.02-5.16,0.01-7.74,0.01C958.48,535.56,958.48,535.56,958.48,535.55z M952.44,534.11
			c0.7,0.16,0.86,0.22,1.02,0.22c2.67,0.01,5.33,0.02,8,0.02c5.89,0,5.9,0,5.89-5.96c-0.01-2.58,0-5.16-0.16-7.74
			c-0.07-1.08-0.56-2.14-1.82-2.44c-1.05-0.25-1.71,0.4-2.35,1.1c-1.08,1.18-1.86,2.55-2.57,3.97
			C958.5,527.26,956.58,531.24,952.44,534.11z"/>
	</g>
</g>
</svg>
