<svg xmlns="http://www.w3.org/2000/svg" width="2000" height="2000" viewBox="0 0 112 65" version="1.1"><path d="M 7.639 7.750 C 7.366 8.713, 6.379 16.180, 5.447 24.345 L 3.751 39.189 8.875 43.672 C 13.860 48.033, 14 48.303, 14 53.578 C 14 57.869, 14.332 59, 15.591 59 C 17.009 59, 17.115 57.072, 16.564 41.250 C 15.629 14.439, 15.215 11.124, 12.451 8.360 C 9.640 5.549, 8.310 5.381, 7.639 7.750 M 55.663 9.250 C 54.321 11.038, 52.063 14.818, 50.645 17.651 C 48.269 22.397, 46.305 24.520, 41.358 27.691 C 39.862 28.651, 41.884 28.894, 51.750 28.941 L 64 29 64 18.700 C 64 8.113, 63.310 6, 59.851 6 C 58.889 6, 57.004 7.462, 55.663 9.250 M 93 16.687 L 93 27.374 90 24.500 C 88.350 22.919, 87 22.082, 87 22.639 C 87 23.196, 88.131 24.714, 89.513 26.012 C 91.211 27.607, 91.698 28.702, 91.013 29.387 C 89.513 30.887, 89.784 33.780, 91.515 34.749 C 92.773 35.452, 92.517 36.088, 90.015 38.485 C 88.357 40.074, 87 41.824, 87 42.374 C 87 42.924, 88.350 42.081, 90 40.500 L 93 37.626 93 48.313 L 93 59 97 59 L 101 59 101 32.500 L 101 6 97 6 L 93 6 93 16.687 M 57.285 9.250 C 56.149 10.488, 53.989 13.960, 52.483 16.967 C 50.978 19.975, 48.405 23.687, 46.767 25.217 L 43.788 28 53.394 28 L 63 28 63 18.700 C 63 7.206, 61.474 4.683, 57.285 9.250 M 94.125 32.500 L 94.129 58 97.064 58 L 100 58 100 32.500 L 100 7 97.061 7 L 94.121 7 94.125 32.500 M 8.533 9.250 C 7.979 10.966, 4.898 39.277, 5.253 39.401 C 5.409 39.455, 7.722 41.525, 10.393 44 L 15.248 48.500 14.675 30.652 C 14.231 16.831, 13.747 12.262, 12.528 10.402 C 10.805 7.773, 9.164 7.299, 8.533 9.250 M 91 31.441 C 91 32.234, 91.450 33.160, 92 33.500 C 92.550 33.840, 93 33.191, 93 32.059 C 93 30.927, 92.550 30, 92 30 C 91.450 30, 91 30.648, 91 31.441 M 37.500 47.960 C 30.231 49.510, 24.837 52.099, 25.988 53.485 C 31.414 60.023, 68.504 60.397, 78 54.009 C 79.333 53.112, 79.333 52.888, 78 51.996 C 72.318 48.194, 47.842 45.755, 37.500 47.960 M 40.500 48.621 C 32.254 50.703, 28 52.193, 28 53 C 28 55.323, 39.554 57.479, 52 57.479 C 64.423 57.479, 76 55.323, 76 53.011 C 76 50.990, 65.269 48.761, 54 48.442 C 47.675 48.262, 41.600 48.343, 40.500 48.621 M 15.195 55.500 C 15.215 57.150, 15.439 57.704, 15.693 56.731 C 15.947 55.758, 15.930 54.408, 15.656 53.731 C 15.382 53.054, 15.175 53.850, 15.195 55.500" stroke="none" fill="#66686d" fill-rule="evenodd"/><path d="M 0 32.508 L 0 65.017 56.250 64.758 L 112.500 64.500 112.764 32.250 L 113.028 0 56.514 0 L 0 0 0 32.508 M 0.447 33 C 0.447 50.875, 0.582 58.188, 0.748 49.250 C 0.914 40.312, 0.914 25.687, 0.748 16.750 C 0.582 7.812, 0.447 15.125, 0.447 33 M 7.639 7.750 C 7.366 8.713, 6.379 16.180, 5.447 24.345 L 3.751 39.189 8.875 43.672 C 13.860 48.033, 14 48.303, 14 53.578 C 14 57.869, 14.332 59, 15.591 59 C 17.009 59, 17.115 57.072, 16.564 41.250 C 15.629 14.439, 15.215 11.124, 12.451 8.360 C 9.640 5.549, 8.310 5.381, 7.639 7.750 M 55.663 9.250 C 54.321 11.038, 52.063 14.818, 50.645 17.651 C 48.269 22.397, 46.305 24.520, 41.358 27.691 C 39.862 28.651, 41.884 28.894, 51.750 28.941 L 64 29 64 18.700 C 64 8.113, 63.310 6, 59.851 6 C 58.889 6, 57.004 7.462, 55.663 9.250 M 93 16.687 L 93 27.374 90 24.500 C 88.350 22.919, 87 22.082, 87 22.639 C 87 23.196, 88.131 24.714, 89.513 26.012 C 91.211 27.607, 91.698 28.702, 91.013 29.387 C 89.513 30.887, 89.784 33.780, 91.515 34.749 C 92.773 35.452, 92.517 36.088, 90.015 38.485 C 88.357 40.074, 87 41.824, 87 42.374 C 87 42.924, 88.350 42.081, 90 40.500 L 93 37.626 93 48.313 L 93 59 97 59 L 101 59 101 32.500 L 101 6 97 6 L 93 6 93 16.687 M 57.285 9.250 C 56.149 10.488, 53.989 13.960, 52.483 16.967 C 50.978 19.975, 48.405 23.687, 46.767 25.217 L 43.788 28 53.394 28 L 63 28 63 18.700 C 63 7.206, 61.474 4.683, 57.285 9.250 M 94.125 32.500 L 94.129 58 97.064 58 L 100 58 100 32.500 L 100 7 97.061 7 L 94.121 7 94.125 32.500 M 8.533 9.250 C 7.979 10.966, 4.898 39.277, 5.253 39.401 C 5.409 39.455, 7.722 41.525, 10.393 44 L 15.248 48.500 14.675 30.652 C 14.231 16.831, 13.747 12.262, 12.528 10.402 C 10.805 7.773, 9.164 7.299, 8.533 9.250 M 91 31.441 C 91 32.234, 91.450 33.160, 92 33.500 C 92.550 33.840, 93 33.191, 93 32.059 C 93 30.927, 92.550 30, 92 30 C 91.450 30, 91 30.648, 91 31.441 M 37.500 47.960 C 30.231 49.510, 24.837 52.099, 25.988 53.485 C 31.414 60.023, 68.504 60.397, 78 54.009 C 79.333 53.112, 79.333 52.888, 78 51.996 C 72.318 48.194, 47.842 45.755, 37.500 47.960 M 40.500 48.621 C 32.254 50.703, 28 52.193, 28 53 C 28 55.323, 39.554 57.479, 52 57.479 C 64.423 57.479, 76 55.323, 76 53.011 C 76 50.990, 65.269 48.761, 54 48.442 C 47.675 48.262, 41.600 48.343, 40.500 48.621 M 15.195 55.500 C 15.215 57.150, 15.439 57.704, 15.693 56.731 C 15.947 55.758, 15.930 54.408, 15.656 53.731 C 15.382 53.054, 15.175 53.850, 15.195 55.500" stroke="none" fill="#f8f8f8" fill-rule="evenodd"/></svg>
