<?xml version="1.0" encoding="utf-8"?>
<!-- Generator: Adobe Illustrator 26.5.3, SVG Export Plug-In . SVG Version: 6.00 Build 0)  -->
<svg version="1.1" id="Layer_1" xmlns="http://www.w3.org/2000/svg" xmlns:xlink="http://www.w3.org/1999/xlink" x="0px" y="0px"
	 viewBox="0 0 1920 1080" style="enable-background:new 0 0 1920 1080;" xml:space="preserve">
<g>
	<g>
		<path d="M960.73,530.5c1.67,0,3.33,0,5,0c0.69,0,1.41,0.02,1.53,0.89c0.13,0.92-0.52,1.1-1.26,1.12
			c-0.77,0.02-1.59,0.02-1.53,1.13c0.05,0.94-0.41,2.06,0.82,2.63c1.42,0.66,2.42,1.75,3.16,3.09c0.68,1.23,1.57,1.88,3.05,1.42
			c0.62-0.19,1.35-0.34,1.45,0.73c0.09,0.94-0.22,1.48-1.21,1.39c-1.69-0.15-1.74,0.82-1.82,2.17c-0.26,4.52-1.63,8.81-3,13.1
			c-0.36,1.14-1.16,1.21-2.14,1.2c-2.83-0.03-5.67-0.09-8.5,0.02c-1.38,0.05-1.89-0.57-2.23-1.74c-1.26-4.38-2.83-8.69-2.78-13.33
			c0.02-1.45-0.99-1.3-1.86-1.39c-0.69-0.07-1.39-0.05-1.23-1.07c0.12-0.82,0.66-1.24,1.39-1.06c1.83,0.44,2.77-0.41,3.46-1.98
			c0.49-1.1,1.48-1.82,2.54-2.32c1.18-0.56,1.05-1.54,1.09-2.54c0.05-1.11-0.51-1.47-1.51-1.48c-0.73-0.01-1.01-0.46-0.96-1.16
			c0.06-0.85,0.71-0.81,1.28-0.82C957.23,530.49,958.98,530.51,960.73,530.5z M960.6,558.61c0.83,0,1.69-0.12,2.49,0.02
			c2.29,0.41,3.32-0.68,3.77-2.77c0.6-2.76,1.44-5.48,1.95-8.25c0.82-4.51,0.04-8.48-4.41-10.9c-0.45-0.25-0.94-0.48-0.82-1.09
			c0.73-3.85-2-3.04-4.12-3.1c-1.31-0.04-2.13,0.36-1.94,1.83c0.17,1.39-0.32,2.24-1.63,2.94c-2.01,1.06-3.02,2.94-3.54,5.17
			c-0.89,3.77,0.43,7.26,1.28,10.78C954.91,558.63,955,558.61,960.6,558.61z"/>
	</g>
</g>
</svg>
