<?xml version="1.0" encoding="utf-8"?>
<!-- Generator: Adobe Illustrator 26.5.3, SVG Export Plug-In . SVG Version: 6.00 Build 0)  -->
<svg version="1.1" id="Layer_1" xmlns="http://www.w3.org/2000/svg" xmlns:xlink="http://www.w3.org/1999/xlink" x="0px" y="0px"
	 viewBox="0 0 1920 1080" style="enable-background:new 0 0 1920 1080;" xml:space="preserve">
<g>
	<g>
		<path d="M972.11,558.96c-3.35-0.54-4.69,0.91-4.45,4.03c0.04,0.55,0.07,0.59,4.33,1.68c-0.32,0.54-0.86,0.37-1.3,0.37
			c-2.07-0.03-3.82,0.03-5.52,1.91c-2.32,2.56-6.63,2.62-9.07,0.27c-1.69-1.63-3.3-2.58-5.69-2.15c0.52-1.69,3.32,0.49,2.99-2.17
			c-0.42-3.39-0.38-3.39-2.97-4.23c3.84,0.61,4.27-3.1,6.19-4.87c0.62-0.57,1.02-1.11,1.81-1.02c2.15,0.24,2.07-0.87,1.57-2.36
			c-3.03-9.04-4.77-18.31-4.8-27.86c-0.01-2.91,0.31-5.77,1.63-8.49c0.89-1.84,2.26-3.09,4.11-3.19c1.88-0.1,3.21,1.16,4.2,2.94
			c2.75,4.95,1.99,10.22,1.54,15.39c-0.62,7.22-2.22,14.29-4.47,21.19c-0.51,1.56-0.64,2.7,1.5,2.34c1.88-0.32,0.67,1.1,1.02,1.62
			C967.05,557.8,967.55,558.1,972.11,558.96z M961.05,550.15c3.46-10.18,5.72-20.52,4.93-31.32c-0.14-1.94-0.99-3.72-2.04-5.31
			c-1.73-2.59-4.74-2.4-6.16,0.39c-0.63,1.24-1.22,2.53-1.39,3.98C955.13,529.03,957.44,539.64,961.05,550.15z M960.74,559.21
			c-1.5,0-2.99,0.03-4.49-0.01c-1.42-0.04-2.53,0.19-2.3,2.01c0.18,1.46,0.02,3.12,2.3,3.08c2.91-0.05,5.82-0.04,8.73,0
			c2.41,0.04,1.89-1.82,2.1-3.18c0.25-1.62-0.71-1.97-2.1-1.91C963.56,559.26,962.15,559.21,960.74,559.21z M960.53,558.45
			c1.58,0,3.16,0,4.74,0c1.14,0,1.26-0.55,0.76-1.42c-1.17-2.05-3.01-3.14-5.3-3.18c-2.37-0.04-4.36,0.95-5.6,3.1
			c-0.58,1-0.33,1.55,0.91,1.52C957.53,558.43,959.03,558.46,960.53,558.45z M965.46,565.06c-3.08,0-5.82-0.01-8.55,0.01
			c-0.38,0-0.88-0.14-1.1,0.32c-0.23,0.47,0.17,0.76,0.44,1.05C958.66,568.97,963.27,568.45,965.46,565.06z"/>
	</g>
</g>
</svg>
