<?xml version="1.0" encoding="utf-8"?>
<!-- Generator: Adobe Illustrator 26.5.3, SVG Export Plug-In . SVG Version: 6.00 Build 0)  -->
<svg version="1.1" id="Layer_1" xmlns="http://www.w3.org/2000/svg" xmlns:xlink="http://www.w3.org/1999/xlink" x="0px" y="0px"
	 viewBox="0 0 1920 1080" style="enable-background:new 0 0 1920 1080;" xml:space="preserve">
<g>
	<g>
		<path d="M961.89,532.21c-0.3,1.37,1.08,1.93,1.95,2.67c4.22,3.63,8.52,7.18,12.78,10.78c0.53,0.45,1.66,0.89,1.09,1.66
			c-0.72,0.95-1.51-0.1-2.08-0.56c-4.5-3.7-9.04-7.35-13.37-11.24c-1.6-1.43-2.3-0.88-3.26,0.45c-1.7,2.36-3.35,4.77-5.21,7
			c-1.05,1.26-0.98,2.27-0.24,3.58c4.54,8.07,9.75,15.69,15.66,22.82c1.01,1.22,2.05,2.41,3.05,3.64c0.45,0.55,1.36,1.29,0.7,1.88
			c-0.91,0.82-1.42-0.42-1.9-0.96c-3.65-4.11-6.98-8.47-10.19-12.95c-3.01-4.21-5.65-8.64-8.37-13.03c-0.51-0.82-0.89-2.04-2.09-0.6
			c-0.14,0.17-0.68,0.23-0.88,0.1c-0.42-0.27-0.35-0.81-0.06-1.1c1.57-1.59,0.53-3.02-0.14-4.55c-2.61-5.97-4.91-12.03-4.99-18.68
			c-0.03-2.18-1-3.79-2.78-5.02c-0.62-0.42-1.82-0.87-1.13-1.82c0.58-0.79,1.29,0.23,1.9,0.56c0.89,0.47,1.83,1.94,2.47-0.25
			c0.09-0.3,0.51-0.44,0.84-0.2c0.37,0.28,0.5,0.75,0.35,1.12c-0.82,1.97,0.61,2.89,1.79,3.9c3.35,2.86,6.69,5.74,10.13,8.5
			c0.94,0.76,1.76,2.28,3.56,0.87C962.22,530.21,962.3,531.31,961.89,532.21z M945.8,521.76c0.13,7.86,2.54,14.54,5.77,21.22
			c1.92-1.63,3-3.61,4.35-5.34c3.36-4.31,3.36-4.4-0.75-8.03C952.23,527.01,949.14,524.55,945.8,521.76z"/>
	</g>
</g>
</svg>
