<?xml version="1.0" encoding="utf-8"?>
<!-- Generator: Adobe Illustrator 26.5.3, SVG Export Plug-In . SVG Version: 6.00 Build 0)  -->
<svg version="1.1" id="Layer_1" xmlns="http://www.w3.org/2000/svg" xmlns:xlink="http://www.w3.org/1999/xlink" x="0px" y="0px"
	 viewBox="0 0 1920 1080" style="enable-background:new 0 0 1920 1080;" xml:space="preserve">
<g>
	<g>
		<path d="M980.07,548.38c1.93-4.66,0.23-8.7-1.22-12.75c-0.47-1.32-1.43-0.74-2.28-0.37c-2.44,1.07-4.87,2.16-7.32,3.21
			c-0.84,0.36-1.71,0.68-2.66,0.59c-1.82-0.18-2.79-1.85-1.62-3.19c2.78-3.18,4.94-6.94,8.56-9.35c0.55-0.36,1.16-0.9,1.74-0.89
			c2.59,0.06,3.36-1.72,4.01-3.68c1.28-3.88,3.46-5.23,6.86-4.22c3,0.89,4.47,3.77,3.28,7.26c-0.68,2-0.93,3.12,1.35,4.31
			c1.58,0.82,2.53,2.79,3.25,4.61c1.86,4.66,2.74,9.4,1.53,14.39c-0.23,0.97-0.33,1.93-0.07,2.95c0.25,1,0.14,1.98-1.05,2.5
			c-0.62,0.27-1.19,0.73-1.81,0.13c-0.82-0.79-0.25-1.71-0.18-2.59c0.43-5.16,0.86-10.32-1.82-15.56
			c-2.27,5.17-2.37,10.17-1.93,15.22c0.09,1,0.31,1.99-0.01,2.97c-0.83,2.55,0.45,3.71,2.73,4.25c0.32,0.08,0.64,0.17,0.96,0.26
			c0.66,0.17,1.45,0.4,1.37,1.19c-0.1,1.04-1.1,0.8-1.79,0.84c-0.57,0.03-1.2,0.03-1.73-0.16c-5.32-1.89-10.71-0.74-16.08-0.44
			c-2.71,0.15-5.46-0.55-8.12,0.58c-0.57,0.24-1.39,0.03-1.51-0.86c-0.1-0.72,0.4-1.14,1-1.2c2.9-0.31,3.1-3.44,5.02-4.79
			c0.56-0.39,0.08-1.26-0.03-1.9c-0.37-2.21-0.92-4.41-1.1-6.64c-0.24-3.02,1.28-3.9,4-2.72
			C976.28,543.57,978.02,546.03,980.07,548.38z M994.06,547.86c1.87-5.93,0.19-11.27-2.94-16.34c-0.79-1.29-1.94-2.11-3.4-2.3
			c-2.3-0.3-2.86-2.3-3.33-3.85c-0.7-2.31-0.46-2.43-2.74-1.36c-2.31,1.09-2.34,1.12-0.12,2.59c0.82,0.55,1.08,1.26,0.99,2.12
			c-0.09,0.85-0.69,1.31-1.53,1.4c-1.23,0.13-2.14,0.89-3.1,1.54c-3.16,2.15-6.84,3.1-10.32,4.67c3.03-3.3,4.81-7.75,9.46-9.33
			c-1.97-0.28-3.39,0.74-4.56,1.97c-1.89,1.99-3.6,4.14-5.34,6.26c-0.52,0.64-1.8,1.17-0.99,2.21c0.67,0.85,1.7,0.29,2.54-0.08
			c2.82-1.23,5.65-2.46,8.46-3.73c1.21-0.54,2.31-0.82,2.75,0.84c1.1,4.12,3.42,8.06,1.93,12.6c-0.21,0.63-0.29,1.35,0.56,1.69
			c1.57,0.62,5-1.55,4.93-3.25c-0.11-2.9,0.59-5.61,1.43-8.32c0.33-1.08,0.29-2.6,1.81-2.62c1.58-0.01,1.69,1.55,2.17,2.68
			C994.16,540.63,994.18,544.19,994.06,547.86z M987.46,552.83c0.08-3.75-0.32-4.09-3.92-2.83c-3.2,1.13-6.36,2.39-9.49,3.69
			c-0.78,0.32-2.33,0.29-1.85,1.76c0.4,1.23,1.56,0.88,2.57,0.66c2.85-0.63,5.66-0.99,8.58-0.07
			C986.4,557.01,987.39,556.13,987.46,552.83z M986.11,524.41c-0.4,0.79-0.46,1.57,0.46,2.11c0.42,0.25,0.85,0.12,1.06-0.29
			c0.84-1.61,1.08-3.33,0.55-5.06c-0.42-1.37-1.47-2.23-2.89-2.44c-1.44-0.22-3.24-0.21-3.66,1.31c-0.4,1.43,1.5,1.38,2.43,1.77
			C985.31,522.33,986.45,522.7,986.11,524.41z M979.04,549.17c-1.34-1.44-2.4-3.36-4.26-4.57c-0.54-0.36-1.14-0.92-1.78-0.4
			c-0.62,0.5-0.37,1.21-0.02,1.82c0.54,0.95,0.84,1.98,0.98,3.06c0.39,3.05,0.39,3.04,3.36,1.82
			C978.05,550.59,979,550.53,979.04,549.17z M987.79,558c-1.6-0.71-3.35-0.19-5-0.79c-2.51-0.92-5.12-0.59-7.62,0.1
			c-1.57,0.44-2.9,0.72-3.96-0.86c-0.28-0.42-0.71-0.78-1.23-0.26c-0.42,0.42-0.32,0.93-0.04,1.38c0.7,1.14,1.87,0.88,2.92,0.92
			C977.83,558.68,982.77,557.31,987.79,558z"/>
		<path d="M931.02,517.83c1.67,0.53,2.97,0.39,4.17,2.22c1.73,2.62,4.5,4.62,7.47,5.97c1.26,0.57,1.35,1.92,2.39,2.64
			c2.12,1.45,4.04,3.2,6.04,4.82c0.51,0.41,1.11,0.74,1.22,1.69c-1.38,0.1-2.12-0.85-2.96-1.5c-1.83-1.43-3.62-2.93-5.42-4.4
			c-0.43-0.35-0.77-0.89-1.49-0.68c-2.02,0.59-4.03,5.45-2.93,7.27c2.69,4.42,5.8,8.53,9.15,12.47c0.44,0.52,1.27,0.9,0.87,1.96
			c-1.25-0.1-1.75-1.16-2.41-1.92c-3.02-3.45-5.71-7.15-8.17-11.02c-0.54-0.85-0.78-2.12-2.21-2.08c-0.38,0.01-0.49-0.31-0.53-0.68
			c-0.44-4.71-3.37-8.82-3.31-13.66C932.91,519.66,931.26,519.34,931.02,517.83z M934.85,521.92c-0.67,2.63,0.27,4.69,1.09,6.71
			c0.45,1.11,0.48,2.98,1.62,3.12c1.23,0.15,1.8-1.62,2.59-2.61c0.63-0.79,1.69-1.63,0.39-2.69
			C938.72,524.96,936.86,523.51,934.85,521.92z"/>
		<path d="M941.51,552.38c5.17,0.05,10.3,0.35,15.02,2.77c0.61,0.31,1.64,0.45,1.55,1.37c-0.08,0.86-1.05,0.93-1.72,1.2
			c-9.68,3.86-19.4,3.67-29.12,0.18c-0.75-0.27-1.85-0.46-1.95-1.34c-0.14-1.15,1.12-1.31,1.88-1.66
			C931.72,552.82,936.57,552.33,941.51,552.38z M926.99,556.13c7.11,4.14,24.39,3.9,28.94-0.2
			C946.32,552.81,936.98,552.68,926.99,556.13z"/>
	</g>
</g>
</svg>
