<?xml version="1.0" encoding="UTF-8"?>
<svg id="Layer_1" data-name="Layer 1" xmlns="http://www.w3.org/2000/svg" viewBox="0 0 67 33">
  <defs>
    <style>
      .cls-1 {
        fill: #fefefe;
      }

      .cls-2 {
        fill: #4a4c51;
      }

      .cls-3 {
        fill: #34363c;
      }

      .cls-4 {
        fill: #53555a;
      }
    </style>
  </defs>
  <path class="cls-1" d="M.05,32.97C.05,22.51,.09,12.05,0,1.59-.01,.07,.48,0,1.73,0,22.92,.05,44.11,.05,65.3,0c1.34,0,1.7,.21,1.68,1.64-.08,9.89-.1,19.77,.01,29.66,.02,1.67-.55,1.71-1.87,1.71-21.69-.04-43.38-.03-65.09-.03Z"/>
  <path class="cls-3" d="M51.96,20.48c-4.23,2.89-9.14,3.7-14.04,4.47-7.57,1.18-14.89-.07-21.97-2.73-5.12-1.93-8.91-5.61-12.14-9.92-.38-.51-.99-1.06-.71-1.76,.33-.82,1.17-.43,1.76-.43,18.3-.02,36.6-.02,54.9,0,.61,0,1.45-.37,1.77,.45,.22,.57-.28,1.05-.61,1.53-1.11,1.65-2.4,3.13-3.85,4.48-.58,.17-.76-.18-.86-.64,.02-.43,.21-.79,.39-1.16,.44-.92,1.96-1.63,1.26-2.67-.58-.85-2.03-.35-3.09-.35-15.2-.02-30.4-.02-45.6,0-.89,0-1.82-.2-3.09,.43,2.3,2.74,4.67,5.18,7.71,6.88,4.73,2.64,9.9,3.87,15.25,4.19,7.04,.42,13.94-.29,20.46-3.27,.53-.24,1.09-.41,1.69-.34,.43,.12,.82,.28,.74,.85Z"/>
  <path class="cls-2" d="M56.45,15.99c.21,.19,.42,.39,.62,.58-.91,.92-1.76,1.92-2.95,2.51-.48,.25-.7-.05-.88-.42,.27-1.85,1.47-2.58,3.2-2.67Z"/>
  <path class="cls-4" d="M53.45,18.45c.23,.21,.45,.42,.68,.63-.64,.59-1.31,1.15-2.17,1.4-.2-.19-.41-.37-.61-.56,.18-1.24,.93-1.65,2.1-1.47Z"/>
  <path class="cls-1" d="M53.45,18.45l-2.1,1.47c-11.2,5.19-22.63,5.7-34.25,1.6-5.32-1.87-9.17-5.62-12.62-9.97,.87-.71,1.63-.42,2.32-.42,16.94-.02,33.89-.02,50.83,0,.75,0,1.84-.53,2.21,.42,.29,.75-.74,1.18-1.19,1.75-.72,.9-1.46,1.79-2.19,2.68-1.19,.59-2.12,1.5-3.01,2.46Z"/>
</svg>