<?xml version="1.0" encoding="UTF-8"?>
<svg id="Layer_1" data-name="Layer 1" xmlns="http://www.w3.org/2000/svg" viewBox="0 0 175 74">
  <defs>
    <style>
      .cls-1 {
        fill: #fff;
      }
    </style>
  </defs>
  <path class="cls-1" d="M0,0c58.33,0,116.67,0,175,0,0,24.67,0,49.33,0,74-58.33,0-116.67,0-175,0C0,49.33,0,24.67,0,0ZM161.25,65.29c.13,.26,.26,.53,.4,.79,.75-.12,1.5-.25,2.25-.37,1.21-.2,2.42-.53,3.63-.57,2.48-.08,2.95-.6,2.71-3.21-.78-8.59-1.54-17.17-2.3-25.76-.63-7.17-2.75-13.79-6.92-19.73-.54-.76-.61-2.15-.36-3.11,.74-2.76,.1-5.08-1.97-6.02-2.46-1.12-5.28-.34-6.64,2.1-.91,1.63-1.44,3.46-2.18,5.28,1.32,1.01,2.34,2.29,3.62,2.65,1.93,.53,2.22,1.2,1.08,2.7-1.89,2.49-3.78,4.98-5.63,7.41-2.56-1.63-4.89-3.65-7.6-4.71-3.62-1.42-4.52-3.87-4.36-7.32,.11-2.41,.02-4.84,.02-7.25-.24,0-.48,0-.72,0,0,3.32,.07,6.64-.04,9.96-.03,1.04-.6,2.05-.78,3.1-.12,.71-.29,1.7,.08,2.16,2.57,3.32,3.31,6.94,2.24,10.98-.09,.35-.05,.91,.17,1.16,1.26,1.42,2.59,2.78,4.11,4.39-.42-1.38-.77-2.52-1.23-4.03,5.77-2.1,11.16-4.76,14.26-11.5,1.8,2.69,3.09,4.63,4.66,6.97-1.67,.11-2.5,.17-3.33,.22-.02,.13-.03,.25-.05,.38,.89,.28,1.79,.56,2.88,.9-.17,2.08-.11,4.1-.53,6.02-1.33,6.08-2.99,12.09-4.2,18.2-.63,3.18-2.23,4.94-5.29,5.7-.95,.24-1.79,.93-2.68,1.41,.11,.32,.23,.64,.34,.95,1.6-.16,3.25-.65,4.79-.42,2.94,.44,4.9,.1,4.59-3.52-.03-.37,.3-.76,.43-1.16,1.19-3.63,2.78-7.18,3.43-10.9,.54-3.1,2.02-3.74,5.13-3.41,.58,3.94,1.34,7.99,1.75,12.08,.43,4.23,.27,4.21-3.71,5.93-.77,.33-1.37,1.03-2.06,1.56Zm-67.03-12.45c1.84,.96,3.7,1.93,6.04,3.15,.41-2.68,.77-5.04,1.21-7.87,2.61,4.13,4.95,7.93,7.39,11.66,.9,1.38,1.81,3.35,3.12,3.76,3.98,1.23,8.15,1.83,12.96,2.83-.75-2.36-1.28-4-1.84-5.77,.91-.16,1.68-.29,2.7-.46-.49-.58-.74-1.04-1.12-1.3-3.41-2.32-5.79-5.4-7.05-9.34-.15-.46-.48-.87-.75-1.29-3.66-5.55-7.18-11.2-11.05-16.6-3.17-4.43-6.2-9.24-10.33-12.63-3.53-2.89-5.92-5.35-5.29-10.06,.07-.56-1.23-1.86-1.94-1.89-3.49-.16-6.99-.09-10.48,.12-.76,.05-1.86,.87-2.12,1.59-1.85,5.05-2.05,10.03,.99,14.81,2.1,3.29,4.07,6.66,6.05,10.03,.4,.68,.78,1.5,.8,2.27,.11,3.9-.09,7.82,.19,11.71,.3,4.15-.15,8.08-1.68,11.96-.57,1.44-1.18,2.11-2.83,2.03-2.49-.12-5-.06-7.48,.14-1.32,.11-2.6,.7-3.9,1.08,1.81,.25,3.41-.13,5.03-.23,5.67-.35,11.29-.22,16.84,1.29,2.47,.67,4.3-.71,4.5-3.26,.2-2.45,.04-4.93,.04-7.73Zm-51.38-1.4c-1.65,7.49-5.84,12.06-13.81,12.09-5.4,.02-10.32-3.53-11.95-8.22-1.97-5.68-.74-10.96,3.4-14.34,1,.92,2.01,1.84,2.99,2.74,1.28-1.1,2.33-2,3.42-2.93,1.18,1.08,2.19,2.01,3.25,2.97,1.18-1.08,2.16-1.97,3.2-2.93,1.18,.97,2.29,1.89,3.36,2.77,1.22-.99,2.23-1.8,3.05-2.47,4.48,2.49,4.48,6.66,4.82,10.7v-14.08c-.24,0-.47,0-.71,.01v5.96c-1.51-1.65-2.62-2.85-3.79-4.13-1.18,.96-2.25,1.84-3.44,2.81-1.11-.97-2.15-1.87-3.28-2.87-1.12,1.03-2.14,1.97-3.2,2.94-1.16-1.01-2.21-1.94-3.35-2.93-1.15,1-2.24,1.95-3.37,2.93-1.17-1.09-2.18-2.03-3.24-3.02-1.21,1.35-2.26,2.54-3.61,4.05-.14-2.3-.25-4.04-.35-5.78-.22,.02-.45,.05-.67,.07,0,4.82-.31,9.67,.07,14.46,.59,7.54,6.93,12.61,14.62,12.24,7.46-.35,13.38-7.09,12.59-13.06Zm7.18-39.82c-1.42-1.76-2.64-3.27-3.98-4.93-1.4,1.7-2.63,3.2-4.01,4.88-1.38-1.74-2.6-3.26-3.9-4.9-1.37,1.64-2.66,3.17-4.06,4.85-1.44-1.78-2.66-3.28-3.93-4.85-1.42,1.74-2.64,3.25-3.99,4.91-1.39-1.78-2.62-3.34-3.89-4.96-1.36,1.66-2.69,3.27-4.09,4.97-1.39-1.79-2.6-3.36-3.86-4.99-1.3,1.67-2.56,3.27-3.91,4.99-1.44-1.77-2.73-3.37-4.14-5.1-1.46,2.5-2.83,4.85-4.21,7.19,.2,.12,.4,.24,.6,.37,1.21-1.88,2.43-3.76,3.77-5.84,1.42,1.72,2.65,3.21,4,4.84,1.34-1.71,2.54-3.23,3.87-4.92,1.41,1.78,2.63,3.32,3.9,4.93,1.42-1.71,2.7-3.25,4.07-4.9,1.44,1.8,2.65,3.31,3.92,4.89,1.45-1.78,2.69-3.31,4.02-4.94,1.34,1.73,2.54,3.29,3.85,4.98,1.45-1.75,2.76-3.32,4.1-4.93,1.35,1.69,2.56,3.21,3.86,4.84,1.46-1.72,2.72-3.21,4.06-4.79,1.4,1.71,2.63,3.21,3.92,4.8,1.4-1.7,2.6-3.14,3.94-4.77,1.34,2.04,2.56,3.9,3.78,5.76,.21-.14,.41-.27,.62-.41-1.37-2.26-2.74-4.52-4.28-7.07-1.43,1.81-2.59,3.29-4.01,5.09Z"/>
  <path d="M161.25,65.29c.68-.53,1.29-1.23,2.06-1.56,3.98-1.71,4.13-1.7,3.71-5.93-.41-4.09-1.17-8.14-1.75-12.08-3.11-.32-4.59,.31-5.13,3.41-.65,3.72-2.24,7.28-3.43,10.9-.13,.39-.46,.79-.43,1.16,.31,3.62-1.65,3.96-4.59,3.52-1.54-.23-3.19,.25-4.79,.42-.11-.32-.23-.64-.34-.95,.89-.48,1.73-1.17,2.68-1.41,3.06-.76,4.66-2.52,5.29-5.7,1.21-6.1,2.88-12.12,4.2-18.2,.42-1.92,.36-3.94,.53-6.02-1.1-.34-1.99-.62-2.88-.9,.02-.13,.03-.25,.05-.38,.83-.06,1.67-.11,3.33-.22-1.56-2.34-2.86-4.28-4.66-6.97-3.1,6.75-8.49,9.4-14.26,11.5,.46,1.51,.81,2.65,1.23,4.03-1.53-1.61-2.86-2.97-4.11-4.39-.22-.25-.26-.8-.17-1.16,1.07-4.04,.33-7.66-2.24-10.98-.36-.47-.2-1.45-.08-2.16,.18-1.05,.75-2.06,.78-3.1,.1-3.32,.04-6.64,.04-9.96,.24,0,.48,0,.72,0,0,2.42,.09,4.84-.02,7.25-.16,3.44,.74,5.9,4.36,7.32,2.71,1.06,5.04,3.08,7.6,4.71,1.85-2.43,3.74-4.92,5.63-7.41,1.14-1.5,.85-2.17-1.08-2.7-1.28-.35-2.3-1.64-3.62-2.65,.73-1.81,1.27-3.65,2.18-5.28,1.36-2.44,4.18-3.22,6.64-2.1,2.07,.94,2.71,3.25,1.97,6.02-.25,.95-.18,2.34,.36,3.11,4.17,5.95,6.29,12.57,6.92,19.73,.76,8.59,1.52,17.18,2.3,25.76,.24,2.61-.23,3.13-2.71,3.21-1.22,.04-2.42,.37-3.63,.57-.75,.12-1.5,.25-2.25,.37-.13-.26-.26-.53-.4-.79Zm4.56-35.74c-1.41-7.2-4.92-12.84-10.47-17.11-.68-.52-2.19-.14-3.25,.1-.38,.09-.92,1.36-.76,1.53,.85,.92,1.76,1.99,2.88,2.41,2.07,.78,2.66,1.87,1.44,3.72-.63,.95-1.34,1.85-2.13,2.94,3.44,1.91,5.97,4.42,6.75,8.44,1.92-.7,3.7-1.35,5.56-2.03Zm.6,.85c-1.98,.67-3.54,1.15-5.06,1.75-.46,.18-1.09,.67-1.14,1.08-.52,3.9-.93,7.82-1.4,11.97,2.55-.25,5.02-.41,7.44-.81,.48-.08,1.17-1.14,1.14-1.71-.22-3.96-.61-7.9-.98-12.28Zm-19.38-.32c-3.04-2.15-5.87-4.15-9.15-6.47,.3,2.17,.42,3.71,.73,5.22,1.01,4.92,1.03,4.92,5.46,2.71,.87-.43,1.73-.86,2.96-1.46Zm13.08,16.47l-1.32-.49c-.38,.8-.88,1.56-1.12,2.4-.9,3.1-1.92,6.19-2.49,9.35-.53,2.95-1.94,4.79-4.82,5.52-.09,.02-.12,.27-.2,.45h4.54c1.85-5.9,3.63-11.57,5.41-17.23Zm-7.3-36.68c2.18,1.52,4.2,2.93,6.26,4.37,1.33-2.87,1.04-5.16-.56-6.04-1.81-.99-4.21-.26-5.7,1.67Zm13.86,35.41c-.13,.11-.25,.22-.38,.33,.59,4.48,1.07,8.99,1.82,13.44,.35,2.11,.06,3.7-1.8,5.1,1.21-.15,3.03-.7,3-1.15-.31-5.43-.86-10.86-1.44-16.27-.06-.52-.78-.98-1.19-1.46Zm-24.51-11.66c5.04-.86,8.74-3.53,11.14-7.87,.23-.41-.02-1.09-.05-1.64-.28-.06-.56-.12-.85-.18-1.21,2.12-2.05,4.64-3.75,6.25-1.72,1.62-4.3,2.34-6.5,3.45Zm-5.56-11.4c3.55,2.2,7.42,4.6,11.79,7.31-2.13-3.67-9.51-7.74-11.79-7.31Z"/>
  <path d="M94.23,52.84c0,2.8,.15,5.28-.04,7.73-.2,2.55-2.03,3.93-4.5,3.26-5.55-1.51-11.17-1.64-16.84-1.29-1.62,.1-3.21,.48-5.03,.23,1.3-.38,2.58-.97,3.9-1.08,2.48-.21,4.99-.26,7.48-.14,1.64,.08,2.26-.59,2.83-2.03,1.53-3.88,1.97-7.81,1.68-11.96-.28-3.89-.08-7.81-.19-11.71-.02-.77-.4-1.58-.8-2.27-1.98-3.37-3.95-6.74-6.05-10.03-3.05-4.78-2.85-9.76-.99-14.81,.26-.72,1.36-1.54,2.12-1.59,3.49-.21,6.99-.27,10.48-.12,.71,.03,2.02,1.32,1.94,1.89-.63,4.72,1.77,7.18,5.29,10.06,4.13,3.38,7.16,8.19,10.33,12.63,3.87,5.4,7.39,11.05,11.05,16.6,.27,.42,.6,.83,.75,1.29,1.26,3.94,3.64,7.02,7.05,9.34,.38,.26,.63,.71,1.12,1.3-1.02,.18-1.79,.31-2.7,.46,.56,1.77,1.09,3.41,1.84,5.77-4.81-1-8.98-1.6-12.96-2.83-1.31-.41-2.21-2.38-3.12-3.76-2.44-3.73-4.78-7.52-7.39-11.66-.43,2.83-.8,5.19-1.21,7.87-2.34-1.22-4.21-2.19-6.04-3.15Zm-4.16-30.5c.1,.29,.19,.59,.29,.88-4.1,1.15-4.5,2.55-1.6,5.77,.67,.74,1.37,1.46,2.15,2.09,6.46,5.2,12.95,10.37,19.41,15.57,2.46,1.98,4.87,4.01,7.31,6.01-.32-1.69-.9-3.08-1.72-4.31-4.85-7.26-9.76-14.47-14.63-21.71-2.57-3.81-5.33-7.34-9.67-9.44-1.03-.49-1.67-2.34-1.96-3.68-.39-1.74-.26-3.6-.35-5.51-3.96,0-7.69-.06-11.41,.07-.55,.02-1.3,.9-1.55,1.54-1.98,5.09-1.26,9.82,1.67,14.46,4.61,7.3,9.3,14.59,13.3,22.23,1.95,3.72,3.97,6.75,8.44,8.15,.28-2.43,.56-4.87,.84-7.3,.44-.32,.89-.63,1.33-.95,.41,.91,.73,1.87,1.25,2.72,2.07,3.41,4.14,6.82,6.34,10.15,.94,1.43,1.97,3.36,3.36,3.81,3.4,1.11,7.03,1.49,10.57,2.16,.16-.18,.32-.36,.47-.54-1.71-3.18-2.75-7.08-5.26-9.4-6.88-6.35-14.43-11.97-21.62-18-3.54-2.97-6.96-6.12-10.22-9.39-.64-.65-.84-2.65-.32-3.33,.77-1.01,2.35-1.41,3.59-2.07Zm-7.71,39.02c2.6,.57,4.93,1.29,7.31,1.51,1.08,.1,3-.53,3.26-1.28,1.01-2.9,.85-5.93,0-8.11-2.42,0-4.25-.13-6.05,.06-.85,.09-2.1,.58-2.38,1.23-.89,2.03-1.41,4.23-2.14,6.59Zm2.73-24.68c-.17,.11-.34,.21-.51,.32v15.14c1.53,.31,2.65,.56,3.79,.75,2.62,.43,4.35-1.43,3.24-3.78-2-4.22-4.33-8.3-6.52-12.43Z"/>
  <path d="M42.85,51.44c.79,5.97-5.14,12.71-12.59,13.06-7.69,.36-14.02-4.7-14.62-12.24-.38-4.79-.07-9.64-.07-14.46,.22-.02,.45-.05,.67-.07,.11,1.74,.21,3.48,.35,5.78,1.35-1.51,2.41-2.7,3.61-4.05,1.06,.99,2.07,1.93,3.24,3.02,1.13-.98,2.22-1.93,3.37-2.93,1.13,.99,2.19,1.91,3.35,2.93,1.06-.97,2.07-1.91,3.2-2.94,1.14,.99,2.18,1.9,3.28,2.87,1.19-.97,2.26-1.85,3.44-2.81,1.17,1.28,2.28,2.48,3.79,4.13v-5.96c.24,0,.47,0,.71-.01v14.08c-.34-4.04-.34-8.21-4.82-10.7-.83,.67-1.83,1.48-3.05,2.47-1.07-.88-2.19-1.8-3.36-2.77-1.05,.96-2.02,1.84-3.2,2.93-1.05-.97-2.07-1.89-3.25-2.97-1.09,.93-2.14,1.83-3.42,2.93-.98-.9-1.99-1.82-2.99-2.74-4.14,3.38-5.37,8.66-3.4,14.34,1.63,4.69,6.56,8.24,11.95,8.22,7.97-.03,12.16-4.61,13.81-12.09Z"/>
  <path d="M50.03,11.62c1.42-1.8,2.58-3.27,4.01-5.09,1.54,2.55,2.91,4.81,4.28,7.07-.21,.14-.41,.27-.62,.41-1.22-1.86-2.44-3.71-3.78-5.76-1.34,1.62-2.54,3.07-3.94,4.77-1.29-1.58-2.52-3.08-3.92-4.8-1.34,1.58-2.6,3.07-4.06,4.79-1.3-1.63-2.52-3.15-3.86-4.84-1.34,1.61-2.64,3.18-4.1,4.93-1.31-1.69-2.51-3.25-3.85-4.98-1.33,1.63-2.57,3.16-4.02,4.94-1.26-1.57-2.47-3.08-3.92-4.89-1.37,1.65-2.65,3.19-4.07,4.9-1.27-1.61-2.49-3.14-3.9-4.93-1.33,1.69-2.53,3.21-3.87,4.92-1.35-1.63-2.58-3.12-4-4.84-1.34,2.08-2.56,3.96-3.77,5.84-.2-.12-.4-.24-.6-.37,1.37-2.35,2.74-4.69,4.21-7.19,1.41,1.73,2.7,3.33,4.14,5.1,1.35-1.73,2.6-3.33,3.91-4.99,1.26,1.63,2.48,3.2,3.86,4.99,1.4-1.7,2.73-3.32,4.09-4.97,1.27,1.62,2.5,3.18,3.89,4.96,1.35-1.66,2.57-3.17,3.99-4.91,1.28,1.57,2.49,3.07,3.93,4.85,1.4-1.68,2.69-3.21,4.06-4.85,1.3,1.63,2.52,3.16,3.9,4.9,1.38-1.67,2.61-3.17,4.01-4.88,1.34,1.66,2.56,3.17,3.98,4.93Z"/>
  <path class="cls-1" d="M165.82,29.55c-1.87,.68-3.64,1.33-5.56,2.03-.78-4.02-3.31-6.53-6.75-8.44,.79-1.09,1.5-1.99,2.13-2.94,1.22-1.85,.63-2.94-1.44-3.72-1.12-.42-2.03-1.49-2.88-2.41-.15-.17,.39-1.44,.76-1.53,1.06-.25,2.57-.63,3.25-.1,5.56,4.27,9.06,9.91,10.47,17.11Z"/>
  <path class="cls-1" d="M166.42,30.4c.37,4.38,.75,8.33,.98,12.28,.03,.57-.66,1.63-1.14,1.71-2.42,.4-4.89,.56-7.44,.81,.47-4.15,.88-8.07,1.4-11.97,.06-.41,.68-.9,1.14-1.08,1.52-.6,3.08-1.08,5.06-1.75Z"/>
  <path class="cls-1" d="M147.05,30.08c-1.23,.61-2.09,1.03-2.96,1.46-4.43,2.21-4.46,2.21-5.46-2.71-.31-1.51-.43-3.06-.73-5.22,3.29,2.32,6.11,4.32,9.15,6.47Z"/>
  <path class="cls-1" d="M160.13,46.55c-1.78,5.67-3.56,11.34-5.41,17.23h-4.54c.08-.18,.11-.43,.2-.45,2.89-.73,4.3-2.56,4.82-5.52,.57-3.17,1.59-6.25,2.49-9.35,.24-.84,.74-1.6,1.12-2.4l1.32,.49Z"/>
  <path class="cls-1" d="M152.83,9.87c1.49-1.93,3.89-2.66,5.7-1.67,1.6,.87,1.89,3.17,.56,6.04-2.06-1.44-4.08-2.85-6.26-4.37Z"/>
  <path class="cls-1" d="M166.69,45.28c.41,.49,1.14,.94,1.19,1.46,.59,5.42,1.13,10.84,1.44,16.27,.03,.45-1.79,1-3,1.15,1.86-1.4,2.15-3,1.8-5.1-.75-4.46-1.23-8.96-1.82-13.44,.13-.11,.25-.22,.38-.33Z"/>
  <path class="cls-1" d="M142.18,33.61c2.2-1.11,4.78-1.82,6.5-3.45,1.7-1.6,2.53-4.13,3.75-6.25,.28,.06,.56,.12,.85,.18,.03,.55,.27,1.23,.05,1.64-2.4,4.35-6.1,7.01-11.14,7.87Z"/>
  <path class="cls-1" d="M136.62,22.22c2.29-.43,9.66,3.64,11.79,7.31-4.37-2.71-8.25-5.11-11.79-7.31Z"/>
  <path class="cls-1" d="M90.06,22.34c-1.24,.66-2.82,1.06-3.59,2.07-.52,.68-.32,2.68,.32,3.33,3.26,3.28,6.68,6.42,10.22,9.39,7.19,6.03,14.73,11.65,21.62,18,2.51,2.31,3.55,6.22,5.26,9.4-.16,.18-.32,.36-.47,.54-3.54-.67-7.18-1.05-10.57-2.16-1.39-.45-2.42-2.39-3.36-3.81-2.2-3.33-4.27-6.74-6.34-10.15-.51-.85-.84-1.81-1.25-2.72-.44,.32-.89,.63-1.33,.95-.28,2.44-.56,4.88-.84,7.3-4.46-1.41-6.48-4.43-8.44-8.15-4.01-7.63-8.69-14.93-13.3-22.23-2.93-4.64-3.64-9.37-1.67-14.46,.25-.64,1-1.52,1.55-1.54,3.72-.14,7.45-.07,11.41-.07,.1,1.91-.03,3.76,.35,5.51,.3,1.34,.94,3.18,1.96,3.68,4.34,2.09,7.1,5.62,9.67,9.44,4.88,7.24,9.79,14.45,14.63,21.71,.82,1.23,1.4,2.62,1.72,4.31-2.43-2.01-4.85-4.03-7.31-6.01-6.46-5.2-12.95-10.37-19.41-15.57-.77-.62-1.48-1.35-2.15-2.09-2.9-3.22-2.5-4.62,1.6-5.77-.1-.29-.19-.59-.29-.88Zm-7.46-9.27c-.99-.36-2.12-.8-3.27-1.12-.08-.02-.39,.77-.59,1.18,.86,.16,1.72,.33,2.68,.51,.32,1.79,.64,3.61,.96,5.43l.35-.04c.4-1.82,.79-3.64,1.12-5.16,1.09-.34,1.86-.58,2.64-.83-.17-.41-.46-1.2-.51-1.18-1.15,.36-2.27,.8-3.39,1.22Z"/>
  <path class="cls-1" d="M82.35,61.36c.73-2.36,1.25-4.56,2.14-6.59,.29-.65,1.53-1.14,2.38-1.23,1.8-.19,3.63-.06,6.05-.06,.85,2.17,1,5.2,0,8.11-.26,.75-2.18,1.38-3.26,1.28-2.38-.22-4.71-.94-7.31-1.51Z"/>
  <path class="cls-1" d="M85.08,36.68c2.19,4.14,4.51,8.21,6.52,12.43,1.12,2.35-.62,4.21-3.24,3.78-1.14-.19-2.26-.45-3.79-.75v-15.14c.17-.11,.34-.21,.51-.32Z"/>
  <path d="M82.61,13.07c1.12-.42,2.24-.86,3.39-1.22,.04-.01,.33,.77,.51,1.18-.78,.24-1.55,.49-2.64,.83-.33,1.51-.73,3.34-1.12,5.16l-.35,.04c-.32-1.82-.64-3.64-.96-5.43-.95-.18-1.82-.35-2.68-.51,.2-.41,.51-1.2,.59-1.18,1.15,.33,2.27,.76,3.27,1.12Z"/>
</svg>