<?xml version="1.0" encoding="utf-8"?>
<!-- Generator: Adobe Illustrator 26.5.3, SVG Export Plug-In . SVG Version: 6.00 Build 0)  -->
<svg version="1.1" id="Layer_1" xmlns="http://www.w3.org/2000/svg" xmlns:xlink="http://www.w3.org/1999/xlink" x="0px" y="0px"
	 viewBox="0 0 1920 1080" style="enable-background:new 0 0 1920 1080;" xml:space="preserve">
<g>
	<g>
		<path d="M928.21,547.37c2.74-0.98,4.95-0.38,7.17,0.59c0.57,0.25,1.32,1.23,1.9,0.17c0.46-0.84-0.09-1.63-0.79-2.16
			c-1.56-1.18-3.33-1.81-5.29-2.03c-0.88-0.1-1.85,0.26-2.66-0.39c1.25-1.21,2.45-1.28,5.32-0.35c3.63,1.18,3.63,1.18,3.63-2.79
			c0-5.16,0.01-10.33,0-15.49c-0.01-4.87-1.89-6.4-6.74-5.52c-0.4,0.07-0.8,0.26-1.15-0.12c1.95-2.39,6.88-1.58,8.5,1.39
			c0.74,1.36,0.91,2.83,0.91,4.35c-0.01,5.75,0.04,11.5-0.03,17.24c-0.02,1.82,0.22,2.37,2.17,1.48c2.11-0.97,4.42-1.86,6.93-0.65
			c-0.78,1.35-1.89,0.83-2.8,0.91c-2.11,0.2-4.14,0.55-5.63,2.27c-0.46,0.53-0.85,1.2-0.45,1.82c0.52,0.82,1.19,0.12,1.74-0.11
			c2.14-0.9,4.28-1.59,7.16-0.52c-1.96,1.02-3.69,0.5-5.19,1.1c-3.71,1.49-3.84,1.64-3.93,5.61c-0.05,2.01,0.51,4.13-0.68,6.25
			c-1.35-1.59-0.75-3.3-0.77-4.85c-0.08-5.76-1.41-7.18-7.3-7.49C929.66,548.05,929.06,548.18,928.21,547.37z"/>
		<path d="M954.82,560.18c0.15-1.94,1.3-3.34,2.42-4.65c0.92-1.08,1.46,0.2,1.86,0.76c1.03,1.4,1.85,1.77,2.87-0.02
			c0.78-1.37,1.68-1.69,2.68-0.07c0.85,1.38,1.84,1.94,2.93,0.1c0.92-1.56,1.9-1.37,2.77,0.08c0.94,1.56,1.85,1.69,2.78,0
			c0.87-1.58,1.87-1.53,2.77-0.08c0.95,1.52,1.87,1.53,2.77,0.07c1.08-1.75,2-1.4,2.9,0.1c0.86,1.43,1.72,1.37,2.57,0.04
			c1.1-1.71,2.13-1.52,3.14,0.07c0.78,1.23,1.53,1.46,2.36,0.04c1.32-2.25,2.33-1.73,3.25,0.34c0.46,1.03,1.09,1.99,1.84,3.33
			c-1.83-0.08-1.96-1.36-2.51-2.12c-0.71-0.98-1.28-1.62-2.12-0.15c-1.01,1.77-2.12,2.01-3.23,0.1c-0.93-1.6-1.67-1.19-2.48,0.11
			c-0.85,1.38-1.79,2.03-2.9,0.17c-0.93-1.56-1.91-1.68-2.87,0.01c-0.76,1.35-1.64,1.67-2.53,0.14c-1.05-1.81-2.08-1.84-3.14-0.04
			c-0.87,1.48-1.7,1.37-2.53-0.02c-0.86-1.43-1.79-1.99-2.84-0.19c-0.98,1.69-1.99,1.58-2.89,0.01c-1.07-1.87-1.88-1.32-2.79,0.11
			c-0.77,1.2-1.69,1.69-2.58,0.12c-1.1-1.95-1.95-1.57-2.82,0.18C956.19,559.33,956.03,560.21,954.82,560.18z"/>
		<path d="M974.46,528.62c-2.49,0-4.98,0.03-7.47-0.01c-2.48-0.04-3.09-0.76-2.46-3.27c0.95-3.77,3.36-6.27,7.17-7.16
			c3.78-0.89,7.04,0.16,9.68,3.05c1.64,1.79,2.07,4.1,2.68,6.32c0.37,1.33-0.78,1.03-1.4,1.04
			C979.93,528.64,977.19,528.61,974.46,528.62C974.46,528.61,974.46,528.61,974.46,528.62z M974.01,527.37
			c2.16,0,4.31-0.03,6.47,0.01c1.82,0.03,2.11-0.92,1.65-2.42c-1.04-3.37-4.49-5.85-8.15-5.84c-3.73,0.01-6.99,2.4-8.1,5.88
			c-0.49,1.55-0.14,2.41,1.65,2.38C969.7,527.34,971.86,527.37,974.01,527.37z"/>
	</g>
</g>
</svg>
