<?xml version="1.0" encoding="utf-8"?>
<!-- Generator: Adobe Illustrator 26.5.3, SVG Export Plug-In . SVG Version: 6.00 Build 0)  -->
<svg version="1.1" id="Layer_1" xmlns="http://www.w3.org/2000/svg" xmlns:xlink="http://www.w3.org/1999/xlink" x="0px" y="0px"
	 viewBox="0 0 1920 1080" style="enable-background:new 0 0 1920 1080;" xml:space="preserve">
<g>
	<g>
		<path d="M964.77,562.6c-0.68-0.96-0.41-1.99-0.41-2.95c-0.02-8.49-0.08-16.98,0.03-25.48c0.03-2.1-0.65-3.21-2.68-3.78
			c-3.21-0.9-6.42-1.82-9.78-1.77c-2.65,0.04-3.1-1.31-3.11-3.61c-0.01-2.27,0.74-3.19,3.01-3.11c3.85,0.14,7.6-0.76,11.39-1.27
			c1.42-0.19,2.33,0.02,2.33,1.65c0,13.07,0,26.14-0.02,39.21C965.53,561.89,965.49,562.33,964.77,562.6z M964.35,525.9
			c0-0.41-0.05-0.84,0.01-1.24c0.33-2.31-0.47-3.07-2.88-2.57c-2.99,0.62-6.04,1.09-9.12,1.04c-1.53-0.02-2.27,0.44-2.27,2.12
			c0,1.67,0.74,2.16,2.26,2.16c3.18-0.01,6.23,0.83,9.25,1.69c2.73,0.78,2.72,0.83,2.74-1.96
			C964.35,526.73,964.35,526.31,964.35,525.9z"/>
		<path d="M971.08,551.46c-0.13-6.48-0.14-12.96,0.01-19.43c0.44,0,0.88,0,1.32,0.01c0.11,6.49,0.26,12.98-0.13,19.47
			C971.88,551.49,971.48,551.47,971.08,551.46z"/>
	</g>
</g>
</svg>
