<?xml version="1.0" encoding="utf-8"?>
<!-- Generator: Adobe Illustrator 26.5.3, SVG Export Plug-In . SVG Version: 6.00 Build 0)  -->
<svg version="1.1" id="Layer_1" xmlns="http://www.w3.org/2000/svg" xmlns:xlink="http://www.w3.org/1999/xlink" x="0px" y="0px"
	 viewBox="0 0 1920 1080" style="enable-background:new 0 0 1920 1080;" xml:space="preserve">
<g>
	<g>
		<path d="M966.32,562.6c-1.2-1.05-0.87-2.11-0.88-3.05c-0.03-8.56-0.09-17.13,0.03-25.69c0.03-2.14-0.77-3.2-2.72-3.77
			c-3.52-1.04-7.13-1.66-10.77-1.91c-2.69-0.19-2.02-2.06-2.14-3.62c-0.12-1.64,0.26-2.65,2.25-2.72c4.07-0.13,8.1-0.77,12.11-1.44
			c1.29-0.21,2.47-0.39,2.47,1.64c-0.05,13.14-0.03,26.27-0.05,39.41C966.62,561.75,966.47,562.05,966.32,562.6z M965.43,525.86
			c0-0.33,0-0.67,0-1c-0.02-3.42-0.01-3.37-3.35-2.87c-2.88,0.43-5.77,0.77-8.67,1.05c-1.25,0.12-2.31,0.14-2.34,1.84
			c-0.03,1.54,0.71,1.99,2.09,2.13c3.23,0.32,6.43,0.87,9.53,1.86c2.71,0.86,2.71,0.85,2.73-2.02
			C965.43,526.52,965.43,526.19,965.43,525.86z"/>
	</g>
</g>
</svg>
