<?xml version="1.0" encoding="utf-8"?>
<!-- Generator: Adobe Illustrator 26.5.3, SVG Export Plug-In . SVG Version: 6.00 Build 0)  -->
<svg version="1.1" id="Layer_1" xmlns="http://www.w3.org/2000/svg" xmlns:xlink="http://www.w3.org/1999/xlink" x="0px" y="0px"
	 viewBox="0 0 1920 1080" style="enable-background:new 0 0 1920 1080;" xml:space="preserve">
<g>
	<g>
		<path d="M856.33,517.49c-16.14-26.08-27.96-53.94-40.75-81.26c-6.2-13.24-2.07-24.91,9.32-32.07c10.96-6.89,18.7-6.83,27.05,3.24
			c14.3,17.23,31.53,31.01,48.23,45.61c15.93,13.93,28.33,30.37,24.52,54.16c-1.15,7.17,6.03,9.23,11.91,9.78
			c9.38,0.87,16.9-5.4,17.13-14.33c0.34-12.85-4.44-24.17-11.37-34.8c-8.16-12.54-16.44-25.03-21.23-39.42
			c-3.4-10.21-5.12-20.26,1.19-30.39c-5.26,30.5,13.83,51.74,27.77,74.89c5.06,8.41,6.87,17.61,7.1,27.21
			c0.37,15.8-12.43,24.99-27.1,18.64c-5.9-2.55-9.32-2.49-13.95,2.14c-8.35,8.35-19.95,8.98-30.7,9.23
			c-28.5,0.67-57.02,0.26-85.54,0.18c-2.72-0.01-6.53,1.24-7.65-2.38c-1.2-3.89,1.07-7.04,4.27-9.33c5.8-4.15,12.58-3.74,19.04-3.29
			c9.45,0.66,18.85,2.17,28.24,3.53C847.83,519.42,851.73,520.1,856.33,517.49z M921.76,495.15c-0.73-14.26-10.38-27.88-22.81-38.58
			c-16.8-14.45-34.73-27.49-48.14-45.54c-6.56-8.82-14.79-9.52-23.94-3.64c-8.72,5.61-12.64,14.56-8.82,24.23
			c9.9,25.07,21.81,49.28,34.84,72.81c11.79,21.29,27.45,24.72,50.31,19.1C915.9,520.42,921.8,511.78,921.76,495.15z M865.38,526.18
			c-11.67-8.32-62.92-8.31-68,0C820.02,526.18,842.38,526.18,865.38,526.18z"/>
	</g>
</g>
</svg>
