<?xml version="1.0" encoding="UTF-8"?>
<svg id="Layer_1" data-name="Layer 1" xmlns="http://www.w3.org/2000/svg" viewBox="0 0 114 73">
  <path d="M56.01,55.9c-.72-1.69-1.41-3.38-2.17-5.04-.47-1.03-.57-2.08-.48-3.17,.05-.58,.47-.88,1.03-.88,.61,0,1,.44,.88,.96-.56,2.45,.95,4.31,1.76,6.35,1.66,4.21,3.61,5.49,8.18,5.32,7.4-.29,14.76-1.18,22.18-1.01,2.58,.06,5.16-.02,7.72,.41,1.78,.3,2.79-.17,2.88-2.28,.11-2.48,.68-4.94,.92-7.42,.18-1.88,.92-2.77,2.97-2.78,5.12-.03,5.12-.12,5.12,4.9,0,3.25-.03,6.49,0,9.74,.02,1.83-.59,2.58-2.63,2.64-13.4,.4-26.8,.27-40.2,.31-.5,0-1,.09-1.5,.06-.93-.05-1.49,1.61-2.39,.79-1.5-1.36-3.9-1.69-4.56-4.03-.15-.54-.53-1.04-.9-1.48-1.89-2.25-1.74-2.76,1.18-3.41Zm49.36-1.05c0-1.49-.03-2.98,0-4.47,.03-1.31-.2-2.31-1.84-2.3-1.43,.02-2.87-.2-3.1,1.89-.3,2.71-.73,5.41-1.13,8.11-.09,.64,0,1.24,.63,1.47,1.6,.6,3.23,2.13,4.82,1.44,1.33-.57,.43-2.55,.6-3.9,.09-.73,.02-1.49,.01-2.24Zm-5.9,6.95c-12.58-2.3-25.15-1.01-37.73,0h37.73Z"/>
  <path d="M16.14,51.46c-3.42,0-6.83,.02-10.25-.01-.81,0-1.83,.09-2.17-.85-.4-1.08,.31-1.92,1.06-2.61,1.06-.96,2.39-1.05,3.74-1.11,2.7-.12,5.27,.7,7.91,.98,.64,.07,1.48,.32,1.89-.26,.5-.7-.4-1.14-.68-1.7-2.89-5.8-5.9-11.55-8.62-17.43-1.24-2.69-.15-5.27,2.31-6.9,2.77-1.83,5.48-2,7.37,.6,3.52,4.83,8.68,7.69,12.79,11.76,2.73,2.71,4.95,6,4.57,10.16-.2,2.2,.6,3.15,2.65,3.24,2.08,.09,3.66-1.27,3.61-3.24-.06-2.36-.58-4.6-2.11-6.53-2.24-2.82-3.88-6-5.39-9.26-1.09-2.35-1.41-4.77-.83-7.3,.11-.49,.29-1.11,.85-1.09,.83,.02,.81,.8,.69,1.33-1.11,4.84,1.63,8.47,3.85,12.24,1.67,2.84,3.97,5.29,4.41,8.83,.65,5.17-2.46,7.9-7.36,6.15-.73-.26-1.37-.65-2.03,.08-2.52,2.78-5.98,2.66-9.26,2.87-2.99,.2-5.99,.04-8.99,.04,0,0,0,0,0,0Zm10.92-2.05c2.55-.18,5.37-.16,6.73-2.86,1.38-2.74,.77-5.5-.85-8.06-1.12-1.78-2.36-3.44-4.03-4.73-4.08-3.14-8.25-6.18-11.34-10.41-1.06-1.45-2.64-1.54-4.3-.86-2.99,1.22-3.89,3.41-2.34,6.7,2.37,5.04,4.83,10.06,7.48,14.96,1.79,3.31,4.43,5.67,8.65,5.26Z"/>
  <path d="M66.91,22.96c-3.82,0-7.65,.05-11.47-.02-2.59-.05-3.26-.94-2.85-3.44,1.16-7,6.66-11.83,13.57-11.91,6.35-.08,11.95,4.65,13.34,11.3,.09,.41,.07,.84,.2,1.23,.96,2.83,.97,2.84-2.07,2.85-3.57,.02-7.15,0-10.72,0h0Zm-1.09-2.02c3.24,0,6.48-.06,9.71,.02,2.08,.05,2.65-.83,2.19-2.76-1.23-5.17-5.94-8.76-11.57-8.74-5.67,.02-10.4,3.59-11.7,8.62-.54,2.09-.1,2.95,2.15,2.88,3.07-.1,6.14-.02,9.21-.03Z"/>
  <path d="M94.8,5.42c.61,.1,.88,.54,1.15,.95,3.58,5.51,7.15,11.01,10.71,16.54,.33,.52,.94,1.22,.11,1.7-.63,.37-1.04-.37-1.34-.83-3.58-5.51-7.15-11.02-10.7-16.55-.38-.59-.96-1.27,.06-1.82Z"/>
  <path d="M84.79,5.38c.26,.39,.55,.8,.82,1.21,3.5,5.35,7,10.69,10.48,16.06,.38,.58,1.07,1.4,.2,1.94-.71,.45-1.14-.46-1.48-.98-3.53-5.43-7.03-10.87-10.54-16.32-.27-.42-.59-.85-.36-1.37,.08-.17,.37-.24,.88-.55Z"/>
</svg>