<svg xmlns="http://www.w3.org/2000/svg" width="73" height="77" viewBox="0 0 73 77" version="1.1"><path d="M 7 14.500 L 7 21 36 21 L 65 21 65 14.500 L 65 8 36 8 L 7 8 7 14.500 M 8 14.500 L 8 20 36 20 L 64 20 64 14.500 L 64 9 36 9 L 8 9 8 14.500 M 63.395 53.500 C 63.396 61.200, 63.553 64.218, 63.743 60.206 C 63.934 56.195, 63.932 49.895, 63.741 46.206 C 63.549 42.518, 63.393 45.800, 63.395 53.500 M 9.422 51.868 C 11.902 52.404, 12.763 53.522, 15.110 59.250 L 17.875 66 12.379 66 C 8.969 66, 7.117 66.380, 7.500 67 C 8.290 68.278, 36.670 68.342, 37.458 67.068 C 37.775 66.555, 36.857 65.993, 35.418 65.818 C 33.264 65.556, 32.379 64.456, 30.401 59.580 C 29.081 56.324, 28 53.310, 28 52.882 C 28 52.455, 30.362 51.939, 33.250 51.737 C 36.138 51.535, 31.300 51.340, 22.500 51.303 C 13.700 51.267, 7.815 51.521, 9.422 51.868 M 14 52.782 C 14 53.265, 15.082 56.324, 16.405 59.580 L 18.809 65.500 25.361 65.795 L 31.912 66.089 29.131 59.295 L 26.351 52.500 20.175 52.202 C 16.779 52.039, 14 52.300, 14 52.782" stroke="none" fill="#5f6166" fill-rule="evenodd"/><path d="M -0 38.512 L -0 77.025 36.750 76.762 L 73.500 76.500 73.762 38.250 L 74.024 0 37.012 0 L 0 0 -0 38.512 M 0.454 39 C 0.454 60.175, 0.587 68.838, 0.749 58.250 C 0.911 47.663, 0.911 30.338, 0.749 19.750 C 0.587 9.163, 0.454 17.825, 0.454 39 M 7 14.500 L 7 21 36 21 L 65 21 65 14.500 L 65 8 36 8 L 7 8 7 14.500 M 8 14.500 L 8 20 36 20 L 64 20 64 14.500 L 64 9 36 9 L 8 9 8 14.500 M 63.395 53.500 C 63.396 61.200, 63.553 64.218, 63.743 60.206 C 63.934 56.195, 63.932 49.895, 63.741 46.206 C 63.549 42.518, 63.393 45.800, 63.395 53.500 M 9.422 51.868 C 11.902 52.404, 12.763 53.522, 15.110 59.250 L 17.875 66 12.379 66 C 8.969 66, 7.117 66.380, 7.500 67 C 8.290 68.278, 36.670 68.342, 37.458 67.068 C 37.775 66.555, 36.857 65.993, 35.418 65.818 C 33.264 65.556, 32.379 64.456, 30.401 59.580 C 29.081 56.324, 28 53.310, 28 52.882 C 28 52.455, 30.362 51.939, 33.250 51.737 C 36.138 51.535, 31.300 51.340, 22.500 51.303 C 13.700 51.267, 7.815 51.521, 9.422 51.868 M 14 52.782 C 14 53.265, 15.082 56.324, 16.405 59.580 L 18.809 65.500 25.361 65.795 L 31.912 66.089 29.131 59.295 L 26.351 52.500 20.175 52.202 C 16.779 52.039, 14 52.300, 14 52.782" stroke="none" fill="#f9f9f9" fill-rule="evenodd"/></svg>