<?xml version="1.0" encoding="UTF-8"?>
<svg id="Layer_1" data-name="Layer 1" xmlns="http://www.w3.org/2000/svg" viewBox="0 0 71 72">
  <defs>
    <style>
      .cls-1 {
        fill: #fefefe;
      }

      .cls-2 {
        fill: #36383e;
      }

      .cls-3 {
        fill: #46484d;
      }

      .cls-4 {
        fill: #46474d;
      }

      .cls-5 {
        fill: #55565b;
      }

      .cls-6 {
        fill: #2d2f35;
      }

      .cls-7 {
        fill: #2e3036;
      }

      .cls-8 {
        fill: #4e5055;
      }
    </style>
  </defs>
  <path class="cls-1" d="M70.97,35.98c0,11.48-.01,22.96,.02,34.43,0,1.14-.11,1.59-1.47,1.58-22.71-.06-45.41-.05-68.12,0-1.22,0-1.39-.3-1.39-1.43C.05,47.53,.06,24.49,0,1.45,0,0,.56,.02,1.62,.02,24.24,.04,46.87,.05,69.49,0c1.29,0,1.51,.34,1.51,1.55-.05,11.48-.03,22.96-.03,34.43Z"/>
  <path class="cls-2" d="M35.94,7.52c8.98,0,17.96,.04,26.93-.04,1.63-.01,2.15,.41,2.08,2.07-.13,3.15-.08,6.32-.02,9.47,.03,1.28-.17,1.96-1.73,1.96-18.2-.05-36.41-.04-54.61,0-1.34,0-1.7-.44-1.67-1.71,.07-3.24,.11-6.49-.01-9.72-.06-1.66,.49-2.07,2.1-2.06,8.98,.08,17.95,.04,26.93,.04Z"/>
  <path class="cls-7" d="M31.95,63.49c.73,3.74,4,1.79,6,3.03H7.16c0-.22,0-.43-.01-.65,2.93,0,5.86-.1,8.78,.04,1.57,.07,1.86-.54,1.53-1.84-.2-.57,.13-.7,.59-.72,1.56,1.82,3.61,2.22,5.84,1.91,2.31-.32,4.82,.88,6.92-.92,.28-.41,.47-.96,1.13-.85Z"/>
  <path class="cls-6" d="M62.75,66.73v-27.88c.14,0,.28,0,.43-.01v27.93c-.14-.01-.28-.02-.43-.03Z"/>
  <path class="cls-4" d="M27.44,51.97c1.03,2.65,2.07,5.3,3.1,7.95,.31,.54,.3,.97-.38,1.19-1.22-.37-1.4-1.52-1.84-2.48-1-2.17-1.56-4.53-2.9-6.55-.52-.71-1.83-.33-2.02-1.48,.16-.27,.4-.39,.71-.36,4.6,.16,9.21-.32,13.8,.25,.27,.34,.03,.46-.25,.55-2.73,.42-5.48,.03-8.21,.22-.68,.05-1.75-.64-2.01,.72Z"/>
  <path class="cls-8" d="M37.9,50.49c-4.79,.02-9.59,.03-14.38,.05-.53,.47-1.17,.6-1.85,.62-4.4,.14-8.79-.05-13.18-.23-.43-.02-.8-.18-1.09-.51,.94-.53,1.96-.27,2.93-.27,8.4-.02,16.8-.02,25.2,0,.79,0,1.66-.34,2.37,.33Z"/>
  <path class="cls-4" d="M7.4,50.42c5.37,.04,10.75,.07,16.12,.11,0,.13,0,.26,0,.39-.91,1.02-2.15,.61-3.27,.73-1.93,.21-3.94-.5-5.79,.49-.23,1.15,.87,2.12,.43,3.29-.16,.35-.37,.62-.81,.53-.69-1.48-1.38-2.95-2.07-4.43-1.55-.82-3.31,.15-4.88-.57-.27-.35-.03-.46,.26-.55Z"/>
  <path class="cls-8" d="M27.44,51.97c-.58-1.46,.66-.97,1.17-.98,3.02-.03,6.03,.02,9.05,.04-2.59,.63-5.21,.09-7.81,.31-.82,.07-1.85-.5-2.4,.63Z"/>
  <path class="cls-5" d="M16.5,62.02c-.66-1.11-1.25-2.25-1.44-3.56,.22-.38,.04-1.01,.7-1.1,1.21,.86,1.52,2.11,1.57,3.49-.13,.5-.36,.92-.84,1.17Z"/>
  <path class="cls-5" d="M30.05,60.97c.41-.23,.44-.65,.48-1.05,.65,1.12,1.28,2.25,1.42,3.57-.16,.35-.33,.7-.49,1.06-1.44-.81-1.98-1.98-1.41-3.58Z"/>
  <path class="cls-4" d="M15.6,57.35c-.09,.41-.09,.87-.53,1.12-.55-.75-.88-1.58-.98-2.49,.17-.21,.34-.43,.52-.64,1.06,.31,1.39,.99,1,2.02Z"/>
  <path class="cls-3" d="M16.5,62.02c.05-.4,.07-.82,.48-1.05,1.09,.54,1.72,1.25,.96,2.5-.16,.2-.32,.4-.48,.59-.58-.56-.9-1.24-.96-2.05Z"/>
  <path class="cls-8" d="M7.14,50.98c1.62,.26,3.37-.62,4.88,.57-1.57-.67-3.33,.32-4.88-.57Z"/>
  <path class="cls-1" d="M36.01,8.54c8.4,0,16.8,.09,25.2-.06,2.17-.04,2.68,.63,2.52,2.64-.18,2.23-.1,4.49-.02,6.73,.05,1.33-.27,1.91-1.77,1.91-17.47-.05-34.94-.05-52.41,0-1.43,0-1.61-.62-1.59-1.79,.06-2.58,.11-5.16-.02-7.73-.07-1.52,.57-1.73,1.87-1.72,8.73,.05,17.47,.02,26.2,.02Z"/>
  <path class="cls-1" d="M17.95,63.48c-.06-.93-.42-1.75-.96-2.5-.16-1.33-.85-2.45-1.39-3.63-.13-.77-.47-1.44-1-2.02,.09-1.28-.91-2.19-1.15-3.35,0-.37,.18-.7,.54-.69,4,.09,8.02-.4,12.01,.26,1.35,3.14,2.7,6.29,4.05,9.43,.17,1.31,.81,2.44,1.41,3.58,.21,.86,.11,1.37-1.02,1.35-3.38-.06-6.77-.08-10.16,0-1.79,.05-1.5-1.69-2.34-2.42Z"/>
  <path class="cls-8" d="M26,51.54c-3.87-.48-7.75-.1-11.62-.2-.45-.01-.79,.17-.93,.63-.4-1.58,.87-.96,1.43-.97,2.88-.08,5.76-.06,8.64-.07,.82,.22,1.84-.37,2.48,.61Z"/>
</svg>