<?xml version="1.0" encoding="utf-8"?>
<!-- Generator: Adobe Illustrator 26.5.3, SVG Export Plug-In . SVG Version: 6.00 Build 0)  -->
<svg version="1.1" id="Layer_1" xmlns="http://www.w3.org/2000/svg" xmlns:xlink="http://www.w3.org/1999/xlink" x="0px" y="0px"
	 viewBox="0 0 1920 1080" style="enable-background:new 0 0 1920 1080;" xml:space="preserve">
<g>
	<g>
		<path d="M959.66,571.9c0-2.68-0.18-5.38,0.04-8.05c0.55-6.84-1.98-7.18-7.29-8.89c-1.9-0.61-3.94-0.43-6.01-0.48
			c2.14-1.74,7.88-0.61,12.76,2.42c0.93-2.53,0.7-3.83-1.25-5.34c-2.94-2.29-6.37-3.13-10.06-3.05c-0.51,0.01-1.11,0.56-1.56-0.17
			c2.97-1.51,5.34-1,13.07,2.8c0.54-0.74,0.28-1.59,0.28-2.38c0.02-9.08,0.02-18.16,0.01-27.24c0-6.14-4.49-9.3-10.33-7.28
			c-0.5,0.17-0.99,0.71-1.82-0.06c3.12-1.92,6.19-1.65,9.21-0.28c2.35,1.06,3.8,2.86,3.79,5.62c-0.02,9.66-0.02,19.32,0.01,28.98
			c0,0.87-0.25,1.79,0.28,2.72c3.93-2.45,7.95-4.39,12.77-3.08c-5.6,0.93-12.2,0.33-12.98,8.44c4.18-2,8.31-3.62,13.01-2.45
			c-3.02,0.43-6.08,0.55-8.97,1.77c-3.23,1.37-4.12,2.48-4.12,5.98c0,3.32,0,6.64,0,9.96C960.22,571.88,959.94,571.89,959.66,571.9z
			"/>
	</g>
</g>
</svg>
