<?xml version="1.0" encoding="utf-8"?>
<!-- Generator: Adobe Illustrator 26.5.3, SVG Export Plug-In . SVG Version: 6.00 Build 0)  -->
<svg version="1.1" id="Layer_1" xmlns="http://www.w3.org/2000/svg" xmlns:xlink="http://www.w3.org/1999/xlink" x="0px" y="0px"
	 viewBox="0 0 1920 1080" style="enable-background:new 0 0 1920 1080;" xml:space="preserve">
<g>
	<g>
		<path d="M681.13,496.27c17.22-1.47,30.65-3.37,30.14-24.2c-0.53-21.25-13.76-23.66-32.81-23.77c12.54-10.86,24.59-6.59,35.34-6.66
			c13.25-0.08,15.61-3.42,9.52-15.28c-10.21-19.89-9.12-21.06,12.81-21.3c3.37-0.04,6.73-0.02,10.1-0.01
			c26.06,0.08,26.53,0.3,15.52,23.96c-4.91,10.54-1.49,12.44,8.41,12.38c36.47-0.23,72.95-0.35,109.42,0.06
			c11.87,0.13,14.98-2.42,9.49-14.18c-9.73-20.87-8.52-22.01,14.68-22.22c3.37-0.03,6.73-0.02,10.1-0.01
			c23.23,0.08,23.66,0.26,14.81,20.9c-5.32,12.4-1.25,15.92,11.14,15.52c7.94-0.26,16.51-1.85,27.76,5.28
			c-21.02,2.21-27.83,11.96-26.99,29.07c0.76,15.36,10.8,18.85,24.21,20.38c-4.56,8.71-11.31,6.35-16.66,6.39
			c-30.86,0.24-61.73,0.43-92.58-0.01c-12.53-0.18-16.24,2.52-10.19,15.16c9.53,19.89,7.98,21.56-13.53,21.71
			c-2.24,0.02-4.49,0-6.73,0c-27.05,0-27.58-0.24-16.65-24.59c4.8-10.7,1.34-12.32-8.48-12.24c-33.1,0.26-66.21,0.21-99.32-0.03
			C694.9,502.56,688.31,504.76,681.13,496.27z M827.75,449.51c-28.64,0-57.28,0-85.92,0c-22.34,0-22.29,0-21.48,21.07
			c0.11,2.74-0.01,5.71-0.97,8.22c-5,13.14,0.49,15.95,13.17,15.84c58.96-0.51,117.92-0.22,176.88-0.22
			c22.84,0,22.79-0.01,23.06-21.77c0.05-3.86-0.18-8.13,1.32-11.5c5.12-11.48-1.57-11.74-10.05-11.69
			C891.77,449.62,859.76,449.51,827.75,449.51z"/>
	</g>
</g>
</svg>
